<svg width="34" height="34" viewBox="0 0 34 34" fill="none" xmlns="http://www.w3.org/2000/svg">
<rect width="34" height="34" rx="17" fill="white"/>
<path fill-rule="evenodd" clip-rule="evenodd" d="M19.9039 12.2035L15.8006 16.4136L26.5 16.4136V19.5863L15.8006 19.5863L19.9039 23.7964C20.5066 24.4149 20.5066 25.4123 19.9039 26.0308C19.2942 26.6564 18.3001 26.6564 17.6904 26.0308L10.9521 19.1171C10.3493 18.4987 10.3493 17.5012 10.9521 16.8828L17.6904 9.96918C18.3001 9.34357 19.2942 9.34357 19.9039 9.96918C20.5066 10.5876 20.5066 11.5851 19.9039 12.2035Z" fill="#EDEDED"/>
<path fill-rule="evenodd" clip-rule="evenodd" d="M18.9039 11.2035L14.8006 15.4136L25.5 15.4136V18.5863L14.8006 18.5863L18.9039 22.7964C19.5066 23.4149 19.5066 24.4123 18.9039 25.0308C18.2942 25.6564 17.3001 25.6564 16.6904 25.0308L9.95206 18.1171C9.34931 17.4987 9.34931 16.5012 9.95206 15.8828L16.6904 8.96918C17.3001 8.34357 18.2942 8.34357 18.9039 8.96918C19.5066 9.5876 19.5066 10.5851 18.9039 11.2035Z" fill="url(#paint0_linear)"/>
<defs>
<linearGradient id="paint0_linear" x1="28" y1="17" x2="9.5" y2="17" gradientUnits="userSpaceOnUse">
<stop offset="0.265625" stop-color="#FF2156"/>
<stop offset="1" stop-color="#3300FF"/>
</linearGradient>
</defs>
</svg>
