<svg width="27" height="30" viewBox="0 0 27 30" fill="none" xmlns="http://www.w3.org/2000/svg">
<path d="M13.7975 4.52353C14.5292 3.79177 15.7155 3.79177 16.4473 4.52353L23.299 11.3752C24.0308 12.1068 24.0308 13.2931 23.299 14.0249C22.5673 14.7566 21.381 14.7566 20.6492 14.0249L13.7975 7.17316C13.0657 6.4414 13.0657 5.25511 13.7975 4.52353Z" fill="#5E7599"/>
<path d="M8.61172 22.5229C7.87996 22.5229 7.28681 21.9298 7.28681 21.198C7.28681 20.4662 7.87996 19.8731 8.61172 19.8731C13.7623 19.8731 17.2234 16.1462 17.2234 10.5989C17.2234 9.86735 17.8166 9.27402 18.5483 9.27402C19.2799 9.27402 19.8732 9.86717 19.8732 10.5989C19.8731 17.6193 15.2424 22.5229 8.61172 22.5229Z" fill="#002755"/>
<path d="M10.987 10.211L20.8099 0.38811C21.3274 -0.12937 22.1663 -0.12937 22.6836 0.38811L23.4597 1.16424C23.9772 1.68155 23.977 2.52044 23.4597 3.03792L13.6368 12.8607C13.1193 13.3782 12.2806 13.3782 11.7631 12.8607L10.987 12.0847C10.4697 11.5672 10.4697 10.7283 10.987 10.211Z" fill="#002755"/>
<path d="M10.987 7.78861L17.0625 1.71303C17.58 1.19555 18.4189 1.19555 18.9362 1.71303L22.1348 4.91144C22.6521 5.42892 22.6521 6.26781 22.1348 6.78511L16.0592 12.8607C15.5417 13.3782 14.703 13.3782 14.1855 12.8607L10.987 9.66228C10.4697 9.1448 10.4697 8.30591 10.987 7.78861Z" fill="#435E88"/>
<path d="M20.9054 4.81595C20.5541 4.81542 20.2167 4.95508 19.9687 5.20401L14.3477 10.8249C13.8302 11.3424 13.8302 12.1811 14.3475 12.6986C14.865 13.216 15.7039 13.216 16.2212 12.6987L16.5698 12.3501L16.5712 12.3488L16.5749 12.345C16.5767 12.3432 16.5786 12.3412 16.5804 12.3395L16.6278 12.2921L16.6287 12.291L16.6301 12.2898L16.6352 12.2847C16.6375 12.2824 16.6396 12.2801 16.6419 12.278L16.6451 12.2748C16.6476 12.2723 16.6502 12.2695 16.6529 12.2668H16.6531L16.6679 12.252C16.6686 12.2513 16.6697 12.2502 16.6704 12.2495L16.6831 12.2368C16.6856 12.2343 16.6877 12.2322 16.6902 12.2297L16.6916 12.2283C16.6937 12.2262 16.696 12.2239 16.6982 12.2217L16.7121 12.2078C16.7141 12.2058 16.716 12.2039 16.718 12.2019L16.7227 12.1972L16.7462 12.1735L16.751 12.1687L16.7584 12.1614L16.7616 12.1581C16.7676 12.1523 16.7733 12.1466 16.7791 12.1408L16.7821 12.1378C16.7949 12.125 16.8079 12.1119 16.821 12.0989L16.8249 12.095C16.8313 12.0884 16.8378 12.0821 16.8444 12.0755L16.8445 12.0753C16.8513 12.0686 16.858 12.0619 16.8649 12.055L16.867 12.0527C16.8737 12.046 16.8806 12.0393 16.8873 12.0324L16.8891 12.0306C16.8923 12.0276 16.8956 12.0241 16.8988 12.0209L16.9006 12.0191C16.9031 12.0167 16.9055 12.0144 16.908 12.0117L16.9223 11.9974C16.9257 11.994 16.9287 11.991 16.9321 11.9877L16.9345 11.9854C16.9375 11.9822 16.9407 11.979 16.9439 11.976L16.9457 11.9742C16.9485 11.9712 16.9515 11.9682 16.9545 11.9654L16.9579 11.9618C16.9646 11.9551 16.9715 11.9484 16.9782 11.9415L17.0088 11.9109L17.0141 11.9058L17.0151 11.9046C17.0187 11.901 17.0222 11.8975 17.0259 11.894L17.0275 11.8924C17.0344 11.8853 17.0418 11.878 17.0489 11.8708L17.0526 11.8673L17.0569 11.863C17.0586 11.8611 17.0604 11.8593 17.0624 11.8574L17.0632 11.8565C17.0666 11.8531 17.07 11.8498 17.0733 11.8466L17.0769 11.8429C17.0802 11.8395 17.0834 11.8363 17.0868 11.833L17.0876 11.8321C17.0894 11.8303 17.091 11.8287 17.0928 11.8269L17.1264 11.7934C17.1338 11.7859 17.141 11.7787 17.1486 11.7713L17.1506 11.7693C17.1585 11.7612 17.1667 11.753 17.1748 11.7449L17.1994 11.7205L17.2521 11.6678L17.2526 11.6671C17.2694 11.6505 17.2864 11.6334 17.3035 11.6164L17.3069 11.613C17.3417 11.578 17.3772 11.5425 17.4133 11.5064H17.4135L17.5231 11.3968L17.5266 11.3931C17.6767 11.243 17.8351 11.0846 17.9988 10.9209L18.001 10.9189C19.6476 9.27225 21.8422 7.07751 21.8422 7.07751C22.3597 6.56003 22.3597 5.72132 21.8422 5.20384C21.5938 4.95544 21.2568 4.81595 20.9054 4.81595Z" fill="#33527D"/>
<path d="M3.97454 15.8985C2.64981 15.8985 2.64981 17.2234 2.64981 17.2234C2.64981 17.2234 2.64981 18.5482 3.97454 18.5482C3.97454 18.5482 6.62435 18.5482 6.62435 21.198V25.1725H13.2487V21.198C13.2487 21.198 13.2487 18.5482 15.8985 18.5482C16.6303 18.5482 17.2234 17.955 17.2234 17.2234C17.2234 16.4917 16.6303 15.8985 15.8985 15.8985H3.97454Z" fill="#435E88"/>
<path d="M7.94926 15.8985C8.68102 15.8992 9.27346 16.4931 9.27276 17.2247C9.27205 17.9554 8.67996 18.5475 7.94926 18.5482C7.94926 18.5482 10.5991 18.5482 10.5991 21.198V25.1725H13.2487V21.198C13.2487 21.198 13.2487 18.5482 15.8985 18.5482C16.6303 18.5482 17.2234 17.955 17.2234 17.2234C17.2234 16.4917 16.6303 15.8985 15.8985 15.8985H7.94926Z" fill="#163969"/>
<path d="M12.5862 22.5229C11.8547 22.5229 11.2613 21.9298 11.2613 21.198C11.2613 20.4662 11.8545 19.8731 12.5862 19.8731C17.737 19.8731 21.198 16.1462 21.198 10.5989C21.198 9.86735 21.7911 9.27402 22.5229 9.27402C23.2546 9.27402 23.8478 9.86717 23.8478 10.5989C23.8478 17.6193 19.2171 22.5229 12.5862 22.5229Z" fill="#33527D"/>
<path d="M21.3687 17.2235C20.6373 17.2229 20.0449 16.6298 20.0452 15.8984C20.0454 15.6951 20.0923 15.4946 20.1823 15.3123C20.8564 13.9448 21.1979 12.3593 21.1979 10.5989C21.1987 9.86736 21.7925 9.27474 22.5243 9.27544C23.2548 9.27633 23.8469 9.86842 23.8478 10.5989C23.8478 12.7687 23.4143 14.7489 22.5577 16.4846C22.3347 16.9374 21.8735 17.224 21.3687 17.2235Z" fill="#002755"/>
<path d="M9.27416 26.4975V23.8478L11.3314 19.7333C11.6945 19.007 12.4367 18.5482 13.2487 18.5482C14.0607 18.5482 14.8029 19.007 15.166 19.7333L17.2232 23.8478V26.4975H9.27416Z" fill="#CDD4DF"/>
<path d="M11.924 23.8478C11.924 24.5796 11.3306 25.1727 10.5991 25.1727C9.86731 25.1727 9.27416 24.5796 9.27416 23.8478C9.27416 23.1161 9.86731 22.5229 10.5991 22.5229C11.3306 22.5229 11.924 23.1161 11.924 23.8478Z" fill="#ADB9CA"/>
<path d="M17.2234 26.4975V23.8478L15.3096 20.0204C15.075 19.9277 14.8257 19.8779 14.5736 19.8731C13.7616 19.8731 13.0194 20.3319 12.6563 21.0582L9.93663 26.4975H17.2234Z" fill="#7D8FAC"/>
<path d="M13.2487 22.5229H15.8985C16.6301 22.5229 17.2232 23.1161 17.2232 23.8476C17.2232 24.5794 16.6301 25.1725 15.8985 25.1725H13.2487C12.5169 25.1725 11.9238 24.5794 11.9238 23.8476C11.9238 23.1161 12.5169 22.5229 13.2487 22.5229Z" fill="#5E7599"/>
<path d="M16.4473 4.52353C17.179 3.79177 18.3653 3.79177 19.0971 4.52353L25.9488 11.3752C26.6804 12.1068 26.6804 13.2931 25.9488 14.0249C25.2171 14.7566 24.0308 14.7566 23.299 14.0249L16.4473 7.17316C15.7155 6.4414 15.7155 5.25511 16.4473 4.52353Z" fill="#ADB9CA"/>
<path d="M25.1727 11.9238C25.1727 12.6556 24.5794 13.2488 23.8478 13.2488C23.116 13.2488 22.5229 12.6556 22.5229 11.9238C22.5229 11.1921 23.116 10.5989 23.8478 10.5989C24.5794 10.5989 25.1727 11.1921 25.1727 11.9238Z" fill="#7D8FAC"/>
<path d="M22.5229 26.4975C21.0981 26.4975 20.4393 25.9814 20.1349 25.3699C19.6777 24.4516 18.7723 23.8478 17.7466 23.8478H6.10104C5.07545 23.8478 4.17008 24.4516 3.71271 25.3699C3.40826 25.9814 2.7497 26.4975 1.32491 26.4975C0 26.4975 0 27.8224 0 27.8224C0 27.8224 0 29.1473 1.32491 29.1473H22.5229C23.8478 29.1473 23.8478 27.8224 23.8478 27.8224C23.8478 27.8224 23.8478 26.4975 22.5229 26.4975Z" fill="#CDD4DF"/>
<path d="M25.1727 10.5991C25.1727 12.0624 23.9862 13.2487 22.5229 13.2487C21.0593 13.2487 19.873 12.0624 19.873 10.5991C19.873 9.1356 21.0593 7.9493 22.5229 7.9493C23.9862 7.9493 25.1727 9.1356 25.1727 10.5991Z" fill="#435E88"/>
<path d="M22.5229 7.9493H22.4949L22.4914 7.94948H22.4767L22.4735 7.94966H22.4663C22.4527 7.95001 22.4389 7.95036 22.4254 7.95089C22.0706 7.96804 21.7948 8.26612 21.8054 8.62113C21.8162 8.98444 22.1132 9.2735 22.4765 9.27456C22.4795 9.27456 22.4825 9.27456 22.4857 9.27456L22.5227 9.27403C22.581 9.27315 22.6388 9.26484 22.6947 9.2491C22.7465 9.27898 22.802 9.30179 22.8598 9.31699C23.5675 9.50334 23.9903 10.2282 23.8039 10.9359C23.6506 11.5179 23.1245 11.9235 22.5227 11.9237C22.4716 11.9237 22.4205 11.9208 22.3697 11.9152C22.3446 11.9124 22.3194 11.9109 22.2941 11.9109C21.9281 11.9113 21.632 12.2083 21.6325 12.5741C21.6329 12.9107 21.8857 13.1934 22.22 13.2316C22.2589 13.236 22.298 13.2396 22.3372 13.2422H22.3374L22.3416 13.2426H22.3423L22.3462 13.2429H22.3469L22.351 13.2431L22.3515 13.2433L22.356 13.2434H22.3561C22.3593 13.2436 22.3623 13.2438 22.3655 13.2442H22.3657L22.3701 13.2443H22.3712L22.3745 13.2445L22.3759 13.2447L22.3791 13.2449H22.3807L22.3837 13.245L22.3851 13.2452L22.3883 13.2454H22.3899L22.3927 13.2456L22.3943 13.2457H22.3977L22.3989 13.2459L22.4033 13.2461H22.404L22.4078 13.2463H22.4097L22.4124 13.2464H22.4143L22.4169 13.2466H22.4189L22.4214 13.2468H22.4235L22.426 13.247H22.4281L22.4306 13.2472H22.4327L22.4353 13.2473H22.4371L22.4405 13.2475H22.4417L22.4459 13.2477H22.4525L22.4551 13.2479H22.4617L22.4643 13.248H22.4707L22.4735 13.2482H22.4907L22.4935 13.2484H22.5229C23.9862 13.2484 25.1727 12.0621 25.1727 10.5986V10.5809C25.1725 10.5798 25.1725 10.5788 25.1725 10.5777V10.5652L25.1723 10.5634V10.5554C25.1723 10.5542 25.1721 10.5528 25.1721 10.5516V10.5477L25.172 10.5459V10.5395L25.1718 10.5379V10.5341L25.1716 10.5309V10.5261L25.1714 10.5247V10.5206L25.1712 10.5181V10.5166L25.1711 10.5141V10.5095L25.1709 10.5086V10.5047L25.1707 10.5036V10.5008L25.1705 10.4994V10.4967L25.1704 10.4953V10.4927L25.1702 10.4914L25.17 10.4881V10.4874L25.1698 10.4833V10.483L25.1697 10.4794V10.478L25.1695 10.4754V10.4739L25.1693 10.4713L25.1691 10.4699V10.4672L25.1689 10.466L25.1688 10.4623V10.4609L25.1686 10.458V10.4568L25.1684 10.4541L25.1682 10.4526L25.1681 10.4501V10.4487L25.1679 10.4462L25.1677 10.4446L25.1674 10.4368L25.1672 10.4358L25.167 10.4329V10.4313L25.1668 10.4289L25.1667 10.4274C25.1667 10.4266 25.1667 10.4255 25.1665 10.4246V10.4236L25.1663 10.42L25.1661 10.4197L25.1659 10.4156V10.4151L25.1658 10.4117L25.1656 10.4105L25.1654 10.4076V10.4064L25.1652 10.4038L25.1651 10.4023L25.1649 10.399V10.3986L25.1645 10.3946L25.1644 10.3939C25.1644 10.3928 25.1642 10.3917 25.1642 10.3905V10.3894L25.1638 10.3866V10.3854L25.1635 10.3825V10.3813L25.1633 10.3785L25.1631 10.3774C25.1629 10.3748 25.1626 10.3719 25.1624 10.3695V10.3686L25.1621 10.3656V10.3643L25.1617 10.3617V10.3603L25.1613 10.3576V10.3564L25.161 10.353V10.3523C25.1608 10.3511 25.1606 10.3497 25.1605 10.3484V10.3475C25.1603 10.3466 25.1603 10.3454 25.1601 10.3445V10.3433L25.1598 10.3405V10.3392C25.1596 10.3383 25.1596 10.3375 25.1594 10.3366L25.1592 10.3353L25.159 10.3325L25.1589 10.3313L25.1585 10.3276L25.1583 10.3265C25.1583 10.3256 25.1582 10.3246 25.1582 10.3237L25.158 10.3223L25.1576 10.3196L25.1575 10.3182L25.1573 10.3157L25.1571 10.3143L25.1569 10.3115L25.1567 10.3104L25.1562 10.3065V10.3062L25.1559 10.3028L25.1557 10.3014L25.1553 10.2987L25.1552 10.2973L25.155 10.2948L25.1548 10.2934L25.1545 10.2908L25.1543 10.2895C25.1539 10.2869 25.1537 10.2842 25.1534 10.2818L25.1532 10.2809L25.1529 10.2779L25.1527 10.2766L25.1523 10.274L25.1522 10.2727L25.1523 10.2706L25.1522 10.2696L25.1518 10.2662V10.2657L25.1513 10.2616L25.1511 10.2611L25.1507 10.2577L25.1506 10.2568L25.1502 10.2538L25.15 10.2526L25.1497 10.2499L25.1495 10.2487C25.1493 10.2478 25.1493 10.2466 25.149 10.2457V10.2448C25.1488 10.2436 25.1486 10.2422 25.1484 10.2409C25.1483 10.2395 25.1481 10.2383 25.1479 10.237L25.1477 10.236L25.1474 10.2331L25.147 10.2319L25.1467 10.2293L25.1465 10.228L25.1461 10.2252L25.146 10.2241L25.1456 10.2206L25.1454 10.2202C25.1453 10.219 25.1451 10.2176 25.1449 10.2164L25.1447 10.2153L25.1444 10.2126L25.1442 10.2112L25.1437 10.2086L25.1435 10.2073L25.1431 10.2045L25.143 10.2034L25.1424 10.2001L25.1423 10.1996C25.1421 10.1983 25.1419 10.1971 25.1417 10.1957L25.1415 10.1948L25.141 10.1918L25.1408 10.1907L25.1405 10.1879L25.1403 10.1866L25.14 10.184L25.1398 10.1828L25.1392 10.1798L25.1391 10.1789C25.1387 10.1764 25.1382 10.1737 25.1378 10.1713L25.1377 10.17L25.1371 10.1674L25.1369 10.1661L25.1364 10.1635L25.1359 10.1592L25.1355 10.1584L25.1343 10.1506V10.1499L25.1336 10.1467L25.1334 10.1458L25.1329 10.1428L25.1327 10.1419L25.1322 10.1389L25.132 10.1379C25.1315 10.1354 25.1311 10.1327 25.1306 10.1303L25.1304 10.1292L25.1299 10.1264L25.1297 10.1253L25.1292 10.1225L25.129 10.1214L25.1285 10.1184L25.1283 10.1175L25.1278 10.1143L25.1276 10.1136L25.1269 10.1097V10.1096L25.1262 10.106L25.126 10.1048L25.1255 10.1023L25.1251 10.1009L25.1248 10.0984L25.1244 10.097L25.1239 10.0942L25.1237 10.0933L25.123 10.0894V10.0891L25.1223 10.0857L25.1219 10.0845L25.1216 10.082L25.1212 10.0806L25.1207 10.0781L25.1205 10.0767L25.12 10.0742L25.1196 10.0728L25.1191 10.0703L25.1189 10.0687L25.1182 10.0654L25.1179 10.064L25.1175 10.0617L25.1171 10.0601L25.1166 10.0579L25.1163 10.0562L25.1159 10.0541L25.1156 10.0526L25.115 10.05L25.1147 10.0487L25.114 10.045L25.1138 10.0445L25.1131 10.0413L25.1129 10.0401L25.1124 10.0374L25.112 10.0362L25.1115 10.0337L25.1113 10.0323L25.1106 10.0298L25.1104 10.0286L25.1095 10.0247L25.1087 10.021L25.1085 10.0199L25.108 10.0173L25.1076 10.016L25.1071 10.0134L25.1067 10.0123L25.1062 10.0095L25.106 10.0084C25.1057 10.0072 25.1055 10.0063 25.1053 10.0053L25.1039 9.9996L25.1034 9.99713L25.103 9.99571L25.1025 9.99341L25.1021 9.992L25.1016 9.98952L25.1012 9.98829C25.1011 9.98722 25.1009 9.98616 25.1005 9.98528L25.1004 9.98457L25.0995 9.98068L25.0993 9.97998L25.0986 9.97697L25.0982 9.97573L25.0977 9.97326L25.0973 9.97202L25.0968 9.96954L25.0958 9.9653L25.0956 9.96442L25.0945 9.96071V9.96035L25.0936 9.95699L25.0935 9.95593L25.0928 9.95328L25.0924 9.95187L25.0919 9.94939L25.0915 9.94815L25.0908 9.9455L25.0906 9.94444C25.0903 9.94338 25.0899 9.94214 25.0896 9.94108V9.94073C25.0892 9.93949 25.089 9.93825 25.0887 9.93719L25.0883 9.93595L25.0876 9.9333L25.0874 9.93224L25.0867 9.92959L25.0864 9.92835C25.0862 9.92747 25.0859 9.92658 25.0857 9.9257L25.0855 9.92464L25.0846 9.92146L25.0844 9.92093L25.0834 9.91704L25.0832 9.91651L25.0825 9.9135L25.0821 9.91209L25.0814 9.90979L25.0811 9.90837L25.0806 9.9059L25.0802 9.90466L25.0793 9.90183L25.0791 9.90113C25.0788 9.89989 25.0786 9.89847 25.0781 9.89724V9.89671L25.0772 9.8937L25.0761 9.88999L25.0758 9.88857L25.0751 9.88627L25.0747 9.88486L25.0737 9.88115C25.0731 9.87867 25.0724 9.87637 25.0717 9.8739L25.0707 9.87019L25.0701 9.86895L25.0696 9.86665L25.0692 9.86524L25.0682 9.86152L25.0673 9.85869L25.0671 9.85781C25.0668 9.85657 25.0664 9.85534 25.0661 9.8541L25.0657 9.85321L25.065 9.85056L25.0645 9.84915L25.0639 9.84685L25.0634 9.84543L25.0629 9.84331L25.0623 9.84172L25.0616 9.83907L25.0613 9.83819L25.0602 9.83447L25.06 9.83359L25.0592 9.83076L25.0588 9.82952L25.0581 9.82722L25.0576 9.82581L25.0565 9.8221L25.0558 9.8198L25.0553 9.81856L25.0544 9.81538L25.054 9.81379L25.0531 9.81131L25.0526 9.80972L25.0521 9.80778L25.0503 9.80247L25.0496 9.80017L25.0493 9.79894L25.0484 9.79611L25.048 9.79505L25.047 9.79169L25.0466 9.79063L25.0459 9.78815L25.0454 9.78674L25.0447 9.78444L25.0443 9.7832L25.0434 9.7809L25.0431 9.77949L25.0422 9.77684L25.0418 9.77595L25.0404 9.77171L25.0395 9.76871L25.039 9.76747L25.0383 9.76517L25.0371 9.76146L25.0367 9.76022L25.0356 9.75757L25.0355 9.75651L25.0342 9.75297L25.0339 9.75191L25.033 9.74943L25.0325 9.74802L25.0318 9.74572L25.0312 9.74431L25.0305 9.74219L25.03 9.74077L25.0293 9.73847L25.0287 9.73706L25.0275 9.7337C25.0272 9.73246 25.0266 9.73122 25.0263 9.72999L25.0259 9.7291L25.025 9.72645L25.0245 9.72521L25.0238 9.72292L25.0233 9.72168L25.0224 9.7192L25.022 9.71797L25.021 9.71478L25.0208 9.71443L25.0196 9.71089L25.0192 9.70983L25.0181 9.70736L25.0178 9.70612L25.0169 9.70382L25.0164 9.70241L25.0155 9.70011L25.0151 9.69887L25.0143 9.6964L25.0139 9.69534L25.0125 9.6918L25.012 9.69038L25.0112 9.68844L25.0107 9.68667L25.01 9.6849L25.0095 9.68314L25.0081 9.6796L25.0074 9.67766L25.0068 9.67606L25.0059 9.67377L25.0052 9.67182L25.0044 9.66917L25.0038 9.66793L25.0029 9.66563L25.0024 9.66422L25.0017 9.6621L25.001 9.66068L25.0003 9.65874L24.9998 9.65697L24.999 9.65503L24.9982 9.6529L24.9971 9.65025L24.9966 9.64866L24.9959 9.64672L24.9952 9.64513L24.9945 9.64318L24.9937 9.64141L24.9932 9.63982L24.9911 9.63452L24.9899 9.63134L24.9891 9.62957L24.9886 9.6278L24.9872 9.62426L24.9865 9.62267L24.9858 9.62073L24.9853 9.61914L24.9844 9.61719L24.9838 9.6156L24.983 9.61348L24.9819 9.61083L24.9812 9.60888L24.9805 9.60729L24.9798 9.60535L24.9791 9.60358L24.9784 9.60199L24.9777 9.60022L24.9769 9.59863L24.9762 9.59668L24.9754 9.59474L24.9748 9.59332L24.9734 9.59014L24.9713 9.58484L24.9708 9.58342L24.9699 9.58148L24.9692 9.57989L24.9685 9.57794L24.9679 9.57671C24.9669 9.57423 24.9658 9.57176 24.9648 9.56946L24.9642 9.56804L24.9633 9.56574L24.963 9.56486L24.9619 9.56256L24.9614 9.56132L24.9605 9.5592L24.96 9.55797L24.9591 9.55584L24.9587 9.55514L24.9568 9.55054L24.9563 9.54948L24.9554 9.54736L24.9548 9.54612L24.9538 9.54418L24.9533 9.54276L24.9524 9.54064L24.9518 9.53958L24.951 9.53728L24.9506 9.53675L24.9487 9.53198L24.9481 9.53092L24.9472 9.52879L24.9465 9.52756L24.9457 9.52561L24.9451 9.5242L24.9442 9.52225L24.9435 9.52084L24.9428 9.51889L24.9419 9.5173C24.9414 9.51571 24.9407 9.5143 24.94 9.51288L24.9398 9.51253L24.9389 9.51023L24.9373 9.50705L24.9368 9.50581L24.9359 9.50369L24.9354 9.50263L24.9343 9.50033L24.9338 9.49927C24.9328 9.49679 24.9315 9.49432 24.9305 9.49184L24.9299 9.49061L24.9289 9.48866L24.9283 9.48742L24.9274 9.48513L24.9253 9.48088C24.9241 9.47805 24.9228 9.4754 24.9214 9.47275V9.4724C24.9211 9.47169 24.9207 9.47098 24.9204 9.47027L24.9198 9.46904L24.9183 9.46585L24.9172 9.46356L24.9168 9.46267C24.9165 9.46179 24.9161 9.46108 24.9156 9.46037L24.9154 9.45984L24.9115 9.45153L24.9112 9.451L24.9099 9.44853L24.9096 9.44764L24.9085 9.44535L24.908 9.44429L24.9069 9.44199L24.9027 9.4335L24.9023 9.43262C24.902 9.43191 24.9016 9.4312 24.9011 9.43032L24.9008 9.42943L24.8997 9.42731L24.8992 9.42608L24.8979 9.42395L24.8976 9.42307L24.8963 9.42077V9.42042L24.8935 9.41476L24.8933 9.41458L24.8917 9.4114L24.8905 9.4091L24.89 9.40822L24.8889 9.40592L24.8884 9.40504L24.8873 9.40256L24.8871 9.40238C24.8857 9.39956 24.8841 9.39673 24.8827 9.39372L24.8825 9.39355L24.8811 9.39089L24.8809 9.39036L24.8795 9.38771L24.8794 9.38736L24.8781 9.38471L24.8779 9.38435L24.8733 9.37587V9.37551L24.8721 9.37321L24.8716 9.37233L24.8703 9.36985L24.87 9.36932L24.8686 9.36667V9.3665C24.8665 9.36261 24.8645 9.35889 24.8624 9.35483L24.8622 9.35465L24.8608 9.352L24.8606 9.35147L24.8592 9.34882L24.859 9.34846C24.8564 9.34369 24.8537 9.33874 24.8512 9.33397L24.8511 9.33379C24.8505 9.3329 24.85 9.33184 24.8497 9.33114L24.8495 9.33078C24.8474 9.32689 24.8452 9.323 24.8431 9.31911H24.8429L24.8415 9.31646L24.8413 9.31611L24.8399 9.31346L24.8396 9.31293C24.8369 9.30815 24.8343 9.30338 24.8316 9.29878L24.8314 9.29861L24.83 9.29578L24.8297 9.2956C24.8265 9.28977 24.8233 9.28411 24.82 9.27827L24.8198 9.27792L24.8182 9.27527V9.27509C24.8154 9.27032 24.8125 9.26555 24.8097 9.26077V9.26059C24.8092 9.25971 24.8086 9.25883 24.8081 9.25794L24.8079 9.25777C24.8051 9.25299 24.8023 9.24822 24.7994 9.24345V9.24327C24.7987 9.24239 24.7982 9.2415 24.7977 9.24044C24.5212 8.77847 24.111 8.41127 23.6215 8.18727H23.6213L23.6181 8.18568C23.6142 8.18391 23.6101 8.18214 23.6061 8.18037L23.6059 8.1802L23.6032 8.17914L23.6027 8.17878L23.6002 8.17772L23.5995 8.17737L23.5969 8.17613H23.5965C23.5926 8.17436 23.5884 8.1726 23.5845 8.17083L23.5843 8.17065L23.5817 8.16941L23.5808 8.16924L23.5783 8.16818L23.5751 8.16658L23.5746 8.16641L23.5659 8.16269L23.5656 8.16252L23.5631 8.16146L23.5622 8.1611L23.5598 8.16004L23.5589 8.15969L23.5566 8.15863L23.5557 8.15827L23.5476 8.15474L23.5468 8.15456L23.5447 8.15368L23.5433 8.15315L23.5414 8.15226L23.54 8.15173L23.5378 8.15085L23.5366 8.15014L23.5345 8.14944L23.5327 8.14855L23.5299 8.14749L23.5279 8.14661L23.5262 8.1459L23.5246 8.14537L23.5226 8.14448L23.521 8.14378L23.5193 8.14325L23.5173 8.14236L23.5157 8.14183L23.5134 8.14077L23.5124 8.14042L23.509 8.139L23.508 8.13865L23.5042 8.13706L23.5019 8.13618L23.5007 8.13565L23.4982 8.13476L23.4972 8.13423L23.4901 8.1314L23.4896 8.13123L23.4866 8.13016L23.4855 8.12963L23.483 8.12875L23.482 8.1284L23.4791 8.12734L23.4783 8.12698L23.4752 8.12574L23.4747 8.12557C23.4722 8.12468 23.4699 8.1238 23.4675 8.12274H23.4671L23.4639 8.1215L23.463 8.12115L23.46 8.12009L23.4595 8.11973L23.456 8.1185C23.4523 8.11708 23.4484 8.11567 23.4447 8.11425L23.4443 8.11408L23.4409 8.11302L23.4406 8.11284L23.4371 8.11142H23.4369C23.4319 8.10966 23.4268 8.10771 23.4217 8.10594C23.3469 8.07889 23.2705 8.0552 23.1926 8.03487C23.0826 8.00623 22.967 8.00641 22.8572 8.03558C22.7624 7.9813 22.6554 7.9516 22.5464 7.9493C22.5382 7.9493 22.5301 7.9493 22.5221 7.9493H22.5229Z" fill="#163969"/>
<path d="M23.8478 10.5991C23.8478 11.3307 23.2546 11.9238 22.5229 11.9238C21.7911 11.9238 21.198 11.3307 21.198 10.5991C21.198 9.86735 21.7911 9.2742 22.5229 9.2742C23.2546 9.2742 23.8478 9.86735 23.8478 10.5991Z" fill="#5E7599"/>
<path d="M22.5229 9.93665C22.5229 10.3024 22.2262 10.5991 21.8604 10.5991C21.4946 10.5991 21.198 10.3024 21.198 9.93665C21.198 9.57069 21.4946 9.2742 21.8604 9.2742C22.2262 9.2742 22.5229 9.57069 22.5229 9.93665Z" fill="#ADB9CA"/>
<path d="M15.8985 21.198C15.8985 21.9298 15.3054 22.5229 14.5736 22.5229C13.8419 22.5229 13.2487 21.9298 13.2487 21.198C13.2487 20.4662 13.8419 19.8731 14.5736 19.8731C15.3054 19.8731 15.8985 20.4662 15.8985 21.198Z" fill="#163969"/>
<path d="M14.5736 20.5356C14.5736 20.9015 14.277 21.198 13.9112 21.198C13.5454 21.198 13.2487 20.9015 13.2487 20.5356C13.2487 20.1698 13.5454 19.8731 13.9112 19.8731C14.277 19.8731 14.5736 20.1698 14.5736 20.5356Z" fill="#E5E8EF"/>
<path d="M22.5229 26.4975C21.0981 26.4975 20.4393 25.9814 20.1349 25.3699C19.6777 24.4516 18.7723 23.8478 17.7466 23.8478H15.3752C14.3494 23.8478 13.4441 24.4516 12.9869 25.3699C12.6824 25.9814 12.0237 26.4975 10.5989 26.4975H9.27416C10.0057 26.4975 10.5991 27.0906 10.5991 27.8224C10.5991 28.5541 10.0059 29.1473 9.27416 29.1473H22.5229C23.8478 29.1473 23.8478 27.8224 23.8478 27.8224C23.8478 27.8224 23.8478 26.4975 22.5229 26.4975Z" fill="#7D8FAC"/>
<path d="M4.63701 25.1725H9.93663C10.3024 25.1725 10.5989 25.4692 10.5989 25.835C10.5989 26.201 10.3024 26.4974 9.93663 26.4974H4.63701C4.27122 26.4974 3.97456 26.201 3.97456 25.835C3.97456 25.4692 4.27122 25.1725 4.63701 25.1725Z" fill="#ADB9CA"/>
<path d="M13.9112 25.1725H19.2106C19.5766 25.1725 19.8731 25.4692 19.8731 25.835C19.8731 26.201 19.5766 26.4974 19.2106 26.4974H13.9112C13.5454 26.4974 13.2487 26.201 13.2487 25.835C13.2487 25.4692 13.5454 25.1725 13.9112 25.1725Z" fill="#5E7599"/>
<path d="M7.28679 18.5482H8.6117C8.97749 18.5482 9.27415 18.8449 9.27415 19.2107C9.27415 19.5766 8.97749 19.8731 8.6117 19.8731H7.28679C6.921 19.8731 6.62434 19.5766 6.62434 19.2107C6.62434 18.8449 6.921 18.5482 7.28679 18.5482Z" fill="#33527D"/>
<path d="M3.31226 15.8985H7.2868C7.65277 15.8985 7.94925 16.195 7.94925 16.561C7.94925 16.9268 7.65277 17.2234 7.2868 17.2234H3.31226C2.94629 17.2234 2.64981 16.9268 2.64981 16.561C2.64981 16.195 2.94629 15.8985 3.31226 15.8985Z" fill="#5E7599"/>
<path d="M11.2615 15.8985H15.2361C15.6019 15.8985 15.8985 16.195 15.8985 16.561C15.8985 16.9268 15.6019 17.2234 15.2361 17.2234H11.2615C10.8956 17.2234 10.5991 16.9268 10.5991 16.561C10.5991 16.195 10.8956 15.8985 11.2615 15.8985Z" fill="#435E88"/>
<path d="M17.4978 4.24896C17.8636 3.88317 18.4567 3.88317 18.8227 4.24896L20.9236 6.35C21.2895 6.71579 21.2895 7.30894 20.9236 7.6749C20.5578 8.04069 19.9646 8.04069 19.5988 7.6749L17.4978 5.57387C17.1318 5.20808 17.1318 4.61493 17.4978 4.24896Z" fill="#E5E8EF"/>
<path d="M12.1984 7.67493L12.9743 6.89879C13.3403 6.533 13.9334 6.533 14.2992 6.89879C14.665 7.26458 14.665 7.85773 14.2992 8.2237L13.5231 8.99965C13.1573 9.36562 12.5641 9.36562 12.1984 8.99965C11.8324 8.63386 11.8324 8.04072 12.1984 7.67493Z" fill="#E5E8EF"/>
<path d="M20.1474 1.05056L20.9236 0.27443C21.2894 -0.0913597 21.8825 -0.0913597 22.2485 0.27443C22.6143 0.64022 22.6143 1.23337 22.2485 1.59934L21.4723 2.37547C21.1066 2.74126 20.5134 2.74126 20.1474 2.37547C19.7817 2.0095 19.7817 1.41635 20.1474 1.05056Z" fill="#435E88"/>
<path d="M1.98738 26.4974H8.61173C8.97752 26.4974 9.27418 26.7941 9.27418 27.1599C9.27418 27.5259 8.97752 27.8223 8.61173 27.8223H1.98738C1.62141 27.8223 1.32492 27.5259 1.32492 27.1599C1.32492 26.7941 1.62141 26.4974 1.98738 26.4974Z" fill="#E5E8EF"/>
<path d="M12.5863 26.4974H21.8604C22.2262 26.4974 22.5229 26.7941 22.5229 27.1599C22.5229 27.5259 22.2262 27.8223 21.8604 27.8223H12.5863C12.2205 27.8223 11.9238 27.5259 11.9238 27.1599C11.9238 26.7941 12.2205 26.4974 12.5863 26.4974Z" fill="#ADB9CA"/>
<path d="M13.2487 19.2107C13.2487 19.5766 12.9522 19.8731 12.5863 19.8731C12.2205 19.8731 11.9238 19.5766 11.9238 19.2107C11.9238 18.8449 12.2205 18.5482 12.5863 18.5482C12.9522 18.5482 13.2487 18.8449 13.2487 19.2107Z" fill="#E5E8EF"/>
</svg>
