<svg width="152" height="48" viewBox="0 0 152 48" fill="none" xmlns="http://www.w3.org/2000/svg">
<rect x="0.25" y="0.25" width="151.5" height="47.5" rx="3.75" stroke="#E4E4E4" stroke-width="0.5"/>
<path d="M62.7949 27V19.1797H65.4751C66.3595 19.1797 67.0327 19.3569 67.4946 19.7114C67.9565 20.0659 68.1875 20.5941 68.1875 21.2959C68.1875 21.654 68.0908 21.9762 67.8975 22.2627C67.7041 22.5492 67.4212 22.7712 67.0488 22.9287C67.4714 23.0433 67.7972 23.2599 68.0264 23.5786C68.2591 23.8937 68.3755 24.2733 68.3755 24.7173C68.3755 25.4513 68.1392 26.0153 67.6665 26.4092C67.1974 26.8031 66.5243 27 65.647 27H62.7949ZM64.1538 23.4712V25.915H65.6631C66.0892 25.915 66.4222 25.8094 66.6621 25.5981C66.902 25.3869 67.022 25.0933 67.022 24.7173C67.022 23.9045 66.6066 23.4891 65.7759 23.4712H64.1538ZM64.1538 22.4722H65.4858C65.9084 22.4722 66.2378 22.3773 66.4741 22.1875C66.714 21.9941 66.834 21.722 66.834 21.3711C66.834 20.9844 66.723 20.7051 66.501 20.5332C66.2826 20.3613 65.9406 20.2754 65.4751 20.2754H64.1538V22.4722ZM70.9966 27H69.6914V21.1885H70.9966V27ZM69.6108 19.6792C69.6108 19.4787 69.6735 19.3122 69.7988 19.1797C69.9277 19.0472 70.1104 18.981 70.3467 18.981C70.583 18.981 70.7656 19.0472 70.8945 19.1797C71.0234 19.3122 71.0879 19.4787 71.0879 19.6792C71.0879 19.8761 71.0234 20.0409 70.8945 20.1733C70.7656 20.3022 70.583 20.3667 70.3467 20.3667C70.1104 20.3667 69.9277 20.3022 69.7988 20.1733C69.6735 20.0409 69.6108 19.8761 69.6108 19.6792ZM72.1782 24.0405C72.1782 23.4712 72.291 22.9591 72.5166 22.5044C72.7422 22.0461 73.0591 21.6951 73.4673 21.4517C73.8755 21.2046 74.3446 21.0811 74.8745 21.0811C75.6587 21.0811 76.2943 21.3335 76.7812 21.8384C77.2718 22.3433 77.5368 23.0129 77.5762 23.8472L77.5815 24.1533C77.5815 24.7262 77.4705 25.2383 77.2485 25.6895C77.0301 26.1406 76.715 26.4897 76.3032 26.7368C75.895 26.9839 75.4224 27.1074 74.8853 27.1074C74.0653 27.1074 73.4082 26.8353 72.9141 26.291C72.4235 25.7432 72.1782 25.0145 72.1782 24.105V24.0405ZM73.4834 24.1533C73.4834 24.7513 73.6069 25.2204 73.854 25.5605C74.1011 25.8971 74.4448 26.0654 74.8853 26.0654C75.3257 26.0654 75.6676 25.8936 75.9111 25.5498C76.1582 25.2061 76.2817 24.703 76.2817 24.0405C76.2817 23.4533 76.1546 22.9878 75.9004 22.644C75.6497 22.3003 75.3078 22.1284 74.8745 22.1284C74.4484 22.1284 74.11 22.2985 73.8594 22.6387C73.6087 22.9753 73.4834 23.4801 73.4834 24.1533ZM80.0737 27H78.7686V18.75H80.0737V27ZM81.2554 24.0405C81.2554 23.4712 81.3682 22.9591 81.5938 22.5044C81.8193 22.0461 82.1362 21.6951 82.5444 21.4517C82.9526 21.2046 83.4217 21.0811 83.9517 21.0811C84.7358 21.0811 85.3714 21.3335 85.8584 21.8384C86.349 22.3433 86.6139 23.0129 86.6533 23.8472L86.6587 24.1533C86.6587 24.7262 86.5477 25.2383 86.3257 25.6895C86.1073 26.1406 85.7922 26.4897 85.3804 26.7368C84.9722 26.9839 84.4995 27.1074 83.9624 27.1074C83.1424 27.1074 82.4854 26.8353 81.9912 26.291C81.5007 25.7432 81.2554 25.0145 81.2554 24.105V24.0405ZM82.5605 24.1533C82.5605 24.7513 82.6841 25.2204 82.9312 25.5605C83.1782 25.8971 83.522 26.0654 83.9624 26.0654C84.4028 26.0654 84.7448 25.8936 84.9883 25.5498C85.2354 25.2061 85.3589 24.703 85.3589 24.0405C85.3589 23.4533 85.2318 22.9878 84.9775 22.644C84.7269 22.3003 84.3849 22.1284 83.9517 22.1284C83.5256 22.1284 83.1872 22.2985 82.9365 22.6387C82.6859 22.9753 82.5605 23.4801 82.5605 24.1533ZM87.5342 24.0513C87.5342 23.1489 87.7454 22.4292 88.168 21.8921C88.5941 21.3514 89.158 21.0811 89.8599 21.0811C90.5223 21.0811 91.0433 21.312 91.4229 21.7739L91.4819 21.1885H92.6582V26.8228C92.6582 27.5854 92.4201 28.187 91.9438 28.6274C91.4712 29.0679 90.832 29.2881 90.0264 29.2881C89.6003 29.2881 89.1831 29.1986 88.7749 29.0195C88.3703 28.8441 88.0623 28.6131 87.8511 28.3267L88.4688 27.5425C88.8698 28.0187 89.3639 28.2568 89.9512 28.2568C90.3844 28.2568 90.7264 28.1387 90.9771 27.9023C91.2277 27.6696 91.353 27.3258 91.353 26.8711V26.479C90.9771 26.8979 90.4757 27.1074 89.8491 27.1074C89.1688 27.1074 88.612 26.8371 88.1787 26.2964C87.749 25.7557 87.5342 25.0073 87.5342 24.0513ZM88.834 24.1641C88.834 24.7477 88.9521 25.2078 89.1885 25.5444C89.4284 25.8774 89.7596 26.0439 90.1821 26.0439C90.7085 26.0439 91.0988 25.8184 91.353 25.3672V22.8105C91.106 22.3701 90.7192 22.1499 90.1929 22.1499C89.7632 22.1499 89.4284 22.32 89.1885 22.6602C88.9521 23.0003 88.834 23.5016 88.834 24.1641ZM96.0366 25.1309L97.2183 21.1885H98.6094L96.2998 27.8809C95.9453 28.8584 95.3438 29.3472 94.4951 29.3472C94.3053 29.3472 94.0959 29.3149 93.8667 29.2505V28.2407L94.1138 28.2568C94.4432 28.2568 94.6903 28.196 94.855 28.0742C95.0233 27.9561 95.1558 27.7555 95.2524 27.4727L95.4404 26.9731L93.3994 21.1885H94.8066L96.0366 25.1309Z" fill="black"/>
<path d="M33.7975 16.5235C34.5292 15.7918 35.7155 15.7918 36.4473 16.5235L43.299 23.3752C44.0308 24.1068 44.0308 25.2931 43.299 26.0249C42.5673 26.7566 41.381 26.7566 40.6492 26.0249L33.7975 19.1732C33.0657 18.4414 33.0657 17.2551 33.7975 16.5235Z" fill="#5E7599"/>
<path d="M28.6117 34.5229C27.88 34.5229 27.2868 33.9298 27.2868 33.198C27.2868 32.4662 27.88 31.8731 28.6117 31.8731C33.7623 31.8731 37.2234 28.1462 37.2234 22.5989C37.2234 21.8674 37.8166 21.274 38.5483 21.274C39.2799 21.274 39.8732 21.8672 39.8732 22.5989C39.8731 29.6193 35.2424 34.5229 28.6117 34.5229Z" fill="#002755"/>
<path d="M30.987 22.211L40.8099 12.3881C41.3274 11.8706 42.1663 11.8706 42.6836 12.3881L43.4597 13.1642C43.9772 13.6815 43.977 14.5204 43.4597 15.0379L33.6368 24.8607C33.1193 25.3782 32.2806 25.3782 31.7631 24.8607L30.987 24.0847C30.4697 23.5672 30.4697 22.7283 30.987 22.211Z" fill="#002755"/>
<path d="M30.987 19.7886L37.0625 13.713C37.58 13.1955 38.4189 13.1955 38.9362 13.713L42.1348 16.9114C42.6521 17.4289 42.6521 18.2678 42.1348 18.7851L36.0592 24.8607C35.5417 25.3782 34.703 25.3782 34.1855 24.8607L30.987 21.6623C30.4697 21.1448 30.4697 20.3059 30.987 19.7886Z" fill="#435E88"/>
<path d="M40.9054 16.8159C40.5541 16.8154 40.2167 16.9551 39.9687 17.204L34.3477 22.8249C33.8302 23.3424 33.8302 24.1811 34.3475 24.6986C34.865 25.216 35.7039 25.216 36.2212 24.6987L36.5698 24.3501L36.5712 24.3488L36.5749 24.345C36.5767 24.3432 36.5786 24.3412 36.5804 24.3395L36.6278 24.2921L36.6287 24.291L36.6301 24.2898L36.6352 24.2847C36.6375 24.2824 36.6396 24.2801 36.6419 24.278L36.6451 24.2748C36.6476 24.2723 36.6502 24.2695 36.6529 24.2668H36.6531L36.6679 24.252C36.6686 24.2513 36.6697 24.2502 36.6704 24.2495L36.6831 24.2368C36.6856 24.2343 36.6877 24.2322 36.6902 24.2297L36.6916 24.2283C36.6937 24.2262 36.696 24.2239 36.6982 24.2217L36.7121 24.2078C36.7141 24.2058 36.716 24.2039 36.718 24.2019L36.7227 24.1972L36.7462 24.1735L36.751 24.1687L36.7584 24.1614L36.7616 24.1581C36.7676 24.1523 36.7733 24.1466 36.7791 24.1408L36.7821 24.1378C36.7949 24.125 36.8079 24.1119 36.821 24.0989L36.8249 24.095C36.8313 24.0884 36.8378 24.0821 36.8444 24.0755L36.8445 24.0753C36.8513 24.0686 36.858 24.0619 36.8649 24.055L36.867 24.0527C36.8737 24.046 36.8806 24.0393 36.8873 24.0324L36.8891 24.0306C36.8923 24.0276 36.8956 24.0241 36.8988 24.0209L36.9006 24.0191C36.9031 24.0167 36.9055 24.0144 36.908 24.0117L36.9223 23.9974C36.9257 23.994 36.9287 23.991 36.9321 23.9877L36.9345 23.9854C36.9375 23.9822 36.9407 23.979 36.9439 23.976L36.9457 23.9742C36.9485 23.9712 36.9515 23.9682 36.9545 23.9654L36.9579 23.9618C36.9646 23.9551 36.9715 23.9484 36.9782 23.9415L37.0088 23.9109L37.0141 23.9058L37.0151 23.9046C37.0187 23.901 37.0222 23.8975 37.0259 23.894L37.0275 23.8924C37.0344 23.8853 37.0418 23.878 37.0489 23.8708L37.0526 23.8673L37.0569 23.863C37.0586 23.8611 37.0604 23.8593 37.0624 23.8574L37.0632 23.8565C37.0666 23.8531 37.07 23.8498 37.0733 23.8466L37.0769 23.8429C37.0802 23.8395 37.0834 23.8363 37.0868 23.833L37.0876 23.8321C37.0894 23.8303 37.091 23.8287 37.0928 23.8269L37.1264 23.7934C37.1338 23.7859 37.141 23.7787 37.1486 23.7713L37.1506 23.7693C37.1585 23.7612 37.1667 23.753 37.1748 23.7449L37.1994 23.7205L37.2521 23.6678L37.2526 23.6671C37.2694 23.6505 37.2864 23.6334 37.3035 23.6164L37.3069 23.613C37.3417 23.578 37.3772 23.5425 37.4133 23.5064H37.4135L37.5231 23.3968L37.5266 23.3931C37.6767 23.243 37.8351 23.0846 37.9988 22.9209L38.001 22.9189C39.6476 21.2723 41.8422 19.0775 41.8422 19.0775C42.3597 18.56 42.3597 17.7213 41.8422 17.2038C41.5938 16.9554 41.2568 16.8159 40.9054 16.8159Z" fill="#33527D"/>
<path d="M23.9745 27.8985C22.6498 27.8985 22.6498 29.2234 22.6498 29.2234C22.6498 29.2234 22.6498 30.5482 23.9745 30.5482C23.9745 30.5482 26.6243 30.5482 26.6243 33.198V37.1725H33.2487V33.198C33.2487 33.198 33.2487 30.5482 35.8985 30.5482C36.6303 30.5482 37.2234 29.955 37.2234 29.2234C37.2234 28.4917 36.6303 27.8985 35.8985 27.8985H23.9745Z" fill="#435E88"/>
<path d="M27.9493 27.8985C28.681 27.8992 29.2735 28.4931 29.2728 29.2247C29.272 29.9554 28.68 30.5475 27.9493 30.5482C27.9493 30.5482 30.5991 30.5482 30.5991 33.198V37.1725H33.2487V33.198C33.2487 33.198 33.2487 30.5482 35.8985 30.5482C36.6303 30.5482 37.2234 29.955 37.2234 29.2234C37.2234 28.4917 36.6303 27.8985 35.8985 27.8985H27.9493Z" fill="#163969"/>
<path d="M32.5862 34.5229C31.8547 34.5229 31.2613 33.9298 31.2613 33.198C31.2613 32.4662 31.8545 31.8731 32.5862 31.8731C37.737 31.8731 41.198 28.1462 41.198 22.5989C41.198 21.8674 41.7911 21.274 42.5229 21.274C43.2546 21.274 43.8478 21.8672 43.8478 22.5989C43.8478 29.6193 39.2171 34.5229 32.5862 34.5229Z" fill="#33527D"/>
<path d="M41.3687 29.2235C40.6373 29.2229 40.0449 28.6298 40.0452 27.8984C40.0454 27.6951 40.0923 27.4946 40.1823 27.3123C40.8564 25.9448 41.1979 24.3593 41.1979 22.5989C41.1987 21.8674 41.7925 21.2747 42.5243 21.2754C43.2548 21.2763 43.8469 21.8684 43.8478 22.5989C43.8478 24.7687 43.4143 26.7489 42.5577 28.4846C42.3347 28.9374 41.8735 29.224 41.3687 29.2235Z" fill="#002755"/>
<path d="M29.2742 38.4975V35.8478L31.3314 31.7333C31.6945 31.007 32.4367 30.5482 33.2487 30.5482C34.0607 30.5482 34.8029 31.007 35.166 31.7333L37.2232 35.8478V38.4975H29.2742Z" fill="#CDD4DF"/>
<path d="M31.924 35.8478C31.924 36.5796 31.3306 37.1727 30.5991 37.1727C29.8673 37.1727 29.2742 36.5796 29.2742 35.8478C29.2742 35.1161 29.8673 34.5229 30.5991 34.5229C31.3306 34.5229 31.924 35.1161 31.924 35.8478Z" fill="#ADB9CA"/>
<path d="M37.2234 38.4975V35.8478L35.3096 32.0204C35.075 31.9277 34.8257 31.8779 34.5736 31.8731C33.7616 31.8731 33.0194 32.3319 32.6563 33.0582L29.9366 38.4975H37.2234Z" fill="#7D8FAC"/>
<path d="M33.2487 34.5229H35.8985C36.6301 34.5229 37.2232 35.1161 37.2232 35.8476C37.2232 36.5794 36.6301 37.1725 35.8985 37.1725H33.2487C32.5169 37.1725 31.9238 36.5794 31.9238 35.8476C31.9238 35.1161 32.5169 34.5229 33.2487 34.5229Z" fill="#5E7599"/>
<path d="M36.4473 16.5235C37.179 15.7918 38.3653 15.7918 39.0971 16.5235L45.9488 23.3752C46.6804 24.1068 46.6804 25.2931 45.9488 26.0249C45.2171 26.7566 44.0308 26.7566 43.299 26.0249L36.4473 19.1732C35.7155 18.4414 35.7155 17.2551 36.4473 16.5235Z" fill="#ADB9CA"/>
<path d="M45.1727 23.9238C45.1727 24.6556 44.5794 25.2488 43.8478 25.2488C43.116 25.2488 42.5229 24.6556 42.5229 23.9238C42.5229 23.1921 43.116 22.5989 43.8478 22.5989C44.5794 22.5989 45.1727 23.1921 45.1727 23.9238Z" fill="#7D8FAC"/>
<path d="M42.5229 38.4975C41.0981 38.4975 40.4393 37.9814 40.1349 37.3699C39.6777 36.4516 38.7723 35.8478 37.7466 35.8478H26.101C25.0754 35.8478 24.1701 36.4516 23.7127 37.3699C23.4083 37.9814 22.7497 38.4975 21.3249 38.4975C20 38.4975 20 39.8224 20 39.8224C20 39.8224 20 41.1473 21.3249 41.1473H42.5229C43.8478 41.1473 43.8478 39.8224 43.8478 39.8224C43.8478 39.8224 43.8478 38.4975 42.5229 38.4975Z" fill="#CDD4DF"/>
<path d="M45.1727 22.5991C45.1727 24.0624 43.9862 25.2487 42.5229 25.2487C41.0593 25.2487 39.873 24.0624 39.873 22.5991C39.873 21.1356 41.0593 19.9493 42.5229 19.9493C43.9862 19.9493 45.1727 21.1356 45.1727 22.5991Z" fill="#435E88"/>
<path d="M42.5229 19.9493H42.4949L42.4914 19.9495H42.4767L42.4735 19.9497H42.4663C42.4527 19.95 42.4389 19.9504 42.4254 19.9509C42.0706 19.968 41.7948 20.2661 41.8054 20.6211C41.8162 20.9844 42.1132 21.2735 42.4765 21.2746C42.4795 21.2746 42.4825 21.2746 42.4857 21.2746L42.5227 21.274C42.581 21.2731 42.6388 21.2648 42.6947 21.2491C42.7465 21.279 42.802 21.3018 42.8598 21.317C43.5675 21.5033 43.9903 22.2282 43.8039 22.9359C43.6506 23.5179 43.1245 23.9235 42.5227 23.9237C42.4716 23.9237 42.4205 23.9208 42.3697 23.9152C42.3446 23.9124 42.3194 23.9109 42.2941 23.9109C41.9281 23.9113 41.632 24.2083 41.6325 24.5741C41.6329 24.9107 41.8857 25.1934 42.22 25.2316C42.2589 25.236 42.298 25.2396 42.3372 25.2422H42.3374L42.3416 25.2426H42.3423L42.3462 25.2429H42.3469L42.351 25.2431L42.3515 25.2433L42.356 25.2434H42.3561C42.3593 25.2436 42.3623 25.2438 42.3655 25.2442H42.3657L42.3701 25.2443H42.3712L42.3745 25.2445L42.3759 25.2447L42.3791 25.2449H42.3807L42.3837 25.245L42.3851 25.2452L42.3883 25.2454H42.3899L42.3927 25.2456L42.3943 25.2457H42.3977L42.3989 25.2459L42.4033 25.2461H42.404L42.4078 25.2463H42.4097L42.4124 25.2464H42.4143L42.4169 25.2466H42.4189L42.4214 25.2468H42.4235L42.426 25.247H42.4281L42.4306 25.2472H42.4327L42.4353 25.2473H42.4371L42.4405 25.2475H42.4417L42.4459 25.2477H42.4525L42.4551 25.2479H42.4617L42.4643 25.248H42.4707L42.4735 25.2482H42.4907L42.4935 25.2484H42.5229C43.9862 25.2484 45.1727 24.0621 45.1727 22.5986V22.5809C45.1725 22.5798 45.1725 22.5788 45.1725 22.5777V22.5652L45.1723 22.5634V22.5554C45.1723 22.5542 45.1721 22.5528 45.1721 22.5516V22.5477L45.172 22.5459V22.5395L45.1718 22.5379V22.5341L45.1716 22.5309V22.5261L45.1714 22.5247V22.5206L45.1712 22.5181V22.5166L45.1711 22.5141V22.5095L45.1709 22.5086V22.5047L45.1707 22.5036V22.5008L45.1705 22.4994V22.4967L45.1704 22.4953V22.4927L45.1702 22.4914L45.17 22.4881V22.4874L45.1698 22.4833V22.483L45.1697 22.4794V22.478L45.1695 22.4754V22.4739L45.1693 22.4713L45.1691 22.4699V22.4672L45.1689 22.466L45.1688 22.4623V22.4609L45.1686 22.458V22.4568L45.1684 22.4541L45.1682 22.4526L45.1681 22.4501V22.4487L45.1679 22.4462L45.1677 22.4446L45.1674 22.4368L45.1672 22.4358L45.167 22.4329V22.4313L45.1668 22.4289L45.1667 22.4274C45.1667 22.4266 45.1667 22.4255 45.1665 22.4246V22.4236L45.1663 22.42L45.1661 22.4197L45.1659 22.4156V22.4151L45.1658 22.4117L45.1656 22.4105L45.1654 22.4076V22.4064L45.1652 22.4038L45.1651 22.4023L45.1649 22.399V22.3986L45.1645 22.3946L45.1644 22.3939C45.1644 22.3928 45.1642 22.3917 45.1642 22.3905V22.3894L45.1638 22.3866V22.3854L45.1635 22.3825V22.3813L45.1633 22.3785L45.1631 22.3774C45.1629 22.3748 45.1626 22.3719 45.1624 22.3695V22.3686L45.1621 22.3656V22.3643L45.1617 22.3617V22.3603L45.1613 22.3576V22.3564L45.161 22.353V22.3523C45.1608 22.3511 45.1606 22.3497 45.1605 22.3484V22.3475C45.1603 22.3466 45.1603 22.3454 45.1601 22.3445V22.3433L45.1598 22.3405V22.3392C45.1596 22.3383 45.1596 22.3375 45.1594 22.3366L45.1592 22.3353L45.159 22.3325L45.1589 22.3313L45.1585 22.3276L45.1583 22.3265C45.1583 22.3256 45.1582 22.3246 45.1582 22.3237L45.158 22.3223L45.1576 22.3196L45.1575 22.3182L45.1573 22.3157L45.1571 22.3143L45.1569 22.3115L45.1567 22.3104L45.1562 22.3065V22.3062L45.1559 22.3028L45.1557 22.3014L45.1553 22.2987L45.1552 22.2973L45.155 22.2948L45.1548 22.2934L45.1545 22.2908L45.1543 22.2895C45.1539 22.2869 45.1537 22.2842 45.1534 22.2818L45.1532 22.2809L45.1529 22.2779L45.1527 22.2766L45.1523 22.274L45.1522 22.2727L45.1523 22.2706L45.1522 22.2696L45.1518 22.2662V22.2657L45.1513 22.2616L45.1511 22.2611L45.1507 22.2577L45.1506 22.2568L45.1502 22.2538L45.15 22.2526L45.1497 22.2499L45.1495 22.2487C45.1493 22.2478 45.1493 22.2466 45.149 22.2457V22.2448C45.1488 22.2436 45.1486 22.2422 45.1484 22.2409C45.1483 22.2395 45.1481 22.2383 45.1479 22.237L45.1477 22.236L45.1474 22.2331L45.147 22.2319L45.1467 22.2293L45.1465 22.228L45.1461 22.2252L45.146 22.2241L45.1456 22.2206L45.1454 22.2202C45.1453 22.219 45.1451 22.2176 45.1449 22.2164L45.1447 22.2153L45.1444 22.2126L45.1442 22.2112L45.1437 22.2086L45.1435 22.2073L45.1431 22.2045L45.143 22.2034L45.1424 22.2001L45.1423 22.1996C45.1421 22.1983 45.1419 22.1971 45.1417 22.1957L45.1415 22.1948L45.141 22.1918L45.1408 22.1907L45.1405 22.1879L45.1403 22.1866L45.14 22.184L45.1398 22.1828L45.1392 22.1798L45.1391 22.1789C45.1387 22.1764 45.1382 22.1737 45.1378 22.1713L45.1377 22.17L45.1371 22.1674L45.1369 22.1661L45.1364 22.1635L45.1359 22.1592L45.1355 22.1584L45.1343 22.1506V22.1499L45.1336 22.1467L45.1334 22.1458L45.1329 22.1428L45.1327 22.1419L45.1322 22.1389L45.132 22.1379C45.1315 22.1354 45.1311 22.1327 45.1306 22.1303L45.1304 22.1292L45.1299 22.1264L45.1297 22.1253L45.1292 22.1225L45.129 22.1214L45.1285 22.1184L45.1283 22.1175L45.1278 22.1143L45.1276 22.1136L45.1269 22.1097V22.1096L45.1262 22.106L45.126 22.1048L45.1255 22.1023L45.1251 22.1009L45.1248 22.0984L45.1244 22.097L45.1239 22.0942L45.1237 22.0933L45.123 22.0894V22.0891L45.1223 22.0857L45.1219 22.0845L45.1216 22.082L45.1212 22.0806L45.1207 22.0781L45.1205 22.0767L45.12 22.0742L45.1196 22.0728L45.1191 22.0703L45.1189 22.0687L45.1182 22.0654L45.1179 22.064L45.1175 22.0617L45.1171 22.0601L45.1166 22.0579L45.1163 22.0562L45.1159 22.0541L45.1156 22.0526L45.115 22.05L45.1147 22.0487L45.114 22.045L45.1138 22.0445L45.1131 22.0413L45.1129 22.0401L45.1124 22.0374L45.112 22.0362L45.1115 22.0337L45.1113 22.0323L45.1106 22.0298L45.1104 22.0286L45.1095 22.0247L45.1087 22.021L45.1085 22.0199L45.108 22.0173L45.1076 22.016L45.1071 22.0134L45.1067 22.0123L45.1062 22.0095L45.106 22.0084C45.1057 22.0072 45.1055 22.0063 45.1053 22.0053L45.1039 21.9996L45.1034 21.9971L45.103 21.9957L45.1025 21.9934L45.1021 21.992L45.1016 21.9895L45.1012 21.9883C45.1011 21.9872 45.1009 21.9862 45.1005 21.9853L45.1004 21.9846L45.0995 21.9807L45.0993 21.98L45.0986 21.977L45.0982 21.9757L45.0977 21.9733L45.0973 21.972L45.0968 21.9695L45.0958 21.9653L45.0956 21.9644L45.0945 21.9607V21.9604L45.0936 21.957L45.0935 21.9559L45.0928 21.9533L45.0924 21.9519L45.0919 21.9494L45.0915 21.9482L45.0908 21.9455L45.0906 21.9444C45.0903 21.9434 45.0899 21.9421 45.0896 21.9411V21.9407C45.0892 21.9395 45.089 21.9383 45.0887 21.9372L45.0883 21.936L45.0876 21.9333L45.0874 21.9322L45.0867 21.9296L45.0864 21.9284C45.0862 21.9275 45.0859 21.9266 45.0857 21.9257L45.0855 21.9246L45.0846 21.9215L45.0844 21.9209L45.0834 21.917L45.0832 21.9165L45.0825 21.9135L45.0821 21.9121L45.0814 21.9098L45.0811 21.9084L45.0806 21.9059L45.0802 21.9047L45.0793 21.9018L45.0791 21.9011C45.0788 21.8999 45.0786 21.8985 45.0781 21.8972V21.8967L45.0772 21.8937L45.0761 21.89L45.0758 21.8886L45.0751 21.8863L45.0747 21.8849L45.0737 21.8811C45.0731 21.8787 45.0724 21.8764 45.0717 21.8739L45.0707 21.8702L45.0701 21.8689L45.0696 21.8666L45.0692 21.8652L45.0682 21.8615L45.0673 21.8587L45.0671 21.8578C45.0668 21.8566 45.0664 21.8553 45.0661 21.8541L45.0657 21.8532L45.065 21.8506L45.0645 21.8491L45.0639 21.8468L45.0634 21.8454L45.0629 21.8433L45.0623 21.8417L45.0616 21.8391L45.0613 21.8382L45.0602 21.8345L45.06 21.8336L45.0592 21.8308L45.0588 21.8295L45.0581 21.8272L45.0576 21.8258L45.0565 21.8221L45.0558 21.8198L45.0553 21.8186L45.0544 21.8154L45.054 21.8138L45.0531 21.8113L45.0526 21.8097L45.0521 21.8078L45.0503 21.8025L45.0496 21.8002L45.0493 21.7989L45.0484 21.7961L45.048 21.795L45.047 21.7917L45.0466 21.7906L45.0459 21.7882L45.0454 21.7867L45.0447 21.7844L45.0443 21.7832L45.0434 21.7809L45.0431 21.7795L45.0422 21.7768L45.0418 21.776L45.0404 21.7717L45.0395 21.7687L45.039 21.7675L45.0383 21.7652L45.0371 21.7615L45.0367 21.7602L45.0356 21.7576L45.0355 21.7565L45.0342 21.753L45.0339 21.7519L45.033 21.7494L45.0325 21.748L45.0318 21.7457L45.0312 21.7443L45.0305 21.7422L45.03 21.7408L45.0293 21.7385L45.0287 21.7371L45.0275 21.7337C45.0272 21.7325 45.0266 21.7312 45.0263 21.73L45.0259 21.7291L45.025 21.7265L45.0245 21.7252L45.0238 21.7229L45.0233 21.7217L45.0224 21.7192L45.022 21.718L45.021 21.7148L45.0208 21.7144L45.0196 21.7109L45.0192 21.7098L45.0181 21.7074L45.0178 21.7061L45.0169 21.7038L45.0164 21.7024L45.0155 21.7001L45.0151 21.6989L45.0143 21.6964L45.0139 21.6953L45.0125 21.6918L45.012 21.6904L45.0112 21.6884L45.0107 21.6867L45.01 21.6849L45.0095 21.6831L45.0081 21.6796L45.0074 21.6777L45.0068 21.6761L45.0059 21.6738L45.0052 21.6718L45.0044 21.6692L45.0038 21.6679L45.0029 21.6656L45.0024 21.6642L45.0017 21.6621L45.001 21.6607L45.0003 21.6587L44.9998 21.657L44.999 21.655L44.9982 21.6529L44.9971 21.6503L44.9966 21.6487L44.9959 21.6467L44.9952 21.6451L44.9945 21.6432L44.9937 21.6414L44.9932 21.6398L44.9911 21.6345L44.9899 21.6313L44.9891 21.6296L44.9886 21.6278L44.9872 21.6243L44.9865 21.6227L44.9858 21.6207L44.9853 21.6191L44.9844 21.6172L44.9838 21.6156L44.983 21.6135L44.9819 21.6108L44.9812 21.6089L44.9805 21.6073L44.9798 21.6053L44.9791 21.6036L44.9784 21.602L44.9777 21.6002L44.9769 21.5986L44.9762 21.5967L44.9754 21.5947L44.9748 21.5933L44.9734 21.5901L44.9713 21.5848L44.9708 21.5834L44.9699 21.5815L44.9692 21.5799L44.9685 21.5779L44.9679 21.5767C44.9669 21.5742 44.9658 21.5718 44.9648 21.5695L44.9642 21.568L44.9633 21.5657L44.963 21.5649L44.9619 21.5626L44.9614 21.5613L44.9605 21.5592L44.96 21.558L44.9591 21.5558L44.9587 21.5551L44.9568 21.5505L44.9563 21.5495L44.9554 21.5474L44.9548 21.5461L44.9538 21.5442L44.9533 21.5428L44.9524 21.5406L44.9518 21.5396L44.951 21.5373L44.9506 21.5367L44.9487 21.532L44.9481 21.5309L44.9472 21.5288L44.9465 21.5276L44.9457 21.5256L44.9451 21.5242L44.9442 21.5223L44.9435 21.5208L44.9428 21.5189L44.9419 21.5173C44.9414 21.5157 44.9407 21.5143 44.94 21.5129L44.9398 21.5125L44.9389 21.5102L44.9373 21.507L44.9368 21.5058L44.9359 21.5037L44.9354 21.5026L44.9343 21.5003L44.9338 21.4993C44.9328 21.4968 44.9315 21.4943 44.9305 21.4918L44.9299 21.4906L44.9289 21.4887L44.9283 21.4874L44.9274 21.4851L44.9253 21.4809C44.9241 21.4781 44.9228 21.4754 44.9214 21.4727V21.4724C44.9211 21.4717 44.9207 21.471 44.9204 21.4703L44.9198 21.469L44.9183 21.4659L44.9172 21.4636L44.9168 21.4627C44.9165 21.4618 44.9161 21.4611 44.9156 21.4604L44.9154 21.4598L44.9115 21.4515L44.9112 21.451L44.9099 21.4485L44.9096 21.4476L44.9085 21.4453L44.908 21.4443L44.9069 21.442L44.9027 21.4335L44.9023 21.4326C44.902 21.4319 44.9016 21.4312 44.9011 21.4303L44.9008 21.4294L44.8997 21.4273L44.8992 21.4261L44.8979 21.424L44.8976 21.4231L44.8963 21.4208V21.4204L44.8935 21.4148L44.8933 21.4146L44.8917 21.4114L44.8905 21.4091L44.89 21.4082L44.8889 21.4059L44.8884 21.405L44.8873 21.4026L44.8871 21.4024C44.8857 21.3996 44.8841 21.3967 44.8827 21.3937L44.8825 21.3935L44.8811 21.3909L44.8809 21.3904L44.8795 21.3877L44.8794 21.3874L44.8781 21.3847L44.8779 21.3844L44.8733 21.3759V21.3755L44.8721 21.3732L44.8716 21.3723L44.8703 21.3699L44.87 21.3693L44.8686 21.3667V21.3665C44.8665 21.3626 44.8645 21.3589 44.8624 21.3548L44.8622 21.3547L44.8608 21.352L44.8606 21.3515L44.8592 21.3488L44.859 21.3485C44.8564 21.3437 44.8537 21.3387 44.8512 21.334L44.8511 21.3338C44.8505 21.3329 44.85 21.3318 44.8497 21.3311L44.8495 21.3308C44.8474 21.3269 44.8452 21.323 44.8431 21.3191H44.8429L44.8415 21.3165L44.8413 21.3161L44.8399 21.3135L44.8396 21.3129C44.8369 21.3082 44.8343 21.3034 44.8316 21.2988L44.8314 21.2986L44.83 21.2958L44.8297 21.2956C44.8265 21.2898 44.8233 21.2841 44.82 21.2783L44.8198 21.2779L44.8182 21.2753V21.2751C44.8154 21.2703 44.8125 21.2655 44.8097 21.2608V21.2606C44.8092 21.2597 44.8086 21.2588 44.8081 21.2579L44.8079 21.2578C44.8051 21.253 44.8023 21.2482 44.7994 21.2434V21.2433C44.7987 21.2424 44.7982 21.2415 44.7977 21.2404C44.5212 20.7785 44.111 20.4113 43.6215 20.1873H43.6213L43.6181 20.1857C43.6142 20.1839 43.6101 20.1821 43.6061 20.1804L43.6059 20.1802L43.6032 20.1791L43.6027 20.1788L43.6002 20.1777L43.5995 20.1774L43.5969 20.1761H43.5965C43.5926 20.1744 43.5884 20.1726 43.5845 20.1708L43.5843 20.1707L43.5817 20.1694L43.5808 20.1692L43.5783 20.1682L43.5751 20.1666L43.5746 20.1664L43.5659 20.1627L43.5656 20.1625L43.5631 20.1615L43.5622 20.1611L43.5598 20.16L43.5589 20.1597L43.5566 20.1586L43.5557 20.1583L43.5476 20.1547L43.5468 20.1546L43.5447 20.1537L43.5433 20.1531L43.5414 20.1523L43.54 20.1517L43.5378 20.1508L43.5366 20.1501L43.5345 20.1494L43.5327 20.1486L43.5299 20.1475L43.5279 20.1466L43.5262 20.1459L43.5246 20.1454L43.5226 20.1445L43.521 20.1438L43.5193 20.1432L43.5173 20.1424L43.5157 20.1418L43.5134 20.1408L43.5124 20.1404L43.509 20.139L43.508 20.1387L43.5042 20.1371L43.5019 20.1362L43.5007 20.1356L43.4982 20.1348L43.4972 20.1342L43.4901 20.1314L43.4896 20.1312L43.4866 20.1302L43.4855 20.1296L43.483 20.1288L43.482 20.1284L43.4791 20.1273L43.4783 20.127L43.4752 20.1257L43.4747 20.1256C43.4722 20.1247 43.4699 20.1238 43.4675 20.1227H43.4671L43.4639 20.1215L43.463 20.1211L43.46 20.1201L43.4595 20.1197L43.456 20.1185C43.4523 20.1171 43.4484 20.1157 43.4447 20.1143L43.4443 20.1141L43.4409 20.113L43.4406 20.1128L43.4371 20.1114H43.4369C43.4319 20.1097 43.4268 20.1077 43.4217 20.1059C43.3469 20.0789 43.2705 20.0552 43.1926 20.0349C43.0826 20.0062 42.967 20.0064 42.8572 20.0356C42.7624 19.9813 42.6554 19.9516 42.5464 19.9493C42.5382 19.9493 42.5301 19.9493 42.5221 19.9493H42.5229Z" fill="#163969"/>
<path d="M43.8478 22.5991C43.8478 23.3307 43.2546 23.9238 42.5229 23.9238C41.7911 23.9238 41.198 23.3307 41.198 22.5991C41.198 21.8673 41.7911 21.2742 42.5229 21.2742C43.2546 21.2742 43.8478 21.8673 43.8478 22.5991Z" fill="#5E7599"/>
<path d="M42.5229 21.9367C42.5229 22.3024 42.2262 22.5991 41.8604 22.5991C41.4946 22.5991 41.198 22.3024 41.198 21.9367C41.198 21.5707 41.4946 21.2742 41.8604 21.2742C42.2262 21.2742 42.5229 21.5707 42.5229 21.9367Z" fill="#ADB9CA"/>
<path d="M35.8985 33.198C35.8985 33.9298 35.3054 34.5229 34.5736 34.5229C33.8419 34.5229 33.2487 33.9298 33.2487 33.198C33.2487 32.4662 33.8419 31.8731 34.5736 31.8731C35.3054 31.8731 35.8985 32.4662 35.8985 33.198Z" fill="#163969"/>
<path d="M34.5736 32.5356C34.5736 32.9015 34.277 33.198 33.9112 33.198C33.5454 33.198 33.2487 32.9015 33.2487 32.5356C33.2487 32.1698 33.5454 31.8731 33.9112 31.8731C34.277 31.8731 34.5736 32.1698 34.5736 32.5356Z" fill="#E5E8EF"/>
<path d="M42.5229 38.4975C41.0981 38.4975 40.4393 37.9814 40.1349 37.3699C39.6777 36.4516 38.7723 35.8478 37.7466 35.8478H35.3752C34.3494 35.8478 33.4441 36.4516 32.9869 37.3699C32.6824 37.9814 32.0237 38.4975 30.5989 38.4975H29.2742C30.0057 38.4975 30.5991 39.0906 30.5991 39.8224C30.5991 40.5541 30.0059 41.1473 29.2742 41.1473H42.5229C43.8478 41.1473 43.8478 39.8224 43.8478 39.8224C43.8478 39.8224 43.8478 38.4975 42.5229 38.4975Z" fill="#7D8FAC"/>
<path d="M24.637 37.1725H29.9366C30.3024 37.1725 30.5989 37.4692 30.5989 37.835C30.5989 38.201 30.3024 38.4974 29.9366 38.4974H24.637C24.2712 38.4974 23.9746 38.201 23.9746 37.835C23.9746 37.4692 24.2712 37.1725 24.637 37.1725Z" fill="#ADB9CA"/>
<path d="M33.9112 37.1725H39.2106C39.5766 37.1725 39.8731 37.4692 39.8731 37.835C39.8731 38.201 39.5766 38.4974 39.2106 38.4974H33.9112C33.5454 38.4974 33.2487 38.201 33.2487 37.835C33.2487 37.4692 33.5454 37.1725 33.9112 37.1725Z" fill="#5E7599"/>
<path d="M27.2868 30.5482H28.6117C28.9775 30.5482 29.2742 30.8449 29.2742 31.2107C29.2742 31.5766 28.9775 31.8731 28.6117 31.8731H27.2868C26.921 31.8731 26.6243 31.5766 26.6243 31.2107C26.6243 30.8449 26.921 30.5482 27.2868 30.5482Z" fill="#33527D"/>
<path d="M23.3123 27.8985H27.2868C27.6528 27.8985 27.9493 28.195 27.9493 28.561C27.9493 28.9268 27.6528 29.2234 27.2868 29.2234H23.3123C22.9463 29.2234 22.6498 28.9268 22.6498 28.561C22.6498 28.195 22.9463 27.8985 23.3123 27.8985Z" fill="#5E7599"/>
<path d="M31.2615 27.8985H35.2361C35.6019 27.8985 35.8985 28.195 35.8985 28.561C35.8985 28.9268 35.6019 29.2234 35.2361 29.2234H31.2615C30.8956 29.2234 30.5991 28.9268 30.5991 28.561C30.5991 28.195 30.8956 27.8985 31.2615 27.8985Z" fill="#435E88"/>
<path d="M37.4978 16.249C37.8636 15.8832 38.4567 15.8832 38.8227 16.249L40.9236 18.35C41.2895 18.7158 41.2895 19.3089 40.9236 19.6749C40.5578 20.0407 39.9646 20.0407 39.5988 19.6749L37.4978 17.5739C37.1318 17.2081 37.1318 16.6149 37.4978 16.249Z" fill="#E5E8EF"/>
<path d="M32.1984 19.6749L32.9743 18.8988C33.3403 18.533 33.9334 18.533 34.2992 18.8988C34.665 19.2646 34.665 19.8577 34.2992 20.2237L33.5231 20.9997C33.1573 21.3656 32.5641 21.3656 32.1984 20.9997C31.8324 20.6339 31.8324 20.0407 32.1984 19.6749Z" fill="#E5E8EF"/>
<path d="M40.1474 13.0506L40.9236 12.2744C41.2894 11.9086 41.8825 11.9086 42.2485 12.2744C42.6143 12.6402 42.6143 13.2334 42.2485 13.5993L41.4723 14.3755C41.1066 14.7413 40.5134 14.7413 40.1474 14.3755C39.7817 14.0095 39.7817 13.4164 40.1474 13.0506Z" fill="#435E88"/>
<path d="M21.9874 38.4974H28.6117C28.9775 38.4974 29.2742 38.7941 29.2742 39.1599C29.2742 39.5259 28.9775 39.8223 28.6117 39.8223H21.9874C21.6214 39.8223 21.3249 39.5259 21.3249 39.1599C21.3249 38.7941 21.6214 38.4974 21.9874 38.4974Z" fill="#E5E8EF"/>
<path d="M32.5863 38.4974H41.8604C42.2262 38.4974 42.5229 38.7941 42.5229 39.1599C42.5229 39.5259 42.2262 39.8223 41.8604 39.8223H32.5863C32.2205 39.8223 31.9238 39.5259 31.9238 39.1599C31.9238 38.7941 32.2205 38.4974 32.5863 38.4974Z" fill="#ADB9CA"/>
<path d="M33.2487 31.2107C33.2487 31.5766 32.9522 31.8731 32.5863 31.8731C32.2205 31.8731 31.9238 31.5766 31.9238 31.2107C31.9238 30.8449 32.2205 30.5482 32.5863 30.5482C32.9522 30.5482 33.2487 30.8449 33.2487 31.2107Z" fill="#E5E8EF"/>
</svg>
