<svg width="11" height="12" viewBox="0 0 11 12" fill="none" xmlns="http://www.w3.org/2000/svg">
<path d="M5.24988 11.9997C5.1587 11.9997 5.0675 11.9664 4.99536 11.9001L2.66594 9.74975H0.375002C0.167725 9.74975 0 9.58203 0 9.37475V0.375002C0 0.167725 0.167725 0 0.375002 0H10.1248C10.332 0 10.4998 0.167725 10.4998 0.375002V9.37477C10.4998 9.58205 10.332 9.74977 10.1248 9.74977H7.83379L5.50437 11.9001C5.43223 11.9664 5.34105 11.9997 5.24988 11.9997V11.9997ZM0.749979 8.99977H2.81243C2.90653 8.99977 2.99736 9.03529 3.06695 9.09939L5.24988 11.1142L7.43281 9.09939C7.50239 9.03532 7.59319 8.99977 7.68733 8.99977H9.74977V0.749979H0.749979V8.99977Z" fill="#A4A4A4"/>
<path d="M5.85356 5.14645C6.04881 5.34169 6.04881 5.65827 5.85356 5.85355C5.65832 6.04883 5.34173 6.0488 5.14645 5.85355C4.95117 5.65831 4.9512 5.34173 5.14645 5.14645C5.3417 4.95117 5.65828 4.9512 5.85356 5.14645Z" fill="#A4A4A4"/>
<path d="M3.85356 5.14645C4.04881 5.34169 4.04881 5.65827 3.85356 5.85355C3.65832 6.04883 3.34173 6.0488 3.14645 5.85355C2.95117 5.65831 2.9512 5.34173 3.14645 5.14645C3.3417 4.95117 3.65832 4.9512 3.85356 5.14645Z" fill="#A4A4A4"/>
<path d="M7.85356 5.14644C8.04881 5.34169 8.04881 5.65828 7.85356 5.85356C7.65831 6.04881 7.34172 6.04881 7.14644 5.85356C6.95119 5.65831 6.95119 5.34172 7.14644 5.14644C7.34172 4.95119 7.65831 4.95119 7.85356 5.14644Z" fill="#A4A4A4"/>
</svg>
