<svg width="30" height="30" viewBox="0 0 30 30" fill="none" xmlns="http://www.w3.org/2000/svg">
<path d="M28.0487 22.7483L21.4249 16.1245C20.4312 15.1308 19.8727 13.7828 19.8727 12.3775V0H9.27458V12.3775C9.27458 13.783 8.71628 15.1308 7.72255 16.1245L1.09863 22.7483C-0.019202 23.8688 -0.31603 25.5689 0.35612 27.0016C0.976825 28.3523 2.41129 29.1449 3.89773 29.1449H25.3991C27.4686 29.1449 29.1462 27.4673 29.1462 25.3978C29.1462 24.4041 28.7514 23.451 28.0487 22.7483Z" fill="#DFE5FF"/>
<path d="M21.4247 16.1245C20.431 15.1306 19.8727 13.7828 19.8727 12.3775V0H10.5994V12.3775C10.5994 13.783 11.1577 15.1308 12.1515 16.1245L18.7752 22.7483C19.4779 23.451 19.8727 24.4041 19.8727 25.3978V25.398C19.8727 27.4673 18.1952 29.1449 16.1257 29.1449H25.3991C27.4686 29.1449 29.1462 27.4673 29.1462 25.398V25.3978C29.1462 24.4041 28.7514 23.451 28.0487 22.7483L21.4247 16.1245Z" fill="#CCD4FF"/>
<path d="M10.5994 2.64953C10.5994 3.38108 11.1924 3.97421 11.9241 3.97421H13.249C14.7123 3.97421 15.8985 5.16046 15.8985 6.62374V7.94859C15.8985 8.68015 16.4916 9.27327 17.2232 9.27327C17.9549 9.27327 18.5479 8.68015 18.548 7.94859V3.97421C18.548 2.51093 17.3618 1.32468 15.8985 1.32468H11.9241C11.1924 1.32468 10.5994 1.9178 10.5994 2.64953Z" fill="#B8C2FF"/>
<path d="M3.89792 27.8202C2.86034 27.8202 1.94316 27.282 1.55883 26.4481C1.11791 25.5189 1.30849 24.4129 2.03492 23.6847L8.6599 17.0598C9.90184 15.818 10.5994 14.1337 10.5994 12.3777V10.5981C10.5994 9.86658 11.1924 9.27345 11.9241 9.27345H17.2232C17.9549 9.27345 18.548 9.86658 18.548 10.5981V12.3759C18.548 14.1332 19.246 15.8183 20.4886 17.061L27.1124 23.6847C27.6454 24.2167 27.9002 24.9665 27.8015 25.713C27.6456 26.9509 26.4836 27.8202 25.2361 27.8202H3.89792Z" fill="#FFEA21"/>
<path d="M18.7752 22.7483C19.4779 23.451 19.8727 24.4041 19.8727 25.3978C19.8695 26.2883 19.5467 27.1479 18.9628 27.8202H25.2361C26.4837 27.8202 27.6456 26.9509 27.8015 25.713C27.9001 24.9666 27.6454 24.2167 27.1124 23.6847L20.4886 17.061C19.246 15.8184 18.548 14.1332 18.548 12.3759V10.5981C18.548 9.86641 17.9549 9.27328 17.2233 9.27328C17.2232 9.27328 17.2232 9.27328 17.2232 9.27328H11.9241C11.1924 9.27328 10.5994 9.86641 10.5992 10.5981V12.3775C10.5994 13.783 11.1575 15.1308 12.1513 16.1246L18.7752 22.7483Z" fill="#FFD700"/>
<path d="M9.27457 0H19.8727C20.6044 0 21.1976 0.593126 21.1976 1.32468C21.1976 2.05641 20.6044 2.64953 19.8727 2.64953H9.27457C8.54302 2.64953 7.94989 2.05641 7.94989 1.32468C7.94989 0.593126 8.54284 0 9.27457 0Z" fill="#EFF2FF"/>
<path d="M19.8727 0H10.5994C11.331 0 11.9241 0.593126 11.9241 1.32468C11.9241 2.05641 11.331 2.64953 10.5994 2.64953H19.8727C20.6044 2.64953 21.1976 2.05641 21.1976 1.32468C21.1976 0.592949 20.6044 0 19.8727 0Z" fill="#DFE5FF"/>
<path d="M13.249 5.29905C13.9805 5.29905 14.5737 5.89218 14.5737 6.62373V10.5981C14.5737 11.3298 13.9805 11.9228 13.249 11.9228C12.5172 11.9228 11.9241 11.3298 11.9241 10.5981V6.62373C11.9241 5.89218 12.5172 5.29905 13.249 5.29905Z" fill="#EFF2FF"/>
<path d="M13.2514 14.5725C12.7267 14.5722 12.2506 14.8794 12.0348 15.3576C12.0249 15.3801 12.0148 15.4025 12.0045 15.4248C11.7052 16.0931 12.0007 16.8778 12.6664 17.1826C13.3267 17.4855 14.1074 17.1957 14.4103 16.5352C14.4119 16.5319 14.4135 16.5283 14.4151 16.5248L14.457 16.4318C14.7548 15.7664 14.457 14.9855 13.7915 14.6876C13.6216 14.6116 13.4376 14.5723 13.2514 14.5725ZM11.3987 17.1699C11.0474 17.1694 10.7103 17.309 10.4621 17.5579C10.4621 17.5579 10.418 17.6018 10.3413 17.6787C10.2644 17.7556 10.1546 17.8654 10.0229 17.9971C9.89121 18.1288 9.73758 18.2824 9.57281 18.4472C9.44358 18.5764 9.30745 18.7126 9.17009 18.8499L7.65183 20.3682C7.13437 20.8856 7.13437 21.7243 7.65183 22.2418C8.16911 22.7591 9.00797 22.7591 9.52526 22.2418L12.3355 19.4314C12.8528 18.9141 12.8528 18.0752 12.3355 17.5579C12.0871 17.3094 11.7501 17.1699 11.3987 17.1699Z" fill="#EFF2FF"/>
<path d="M13.9112 0H19.2103C19.5762 0 19.8727 0.296475 19.8727 0.662427C19.8727 1.0282 19.5762 1.32468 19.2103 1.32468H13.9112C13.5454 1.32468 13.249 1.0282 13.249 0.662427C13.249 0.296475 13.5454 0 13.9112 0Z" fill="#EFF2FF"/>
<path d="M21.1976 25.1707H25.172C25.9035 25.1707 26.4966 25.7638 26.4966 26.4953C26.4966 27.2271 25.9035 27.8202 25.172 27.8202H21.1976C20.4658 27.8202 19.8727 27.2271 19.8727 26.4953C19.8727 25.7638 20.4658 25.1707 21.1976 25.1707Z" fill="#FFBE00"/>
<path d="M3.97551 25.1707H17.2232C17.9549 25.1707 18.548 25.7638 18.548 26.4953C18.548 27.2271 17.9549 27.8202 17.2232 27.8202H3.97551C3.24396 27.8202 2.65083 27.2271 2.65083 26.4953C2.65066 25.7638 3.24378 25.1707 3.97551 25.1707Z" fill="#FFD700"/>
</svg>
