<svg width="152" height="48" viewBox="0 0 152 48" fill="none" xmlns="http://www.w3.org/2000/svg">
<rect x="0.25" y="0.25" width="151.5" height="47.5" rx="3.75" stroke="#E4E4E4" stroke-width="0.5"/>
<path d="M68.7622 24.4541C68.6834 25.2884 68.3755 25.9401 67.8384 26.4092C67.3013 26.8747 66.5869 27.1074 65.6953 27.1074C65.0723 27.1074 64.5226 26.9606 64.0464 26.667C63.5737 26.3698 63.2085 25.9491 62.9507 25.4048C62.6929 24.8605 62.5586 24.2285 62.5479 23.5088V22.7783C62.5479 22.0407 62.6785 21.3908 62.9399 20.8286C63.2013 20.2664 63.5755 19.8332 64.0625 19.5288C64.5531 19.2244 65.1188 19.0723 65.7598 19.0723C66.6227 19.0723 67.3174 19.3068 67.8438 19.7759C68.3701 20.245 68.6763 20.9074 68.7622 21.7632H67.4087C67.3442 21.201 67.1795 20.7964 66.9146 20.5493C66.6532 20.2987 66.2682 20.1733 65.7598 20.1733C65.1689 20.1733 64.7142 20.39 64.3955 20.8232C64.0804 21.2529 63.9193 21.8849 63.9121 22.7192V23.4121C63.9121 24.2572 64.0625 24.9017 64.3633 25.3457C64.6676 25.7897 65.1117 26.0117 65.6953 26.0117C66.2288 26.0117 66.6299 25.8918 66.8984 25.6519C67.167 25.4119 67.3371 25.0127 67.4087 24.4541H68.7622ZM71.1416 21.8223C71.5677 21.3281 72.1066 21.0811 72.7583 21.0811C73.9972 21.0811 74.6257 21.7882 74.6436 23.2026V27H73.3384V23.251C73.3384 22.8499 73.2507 22.5671 73.0752 22.4023C72.9033 22.234 72.6491 22.1499 72.3125 22.1499C71.7897 22.1499 71.3994 22.3826 71.1416 22.8481V27H69.8364V18.75H71.1416V21.8223ZM78.5269 27.1074C77.6997 27.1074 77.0283 26.8478 76.5127 26.3286C76.0007 25.8058 75.7446 25.1112 75.7446 24.2446V24.0835C75.7446 23.5034 75.8556 22.986 76.0776 22.5312C76.3032 22.0729 76.6183 21.7166 77.0229 21.4624C77.4276 21.2082 77.8787 21.0811 78.3765 21.0811C79.1678 21.0811 79.7783 21.3335 80.208 21.8384C80.6413 22.3433 80.8579 23.0576 80.8579 23.9814V24.5078H77.0605C77.0999 24.9876 77.2593 25.3672 77.5386 25.6465C77.8215 25.9258 78.1759 26.0654 78.6021 26.0654C79.2 26.0654 79.687 25.8237 80.063 25.3403L80.7666 26.0117C80.5339 26.359 80.2223 26.6294 79.832 26.8228C79.4453 27.0125 79.0103 27.1074 78.5269 27.1074ZM78.3711 22.1284C78.013 22.1284 77.723 22.2537 77.501 22.5044C77.2826 22.755 77.1429 23.1042 77.082 23.5518H79.5688V23.4551C79.5402 23.0182 79.4238 22.6888 79.2197 22.4668C79.0156 22.2412 78.7327 22.1284 78.3711 22.1284ZM83.103 21.1885L83.1406 21.7954C83.5488 21.3192 84.1074 21.0811 84.8164 21.0811C85.5934 21.0811 86.1252 21.3783 86.4116 21.9727C86.8341 21.3783 87.4285 21.0811 88.1948 21.0811C88.8358 21.0811 89.312 21.2583 89.6235 21.6128C89.9386 21.9673 90.0998 22.4901 90.1069 23.1812V27H88.8018V23.2188C88.8018 22.8499 88.7212 22.5796 88.5601 22.4077C88.3989 22.2358 88.1322 22.1499 87.7598 22.1499C87.4626 22.1499 87.2191 22.2305 87.0293 22.3916C86.8431 22.5492 86.7124 22.7568 86.6372 23.0146L86.6426 27H85.3374V23.1758C85.3195 22.4919 84.9704 22.1499 84.29 22.1499C83.7673 22.1499 83.3966 22.363 83.1782 22.7891V27H81.873V21.1885H83.103ZM92.8354 27H91.5303V21.1885H92.8354V27ZM91.4497 19.6792C91.4497 19.4787 91.5124 19.3122 91.6377 19.1797C91.7666 19.0472 91.9492 18.981 92.1855 18.981C92.4219 18.981 92.6045 19.0472 92.7334 19.1797C92.8623 19.3122 92.9268 19.4787 92.9268 19.6792C92.9268 19.8761 92.8623 20.0409 92.7334 20.1733C92.6045 20.3022 92.4219 20.3667 92.1855 20.3667C91.9492 20.3667 91.7666 20.3022 91.6377 20.1733C91.5124 20.0409 91.4497 19.8761 91.4497 19.6792ZM97.519 25.4209C97.519 25.1882 97.4224 25.0109 97.229 24.8892C97.0392 24.7674 96.7223 24.66 96.2783 24.5669C95.8343 24.4738 95.4637 24.3556 95.1665 24.2124C94.5148 23.8973 94.189 23.4408 94.189 22.8428C94.189 22.3415 94.4002 21.9225 94.8228 21.5859C95.2453 21.2493 95.7824 21.0811 96.4341 21.0811C97.1287 21.0811 97.6891 21.2529 98.1152 21.5967C98.5449 21.9404 98.7598 22.3862 98.7598 22.9341H97.4546C97.4546 22.6834 97.3615 22.4757 97.1753 22.311C96.9891 22.1427 96.742 22.0586 96.4341 22.0586C96.1476 22.0586 95.9131 22.1248 95.7305 22.2573C95.5514 22.3898 95.4619 22.5671 95.4619 22.7891C95.4619 22.9896 95.5461 23.1453 95.7144 23.2563C95.8826 23.3674 96.2228 23.4801 96.7349 23.5947C97.2469 23.7057 97.6479 23.84 97.938 23.9976C98.2316 24.1515 98.4482 24.3377 98.5879 24.5562C98.7311 24.7746 98.8027 25.0396 98.8027 25.3511C98.8027 25.8739 98.5861 26.2982 98.1528 26.624C97.7196 26.9463 97.152 27.1074 96.4502 27.1074C95.974 27.1074 95.5496 27.0215 95.1772 26.8496C94.8049 26.6777 94.5148 26.4414 94.3071 26.1406C94.0994 25.8398 93.9956 25.5158 93.9956 25.1685H95.2632C95.2811 25.4764 95.3975 25.7145 95.6123 25.8828C95.8271 26.0475 96.1118 26.1299 96.4663 26.1299C96.8101 26.1299 97.0715 26.0654 97.2505 25.9365C97.4295 25.804 97.519 25.6322 97.519 25.4209ZM101.58 19.7759V21.1885H102.605V22.1553H101.58V25.3994C101.58 25.6214 101.623 25.7826 101.708 25.8828C101.798 25.9795 101.956 26.0278 102.181 26.0278C102.332 26.0278 102.484 26.0099 102.638 25.9741V26.9839C102.34 27.0662 102.054 27.1074 101.778 27.1074C100.776 27.1074 100.274 26.5542 100.274 25.4478V22.1553H99.3184V21.1885H100.274V19.7759H101.58ZM106.65 22.3809C106.478 22.3522 106.301 22.3379 106.118 22.3379C105.52 22.3379 105.117 22.5671 104.91 23.0254V27H103.604V21.1885H104.851L104.883 21.8384C105.198 21.3335 105.635 21.0811 106.193 21.0811C106.38 21.0811 106.534 21.1061 106.655 21.1562L106.65 22.3809ZM109.604 25.1309L110.786 21.1885H112.177L109.867 27.8809C109.513 28.8584 108.911 29.3472 108.062 29.3472C107.873 29.3472 107.663 29.3149 107.434 29.2505V28.2407L107.681 28.2568C108.011 28.2568 108.258 28.196 108.422 28.0742C108.591 27.9561 108.723 27.7555 108.82 27.4727L109.008 26.9731L106.967 21.1885H108.374L109.604 25.1309Z" fill="black"/>
<path d="M47.0487 31.7483L40.4249 25.1245C39.4312 24.1308 38.8727 22.7828 38.8727 21.3775V9H28.2746V21.3775C28.2746 22.783 27.7163 24.1308 26.7226 25.1245L20.0986 31.7483C18.9808 32.8688 18.684 34.5689 19.3561 36.0016C19.9768 37.3523 21.4113 38.1449 22.8977 38.1449H44.3991C46.4686 38.1449 48.1462 36.4673 48.1462 34.3978C48.1462 33.4041 47.7514 32.451 47.0487 31.7483Z" fill="#DFE5FF"/>
<path d="M40.4247 25.1245C39.431 24.1306 38.8727 22.7828 38.8727 21.3775V9H29.5994V21.3775C29.5994 22.783 30.1577 24.1308 31.1515 25.1245L37.7752 31.7483C38.4779 32.451 38.8727 33.4041 38.8727 34.3978V34.398C38.8727 36.4673 37.1952 38.1449 35.1257 38.1449H44.3991C46.4686 38.1449 48.1462 36.4673 48.1462 34.398V34.3978C48.1462 33.4041 47.7514 32.451 47.0487 31.7483L40.4247 25.1245Z" fill="#CCD4FF"/>
<path d="M29.5994 11.6495C29.5994 12.3811 30.1924 12.9742 30.9241 12.9742H32.249C33.7123 12.9742 34.8985 14.1605 34.8985 15.6237V16.9486C34.8985 17.6801 35.4916 18.2733 36.2232 18.2733C36.9549 18.2733 37.5479 17.6801 37.548 16.9486V12.9742C37.548 11.5109 36.3618 10.3247 34.8985 10.3247H30.9241C30.1924 10.3247 29.5994 10.9178 29.5994 11.6495Z" fill="#B8C2FF"/>
<path d="M22.8979 36.8202C21.8603 36.8202 20.9432 36.282 20.5588 35.4481C20.1179 34.5189 20.3085 33.4129 21.0349 32.6847L27.6599 26.0598C28.9018 24.818 29.5994 23.1337 29.5994 21.3777V19.5981C29.5994 18.8666 30.1924 18.2735 30.9241 18.2735H36.2232C36.9549 18.2735 37.548 18.8666 37.548 19.5981V21.3759C37.548 23.1332 38.246 24.8183 39.4886 26.061L46.1124 32.6847C46.6454 33.2167 46.9002 33.9665 46.8015 34.713C46.6456 35.9509 45.4836 36.8202 44.2361 36.8202H22.8979Z" fill="#FFEA21"/>
<path d="M37.7752 31.7483C38.4779 32.451 38.8727 33.4041 38.8727 34.3978C38.8695 35.2883 38.5467 36.1479 37.9628 36.8202H44.2361C45.4837 36.8202 46.6456 35.9509 46.8015 34.713C46.9001 33.9666 46.6454 33.2167 46.1124 32.6847L39.4886 26.061C38.246 24.8184 37.548 23.1332 37.548 21.3759V19.5981C37.548 18.8664 36.9549 18.2733 36.2233 18.2733C36.2232 18.2733 36.2232 18.2733 36.2232 18.2733H30.9241C30.1924 18.2733 29.5994 18.8664 29.5992 19.5981V21.3775C29.5994 22.783 30.1575 24.1308 31.1513 25.1246L37.7752 31.7483Z" fill="#FFD700"/>
<path d="M28.2746 9H38.8727C39.6044 9 40.1976 9.59313 40.1976 10.3247C40.1976 11.0564 39.6044 11.6495 38.8727 11.6495H28.2746C27.543 11.6495 26.9499 11.0564 26.9499 10.3247C26.9499 9.59313 27.5428 9 28.2746 9Z" fill="#EFF2FF"/>
<path d="M38.8727 9H29.5994C30.331 9 30.9241 9.59313 30.9241 10.3247C30.9241 11.0564 30.331 11.6495 29.5994 11.6495H38.8727C39.6044 11.6495 40.1976 11.0564 40.1976 10.3247C40.1976 9.59295 39.6044 9 38.8727 9Z" fill="#DFE5FF"/>
<path d="M32.249 14.299C32.9805 14.299 33.5737 14.8922 33.5737 15.6237V19.5981C33.5737 20.3298 32.9805 20.9228 32.249 20.9228C31.5172 20.9228 30.9241 20.3298 30.9241 19.5981V15.6237C30.9241 14.8922 31.5172 14.299 32.249 14.299Z" fill="#EFF2FF"/>
<path d="M32.2514 23.5725C31.7267 23.5722 31.2506 23.8794 31.0348 24.3576C31.0249 24.3801 31.0148 24.4025 31.0045 24.4248C30.7052 25.0931 31.0007 25.8778 31.6664 26.1826C32.3267 26.4855 33.1074 26.1957 33.4103 25.5352C33.4119 25.5319 33.4135 25.5283 33.4151 25.5248L33.457 25.4318C33.7548 24.7664 33.457 23.9855 32.7915 23.6876C32.6216 23.6116 32.4376 23.5723 32.2514 23.5725ZM30.3987 26.1699C30.0474 26.1694 29.7103 26.309 29.4621 26.5579C29.4621 26.5579 29.418 26.6018 29.3413 26.6787C29.2644 26.7556 29.1546 26.8654 29.0229 26.9971C28.8912 27.1288 28.7376 27.2824 28.5728 27.4472C28.4436 27.5764 28.3075 27.7126 28.1701 27.8499L26.6518 29.3682C26.1344 29.8856 26.1344 30.7243 26.6518 31.2418C27.1691 31.7591 28.008 31.7591 28.5253 31.2418L31.3355 28.4314C31.8528 27.9141 31.8528 27.0752 31.3355 26.5579C31.0871 26.3094 30.7501 26.1699 30.3987 26.1699Z" fill="#EFF2FF"/>
<path d="M32.9112 9H38.2103C38.5762 9 38.8727 9.29647 38.8727 9.66243C38.8727 10.0282 38.5762 10.3247 38.2103 10.3247H32.9112C32.5454 10.3247 32.249 10.0282 32.249 9.66243C32.249 9.29647 32.5454 9 32.9112 9Z" fill="#EFF2FF"/>
<path d="M40.1976 34.1707H44.172C44.9035 34.1707 45.4966 34.7638 45.4966 35.4953C45.4966 36.2271 44.9035 36.8202 44.172 36.8202H40.1976C39.4658 36.8202 38.8727 36.2271 38.8727 35.4953C38.8727 34.7638 39.4658 34.1707 40.1976 34.1707Z" fill="#FFBE00"/>
<path d="M22.9755 34.1707H36.2232C36.9549 34.1707 37.548 34.7638 37.548 35.4953C37.548 36.2271 36.9549 36.8202 36.2232 36.8202H22.9755C22.244 36.8202 21.6508 36.2271 21.6508 35.4953C21.6507 34.7638 22.2438 34.1707 22.9755 34.1707Z" fill="#FFD700"/>
</svg>
