<svg width="318" height="60" viewBox="0 0 318 60" fill="none" xmlns="http://www.w3.org/2000/svg">
<path d="M71.6818 38H72.4091C72.1932 36.875 71.25 36.1023 70.0227 36.1023C68.5312 36.1023 67.4773 37.25 67.4773 39.0909C67.4773 40.9318 68.5227 42.0796 70.0682 42.0796C71.4545 42.0796 72.4432 41.1563 72.4432 39.7159V39.0909H70.2273V39.7159H71.7614C71.7415 40.7614 71.054 41.4205 70.0682 41.4205C68.9886 41.4205 68.1591 40.6023 68.1591 39.0909C68.1591 37.5796 68.9886 36.7614 70.0227 36.7614C70.8636 36.7614 71.4347 37.2358 71.6818 38Z" fill="#616161"/>
<path d="M75.3885 42.0909C76.2749 42.0909 76.9226 41.6477 77.1271 40.9886L76.4794 40.8068C76.3089 41.2614 75.9141 41.4886 75.3885 41.4886C74.6016 41.4886 74.0589 40.9801 74.0277 40.0455H77.1953V39.7614C77.1953 38.1364 76.2294 37.5796 75.3203 37.5796C74.1385 37.5796 73.3544 38.5114 73.3544 39.8523C73.3544 41.1932 74.1271 42.0909 75.3885 42.0909ZM74.0277 39.4659C74.0732 38.7869 74.5533 38.1818 75.3203 38.1818C76.0476 38.1818 76.5135 38.7273 76.5135 39.4659H74.0277Z" fill="#616161"/>
<path d="M80.1129 37.6364H79.1811V36.5909H78.5107V37.6364H77.8516V38.2046H78.5107V40.9318C78.5107 41.6932 79.1243 42.0568 79.6925 42.0568C79.9425 42.0568 80.1016 42.0114 80.1925 41.9773L80.0561 41.375C79.9993 41.3864 79.9084 41.4091 79.7607 41.4091C79.4652 41.4091 79.1811 41.3182 79.1811 40.75V38.2046H80.1129V37.6364Z" fill="#616161"/>
<path d="M85.2692 37.6364H84.3374V36.5909H83.6669V37.6364H83.0078V38.2046H83.6669V40.9318C83.6669 41.6932 84.2805 42.0568 84.8487 42.0568C85.0987 42.0568 85.2578 42.0114 85.3487 41.9773L85.2124 41.375C85.1555 41.3864 85.0646 41.4091 84.9169 41.4091C84.6215 41.4091 84.3374 41.3182 84.3374 40.75V38.2046H85.2692V37.6364Z" fill="#616161"/>
<path d="M87.0419 39.375C87.0419 38.6136 87.5277 38.1818 88.1896 38.1818C88.8203 38.1818 89.201 38.5796 89.201 39.2727V42H89.8714V39.2273C89.8714 38.1051 89.2749 37.5796 88.3828 37.5796C87.6953 37.5796 87.3033 37.8665 87.0987 38.3182H87.0419V36.1818H86.3714V42H87.0419V39.375Z" fill="#616161"/>
<path d="M92.9276 42.0909C93.8139 42.0909 94.4616 41.6477 94.6662 40.9886L94.0185 40.8068C93.848 41.2614 93.4531 41.4886 92.9276 41.4886C92.1406 41.4886 91.598 40.9801 91.5668 40.0455H94.7344V39.7614C94.7344 38.1364 93.7685 37.5796 92.8594 37.5796C91.6776 37.5796 90.8935 38.5114 90.8935 39.8523C90.8935 41.1932 91.6662 42.0909 92.9276 42.0909ZM91.5668 39.4659C91.6122 38.7869 92.0923 38.1818 92.8594 38.1818C93.5866 38.1818 94.0526 38.7273 94.0526 39.4659H91.5668Z" fill="#616161"/>
<path d="M98.6747 36.1818H98.0043V42H98.6747V36.1818Z" fill="#616161"/>
<path d="M101.187 42.1023C101.948 42.1023 102.346 41.6932 102.482 41.4091H102.516V42H103.187V39.125C103.187 37.7386 102.13 37.5796 101.573 37.5796C100.914 37.5796 100.164 37.8068 99.8232 38.6023L100.46 38.8296C100.607 38.5114 100.957 38.1705 101.596 38.1705C102.212 38.1705 102.516 38.4972 102.516 39.0568V39.0796C102.516 39.4034 102.187 39.375 101.391 39.4773C100.582 39.5824 99.6982 39.7614 99.6982 40.7614C99.6982 41.6136 100.357 42.1023 101.187 42.1023ZM101.289 41.5C100.755 41.5 100.369 41.2614 100.369 40.7955C100.369 40.2841 100.835 40.125 101.357 40.0568C101.641 40.0227 102.403 39.9432 102.516 39.8068V40.4205C102.516 40.9659 102.085 41.5 101.289 41.5Z" fill="#616161"/>
<path d="M106.308 37.6364H105.376V36.5909H104.706V37.6364H104.047V38.2046H104.706V40.9318C104.706 41.6932 105.32 42.0568 105.888 42.0568C106.138 42.0568 106.297 42.0114 106.388 41.9773L106.251 41.375C106.195 41.3864 106.104 41.4091 105.956 41.4091C105.661 41.4091 105.376 41.3182 105.376 40.75V38.2046H106.308V37.6364Z" fill="#616161"/>
<path d="M109.099 42.0909C109.986 42.0909 110.634 41.6477 110.838 40.9886L110.19 40.8068C110.02 41.2614 109.625 41.4886 109.099 41.4886C108.312 41.4886 107.77 40.9801 107.739 40.0455H110.906V39.7614C110.906 38.1364 109.94 37.5796 109.031 37.5796C107.849 37.5796 107.065 38.5114 107.065 39.8523C107.065 41.1932 107.838 42.0909 109.099 42.0909ZM107.739 39.4659C107.784 38.7869 108.264 38.1818 109.031 38.1818C109.759 38.1818 110.224 38.7273 110.224 39.4659H107.739Z" fill="#616161"/>
<path d="M115.017 38.6136C114.807 37.9943 114.335 37.5796 113.472 37.5796C112.551 37.5796 111.869 38.1023 111.869 38.8409C111.869 39.4432 112.227 39.8466 113.028 40.0341L113.756 40.2046C114.196 40.3068 114.403 40.5171 114.403 40.8182C114.403 41.1932 114.006 41.5 113.381 41.5C112.832 41.5 112.489 41.2642 112.369 40.7955L111.733 40.9546C111.889 41.696 112.5 42.0909 113.392 42.0909C114.406 42.0909 115.097 41.5369 115.097 40.7841C115.097 40.1761 114.716 39.7926 113.938 39.6023L113.29 39.4432C112.773 39.3153 112.54 39.1421 112.54 38.8068C112.54 38.4318 112.938 38.1591 113.472 38.1591C114.057 38.1591 114.298 38.483 114.415 38.7841L115.017 38.6136Z" fill="#616161"/>
<path d="M118.004 37.6364H117.072V36.5909H116.401V37.6364H115.742V38.2046H116.401V40.9318C116.401 41.6932 117.015 42.0568 117.583 42.0568C117.833 42.0568 117.992 42.0114 118.083 41.9773L117.947 41.375C117.89 41.3864 117.799 41.4091 117.651 41.4091C117.356 41.4091 117.072 41.3182 117.072 40.75V38.2046H118.004V37.6364Z" fill="#616161"/>
<path d="M121.933 39.375C121.933 38.6136 122.404 38.1818 123.046 38.1818C123.668 38.1818 124.046 38.5881 124.046 39.2727V42H124.717V39.2273C124.717 38.1136 124.123 37.5796 123.239 37.5796C122.58 37.5796 122.171 37.875 121.967 38.3182H121.91V37.6364H121.262V42H121.933V39.375Z" fill="#616161"/>
<path d="M127.771 42.0909C128.658 42.0909 129.305 41.6477 129.51 40.9886L128.862 40.8068C128.692 41.2614 128.297 41.4886 127.771 41.4886C126.984 41.4886 126.442 40.9801 126.411 40.0455H129.578V39.7614C129.578 38.1364 128.612 37.5796 127.703 37.5796C126.521 37.5796 125.737 38.5114 125.737 39.8523C125.737 41.1932 126.51 42.0909 127.771 42.0909ZM126.411 39.4659C126.456 38.7869 126.936 38.1818 127.703 38.1818C128.43 38.1818 128.896 38.7273 128.896 39.4659H126.411Z" fill="#616161"/>
<path d="M131.587 42H132.246L133.2 38.6477H133.268L134.223 42H134.882L136.212 37.6364H135.507L134.564 40.9659H134.518L133.598 37.6364H132.882L131.95 40.9773H131.905L130.962 37.6364H130.257L131.587 42Z" fill="#616161"/>
<path d="M140.189 38.6136C139.979 37.9943 139.507 37.5796 138.643 37.5796C137.723 37.5796 137.041 38.1023 137.041 38.8409C137.041 39.4432 137.399 39.8466 138.2 40.0341L138.928 40.2046C139.368 40.3068 139.575 40.5171 139.575 40.8182C139.575 41.1932 139.178 41.5 138.553 41.5C138.004 41.5 137.661 41.2642 137.541 40.7955L136.905 40.9546C137.061 41.696 137.672 42.0909 138.564 42.0909C139.578 42.0909 140.268 41.5369 140.268 40.7841C140.268 40.1761 139.888 39.7926 139.109 39.6023L138.462 39.4432C137.945 39.3153 137.712 39.1421 137.712 38.8068C137.712 38.4318 138.109 38.1591 138.643 38.1591C139.229 38.1591 139.47 38.483 139.587 38.7841L140.189 38.6136Z" fill="#616161"/>
<path d="M144.812 42.1023C145.573 42.1023 145.971 41.6932 146.107 41.4091H146.141V42H146.812V39.125C146.812 37.7386 145.755 37.5796 145.198 37.5796C144.539 37.5796 143.789 37.8068 143.448 38.6023L144.085 38.8296C144.232 38.5114 144.582 38.1705 145.221 38.1705C145.837 38.1705 146.141 38.4972 146.141 39.0568V39.0796C146.141 39.4034 145.812 39.375 145.016 39.4773C144.207 39.5824 143.323 39.7614 143.323 40.7614C143.323 41.6136 143.982 42.1023 144.812 42.1023ZM144.914 41.5C144.38 41.5 143.994 41.2614 143.994 40.7955C143.994 40.2841 144.46 40.125 144.982 40.0568C145.266 40.0227 146.028 39.9432 146.141 39.8068V40.4205C146.141 40.9659 145.71 41.5 144.914 41.5Z" fill="#616161"/>
<path d="M148.706 39.375C148.706 38.6136 149.178 38.1818 149.82 38.1818C150.442 38.1818 150.82 38.5881 150.82 39.2727V42H151.49V39.2273C151.49 38.1136 150.896 37.5796 150.013 37.5796C149.354 37.5796 148.945 37.875 148.74 38.3182H148.683V37.6364H148.036V42H148.706V39.375Z" fill="#616161"/>
<path d="M154.363 42.0909C155.204 42.0909 155.488 41.5682 155.636 41.3296H155.715V42H156.363V36.1818H155.692V38.3296H155.636C155.488 38.1023 155.227 37.5796 154.374 37.5796C153.272 37.5796 152.511 38.4546 152.511 39.8296C152.511 41.2159 153.272 42.0909 154.363 42.0909ZM154.454 41.4886C153.613 41.4886 153.181 40.75 153.181 39.8182C153.181 38.8977 153.602 38.1818 154.454 38.1818C155.272 38.1818 155.704 38.8409 155.704 39.8182C155.704 40.8068 155.261 41.4886 154.454 41.4886Z" fill="#616161"/>
<path d="M161.695 43.7273C162.741 43.7273 163.582 43.25 163.582 42.125V37.6364H162.934V38.3296H162.866C162.718 38.1023 162.445 37.5796 161.593 37.5796C160.491 37.5796 159.729 38.4546 159.729 39.7955C159.729 41.1591 160.525 41.9318 161.582 41.9318C162.434 41.9318 162.707 41.4318 162.854 41.1932H162.911V42.0796C162.911 42.8068 162.4 43.1364 161.695 43.1364C160.903 43.1364 160.624 42.7188 160.445 42.4773L159.911 42.8523C160.184 43.3097 160.721 43.7273 161.695 43.7273ZM161.673 41.3296C160.832 41.3296 160.4 40.6932 160.4 39.7841C160.4 38.8977 160.82 38.1818 161.673 38.1818C162.491 38.1818 162.923 38.8409 162.923 39.7841C162.923 40.75 162.479 41.3296 161.673 41.3296Z" fill="#616161"/>
<path d="M166.638 42.0909C167.525 42.0909 168.173 41.6477 168.377 40.9886L167.729 40.8068C167.559 41.2614 167.164 41.4886 166.638 41.4886C165.852 41.4886 165.309 40.9801 165.278 40.0455H168.445V39.7614C168.445 38.1364 167.479 37.5796 166.57 37.5796C165.388 37.5796 164.604 38.5114 164.604 39.8523C164.604 41.1932 165.377 42.0909 166.638 42.0909ZM165.278 39.4659C165.323 38.7869 165.803 38.1818 166.57 38.1818C167.298 38.1818 167.763 38.7273 167.763 39.4659H165.278Z" fill="#616161"/>
<path d="M170.136 39.375C170.136 38.6136 170.607 38.1818 171.249 38.1818C171.871 38.1818 172.249 38.5881 172.249 39.2727V42H172.92V39.2273C172.92 38.1136 172.326 37.5796 171.442 37.5796C170.783 37.5796 170.374 37.875 170.17 38.3182H170.113V37.6364H169.465V42H170.136V39.375Z" fill="#616161"/>
<path d="M175.974 42.0909C176.861 42.0909 177.509 41.6477 177.713 40.9886L177.065 40.8068C176.895 41.2614 176.5 41.4886 175.974 41.4886C175.188 41.4886 174.645 40.9801 174.614 40.0455H177.781V39.7614C177.781 38.1364 176.815 37.5796 175.906 37.5796C174.724 37.5796 173.94 38.5114 173.94 39.8523C173.94 41.1932 174.713 42.0909 175.974 42.0909ZM174.614 39.4659C174.659 38.7869 175.139 38.1818 175.906 38.1818C176.634 38.1818 177.099 38.7273 177.099 39.4659H174.614Z" fill="#616161"/>
<path d="M178.801 42H179.472V39.2386C179.472 38.6477 179.938 38.2159 180.574 38.2159C180.753 38.2159 180.938 38.25 180.983 38.2614V37.5796C180.906 37.5739 180.73 37.5682 180.631 37.5682C180.108 37.5682 179.653 37.8636 179.494 38.2955H179.449V37.6364H178.801V42Z" fill="#616161"/>
<path d="M183.062 42.1023C183.823 42.1023 184.221 41.6932 184.357 41.4091H184.391V42H185.062V39.125C185.062 37.7386 184.005 37.5796 183.448 37.5796C182.789 37.5796 182.039 37.8068 181.698 38.6023L182.335 38.8296C182.482 38.5114 182.832 38.1705 183.471 38.1705C184.087 38.1705 184.391 38.4972 184.391 39.0568V39.0796C184.391 39.4034 184.062 39.375 183.266 39.4773C182.457 39.5824 181.573 39.7614 181.573 40.7614C181.573 41.6136 182.232 42.1023 183.062 42.1023ZM183.164 41.5C182.63 41.5 182.244 41.2614 182.244 40.7955C182.244 40.2841 182.71 40.125 183.232 40.0568C183.516 40.0227 184.278 39.9432 184.391 39.8068V40.4205C184.391 40.9659 183.96 41.5 183.164 41.5Z" fill="#616161"/>
<path d="M186.956 36.1818H186.286V42H186.956V36.1818Z" fill="#616161"/>
<path d="M190.434 42H191.104V40.3665L191.573 39.9318L193.207 42H194.059L192.079 39.5L193.923 37.6364H193.093L191.184 39.5796H191.104V36.1818H190.434V42Z" fill="#616161"/>
<path d="M195.456 39.375C195.456 38.6136 195.928 38.1818 196.57 38.1818C197.192 38.1818 197.57 38.5881 197.57 39.2727V42H198.24V39.2273C198.24 38.1136 197.646 37.5796 196.763 37.5796C196.104 37.5796 195.695 37.875 195.49 38.3182H195.433V37.6364H194.786V42H195.456V39.375Z" fill="#616161"/>
<path d="M201.238 42.0909C202.42 42.0909 203.215 41.1932 203.215 39.8409C203.215 38.4773 202.42 37.5796 201.238 37.5796C200.056 37.5796 199.261 38.4773 199.261 39.8409C199.261 41.1932 200.056 42.0909 201.238 42.0909ZM201.238 41.4886C200.34 41.4886 199.931 40.7159 199.931 39.8409C199.931 38.9659 200.34 38.1818 201.238 38.1818C202.136 38.1818 202.545 38.9659 202.545 39.8409C202.545 40.7159 202.136 41.4886 201.238 41.4886Z" fill="#616161"/>
<path d="M205.079 42H205.738L206.692 38.6477H206.761L207.715 42H208.374L209.704 37.6364H208.999L208.056 40.9659H208.011L207.09 37.6364H206.374L205.442 40.9773H205.397L204.454 37.6364H203.749L205.079 42Z" fill="#616161"/>
<path d="M211.261 36.1818H210.59V42H211.261V36.1818Z" fill="#616161"/>
<path d="M214.318 42.0909C215.205 42.0909 215.852 41.6477 216.057 40.9886L215.409 40.8068C215.239 41.2614 214.844 41.4886 214.318 41.4886C213.531 41.4886 212.989 40.9801 212.957 40.0455H216.125V39.7614C216.125 38.1364 215.159 37.5796 214.25 37.5796C213.068 37.5796 212.284 38.5114 212.284 39.8523C212.284 41.1932 213.057 42.0909 214.318 42.0909ZM212.957 39.4659C213.003 38.7869 213.483 38.1818 214.25 38.1818C214.977 38.1818 215.443 38.7273 215.443 39.4659H212.957Z" fill="#616161"/>
<path d="M218.793 42.0909C219.634 42.0909 219.918 41.5682 220.065 41.3296H220.145V42H220.793V36.1818H220.122V38.3296H220.065C219.918 38.1023 219.656 37.5796 218.804 37.5796C217.702 37.5796 216.94 38.4546 216.94 39.8296C216.94 41.2159 217.702 42.0909 218.793 42.0909ZM218.884 41.4886C218.043 41.4886 217.611 40.75 217.611 39.8182C217.611 38.8977 218.031 38.1818 218.884 38.1818C219.702 38.1818 220.134 38.8409 220.134 39.8182C220.134 40.8068 219.69 41.4886 218.884 41.4886Z" fill="#616161"/>
<path d="M223.875 43.7273C224.92 43.7273 225.761 43.25 225.761 42.125V37.6364H225.114V38.3296H225.045C224.898 38.1023 224.625 37.5796 223.773 37.5796C222.67 37.5796 221.909 38.4546 221.909 39.7955C221.909 41.1591 222.705 41.9318 223.761 41.9318C224.614 41.9318 224.886 41.4318 225.034 41.1932H225.091V42.0796C225.091 42.8068 224.58 43.1364 223.875 43.1364C223.082 43.1364 222.804 42.7188 222.625 42.4773L222.091 42.8523C222.364 43.3097 222.901 43.7273 223.875 43.7273ZM223.852 41.3296C223.011 41.3296 222.58 40.6932 222.58 39.7841C222.58 38.8977 223 38.1818 223.852 38.1818C224.67 38.1818 225.102 38.8409 225.102 39.7841C225.102 40.75 224.659 41.3296 223.852 41.3296Z" fill="#616161"/>
<path d="M228.818 42.0909C229.705 42.0909 230.352 41.6477 230.557 40.9886L229.909 40.8068C229.739 41.2614 229.344 41.4886 228.818 41.4886C228.031 41.4886 227.489 40.9801 227.457 40.0455H230.625V39.7614C230.625 38.1364 229.659 37.5796 228.75 37.5796C227.568 37.5796 226.784 38.5114 226.784 39.8523C226.784 41.1932 227.557 42.0909 228.818 42.0909ZM227.457 39.4659C227.503 38.7869 227.983 38.1818 228.75 38.1818C229.477 38.1818 229.943 38.7273 229.943 39.4659H227.457Z" fill="#616161"/>
<path d="M77.0994 22.5C76.6946 20.2628 74.9048 18.9418 72.7102 18.9418C69.919 18.9418 67.8949 21.0937 67.8949 24.5455C67.8949 27.9972 69.919 30.1491 72.7102 30.1491C74.9048 30.1491 76.6946 28.8281 77.0994 26.5909H75.7784C75.4588 28.1037 74.1591 28.9134 72.7102 28.9134C70.7287 28.9134 69.1733 27.3793 69.1733 24.5455C69.1733 21.7116 70.7287 20.1776 72.7102 20.1776C74.1591 20.1776 75.4588 20.9872 75.7784 22.5H77.0994Z" fill="black"/>
<path d="M84.2199 26.6548C84.2199 28.1889 83.048 28.892 82.1105 28.892C81.0665 28.892 80.3208 28.125 80.3208 26.9318V21.8182H79.0637V27.017C79.0637 29.1051 80.1716 30.1065 81.7057 30.1065C82.9415 30.1065 83.7512 29.446 84.1347 28.6151H84.2199V30H85.477V21.8182H84.2199V26.6548Z" fill="black"/>
<path d="M87.7795 30H89.0366V24.8224C89.0366 23.7145 89.9102 22.9048 91.1033 22.9048C91.4389 22.9048 91.7852 22.9687 91.8704 22.9901V21.7116C91.7266 21.701 91.3963 21.6903 91.2099 21.6903C90.2298 21.6903 89.3775 22.2443 89.0792 23.054H88.994V21.8182H87.7795V30Z" fill="black"/>
<path d="M93.3605 30H94.6176V24.8224C94.6176 23.7145 95.4912 22.9048 96.6844 22.9048C97.02 22.9048 97.3662 22.9687 97.4514 22.9901V21.7116C97.3076 21.701 96.9774 21.6903 96.7909 21.6903C95.8108 21.6903 94.9585 22.2443 94.6602 23.054H94.575V21.8182H93.3605V30Z" fill="black"/>
<path d="M102.123 30.1705C103.785 30.1705 104.999 29.3395 105.383 28.1037L104.168 27.7628C103.849 28.6151 103.108 29.0412 102.123 29.0412C100.647 29.0412 99.6301 28.0877 99.5715 26.3352H105.511V25.8026C105.511 22.7557 103.7 21.7116 101.995 21.7116C99.7792 21.7116 98.309 23.4588 98.309 25.973C98.309 28.4872 99.7579 30.1705 102.123 30.1705ZM99.5715 25.2486C99.6567 23.9755 100.557 22.8409 101.995 22.8409C103.359 22.8409 104.232 23.8636 104.232 25.2486H99.5715Z" fill="black"/>
<path d="M108.68 25.0781C108.68 23.6506 109.564 22.8409 110.768 22.8409C111.935 22.8409 112.643 23.6026 112.643 24.8864V30H113.9V24.8011C113.9 22.7131 112.787 21.7116 111.13 21.7116C109.895 21.7116 109.128 22.2656 108.744 23.0966H108.638V21.8182H107.423V30H108.68V25.0781Z" fill="black"/>
<path d="M119.756 21.8182H118.009V19.858H116.751V21.8182H115.516V22.8835H116.751V27.9972C116.751 29.4247 117.902 30.1065 118.967 30.1065C119.436 30.1065 119.734 30.0213 119.905 29.9574L119.649 28.8281C119.543 28.8494 119.372 28.892 119.095 28.892C118.541 28.892 118.009 28.7216 118.009 27.6562V22.8835H119.756V21.8182Z" fill="black"/>
<path d="M126.483 30L127.581 26.9105H131.991L133.088 30H134.473L130.468 19.0909H129.104L125.098 30H126.483ZM127.996 25.7386L129.743 20.8168H129.828L131.576 25.7386H127.996Z" fill="black"/>
<path d="M139.646 21.8182H137.813V20.9872C137.813 20.1776 138.154 19.7514 138.985 19.7514C139.347 19.7514 139.56 19.8366 139.688 19.8793L140.05 18.7926C139.859 18.7074 139.475 18.5795 138.857 18.5795C137.685 18.5795 136.556 19.2827 136.556 20.6889V21.8182H135.235V22.8835H136.556V30H137.813V22.8835H139.646V21.8182Z" fill="black"/>
<path d="M145.051 21.8182H143.218V20.9872C143.218 20.1776 143.559 19.7514 144.39 19.7514C144.753 19.7514 144.966 19.8366 145.093 19.8793L145.456 18.7926C145.264 18.7074 144.88 18.5795 144.263 18.5795C143.091 18.5795 141.961 19.2827 141.961 20.6889V21.8182H140.64V22.8835H141.961V30H143.218V22.8835H145.051V21.8182Z" fill="black"/>
<path d="M148.986 30.1918C150.414 30.1918 151.159 29.4247 151.415 28.892H151.479V30H152.736V24.6094C152.736 22.0099 150.754 21.7116 149.71 21.7116C148.475 21.7116 147.068 22.1378 146.429 23.6293L147.622 24.0554C147.899 23.4588 148.555 22.8196 149.753 22.8196C150.909 22.8196 151.479 23.4322 151.479 24.4815V24.5241C151.479 25.1314 150.861 25.0781 149.369 25.2699C147.851 25.467 146.195 25.8026 146.195 27.6776C146.195 29.2756 147.431 30.1918 148.986 30.1918ZM149.178 29.0625C148.176 29.0625 147.452 28.6151 147.452 27.7415C147.452 26.7827 148.325 26.4844 149.306 26.3565C149.838 26.2926 151.266 26.1435 151.479 25.8878V27.0384C151.479 28.0611 150.669 29.0625 149.178 29.0625Z" fill="black"/>
<path d="M155.03 30H156.288V21.8182H155.03V30ZM155.67 20.4545C156.16 20.4545 156.565 20.071 156.565 19.6023C156.565 19.1335 156.16 18.75 155.67 18.75C155.18 18.75 154.775 19.1335 154.775 19.6023C154.775 20.071 155.18 20.4545 155.67 20.4545Z" fill="black"/>
<path d="M158.59 30H159.847V24.8224C159.847 23.7145 160.721 22.9048 161.914 22.9048C162.249 22.9048 162.596 22.9687 162.681 22.9901V21.7116C162.537 21.701 162.207 21.6903 162.02 21.6903C161.04 21.6903 160.188 22.2443 159.89 23.054H159.805V21.8182H158.59V30Z" fill="black"/>
<path d="M169.967 23.6506C169.572 22.4893 168.688 21.7116 167.069 21.7116C165.343 21.7116 164.065 22.6918 164.065 24.0767C164.065 25.206 164.736 25.9624 166.238 26.3139L167.601 26.6335C168.427 26.8253 168.816 27.2195 168.816 27.7841C168.816 28.4872 168.07 29.0625 166.898 29.0625C165.87 29.0625 165.226 28.6204 165.002 27.7415L163.809 28.0398C164.102 29.43 165.247 30.1705 166.92 30.1705C168.821 30.1705 170.116 29.1317 170.116 27.7202C170.116 26.5803 169.402 25.8611 167.942 25.5043L166.728 25.206C165.758 24.9663 165.322 24.6413 165.322 24.0128C165.322 23.3097 166.067 22.7983 167.069 22.7983C168.166 22.7983 168.619 23.4055 168.837 23.9702L169.967 23.6506Z" fill="black"/>
<rect x="0.5" y="0.5" width="317" height="59" rx="6.5" stroke="#3300FF"/>
<path d="M24.5454 32.9083H52.3635C53.2673 32.9083 53.9999 33.6409 53.9999 34.5447C53.9999 35.4485 53.2673 36.1811 52.3635 36.1811H44.1817V42.7265H52.3635C53.2673 42.7265 53.9999 43.4591 53.9999 44.3629C53.9999 45.2665 53.2673 45.999 52.3635 45.999H24.5454C20.9304 45.9993 18 43.0689 18 39.4539C18 35.8389 20.9304 32.9083 24.5454 32.9083Z" fill="#0784FF"/>
<path d="M18.9079 42.7269C20.0417 44.6752 22.1288 45.9998 24.5454 45.9998H37.6364V42.7269H18.9079Z" fill="#005EEE"/>
<path d="M49.0909 36.1815C47.2835 36.1815 45.8182 37.6467 45.8182 39.4543C45.8182 41.2617 47.2835 42.7269 49.0909 42.7269H36.0001C34.1925 42.7269 32.7273 41.2617 32.7273 39.4543C32.7273 37.6467 34.1925 36.1815 36.0001 36.1815H49.0909Z" fill="#DFE5FF"/>
<path d="M36.818 36.1815H44.9999C45.4519 36.1815 45.8181 36.5479 45.8181 36.9997C45.8181 37.4515 45.4519 37.8179 44.9999 37.8179H36.818C36.3663 37.8179 35.9998 37.4515 35.9998 36.9997C35.9998 36.5479 36.3663 36.1815 36.818 36.1815Z" fill="#A4B1FF"/>
<path d="M22.9088 34.5455H26.1816C27.0854 34.5455 27.818 35.2782 27.818 36.1819C27.818 37.0855 27.0854 37.8183 26.1816 37.8183H22.9088C22.0052 37.8183 21.2726 37.0855 21.2726 36.1819C21.2726 35.2782 22.0052 34.5455 22.9088 34.5455Z" fill="#5CBEFF"/>
<path d="M33.5455 39.4547H45C45.4521 39.4547 45.8182 39.8208 45.8182 40.2729C45.8182 40.7247 45.4521 41.0908 45 41.0908H33.5455C33.0937 41.0908 32.7273 40.7247 32.7273 40.2729C32.7273 39.8208 33.0937 39.4547 33.5455 39.4547Z" fill="#CCD4FF"/>
<path d="M52.3637 32.9083H36.0001C32.3851 32.9083 29.4547 35.8389 29.4547 39.4539C29.4547 43.0689 32.3851 45.9993 36.0001 45.9993H52.3637C53.2675 45.9993 54 45.2667 54 44.3629C54 43.4591 53.2675 42.7265 52.3637 42.7265H36.0001C34.1925 42.7271 32.7269 41.2626 32.726 39.455C32.7253 37.6476 34.1901 36.1818 35.9975 36.1811C35.9984 36.1811 35.9992 36.1811 36.0001 36.1811H52.3637C53.2672 36.1811 54 35.4485 54 34.5447C54 33.6409 53.2675 32.9083 52.3637 32.9083Z" fill="#079CFF"/>
<path d="M22.909 39.4543C22.909 37.6467 22.1765 36.1815 21.2729 36.1815C20.3691 36.1815 19.6365 37.6467 19.6365 39.4543C19.6365 41.2617 20.3691 42.7269 21.2729 42.7269C22.1765 42.7269 22.909 41.2617 22.909 39.4543Z" fill="#FFEA21"/>
<path d="M39.2727 16.6364C38.3523 16.6364 37.662 16.8664 37.1585 17.1541C36.4395 17.56 35.5605 17.56 34.8415 17.1541C34.338 16.8664 33.6477 16.6364 32.7273 16.6364C28.6364 16.6364 27 19.9091 27 22.3636C27 26.4545 30.2727 27.2727 30.2727 29.7272C30.2727 32.1818 31.9091 33 33.5455 33C34.0627 32.9975 34.5659 32.8312 34.9828 32.5249C35.5935 32.0975 36.4064 32.0975 37.0172 32.5249C37.4341 32.8312 37.9373 32.9975 38.4545 33C40.0909 33 41.7273 32.1818 41.7273 29.7272C41.7273 27.2727 45 26.4545 45 22.3636C45 19.9091 43.3636 16.6364 39.2727 16.6364Z" fill="#4CC66E"/>
<path d="M37.6364 18.2727C37.6364 17.8209 36.9037 17.4546 36 17.4546C35.0962 17.4546 34.3636 17.8209 34.3636 18.2727C34.3636 18.7246 35.0962 19.0909 36 19.0909C36.9037 19.0909 37.6364 18.7246 37.6364 18.2727Z" fill="#14A142"/>
<path d="M37.6364 18.2727C37.6364 17.8209 37.0869 17.4546 36.4091 17.4546C35.7313 17.4546 35.1818 17.8209 35.1818 18.2727C35.1818 18.7246 35.7313 19.0909 36.4091 19.0909C37.0869 19.0909 37.6364 18.7246 37.6364 18.2727Z" fill="#006236"/>
<path d="M36.8422 15C36.478 15 36.1605 15.2478 36.0722 15.6013L35.2059 17.2865C35.0996 17.7117 35.3581 18.1428 35.7835 18.249C35.8464 18.2647 35.911 18.2727 35.976 18.2727C36.3402 18.2727 36.6577 18.0249 36.746 17.6715L37.6123 15.9862C37.7186 15.561 37.46 15.13 37.0347 15.0237C36.9718 15.008 36.9071 15 36.8422 15Z" fill="#163969"/>
<path d="M36.4385 15.1218C36.2573 15.2263 36.1254 15.3989 36.0722 15.6013L35.2059 17.2865C35.1228 17.6213 35.2668 17.9714 35.5615 18.1508C35.7428 18.0464 35.8747 17.8737 35.9278 17.6715L36.7941 15.9863C36.8772 15.6514 36.7331 15.3013 36.4385 15.1218Z" fill="#435E88"/>
<path d="M33.2216 18.5965C32.5491 17.9241 31.0501 18.333 29.8733 19.5097C28.6965 20.6865 28.2877 22.1856 28.9601 22.8581C29.6326 23.5305 31.1316 23.1216 32.3084 21.9449C33.4852 20.768 33.894 19.269 33.2216 18.5965Z" fill="#84D89C"/>
<path d="M41.7273 29.7273C41.7273 27.2988 44.9256 26.4669 44.9938 22.4878C44.9494 23.1512 44.5085 26.4545 40.0909 26.4545C36 26.4545 36 29.7273 36 29.7273C36 31.1456 36.6171 32.5599 37.8464 32.9128C37.8694 32.9189 37.8919 32.9255 37.9153 32.9311C38.0915 32.9762 38.2726 32.9993 38.4546 33C40.0909 33 41.7273 32.1818 41.7273 29.7273Z" fill="#14A142"/>
<path d="M29.4881 25.0643C29.7145 25.8358 30.2602 27.0332 31.385 27.9261C31.6315 28.1217 31.9766 28.1396 32.2579 27.9989C32.7618 27.747 32.8903 27.0728 32.4942 26.6722C32.0608 26.2338 31.5162 25.4392 31.1273 24.5012C30.9987 24.1912 30.6832 24 30.3477 24H30.2999C29.7435 24 29.3314 24.5304 29.4881 25.0643Z" fill="#84D89C"/>
<path d="M31.7027 18.4789C31.3268 18.103 30.565 18.2555 30.0011 18.8194C29.4371 19.3832 29.2848 20.145 29.6607 20.5211C30.0366 20.897 30.7985 20.7446 31.3624 20.1807C31.9263 19.6168 32.0788 18.855 31.7027 18.4789Z" fill="#B7E8C4"/>
</svg>
