<svg width="30" height="30" viewBox="0 0 30 30" fill="none" xmlns="http://www.w3.org/2000/svg">
<path d="M14.5735 27.8222C7.26803 27.8222 1.3249 21.879 1.3249 14.5735C1.3249 7.26803 7.26803 1.3249 14.5735 1.3249C21.879 1.3249 27.8222 7.26803 27.8222 14.5735C27.8222 21.879 21.879 27.8222 14.5735 27.8222ZM14.5735 3.9747C8.72941 3.9747 3.97452 8.72941 3.97452 14.5735C3.97452 20.4177 8.72941 25.1726 14.5735 25.1726C20.4177 25.1726 25.1724 20.4177 25.1724 14.5735C25.1724 8.72941 20.4177 3.97452 14.5735 3.9747Z" fill="#DAE0FF"/>
<path d="M14.5735 27.8222C10.7969 27.8222 7.94922 22.1269 7.94922 14.5735C7.94922 7.02016 10.7969 1.3249 14.5735 1.3249C18.3502 1.3249 21.1979 7.02034 21.1979 14.5735C21.1979 22.1267 18.3502 27.8222 14.5735 27.8222ZM14.5735 3.9747C12.953 3.9747 10.599 8.10391 10.599 14.5735C10.599 21.0433 12.953 25.1726 14.5735 25.1726C16.194 25.1726 18.5481 21.0433 18.5481 14.5735C18.5481 8.10391 16.194 3.97452 14.5735 3.9747Z" fill="#DAE0FF"/>
<path d="M13.2486 4.63696C13.2486 5.73468 12.359 6.62431 11.2613 6.62431C10.1637 6.62431 9.27411 5.73468 9.27411 4.63696C9.27411 3.53942 10.1637 2.64979 11.2613 2.64979C12.359 2.64979 13.2486 3.53942 13.2486 4.63696Z" fill="#B8C2FF"/>
<path d="M10.599 13.2486C10.599 13.9804 10.0059 14.5735 9.27412 14.5735C8.54236 14.5735 7.94922 13.9804 7.94922 13.2486C7.94922 12.5171 8.54236 11.9239 9.27412 11.9239C10.0059 11.9239 10.599 12.5171 10.599 13.2486Z" fill="#B8C2FF"/>
<path d="M21.1979 15.8984C21.1979 16.6302 20.6047 17.2233 19.873 17.2233C19.1414 17.2233 18.5481 16.6302 18.5481 15.8984C18.5481 15.1667 19.1414 14.5735 19.873 14.5735C20.6047 14.5735 21.1979 15.1667 21.1979 15.8984Z" fill="#B8C2FF"/>
<path d="M18.5481 25.1724C18.5481 25.9041 17.9549 26.4973 17.2233 26.4973C16.4916 26.4973 15.8984 25.9041 15.8984 25.1724C15.8984 24.4408 16.4916 23.8476 17.2233 23.8476C17.9549 23.8476 18.5481 24.4408 18.5481 25.1724Z" fill="#B8C2FF"/>
<path d="M14.5735 21.1979C7.02016 21.1979 1.3249 18.3502 1.3249 14.5735C1.3249 10.7969 7.02016 7.94922 14.5735 7.94922C22.1269 7.94922 27.8222 10.7969 27.8222 14.5735C27.8222 18.3502 22.1269 21.1979 14.5735 21.1979ZM14.5735 10.599C8.10373 10.599 3.97452 12.953 3.97452 14.5735C3.97452 16.194 8.10373 18.5481 14.5735 18.5481C21.0432 18.5481 25.1724 16.194 25.1724 14.5735C25.1724 12.953 21.0433 10.599 14.5735 10.599Z" fill="#DAE0FF"/>
<path d="M26.4973 17.8858C26.4973 18.9833 25.6076 19.873 24.5101 19.873C23.4124 19.873 22.5228 18.9833 22.5228 17.8858C22.5228 16.7882 23.4124 15.8984 24.5101 15.8984C25.6076 15.8984 26.4973 16.7882 26.4973 17.8858Z" fill="#B8C2FF"/>
<path d="M12.42 9.7702C12.9564 8.80791 13.2414 7.72593 13.2486 6.62432C13.2486 2.96573 10.2829 0 6.62432 0C2.96591 0 0 2.96573 0 6.62432C0 10.2829 2.96573 13.2486 6.62432 13.2486C7.72593 13.2414 8.80809 12.9564 9.7702 12.42L10.0502 12.6999C10.7818 13.4316 11.9681 13.4316 12.6997 12.7C12.6997 12.6999 12.6997 12.6999 12.6999 12.6999C13.4316 11.9681 13.4316 10.7818 12.6999 10.0501L12.42 9.7702Z" fill="#079CFF"/>
<path d="M6.62432 1.3249C3.6989 1.32826 1.32826 3.6989 1.3249 6.62432V6.65614L1.32507 6.66321V6.6793L1.32525 6.6862V6.68726L1.32543 6.69415V6.70299L1.3256 6.71024V6.7182L1.32578 6.72527V6.72615L1.32596 6.73287V6.73428L1.32613 6.74083V6.74206L1.32631 6.74878V6.74984L1.32649 6.75691V6.75709L1.32666 6.76434V6.76487L1.32684 6.77194V6.77283L1.32702 6.77954L1.3272 6.78096L1.32737 6.7875V6.78874L1.32755 6.79546L1.32773 6.79634L1.3279 6.80323V6.80394L1.32808 6.81048L1.32826 6.81172L1.32843 6.81826V6.81968L1.32861 6.82622L1.32879 6.82746L1.32896 6.83417V6.83523L1.32932 6.84213V6.84301L1.32967 6.84973V6.85026L1.33002 6.85716V6.85822L1.33038 6.86494V6.86617L1.33073 6.87271V6.87413L1.33108 6.88067V6.88173L1.33144 6.88863V6.88916C1.33179 6.89393 1.33197 6.8987 1.33215 6.90348L1.33232 6.90454L1.33268 6.91126V6.91232L1.33303 6.91903V6.92027L1.33338 6.92699L1.33356 6.92788L1.33391 6.93495V6.93548L1.33427 6.94237L1.33444 6.9429L1.3348 6.94997V6.95086L1.33533 6.95758V6.95864L1.33568 6.96553L1.33586 6.96642L1.33621 6.97331V6.97402L1.33674 6.98127V6.98144L1.33727 6.98834V6.98922L1.33763 6.99576L1.3378 6.99718L1.33816 7.00372L1.33833 7.00496L1.33886 7.0115V7.01274L1.33939 7.01945V7.02016L1.33992 7.02723V7.02741L1.34045 7.03466V7.03537L1.34099 7.04208L1.34116 7.04332L1.34169 7.04986V7.0511L1.34222 7.05764L1.3424 7.05888L1.34293 7.0656V7.06613L1.34346 7.07302L1.34364 7.07355L1.34417 7.08027V7.08133L1.34487 7.08787V7.08929L1.34558 7.09583V7.09689L1.34611 7.10361L1.34629 7.10485L1.34682 7.11139L1.347 7.11227L1.34753 7.11846L1.3477 7.11952L1.34823 7.12624L1.34841 7.1273L1.34894 7.13384L1.34912 7.13525L1.34982 7.14162V7.14286L1.35053 7.1494L1.35071 7.15046L1.35124 7.15735L1.35195 7.16478L1.35212 7.16513L1.35283 7.1722V7.17291L1.35354 7.17963L1.35371 7.18069L1.35442 7.18741L1.3546 7.18847L1.35531 7.19519V7.19607L1.35601 7.20297L1.35619 7.20332L1.3569 7.21004V7.21092L1.3576 7.21764L1.35778 7.2187L1.35849 7.22524L1.35866 7.22648L1.35937 7.2332L1.35955 7.23408L1.36026 7.2408L1.36043 7.24186L1.36114 7.2484L1.36132 7.24876L1.36202 7.25548L1.3622 7.25654L1.36291 7.26308L1.36308 7.26432L1.36397 7.27068L1.36415 7.27209L1.36485 7.27846L1.36503 7.27952L1.36591 7.28624V7.28694L1.3668 7.29366V7.29419L1.36768 7.30091L1.36786 7.30197L1.36874 7.30851V7.30975L1.36963 7.31612L1.3698 7.31735L1.37069 7.32389L1.37086 7.32496L1.37175 7.33167V7.3322L1.37263 7.33875L1.37281 7.33945L1.37369 7.34617L1.37387 7.34741L1.37475 7.35377L1.37493 7.35501L1.37581 7.36138L1.37599 7.36261L1.37705 7.36915V7.36986L1.37811 7.37693V7.37711L1.379 7.38383L1.37917 7.38471L1.38006 7.39125L1.38023 7.39249L1.38129 7.39903L1.38147 7.40009L1.38236 7.40646L1.38253 7.4077L1.38359 7.41424V7.41512L1.38465 7.42184V7.42219L1.38571 7.42926V7.42979L1.38677 7.43651L1.38695 7.43757L1.38801 7.44412L1.38925 7.45154L1.38943 7.45296L1.39049 7.45932V7.4602L1.39155 7.46674L1.39173 7.46728L1.39279 7.47382L1.39296 7.47505L1.39385 7.48142L1.3942 7.48283L1.39526 7.48902L1.39544 7.49026L1.3965 7.4968L1.39668 7.49768L1.39774 7.5044L1.39791 7.50511L1.39897 7.5113L1.39915 7.51218L1.40021 7.51872L1.40039 7.51996L1.40145 7.52632L1.40163 7.52756L1.40269 7.53393L1.40304 7.53516L1.40428 7.54259L1.40552 7.54913V7.54966L1.40675 7.5562L1.40693 7.55709L1.40799 7.56381L1.40817 7.56451L1.4094 7.57105L1.40958 7.57229L1.41064 7.57866L1.411 7.57989L1.41223 7.58732L1.41347 7.59386L1.41365 7.59421L1.41471 7.60058L1.41506 7.60182L1.41612 7.60818L1.41648 7.60942L1.41754 7.61561L1.41789 7.61702L1.41913 7.62321L1.41931 7.62445L1.42054 7.63081L1.42072 7.63187L1.42196 7.63788V7.63877L1.42319 7.64495L1.42355 7.64637L1.42479 7.65256L1.42496 7.65397L1.4262 7.65998L1.42655 7.66157L1.42779 7.66758L1.42797 7.66882L1.42938 7.67536V7.67589L1.4308 7.68261V7.68296L1.43221 7.68968L1.43239 7.69057L1.43363 7.69693L1.43398 7.69817L1.43522 7.70453L1.43557 7.70577L1.43681 7.71196L1.43716 7.7132L1.4384 7.71956L1.43858 7.72045L1.43981 7.72646L1.43999 7.72734L1.4414 7.73371L1.44158 7.73494L1.443 7.74131L1.44335 7.74237L1.44459 7.74873L1.44494 7.74979L1.44635 7.75633L1.44653 7.75704L1.44795 7.76376V7.76411L1.44936 7.77066L1.44971 7.77154L1.45095 7.77773L1.45131 7.77914L1.45272 7.78533L1.4529 7.78657L1.45431 7.79275L1.45466 7.79399L1.45608 7.80036L1.45785 7.80743V7.80796L1.45944 7.81468L1.45961 7.81538L1.46103 7.82175L1.46138 7.82299L1.4628 7.82917L1.46315 7.83059L1.46456 7.8366L1.46492 7.83801L1.46633 7.8442L1.46651 7.84509L1.46792 7.85127L1.4681 7.8518L1.46969 7.85835L1.46987 7.85923L1.47146 7.86542L1.47181 7.86683L1.47323 7.87284L1.47358 7.87426L1.475 7.88044L1.47535 7.88151L1.47712 7.88858L1.47853 7.89459L1.47888 7.89565L1.4803 7.90201L1.48065 7.90307L1.48224 7.90909L1.48242 7.9105L1.48401 7.91669L1.48437 7.91775L1.48578 7.92411L1.48613 7.92517L1.48772 7.93172H1.4879L1.48949 7.93843L1.48967 7.93914L1.49144 7.94568L1.49161 7.94657L1.49321 7.95275L1.49356 7.95417L1.49515 7.96018L1.4955 7.96142L1.49709 7.9676L1.49727 7.96867L1.49904 7.97485V7.97538L1.50116 7.98281L1.50275 7.98882L1.50311 7.99023L1.5047 7.99624L1.50505 7.99766L1.50664 8.00349L1.507 8.00491L1.50876 8.0111L1.50894 8.01198L1.51053 8.01781L1.51088 8.01887L1.51248 8.02489L1.51283 8.02612L1.51442 8.03213L1.51495 8.03355L1.51637 8.03938L1.5169 8.04097L1.51849 8.04663L1.51884 8.04822L1.52061 8.05423L1.52096 8.05529L1.52238 8.06095L1.52273 8.06201L1.5245 8.06785L1.52485 8.06944L1.52644 8.07527L1.52697 8.07686L1.52856 8.08252L1.52909 8.08411L1.53069 8.08995L1.53281 8.09737L1.53298 8.09808L1.53475 8.10427L1.53493 8.10497L1.53705 8.1124L1.53882 8.11823L1.53935 8.11965L1.54094 8.12548L1.54147 8.12707L1.54324 8.13291L1.54359 8.13397L1.54536 8.14016L1.54554 8.14086L1.54748 8.14687L1.54766 8.14776L1.5496 8.15395L1.54996 8.15518L1.55172 8.16119L1.55208 8.16243L1.55402 8.16862L1.5542 8.1695L1.55614 8.17587L1.55632 8.17658L1.55827 8.18276L1.55844 8.18329L1.56056 8.18984L1.56074 8.19054L1.56269 8.19691L1.56304 8.19779L1.56498 8.20416L1.56534 8.20504L1.56728 8.21123L1.56746 8.21229L1.56976 8.21918L1.5717 8.22555L1.57188 8.2259L1.57382 8.23227L1.57418 8.23333L1.57612 8.23934L1.57665 8.24058L1.5786 8.24659L1.57877 8.24765L1.5809 8.25383L1.58107 8.25454C1.58249 8.25896 1.58408 8.26356 1.58549 8.2678L1.58567 8.26833L1.58761 8.2747L1.58814 8.27523L1.59009 8.28124L1.59044 8.28265L1.59239 8.28849L1.59292 8.28972L1.59486 8.29556L1.59522 8.2968L1.59716 8.30263L1.59751 8.30351L1.59981 8.31041L1.60176 8.31642L1.60229 8.31766L1.60423 8.32349L1.60476 8.32473L1.60671 8.33074L1.60706 8.3318L1.60918 8.33799L1.60954 8.33887L1.61166 8.34506V8.34524L1.61378 8.3516L1.61431 8.35249L1.61625 8.3585L1.61678 8.35974L1.61873 8.36557L1.61926 8.36681L1.62138 8.37282L1.62174 8.37388L1.62386 8.38007L1.62403 8.38077L1.62633 8.38714V8.38731L1.62863 8.3935L1.62898 8.39456L1.63111 8.40057L1.63164 8.40181L1.63358 8.40747L1.63411 8.40906L1.63623 8.4149L1.63659 8.41578L1.63871 8.42197L1.63906 8.42267L1.64136 8.42868L1.64154 8.42922L1.64366 8.4354L1.64401 8.43646L1.64631 8.44247L1.64666 8.44336L1.64896 8.44955L1.64932 8.45043L1.65144 8.45662L1.65179 8.4575L1.65409 8.46351L1.65427 8.4644L1.65656 8.47023L1.65674 8.47094L1.65904 8.47713L1.65939 8.47819L1.66169 8.48402L1.66204 8.48526L1.66434 8.49109L1.6647 8.49215L1.66699 8.49817L1.66735 8.49905L1.66965 8.50506L1.66982 8.50559L1.67212 8.51142L1.67248 8.51266L1.6746 8.51832L1.6753 8.51991L1.67743 8.52539L1.68008 8.53246L1.68061 8.5337L1.68291 8.53954L1.68326 8.54024L1.68556 8.54625L1.68573 8.54696L1.68821 8.55297L1.68839 8.55386L1.69122 8.56093L1.69351 8.56694L1.69387 8.56782L1.69634 8.57383L1.6967 8.57489L1.69917 8.5809L1.69935 8.58161L1.70165 8.58762L1.702 8.58815L1.70447 8.59434L1.70483 8.59505L1.70713 8.60088L1.70766 8.6023L1.70996 8.60795L1.71031 8.60902L1.71278 8.61503L1.71561 8.6221L1.71579 8.62263L1.71826 8.62846L1.71862 8.62935L1.72109 8.63518L1.72145 8.63624L1.72392 8.64208L1.72428 8.64314L1.72675 8.64915L1.7271 8.64986L1.72976 8.65604L1.72993 8.65657C1.7317 8.66099 1.73347 8.66541 1.73541 8.66966V8.67001L1.73807 8.6762L1.73842 8.67708L1.74089 8.68309L1.74125 8.6838L1.7439 8.68999L1.74425 8.69052L1.74691 8.69688L1.74708 8.69724C1.74885 8.70166 1.7508 8.7059 1.75256 8.71014L1.75292 8.71085L1.75539 8.71686L1.75592 8.71774L1.7584 8.72358L1.75893 8.72464L1.7614 8.73065L1.76176 8.73136L1.76441 8.73737L1.76476 8.73825C1.76653 8.74232 1.7683 8.74639 1.77024 8.75063L1.7706 8.75134L1.77325 8.75735L1.7736 8.75823L1.77625 8.76406L1.77661 8.76513L1.77926 8.77114L1.77961 8.77167L1.78226 8.77803L1.78244 8.77821L1.78527 8.78457L1.78545 8.78493L1.7881 8.79076L1.78863 8.79182L1.79128 8.79783L1.79163 8.79854L1.79429 8.80455L1.79464 8.80543L1.79747 8.81145L1.79765 8.81198L1.80047 8.81834H1.80065L1.80348 8.82471L1.80366 8.82506L1.80631 8.83107L1.80684 8.83195L1.80949 8.83779L1.81002 8.83885L1.8125 8.84451L1.8132 8.84574L1.81586 8.8514L1.81621 8.85228L1.81904 8.8583L1.82204 8.86466L1.82222 8.86501L1.82505 8.87103L1.8254 8.87209L1.82823 8.87774L1.82858 8.87863L1.83141 8.88446L1.83177 8.88535L1.8346 8.89136L1.83477 8.89171L1.8376 8.8979L1.83795 8.89825L1.84078 8.90444L1.84114 8.90497L1.84397 8.9108L1.84432 8.91186L1.84715 8.9177L1.8475 8.91823L1.85051 8.92442L1.85068 8.92512L1.85387 8.93149L1.85687 8.93768L1.85705 8.93785L1.85988 8.94386L1.86023 8.94475L1.86306 8.95041L1.86377 8.95164L1.86642 8.95712L1.86695 8.95836L1.86978 8.96384L1.87013 8.9649L1.87314 8.97074L1.87331 8.97109L1.87632 8.97693L1.8765 8.97746L1.87986 8.98417L1.88268 8.99001L1.88321 8.99089L1.88604 8.99673L1.88657 8.99761L1.8894 9.00327L1.88993 9.00415C1.89205 9.00822 1.894 9.01211 1.89594 9.01617L1.8993 9.02289L1.89966 9.02342L1.90266 9.02926L1.90319 9.03014L1.90637 9.0365L1.90956 9.04269L1.90973 9.04305C1.91186 9.04711 1.91398 9.05118 1.9161 9.05525L1.91645 9.05613L1.91946 9.06179L1.91981 9.06249L1.92299 9.06833L1.92335 9.06921L1.92635 9.07487L1.92671 9.07575L1.92989 9.08159L1.93007 9.08194L1.93325 9.08795L1.93342 9.08831L1.93661 9.09432L1.93678 9.09502L1.93997 9.10068L1.94032 9.10157L1.94332 9.10722L1.94385 9.10811L1.94686 9.11394L1.94721 9.11465L1.95393 9.12702L1.95729 9.13303L1.95747 9.13374L1.96065 9.13958L1.961 9.14011L1.96419 9.14612L1.96454 9.14665L1.96772 9.15266L1.96808 9.15301L1.97126 9.1592H1.97143L1.97479 9.16539L1.97497 9.16574L1.97815 9.17158L1.97851 9.17246L1.98169 9.17812L1.98204 9.17882L1.98522 9.18448L1.98576 9.18537L1.98894 9.1912L1.98911 9.19155C1.99141 9.19562 1.99371 9.19986 1.99601 9.20393L1.99619 9.20411L1.99937 9.20994L1.9999 9.21082L2.00308 9.21648L2.00343 9.21719L2.00679 9.22285L2.00715 9.22355L2.01051 9.22939V9.22956L2.01404 9.23575L2.01422 9.23593L2.01758 9.24194L2.01776 9.24229L2.02111 9.24813L2.02147 9.24884L2.02483 9.25449L2.02518 9.2552L2.02854 9.26103L2.02889 9.26156C2.03225 9.26775 2.03597 9.27376 2.03932 9.27977L2.03968 9.2803L2.04304 9.28596L2.04339 9.28685L2.04675 9.2925L2.0471 9.29321L2.05046 9.29887L2.05082 9.2994C2.05311 9.30346 2.05541 9.30735 2.05771 9.31142L2.05806 9.31195L2.06142 9.31761L2.06178 9.31832L2.06514 9.32397L2.06567 9.32468L2.06903 9.33034L2.06956 9.33105L2.07274 9.3367L2.07327 9.33723C2.07557 9.34112 2.07787 9.34501 2.08016 9.3489L2.08052 9.34961L2.08388 9.35509L2.08759 9.36128L2.0883 9.36234L2.09166 9.36782L2.09201 9.36853L2.09554 9.37418L2.09572 9.37454L2.09943 9.38055L2.10297 9.38638L2.10332 9.38709L2.10668 9.39275L2.10704 9.39328L2.11057 9.39893L2.1111 9.39964L2.11446 9.40512L2.11482 9.40583L2.11835 9.41149L2.11853 9.41184L2.12224 9.41785L2.12595 9.42369L2.12613 9.42404L2.12984 9.42987L2.1302 9.4304L2.13373 9.43606L2.13409 9.43677L2.1378 9.44243L2.13798 9.44278C2.14169 9.44861 2.14558 9.45462 2.14929 9.46064L2.14982 9.46134L2.15336 9.467L2.15371 9.46735L2.15725 9.47319L2.1576 9.47372C2.16255 9.48167 2.16785 9.48981 2.17298 9.49759L2.17333 9.49812L2.17705 9.50377L2.17722 9.5043L2.18094 9.50978L2.18129 9.51067L2.185 9.51615L2.18518 9.5165C2.18783 9.52057 2.19031 9.52428 2.19296 9.52835L2.19314 9.52852L2.19685 9.53436L2.1972 9.53471L2.20091 9.54037L2.20127 9.5409L2.20498 9.54656L2.20533 9.54691L2.20922 9.55275L2.217 9.56459L2.21736 9.56512L2.22107 9.57078L2.22142 9.57113L2.22514 9.57679L2.22549 9.57714L2.22938 9.58298C2.23344 9.58916 2.23751 9.595 2.24158 9.60101L2.24175 9.60119L2.24564 9.60684L2.246 9.60738L2.24989 9.61303V9.61321C2.25678 9.62329 2.2635 9.63301 2.27057 9.64291L2.27075 9.64326L2.27464 9.64892L2.27481 9.64928L2.27888 9.65493L2.27906 9.65529L2.28737 9.66695V9.66713L2.29143 9.67279L2.29161 9.67314L2.2955 9.6788L2.29585 9.67915C2.30133 9.68693 2.30681 9.69454 2.31247 9.70249L2.31265 9.70267L2.31672 9.70832L2.31689 9.70868L2.32096 9.71434L2.32113 9.71451C2.32679 9.72247 2.33227 9.73007 2.33793 9.73785L2.33811 9.7382L2.34217 9.74386L2.34235 9.74404L2.34642 9.74952L2.34695 9.75023L2.35084 9.75553L2.35101 9.75571C2.35526 9.76172 2.3595 9.7672 2.36374 9.77303L2.36392 9.77339L2.36816 9.77887L2.36834 9.77922L2.37258 9.7847L2.37276 9.78505C2.37842 9.79283 2.38407 9.80026 2.38991 9.80804L2.39008 9.80821L2.39433 9.81387L2.3945 9.81405L2.39875 9.81971L2.39892 9.81988C2.40476 9.82766 2.41042 9.83509 2.41643 9.84287V9.84304L2.42085 9.8487L2.42527 9.85453C2.43128 9.86214 2.43711 9.86956 2.44295 9.87734L2.44312 9.87752L2.44754 9.88317L2.45214 9.88883V9.88901C2.45656 9.89467 2.46098 9.90032 2.46558 9.90598L2.47 9.91146L2.47017 9.91182L2.47459 9.9173C2.47919 9.92313 2.48361 9.92861 2.48821 9.93427V9.93445L2.49263 9.93993L2.4928 9.9401L2.49722 9.94558L2.4974 9.94594L2.50182 9.95142H2.502C2.50801 9.95902 2.51402 9.96644 2.52021 9.97405L2.5248 9.97953L2.52498 9.9797C2.53417 9.99102 2.54337 10.0022 2.55256 10.0133H2.55274C2.55892 10.0207 2.56511 10.028 2.5713 10.0354V10.0356L2.5759 10.0411H2.57607L2.58067 10.0465L2.58085 10.0467C2.58703 10.0541 2.59322 10.0612 2.59959 10.0686V10.0688L2.60418 10.0743H2.60436C2.61214 10.0835 2.62009 10.0925 2.62805 10.1017V10.1019L2.63265 10.1072L2.63282 10.1074L2.63742 10.1127L2.63777 10.1128C2.64396 10.1201 2.6505 10.1273 2.65687 10.1344V10.1346C3.4901 11.0781 4.63219 11.6939 5.87824 11.8718C6.60275 11.9743 7.27315 11.4701 7.37569 10.7456C7.47806 10.0211 6.97384 9.35067 6.24934 9.24813C4.80068 9.0411 3.79401 7.6987 4.00104 6.25004C4.18756 4.94459 5.30543 3.97505 6.62414 3.97487C6.7799 3.97487 6.93548 3.98831 7.08876 4.01536C7.80937 4.14265 8.49675 3.66177 8.62404 2.94115C8.75116 2.22107 8.27098 1.53422 7.55107 1.40622C7.50635 1.39844 7.46144 1.39102 7.41653 1.3843H7.41636C7.41176 1.38359 7.40716 1.38289 7.40239 1.38218H7.40204L7.3955 1.38112H7.39461L7.38842 1.38006L7.38719 1.37988L7.38153 1.37917L7.38029 1.379L7.37463 1.37811L7.37304 1.37794L7.36739 1.37723L7.36544 1.37688L7.35996 1.37617L7.35802 1.37581L7.35377 1.37528L7.35077 1.37493L7.34652 1.37422L7.34387 1.37387L7.3391 1.37334L7.33609 1.37281L7.33291 1.37246L7.32849 1.37175L7.32584 1.37139L7.32071 1.37069L7.31841 1.37051L7.31488 1.36998L7.31258 1.36963L7.3071 1.36892L7.30498 1.36874L7.2995 1.36804L7.29737 1.36768L7.29013 1.3668H7.28977L7.28571 1.36627L7.27775 1.36538L7.27687 1.36521L7.26944 1.36432H7.26891C7.26202 1.36344 7.25547 1.36256 7.24858 1.36185H7.24823C7.15965 1.35124 7.07072 1.34311 6.98091 1.3371H6.98074C6.97366 1.33674 6.96677 1.33621 6.95987 1.33568H6.95952L6.95174 1.33533H6.95086L6.94308 1.3348H6.9429C6.93884 1.33462 6.93477 1.33427 6.9307 1.33409L6.92946 1.33391L6.92239 1.33356H6.92133L6.91391 1.33321L6.9132 1.33303L6.90913 1.33285H6.90825L6.90135 1.3325L6.89941 1.33232L6.89375 1.33215L6.89145 1.33197L6.88756 1.33179L6.8835 1.33162L6.88014 1.33144L6.87749 1.33126L6.87236 1.33109L6.86971 1.33091L6.86476 1.33073L6.86193 1.33056L6.85839 1.33038L6.85397 1.3302L6.85061 1.33002H6.84796L6.84301 1.32985L6.84001 1.32967L6.83647 1.32949L6.83223 1.32932H6.82922L6.82427 1.32914L6.82144 1.32896L6.81808 1.32879H6.81384L6.81031 1.32861L6.80748 1.32843L6.8027 1.32826H6.7997L6.79457 1.32808L6.79227 1.3279H6.78803L6.78502 1.32773L6.78043 1.32755H6.77813L6.77282 1.32737H6.77035L6.76505 1.3272H6.7631L6.75833 1.32702H6.75656L6.7509 1.32684H6.74878L6.74312 1.32667H6.741L6.73587 1.32649H6.73393L6.72863 1.32631H6.72704L6.72102 1.32614H6.71201L6.70582 1.32596H6.69751L6.69115 1.32578H6.67559L6.6694 1.3256H6.63086L6.62432 1.3249Z" fill="#5CBEFF"/>
<path d="M6.62431 0H6.56332L6.56049 0.000176783H6.54246L6.53927 0.000353612H6.53167L6.52867 0.000530395H6.52106L6.51806 0.000707179H6.51063L6.50745 0.000883962H6.50003L6.49684 0.00106075H6.48924L6.48624 0.00123757H6.47881L6.47563 0.00141436H6.47351L6.47032 0.00159114H6.46838L6.46502 0.00176797H6.45972L6.45759 0.00194475H6.45211L6.44911 0.00229832H6.44699L6.4438 0.0024751H6.4385L6.43638 0.00265193H6.4309L6.42789 0.00282871H6.42577L6.42259 0.0030055H6.42047L6.41729 0.00318233H6.41198L6.41004 0.00335911H6.40491L6.4012 0.00353589L6.39961 0.00371268H6.39572L6.39448 0.00388946H6.39059L6.38882 0.00406629L6.38529 0.00424307H6.38387L6.38016 0.00441986L6.37839 0.00459668H6.37468L6.37309 0.00477347H6.36937L6.36778 0.00495025L6.36425 0.00512703H6.36248L6.35912 0.00530382H6.35718L6.35346 0.00548065L6.35205 0.00565743H6.34834L6.34657 0.00583421L6.34303 0.00601104H6.34144L6.3379 0.00618783H6.33614L6.33207 0.00636461L6.33101 0.00654139L6.32694 0.00671818H6.32553L6.32164 0.006895H6.3204L6.31634 0.00707179H6.3151L6.31015 0.0074254H6.30997L6.30555 0.00760218H6.30449L6.29441 0.00813253H6.29406L6.28416 0.00866293H6.28345C6.26224 0.00972372 6.2412 0.0109612 6.22016 0.0121988H6.21998C6.21291 0.0125524 6.20619 0.0130828 6.19912 0.0136132H6.19841L6.19382 0.01379L6.19311 0.0139668L6.18869 0.0141436L6.18763 0.0143204L6.18339 0.0144972H6.1825L6.17826 0.0148508H6.17702L6.17296 0.0152043H6.17207L6.16783 0.0155579H6.16677L6.16252 0.0159115H6.16146L6.15757 0.0162651H6.15581L6.15209 0.0166187H6.15086L6.14714 0.0169723L6.14555 0.0171491L6.14166 0.0173259L6.1406 0.0175027L6.13654 0.0176795L6.13512 0.0178563L6.13123 0.018033L6.12982 0.0182099L6.1261 0.0183866L6.12451 0.0185634L6.1208 0.0187403L6.11921 0.018917L6.11585 0.0192706L6.11373 0.0194474L6.11055 0.0196242L6.1086 0.019801L6.10542 0.0199778L6.1033 0.0201546L6.09994 0.0205082L6.09835 0.020685L6.09481 0.0208618L6.09287 0.0210386L6.08968 0.0213921L6.08774 0.021569L6.08438 0.0217458L6.08244 0.0219225L6.07908 0.0222761H6.07731L6.07413 0.0226297L6.07183 0.0228065L6.06882 0.0231601L6.06688 0.0233369L6.06334 0.0235137L6.06175 0.0236905L6.05804 0.0240441H6.05662L6.05309 0.0243977L6.05114 0.0245745L6.04778 0.024928L6.04602 0.0251048L6.04248 0.0252817L6.04089 0.0254584L6.03735 0.025812L6.03541 0.0259888L6.03258 0.0261656L6.03028 0.0263424L6.0271 0.026696L6.02515 0.0268728L6.02197 0.0272264L6.01985 0.0274032L6.01685 0.02758L6.01455 0.0277568L6.0119 0.0279335L6.00924 0.0282871L6.00659 0.0284639L6.00412 0.0288175L6.00129 0.0289943L5.99899 0.0291711L5.99616 0.0295247L5.99369 0.0297015L5.99139 0.0298783L5.98838 0.0302319L5.98626 0.0304087L5.98325 0.0307623L5.98096 0.0309391L5.97813 0.0311159L5.97565 0.0314695L5.973 0.0316463L5.97088 0.031823L5.9677 0.0321766L5.96239 0.032707L5.96045 0.0328838L5.95744 0.0332374L5.95514 0.0334142L5.95214 0.0337678L5.9509 0.0339446L5.94171 0.0348285H5.94135L5.93658 0.0353589H5.9364C5.88849 0.0403092 5.84076 0.0457898 5.79302 0.0518008C5.62949 0.0721322 5.46807 0.0986514 5.30843 0.130828C4.94971 0.202784 4.7174 0.551953 4.78936 0.910669C4.86149 1.26939 5.21049 1.50169 5.5692 1.42974C5.56955 1.42974 5.56991 1.42956 5.57026 1.42956C5.91749 1.35973 6.27055 1.32472 6.62467 1.32472C9.55009 1.32808 11.9209 3.6989 11.9241 6.62432C11.9241 7.47788 11.6996 8.32332 11.2569 9.13675C10.9759 9.65264 11.0682 10.2917 11.4835 10.707L11.7634 10.9869C11.9782 11.2007 11.9791 11.5481 11.7653 11.7629C11.5514 11.9777 11.204 11.9785 10.9892 11.7648C10.9885 11.7641 10.988 11.7636 10.9874 11.7629L10.7074 11.4832C10.2923 11.0677 9.65298 10.9754 9.13727 11.2563C8.45767 11.6354 7.70294 11.8601 6.92681 11.9144C6.56155 11.937 6.28398 12.2515 6.30661 12.6166C6.32836 12.9656 6.61759 13.2377 6.96729 13.238C6.98108 13.238 6.99505 13.2375 7.00902 13.2366C7.91845 13.1753 8.80525 12.9255 9.61303 12.5033L9.6132 12.5031L9.6231 12.4981V12.498C9.633 12.493 9.64273 12.4879 9.65263 12.4828L9.65281 12.4826L9.65758 12.4801L9.65776 12.4799L9.66235 12.4776L9.66288 12.4773L9.66783 12.4748C9.67579 12.4706 9.68374 12.4663 9.6917 12.4623L9.69241 12.4619L9.6963 12.4598L9.69736 12.4591L9.70107 12.4573L9.70266 12.4562L9.70796 12.4536L9.71115 12.4518L9.71327 12.4508L9.71804 12.4481L9.72158 12.4462L9.72229 12.4458L9.72989 12.4417L9.73166 12.4409L9.73466 12.4393L9.73678 12.4382L9.73961 12.4366L9.74209 12.4352L9.74474 12.4338L9.74721 12.4324L9.75517 12.4281L9.75764 12.4267L9.7603 12.4253L9.7633 12.4235L9.76542 12.4225L9.77055 12.4196L10.0504 12.6995C10.7822 13.4313 11.9685 13.4313 12.7002 12.6995C13.432 11.9679 13.432 10.7815 12.7002 10.0499L12.4203 9.76985C12.9567 8.80773 13.2417 7.72557 13.249 6.62397C13.2486 2.96573 10.2829 0 6.62431 0Z" fill="#0784FF"/>
<path d="M22.5228 15.8984C21.4211 15.9057 20.339 16.1907 19.3767 16.7271L19.0968 16.4472C18.3653 15.7155 17.179 15.7155 16.4472 16.4472C15.7155 17.1788 15.7155 18.3651 16.4472 19.0968L16.7271 19.3767C16.1907 20.339 15.9057 21.4211 15.8984 22.5228C15.8984 26.1812 18.8642 29.1471 22.5228 29.1471C26.1812 29.1471 29.1471 26.1813 29.1471 22.5228C29.1471 18.8642 26.1813 15.8984 22.5228 15.8984Z" fill="#FFBE00"/>
<path d="M22.4298 25.1708C21.0081 25.1103 19.8836 23.9458 19.8729 22.5228C19.8729 22.111 19.9857 21.7037 20.2184 21.2769L20.5914 20.5913L21.2774 20.2181C21.7037 19.9858 22.111 19.873 22.5227 19.873C23.2545 19.8728 23.8475 19.2793 23.8471 18.5477C23.8469 17.8163 23.2541 17.2235 22.5227 17.2233C21.6688 17.2233 20.8239 17.4477 20.0101 17.8909L19.1401 18.3644L18.16 17.3837C17.9455 17.1696 17.598 17.1698 17.3837 17.3842C17.1698 17.5985 17.1698 17.9454 17.3835 18.1598L17.3837 18.16L18.3644 19.1402L17.8909 20.0102C17.4479 20.8241 17.2233 21.6688 17.2233 22.5228V22.5397C17.2233 22.5424 17.2233 22.5449 17.2233 22.5475V22.5565C17.2235 22.5592 17.2235 22.5617 17.2235 22.5641V22.565C17.2235 22.5675 17.2235 22.5698 17.2235 22.5724V22.5733C17.2235 22.5758 17.2237 22.5785 17.2237 22.5808V22.5818C17.2237 22.5841 17.2237 22.5866 17.2237 22.5891V22.5901C17.2239 22.5926 17.2239 22.5951 17.2239 22.5976V22.5984C17.2239 22.6009 17.2239 22.6034 17.224 22.6059V22.6069C17.224 22.6092 17.224 22.6117 17.2242 22.6142V22.6152C17.2242 22.6177 17.2242 22.62 17.2242 22.6225L17.2244 22.6237C17.2244 22.6262 17.2244 22.6285 17.2244 22.6308L17.2246 22.632C17.2246 22.6345 17.2246 22.6368 17.2247 22.6393V22.6405C17.2247 22.643 17.2247 22.6453 17.2249 22.6476V22.6488C17.2249 22.6513 17.2251 22.6534 17.2251 22.6559L17.2253 22.6571C17.2253 22.6596 17.2253 22.6619 17.2254 22.6644V22.6654L17.2256 22.6727V22.6738L17.2258 22.6812V22.6821L17.226 22.6895V22.6904L17.2263 22.6978V22.6985L17.2265 22.7063V22.7068L17.2269 22.7146V22.7151L17.2272 22.7227V22.7233C17.2272 22.7257 17.2274 22.7286 17.2274 22.731V22.7316C17.2276 22.734 17.2277 22.7365 17.2277 22.7392V22.7399C17.2279 22.7425 17.2279 22.7448 17.2281 22.7473V22.7482L17.2285 22.7554V22.7565C17.2286 22.759 17.2286 22.7616 17.2288 22.7639V22.7648C17.229 22.7673 17.2292 22.7698 17.2292 22.7722V22.7733C17.2293 22.7756 17.2295 22.7781 17.2297 22.7805V22.7814C17.2299 22.7839 17.2299 22.7864 17.23 22.7887V22.7897C17.2302 22.7922 17.2302 22.7947 17.2304 22.7972V22.798C17.2306 22.8005 17.2306 22.8028 17.2309 22.8053V22.8065C17.2311 22.809 17.2311 22.8111 17.2313 22.8136C17.2313 22.8139 17.2313 22.8145 17.2313 22.815C17.2315 22.8173 17.2316 22.8194 17.2318 22.8219V22.8233C17.232 22.8256 17.232 22.8279 17.2322 22.8302L17.2323 22.8315C17.2325 22.8339 17.2325 22.8362 17.2327 22.8385L17.2329 22.8398C17.233 22.8422 17.233 22.8444 17.2332 22.8468L17.2334 22.8481C17.2336 22.8505 17.2336 22.8527 17.2338 22.8551V22.8562L17.2343 22.8635L17.2345 22.8645C17.2346 22.8668 17.2348 22.8693 17.2348 22.8718L17.235 22.8728L17.2353 22.8801L17.2355 22.8808L17.2361 22.8882V22.8893L17.2366 22.8967L17.2368 22.8972C17.2369 22.8997 17.2369 22.9023 17.2373 22.9048V22.9054C17.2375 22.908 17.2376 22.9107 17.2378 22.9133V22.9135C17.238 22.9161 17.2382 22.9186 17.2384 22.9213L17.2385 22.9216C17.2387 22.9243 17.2389 22.9269 17.2391 22.9297C17.2394 22.9324 17.2396 22.9349 17.2398 22.9375V22.9382C17.2399 22.9407 17.2401 22.9432 17.2405 22.9457V22.9464C17.2407 22.9488 17.2408 22.9511 17.241 22.9536L17.2412 22.9547C17.2414 22.9572 17.2415 22.9596 17.2417 22.9621V22.9628C17.2419 22.9653 17.2422 22.9678 17.2424 22.9701V22.9713C17.2428 22.9736 17.2429 22.9759 17.2431 22.9782V22.9794C17.2435 22.9819 17.2437 22.984 17.2438 22.9865V22.9877C17.244 22.99 17.2444 22.9925 17.2445 22.9948L17.2447 22.9959C17.2449 22.9982 17.2451 23.0005 17.2452 23.0029L17.2454 23.0042C17.2456 23.0067 17.2458 23.0088 17.246 23.0111L17.2461 23.0123C17.2463 23.0146 17.2465 23.0169 17.2467 23.0192L17.2468 23.0204C17.247 23.0229 17.2474 23.0252 17.2475 23.0277V23.0286L17.2484 23.0358V23.0369C17.2486 23.0392 17.249 23.0417 17.2491 23.044L17.2493 23.045C17.2495 23.0473 17.2497 23.0498 17.2498 23.0521L17.25 23.0533L17.2507 23.0604L17.2509 23.0613C17.2511 23.0636 17.2514 23.0662 17.2516 23.0687V23.0694C17.252 23.0719 17.2521 23.0744 17.2525 23.0768V23.0774C17.2529 23.0798 17.253 23.0825 17.2534 23.0848V23.0859C17.2537 23.0883 17.2541 23.0905 17.2543 23.0931V23.0938C17.2546 23.0965 17.255 23.0988 17.2551 23.1012V23.1019C17.2555 23.1044 17.2559 23.1067 17.256 23.1094L17.2562 23.1099C17.2564 23.1124 17.2567 23.1149 17.2569 23.1173L17.2571 23.118C17.2573 23.1203 17.2576 23.1232 17.2578 23.1256L17.258 23.126C17.2583 23.1285 17.2585 23.1311 17.2589 23.1336V23.1341C17.2592 23.1368 17.2596 23.1391 17.2597 23.1415L17.2599 23.1424C17.2601 23.1447 17.2605 23.1472 17.2608 23.1497V23.1506C17.2612 23.153 17.2615 23.1555 17.2617 23.1578L17.2619 23.1587C17.2622 23.1612 17.2624 23.1636 17.2628 23.1659L17.2629 23.167C17.2631 23.1693 17.2635 23.1716 17.2638 23.1741L17.264 23.1751C17.2642 23.1774 17.2645 23.1796 17.2649 23.182L17.265 23.1833C17.2652 23.1857 17.2656 23.1879 17.2658 23.1902L17.2659 23.1914C17.2663 23.1939 17.2666 23.196 17.2668 23.1985L17.267 23.1995C17.2673 23.2018 17.2677 23.2041 17.2681 23.2066L17.2682 23.2077C17.2684 23.2101 17.2688 23.2123 17.2691 23.2146L17.2693 23.216L17.2702 23.2229L17.2704 23.2238L17.2712 23.231L17.2714 23.2321C17.2718 23.2344 17.2719 23.2367 17.2723 23.239L17.2725 23.2402L17.2735 23.2471L17.2737 23.2483L17.2746 23.2554L17.2748 23.2561C17.2751 23.2586 17.2755 23.2611 17.2757 23.2635L17.2758 23.2642C17.2762 23.2667 17.2765 23.2692 17.2769 23.2717V23.2722L17.278 23.2796L17.2781 23.2805C17.2785 23.283 17.2788 23.2853 17.2792 23.2879L17.2794 23.2885C17.2797 23.2909 17.2801 23.2934 17.2804 23.2959V23.2962C17.2808 23.2987 17.2813 23.3014 17.2815 23.3037L17.2817 23.3046C17.282 23.3069 17.2824 23.3092 17.2827 23.3116L17.2829 23.3123C17.2833 23.3148 17.2836 23.3173 17.284 23.3198L17.2841 23.3203C17.2845 23.3228 17.2849 23.3252 17.2852 23.3279L17.2854 23.3284C17.2857 23.3309 17.2861 23.3334 17.2864 23.3358L17.2866 23.3364L17.2877 23.3436L17.2879 23.3447C17.2882 23.347 17.2886 23.3493 17.2889 23.3516L17.2891 23.3526C17.2894 23.3551 17.2898 23.3572 17.2902 23.3595L17.2905 23.3608C17.2907 23.3631 17.2912 23.3654 17.2914 23.3677L17.2917 23.3687C17.2919 23.3712 17.2923 23.3732 17.2928 23.3756L17.293 23.3769C17.2933 23.3793 17.2937 23.3815 17.294 23.3838L17.2942 23.385C17.2948 23.3873 17.2949 23.3896 17.2955 23.3919L17.2956 23.393C17.296 23.3952 17.2963 23.3974 17.2967 23.3998L17.2969 23.4011L17.2981 23.4078L17.2983 23.4092L17.2993 23.4158L17.2997 23.4172C17.3001 23.4195 17.3004 23.4216 17.3008 23.4239L17.3009 23.4251C17.3015 23.4274 17.3018 23.4295 17.3022 23.4318L17.3024 23.4333C17.3027 23.4354 17.3032 23.4377 17.3036 23.44L17.3038 23.4412C17.3041 23.4433 17.3045 23.4458 17.305 23.4481L17.3052 23.449C17.3055 23.4515 17.3059 23.4538 17.3064 23.4561L17.3066 23.4571C17.3069 23.4596 17.3075 23.4617 17.308 23.4642V23.4647C17.3085 23.4672 17.3089 23.4695 17.3094 23.4722L17.3096 23.4729C17.31 23.4753 17.3105 23.4776 17.3108 23.4801L17.311 23.4806C17.3114 23.4831 17.3119 23.4858 17.3123 23.4881L17.3124 23.4886C17.3128 23.4911 17.3133 23.4937 17.3138 23.4962L17.3153 23.5038V23.5043C17.3158 23.5068 17.3161 23.5091 17.3167 23.5116L17.3169 23.5123C17.3174 23.5148 17.3177 23.5169 17.3181 23.5194L17.3184 23.5202C17.3188 23.5227 17.3193 23.525 17.3197 23.5273L17.3199 23.5282C17.3204 23.5305 17.3209 23.533 17.3213 23.5351L17.3214 23.5363C17.3218 23.5386 17.3223 23.5409 17.3229 23.5431L17.323 23.5443C17.3234 23.5464 17.3239 23.5487 17.3243 23.551L17.3246 23.5524C17.325 23.5545 17.3255 23.5567 17.3259 23.559L17.3262 23.5604C17.3266 23.5625 17.3271 23.5646 17.3275 23.5667L17.3278 23.5685C17.3282 23.5705 17.3287 23.5728 17.329 23.5749L17.3294 23.5763C17.3298 23.5786 17.3303 23.5805 17.3308 23.5828L17.331 23.5841C17.3315 23.5865 17.3319 23.5887 17.3324 23.591L17.3326 23.592C17.3331 23.5943 17.3335 23.5964 17.334 23.5987L17.3344 23.6C17.3347 23.6023 17.3352 23.6044 17.3356 23.6067L17.3358 23.6079C17.3363 23.6102 17.3368 23.6124 17.3372 23.6147L17.3375 23.6159C17.3381 23.6182 17.3384 23.6203 17.3389 23.6226L17.3391 23.6237C17.3397 23.6261 17.34 23.6281 17.3405 23.6306L17.3407 23.6318C17.3412 23.6339 17.3418 23.6364 17.3423 23.6385L17.3425 23.6396L17.3439 23.6465L17.3441 23.6474C17.3446 23.6498 17.3451 23.652 17.3457 23.6544L17.3458 23.6551C17.3464 23.6574 17.3467 23.6597 17.3474 23.6622L17.3476 23.6631L17.3492 23.6703V23.6709C17.3499 23.6733 17.3504 23.6756 17.351 23.6781L17.3511 23.6787C17.3517 23.6811 17.3522 23.6836 17.3527 23.6861C17.3533 23.6886 17.3538 23.691 17.3545 23.6935L17.3547 23.6942L17.3563 23.7016L17.3565 23.702L17.3582 23.7094V23.7098L17.36 23.7172L17.3602 23.7177L17.3618 23.7248L17.3619 23.7259C17.3625 23.728 17.363 23.7305 17.3637 23.7328L17.3639 23.7336C17.3644 23.7358 17.3649 23.7382 17.3655 23.7404L17.3656 23.7414C17.3662 23.7437 17.3669 23.746 17.3674 23.7485L17.3676 23.7492C17.3681 23.7515 17.3687 23.7538 17.3692 23.7561L17.3695 23.7573C17.3701 23.7594 17.3706 23.7617 17.3711 23.764L17.3713 23.7649C17.3718 23.7672 17.3724 23.7693 17.3731 23.7716L17.3732 23.7729C17.3738 23.7752 17.3743 23.7773 17.3748 23.7796L17.3752 23.7805C17.3757 23.7828 17.3763 23.7851 17.3768 23.7872L17.3771 23.7886L17.3787 23.7952L17.3789 23.7964C17.3796 23.7987 17.3801 23.8006 17.3807 23.8029L17.381 23.8042C17.3816 23.8063 17.3821 23.8088 17.3826 23.8109L17.3828 23.812C17.3835 23.8143 17.384 23.8162 17.3846 23.8185L17.3849 23.8199C17.3854 23.822 17.386 23.8243 17.3867 23.8265L17.3869 23.8275L17.3886 23.8344L17.3888 23.8353L17.3906 23.8422L17.3908 23.8429C17.3913 23.8452 17.392 23.8477 17.3925 23.85L17.3927 23.8507C17.3934 23.8531 17.3941 23.8554 17.3946 23.8579L17.3948 23.8581C17.3953 23.8606 17.3961 23.863 17.3966 23.8655L17.3968 23.8661C17.3975 23.8685 17.3982 23.8708 17.3987 23.8733V23.8735C17.3994 23.876 17.4001 23.8783 17.4007 23.8807L17.4008 23.8814L17.4028 23.8883L17.4029 23.8892C17.4037 23.8915 17.4042 23.8938 17.4047 23.8959L17.4051 23.897C17.4056 23.8993 17.4063 23.9016 17.4068 23.9039L17.407 23.9046C17.4077 23.9069 17.4083 23.9092 17.409 23.9115L17.4091 23.9124C17.4098 23.9147 17.4104 23.9168 17.4111 23.9191L17.4113 23.9203L17.413 23.9269C17.4132 23.9272 17.4134 23.9276 17.4134 23.9281C17.4139 23.9302 17.4146 23.9324 17.4151 23.9345L17.4155 23.9359C17.4162 23.9378 17.4167 23.9401 17.4173 23.9421L17.4178 23.9437C17.4183 23.9458 17.4189 23.9477 17.4196 23.9499L17.4199 23.9513C17.4206 23.9536 17.421 23.9553 17.4217 23.9576L17.422 23.959C17.4228 23.9612 17.4233 23.9633 17.4238 23.9654L17.4243 23.9667C17.4249 23.9689 17.4254 23.9709 17.4261 23.9732L17.4265 23.9744C17.427 23.9767 17.4277 23.9787 17.4282 23.9808L17.4286 23.9822C17.4293 23.9842 17.43 23.9865 17.4305 23.9886L17.4309 23.9898C17.4314 23.9919 17.4321 23.9942 17.4327 23.9962L17.433 23.9976C17.4337 23.9997 17.4344 24.0018 17.4349 24.004L17.4353 24.0054C17.436 24.0075 17.4365 24.0096 17.4371 24.0117L17.4374 24.0128C17.4381 24.0149 17.4388 24.0172 17.4394 24.0193L17.4399 24.0206C17.4404 24.0227 17.4411 24.025 17.4417 24.0271L17.442 24.0282L17.444 24.0349L17.4443 24.0358C17.4448 24.0381 17.4456 24.0402 17.4463 24.0425L17.4464 24.0434C17.4473 24.0457 17.4479 24.0478 17.4486 24.0501L17.4487 24.051C17.4494 24.0531 17.4502 24.0554 17.4509 24.0575L17.451 24.0584C17.4517 24.0607 17.4525 24.0628 17.4532 24.0651L17.4533 24.066C17.454 24.0683 17.4547 24.0706 17.4555 24.0727L17.4556 24.0736C17.4563 24.0761 17.457 24.078 17.4578 24.0803L17.4581 24.0814C17.4586 24.0835 17.4593 24.0858 17.4601 24.0881L17.4604 24.089C17.4611 24.0911 17.4618 24.0934 17.4625 24.0955L17.4627 24.0966C17.4634 24.0989 17.4641 24.101 17.4648 24.1031L17.4652 24.1042C17.4657 24.1065 17.4666 24.1086 17.4671 24.1107L17.4675 24.1118C17.4682 24.1141 17.4689 24.1162 17.4696 24.1183L17.47 24.1196C17.4707 24.1217 17.4712 24.1238 17.4719 24.1259L17.4724 24.1272C17.4731 24.1295 17.4737 24.1314 17.4744 24.1335L17.4747 24.1348L17.4768 24.1411L17.4772 24.1424C17.4779 24.1447 17.4786 24.1466 17.4793 24.1489L17.4797 24.15C17.4804 24.1523 17.4811 24.1542 17.4818 24.1564L17.4822 24.1576C17.4829 24.1599 17.4836 24.162 17.4841 24.1641L17.4846 24.1652C17.4852 24.1673 17.4859 24.1694 17.4866 24.1717L17.4869 24.1728L17.4892 24.1792L17.4896 24.1804C17.4901 24.1825 17.4908 24.1848 17.4917 24.1868L17.4921 24.188C17.4928 24.1901 17.4935 24.1922 17.4942 24.1945L17.4945 24.1952C17.4952 24.1975 17.4959 24.1998 17.4967 24.202L17.497 24.2028L17.4993 24.2096L17.4995 24.2105L17.5018 24.2172L17.502 24.2179L17.5044 24.2249L17.5046 24.2251C17.5053 24.2276 17.506 24.2297 17.5069 24.2324L17.5071 24.2327C17.5078 24.235 17.5088 24.2375 17.5096 24.2398L17.5097 24.2402L17.512 24.247L17.5124 24.2478L17.5149 24.2552C17.5157 24.2575 17.5165 24.2596 17.5172 24.2619L17.5175 24.2628C17.5184 24.2651 17.5191 24.2672 17.5198 24.2693L17.5202 24.2704C17.5209 24.2725 17.5218 24.2746 17.5225 24.2767L17.5228 24.2778C17.5235 24.2801 17.5244 24.2822 17.5251 24.2845L17.5255 24.2852C17.5262 24.2875 17.5269 24.2897 17.5278 24.292L17.5281 24.2928C17.5288 24.2951 17.5297 24.2971 17.5304 24.2994L17.5308 24.3004L17.5331 24.3066L17.5336 24.308C17.5343 24.3103 17.535 24.3121 17.5357 24.3144L17.5363 24.3155C17.537 24.3176 17.5377 24.3195 17.5384 24.3218L17.5389 24.3229C17.5396 24.325 17.5405 24.3271 17.5412 24.3294L17.5416 24.3303C17.5423 24.3324 17.5431 24.3346 17.544 24.3369L17.5444 24.3379C17.5451 24.34 17.546 24.3422 17.5467 24.3445L17.547 24.3452C17.5477 24.3473 17.5486 24.3496 17.5495 24.3517L17.5499 24.3528L17.5523 24.3593L17.5525 24.36L17.555 24.3667L17.5553 24.3676C17.5562 24.3699 17.5571 24.372 17.5578 24.3742L17.5582 24.3749C17.5589 24.3772 17.5598 24.3795 17.5606 24.3816L17.561 24.3825C17.5619 24.3849 17.5626 24.3867 17.5635 24.3892L17.5637 24.3899C17.5645 24.392 17.5654 24.3941 17.5663 24.3966L17.5665 24.3973C17.5674 24.3994 17.5683 24.4017 17.569 24.404L17.5691 24.4044C17.57 24.4065 17.5709 24.409 17.5718 24.4113L17.572 24.4118C17.5728 24.4139 17.5737 24.4164 17.5746 24.4185L17.5748 24.4191C17.5757 24.4214 17.5766 24.4233 17.5774 24.4258L17.5776 24.4265C17.5785 24.4286 17.5794 24.4309 17.5801 24.4332L17.5805 24.4339C17.5813 24.4362 17.5822 24.4382 17.5831 24.4406L17.5835 24.4413C17.5842 24.4435 17.585 24.4458 17.5859 24.4481L17.5861 24.4488C17.5872 24.4509 17.5879 24.453 17.5888 24.4551L17.5891 24.4562C17.59 24.4583 17.5909 24.4606 17.5918 24.4627L17.5919 24.4636C17.5928 24.4657 17.5937 24.4679 17.5946 24.47L17.5949 24.4709C17.5958 24.4732 17.5967 24.4753 17.5974 24.4774L17.5978 24.4783C17.5987 24.4804 17.5995 24.4824 17.6004 24.4847L17.6008 24.4859C17.6017 24.4878 17.6026 24.49 17.6033 24.4921L17.6038 24.4931C17.6045 24.4953 17.6054 24.4972 17.6063 24.4993L17.6068 24.5006C17.6077 24.5027 17.6084 24.5046 17.6093 24.5068L17.6098 24.508C17.6105 24.5101 17.6114 24.5121 17.6123 24.5142L17.6126 24.5154C17.6137 24.5174 17.6144 24.5193 17.6151 24.5214L17.6156 24.5225L17.6181 24.5289L17.6186 24.5301C17.6195 24.532 17.6204 24.5343 17.6213 24.5363L17.6216 24.5372C17.6225 24.5395 17.6234 24.5412 17.6241 24.5434L17.6246 24.5448L17.6273 24.551L17.6277 24.5517C17.6285 24.554 17.6294 24.5561 17.6303 24.5582L17.6307 24.5589C17.6315 24.5612 17.6324 24.5635 17.6335 24.5656L17.6337 24.566C17.6346 24.5685 17.6354 24.5706 17.6365 24.5731L17.6367 24.5734C17.6397 24.5805 17.6429 24.5877 17.6457 24.5948L17.6459 24.595C17.6467 24.5973 17.648 24.5996 17.6489 24.6019L17.649 24.6022L17.6521 24.6093V24.6097C17.6531 24.6118 17.6542 24.6141 17.6551 24.6164L17.6552 24.6169C17.6563 24.6192 17.6572 24.6213 17.6582 24.6236L17.6584 24.6241C17.6593 24.6264 17.6602 24.6286 17.6612 24.6309L17.6616 24.6316C17.6625 24.6337 17.6635 24.636 17.6644 24.6379L17.6648 24.6386C17.6657 24.6408 17.6667 24.6432 17.6676 24.6454L17.668 24.6459C17.6688 24.648 17.6697 24.6503 17.6708 24.6524L17.6711 24.6533C17.672 24.6554 17.6729 24.6574 17.674 24.6595L17.6745 24.6607C17.6754 24.6629 17.6763 24.6648 17.6772 24.6669L17.6777 24.6678C17.6786 24.6699 17.6795 24.6721 17.6805 24.6742L17.6809 24.6751C17.6818 24.677 17.6828 24.6793 17.6837 24.6814L17.6841 24.6821C17.6849 24.6843 17.686 24.6866 17.6869 24.6885L17.6872 24.6896C17.6883 24.6915 17.6894 24.6938 17.6902 24.6959L17.6904 24.6965C17.6913 24.6986 17.6925 24.7011 17.6934 24.7032L17.6938 24.7037L17.6966 24.7102L17.697 24.711L17.7 24.7175L17.7001 24.7182C17.7012 24.7203 17.7023 24.7224 17.7031 24.7247L17.7035 24.7251C17.7044 24.7274 17.7054 24.7297 17.7065 24.732L17.7067 24.7323C17.7077 24.7345 17.7088 24.7369 17.7099 24.7392V24.7394C17.7111 24.7417 17.7122 24.744 17.7132 24.7463V24.7465C17.7166 24.7536 17.7198 24.7606 17.7233 24.7677V24.7679C17.7244 24.77 17.7254 24.7723 17.7265 24.7744L17.7267 24.7751C17.7277 24.7773 17.7288 24.7796 17.7298 24.7817L17.73 24.7822C17.7311 24.7843 17.7321 24.7866 17.7332 24.7889L17.7334 24.7893C17.7344 24.7916 17.7355 24.7937 17.7366 24.796L17.7367 24.7965C17.7378 24.7986 17.7389 24.8008 17.7399 24.8031L17.7403 24.8036C17.7412 24.8057 17.7424 24.808 17.7433 24.8101L17.7436 24.8107C17.7445 24.8128 17.7458 24.8153 17.7468 24.8174L17.747 24.8177L17.7502 24.8243L17.7505 24.825C17.7514 24.8271 17.7525 24.8292 17.7535 24.8314L17.7539 24.8322C17.7549 24.8344 17.756 24.8365 17.7571 24.8384L17.7574 24.8393C17.7583 24.8414 17.7595 24.8436 17.7604 24.8455L17.7608 24.8464C17.7618 24.8485 17.7629 24.8506 17.764 24.8526L17.7643 24.8536C17.7654 24.8556 17.7664 24.8577 17.7673 24.8598L17.7679 24.8605C17.7689 24.8626 17.77 24.8649 17.771 24.8669L17.7712 24.8676C17.7723 24.8695 17.7733 24.8718 17.7744 24.874L17.7749 24.8747C17.7758 24.8766 17.7769 24.8789 17.7781 24.8809L17.7783 24.8816C17.7793 24.8837 17.7804 24.886 17.7815 24.8879L17.782 24.8888C17.7829 24.8909 17.7839 24.8929 17.785 24.895L17.7854 24.8957C17.7864 24.8978 17.7875 24.8999 17.7887 24.9021L17.7889 24.9026C17.79 24.9049 17.7912 24.907 17.7923 24.9093L17.7924 24.9095C17.7935 24.9118 17.7945 24.9139 17.7958 24.9162L17.796 24.9164C17.8006 24.9256 17.8053 24.9348 17.8099 24.944L17.8103 24.9443C17.8115 24.9468 17.8124 24.9487 17.8136 24.951L17.8138 24.9514L17.8172 24.9579L17.8174 24.9583L17.8209 24.965L17.8211 24.9654C17.8221 24.9675 17.8232 24.9694 17.8244 24.9717L17.8248 24.9726C17.8258 24.9746 17.8271 24.9769 17.8281 24.9788L17.8283 24.9795C17.8294 24.9815 17.8306 24.9836 17.8317 24.9857L17.8322 24.9866C17.8331 24.9885 17.8343 24.9906 17.8354 24.9926L17.8357 24.9935C17.8368 24.9956 17.8379 24.9974 17.8389 24.9993L17.8396 25.0005C17.8407 25.0027 17.8418 25.0046 17.8428 25.0066L17.8432 25.0074C17.8442 25.0094 17.8453 25.0113 17.8464 25.0135L17.8471 25.0143C17.8481 25.0165 17.8492 25.0186 17.8502 25.0205L17.8506 25.0211C17.8517 25.0232 17.8529 25.0255 17.854 25.0274L17.8543 25.0281C17.8555 25.0302 17.8566 25.0322 17.8577 25.0345L17.858 25.0348C17.8591 25.037 17.8603 25.0391 17.8614 25.0414L17.8617 25.0417C17.863 25.0439 17.8642 25.0462 17.8653 25.0483V25.0485C17.8665 25.0508 17.8677 25.0529 17.869 25.0552L17.8692 25.0555C17.8704 25.0577 17.8716 25.0599 17.8727 25.0621L17.8729 25.0622C17.8741 25.0645 17.8753 25.0667 17.8766 25.069V25.0691L17.8842 25.0828V25.0829C17.8867 25.0875 17.8891 25.0919 17.8918 25.0964V25.0965C17.8943 25.101 17.8967 25.1054 17.8992 25.11L17.8996 25.1103C17.9008 25.1126 17.9019 25.1146 17.9031 25.1169L17.9033 25.1171C17.9045 25.1192 17.9058 25.1215 17.907 25.1236L17.9072 25.1239C17.9086 25.1262 17.9096 25.1284 17.9109 25.1307L17.9111 25.1308C17.9123 25.133 17.9134 25.1351 17.9146 25.1372L17.9149 25.1377C17.9162 25.1399 17.9174 25.142 17.9185 25.1441L17.9188 25.1446L17.9224 25.1508L17.9225 25.1514C17.924 25.1535 17.9252 25.1558 17.9263 25.1579L17.9264 25.1581C17.9277 25.1602 17.9289 25.1623 17.9302 25.1644L17.9305 25.165C17.9317 25.1669 17.933 25.1694 17.934 25.1713L17.9344 25.1717C17.9356 25.1738 17.9369 25.1759 17.9381 25.178L17.9383 25.1786C17.9395 25.1807 17.9408 25.1828 17.942 25.1849L17.9422 25.1853L17.9459 25.1915L17.9462 25.1922C17.9473 25.1941 17.9487 25.1964 17.9498 25.1984L17.9501 25.1989C17.9514 25.2009 17.9526 25.2032 17.9538 25.2051L17.9542 25.2058C17.9553 25.2077 17.9565 25.2099 17.9579 25.212L17.9581 25.2123C17.9591 25.2145 17.9606 25.2166 17.9618 25.2185L17.9622 25.2192C17.9634 25.2214 17.9646 25.2235 17.9659 25.2254V25.2258C17.9673 25.2279 17.9685 25.2298 17.9698 25.2321L17.9699 25.2325C17.9793 25.2481 17.9887 25.2636 17.9982 25.2792C17.9996 25.2813 18.0009 25.2834 18.0023 25.2859C18.0037 25.288 18.0049 25.2901 18.0063 25.2924L18.0065 25.2926L18.0104 25.2988L18.0108 25.2993C18.012 25.3013 18.0132 25.3036 18.0145 25.3055L18.0147 25.306C18.0161 25.3082 18.0173 25.3101 18.0185 25.3122L18.0189 25.3128C18.0203 25.3149 18.0216 25.3168 18.0228 25.319L18.023 25.3193C18.0244 25.3214 18.0256 25.3234 18.0269 25.3255L18.0274 25.326C18.0284 25.328 18.0299 25.3303 18.0311 25.3322L18.0313 25.3327C18.0327 25.3347 18.0339 25.3368 18.0353 25.3389L18.0355 25.3393C18.0369 25.3414 18.038 25.3434 18.0396 25.3456L18.0398 25.3458C18.041 25.3481 18.0422 25.3501 18.0438 25.3522L18.044 25.3524L18.0479 25.3587L18.0481 25.3589C18.0495 25.3612 18.0507 25.3633 18.0521 25.3654L18.0523 25.3656C18.0536 25.3677 18.055 25.3699 18.0564 25.372V25.3722C18.0578 25.3743 18.0592 25.3764 18.0606 25.3787C18.0719 25.3962 18.0831 25.4135 18.0946 25.431L18.0947 25.4312L18.099 25.4376C18.1004 25.4399 18.1018 25.442 18.1034 25.4441C18.1048 25.4464 18.1062 25.4485 18.1077 25.4507V25.4508C18.1092 25.4528 18.1107 25.4549 18.1121 25.457V25.4572C18.1135 25.4593 18.1149 25.4614 18.1163 25.4636L18.1165 25.4637C18.1179 25.4659 18.1193 25.468 18.1207 25.4701V25.4703C18.1223 25.4724 18.1236 25.4745 18.1252 25.4767C18.1296 25.4832 18.134 25.4896 18.1382 25.4961C18.1398 25.4982 18.1412 25.5003 18.1427 25.5025V25.5026C18.1442 25.5048 18.1457 25.5069 18.1471 25.509C18.1736 25.5475 18.2005 25.5859 18.228 25.6237V25.6239C18.2295 25.626 18.2309 25.6282 18.2325 25.6303H18.2326C18.2341 25.6324 18.2355 25.6342 18.2371 25.6363L18.2372 25.6367C18.2402 25.6409 18.2433 25.645 18.2463 25.649V25.6492C18.2494 25.6533 18.2524 25.6575 18.2555 25.6616L18.2556 25.6618C18.2802 25.6952 18.3053 25.7284 18.3308 25.7611C18.334 25.7654 18.3371 25.7692 18.3403 25.7735V25.7737C18.3435 25.7777 18.3467 25.7818 18.3499 25.7859C18.3564 25.794 18.3628 25.8021 18.3693 25.8103V25.8104C18.3757 25.8186 18.3822 25.8265 18.3886 25.8348C18.4132 25.8652 18.4377 25.8953 18.4628 25.925L18.4678 25.931L18.468 25.9312C18.548 26.0265 18.6315 26.1188 18.7183 26.2084C19.0514 26.5524 19.4294 26.8502 19.842 27.0934L19.8424 27.0936C19.8445 27.095 19.8466 27.0961 19.8487 27.0975H19.8491C19.8514 27.0989 19.8533 27.1 19.8554 27.1014L19.8558 27.1016C19.8581 27.103 19.86 27.104 19.8623 27.1055H19.8625L19.8691 27.1092L19.8694 27.1095C19.8717 27.1108 19.8737 27.112 19.876 27.1132L19.8761 27.1134C19.8784 27.1147 19.8804 27.1159 19.8827 27.1171L19.883 27.1173C19.8853 27.1187 19.8873 27.1198 19.8896 27.121L19.8897 27.1212C19.8919 27.1224 19.894 27.1237 19.8961 27.1249L19.8966 27.1253L19.903 27.1288L19.9034 27.129C19.9055 27.1302 19.9076 27.1315 19.9099 27.1327L19.9103 27.1329C19.9124 27.1341 19.9147 27.1353 19.9168 27.1366C19.9191 27.138 19.9212 27.1391 19.9235 27.1405L19.9239 27.1406L19.9304 27.1444L19.9373 27.1482C19.9419 27.1507 19.9463 27.1534 19.9509 27.1558H19.9511C19.9691 27.1659 19.9875 27.176 20.0057 27.1859L20.0061 27.1861C20.0082 27.1873 20.0105 27.1886 20.0126 27.1898L20.013 27.19C20.0151 27.1912 20.0174 27.1923 20.0195 27.1935L20.0199 27.1937C20.0223 27.1949 20.0243 27.196 20.0264 27.1972L20.0268 27.1974C20.0291 27.1986 20.0312 27.1997 20.0333 27.2009L20.0338 27.2011C20.036 27.2023 20.0383 27.2036 20.0404 27.2046L20.0407 27.2048C20.0427 27.2059 20.0451 27.2071 20.0471 27.2084L20.0478 27.2085C20.0499 27.2098 20.052 27.2108 20.0542 27.2121L20.0547 27.2122C20.0566 27.2133 20.0589 27.2145 20.0609 27.2156L20.0618 27.216C20.0639 27.217 20.066 27.2183 20.068 27.2193L20.0687 27.2197C20.0706 27.2206 20.0729 27.2218 20.0748 27.2229L20.0757 27.2234C20.0779 27.2244 20.0798 27.2255 20.0819 27.2266L20.0824 27.2267C20.0846 27.228 20.0867 27.229 20.0888 27.2301L20.0895 27.2305L20.0959 27.2338L20.0964 27.234L20.103 27.2374L20.1033 27.2377C20.1056 27.2388 20.1077 27.2398 20.11 27.2411H20.1102C20.1125 27.2423 20.1146 27.2434 20.1169 27.2446L20.1175 27.2448C20.1196 27.2458 20.1219 27.2471 20.124 27.2481L20.1242 27.2483C20.1265 27.2494 20.1286 27.2504 20.1309 27.2517L20.1312 27.2518C20.1335 27.2529 20.1357 27.254 20.138 27.2552L20.1381 27.2554C20.1404 27.2564 20.1426 27.2575 20.1447 27.2586L20.1454 27.2589C20.1477 27.26 20.1496 27.261 20.1519 27.2621L20.1525 27.2625C20.1546 27.2635 20.1565 27.2646 20.1588 27.2656L20.1595 27.266C20.1615 27.2671 20.1636 27.2681 20.1657 27.2692L20.1666 27.2695C20.1685 27.2704 20.1708 27.2717 20.1726 27.2725L20.1797 27.2761L20.1807 27.2768C20.1827 27.2777 20.1848 27.2787 20.1868 27.2796L20.1878 27.2801C20.1899 27.2812 20.1917 27.2821 20.1938 27.2831L20.1949 27.2837C20.197 27.2846 20.1988 27.2856 20.2009 27.2865L20.2021 27.2872C20.2041 27.2883 20.2059 27.289 20.208 27.29L20.2092 27.2906C20.2112 27.2916 20.2131 27.2925 20.215 27.2934L20.2163 27.2941C20.2184 27.295 20.22 27.296 20.2221 27.2969C20.2225 27.2971 20.2228 27.2973 20.2234 27.2976C20.2253 27.2985 20.2271 27.2994 20.2292 27.3005C20.2297 27.3006 20.2301 27.3008 20.2304 27.301C20.2324 27.3019 20.2343 27.3029 20.2363 27.3038C20.2368 27.304 20.2373 27.3044 20.2377 27.3045C20.2396 27.3054 20.2414 27.3063 20.2433 27.3074L20.2447 27.3079C20.2467 27.3088 20.2486 27.3098 20.2504 27.3107L20.2518 27.3113C20.2538 27.3121 20.2557 27.3132 20.2577 27.3141L20.2591 27.3146C20.261 27.3157 20.263 27.3166 20.2649 27.3174C20.2653 27.3176 20.2656 27.3178 20.2661 27.318C20.2681 27.319 20.2702 27.3199 20.272 27.321L20.2732 27.3215C20.2752 27.3224 20.2773 27.3233 20.2792 27.3243L20.2803 27.3249L20.2861 27.3275C20.2866 27.3277 20.287 27.3279 20.2875 27.3282L20.2932 27.3309L20.2944 27.3314C20.2962 27.3323 20.2983 27.3332 20.3001 27.3341L20.3015 27.3348L20.3072 27.3372C20.3077 27.3376 20.308 27.3378 20.3084 27.3379L20.3142 27.3406L20.3156 27.3411L20.3215 27.344L20.3229 27.3445C20.3247 27.3454 20.3266 27.3463 20.3285 27.3471C20.3291 27.3473 20.3296 27.3477 20.3301 27.3478C20.3321 27.3487 20.3337 27.3494 20.3356 27.3503C20.336 27.3505 20.3369 27.3509 20.3374 27.3512L20.3427 27.3535C20.3434 27.3539 20.3439 27.354 20.3446 27.3544L20.3499 27.3569L20.3519 27.3577C20.3535 27.3585 20.3554 27.3593 20.3572 27.3602C20.3579 27.3604 20.3584 27.3608 20.3591 27.3611C20.3609 27.3618 20.3627 27.3627 20.3644 27.3634C20.3651 27.3638 20.3657 27.3639 20.3664 27.3643C20.3681 27.365 20.3699 27.3659 20.3717 27.3668C20.3724 27.3669 20.3729 27.3673 20.3736 27.3676C20.3754 27.3684 20.3772 27.3691 20.3791 27.3699C20.3796 27.3703 20.3802 27.3705 20.3807 27.3708L20.3862 27.3731L20.3881 27.374C20.3899 27.3749 20.3917 27.3756 20.3934 27.3763C20.3941 27.3767 20.3947 27.377 20.3954 27.3772C20.3971 27.3781 20.3989 27.3788 20.4007 27.3797L20.4026 27.3804C20.4044 27.3813 20.4062 27.3821 20.4081 27.3829C20.4086 27.383 20.4093 27.3834 20.4099 27.3836C20.4118 27.3844 20.4136 27.3852 20.4154 27.386C20.4159 27.3862 20.4166 27.3866 20.4171 27.3869C20.4189 27.3876 20.4208 27.3883 20.4226 27.3892L20.4244 27.3899C20.4263 27.3908 20.4279 27.3915 20.43 27.3924L20.4316 27.3931C20.4336 27.394 20.4353 27.3947 20.4373 27.3956L20.4389 27.3961C20.4408 27.3972 20.4428 27.3979 20.4447 27.3986L20.4461 27.3993C20.4479 27.4 20.4497 27.4007 20.4516 27.4016L20.4535 27.4025C20.4553 27.4032 20.4569 27.4039 20.4585 27.4046L20.4608 27.4055C20.4624 27.4062 20.4641 27.4069 20.4657 27.4076L20.4682 27.4085C20.4696 27.4092 20.4714 27.4099 20.473 27.4106L20.4804 27.4138L20.4824 27.4147C20.4841 27.4152 20.4857 27.4159 20.4873 27.4166L20.4898 27.4177C20.4914 27.4184 20.4931 27.4191 20.4949 27.4198L20.4967 27.4205C20.4984 27.4214 20.5 27.4219 20.502 27.4226L20.5043 27.4237C20.5059 27.4244 20.5076 27.4251 20.5094 27.4258L20.5114 27.4267C20.5131 27.4272 20.5149 27.4279 20.5165 27.4286C20.5172 27.429 20.5181 27.4294 20.519 27.4297C20.5205 27.4302 20.5223 27.4309 20.5241 27.4318L20.5262 27.4327C20.528 27.4332 20.5296 27.4339 20.5313 27.4347C20.532 27.435 20.5329 27.4354 20.5338 27.4357C20.5354 27.4364 20.537 27.437 20.5386 27.4377L20.5411 27.4387C20.5426 27.4393 20.5444 27.44 20.5458 27.4407C20.5469 27.441 20.5476 27.4414 20.5485 27.4417C20.5501 27.4423 20.5518 27.443 20.5533 27.4437C20.5543 27.444 20.555 27.4442 20.5557 27.4446C20.5573 27.4453 20.5591 27.446 20.5607 27.4465C20.5616 27.447 20.5624 27.4474 20.5633 27.4476L20.5681 27.4495C20.569 27.4499 20.5697 27.4502 20.5708 27.4506C20.5723 27.4511 20.5739 27.4518 20.5754 27.4523C20.5764 27.4527 20.5773 27.4532 20.5782 27.4536C20.5798 27.4541 20.5814 27.4548 20.583 27.4553C20.5838 27.4557 20.5847 27.456 20.5856 27.4564C20.5872 27.4571 20.5886 27.4576 20.5902 27.4582C20.5913 27.4587 20.5921 27.4591 20.5932 27.4594L20.5976 27.4612C20.5985 27.4614 20.5996 27.4619 20.6006 27.4622L20.6042 27.4636L20.6081 27.4652C20.6093 27.4658 20.6102 27.4661 20.6114 27.4665C20.6128 27.467 20.6141 27.4675 20.6155 27.4681C20.6165 27.4684 20.6174 27.469 20.6187 27.4693C20.6201 27.4698 20.6215 27.4704 20.6229 27.4711C20.624 27.4713 20.625 27.4718 20.6261 27.4721C20.6273 27.4727 20.6289 27.4734 20.6305 27.4739C20.6314 27.4743 20.6323 27.4746 20.6332 27.475C20.6348 27.4757 20.6365 27.4762 20.6379 27.4767C20.639 27.4771 20.6399 27.4774 20.6408 27.4778C20.6424 27.4785 20.6436 27.4789 20.6452 27.4796C20.6461 27.4799 20.6473 27.4803 20.6482 27.4806C20.6498 27.4813 20.6512 27.4819 20.6528 27.4824C20.6537 27.4827 20.6547 27.4831 20.6556 27.4834C20.6572 27.4842 20.6588 27.4847 20.6604 27.4852C20.6613 27.4856 20.662 27.4859 20.6629 27.4861C20.6646 27.4868 20.6662 27.4873 20.6678 27.488L20.6705 27.4889C20.6721 27.4896 20.6733 27.4902 20.6749 27.4907L20.6779 27.4918C20.6795 27.4925 20.6811 27.493 20.6825 27.4935L20.6855 27.4948C20.6869 27.4951 20.6885 27.4958 20.6899 27.4964L20.6927 27.4974L20.6977 27.4992L20.7003 27.5001C20.7016 27.5006 20.703 27.5011 20.7042 27.5015C20.7055 27.502 20.7065 27.5025 20.7078 27.5029L20.7118 27.5045L20.7154 27.5057C20.7164 27.5061 20.7177 27.5066 20.7187 27.507C20.7201 27.5075 20.7214 27.5078 20.7228 27.5084C20.724 27.5089 20.7251 27.5093 20.7263 27.5096C20.7276 27.5101 20.7292 27.5107 20.7304 27.5112L20.7338 27.5124L20.7373 27.5137C20.7387 27.5142 20.7401 27.5146 20.7415 27.5153C20.7422 27.5154 20.743 27.5156 20.7437 27.516C20.7454 27.5165 20.7474 27.5172 20.7491 27.5179C20.7498 27.5181 20.7504 27.5183 20.7511 27.5185C20.7529 27.5192 20.7548 27.5199 20.7567 27.5206L20.7585 27.5211C20.7605 27.522 20.7624 27.5225 20.7643 27.5232C20.7649 27.5234 20.7656 27.5238 20.7663 27.5239C20.7682 27.5246 20.7702 27.5254 20.7721 27.5261L20.7734 27.5264C20.7755 27.5273 20.7776 27.528 20.7797 27.5287L20.781 27.5291C20.7831 27.5298 20.7854 27.5307 20.7875 27.5314L20.7884 27.5317C20.7905 27.5324 20.7926 27.5331 20.7949 27.5338L20.7962 27.5344C20.7983 27.5351 20.8006 27.5358 20.8025 27.5365L20.8038 27.537C20.8061 27.5377 20.8082 27.5386 20.8105 27.5393L20.8114 27.5395C20.8135 27.5402 20.8158 27.5411 20.8181 27.5418L20.819 27.5421C20.8213 27.543 20.8234 27.5437 20.8255 27.5444L20.8268 27.5448C20.8291 27.5455 20.8312 27.5464 20.8335 27.5471L20.8342 27.5473C20.8365 27.5482 20.839 27.5489 20.8413 27.5496L20.8418 27.5499C20.8441 27.5506 20.8466 27.5513 20.8487 27.5522L20.8496 27.5524C20.8517 27.5531 20.8542 27.554 20.8563 27.5547L20.8573 27.5551L20.8644 27.5574L20.8648 27.5575C20.8672 27.5582 20.8697 27.5591 20.8722 27.56H20.8725C21.3485 27.7165 21.8444 27.8042 22.3452 27.8206C22.359 27.821 22.3728 27.8211 22.3868 27.8211C23.1184 27.8206 23.7112 27.2271 23.7106 26.4953C23.7089 25.7804 23.1431 25.1954 22.4298 25.1708Z" fill="#FFEA21"/>
<path d="M22.5228 15.8984C21.4212 15.9057 20.339 16.1907 19.3767 16.7271L19.0968 16.4472C18.7459 16.0952 18.2691 15.8977 17.7719 15.8984C17.4061 15.8984 17.1097 16.1949 17.1097 16.5609C17.1097 16.9267 17.4061 17.2233 17.7719 17.2233C17.9176 17.223 18.0573 17.2808 18.16 17.384L18.4399 17.6639C18.8552 18.0792 19.4943 18.1715 20.0102 17.8907C20.8238 17.4479 21.669 17.2233 22.5228 17.2233C25.4496 17.2233 27.8222 19.5959 27.8222 22.5228C27.8222 23.8498 27.3243 25.1284 26.4271 26.106C26.1796 26.3755 26.1973 26.7945 26.4665 27.042C26.736 27.2897 27.155 27.272 27.4025 27.0026C27.4026 27.0024 27.4028 27.0024 27.4028 27.0022C28.2498 26.0818 28.8181 24.9395 29.0412 23.7087C29.0452 23.6862 29.0491 23.6638 29.053 23.6415V23.6412L29.0539 23.6364L29.0546 23.6318L29.0548 23.6314L29.0555 23.6268L29.0564 23.6221V23.6219C29.0601 23.5994 29.0636 23.577 29.0672 23.5544L29.0673 23.554L29.0681 23.5494C29.0718 23.5254 29.0753 23.5011 29.0788 23.4769L29.079 23.4762L29.0795 23.472V23.4714L29.0803 23.4672L29.0804 23.4663L29.081 23.4622V23.4615L29.0817 23.4573V23.4566L29.0824 23.4522V23.452L29.0831 23.4472L29.0836 23.4424V23.4423L29.0843 23.4375V23.4373C29.0861 23.4244 29.0879 23.4117 29.0896 23.3988V23.3984L29.0902 23.3938L29.0903 23.3935L29.0909 23.3889V23.3885L29.0914 23.3839L29.0916 23.3836L29.0921 23.3793V23.3784L29.0926 23.3742L29.0928 23.3737L29.0933 23.3694V23.3687L29.094 23.3645V23.3639L29.0946 23.3597L29.0947 23.3586L29.0953 23.3546V23.3539L29.0958 23.3496L29.096 23.3491C29.0976 23.3362 29.0992 23.3233 29.1006 23.3104L29.1013 23.3056V23.3054L29.1018 23.3014V23.3001L29.1024 23.2962L29.1025 23.2952L29.1029 23.2911L29.1031 23.2904L29.1036 23.2862V23.2855L29.1041 23.2814V23.2803L29.1046 23.2764L29.1048 23.2754L29.1052 23.2715L29.1054 23.2702L29.1057 23.2665L29.1059 23.2651L29.1062 23.2616L29.1064 23.2602L29.1069 23.2565L29.1071 23.2554L29.1075 23.2515V23.2512C29.1085 23.2416 29.1096 23.2321 29.1107 23.2225V23.2218L29.1112 23.2176V23.2169L29.1117 23.213V23.2117L29.1123 23.2078V23.2068L29.1128 23.2031V23.2017L29.1131 23.1979L29.1133 23.1967L29.1137 23.193L29.1138 23.1914L29.1142 23.1879L29.1144 23.1864L29.1147 23.1829L29.1149 23.1813L29.1153 23.178L29.1154 23.1762L29.1158 23.173L29.116 23.1711L29.1161 23.1679L29.1163 23.1658L29.1167 23.1629L29.1168 23.161C29.1174 23.1557 29.1179 23.1502 29.1184 23.1449L29.1186 23.1428L29.119 23.1396V23.1378L29.1193 23.1348L29.1195 23.1327L29.1197 23.1299L29.1199 23.1276L29.1202 23.1249L29.1204 23.1224L29.1207 23.1194L29.1209 23.1177L29.1211 23.1143L29.1213 23.1125L29.1216 23.1095L29.1218 23.1072L29.122 23.1046L29.1223 23.1021L29.1225 23.0995L29.1227 23.0972L29.1229 23.0943L29.123 23.0919L29.1234 23.0894L29.1236 23.0867L29.1237 23.0843L29.1239 23.0816L29.1243 23.0791L29.1245 23.077L29.1246 23.074L29.1248 23.0724L29.1252 23.0689V23.0685L29.1262 23.0553L29.1264 23.0539L29.1266 23.0508L29.1267 23.0487L29.1269 23.0457L29.1271 23.0436L29.1273 23.0406L29.1275 23.0385L29.1278 23.0355V23.0335L29.1282 23.0303L29.1283 23.0284L29.1285 23.0254L29.1287 23.0233L29.1289 23.0203L29.129 23.0181L29.1292 23.0153L29.1294 23.013L29.1296 23.0102L29.1298 23.0075L29.1299 23.0054L29.1303 23.0024L29.1305 23.0001L29.1306 22.9973L29.1308 22.995L29.1312 22.9897L29.1313 22.9868L29.1315 22.9847L29.1317 22.9815L29.1319 22.9796L29.1326 22.9693V22.9678L29.1328 22.964L29.1329 22.9623L29.1331 22.9591L29.1333 22.9564L29.1335 22.954L29.1336 22.9513L29.1338 22.949L29.134 22.9464L29.1342 22.9435L29.1344 22.9414L29.1345 22.9384V22.9363L29.1347 22.9333L29.1349 22.9312L29.1351 22.9282L29.1352 22.926L29.1354 22.9228V22.9209L29.1358 22.9177V22.9156L29.1359 22.9128L29.1361 22.9105L29.1363 22.9076L29.1365 22.9053L29.1367 22.9022L29.1368 22.9002L29.137 22.897V22.8949L29.1372 22.8916L29.1374 22.89L29.1375 22.8861L29.1377 22.8841L29.1379 22.8795L29.1381 22.8769V22.8746L29.1382 22.8714L29.1384 22.8695L29.1386 22.8663V22.8643L29.1388 22.8613L29.1389 22.8592L29.1391 22.8565V22.8539L29.1393 22.8516L29.1395 22.8486L29.1397 22.8465V22.8435L29.1398 22.8412L29.14 22.8382V22.836L29.1402 22.833V22.8307L29.1404 22.8279L29.1405 22.8256V22.823L29.1407 22.8203L29.1409 22.8178V22.8154L29.1411 22.8122L29.1412 22.8102V22.8067L29.1414 22.8049L29.1416 22.8014V22.7998L29.142 22.7895L29.1421 22.7874L29.1423 22.7842V22.7819L29.1425 22.7793V22.7768L29.1427 22.774V22.7719L29.1428 22.7687V22.7667L29.143 22.7634L29.1432 22.7614V22.7584L29.1434 22.7561V22.7531L29.1435 22.751V22.748L29.1437 22.7457V22.7429L29.1439 22.7404V22.7379L29.1441 22.7353V22.7326L29.1443 22.7301V22.7273L29.1444 22.725V22.722L29.1446 22.7197V22.7174L29.1448 22.7144V22.7121L29.145 22.7093L29.1451 22.6992L29.1453 22.6964V22.6939L29.1455 22.6912V22.6866L29.1457 22.6835V22.6782L29.1458 22.6762V22.6709L29.146 22.6679V22.6603L29.1462 22.6578V22.6497L29.1464 22.6472V22.6396L29.1466 22.6366V22.629L29.1467 22.6258V22.6186L29.1469 22.6145V22.6013L29.1471 22.5979V22.5903L29.1473 22.5876V22.5226C29.1471 18.8642 26.1813 15.8984 22.5228 15.8984Z" fill="#FFA300"/>
<path d="M10.4991 8.90144L8.37174 2.5805C8.04697 1.61537 7.00123 1.0963 6.03611 1.42125C5.48964 1.60512 5.06073 2.03402 4.87687 2.5805L2.7495 8.90144C2.48448 9.51969 2.77089 10.2355 3.38914 10.5005C3.54065 10.5654 3.70383 10.599 3.86878 10.599C4.35585 10.599 4.79625 10.3087 4.98807 9.8609L5.16434 9.27412H8.08428L8.26054 9.8609C8.45236 10.3087 8.89258 10.599 9.37983 10.599C10.0525 10.5988 10.5976 10.0536 10.5976 9.38108C10.5976 9.21631 10.564 9.05295 10.4991 8.90144ZM5.9608 6.62432L6.62431 4.41615L7.28782 6.62432H5.9608Z" fill="white"/>
<path d="M6.62433 1.3249H6.60081L6.59693 1.32507H6.59162L6.58773 1.32525H6.58243L6.57836 1.32543H6.57341L6.56935 1.3256H6.56864L6.56457 1.32578H6.56386L6.5598 1.32596H6.55927L6.5552 1.32614H6.55503L6.55096 1.32631H6.55007L6.54619 1.32649H6.5453L6.54141 1.32667H6.54088L6.53682 1.32684H6.53646L6.5324 1.32702L6.53151 1.3272L6.52762 1.32737H6.52691L6.52285 1.32755H6.52249L6.51843 1.32773L6.5179 1.3279L6.51401 1.32808H6.51312L6.50924 1.32826L6.50853 1.32843L6.50464 1.32861H6.50411L6.5004 1.32896H6.49951L6.49562 1.32932H6.49474L6.49085 1.32967H6.49014L6.48643 1.32985L6.4859 1.33002L6.48219 1.3302L6.48112 1.33038L6.47741 1.33056L6.47635 1.33073L6.47246 1.33109H6.47193L6.46822 1.33144H6.46751L6.46362 1.33179H6.46292L6.45903 1.33215L6.45814 1.33232L6.45408 1.33268L6.44983 1.33303H6.4493L6.44541 1.33338L6.44453 1.33356L6.44082 1.33391H6.43975L6.43604 1.33427H6.43587L6.43198 1.3348H6.43109L6.4272 1.33533H6.42632L6.42261 1.33568L6.42172 1.33586L6.41819 1.33621H6.41766L6.41377 1.33674L6.41288 1.33692L6.40917 1.33727L6.40811 1.33745L6.4044 1.3378L6.40369 1.33798L6.40015 1.33833H6.39945L6.39573 1.33886L6.39467 1.33904L6.39096 1.33939L6.39008 1.33957L6.38636 1.33993L6.38583 1.3401L6.38212 1.34063H6.38124L6.37752 1.34116L6.37664 1.34134L6.37293 1.34187H6.37222L6.36868 1.3424L6.3678 1.34258L6.36409 1.34311L6.3632 1.34328L6.35949 1.34381H6.35861L6.35472 1.34452H6.35419L6.35065 1.34505L6.34994 1.34523L6.34623 1.34576L6.34517 1.34594L6.34163 1.34647L6.34057 1.34664L6.33721 1.34717L6.33297 1.34788L6.33173 1.34806L6.32837 1.34859L6.32714 1.34877L6.3236 1.3493L6.32272 1.34947L6.31936 1.35018H6.31847L6.31511 1.35089L6.31388 1.35106L6.31034 1.35159L6.30928 1.35177L6.30574 1.35248L6.3015 1.35318L6.30079 1.35336L6.29708 1.35407L6.29602 1.35425L6.29248 1.35478L6.29142 1.35495L6.28771 1.35566L6.28718 1.35584L6.28365 1.35654H6.28294L6.2794 1.35725L6.27834 1.35743L6.27481 1.35814L6.27374 1.35831L6.27039 1.35902L6.2695 1.3592L6.26614 1.3599L6.26508 1.36008L6.26172 1.36079L6.26049 1.36096L6.25607 1.36185L6.25288 1.36256L6.24846 1.36344L6.2474 1.36362L6.24387 1.3645L6.24281 1.36468L6.23839 1.36556L6.2352 1.36627L6.23432 1.36644L6.23078 1.36733L6.22955 1.36751L6.22619 1.36821L6.22513 1.36857L6.22177 1.36927L6.22071 1.36945L6.2177 1.37016L6.21664 1.37051L6.2131 1.37122L6.21204 1.37157L6.20851 1.37228L6.20745 1.37246L6.20426 1.37334L6.20338 1.37352L6.2002 1.37422L6.19896 1.37458L6.1956 1.37528L6.19436 1.37564L6.191 1.37635L6.18977 1.3767L6.18694 1.37741L6.18605 1.37758L6.18252 1.37847L6.18146 1.37882L6.1781 1.37953L6.17704 1.37988L6.17368 1.38076L6.17262 1.38094L6.16961 1.38183L6.16855 1.382L6.16519 1.38289L6.16396 1.38324L6.1606 1.38395L6.15954 1.3843L6.15653 1.38501L6.15529 1.38536L6.15229 1.38607L6.15123 1.38642L6.14787 1.38731L6.14663 1.38766L6.14327 1.38854L6.14221 1.3889L6.1392 1.3896L6.13814 1.38996L6.13478 1.39084L6.1339 1.3912L6.13036 1.39208L6.1293 1.39243L6.12577 1.39332L6.12506 1.39367L6.12205 1.39438L6.12099 1.39473L6.11764 1.39562L6.11657 1.39597L6.11322 1.39703L6.11198 1.39738L6.1088 1.39827L6.10791 1.39862L6.10473 1.39951L6.10367 1.39986L6.10031 1.40074L6.09925 1.4011L6.09589 1.40216L6.09483 1.40251L6.09182 1.40339L6.09076 1.40375L6.08776 1.40463L6.08652 1.40499L6.08316 1.40605L6.0821 1.4064L6.07874 1.40746L6.07786 1.40764L6.07485 1.40852L6.07397 1.40888L6.07061 1.40994L6.06937 1.41029L6.06601 1.41135L6.06495 1.4117L6.06159 1.41276L6.06088 1.41294L6.0577 1.414L6.05682 1.41418L6.05346 1.41542L6.05222 1.41577L6.04886 1.41683L6.04798 1.41718L6.04462 1.41825L6.04373 1.41842L6.04055 1.41948L6.03967 1.41984L6.03631 1.4209L6.03525 1.42143L6.03189 1.42249L6.03101 1.42284L6.02782 1.4239L6.02712 1.42408L6.02376 1.42532L6.0227 1.42567L6.01934 1.42673L6.01828 1.42709L6.01492 1.42832L6.01421 1.4285L6.01103 1.42974L6.01014 1.42991L6.00661 1.43115L6.0059 1.4315L6.00236 1.43274L6.00148 1.4331L5.99795 1.43433L5.99423 1.43557L5.99335 1.4361L5.98999 1.43716L5.98893 1.43752L5.98557 1.43875L5.98469 1.43911L5.9815 1.44034L5.9808 1.44052L5.97744 1.44194L5.97655 1.44211L5.97319 1.44335L5.96877 1.44512L5.96807 1.44529L5.96488 1.44653L5.96435 1.44671L5.95993 1.44848L5.95658 1.44971L5.95216 1.45148L5.95162 1.45166L5.94844 1.4529L5.94756 1.45325L5.9442 1.45449L5.94314 1.45502L5.93978 1.45626L5.93907 1.45661L5.93571 1.45785L5.93518 1.4582L5.93182 1.45944L5.93112 1.45979L5.92776 1.46121L5.9267 1.46156L5.92351 1.46297L5.92245 1.46333L5.91962 1.46439L5.91856 1.46492L5.91538 1.46616L5.9145 1.46651L5.91114 1.46792L5.91025 1.46828L5.90672 1.46987L5.90601 1.47005L5.90301 1.47128L5.9023 1.47164L5.89876 1.47305L5.89806 1.47341L5.89452 1.475L5.89381 1.47535L5.89028 1.47676L5.88992 1.47694L5.88674 1.47836L5.88586 1.47871L5.8825 1.4803L5.88161 1.48065L5.87826 1.48207L5.87755 1.48242L5.87419 1.48401H5.87384L5.87048 1.4856L5.86959 1.48596L5.86641 1.48737L5.86535 1.4879L5.86199 1.48932L5.86128 1.48985L5.85828 1.49108L5.85757 1.49144L5.85421 1.49303L5.85333 1.49356L5.84997 1.49497L5.84908 1.49533L5.84572 1.49692L5.84519 1.49727L5.84201 1.49869L5.8413 1.49904L5.83812 1.50045L5.83724 1.50099L5.83388 1.50258L5.83317 1.50293L5.82981 1.50452L5.82928 1.5047L5.82592 1.50629L5.82539 1.50664L5.82203 1.50823L5.82115 1.50859L5.81779 1.51018L5.81726 1.51053L5.81408 1.51212L5.81355 1.5123L5.81019 1.51407L5.80931 1.51442L5.80188 1.51813L5.80135 1.51849L5.79817 1.5199L5.79428 1.52185L5.79339 1.52238L5.78915 1.5245L5.78615 1.52609L5.78544 1.52644L5.78243 1.52803L5.7743 1.5321L5.77342 1.53263L5.77059 1.53405L5.7697 1.53458L5.7667 1.53617L5.76581 1.53652L5.76263 1.53829L5.76175 1.53864L5.75857 1.54041L5.75768 1.54076L5.75485 1.54236L5.75468 1.54289L5.75132 1.54448L5.75061 1.54501L5.74743 1.54678L5.74654 1.54713L5.74336 1.5489L5.74265 1.54925L5.73965 1.55102L5.73912 1.55137L5.73594 1.55314L5.73487 1.55349L5.73187 1.55526L5.73099 1.55579L5.72798 1.55738L5.7271 1.55774L5.72444 1.55933L5.72338 1.55986L5.72038 1.56163L5.71932 1.56233L5.71631 1.56392L5.71278 1.56605L5.71189 1.5664L5.70889 1.56817L5.708 1.5687L5.705 1.57047L5.70394 1.571L5.70075 1.57276L5.70022 1.57329L5.69757 1.57471L5.69651 1.57524L5.6935 1.57701L5.69262 1.57771L5.68962 1.57931L5.68855 1.58001L5.68573 1.58178L5.68484 1.58213L5.68131 1.58426L5.6783 1.5862L5.67724 1.58673L5.67423 1.5885L5.6707 1.59062L5.66964 1.59133L5.66699 1.59292L5.66592 1.59345L5.6631 1.59522L5.66204 1.59592L5.65921 1.59769L5.65815 1.59822L5.65567 1.59981L5.65461 1.60034L5.65196 1.60211L5.65072 1.60282L5.64701 1.60529L5.64418 1.60706L5.64312 1.60759L5.64082 1.60918L5.63994 1.60971L5.63711 1.61148L5.63569 1.61219L5.63304 1.61396L5.6318 1.61466L5.62597 1.61855L5.62473 1.61926L5.62208 1.62103L5.62067 1.62191L5.61695 1.62439L5.61501 1.62563L5.61324 1.62669L5.61112 1.6281L5.60988 1.62898L5.60723 1.63075L5.60581 1.63164L5.60352 1.63305L5.6021 1.63411L5.60016 1.63535L5.59839 1.63641L5.59627 1.63782L5.59485 1.63889L5.59255 1.64048L5.59096 1.64154L5.5892 1.64277L5.58725 1.64401L5.58548 1.64525L5.58354 1.64649L5.58177 1.64772L5.58018 1.64896L5.57859 1.65002L5.57629 1.65161L5.57258 1.65427L5.57116 1.65533L5.56886 1.65692L5.56727 1.65798L5.56551 1.65922L5.56427 1.6601L5.56162 1.66205L5.56055 1.66275L5.55773 1.6647L5.55667 1.6654L5.5549 1.66664L5.55437 1.66717L5.55101 1.66947L5.55012 1.67018L5.54712 1.6723L5.54623 1.67301L5.54323 1.67513L5.54235 1.67584L5.5404 1.67707L5.53934 1.67796L5.53669 1.6799L5.5358 1.68043L5.53262 1.68291L5.53191 1.68326L5.5259 1.68768L5.52219 1.69051L5.52166 1.69086L5.51795 1.69351L5.51777 1.69387C5.51441 1.69634 5.51105 1.69882 5.50769 1.70129L5.50752 1.70147C5.47428 1.72675 5.4421 1.75309 5.41063 1.7805C5.13519 2.02129 5.10708 2.43977 5.34787 2.71521C5.58867 2.99066 6.00714 3.01877 6.28258 2.77797C6.37717 2.69523 6.49863 2.64962 6.62433 2.64962C6.84727 2.64944 7.04528 2.79176 7.11617 3.00303L9.10582 8.91487C9.22268 9.26156 9.59837 9.44791 9.94506 9.33105C10.2911 9.21454 10.4776 8.83991 10.3619 8.49357L8.58198 3.20511L8.5818 3.20423L8.58039 3.20016L8.57968 3.19821L8.56553 3.15596L8.56341 3.14977L8.56182 3.14482L8.56129 3.14341L8.56058 3.14111L8.55952 3.13828L8.55811 3.13404V3.13386L8.55298 3.1183L8.55281 3.11795L8.55139 3.11371L8.55068 3.11141L8.54945 3.10805L8.54927 3.10734L8.54768 3.10257L8.54697 3.10062L8.54467 3.09373L8.54326 3.08966V3.08949L8.54114 3.08312L8.5353 3.06579L8.53389 3.06191L8.53177 3.05519L8.53 3.05024L8.52876 3.0467L8.52576 3.03768L8.52169 3.02566L8.52081 3.02266L8.51833 3.01541L8.51798 3.01452L8.5155 3.00728L8.51462 3.00427L8.50896 2.98783L8.50825 2.98606L8.50578 2.97864L8.50489 2.97616L8.50436 2.97439L8.50153 2.96626L8.50047 2.96308L8.49959 2.9606L8.49906 2.95866L8.49588 2.94911L8.49057 2.93338L8.48987 2.93161L8.47908 2.89925L8.47837 2.89731L8.47325 2.88193L8.47307 2.88157L8.46794 2.86619L8.46759 2.86496L8.46246 2.85011L8.46229 2.84958L8.45769 2.83596L8.45557 2.82942L8.45504 2.82783L8.45451 2.82659C8.40182 2.66995 8.37177 2.58049 8.37177 2.58049C8.1193 1.83018 7.41602 1.3249 6.62433 1.3249Z" fill="#EFF2FF"/>
<path d="M18.5481 19.873C18.5481 20.6047 19.1412 21.1979 19.873 21.1979H22.0811L19.2547 23.3176C18.8099 23.6513 18.5481 24.1747 18.5481 24.7308C18.5481 25.7065 19.3391 26.4973 20.3146 26.4973H25.1724C25.9041 26.4973 26.4973 25.9041 26.4973 25.1724C26.4973 24.4408 25.9041 23.8477 25.1724 23.8477H23.1852L25.8256 21.7352C26.2501 21.3955 26.4973 20.8814 26.4973 20.3378C26.4973 19.3493 25.6961 18.5481 24.7078 18.5481H19.873C19.1412 18.5481 18.5481 19.1414 18.5481 19.873Z" fill="white"/>
<path d="M24.7078 18.5481H19.873C19.5072 18.5481 19.2107 18.8447 19.2107 19.2105C19.2107 19.5765 19.5072 19.873 19.873 19.873H24.7078C24.9645 19.873 25.1726 20.0811 25.1726 20.3378C25.1726 20.4788 25.1084 20.6125 24.9981 20.7005L22.3575 22.8131C21.7862 23.2701 21.6936 24.1038 22.1506 24.6752C22.402 24.9894 22.7827 25.1724 23.1852 25.1724H24.1977C24.5635 25.1724 24.8602 24.8759 24.8602 24.5099C24.8602 24.1442 24.5635 23.8477 24.1977 23.8477H23.1852C23.1852 23.8477 24.1215 23.0986 24.8789 22.4925L24.8809 22.4911L24.8823 22.4899L24.8847 22.4879L24.8867 22.4864L24.8877 22.4855L24.898 22.4773L24.8991 22.4766C24.9045 22.472 24.9102 22.4676 24.9157 22.4632L24.9318 22.4503L24.9388 22.4446L24.9401 22.4436L24.9417 22.4425L24.9438 22.4407L24.9571 22.43L24.9581 22.4292L24.9682 22.4211L24.9694 22.4202L24.9712 22.4188L24.9724 22.4178L24.9749 22.4158L24.9767 22.4144L24.9823 22.4098L24.9843 22.4084L24.9852 22.4075L24.9903 22.4034L24.9938 22.4006L25.0005 22.3953L25.0051 22.3916L25.0099 22.3877L25.0126 22.3856L25.0173 22.3819L25.0294 22.3721L25.0325 22.3697L25.049 22.3566L25.0566 22.3504L25.084 22.3285L25.0948 22.32L25.0965 22.3184L25.0974 22.3177L25.104 22.3126L25.1043 22.3122L25.1103 22.3074L25.1119 22.306L25.1137 22.3048L25.1186 22.3007L25.1353 22.2875L25.137 22.286L25.178 22.2533L25.2115 22.2265L25.2132 22.225L25.2171 22.2219L25.2231 22.2171L25.3103 22.1474L25.3124 22.1457L25.3147 22.1439L25.3243 22.1363L25.3405 22.1232L25.3451 22.1195L25.349 22.1165L25.355 22.1115L25.3623 22.1057L25.3649 22.1038L25.366 22.1027L25.3716 22.0983L25.3739 22.0965L25.3814 22.0905L25.3897 22.084L25.3941 22.0804L25.4043 22.0721L25.4065 22.0704L25.413 22.065L25.416 22.0628L25.4206 22.059L25.4236 22.0567L25.436 22.0468L25.4494 22.0361L25.4507 22.035L25.453 22.0332L25.4581 22.0292L25.4588 22.0285L25.4613 22.0265L25.4701 22.0194L25.4717 22.0182L25.4736 22.0168L25.4991 21.9963L25.5035 21.9927L25.5048 21.9917L25.5208 21.979L25.5233 21.977L25.5253 21.9754L25.5286 21.9728L25.5297 21.9719L25.5481 21.9572L25.5843 21.9282L25.5866 21.9263L25.5935 21.921L25.5939 21.9206L25.5955 21.9192L25.5969 21.9181L25.5972 21.9178L25.599 21.9164L25.6006 21.9151L25.6031 21.9132L25.6092 21.9082L25.61 21.9077L25.6204 21.8994L25.6209 21.8989L25.6229 21.8974L25.625 21.8957L25.6409 21.883L25.6412 21.8826L25.6428 21.8814L25.6434 21.8808L25.6464 21.8785L25.6481 21.8771L25.6494 21.8762L25.6575 21.8697L25.66 21.8676L25.6674 21.8617L25.6694 21.8601L25.6727 21.8575L25.6745 21.8559L25.6759 21.855L25.6763 21.8545L25.678 21.8532L25.6837 21.8487L25.6902 21.8435L25.6911 21.8428L25.707 21.8299L25.7121 21.8258L25.7144 21.8241L25.7189 21.8205L25.7316 21.8103L25.7362 21.8066L25.7532 21.793L25.7549 21.7915L25.7574 21.7896L25.7629 21.7852L25.7638 21.7845L25.7657 21.7831L25.7666 21.7824L25.7669 21.782L25.7723 21.7778L25.779 21.7725L25.7807 21.771L25.7809 21.7707L25.791 21.7627L25.7922 21.7618L25.7931 21.7611L25.7933 21.7608L25.7995 21.756L25.8018 21.7541L25.8023 21.7537L25.8028 21.7532L25.8055 21.7511L25.8083 21.7489L25.8085 21.7486L25.8127 21.7454L25.8134 21.7447L25.8138 21.7445L25.8143 21.744L25.8149 21.7436L25.8154 21.7431L25.8159 21.7428L25.82 21.7396V21.7394H25.8202L25.8209 21.7389L25.8212 21.7385L25.8218 21.7382L25.8226 21.7374L25.8237 21.7366L25.8241 21.7364L25.8251 21.7353L25.8256 21.735C26.5974 21.1176 26.7225 19.9914 26.1052 19.2195C25.7655 18.7952 25.2514 18.5481 24.7078 18.5481Z" fill="#EFF2FF"/>
<path d="M5.96188 6.62432H7.28678C7.65257 6.62432 7.94923 6.92098 7.94923 7.28677C7.94923 7.65256 7.65257 7.94922 7.28678 7.94922H5.96188C5.59609 7.94922 5.29943 7.65256 5.29943 7.28677C5.29943 6.92098 5.59609 6.62432 5.96188 6.62432Z" fill="#EFF2FF"/>
</svg>
