<svg width="152" height="48" viewBox="0 0 152 48" fill="none" xmlns="http://www.w3.org/2000/svg">
<rect x="0.25" y="0.25" width="151.5" height="47.5" rx="3.75" stroke="#E4E4E4" stroke-width="0.5"/>
<path d="M67.3657 23.5088H64.1538V25.915H67.9082V27H62.7949V19.1797H67.8706V20.2754H64.1538V22.4346H67.3657V23.5088ZM70.0996 21.1885L70.1372 21.8599C70.5669 21.3407 71.1309 21.0811 71.8291 21.0811C73.0394 21.0811 73.6553 21.7739 73.6768 23.1597V27H72.3716V23.2349C72.3716 22.866 72.291 22.5939 72.1299 22.4185C71.9723 22.2394 71.7127 22.1499 71.3511 22.1499C70.8247 22.1499 70.4326 22.388 70.1748 22.8643V27H68.8696V21.1885H70.0996ZM74.7832 24.0513C74.7832 23.1489 74.9945 22.4292 75.417 21.8921C75.8431 21.3514 76.4071 21.0811 77.1089 21.0811C77.7713 21.0811 78.2923 21.312 78.6719 21.7739L78.731 21.1885H79.9072V26.8228C79.9072 27.5854 79.6691 28.187 79.1929 28.6274C78.7202 29.0679 78.0811 29.2881 77.2754 29.2881C76.8493 29.2881 76.4321 29.1986 76.0239 29.0195C75.6193 28.8441 75.3114 28.6131 75.1001 28.3267L75.7178 27.5425C76.1188 28.0187 76.613 28.2568 77.2002 28.2568C77.6335 28.2568 77.9754 28.1387 78.2261 27.9023C78.4767 27.6696 78.6021 27.3258 78.6021 26.8711V26.479C78.2261 26.8979 77.7248 27.1074 77.0981 27.1074C76.4178 27.1074 75.861 26.8371 75.4277 26.2964C74.998 25.7557 74.7832 25.0073 74.7832 24.0513ZM76.083 24.1641C76.083 24.7477 76.2012 25.2078 76.4375 25.5444C76.6774 25.8774 77.0086 26.0439 77.4312 26.0439C77.9575 26.0439 78.3478 25.8184 78.6021 25.3672V22.8105C78.355 22.3701 77.9683 22.1499 77.4419 22.1499C77.0122 22.1499 76.6774 22.32 76.4375 22.6602C76.2012 23.0003 76.083 23.5016 76.083 24.1641ZM82.6411 27H81.3359V18.75H82.6411V27ZM85.4556 27H84.1504V21.1885H85.4556V27ZM84.0698 19.6792C84.0698 19.4787 84.1325 19.3122 84.2578 19.1797C84.3867 19.0472 84.5693 18.981 84.8057 18.981C85.042 18.981 85.2246 19.0472 85.3535 19.1797C85.4824 19.3122 85.5469 19.4787 85.5469 19.6792C85.5469 19.8761 85.4824 20.0409 85.3535 20.1733C85.2246 20.3022 85.042 20.3667 84.8057 20.3667C84.5693 20.3667 84.3867 20.3022 84.2578 20.1733C84.1325 20.0409 84.0698 19.8761 84.0698 19.6792ZM90.1392 25.4209C90.1392 25.1882 90.0425 25.0109 89.8491 24.8892C89.6593 24.7674 89.3424 24.66 88.8984 24.5669C88.4544 24.4738 88.0838 24.3556 87.7866 24.2124C87.1349 23.8973 86.8091 23.4408 86.8091 22.8428C86.8091 22.3415 87.0203 21.9225 87.4429 21.5859C87.8654 21.2493 88.4025 21.0811 89.0542 21.0811C89.7489 21.0811 90.3092 21.2529 90.7354 21.5967C91.165 21.9404 91.3799 22.3862 91.3799 22.9341H90.0747C90.0747 22.6834 89.9816 22.4757 89.7954 22.311C89.6092 22.1427 89.3621 22.0586 89.0542 22.0586C88.7677 22.0586 88.5332 22.1248 88.3506 22.2573C88.1715 22.3898 88.082 22.5671 88.082 22.7891C88.082 22.9896 88.1662 23.1453 88.3345 23.2563C88.5028 23.3674 88.8429 23.4801 89.355 23.5947C89.867 23.7057 90.2681 23.84 90.5581 23.9976C90.8517 24.1515 91.0684 24.3377 91.208 24.5562C91.3512 24.7746 91.4229 25.0396 91.4229 25.3511C91.4229 25.8739 91.2062 26.2982 90.7729 26.624C90.3397 26.9463 89.7721 27.1074 89.0703 27.1074C88.5941 27.1074 88.1698 27.0215 87.7974 26.8496C87.425 26.6777 87.1349 26.4414 86.9272 26.1406C86.7196 25.8398 86.6157 25.5158 86.6157 25.1685H87.8833C87.9012 25.4764 88.0176 25.7145 88.2324 25.8828C88.4473 26.0475 88.7319 26.1299 89.0864 26.1299C89.4302 26.1299 89.6916 26.0654 89.8706 25.9365C90.0496 25.804 90.1392 25.6322 90.1392 25.4209ZM93.8506 21.8223C94.2767 21.3281 94.8156 21.0811 95.4673 21.0811C96.7062 21.0811 97.3346 21.7882 97.3525 23.2026V27H96.0474V23.251C96.0474 22.8499 95.9596 22.5671 95.7842 22.4023C95.6123 22.234 95.3581 22.1499 95.0215 22.1499C94.4987 22.1499 94.1084 22.3826 93.8506 22.8481V27H92.5454V18.75H93.8506V21.8223Z" fill="black"/>
<path d="M33.5735 37.8222C26.268 37.8222 20.3249 31.879 20.3249 24.5735C20.3249 17.268 26.268 11.3249 33.5735 11.3249C40.879 11.3249 46.8222 17.268 46.8222 24.5735C46.8222 31.879 40.879 37.8222 33.5735 37.8222ZM33.5735 13.9747C27.7294 13.9747 22.9745 18.7294 22.9745 24.5735C22.9745 30.4177 27.7294 35.1726 33.5735 35.1726C39.4177 35.1726 44.1724 30.4177 44.1724 24.5735C44.1724 18.7294 39.4177 13.9745 33.5735 13.9747Z" fill="#DAE0FF"/>
<path d="M33.5735 37.8222C29.7969 37.8222 26.9492 32.1269 26.9492 24.5735C26.9492 17.0202 29.7969 11.3249 33.5735 11.3249C37.3502 11.3249 40.1979 17.0203 40.1979 24.5735C40.1979 32.1267 37.3502 37.8222 33.5735 37.8222ZM33.5735 13.9747C31.953 13.9747 29.599 18.1039 29.599 24.5735C29.599 31.0433 31.953 35.1726 33.5735 35.1726C35.194 35.1726 37.5481 31.0433 37.5481 24.5735C37.5481 18.1039 35.194 13.9745 33.5735 13.9747Z" fill="#DAE0FF"/>
<path d="M32.2486 14.637C32.2486 15.7347 31.359 16.6243 30.2613 16.6243C29.1637 16.6243 28.2741 15.7347 28.2741 14.637C28.2741 13.5394 29.1637 12.6498 30.2613 12.6498C31.359 12.6498 32.2486 13.5394 32.2486 14.637Z" fill="#B8C2FF"/>
<path d="M29.599 23.2486C29.599 23.9804 29.0059 24.5735 28.2741 24.5735C27.5424 24.5735 26.9492 23.9804 26.9492 23.2486C26.9492 22.5171 27.5424 21.9239 28.2741 21.9239C29.0059 21.9239 29.599 22.5171 29.599 23.2486Z" fill="#B8C2FF"/>
<path d="M40.1979 25.8984C40.1979 26.6302 39.6047 27.2233 38.873 27.2233C38.1414 27.2233 37.5481 26.6302 37.5481 25.8984C37.5481 25.1667 38.1414 24.5735 38.873 24.5735C39.6047 24.5735 40.1979 25.1667 40.1979 25.8984Z" fill="#B8C2FF"/>
<path d="M37.5481 35.1724C37.5481 35.9041 36.9549 36.4973 36.2233 36.4973C35.4916 36.4973 34.8984 35.9041 34.8984 35.1724C34.8984 34.4408 35.4916 33.8476 36.2233 33.8476C36.9549 33.8476 37.5481 34.4408 37.5481 35.1724Z" fill="#B8C2FF"/>
<path d="M33.5735 31.1979C26.0202 31.1979 20.3249 28.3502 20.3249 24.5735C20.3249 20.7969 26.0202 17.9492 33.5735 17.9492C41.1269 17.9492 46.8222 20.7969 46.8222 24.5735C46.8222 28.3502 41.1269 31.1979 33.5735 31.1979ZM33.5735 20.599C27.1037 20.599 22.9745 22.953 22.9745 24.5735C22.9745 26.194 27.1037 28.5481 33.5735 28.5481C40.0432 28.5481 44.1724 26.194 44.1724 24.5735C44.1724 22.953 40.0433 20.599 33.5735 20.599Z" fill="#DAE0FF"/>
<path d="M45.4973 27.8858C45.4973 28.9833 44.6076 29.873 43.5101 29.873C42.4124 29.873 41.5228 28.9833 41.5228 27.8858C41.5228 26.7882 42.4124 25.8984 43.5101 25.8984C44.6076 25.8984 45.4973 26.7882 45.4973 27.8858Z" fill="#B8C2FF"/>
<path d="M31.42 19.7702C31.9564 18.8079 32.2414 17.7259 32.2486 16.6243C32.2486 12.9657 29.2829 10 25.6243 10C21.9659 10 19 12.9657 19 16.6243C19 20.2829 21.9657 23.2486 25.6243 23.2486C26.7259 23.2414 27.8081 22.9564 28.7702 22.42L29.0502 22.6999C29.7818 23.4316 30.9681 23.4316 31.6997 22.7C31.6997 22.6999 31.6997 22.6999 31.6999 22.6999C32.4316 21.9681 32.4316 20.7818 31.6999 20.0501L31.42 19.7702Z" fill="#079CFF"/>
<path d="M25.6243 11.3249C22.6989 11.3283 20.3283 13.6989 20.3249 16.6243V16.6561L20.3251 16.6632V16.6793L20.3253 16.6862V16.6873L20.3254 16.6942V16.703L20.3256 16.7102V16.7182L20.3258 16.7253V16.7262L20.326 16.7329V16.7343L20.3261 16.7408V16.7421L20.3263 16.7488V16.7498L20.3265 16.7569V16.7571L20.3267 16.7643V16.7649L20.3268 16.7719V16.7728L20.327 16.7795L20.3272 16.781L20.3274 16.7875V16.7887L20.3275 16.7955L20.3277 16.7963L20.3279 16.8032V16.8039L20.3281 16.8105L20.3283 16.8117L20.3284 16.8183V16.8197L20.3286 16.8262L20.3288 16.8275L20.329 16.8342V16.8352L20.3293 16.8421V16.843L20.3297 16.8497V16.8503L20.33 16.8572V16.8582L20.3304 16.8649V16.8662L20.3307 16.8727V16.8741L20.3311 16.8807V16.8817L20.3314 16.8886V16.8892C20.3318 16.8939 20.332 16.8987 20.3321 16.9035L20.3323 16.9045L20.3327 16.9113V16.9123L20.333 16.919V16.9203L20.3334 16.927L20.3336 16.9279L20.3339 16.9349V16.9355L20.3343 16.9424L20.3344 16.9429L20.3348 16.95V16.9509L20.3353 16.9576V16.9586L20.3357 16.9655L20.3359 16.9664L20.3362 16.9733V16.974L20.3367 16.9813V16.9814L20.3373 16.9883V16.9892L20.3376 16.9958L20.3378 16.9972L20.3382 17.0037L20.3383 17.005L20.3389 17.0115V17.0127L20.3394 17.0195V17.0202L20.3399 17.0272V17.0274L20.3405 17.0347V17.0354L20.341 17.0421L20.3412 17.0433L20.3417 17.0499V17.0511L20.3422 17.0576L20.3424 17.0589L20.3429 17.0656V17.0661L20.3435 17.073L20.3436 17.0736L20.3442 17.0803V17.0813L20.3449 17.0879V17.0893L20.3456 17.0958V17.0969L20.3461 17.1036L20.3463 17.1048L20.3468 17.1114L20.347 17.1123L20.3475 17.1185L20.3477 17.1195L20.3482 17.1262L20.3484 17.1273L20.3489 17.1338L20.3491 17.1353L20.3498 17.1416V17.1429L20.3505 17.1494L20.3507 17.1505L20.3512 17.1574L20.3519 17.1648L20.3521 17.1651L20.3528 17.1722V17.1729L20.3535 17.1796L20.3537 17.1807L20.3544 17.1874L20.3546 17.1885L20.3553 17.1952V17.1961L20.356 17.203L20.3562 17.2033L20.3569 17.21V17.2109L20.3576 17.2176L20.3578 17.2187L20.3585 17.2252L20.3587 17.2265L20.3594 17.2332L20.3595 17.2341L20.3603 17.2408L20.3604 17.2419L20.3611 17.2484L20.3613 17.2488L20.362 17.2555L20.3622 17.2565L20.3629 17.2631L20.3631 17.2643L20.364 17.2707L20.3641 17.2721L20.3649 17.2785L20.365 17.2795L20.3659 17.2862V17.2869L20.3668 17.2937V17.2942L20.3677 17.3009L20.3679 17.302L20.3687 17.3085V17.3098L20.3696 17.3161L20.3698 17.3174L20.3707 17.3239L20.3709 17.325L20.3717 17.3317V17.3322L20.3726 17.3387L20.3728 17.3395L20.3737 17.3462L20.3739 17.3474L20.3748 17.3538L20.3749 17.355L20.3758 17.3614L20.376 17.3626L20.3771 17.3692V17.3699L20.3781 17.3769V17.3771L20.379 17.3838L20.3792 17.3847L20.3801 17.3913L20.3802 17.3925L20.3813 17.399L20.3815 17.4001L20.3824 17.4065L20.3825 17.4077L20.3836 17.4142V17.4151L20.3847 17.4218V17.4222L20.3857 17.4293V17.4298L20.3868 17.4365L20.387 17.4376L20.388 17.4441L20.3893 17.4515L20.3894 17.453L20.3905 17.4593V17.4602L20.3915 17.4667L20.3917 17.4673L20.3928 17.4738L20.393 17.4751L20.3938 17.4814L20.3942 17.4828L20.3953 17.489L20.3954 17.4903L20.3965 17.4968L20.3967 17.4977L20.3977 17.5044L20.3979 17.5051L20.399 17.5113L20.3992 17.5122L20.4002 17.5187L20.4004 17.52L20.4014 17.5263L20.4016 17.5276L20.4027 17.5339L20.403 17.5352L20.4043 17.5426L20.4055 17.5491V17.5497L20.4068 17.5562L20.4069 17.5571L20.408 17.5638L20.4082 17.5645L20.4094 17.5711L20.4096 17.5723L20.4106 17.5787L20.411 17.5799L20.4122 17.5873L20.4135 17.5939L20.4136 17.5942L20.4147 17.6006L20.4151 17.6018L20.4161 17.6082L20.4165 17.6094L20.4175 17.6156L20.4179 17.617L20.4191 17.6232L20.4193 17.6244L20.4205 17.6308L20.4207 17.6319L20.422 17.6379V17.6388L20.4232 17.645L20.4235 17.6464L20.4248 17.6526L20.425 17.654L20.4262 17.66L20.4266 17.6616L20.4278 17.6676L20.428 17.6688L20.4294 17.6754V17.6759L20.4308 17.6826V17.683L20.4322 17.6897L20.4324 17.6906L20.4336 17.6969L20.434 17.6982L20.4352 17.7045L20.4356 17.7058L20.4368 17.712L20.4372 17.7132L20.4384 17.7196L20.4386 17.7204L20.4398 17.7265L20.44 17.7273L20.4414 17.7337L20.4416 17.7349L20.443 17.7413L20.4433 17.7424L20.4446 17.7487L20.4449 17.7498L20.4464 17.7563L20.4465 17.757L20.4479 17.7638V17.7641L20.4494 17.7707L20.4497 17.7715L20.451 17.7777L20.4513 17.7791L20.4527 17.7853L20.4529 17.7866L20.4543 17.7928L20.4547 17.794L20.4561 17.8004L20.4578 17.8074V17.808L20.4594 17.8147L20.4596 17.8154L20.461 17.8217L20.4614 17.823L20.4628 17.8292L20.4632 17.8306L20.4646 17.8366L20.4649 17.838L20.4663 17.8442L20.4665 17.8451L20.4679 17.8513L20.4681 17.8518L20.4697 17.8583L20.4699 17.8592L20.4715 17.8654L20.4718 17.8668L20.4732 17.8728L20.4736 17.8743L20.475 17.8804L20.4753 17.8815L20.4771 17.8886L20.4785 17.8946L20.4789 17.8956L20.4803 17.902L20.4807 17.9031L20.4822 17.9091L20.4824 17.9105L20.484 17.9167L20.4844 17.9177L20.4858 17.9241L20.4861 17.9252L20.4877 17.9317H20.4879L20.4895 17.9384L20.4897 17.9391L20.4914 17.9457L20.4916 17.9466L20.4932 17.9528L20.4936 17.9542L20.4952 17.9602L20.4955 17.9614L20.4971 17.9676L20.4973 17.9687L20.499 17.9749V17.9754L20.5012 17.9828L20.5028 17.9888L20.5031 17.9902L20.5047 17.9962L20.5051 17.9977L20.5066 18.0035L20.507 18.0049L20.5088 18.0111L20.5089 18.012L20.5105 18.0178L20.5109 18.0189L20.5125 18.0249L20.5128 18.0261L20.5144 18.0321L20.515 18.0335L20.5164 18.0394L20.5169 18.041L20.5185 18.0466L20.5188 18.0482L20.5206 18.0542L20.521 18.0553L20.5224 18.061L20.5227 18.062L20.5245 18.0678L20.5249 18.0694L20.5264 18.0753L20.527 18.0769L20.5286 18.0825L20.5291 18.0841L20.5307 18.0899L20.5328 18.0974L20.533 18.0981L20.5348 18.1043L20.5349 18.105L20.5371 18.1124L20.5388 18.1182L20.5393 18.1196L20.5409 18.1255L20.5415 18.1271L20.5432 18.1329L20.5436 18.134L20.5454 18.1402L20.5455 18.1409L20.5475 18.1469L20.5477 18.1478L20.5496 18.1539L20.55 18.1552L20.5517 18.1612L20.5521 18.1624L20.554 18.1686L20.5542 18.1695L20.5561 18.1759L20.5563 18.1766L20.5583 18.1828L20.5584 18.1833L20.5606 18.1898L20.5607 18.1905L20.5627 18.1969L20.563 18.1978L20.565 18.2042L20.5653 18.205L20.5673 18.2112L20.5675 18.2123L20.5698 18.2192L20.5717 18.2255L20.5719 18.2259L20.5738 18.2323L20.5742 18.2333L20.5761 18.2393L20.5767 18.2406L20.5786 18.2466L20.5788 18.2476L20.5809 18.2538L20.5811 18.2545C20.5825 18.259 20.5841 18.2636 20.5855 18.2678L20.5857 18.2683L20.5876 18.2747L20.5881 18.2752L20.5901 18.2812L20.5904 18.2827L20.5924 18.2885L20.5929 18.2897L20.5949 18.2956L20.5952 18.2968L20.5972 18.3026L20.5975 18.3035L20.5998 18.3104L20.6018 18.3164L20.6023 18.3177L20.6042 18.3235L20.6048 18.3247L20.6067 18.3307L20.6071 18.3318L20.6092 18.338L20.6095 18.3389L20.6117 18.3451V18.3452L20.6138 18.3516L20.6143 18.3525L20.6163 18.3585L20.6168 18.3597L20.6187 18.3656L20.6193 18.3668L20.6214 18.3728L20.6217 18.3739L20.6239 18.3801L20.624 18.3808L20.6263 18.3871V18.3873L20.6286 18.3935L20.629 18.3946L20.6311 18.4006L20.6316 18.4018L20.6336 18.4075L20.6341 18.4091L20.6362 18.4149L20.6366 18.4158L20.6387 18.422L20.6391 18.4227L20.6414 18.4287L20.6415 18.4292L20.6437 18.4354L20.644 18.4365L20.6463 18.4425L20.6467 18.4434L20.649 18.4495L20.6493 18.4504L20.6514 18.4566L20.6518 18.4575L20.6541 18.4635L20.6543 18.4644L20.6566 18.4702L20.6567 18.4709L20.659 18.4771L20.6594 18.4782L20.6617 18.484L20.662 18.4853L20.6643 18.4911L20.6647 18.4922L20.667 18.4982L20.6673 18.499L20.6696 18.5051L20.6698 18.5056L20.6721 18.5114L20.6725 18.5127L20.6746 18.5183L20.6753 18.5199L20.6774 18.5254L20.6801 18.5325L20.6806 18.5337L20.6829 18.5395L20.6833 18.5402L20.6856 18.5463L20.6857 18.547L20.6882 18.553L20.6884 18.5539L20.6912 18.5609L20.6935 18.5669L20.6939 18.5678L20.6963 18.5738L20.6967 18.5749L20.6992 18.5809L20.6993 18.5816L20.7016 18.5876L20.702 18.5882L20.7045 18.5943L20.7048 18.595L20.7071 18.6009L20.7077 18.6023L20.71 18.608L20.7103 18.609L20.7128 18.615L20.7156 18.6221L20.7158 18.6226L20.7183 18.6285L20.7186 18.6293L20.7211 18.6352L20.7214 18.6362L20.7239 18.6421L20.7243 18.6431L20.7268 18.6491L20.7271 18.6499L20.7298 18.656L20.7299 18.6566C20.7317 18.661 20.7335 18.6654 20.7354 18.6697V18.67L20.7381 18.6762L20.7384 18.6771L20.7409 18.6831L20.7412 18.6838L20.7439 18.69L20.7443 18.6905L20.7469 18.6969L20.7471 18.6972C20.7489 18.7017 20.7508 18.7059 20.7526 18.7101L20.7529 18.7108L20.7554 18.7169L20.7559 18.7177L20.7584 18.7236L20.7589 18.7246L20.7614 18.7306L20.7618 18.7314L20.7644 18.7374L20.7648 18.7383C20.7665 18.7423 20.7683 18.7464 20.7702 18.7506L20.7706 18.7513L20.7732 18.7573L20.7736 18.7582L20.7763 18.7641L20.7766 18.7651L20.7793 18.7711L20.7796 18.7717L20.7823 18.778L20.7824 18.7782L20.7853 18.7846L20.7854 18.7849L20.7881 18.7908L20.7886 18.7918L20.7913 18.7978L20.7916 18.7985L20.7943 18.8046L20.7946 18.8054L20.7975 18.8114L20.7976 18.812L20.8005 18.8183H20.8007L20.8035 18.8247L20.8037 18.8251L20.8063 18.8311L20.8068 18.832L20.8095 18.8378L20.81 18.8388L20.8125 18.8445L20.8132 18.8457L20.8159 18.8514L20.8162 18.8523L20.819 18.8583L20.822 18.8647L20.8222 18.865L20.825 18.871L20.8254 18.8721L20.8282 18.8777L20.8286 18.8786L20.8314 18.8845L20.8318 18.8853L20.8346 18.8914L20.8348 18.8917L20.8376 18.8979L20.838 18.8983L20.8408 18.9044L20.8411 18.905L20.844 18.9108L20.8443 18.9119L20.8471 18.9177L20.8475 18.9182L20.8505 18.9244L20.8507 18.9251L20.8539 18.9315L20.8569 18.9377L20.857 18.9379L20.8599 18.9439L20.8602 18.9447L20.8631 18.9504L20.8638 18.9516L20.8664 18.9571L20.8669 18.9584L20.8698 18.9638L20.8701 18.9649L20.8731 18.9707L20.8733 18.9711L20.8763 18.9769L20.8765 18.9775L20.8799 18.9842L20.8827 18.99L20.8832 18.9909L20.886 18.9967L20.8866 18.9976L20.8894 19.0033L20.8899 19.0042C20.8921 19.0082 20.894 19.0121 20.8959 19.0162L20.8993 19.0229L20.8997 19.0234L20.9027 19.0293L20.9032 19.0301L20.9064 19.0365L20.9096 19.0427L20.9097 19.043C20.9119 19.0471 20.914 19.0512 20.9161 19.0552L20.9165 19.0561L20.9195 19.0618L20.9198 19.0625L20.923 19.0683L20.9233 19.0692L20.9264 19.0749L20.9267 19.0758L20.9299 19.0816L20.9301 19.0819L20.9332 19.088L20.9334 19.0883L20.9366 19.0943L20.9368 19.095L20.94 19.1007L20.9403 19.1016L20.9433 19.1072L20.9439 19.1081L20.9469 19.1139L20.9472 19.1146L20.9539 19.127L20.9573 19.133L20.9575 19.1337L20.9607 19.1396L20.961 19.1401L20.9642 19.1461L20.9645 19.1466L20.9677 19.1527L20.9681 19.153L20.9713 19.1592H20.9714L20.9748 19.1654L20.975 19.1657L20.9782 19.1716L20.9785 19.1725L20.9817 19.1781L20.982 19.1788L20.9852 19.1845L20.9858 19.1854L20.9889 19.1912L20.9891 19.1916C20.9914 19.1956 20.9937 19.1999 20.996 19.2039L20.9962 19.2041L20.9994 19.2099L20.9999 19.2108L21.0031 19.2165L21.0034 19.2172L21.0068 19.2228L21.0071 19.2236L21.0105 19.2294V19.2296L21.014 19.2358L21.0142 19.2359L21.0176 19.2419L21.0178 19.2423L21.0211 19.2481L21.0215 19.2488L21.0248 19.2545L21.0252 19.2552L21.0285 19.261L21.0289 19.2616C21.0323 19.2678 21.036 19.2738 21.0393 19.2798L21.0397 19.2803L21.043 19.286L21.0434 19.2868L21.0467 19.2925L21.0471 19.2932L21.0505 19.2989L21.0508 19.2994C21.0531 19.3035 21.0554 19.3074 21.0577 19.3114L21.0581 19.312L21.0614 19.3176L21.0618 19.3183L21.0651 19.324L21.0657 19.3247L21.069 19.3303L21.0696 19.331L21.0727 19.3367L21.0733 19.3372C21.0756 19.3411 21.0779 19.345 21.0802 19.3489L21.0805 19.3496L21.0839 19.3551L21.0876 19.3613L21.0883 19.3623L21.0917 19.3678L21.092 19.3685L21.0955 19.3742L21.0957 19.3745L21.0994 19.3805L21.103 19.3864L21.1033 19.3871L21.1067 19.3927L21.107 19.3933L21.1106 19.3989L21.1111 19.3996L21.1145 19.4051L21.1148 19.4058L21.1184 19.4115L21.1185 19.4118L21.1222 19.4179L21.126 19.4237L21.1261 19.424L21.1298 19.4299L21.1302 19.4304L21.1337 19.4361L21.1341 19.4368L21.1378 19.4424L21.138 19.4428C21.1417 19.4486 21.1456 19.4546 21.1493 19.4606L21.1498 19.4613L21.1534 19.467L21.1537 19.4674L21.1572 19.4732L21.1576 19.4737C21.1626 19.4817 21.1679 19.4898 21.173 19.4976L21.1733 19.4981L21.177 19.5038L21.1772 19.5043L21.1809 19.5098L21.1813 19.5107L21.185 19.5161L21.1852 19.5165C21.1878 19.5206 21.1903 19.5243 21.193 19.5283L21.1931 19.5285L21.1968 19.5344L21.1972 19.5347L21.2009 19.5404L21.2013 19.5409L21.205 19.5466L21.2053 19.5469L21.2092 19.5527L21.217 19.5646L21.2174 19.5651L21.2211 19.5708L21.2214 19.5711L21.2251 19.5768L21.2255 19.5771L21.2294 19.583C21.2334 19.5892 21.2375 19.595 21.2416 19.601L21.2418 19.6012L21.2456 19.6068L21.246 19.6074L21.2499 19.613V19.6132C21.2568 19.6233 21.2635 19.633 21.2706 19.6429L21.2707 19.6433L21.2746 19.6489L21.2748 19.6493L21.2789 19.6549L21.2791 19.6553L21.2874 19.667V19.6671L21.2914 19.6728L21.2916 19.6731L21.2955 19.6788L21.2959 19.6792C21.3013 19.6869 21.3068 19.6945 21.3125 19.7025L21.3126 19.7027L21.3167 19.7083L21.3169 19.7087L21.321 19.7143L21.3211 19.7145C21.3268 19.7225 21.3323 19.7301 21.3379 19.7378L21.3381 19.7382L21.3422 19.7439L21.3424 19.744L21.3464 19.7495L21.3469 19.7502L21.3508 19.7555L21.351 19.7557C21.3553 19.7617 21.3595 19.7672 21.3637 19.773L21.3639 19.7734L21.3682 19.7789L21.3683 19.7792L21.3726 19.7847L21.3728 19.7851C21.3784 19.7928 21.3841 19.8003 21.3899 19.808L21.3901 19.8082L21.3943 19.8139L21.3945 19.814L21.3987 19.8197L21.3989 19.8199C21.4048 19.8277 21.4104 19.8351 21.4164 19.8429V19.843L21.4208 19.8487L21.4253 19.8545C21.4313 19.8621 21.4371 19.8696 21.4429 19.8773L21.4431 19.8775L21.4475 19.8832L21.4521 19.8888V19.889C21.4566 19.8947 21.461 19.9003 21.4656 19.906L21.47 19.9115L21.4702 19.9118L21.4746 19.9173C21.4792 19.9231 21.4836 19.9286 21.4882 19.9343V19.9344L21.4926 19.9399L21.4928 19.9401L21.4972 19.9456L21.4974 19.9459L21.5018 19.9514H21.502C21.508 19.959 21.514 19.9664 21.5202 19.974L21.5248 19.9795L21.525 19.9797C21.5342 19.991 21.5434 20.0022 21.5526 20.0133H21.5527C21.5589 20.0207 21.5651 20.028 21.5713 20.0354V20.0356L21.5759 20.0411H21.5761L21.5807 20.0465L21.5808 20.0467C21.587 20.0541 21.5932 20.0612 21.5996 20.0686V20.0688L21.6042 20.0743H21.6044C21.6121 20.0835 21.6201 20.0925 21.6281 20.1017V20.1019L21.6326 20.1072L21.6328 20.1074L21.6374 20.1127L21.6378 20.1128C21.644 20.1201 21.6505 20.1273 21.6569 20.1344V20.1346C22.4901 21.0781 23.6322 21.6939 24.8782 21.8718C25.6027 21.9743 26.2732 21.4701 26.3757 20.7456C26.4781 20.0211 25.9738 19.3507 25.2493 19.2481C23.8007 19.0411 22.794 17.6987 23.001 16.25C23.1876 14.9446 24.3054 13.975 25.6241 13.9749C25.7799 13.9749 25.9355 13.9883 26.0888 14.0154C26.8094 14.1427 27.4967 13.6618 27.624 12.9412C27.7512 12.2211 27.271 11.5342 26.5511 11.4062C26.5063 11.3984 26.4614 11.391 26.4165 11.3843H26.4164C26.4118 11.3836 26.4072 11.3829 26.4024 11.3822H26.402L26.3955 11.3811H26.3946L26.3884 11.3801L26.3872 11.3799L26.3815 11.3792L26.3803 11.379L26.3746 11.3781L26.373 11.3779L26.3674 11.3772L26.3654 11.3769L26.36 11.3762L26.358 11.3758L26.3538 11.3753L26.3508 11.3749L26.3465 11.3742L26.3439 11.3739L26.3391 11.3733L26.3361 11.3728L26.3329 11.3725L26.3285 11.3717L26.3258 11.3714L26.3207 11.3707L26.3184 11.3705L26.3149 11.37L26.3126 11.3696L26.3071 11.3689L26.305 11.3687L26.2995 11.368L26.2974 11.3677L26.2901 11.3668H26.2898L26.2857 11.3663L26.2778 11.3654L26.2769 11.3652L26.2694 11.3643H26.2689C26.262 11.3634 26.2555 11.3626 26.2486 11.3618H26.2482C26.1597 11.3512 26.0707 11.3431 25.9809 11.3371H25.9807C25.9737 11.3367 25.9668 11.3362 25.9599 11.3357H25.9595L25.9517 11.3353H25.9509L25.9431 11.3348H25.9429C25.9388 11.3346 25.9348 11.3343 25.9307 11.3341L25.9295 11.3339L25.9224 11.3336H25.9213L25.9139 11.3332L25.9132 11.333L25.9091 11.3329H25.9082L25.9014 11.3325L25.8994 11.3323L25.8938 11.3321L25.8915 11.332L25.8876 11.3318L25.8835 11.3316L25.8801 11.3314L25.8775 11.3313L25.8724 11.3311L25.8697 11.3309L25.8648 11.3307L25.8619 11.3306L25.8584 11.3304L25.854 11.3302L25.8506 11.33H25.848L25.843 11.3298L25.84 11.3297L25.8365 11.3295L25.8322 11.3293H25.8292L25.8243 11.3291L25.8214 11.329L25.8181 11.3288H25.8138L25.8103 11.3286L25.8075 11.3284L25.8027 11.3283H25.7997L25.7946 11.3281L25.7923 11.3279H25.788L25.785 11.3277L25.7804 11.3275H25.7781L25.7728 11.3274H25.7703L25.765 11.3272H25.7631L25.7583 11.327H25.7566L25.7509 11.3268H25.7488L25.7431 11.3267H25.741L25.7359 11.3265H25.7339L25.7286 11.3263H25.727L25.721 11.3261H25.712L25.7058 11.326H25.6975L25.6911 11.3258H25.6756L25.6694 11.3256H25.6309L25.6243 11.3249Z" fill="#5CBEFF"/>
<path d="M25.6243 10H25.5633L25.5605 10.0002H25.5425L25.5393 10.0004H25.5317L25.5287 10.0005H25.5211L25.5181 10.0007H25.5106L25.5075 10.0009H25.5L25.4968 10.0011H25.4892L25.4862 10.0012H25.4788L25.4756 10.0014H25.4735L25.4703 10.0016H25.4684L25.465 10.0018H25.4597L25.4576 10.0019H25.4521L25.4491 10.0023H25.447L25.4438 10.0025H25.4385L25.4364 10.0027H25.4309L25.4279 10.0028H25.4258L25.4226 10.003H25.4205L25.4173 10.0032H25.412L25.41 10.0034H25.4049L25.4012 10.0035L25.3996 10.0037H25.3957L25.3945 10.0039H25.3906L25.3888 10.0041L25.3853 10.0042H25.3839L25.3802 10.0044L25.3784 10.0046H25.3747L25.3731 10.0048H25.3694L25.3678 10.005L25.3642 10.0051H25.3625L25.3591 10.0053H25.3572L25.3535 10.0055L25.352 10.0057H25.3483L25.3466 10.0058L25.343 10.006H25.3414L25.3379 10.0062H25.3361L25.3321 10.0064L25.331 10.0065L25.3269 10.0067H25.3255L25.3216 10.0069H25.3204L25.3163 10.0071H25.3151L25.3101 10.0074H25.31L25.3056 10.0076H25.3045L25.2944 10.0081H25.2941L25.2842 10.0087H25.2835C25.2622 10.0097 25.2412 10.011 25.2202 10.0122H25.22C25.2129 10.0126 25.2062 10.0131 25.1991 10.0136H25.1984L25.1938 10.0138L25.1931 10.014L25.1887 10.0141L25.1876 10.0143L25.1834 10.0145H25.1825L25.1783 10.0149H25.177L25.173 10.0152H25.1721L25.1678 10.0156H25.1668L25.1625 10.0159H25.1615L25.1576 10.0163H25.1558L25.1521 10.0166H25.1509L25.1471 10.017L25.1456 10.0171L25.1417 10.0173L25.1406 10.0175L25.1365 10.0177L25.1351 10.0179L25.1312 10.018L25.1298 10.0182L25.1261 10.0184L25.1245 10.0186L25.1208 10.0187L25.1192 10.0189L25.1159 10.0193L25.1137 10.0194L25.1105 10.0196L25.1086 10.0198L25.1054 10.02L25.1033 10.0202L25.0999 10.0205L25.0983 10.0207L25.0948 10.0209L25.0929 10.021L25.0897 10.0214L25.0877 10.0216L25.0844 10.0217L25.0824 10.0219L25.0791 10.0223H25.0773L25.0741 10.0226L25.0718 10.0228L25.0688 10.0232L25.0669 10.0233L25.0633 10.0235L25.0618 10.0237L25.058 10.024H25.0566L25.0531 10.0244L25.0511 10.0246L25.0478 10.0249L25.046 10.0251L25.0425 10.0253L25.0409 10.0255L25.0374 10.0258L25.0354 10.026L25.0326 10.0262L25.0303 10.0263L25.0271 10.0267L25.0252 10.0269L25.022 10.0272L25.0199 10.0274L25.0168 10.0276L25.0145 10.0278L25.0119 10.0279L25.0092 10.0283L25.0066 10.0285L25.0041 10.0288L25.0013 10.029L24.999 10.0292L24.9962 10.0295L24.9937 10.0297L24.9914 10.0299L24.9884 10.0302L24.9863 10.0304L24.9833 10.0308L24.981 10.0309L24.9781 10.0311L24.9757 10.0315L24.973 10.0316L24.9709 10.0318L24.9677 10.0322L24.9624 10.0327L24.9604 10.0329L24.9574 10.0332L24.9551 10.0334L24.9521 10.0338L24.9509 10.0339L24.9417 10.0348H24.9414L24.9366 10.0354H24.9364C24.8885 10.0403 24.8408 10.0458 24.793 10.0518C24.6295 10.0721 24.4681 10.0987 24.3084 10.1308C23.9497 10.2028 23.7174 10.552 23.7894 10.9107C23.8615 11.2694 24.2105 11.5017 24.5692 11.4297C24.5696 11.4297 24.5699 11.4296 24.5703 11.4296C24.9175 11.3597 25.2705 11.3247 25.6247 11.3247C28.5501 11.3281 30.9209 13.6989 30.9241 16.6243C30.9241 17.4779 30.6996 18.3233 30.2569 19.1367C29.9759 19.6526 30.0682 20.2917 30.4835 20.707L30.7634 20.9869C30.9782 21.2007 30.9791 21.5481 30.7653 21.7629C30.5514 21.9777 30.204 21.9785 29.9892 21.7648C29.9885 21.7641 29.988 21.7636 29.9874 21.7629L29.7074 21.4832C29.2923 21.0677 28.653 20.9754 28.1373 21.2563C27.4577 21.6354 26.7029 21.8601 25.9268 21.9144C25.5615 21.937 25.284 22.2515 25.3066 22.6166C25.3284 22.9656 25.6176 23.2377 25.9673 23.238C25.9811 23.238 25.9951 23.2375 26.009 23.2366C26.9184 23.1753 27.8053 22.9255 28.613 22.5033L28.6132 22.5031L28.6231 22.4981V22.498C28.633 22.493 28.6427 22.4879 28.6526 22.4828L28.6528 22.4826L28.6576 22.4801L28.6578 22.4799L28.6624 22.4776L28.6629 22.4773L28.6678 22.4748C28.6758 22.4706 28.6837 22.4663 28.6917 22.4623L28.6924 22.4619L28.6963 22.4598L28.6974 22.4591L28.7011 22.4573L28.7027 22.4562L28.708 22.4536L28.7111 22.4518L28.7133 22.4508L28.718 22.4481L28.7216 22.4462L28.7223 22.4458L28.7299 22.4417L28.7317 22.4409L28.7347 22.4393L28.7368 22.4382L28.7396 22.4366L28.7421 22.4352L28.7447 22.4338L28.7472 22.4324L28.7552 22.4281L28.7576 22.4267L28.7603 22.4253L28.7633 22.4235L28.7654 22.4225L28.7706 22.4196L29.0504 22.6995C29.7822 23.4313 30.9685 23.4313 31.7002 22.6995C32.432 21.9679 32.432 20.7815 31.7002 20.0499L31.4203 19.7699C31.9567 18.8077 32.2417 17.7256 32.249 16.624C32.2486 12.9657 29.2829 10 25.6243 10Z" fill="#0784FF"/>
<path d="M41.5228 25.8984C40.4211 25.9057 39.339 26.1907 38.3767 26.7271L38.0968 26.4472C37.3653 25.7155 36.179 25.7155 35.4472 26.4472C34.7155 27.1788 34.7155 28.3651 35.4472 29.0968L35.7271 29.3767C35.1907 30.339 34.9057 31.4211 34.8984 32.5228C34.8984 36.1812 37.8642 39.1471 41.5228 39.1471C45.1812 39.1471 48.1471 36.1813 48.1471 32.5228C48.1471 28.8642 45.1813 25.8984 41.5228 25.8984Z" fill="#FFBE00"/>
<path d="M41.4298 35.1708C40.0081 35.1103 38.8836 33.9458 38.8729 32.5228C38.8729 32.111 38.9857 31.7037 39.2184 31.2769L39.5914 30.5913L40.2774 30.2181C40.7037 29.9858 41.111 29.873 41.5227 29.873C42.2545 29.8728 42.8475 29.2793 42.8471 28.5477C42.8469 27.8163 42.2541 27.2235 41.5227 27.2233C40.6688 27.2233 39.8239 27.4477 39.0101 27.8909L38.1401 28.3644L37.16 27.3837C36.9455 27.1696 36.598 27.1698 36.3837 27.3842C36.1698 27.5985 36.1698 27.9454 36.3835 28.1598L36.3837 28.16L37.3644 29.1402L36.8909 30.0102C36.4479 30.8241 36.2233 31.6688 36.2233 32.5228V32.5397C36.2233 32.5424 36.2233 32.5449 36.2233 32.5475V32.5565C36.2235 32.5592 36.2235 32.5617 36.2235 32.5641V32.565C36.2235 32.5675 36.2235 32.5698 36.2235 32.5724V32.5733C36.2235 32.5758 36.2237 32.5785 36.2237 32.5808V32.5818C36.2237 32.5841 36.2237 32.5866 36.2237 32.5891V32.5901C36.2239 32.5926 36.2239 32.5951 36.2239 32.5976V32.5984C36.2239 32.6009 36.2239 32.6034 36.224 32.6059V32.6069C36.224 32.6092 36.224 32.6117 36.2242 32.6142V32.6152C36.2242 32.6177 36.2242 32.62 36.2242 32.6225L36.2244 32.6237C36.2244 32.6262 36.2244 32.6285 36.2244 32.6308L36.2246 32.632C36.2246 32.6345 36.2246 32.6368 36.2247 32.6393V32.6405C36.2247 32.643 36.2247 32.6453 36.2249 32.6476V32.6488C36.2249 32.6513 36.2251 32.6534 36.2251 32.6559L36.2253 32.6571C36.2253 32.6596 36.2253 32.6619 36.2254 32.6644V32.6654L36.2256 32.6727V32.6738L36.2258 32.6812V32.6821L36.226 32.6895V32.6904L36.2263 32.6978V32.6985L36.2265 32.7063V32.7068L36.2269 32.7146V32.7151L36.2272 32.7227V32.7233C36.2272 32.7257 36.2274 32.7286 36.2274 32.731V32.7316C36.2276 32.734 36.2277 32.7365 36.2277 32.7392V32.7399C36.2279 32.7425 36.2279 32.7448 36.2281 32.7473V32.7482L36.2285 32.7554V32.7565C36.2286 32.759 36.2286 32.7616 36.2288 32.7639V32.7648C36.229 32.7673 36.2292 32.7698 36.2292 32.7722V32.7733C36.2293 32.7756 36.2295 32.7781 36.2297 32.7805V32.7814C36.2299 32.7839 36.2299 32.7864 36.23 32.7887V32.7897C36.2302 32.7922 36.2302 32.7947 36.2304 32.7972V32.798C36.2306 32.8005 36.2306 32.8028 36.2309 32.8053V32.8065C36.2311 32.809 36.2311 32.8111 36.2313 32.8136C36.2313 32.8139 36.2313 32.8145 36.2313 32.815C36.2315 32.8173 36.2316 32.8194 36.2318 32.8219V32.8233C36.232 32.8256 36.232 32.8279 36.2322 32.8302L36.2323 32.8315C36.2325 32.8339 36.2325 32.8362 36.2327 32.8385L36.2329 32.8398C36.233 32.8422 36.233 32.8444 36.2332 32.8468L36.2334 32.8481C36.2336 32.8505 36.2336 32.8527 36.2338 32.8551V32.8562L36.2343 32.8635L36.2345 32.8645C36.2346 32.8668 36.2348 32.8693 36.2348 32.8718L36.235 32.8728L36.2353 32.8801L36.2355 32.8808L36.2361 32.8882V32.8893L36.2366 32.8967L36.2368 32.8972C36.2369 32.8997 36.2369 32.9023 36.2373 32.9048V32.9054C36.2375 32.908 36.2376 32.9107 36.2378 32.9133V32.9135C36.238 32.9161 36.2382 32.9186 36.2384 32.9213L36.2385 32.9216C36.2387 32.9243 36.2389 32.9269 36.2391 32.9297C36.2394 32.9324 36.2396 32.9349 36.2398 32.9375V32.9382C36.2399 32.9407 36.2401 32.9432 36.2405 32.9457V32.9464C36.2407 32.9488 36.2408 32.9511 36.241 32.9536L36.2412 32.9547C36.2414 32.9572 36.2415 32.9596 36.2417 32.9621V32.9628C36.2419 32.9653 36.2422 32.9678 36.2424 32.9701V32.9713C36.2428 32.9736 36.2429 32.9759 36.2431 32.9782V32.9794C36.2435 32.9819 36.2437 32.984 36.2438 32.9865V32.9877C36.244 32.99 36.2444 32.9925 36.2445 32.9948L36.2447 32.9959C36.2449 32.9982 36.2451 33.0005 36.2452 33.0029L36.2454 33.0042C36.2456 33.0067 36.2458 33.0088 36.246 33.0111L36.2461 33.0123C36.2463 33.0146 36.2465 33.0169 36.2467 33.0192L36.2468 33.0204C36.247 33.0229 36.2474 33.0252 36.2475 33.0277V33.0286L36.2484 33.0358V33.0369C36.2486 33.0392 36.249 33.0417 36.2491 33.044L36.2493 33.045C36.2495 33.0473 36.2497 33.0498 36.2498 33.0521L36.25 33.0533L36.2507 33.0604L36.2509 33.0613C36.2511 33.0636 36.2514 33.0662 36.2516 33.0687V33.0694C36.252 33.0719 36.2521 33.0744 36.2525 33.0768V33.0774C36.2529 33.0798 36.253 33.0825 36.2534 33.0848V33.0859C36.2537 33.0883 36.2541 33.0905 36.2543 33.0931V33.0938C36.2546 33.0965 36.255 33.0988 36.2551 33.1012V33.1019C36.2555 33.1044 36.2559 33.1067 36.256 33.1094L36.2562 33.1099C36.2564 33.1124 36.2567 33.1149 36.2569 33.1173L36.2571 33.118C36.2573 33.1203 36.2576 33.1232 36.2578 33.1256L36.258 33.126C36.2583 33.1285 36.2585 33.1311 36.2589 33.1336V33.1341C36.2592 33.1368 36.2596 33.1391 36.2597 33.1415L36.2599 33.1424C36.2601 33.1447 36.2605 33.1472 36.2608 33.1497V33.1506C36.2612 33.153 36.2615 33.1555 36.2617 33.1578L36.2619 33.1587C36.2622 33.1612 36.2624 33.1636 36.2628 33.1659L36.2629 33.167C36.2631 33.1693 36.2635 33.1716 36.2638 33.1741L36.264 33.1751C36.2642 33.1774 36.2645 33.1796 36.2649 33.182L36.265 33.1833C36.2652 33.1857 36.2656 33.1879 36.2658 33.1902L36.2659 33.1914C36.2663 33.1939 36.2666 33.196 36.2668 33.1985L36.267 33.1995C36.2673 33.2018 36.2677 33.2041 36.2681 33.2066L36.2682 33.2077C36.2684 33.2101 36.2688 33.2123 36.2691 33.2146L36.2693 33.216L36.2702 33.2229L36.2704 33.2238L36.2712 33.231L36.2714 33.2321C36.2718 33.2344 36.2719 33.2367 36.2723 33.239L36.2725 33.2402L36.2735 33.2471L36.2737 33.2483L36.2746 33.2554L36.2748 33.2561C36.2751 33.2586 36.2755 33.2611 36.2757 33.2635L36.2758 33.2642C36.2762 33.2667 36.2765 33.2692 36.2769 33.2717V33.2722L36.278 33.2796L36.2781 33.2805C36.2785 33.283 36.2788 33.2853 36.2792 33.2879L36.2794 33.2885C36.2797 33.2909 36.2801 33.2934 36.2804 33.2959V33.2962C36.2808 33.2987 36.2813 33.3014 36.2815 33.3037L36.2817 33.3046C36.282 33.3069 36.2824 33.3092 36.2827 33.3116L36.2829 33.3123C36.2833 33.3148 36.2836 33.3173 36.284 33.3198L36.2841 33.3203C36.2845 33.3228 36.2849 33.3252 36.2852 33.3279L36.2854 33.3284C36.2857 33.3309 36.2861 33.3334 36.2864 33.3358L36.2866 33.3364L36.2877 33.3436L36.2879 33.3447C36.2882 33.347 36.2886 33.3493 36.2889 33.3516L36.2891 33.3526C36.2894 33.3551 36.2898 33.3572 36.2902 33.3595L36.2905 33.3608C36.2907 33.3631 36.2912 33.3654 36.2914 33.3677L36.2917 33.3687C36.2919 33.3712 36.2923 33.3732 36.2928 33.3756L36.293 33.3769C36.2933 33.3793 36.2937 33.3815 36.294 33.3838L36.2942 33.385C36.2948 33.3873 36.2949 33.3896 36.2955 33.3919L36.2956 33.393C36.296 33.3952 36.2963 33.3974 36.2967 33.3998L36.2969 33.4011L36.2981 33.4078L36.2983 33.4092L36.2993 33.4158L36.2997 33.4172C36.3001 33.4195 36.3004 33.4216 36.3008 33.4239L36.3009 33.4251C36.3015 33.4274 36.3018 33.4295 36.3022 33.4318L36.3024 33.4333C36.3027 33.4354 36.3032 33.4377 36.3036 33.44L36.3038 33.4412C36.3041 33.4433 36.3045 33.4458 36.305 33.4481L36.3052 33.449C36.3055 33.4515 36.3059 33.4538 36.3064 33.4561L36.3066 33.4571C36.3069 33.4596 36.3075 33.4617 36.308 33.4642V33.4647C36.3085 33.4672 36.3089 33.4695 36.3094 33.4722L36.3096 33.4729C36.31 33.4753 36.3105 33.4776 36.3108 33.4801L36.311 33.4806C36.3114 33.4831 36.3119 33.4858 36.3123 33.4881L36.3124 33.4886C36.3128 33.4911 36.3133 33.4937 36.3138 33.4962L36.3153 33.5038V33.5043C36.3158 33.5068 36.3161 33.5091 36.3167 33.5116L36.3169 33.5123C36.3174 33.5148 36.3177 33.5169 36.3181 33.5194L36.3184 33.5202C36.3188 33.5227 36.3193 33.525 36.3197 33.5273L36.3199 33.5282C36.3204 33.5305 36.3209 33.533 36.3213 33.5351L36.3214 33.5363C36.3218 33.5386 36.3223 33.5409 36.3229 33.5431L36.323 33.5443C36.3234 33.5464 36.3239 33.5487 36.3243 33.551L36.3246 33.5524C36.325 33.5545 36.3255 33.5567 36.3259 33.559L36.3262 33.5604C36.3266 33.5625 36.3271 33.5646 36.3275 33.5667L36.3278 33.5685C36.3282 33.5705 36.3287 33.5728 36.329 33.5749L36.3294 33.5763C36.3298 33.5786 36.3303 33.5805 36.3308 33.5828L36.331 33.5841C36.3315 33.5865 36.3319 33.5887 36.3324 33.591L36.3326 33.592C36.3331 33.5943 36.3335 33.5964 36.334 33.5987L36.3344 33.6C36.3347 33.6023 36.3352 33.6044 36.3356 33.6067L36.3358 33.6079C36.3363 33.6102 36.3368 33.6124 36.3372 33.6147L36.3375 33.6159C36.3381 33.6182 36.3384 33.6203 36.3389 33.6226L36.3391 33.6237C36.3397 33.6261 36.34 33.6281 36.3405 33.6306L36.3407 33.6318C36.3412 33.6339 36.3418 33.6364 36.3423 33.6385L36.3425 33.6396L36.3439 33.6465L36.3441 33.6474C36.3446 33.6498 36.3451 33.652 36.3457 33.6544L36.3458 33.6551C36.3464 33.6574 36.3467 33.6597 36.3474 33.6622L36.3476 33.6631L36.3492 33.6703V33.6709C36.3499 33.6733 36.3504 33.6756 36.351 33.6781L36.3511 33.6787C36.3517 33.6811 36.3522 33.6836 36.3527 33.6861C36.3533 33.6886 36.3538 33.691 36.3545 33.6935L36.3547 33.6942L36.3563 33.7016L36.3565 33.702L36.3582 33.7094V33.7098L36.36 33.7172L36.3602 33.7177L36.3618 33.7248L36.3619 33.7259C36.3625 33.728 36.363 33.7305 36.3637 33.7328L36.3639 33.7336C36.3644 33.7358 36.3649 33.7382 36.3655 33.7404L36.3656 33.7414C36.3662 33.7437 36.3669 33.746 36.3674 33.7485L36.3676 33.7492C36.3681 33.7515 36.3687 33.7538 36.3692 33.7561L36.3695 33.7573C36.3701 33.7594 36.3706 33.7617 36.3711 33.764L36.3713 33.7649C36.3718 33.7672 36.3724 33.7693 36.3731 33.7716L36.3732 33.7729C36.3738 33.7752 36.3743 33.7773 36.3748 33.7796L36.3752 33.7805C36.3757 33.7828 36.3763 33.7851 36.3768 33.7872L36.3771 33.7886L36.3787 33.7952L36.3789 33.7964C36.3796 33.7987 36.3801 33.8006 36.3807 33.8029L36.381 33.8042C36.3816 33.8063 36.3821 33.8088 36.3826 33.8109L36.3828 33.812C36.3835 33.8143 36.384 33.8162 36.3846 33.8185L36.3849 33.8199C36.3854 33.822 36.386 33.8243 36.3867 33.8265L36.3869 33.8275L36.3886 33.8344L36.3888 33.8353L36.3906 33.8422L36.3908 33.8429C36.3913 33.8452 36.392 33.8477 36.3925 33.85L36.3927 33.8507C36.3934 33.8531 36.3941 33.8554 36.3946 33.8579L36.3948 33.8581C36.3953 33.8606 36.3961 33.863 36.3966 33.8655L36.3968 33.8661C36.3975 33.8685 36.3982 33.8708 36.3987 33.8733V33.8735C36.3994 33.876 36.4001 33.8783 36.4007 33.8807L36.4008 33.8814L36.4028 33.8883L36.4029 33.8892C36.4037 33.8915 36.4042 33.8938 36.4047 33.8959L36.4051 33.897C36.4056 33.8993 36.4063 33.9016 36.4068 33.9039L36.407 33.9046C36.4077 33.9069 36.4083 33.9092 36.409 33.9115L36.4091 33.9124C36.4098 33.9147 36.4104 33.9168 36.4111 33.9191L36.4113 33.9203L36.413 33.9269C36.4132 33.9272 36.4134 33.9276 36.4134 33.9281C36.4139 33.9302 36.4146 33.9324 36.4151 33.9345L36.4155 33.9359C36.4162 33.9378 36.4167 33.9401 36.4173 33.9421L36.4178 33.9437C36.4183 33.9458 36.4189 33.9477 36.4196 33.9499L36.4199 33.9513C36.4206 33.9536 36.421 33.9553 36.4217 33.9576L36.422 33.959C36.4228 33.9612 36.4233 33.9633 36.4238 33.9654L36.4243 33.9667C36.4249 33.9689 36.4254 33.9709 36.4261 33.9732L36.4265 33.9744C36.427 33.9767 36.4277 33.9787 36.4282 33.9808L36.4286 33.9822C36.4293 33.9842 36.43 33.9865 36.4305 33.9886L36.4309 33.9898C36.4314 33.9919 36.4321 33.9942 36.4327 33.9962L36.433 33.9976C36.4337 33.9997 36.4344 34.0018 36.4349 34.004L36.4353 34.0054C36.436 34.0075 36.4365 34.0096 36.4371 34.0117L36.4374 34.0128C36.4381 34.0149 36.4388 34.0172 36.4394 34.0193L36.4399 34.0206C36.4404 34.0227 36.4411 34.025 36.4417 34.0271L36.442 34.0282L36.444 34.0349L36.4443 34.0358C36.4448 34.0381 36.4456 34.0402 36.4463 34.0425L36.4464 34.0434C36.4473 34.0457 36.4479 34.0478 36.4486 34.0501L36.4487 34.051C36.4494 34.0531 36.4502 34.0554 36.4509 34.0575L36.451 34.0584C36.4517 34.0607 36.4525 34.0628 36.4532 34.0651L36.4533 34.066C36.454 34.0683 36.4547 34.0706 36.4555 34.0727L36.4556 34.0736C36.4563 34.0761 36.457 34.078 36.4578 34.0803L36.4581 34.0814C36.4586 34.0835 36.4593 34.0858 36.4601 34.0881L36.4604 34.089C36.4611 34.0911 36.4618 34.0934 36.4625 34.0955L36.4627 34.0966C36.4634 34.0989 36.4641 34.101 36.4648 34.1031L36.4652 34.1042C36.4657 34.1065 36.4666 34.1086 36.4671 34.1107L36.4675 34.1118C36.4682 34.1141 36.4689 34.1162 36.4696 34.1183L36.47 34.1196C36.4707 34.1217 36.4712 34.1238 36.4719 34.1259L36.4724 34.1272C36.4731 34.1295 36.4737 34.1314 36.4744 34.1335L36.4747 34.1348L36.4768 34.1411L36.4772 34.1424C36.4779 34.1447 36.4786 34.1466 36.4793 34.1489L36.4797 34.15C36.4804 34.1523 36.4811 34.1542 36.4818 34.1564L36.4822 34.1576C36.4829 34.1599 36.4836 34.162 36.4841 34.1641L36.4846 34.1652C36.4852 34.1673 36.4859 34.1694 36.4866 34.1717L36.4869 34.1728L36.4892 34.1792L36.4896 34.1804C36.4901 34.1825 36.4908 34.1848 36.4917 34.1868L36.4921 34.188C36.4928 34.1901 36.4935 34.1922 36.4942 34.1945L36.4945 34.1952C36.4952 34.1975 36.4959 34.1998 36.4967 34.202L36.497 34.2028L36.4993 34.2096L36.4995 34.2105L36.5018 34.2172L36.502 34.2179L36.5044 34.2249L36.5046 34.2251C36.5053 34.2276 36.506 34.2297 36.5069 34.2324L36.5071 34.2327C36.5078 34.235 36.5088 34.2375 36.5096 34.2398L36.5097 34.2402L36.512 34.247L36.5124 34.2478L36.5149 34.2552C36.5157 34.2575 36.5165 34.2596 36.5172 34.2619L36.5175 34.2628C36.5184 34.2651 36.5191 34.2672 36.5198 34.2693L36.5202 34.2704C36.5209 34.2725 36.5218 34.2746 36.5225 34.2767L36.5228 34.2778C36.5235 34.2801 36.5244 34.2822 36.5251 34.2845L36.5255 34.2852C36.5262 34.2875 36.5269 34.2897 36.5278 34.292L36.5281 34.2928C36.5288 34.2951 36.5297 34.2971 36.5304 34.2994L36.5308 34.3004L36.5331 34.3066L36.5336 34.308C36.5343 34.3103 36.535 34.3121 36.5357 34.3144L36.5363 34.3155C36.537 34.3176 36.5377 34.3195 36.5384 34.3218L36.5389 34.3229C36.5396 34.325 36.5405 34.3271 36.5412 34.3294L36.5416 34.3303C36.5423 34.3324 36.5431 34.3346 36.544 34.3369L36.5444 34.3379C36.5451 34.34 36.546 34.3422 36.5467 34.3445L36.547 34.3452C36.5477 34.3473 36.5486 34.3496 36.5495 34.3517L36.5499 34.3528L36.5523 34.3593L36.5525 34.36L36.555 34.3667L36.5553 34.3676C36.5562 34.3699 36.5571 34.372 36.5578 34.3742L36.5582 34.3749C36.5589 34.3772 36.5598 34.3795 36.5606 34.3816L36.561 34.3825C36.5619 34.3849 36.5626 34.3867 36.5635 34.3892L36.5637 34.3899C36.5645 34.392 36.5654 34.3941 36.5663 34.3966L36.5665 34.3973C36.5674 34.3994 36.5683 34.4017 36.569 34.404L36.5691 34.4044C36.57 34.4065 36.5709 34.409 36.5718 34.4113L36.572 34.4118C36.5728 34.4139 36.5737 34.4164 36.5746 34.4185L36.5748 34.4191C36.5757 34.4214 36.5766 34.4233 36.5774 34.4258L36.5776 34.4265C36.5785 34.4286 36.5794 34.4309 36.5801 34.4332L36.5805 34.4339C36.5813 34.4362 36.5822 34.4382 36.5831 34.4406L36.5835 34.4413C36.5842 34.4435 36.585 34.4458 36.5859 34.4481L36.5861 34.4488C36.5872 34.4509 36.5879 34.453 36.5888 34.4551L36.5891 34.4562C36.59 34.4583 36.5909 34.4606 36.5918 34.4627L36.5919 34.4636C36.5928 34.4657 36.5937 34.4679 36.5946 34.47L36.5949 34.4709C36.5958 34.4732 36.5967 34.4753 36.5974 34.4774L36.5978 34.4783C36.5987 34.4804 36.5995 34.4824 36.6004 34.4847L36.6008 34.4859C36.6017 34.4878 36.6026 34.49 36.6033 34.4921L36.6038 34.4931C36.6045 34.4953 36.6054 34.4972 36.6063 34.4993L36.6068 34.5006C36.6077 34.5027 36.6084 34.5046 36.6093 34.5068L36.6098 34.508C36.6105 34.5101 36.6114 34.5121 36.6123 34.5142L36.6126 34.5154C36.6137 34.5174 36.6144 34.5193 36.6151 34.5214L36.6156 34.5225L36.6181 34.5289L36.6186 34.5301C36.6195 34.532 36.6204 34.5343 36.6213 34.5363L36.6216 34.5372C36.6225 34.5395 36.6234 34.5412 36.6241 34.5434L36.6246 34.5448L36.6273 34.551L36.6277 34.5517C36.6285 34.554 36.6294 34.5561 36.6303 34.5582L36.6307 34.5589C36.6315 34.5612 36.6324 34.5635 36.6335 34.5656L36.6337 34.566C36.6346 34.5685 36.6354 34.5706 36.6365 34.5731L36.6367 34.5734C36.6397 34.5805 36.6429 34.5877 36.6457 34.5948L36.6459 34.595C36.6467 34.5973 36.648 34.5996 36.6489 34.6019L36.649 34.6022L36.6521 34.6093V34.6097C36.6531 34.6118 36.6542 34.6141 36.6551 34.6164L36.6552 34.6169C36.6563 34.6192 36.6572 34.6213 36.6582 34.6236L36.6584 34.6241C36.6593 34.6264 36.6602 34.6286 36.6612 34.6309L36.6616 34.6316C36.6625 34.6337 36.6635 34.636 36.6644 34.6379L36.6648 34.6386C36.6657 34.6408 36.6667 34.6432 36.6676 34.6454L36.668 34.6459C36.6688 34.648 36.6697 34.6503 36.6708 34.6524L36.6711 34.6533C36.672 34.6554 36.6729 34.6574 36.674 34.6595L36.6745 34.6607C36.6754 34.6629 36.6763 34.6648 36.6772 34.6669L36.6777 34.6678C36.6786 34.6699 36.6795 34.6721 36.6805 34.6742L36.6809 34.6751C36.6818 34.677 36.6828 34.6793 36.6837 34.6814L36.6841 34.6821C36.6849 34.6843 36.686 34.6866 36.6869 34.6885L36.6872 34.6896C36.6883 34.6915 36.6894 34.6938 36.6902 34.6959L36.6904 34.6965C36.6913 34.6986 36.6925 34.7011 36.6934 34.7032L36.6938 34.7037L36.6966 34.7102L36.697 34.711L36.7 34.7175L36.7001 34.7182C36.7012 34.7203 36.7023 34.7224 36.7031 34.7247L36.7035 34.7251C36.7044 34.7274 36.7054 34.7297 36.7065 34.732L36.7067 34.7323C36.7077 34.7345 36.7088 34.7369 36.7099 34.7392V34.7394C36.7111 34.7417 36.7122 34.744 36.7132 34.7463V34.7465C36.7166 34.7536 36.7198 34.7606 36.7233 34.7677V34.7679C36.7244 34.77 36.7254 34.7723 36.7265 34.7744L36.7267 34.7751C36.7277 34.7773 36.7288 34.7796 36.7298 34.7817L36.73 34.7822C36.7311 34.7843 36.7321 34.7866 36.7332 34.7889L36.7334 34.7893C36.7344 34.7916 36.7355 34.7937 36.7366 34.796L36.7367 34.7965C36.7378 34.7986 36.7389 34.8008 36.7399 34.8031L36.7403 34.8036C36.7412 34.8057 36.7424 34.808 36.7433 34.8101L36.7436 34.8107C36.7445 34.8128 36.7458 34.8153 36.7468 34.8174L36.747 34.8177L36.7502 34.8243L36.7505 34.825C36.7514 34.8271 36.7525 34.8292 36.7535 34.8314L36.7539 34.8322C36.7549 34.8344 36.756 34.8365 36.7571 34.8384L36.7574 34.8393C36.7583 34.8414 36.7595 34.8436 36.7604 34.8455L36.7608 34.8464C36.7618 34.8485 36.7629 34.8506 36.764 34.8526L36.7643 34.8536C36.7654 34.8556 36.7664 34.8577 36.7673 34.8598L36.7679 34.8605C36.7689 34.8626 36.77 34.8649 36.771 34.8669L36.7712 34.8676C36.7723 34.8695 36.7733 34.8718 36.7744 34.874L36.7749 34.8747C36.7758 34.8766 36.7769 34.8789 36.7781 34.8809L36.7783 34.8816C36.7793 34.8837 36.7804 34.886 36.7815 34.8879L36.782 34.8888C36.7829 34.8909 36.7839 34.8929 36.785 34.895L36.7854 34.8957C36.7864 34.8978 36.7875 34.8999 36.7887 34.9021L36.7889 34.9026C36.79 34.9049 36.7912 34.907 36.7923 34.9093L36.7924 34.9095C36.7935 34.9118 36.7945 34.9139 36.7958 34.9162L36.796 34.9164C36.8006 34.9256 36.8053 34.9348 36.8099 34.944L36.8103 34.9443C36.8115 34.9468 36.8124 34.9487 36.8136 34.951L36.8138 34.9514L36.8172 34.9579L36.8174 34.9583L36.8209 34.965L36.8211 34.9654C36.8221 34.9675 36.8232 34.9694 36.8244 34.9717L36.8248 34.9726C36.8258 34.9746 36.8271 34.9769 36.8281 34.9788L36.8283 34.9795C36.8294 34.9815 36.8306 34.9836 36.8317 34.9857L36.8322 34.9866C36.8331 34.9885 36.8343 34.9906 36.8354 34.9926L36.8357 34.9935C36.8368 34.9956 36.8379 34.9974 36.8389 34.9993L36.8396 35.0005C36.8407 35.0027 36.8418 35.0046 36.8428 35.0066L36.8432 35.0074C36.8442 35.0094 36.8453 35.0113 36.8464 35.0135L36.8471 35.0143C36.8481 35.0165 36.8492 35.0186 36.8502 35.0205L36.8506 35.0211C36.8517 35.0232 36.8529 35.0255 36.854 35.0274L36.8543 35.0281C36.8555 35.0302 36.8566 35.0322 36.8577 35.0345L36.858 35.0348C36.8591 35.037 36.8603 35.0391 36.8614 35.0414L36.8617 35.0417C36.863 35.0439 36.8642 35.0462 36.8653 35.0483V35.0485C36.8665 35.0508 36.8677 35.0529 36.869 35.0552L36.8692 35.0555C36.8704 35.0577 36.8716 35.0599 36.8727 35.0621L36.8729 35.0622C36.8741 35.0645 36.8753 35.0667 36.8766 35.069V35.0691L36.8842 35.0828V35.0829C36.8867 35.0875 36.8891 35.0919 36.8918 35.0964V35.0965C36.8943 35.101 36.8967 35.1054 36.8992 35.11L36.8996 35.1103C36.9008 35.1126 36.9019 35.1146 36.9031 35.1169L36.9033 35.1171C36.9045 35.1192 36.9058 35.1215 36.907 35.1236L36.9072 35.1239C36.9086 35.1262 36.9096 35.1284 36.9109 35.1307L36.9111 35.1308C36.9123 35.133 36.9134 35.1351 36.9146 35.1372L36.9149 35.1377C36.9162 35.1399 36.9174 35.142 36.9185 35.1441L36.9188 35.1446L36.9224 35.1508L36.9225 35.1514C36.924 35.1535 36.9252 35.1558 36.9263 35.1579L36.9264 35.1581C36.9277 35.1602 36.9289 35.1623 36.9302 35.1644L36.9305 35.165C36.9317 35.1669 36.933 35.1694 36.934 35.1713L36.9344 35.1717C36.9356 35.1738 36.9369 35.1759 36.9381 35.178L36.9383 35.1786C36.9395 35.1807 36.9408 35.1828 36.942 35.1849L36.9422 35.1853L36.9459 35.1915L36.9462 35.1922C36.9473 35.1941 36.9487 35.1964 36.9498 35.1984L36.9501 35.1989C36.9514 35.2009 36.9526 35.2032 36.9538 35.2051L36.9542 35.2058C36.9553 35.2077 36.9565 35.2099 36.9579 35.212L36.9581 35.2123C36.9591 35.2145 36.9606 35.2166 36.9618 35.2185L36.9622 35.2192C36.9634 35.2214 36.9646 35.2235 36.9659 35.2254V35.2258C36.9673 35.2279 36.9685 35.2298 36.9698 35.2321L36.9699 35.2325C36.9793 35.2481 36.9887 35.2636 36.9982 35.2792C36.9996 35.2813 37.0009 35.2834 37.0023 35.2859C37.0037 35.288 37.0049 35.2901 37.0063 35.2924L37.0065 35.2926L37.0104 35.2988L37.0108 35.2993C37.012 35.3013 37.0132 35.3036 37.0145 35.3055L37.0147 35.306C37.0161 35.3082 37.0173 35.3101 37.0185 35.3122L37.0189 35.3128C37.0203 35.3149 37.0216 35.3168 37.0228 35.319L37.023 35.3193C37.0244 35.3214 37.0256 35.3234 37.0269 35.3255L37.0274 35.326C37.0284 35.328 37.0299 35.3303 37.0311 35.3322L37.0313 35.3327C37.0327 35.3347 37.0339 35.3368 37.0353 35.3389L37.0355 35.3393C37.0369 35.3414 37.038 35.3434 37.0396 35.3456L37.0398 35.3458C37.041 35.3481 37.0422 35.3501 37.0438 35.3522L37.044 35.3524L37.0479 35.3587L37.0481 35.3589C37.0495 35.3612 37.0507 35.3633 37.0521 35.3654L37.0523 35.3656C37.0536 35.3677 37.055 35.3699 37.0564 35.372V35.3722C37.0578 35.3743 37.0592 35.3764 37.0606 35.3787C37.0719 35.3962 37.0831 35.4135 37.0946 35.431L37.0947 35.4312L37.099 35.4376C37.1004 35.4399 37.1018 35.442 37.1034 35.4441C37.1048 35.4464 37.1062 35.4485 37.1077 35.4507V35.4508C37.1092 35.4528 37.1107 35.4549 37.1121 35.457V35.4572C37.1135 35.4593 37.1149 35.4614 37.1163 35.4636L37.1165 35.4637C37.1179 35.4659 37.1193 35.468 37.1207 35.4701V35.4703C37.1223 35.4724 37.1236 35.4745 37.1252 35.4767C37.1296 35.4832 37.134 35.4896 37.1382 35.4961C37.1398 35.4982 37.1412 35.5003 37.1427 35.5025V35.5026C37.1442 35.5048 37.1457 35.5069 37.1471 35.509C37.1736 35.5475 37.2005 35.5859 37.228 35.6237V35.6239C37.2295 35.626 37.2309 35.6282 37.2325 35.6303H37.2326C37.2341 35.6324 37.2355 35.6342 37.2371 35.6363L37.2372 35.6367C37.2402 35.6409 37.2433 35.645 37.2463 35.649V35.6492C37.2494 35.6533 37.2524 35.6575 37.2555 35.6616L37.2556 35.6618C37.2802 35.6952 37.3053 35.7284 37.3308 35.7611C37.334 35.7654 37.3371 35.7692 37.3403 35.7735V35.7737C37.3435 35.7777 37.3467 35.7818 37.3499 35.7859C37.3564 35.794 37.3628 35.8021 37.3693 35.8103V35.8104C37.3757 35.8186 37.3822 35.8265 37.3886 35.8348C37.4132 35.8652 37.4377 35.8953 37.4628 35.925L37.4678 35.931L37.468 35.9312C37.548 36.0265 37.6315 36.1188 37.7183 36.2084C38.0514 36.5524 38.4294 36.8502 38.842 37.0934L38.8424 37.0936C38.8445 37.095 38.8466 37.0961 38.8487 37.0975H38.8491C38.8514 37.0989 38.8533 37.1 38.8554 37.1014L38.8558 37.1016C38.8581 37.103 38.86 37.104 38.8623 37.1055H38.8625L38.8691 37.1092L38.8694 37.1095C38.8717 37.1108 38.8737 37.112 38.876 37.1132L38.8761 37.1134C38.8784 37.1147 38.8804 37.1159 38.8827 37.1171L38.883 37.1173C38.8853 37.1187 38.8873 37.1198 38.8896 37.121L38.8897 37.1212C38.8919 37.1224 38.894 37.1237 38.8961 37.1249L38.8966 37.1253L38.903 37.1288L38.9034 37.129C38.9055 37.1302 38.9076 37.1315 38.9099 37.1327L38.9103 37.1329C38.9124 37.1341 38.9147 37.1353 38.9168 37.1366C38.9191 37.138 38.9212 37.1391 38.9235 37.1405L38.9239 37.1406L38.9304 37.1444L38.9373 37.1482C38.9419 37.1507 38.9463 37.1534 38.9509 37.1558H38.9511C38.9691 37.1659 38.9875 37.176 39.0057 37.1859L39.0061 37.1861C39.0082 37.1873 39.0105 37.1886 39.0126 37.1898L39.013 37.19C39.0151 37.1912 39.0174 37.1923 39.0195 37.1935L39.0199 37.1937C39.0223 37.1949 39.0243 37.196 39.0264 37.1972L39.0268 37.1974C39.0291 37.1986 39.0312 37.1997 39.0333 37.2009L39.0338 37.2011C39.036 37.2023 39.0383 37.2036 39.0404 37.2046L39.0407 37.2048C39.0427 37.2059 39.0451 37.2071 39.0471 37.2084L39.0478 37.2085C39.0499 37.2098 39.052 37.2108 39.0542 37.2121L39.0547 37.2122C39.0566 37.2133 39.0589 37.2145 39.0609 37.2156L39.0618 37.216C39.0639 37.217 39.066 37.2183 39.068 37.2193L39.0687 37.2197C39.0706 37.2206 39.0729 37.2218 39.0748 37.2229L39.0757 37.2234C39.0779 37.2244 39.0798 37.2255 39.0819 37.2266L39.0824 37.2267C39.0846 37.228 39.0867 37.229 39.0888 37.2301L39.0895 37.2305L39.0959 37.2338L39.0964 37.234L39.103 37.2374L39.1033 37.2377C39.1056 37.2388 39.1077 37.2398 39.11 37.2411H39.1102C39.1125 37.2423 39.1146 37.2434 39.1169 37.2446L39.1175 37.2448C39.1196 37.2458 39.1219 37.2471 39.124 37.2481L39.1242 37.2483C39.1265 37.2494 39.1286 37.2504 39.1309 37.2517L39.1312 37.2518C39.1335 37.2529 39.1357 37.254 39.138 37.2552L39.1381 37.2554C39.1404 37.2564 39.1426 37.2575 39.1447 37.2586L39.1454 37.2589C39.1477 37.26 39.1496 37.261 39.1519 37.2621L39.1525 37.2625C39.1546 37.2635 39.1565 37.2646 39.1588 37.2656L39.1595 37.266C39.1615 37.2671 39.1636 37.2681 39.1657 37.2692L39.1666 37.2695C39.1685 37.2704 39.1708 37.2717 39.1726 37.2725L39.1797 37.2761L39.1807 37.2768C39.1827 37.2777 39.1848 37.2787 39.1868 37.2796L39.1878 37.2801C39.1899 37.2812 39.1917 37.2821 39.1938 37.2831L39.1949 37.2837C39.197 37.2846 39.1988 37.2856 39.2009 37.2865L39.2021 37.2872C39.2041 37.2883 39.2059 37.289 39.208 37.29L39.2092 37.2906C39.2112 37.2916 39.2131 37.2925 39.215 37.2934L39.2163 37.2941C39.2184 37.295 39.22 37.296 39.2221 37.2969C39.2225 37.2971 39.2228 37.2973 39.2234 37.2976C39.2253 37.2985 39.2271 37.2994 39.2292 37.3005C39.2297 37.3006 39.2301 37.3008 39.2304 37.301C39.2324 37.3019 39.2343 37.3029 39.2363 37.3038C39.2368 37.304 39.2373 37.3044 39.2377 37.3045C39.2396 37.3054 39.2414 37.3063 39.2433 37.3074L39.2447 37.3079C39.2467 37.3088 39.2486 37.3098 39.2504 37.3107L39.2518 37.3113C39.2538 37.3121 39.2557 37.3132 39.2577 37.3141L39.2591 37.3146C39.261 37.3157 39.263 37.3166 39.2649 37.3174C39.2653 37.3176 39.2656 37.3178 39.2661 37.318C39.2681 37.319 39.2702 37.3199 39.272 37.321L39.2732 37.3215C39.2752 37.3224 39.2773 37.3233 39.2792 37.3243L39.2803 37.3249L39.2861 37.3275C39.2866 37.3277 39.287 37.3279 39.2875 37.3282L39.2932 37.3309L39.2944 37.3314C39.2962 37.3323 39.2983 37.3332 39.3001 37.3341L39.3015 37.3348L39.3072 37.3372C39.3077 37.3376 39.308 37.3378 39.3084 37.3379L39.3142 37.3406L39.3156 37.3411L39.3215 37.344L39.3229 37.3445C39.3247 37.3454 39.3266 37.3463 39.3285 37.3471C39.3291 37.3473 39.3296 37.3477 39.3301 37.3478C39.3321 37.3487 39.3337 37.3494 39.3356 37.3503C39.336 37.3505 39.3369 37.3509 39.3374 37.3512L39.3427 37.3535C39.3434 37.3539 39.3439 37.354 39.3446 37.3544L39.3499 37.3569L39.3519 37.3577C39.3535 37.3585 39.3554 37.3593 39.3572 37.3602C39.3579 37.3604 39.3584 37.3608 39.3591 37.3611C39.3609 37.3618 39.3627 37.3627 39.3644 37.3634C39.3651 37.3638 39.3657 37.3639 39.3664 37.3643C39.3681 37.365 39.3699 37.3659 39.3717 37.3668C39.3724 37.3669 39.3729 37.3673 39.3736 37.3676C39.3754 37.3684 39.3772 37.3691 39.3791 37.3699C39.3796 37.3703 39.3802 37.3705 39.3807 37.3708L39.3862 37.3731L39.3881 37.374C39.3899 37.3749 39.3917 37.3756 39.3934 37.3763C39.3941 37.3767 39.3947 37.377 39.3954 37.3772C39.3971 37.3781 39.3989 37.3788 39.4007 37.3797L39.4026 37.3804C39.4044 37.3813 39.4062 37.3821 39.4081 37.3829C39.4086 37.383 39.4093 37.3834 39.4099 37.3836C39.4118 37.3844 39.4136 37.3852 39.4154 37.386C39.4159 37.3862 39.4166 37.3866 39.4171 37.3869C39.4189 37.3876 39.4208 37.3883 39.4226 37.3892L39.4244 37.3899C39.4263 37.3908 39.4279 37.3915 39.43 37.3924L39.4316 37.3931C39.4336 37.394 39.4353 37.3947 39.4373 37.3956L39.4389 37.3961C39.4408 37.3972 39.4428 37.3979 39.4447 37.3986L39.4461 37.3993C39.4479 37.4 39.4497 37.4007 39.4516 37.4016L39.4535 37.4025C39.4553 37.4032 39.4569 37.4039 39.4585 37.4046L39.4608 37.4055C39.4624 37.4062 39.4641 37.4069 39.4657 37.4076L39.4682 37.4085C39.4696 37.4092 39.4714 37.4099 39.473 37.4106L39.4804 37.4138L39.4824 37.4147C39.4841 37.4152 39.4857 37.4159 39.4873 37.4166L39.4898 37.4177C39.4914 37.4184 39.4931 37.4191 39.4949 37.4198L39.4967 37.4205C39.4984 37.4214 39.5 37.4219 39.502 37.4226L39.5043 37.4237C39.5059 37.4244 39.5076 37.4251 39.5094 37.4258L39.5114 37.4267C39.5131 37.4272 39.5149 37.4279 39.5165 37.4286C39.5172 37.429 39.5181 37.4294 39.519 37.4297C39.5205 37.4302 39.5223 37.4309 39.5241 37.4318L39.5262 37.4327C39.528 37.4332 39.5296 37.4339 39.5313 37.4347C39.532 37.435 39.5329 37.4354 39.5338 37.4357C39.5354 37.4364 39.537 37.437 39.5386 37.4377L39.5411 37.4387C39.5426 37.4393 39.5444 37.44 39.5458 37.4407C39.5469 37.441 39.5476 37.4414 39.5485 37.4417C39.5501 37.4423 39.5518 37.443 39.5533 37.4437C39.5543 37.444 39.555 37.4442 39.5557 37.4446C39.5573 37.4453 39.5591 37.446 39.5607 37.4465C39.5616 37.447 39.5624 37.4474 39.5633 37.4476L39.5681 37.4495C39.569 37.4499 39.5697 37.4502 39.5708 37.4506C39.5723 37.4511 39.5739 37.4518 39.5754 37.4523C39.5764 37.4527 39.5773 37.4532 39.5782 37.4536C39.5798 37.4541 39.5814 37.4548 39.583 37.4553C39.5838 37.4557 39.5847 37.456 39.5856 37.4564C39.5872 37.4571 39.5886 37.4576 39.5902 37.4582C39.5913 37.4587 39.5921 37.4591 39.5932 37.4594L39.5976 37.4612C39.5985 37.4614 39.5996 37.4619 39.6006 37.4622L39.6042 37.4636L39.6081 37.4652C39.6093 37.4658 39.6102 37.4661 39.6114 37.4665C39.6128 37.467 39.6141 37.4675 39.6155 37.4681C39.6165 37.4684 39.6174 37.469 39.6187 37.4693C39.6201 37.4698 39.6215 37.4704 39.6229 37.4711C39.624 37.4713 39.625 37.4718 39.6261 37.4721C39.6273 37.4727 39.6289 37.4734 39.6305 37.4739C39.6314 37.4743 39.6323 37.4746 39.6332 37.475C39.6348 37.4757 39.6365 37.4762 39.6379 37.4767C39.639 37.4771 39.6399 37.4774 39.6408 37.4778C39.6424 37.4785 39.6436 37.4789 39.6452 37.4796C39.6461 37.4799 39.6473 37.4803 39.6482 37.4806C39.6498 37.4813 39.6512 37.4819 39.6528 37.4824C39.6537 37.4827 39.6547 37.4831 39.6556 37.4834C39.6572 37.4842 39.6588 37.4847 39.6604 37.4852C39.6613 37.4856 39.662 37.4859 39.6629 37.4861C39.6646 37.4868 39.6662 37.4873 39.6678 37.488L39.6705 37.4889C39.6721 37.4896 39.6733 37.4902 39.6749 37.4907L39.6779 37.4918C39.6795 37.4925 39.6811 37.493 39.6825 37.4935L39.6855 37.4948C39.6869 37.4951 39.6885 37.4958 39.6899 37.4964L39.6927 37.4974L39.6977 37.4992L39.7003 37.5001C39.7016 37.5006 39.703 37.5011 39.7042 37.5015C39.7055 37.502 39.7065 37.5025 39.7078 37.5029L39.7118 37.5045L39.7154 37.5057C39.7164 37.5061 39.7177 37.5066 39.7187 37.507C39.7201 37.5075 39.7214 37.5078 39.7228 37.5084C39.724 37.5089 39.7251 37.5093 39.7263 37.5096C39.7276 37.5101 39.7292 37.5107 39.7304 37.5112L39.7338 37.5124L39.7373 37.5137C39.7387 37.5142 39.7401 37.5146 39.7415 37.5153C39.7422 37.5154 39.743 37.5156 39.7437 37.516C39.7454 37.5165 39.7474 37.5172 39.7491 37.5179C39.7498 37.5181 39.7504 37.5183 39.7511 37.5185C39.7529 37.5192 39.7548 37.5199 39.7567 37.5206L39.7585 37.5211C39.7605 37.522 39.7624 37.5225 39.7643 37.5232C39.7649 37.5234 39.7656 37.5238 39.7663 37.5239C39.7682 37.5246 39.7702 37.5254 39.7721 37.5261L39.7734 37.5264C39.7755 37.5273 39.7776 37.528 39.7797 37.5287L39.781 37.5291C39.7831 37.5298 39.7854 37.5307 39.7875 37.5314L39.7884 37.5317C39.7905 37.5324 39.7926 37.5331 39.7949 37.5338L39.7962 37.5344C39.7983 37.5351 39.8006 37.5358 39.8025 37.5365L39.8038 37.537C39.8061 37.5377 39.8082 37.5386 39.8105 37.5393L39.8114 37.5395C39.8135 37.5402 39.8158 37.5411 39.8181 37.5418L39.819 37.5421C39.8213 37.543 39.8234 37.5437 39.8255 37.5444L39.8268 37.5448C39.8291 37.5455 39.8312 37.5464 39.8335 37.5471L39.8342 37.5473C39.8365 37.5482 39.839 37.5489 39.8413 37.5496L39.8418 37.5499C39.8441 37.5506 39.8466 37.5513 39.8487 37.5522L39.8496 37.5524C39.8517 37.5531 39.8542 37.554 39.8563 37.5547L39.8573 37.5551L39.8644 37.5574L39.8648 37.5575C39.8672 37.5582 39.8697 37.5591 39.8722 37.56H39.8725C40.3485 37.7165 40.8444 37.8042 41.3452 37.8206C41.359 37.821 41.3728 37.8211 41.3868 37.8211C42.1184 37.8206 42.7112 37.2271 42.7106 36.4953C42.7089 35.7804 42.1431 35.1954 41.4298 35.1708Z" fill="#FFEA21"/>
<path d="M41.5228 25.8984C40.4212 25.9057 39.339 26.1907 38.3767 26.7271L38.0968 26.4472C37.7459 26.0952 37.2691 25.8977 36.7719 25.8984C36.4061 25.8984 36.1097 26.1949 36.1097 26.5609C36.1097 26.9267 36.4061 27.2233 36.7719 27.2233C36.9176 27.223 37.0573 27.2808 37.16 27.384L37.4399 27.6639C37.8552 28.0792 38.4943 28.1715 39.0102 27.8907C39.8238 27.4479 40.669 27.2233 41.5228 27.2233C44.4496 27.2233 46.8222 29.5959 46.8222 32.5228C46.8222 33.8498 46.3243 35.1284 45.4271 36.106C45.1796 36.3755 45.1973 36.7945 45.4665 37.042C45.736 37.2897 46.155 37.272 46.4025 37.0026C46.4026 37.0024 46.4028 37.0024 46.4028 37.0022C47.2498 36.0818 47.8181 34.9395 48.0412 33.7087C48.0452 33.6862 48.0491 33.6638 48.053 33.6415V33.6412L48.0539 33.6364L48.0546 33.6318L48.0548 33.6314L48.0555 33.6268L48.0564 33.6221V33.6219C48.0601 33.5994 48.0636 33.577 48.0672 33.5544L48.0673 33.554L48.0681 33.5494C48.0718 33.5254 48.0753 33.5011 48.0788 33.4769L48.079 33.4762L48.0795 33.472V33.4714L48.0803 33.4672L48.0804 33.4663L48.081 33.4622V33.4615L48.0817 33.4573V33.4566L48.0824 33.4522V33.452L48.0831 33.4472L48.0836 33.4424V33.4423L48.0843 33.4375V33.4373C48.0861 33.4244 48.0879 33.4117 48.0896 33.3988V33.3984L48.0902 33.3938L48.0903 33.3935L48.0909 33.3889V33.3885L48.0914 33.3839L48.0916 33.3836L48.0921 33.3793V33.3784L48.0926 33.3742L48.0928 33.3737L48.0933 33.3694V33.3687L48.094 33.3645V33.3639L48.0946 33.3597L48.0947 33.3586L48.0953 33.3546V33.3539L48.0958 33.3496L48.096 33.3491C48.0976 33.3362 48.0992 33.3233 48.1006 33.3104L48.1013 33.3056V33.3054L48.1018 33.3014V33.3001L48.1024 33.2962L48.1025 33.2952L48.1029 33.2911L48.1031 33.2904L48.1036 33.2862V33.2855L48.1041 33.2814V33.2803L48.1046 33.2764L48.1048 33.2754L48.1052 33.2715L48.1054 33.2702L48.1057 33.2665L48.1059 33.2651L48.1062 33.2616L48.1064 33.2602L48.1069 33.2565L48.1071 33.2554L48.1075 33.2515V33.2512C48.1085 33.2416 48.1096 33.2321 48.1107 33.2225V33.2218L48.1112 33.2176V33.2169L48.1117 33.213V33.2117L48.1123 33.2078V33.2068L48.1128 33.2031V33.2017L48.1131 33.1979L48.1133 33.1967L48.1137 33.193L48.1138 33.1914L48.1142 33.1879L48.1144 33.1864L48.1147 33.1829L48.1149 33.1813L48.1153 33.178L48.1154 33.1762L48.1158 33.173L48.116 33.1711L48.1161 33.1679L48.1163 33.1658L48.1167 33.1629L48.1168 33.161C48.1174 33.1557 48.1179 33.1502 48.1184 33.1449L48.1186 33.1428L48.119 33.1396V33.1378L48.1193 33.1348L48.1195 33.1327L48.1197 33.1299L48.1199 33.1276L48.1202 33.1249L48.1204 33.1224L48.1207 33.1194L48.1209 33.1177L48.1211 33.1143L48.1213 33.1125L48.1216 33.1095L48.1218 33.1072L48.122 33.1046L48.1223 33.1021L48.1225 33.0995L48.1227 33.0972L48.1229 33.0943L48.123 33.0919L48.1234 33.0894L48.1236 33.0867L48.1237 33.0843L48.1239 33.0816L48.1243 33.0791L48.1245 33.077L48.1246 33.074L48.1248 33.0724L48.1252 33.0689V33.0685L48.1262 33.0553L48.1264 33.0539L48.1266 33.0508L48.1267 33.0487L48.1269 33.0457L48.1271 33.0436L48.1273 33.0406L48.1275 33.0385L48.1278 33.0355V33.0335L48.1282 33.0303L48.1283 33.0284L48.1285 33.0254L48.1287 33.0233L48.1289 33.0203L48.129 33.0181L48.1292 33.0153L48.1294 33.013L48.1296 33.0102L48.1298 33.0075L48.1299 33.0054L48.1303 33.0024L48.1305 33.0001L48.1306 32.9973L48.1308 32.995L48.1312 32.9897L48.1313 32.9868L48.1315 32.9847L48.1317 32.9815L48.1319 32.9796L48.1326 32.9693V32.9678L48.1328 32.964L48.1329 32.9623L48.1331 32.9591L48.1333 32.9564L48.1335 32.954L48.1336 32.9513L48.1338 32.949L48.134 32.9464L48.1342 32.9435L48.1344 32.9414L48.1345 32.9384V32.9363L48.1347 32.9333L48.1349 32.9312L48.1351 32.9282L48.1352 32.926L48.1354 32.9228V32.9209L48.1358 32.9177V32.9156L48.1359 32.9128L48.1361 32.9105L48.1363 32.9076L48.1365 32.9053L48.1367 32.9022L48.1368 32.9002L48.137 32.897V32.8949L48.1372 32.8916L48.1374 32.89L48.1375 32.8861L48.1377 32.8841L48.1379 32.8795L48.1381 32.8769V32.8746L48.1382 32.8714L48.1384 32.8695L48.1386 32.8663V32.8643L48.1388 32.8613L48.1389 32.8592L48.1391 32.8565V32.8539L48.1393 32.8516L48.1395 32.8486L48.1397 32.8465V32.8435L48.1398 32.8412L48.14 32.8382V32.836L48.1402 32.833V32.8307L48.1404 32.8279L48.1405 32.8256V32.823L48.1407 32.8203L48.1409 32.8178V32.8154L48.1411 32.8122L48.1412 32.8102V32.8067L48.1414 32.8049L48.1416 32.8014V32.7998L48.142 32.7895L48.1421 32.7874L48.1423 32.7842V32.7819L48.1425 32.7793V32.7768L48.1427 32.774V32.7719L48.1428 32.7687V32.7667L48.143 32.7634L48.1432 32.7614V32.7584L48.1434 32.7561V32.7531L48.1435 32.751V32.748L48.1437 32.7457V32.7429L48.1439 32.7404V32.7379L48.1441 32.7353V32.7326L48.1443 32.7301V32.7273L48.1444 32.725V32.722L48.1446 32.7197V32.7174L48.1448 32.7144V32.7121L48.145 32.7093L48.1451 32.6992L48.1453 32.6964V32.6939L48.1455 32.6912V32.6866L48.1457 32.6835V32.6782L48.1458 32.6762V32.6709L48.146 32.6679V32.6603L48.1462 32.6578V32.6497L48.1464 32.6472V32.6396L48.1466 32.6366V32.629L48.1467 32.6258V32.6186L48.1469 32.6145V32.6013L48.1471 32.5979V32.5903L48.1473 32.5876V32.5226C48.1471 28.8642 45.1813 25.8984 41.5228 25.8984Z" fill="#FFA300"/>
<path d="M29.4991 18.9014L27.3717 12.5805C27.047 11.6154 26.0012 11.0963 25.0361 11.4213C24.4896 11.6051 24.0607 12.034 23.8769 12.5805L21.7495 18.9014C21.4845 19.5197 21.7709 20.2355 22.3891 20.5005C22.5407 20.5654 22.7038 20.599 22.8688 20.599C23.3559 20.599 23.7962 20.3087 23.9881 19.8609L24.1643 19.2741H27.0843L27.2605 19.8609C27.4524 20.3087 27.8926 20.599 28.3798 20.599C29.0525 20.5988 29.5976 20.0536 29.5976 19.3811C29.5976 19.2163 29.564 19.0529 29.4991 18.9014ZM24.9608 16.6243L25.6243 14.4162L26.2878 16.6243H24.9608Z" fill="white"/>
<path d="M25.6243 11.3249H25.6008L25.5969 11.3251H25.5916L25.5877 11.3253H25.5824L25.5784 11.3254H25.5734L25.5693 11.3256H25.5686L25.5646 11.3258H25.5639L25.5598 11.326H25.5593L25.5552 11.3261H25.555L25.551 11.3263H25.5501L25.5462 11.3265H25.5453L25.5414 11.3267H25.5409L25.5368 11.3268H25.5365L25.5324 11.327L25.5315 11.3272L25.5276 11.3274H25.5269L25.5228 11.3275H25.5225L25.5184 11.3277L25.5179 11.3279L25.514 11.3281H25.5131L25.5092 11.3283L25.5085 11.3284L25.5046 11.3286H25.5041L25.5004 11.329H25.4995L25.4956 11.3293H25.4947L25.4908 11.3297H25.4901L25.4864 11.3298L25.4859 11.33L25.4822 11.3302L25.4811 11.3304L25.4774 11.3306L25.4764 11.3307L25.4725 11.3311H25.4719L25.4682 11.3314H25.4675L25.4636 11.3318H25.4629L25.459 11.3321L25.4581 11.3323L25.4541 11.3327L25.4498 11.333H25.4493L25.4454 11.3334L25.4445 11.3336L25.4408 11.3339H25.4398L25.436 11.3343H25.4359L25.432 11.3348H25.4311L25.4272 11.3353H25.4263L25.4226 11.3357L25.4217 11.3359L25.4182 11.3362H25.4177L25.4138 11.3367L25.4129 11.3369L25.4092 11.3373L25.4081 11.3375L25.4044 11.3378L25.4037 11.338L25.4002 11.3383H25.3994L25.3957 11.3389L25.3947 11.339L25.391 11.3394L25.3901 11.3396L25.3864 11.3399L25.3858 11.3401L25.3821 11.3406H25.3812L25.3775 11.3412L25.3766 11.3413L25.3729 11.3419H25.3722L25.3687 11.3424L25.3678 11.3426L25.3641 11.3431L25.3632 11.3433L25.3595 11.3438H25.3586L25.3547 11.3445H25.3542L25.3507 11.3451L25.3499 11.3452L25.3462 11.3458L25.3452 11.3459L25.3416 11.3465L25.3406 11.3466L25.3372 11.3472L25.333 11.3479L25.3317 11.3481L25.3284 11.3486L25.3271 11.3488L25.3236 11.3493L25.3227 11.3495L25.3194 11.3502H25.3185L25.3151 11.3509L25.3139 11.3511L25.3103 11.3516L25.3093 11.3518L25.3057 11.3525L25.3015 11.3532L25.3008 11.3534L25.2971 11.3541L25.296 11.3542L25.2925 11.3548L25.2914 11.355L25.2877 11.3557L25.2872 11.3558L25.2836 11.3565H25.2829L25.2794 11.3573L25.2783 11.3574L25.2748 11.3581L25.2737 11.3583L25.2704 11.359L25.2695 11.3592L25.2661 11.3599L25.2651 11.3601L25.2617 11.3608L25.2605 11.361L25.2561 11.3618L25.2529 11.3626L25.2485 11.3634L25.2474 11.3636L25.2439 11.3645L25.2428 11.3647L25.2384 11.3656L25.2352 11.3663L25.2343 11.3664L25.2308 11.3673L25.2295 11.3675L25.2262 11.3682L25.2251 11.3686L25.2218 11.3693L25.2207 11.3695L25.2177 11.3702L25.2166 11.3705L25.2131 11.3712L25.212 11.3716L25.2085 11.3723L25.2074 11.3725L25.2043 11.3733L25.2034 11.3735L25.2002 11.3742L25.199 11.3746L25.1956 11.3753L25.1944 11.3756L25.191 11.3763L25.1898 11.3767L25.1869 11.3774L25.1861 11.3776L25.1825 11.3785L25.1815 11.3788L25.1781 11.3795L25.177 11.3799L25.1737 11.3808L25.1726 11.3809L25.1696 11.3818L25.1686 11.382L25.1652 11.3829L25.164 11.3832L25.1606 11.3839L25.1595 11.3843L25.1565 11.385L25.1553 11.3854L25.1523 11.3861L25.1512 11.3864L25.1479 11.3873L25.1466 11.3877L25.1433 11.3885L25.1422 11.3889L25.1392 11.3896L25.1381 11.39L25.1348 11.3908L25.1339 11.3912L25.1304 11.3921L25.1293 11.3924L25.1258 11.3933L25.1251 11.3937L25.1221 11.3944L25.121 11.3947L25.1176 11.3956L25.1166 11.396L25.1132 11.397L25.112 11.3974L25.1088 11.3983L25.1079 11.3986L25.1047 11.3995L25.1037 11.3999L25.1003 11.4007L25.0992 11.4011L25.0959 11.4022L25.0948 11.4025L25.0918 11.4034L25.0908 11.4037L25.0878 11.4046L25.0865 11.405L25.0832 11.406L25.0821 11.4064L25.0787 11.4075L25.0779 11.4076L25.0749 11.4085L25.074 11.4089L25.0706 11.4099L25.0694 11.4103L25.066 11.4114L25.065 11.4117L25.0616 11.4128L25.0609 11.4129L25.0577 11.414L25.0568 11.4142L25.0535 11.4154L25.0522 11.4158L25.0489 11.4168L25.048 11.4172L25.0446 11.4182L25.0437 11.4184L25.0406 11.4195L25.0397 11.4198L25.0363 11.4209L25.0352 11.4214L25.0319 11.4225L25.031 11.4228L25.0278 11.4239L25.0271 11.4241L25.0238 11.4253L25.0227 11.4257L25.0193 11.4267L25.0183 11.4271L25.0149 11.4283L25.0142 11.4285L25.011 11.4297L25.0101 11.4299L25.0066 11.4312L25.0059 11.4315L25.0024 11.4327L25.0015 11.4331L24.9979 11.4343L24.9942 11.4356L24.9933 11.4361L24.99 11.4372L24.9889 11.4375L24.9856 11.4388L24.9847 11.4391L24.9815 11.4403L24.9808 11.4405L24.9774 11.4419L24.9766 11.4421L24.9732 11.4434L24.9688 11.4451L24.9681 11.4453L24.9649 11.4465L24.9644 11.4467L24.9599 11.4485L24.9566 11.4497L24.9522 11.4515L24.9516 11.4517L24.9484 11.4529L24.9476 11.4533L24.9442 11.4545L24.9431 11.455L24.9398 11.4563L24.9391 11.4566L24.9357 11.4578L24.9352 11.4582L24.9318 11.4594L24.9311 11.4598L24.9278 11.4612L24.9267 11.4616L24.9235 11.463L24.9225 11.4633L24.9196 11.4644L24.9186 11.4649L24.9154 11.4662L24.9145 11.4665L24.9111 11.4679L24.9103 11.4683L24.9067 11.4699L24.906 11.47L24.903 11.4713L24.9023 11.4716L24.8988 11.4731L24.8981 11.4734L24.8945 11.475L24.8938 11.4754L24.8903 11.4768L24.8899 11.4769L24.8867 11.4784L24.8859 11.4787L24.8825 11.4803L24.8816 11.4807L24.8783 11.4821L24.8775 11.4824L24.8742 11.484H24.8738L24.8705 11.4856L24.8696 11.486L24.8664 11.4874L24.8653 11.4879L24.862 11.4893L24.8613 11.4898L24.8583 11.4911L24.8576 11.4914L24.8542 11.493L24.8533 11.4936L24.85 11.495L24.8491 11.4953L24.8457 11.4969L24.8452 11.4973L24.842 11.4987L24.8413 11.499L24.8381 11.5005L24.8372 11.501L24.8339 11.5026L24.8332 11.5029L24.8298 11.5045L24.8293 11.5047L24.8259 11.5063L24.8254 11.5066L24.822 11.5082L24.8212 11.5086L24.8178 11.5102L24.8173 11.5105L24.8141 11.5121L24.8135 11.5123L24.8102 11.5141L24.8093 11.5144L24.8019 11.5181L24.8013 11.5185L24.7982 11.5199L24.7943 11.5218L24.7934 11.5224L24.7892 11.5245L24.7861 11.5261L24.7854 11.5264L24.7824 11.528L24.7743 11.5321L24.7734 11.5326L24.7706 11.534L24.7697 11.5346L24.7667 11.5362L24.7658 11.5365L24.7626 11.5383L24.7617 11.5386L24.7586 11.5404L24.7577 11.5408L24.7549 11.5424L24.7547 11.5429L24.7513 11.5445L24.7506 11.545L24.7474 11.5468L24.7465 11.5471L24.7434 11.5489L24.7427 11.5493L24.7396 11.551L24.7391 11.5514L24.7359 11.5531L24.7349 11.5535L24.7319 11.5553L24.731 11.5558L24.728 11.5574L24.7271 11.5577L24.7244 11.5593L24.7234 11.5599L24.7204 11.5616L24.7193 11.5623L24.7163 11.5639L24.7128 11.566L24.7119 11.5664L24.7089 11.5682L24.708 11.5687L24.705 11.5705L24.7039 11.571L24.7008 11.5728L24.7002 11.5733L24.6976 11.5747L24.6965 11.5752L24.6935 11.577L24.6926 11.5777L24.6896 11.5793L24.6886 11.58L24.6857 11.5818L24.6848 11.5821L24.6813 11.5843L24.6783 11.5862L24.6772 11.5867L24.6742 11.5885L24.6707 11.5906L24.6696 11.5913L24.667 11.5929L24.6659 11.5934L24.6631 11.5952L24.662 11.5959L24.6592 11.5977L24.6581 11.5982L24.6557 11.5998L24.6546 11.6003L24.652 11.6021L24.6507 11.6028L24.647 11.6053L24.6442 11.6071L24.6431 11.6076L24.6408 11.6092L24.6399 11.6097L24.6371 11.6115L24.6357 11.6122L24.633 11.614L24.6318 11.6147L24.626 11.6186L24.6247 11.6193L24.6221 11.621L24.6207 11.6219L24.617 11.6244L24.615 11.6256L24.6132 11.6267L24.6111 11.6281L24.6099 11.629L24.6072 11.6308L24.6058 11.6316L24.6035 11.6331L24.6021 11.6341L24.6002 11.6353L24.5984 11.6364L24.5963 11.6378L24.5949 11.6389L24.5926 11.6405L24.591 11.6415L24.5892 11.6428L24.5873 11.644L24.5855 11.6452L24.5835 11.6465L24.5818 11.6477L24.5802 11.649L24.5786 11.65L24.5763 11.6516L24.5726 11.6543L24.5712 11.6553L24.5689 11.6569L24.5673 11.658L24.5655 11.6592L24.5643 11.6601L24.5616 11.662L24.5606 11.6628L24.5577 11.6647L24.5567 11.6654L24.5549 11.6666L24.5544 11.6672L24.551 11.6695L24.5501 11.6702L24.5471 11.6723L24.5462 11.673L24.5432 11.6751L24.5423 11.6758L24.5404 11.6771L24.5393 11.678L24.5367 11.6799L24.5358 11.6804L24.5326 11.6829L24.5319 11.6833L24.5259 11.6877L24.5222 11.6905L24.5217 11.6909L24.5179 11.6935L24.5178 11.6939C24.5144 11.6963 24.5111 11.6988 24.5077 11.7013L24.5075 11.7015C24.4743 11.7268 24.4421 11.7531 24.4106 11.7805C24.1352 12.0213 24.1071 12.4398 24.3479 12.7152C24.5887 12.9907 25.0071 13.0188 25.2826 12.778C25.3772 12.6952 25.4986 12.6496 25.6243 12.6496C25.8473 12.6494 26.0453 12.7918 26.1162 13.003L28.1058 18.9149C28.2227 19.2616 28.5984 19.4479 28.9451 19.331C29.2911 19.2145 29.4776 18.8399 29.3619 18.4936L27.582 13.2051L27.5818 13.2042L27.5804 13.2002L27.5797 13.1982L27.5655 13.156L27.5634 13.1498L27.5618 13.1448L27.5613 13.1434L27.5606 13.1411L27.5595 13.1383L27.5581 13.134V13.1339L27.553 13.1183L27.5528 13.1179L27.5514 13.1137L27.5507 13.1114L27.5494 13.108L27.5493 13.1073L27.5477 13.1026L27.547 13.1006L27.5447 13.0937L27.5433 13.0897V13.0895L27.5411 13.0831L27.5353 13.0658L27.5339 13.0619L27.5318 13.0552L27.53 13.0502L27.5288 13.0467L27.5258 13.0377L27.5217 13.0257L27.5208 13.0227L27.5183 13.0154L27.518 13.0145L27.5155 13.0073L27.5146 13.0043L27.509 12.9878L27.5083 12.9861L27.5058 12.9786L27.5049 12.9762L27.5044 12.9744L27.5015 12.9663L27.5005 12.9631L27.4996 12.9606L27.4991 12.9587L27.4959 12.9491L27.4906 12.9334L27.4899 12.9316L27.4791 12.8993L27.4784 12.8973L27.4732 12.8819L27.4731 12.8816L27.4679 12.8662L27.4676 12.865L27.4625 12.8501L27.4623 12.8496L27.4577 12.836L27.4556 12.8294L27.455 12.8278L27.4545 12.8266C27.4018 12.67 27.3718 12.5805 27.3718 12.5805C27.1193 11.8302 26.416 11.3249 25.6243 11.3249Z" fill="#EFF2FF"/>
<path d="M37.5481 29.873C37.5481 30.6047 38.1412 31.1979 38.873 31.1979H41.0811L38.2547 33.3176C37.8099 33.6513 37.5481 34.1747 37.5481 34.7308C37.5481 35.7065 38.3391 36.4973 39.3146 36.4973H44.1724C44.9041 36.4973 45.4973 35.9041 45.4973 35.1724C45.4973 34.4408 44.9041 33.8477 44.1724 33.8477H42.1852L44.8256 31.7352C45.2501 31.3955 45.4973 30.8814 45.4973 30.3378C45.4973 29.3493 44.6961 28.5481 43.7078 28.5481H38.873C38.1412 28.5481 37.5481 29.1414 37.5481 29.873Z" fill="white"/>
<path d="M43.7078 28.5481H38.873C38.5072 28.5481 38.2107 28.8447 38.2107 29.2105C38.2107 29.5765 38.5072 29.873 38.873 29.873H43.7078C43.9645 29.873 44.1726 30.0811 44.1726 30.3378C44.1726 30.4788 44.1084 30.6125 43.9981 30.7005L41.3575 32.8131C40.7862 33.2701 40.6936 34.1038 41.1506 34.6752C41.402 34.9894 41.7827 35.1724 42.1852 35.1724H43.1977C43.5635 35.1724 43.8602 34.8759 43.8602 34.5099C43.8602 34.1442 43.5635 33.8477 43.1977 33.8477H42.1852C42.1852 33.8477 43.1215 33.0986 43.8789 32.4925L43.8809 32.4911L43.8823 32.4899L43.8847 32.4879L43.8867 32.4864L43.8877 32.4855L43.898 32.4773L43.8991 32.4766C43.9045 32.472 43.9102 32.4676 43.9157 32.4632L43.9318 32.4503L43.9388 32.4446L43.9401 32.4436L43.9417 32.4425L43.9438 32.4407L43.9571 32.43L43.9581 32.4292L43.9682 32.4211L43.9694 32.4202L43.9712 32.4188L43.9724 32.4178L43.9749 32.4158L43.9767 32.4144L43.9823 32.4098L43.9843 32.4084L43.9852 32.4075L43.9903 32.4034L43.9938 32.4006L44.0005 32.3953L44.0051 32.3916L44.0099 32.3877L44.0126 32.3856L44.0173 32.3819L44.0294 32.3721L44.0325 32.3697L44.049 32.3566L44.0566 32.3504L44.084 32.3285L44.0948 32.32L44.0965 32.3184L44.0974 32.3177L44.104 32.3126L44.1043 32.3122L44.1103 32.3074L44.1119 32.306L44.1137 32.3048L44.1186 32.3007L44.1353 32.2875L44.137 32.286L44.178 32.2533L44.2115 32.2265L44.2132 32.225L44.2171 32.2219L44.2231 32.2171L44.3103 32.1474L44.3124 32.1457L44.3147 32.1439L44.3243 32.1363L44.3405 32.1232L44.3451 32.1195L44.349 32.1165L44.355 32.1115L44.3623 32.1057L44.3649 32.1038L44.366 32.1027L44.3716 32.0983L44.3739 32.0965L44.3814 32.0905L44.3897 32.084L44.3941 32.0804L44.4043 32.0721L44.4065 32.0704L44.413 32.065L44.416 32.0628L44.4206 32.059L44.4236 32.0567L44.436 32.0468L44.4494 32.0361L44.4507 32.035L44.453 32.0332L44.4581 32.0292L44.4588 32.0285L44.4613 32.0265L44.4701 32.0194L44.4717 32.0182L44.4736 32.0168L44.4991 31.9963L44.5035 31.9927L44.5048 31.9917L44.5208 31.979L44.5233 31.977L44.5253 31.9754L44.5286 31.9728L44.5297 31.9719L44.5481 31.9572L44.5843 31.9282L44.5866 31.9263L44.5935 31.921L44.5939 31.9206L44.5955 31.9192L44.5969 31.9181L44.5972 31.9178L44.599 31.9164L44.6006 31.9151L44.6031 31.9132L44.6092 31.9082L44.61 31.9077L44.6204 31.8994L44.6209 31.8989L44.6229 31.8974L44.625 31.8957L44.6409 31.883L44.6412 31.8826L44.6428 31.8814L44.6434 31.8808L44.6464 31.8785L44.6481 31.8771L44.6494 31.8762L44.6575 31.8697L44.66 31.8676L44.6674 31.8617L44.6694 31.8601L44.6727 31.8575L44.6745 31.8559L44.6759 31.855L44.6763 31.8545L44.678 31.8532L44.6837 31.8487L44.6902 31.8435L44.6911 31.8428L44.707 31.8299L44.7121 31.8258L44.7144 31.8241L44.7189 31.8205L44.7316 31.8103L44.7362 31.8066L44.7532 31.793L44.7549 31.7915L44.7574 31.7896L44.7629 31.7852L44.7638 31.7845L44.7657 31.7831L44.7666 31.7824L44.7669 31.782L44.7723 31.7778L44.779 31.7725L44.7807 31.771L44.7809 31.7707L44.791 31.7627L44.7922 31.7618L44.7931 31.7611L44.7933 31.7608L44.7995 31.756L44.8018 31.7541L44.8023 31.7537L44.8028 31.7532L44.8055 31.7511L44.8083 31.7489L44.8085 31.7486L44.8127 31.7454L44.8134 31.7447L44.8138 31.7445L44.8143 31.744L44.8149 31.7436L44.8154 31.7431L44.8159 31.7428L44.82 31.7396V31.7394H44.8202L44.8209 31.7389L44.8212 31.7385L44.8218 31.7382L44.8226 31.7374L44.8237 31.7366L44.8241 31.7364L44.8251 31.7353L44.8256 31.735C45.5974 31.1176 45.7225 29.9914 45.1052 29.2195C44.7655 28.7952 44.2514 28.5481 43.7078 28.5481Z" fill="#EFF2FF"/>
<path d="M24.9619 16.6243H26.2868C26.6526 16.6243 26.9492 16.921 26.9492 17.2868C26.9492 17.6526 26.6526 17.9492 26.2868 17.9492H24.9619C24.5961 17.9492 24.2994 17.6526 24.2994 17.2868C24.2994 16.921 24.5961 16.6243 24.9619 16.6243Z" fill="#EFF2FF"/>
</svg>
