<svg width="318" height="60" viewBox="0 0 318 60" fill="none" xmlns="http://www.w3.org/2000/svg">
<rect width="318" height="60" rx="7" fill="#3300FF"/>
<path d="M71.6818 38H72.4091C72.1932 36.875 71.25 36.1023 70.0227 36.1023C68.5312 36.1023 67.4773 37.25 67.4773 39.0909C67.4773 40.9318 68.5227 42.0796 70.0682 42.0796C71.4545 42.0796 72.4432 41.1563 72.4432 39.7159V39.0909H70.2273V39.7159H71.7614C71.7415 40.7614 71.054 41.4205 70.0682 41.4205C68.9886 41.4205 68.1591 40.6023 68.1591 39.0909C68.1591 37.5796 68.9886 36.7614 70.0227 36.7614C70.8636 36.7614 71.4347 37.2358 71.6818 38Z" fill="white"/>
<path d="M75.3885 42.0909C76.2749 42.0909 76.9226 41.6477 77.1271 40.9887L76.4794 40.8068C76.3089 41.2614 75.9141 41.4887 75.3885 41.4887C74.6016 41.4887 74.0589 40.9801 74.0277 40.0455H77.1953V39.7614C77.1953 38.1364 76.2294 37.5796 75.3203 37.5796C74.1385 37.5796 73.3544 38.5114 73.3544 39.8523C73.3544 41.1932 74.1271 42.0909 75.3885 42.0909ZM74.0277 39.4659C74.0732 38.787 74.5533 38.1818 75.3203 38.1818C76.0476 38.1818 76.5135 38.7273 76.5135 39.4659H74.0277Z" fill="white"/>
<path d="M80.1129 37.6364H79.1811V36.5909H78.5107V37.6364H77.8516V38.2046H78.5107V40.9318C78.5107 41.6932 79.1243 42.0568 79.6925 42.0568C79.9425 42.0568 80.1016 42.0114 80.1925 41.9773L80.0561 41.375C79.9993 41.3864 79.9084 41.4091 79.7607 41.4091C79.4652 41.4091 79.1811 41.3182 79.1811 40.75V38.2046H80.1129V37.6364Z" fill="white"/>
<path d="M85.2692 37.6364H84.3374V36.5909H83.6669V37.6364H83.0078V38.2046H83.6669V40.9318C83.6669 41.6932 84.2805 42.0568 84.8487 42.0568C85.0987 42.0568 85.2578 42.0114 85.3487 41.9773L85.2124 41.375C85.1555 41.3864 85.0646 41.4091 84.9169 41.4091C84.6215 41.4091 84.3374 41.3182 84.3374 40.75V38.2046H85.2692V37.6364Z" fill="white"/>
<path d="M87.0419 39.375C87.0419 38.6137 87.5277 38.1818 88.1896 38.1818C88.8203 38.1818 89.201 38.5796 89.201 39.2727V42H89.8714V39.2273C89.8714 38.1051 89.2749 37.5796 88.3828 37.5796C87.6953 37.5796 87.3033 37.8665 87.0987 38.3182H87.0419V36.1818H86.3714V42H87.0419V39.375Z" fill="white"/>
<path d="M92.9276 42.0909C93.8139 42.0909 94.4616 41.6477 94.6662 40.9887L94.0185 40.8068C93.848 41.2614 93.4531 41.4887 92.9276 41.4887C92.1406 41.4887 91.598 40.9801 91.5668 40.0455H94.7344V39.7614C94.7344 38.1364 93.7685 37.5796 92.8594 37.5796C91.6776 37.5796 90.8935 38.5114 90.8935 39.8523C90.8935 41.1932 91.6662 42.0909 92.9276 42.0909ZM91.5668 39.4659C91.6122 38.787 92.0923 38.1818 92.8594 38.1818C93.5866 38.1818 94.0526 38.7273 94.0526 39.4659H91.5668Z" fill="white"/>
<path d="M98.6747 36.1818H98.0043V42H98.6747V36.1818Z" fill="white"/>
<path d="M101.187 42.1023C101.948 42.1023 102.346 41.6932 102.482 41.4091H102.516V42H103.187V39.125C103.187 37.7387 102.13 37.5796 101.573 37.5796C100.914 37.5796 100.164 37.8068 99.8232 38.6023L100.46 38.8296C100.607 38.5114 100.957 38.1705 101.596 38.1705C102.212 38.1705 102.516 38.4972 102.516 39.0568V39.0796C102.516 39.4034 102.187 39.375 101.391 39.4773C100.582 39.5824 99.6982 39.7614 99.6982 40.7614C99.6982 41.6137 100.357 42.1023 101.187 42.1023ZM101.289 41.5C100.755 41.5 100.369 41.2614 100.369 40.7955C100.369 40.2841 100.835 40.125 101.357 40.0568C101.641 40.0227 102.403 39.9432 102.516 39.8068V40.4205C102.516 40.9659 102.085 41.5 101.289 41.5Z" fill="white"/>
<path d="M106.308 37.6364H105.376V36.5909H104.706V37.6364H104.047V38.2046H104.706V40.9318C104.706 41.6932 105.32 42.0568 105.888 42.0568C106.138 42.0568 106.297 42.0114 106.388 41.9773L106.251 41.375C106.195 41.3864 106.104 41.4091 105.956 41.4091C105.661 41.4091 105.376 41.3182 105.376 40.75V38.2046H106.308V37.6364Z" fill="white"/>
<path d="M109.099 42.0909C109.986 42.0909 110.634 41.6477 110.838 40.9887L110.19 40.8068C110.02 41.2614 109.625 41.4887 109.099 41.4887C108.312 41.4887 107.77 40.9801 107.739 40.0455H110.906V39.7614C110.906 38.1364 109.94 37.5796 109.031 37.5796C107.849 37.5796 107.065 38.5114 107.065 39.8523C107.065 41.1932 107.838 42.0909 109.099 42.0909ZM107.739 39.4659C107.784 38.787 108.264 38.1818 109.031 38.1818C109.759 38.1818 110.224 38.7273 110.224 39.4659H107.739Z" fill="white"/>
<path d="M115.017 38.6137C114.807 37.9943 114.335 37.5796 113.472 37.5796C112.551 37.5796 111.869 38.1023 111.869 38.8409C111.869 39.4432 112.227 39.8466 113.028 40.0341L113.756 40.2046C114.196 40.3068 114.403 40.5171 114.403 40.8182C114.403 41.1932 114.006 41.5 113.381 41.5C112.832 41.5 112.489 41.2642 112.369 40.7955L111.733 40.9546C111.889 41.696 112.5 42.0909 113.392 42.0909C114.406 42.0909 115.097 41.537 115.097 40.7841C115.097 40.1762 114.716 39.7926 113.938 39.6023L113.29 39.4432C112.773 39.3154 112.54 39.1421 112.54 38.8068C112.54 38.4318 112.938 38.1591 113.472 38.1591C114.057 38.1591 114.298 38.483 114.415 38.7841L115.017 38.6137Z" fill="white"/>
<path d="M118.004 37.6364H117.072V36.5909H116.401V37.6364H115.742V38.2046H116.401V40.9318C116.401 41.6932 117.015 42.0568 117.583 42.0568C117.833 42.0568 117.992 42.0114 118.083 41.9773L117.947 41.375C117.89 41.3864 117.799 41.4091 117.651 41.4091C117.356 41.4091 117.072 41.3182 117.072 40.75V38.2046H118.004V37.6364Z" fill="white"/>
<path d="M121.933 39.375C121.933 38.6137 122.404 38.1818 123.046 38.1818C123.668 38.1818 124.046 38.5881 124.046 39.2727V42H124.717V39.2273C124.717 38.1137 124.123 37.5796 123.239 37.5796C122.58 37.5796 122.171 37.875 121.967 38.3182H121.91V37.6364H121.262V42H121.933V39.375Z" fill="white"/>
<path d="M127.771 42.0909C128.658 42.0909 129.305 41.6477 129.51 40.9887L128.862 40.8068C128.692 41.2614 128.297 41.4887 127.771 41.4887C126.984 41.4887 126.442 40.9801 126.411 40.0455H129.578V39.7614C129.578 38.1364 128.612 37.5796 127.703 37.5796C126.521 37.5796 125.737 38.5114 125.737 39.8523C125.737 41.1932 126.51 42.0909 127.771 42.0909ZM126.411 39.4659C126.456 38.787 126.936 38.1818 127.703 38.1818C128.43 38.1818 128.896 38.7273 128.896 39.4659H126.411Z" fill="white"/>
<path d="M131.587 42H132.246L133.2 38.6477H133.268L134.223 42H134.882L136.212 37.6364H135.507L134.564 40.9659H134.518L133.598 37.6364H132.882L131.95 40.9773H131.905L130.962 37.6364H130.257L131.587 42Z" fill="white"/>
<path d="M140.189 38.6137C139.979 37.9943 139.507 37.5796 138.643 37.5796C137.723 37.5796 137.041 38.1023 137.041 38.8409C137.041 39.4432 137.399 39.8466 138.2 40.0341L138.928 40.2046C139.368 40.3068 139.575 40.5171 139.575 40.8182C139.575 41.1932 139.178 41.5 138.553 41.5C138.004 41.5 137.661 41.2642 137.541 40.7955L136.905 40.9546C137.061 41.696 137.672 42.0909 138.564 42.0909C139.578 42.0909 140.268 41.537 140.268 40.7841C140.268 40.1762 139.888 39.7926 139.109 39.6023L138.462 39.4432C137.945 39.3154 137.712 39.1421 137.712 38.8068C137.712 38.4318 138.109 38.1591 138.643 38.1591C139.229 38.1591 139.47 38.483 139.587 38.7841L140.189 38.6137Z" fill="white"/>
<path d="M144.812 42.1023C145.573 42.1023 145.971 41.6932 146.107 41.4091H146.141V42H146.812V39.125C146.812 37.7387 145.755 37.5796 145.198 37.5796C144.539 37.5796 143.789 37.8068 143.448 38.6023L144.085 38.8296C144.232 38.5114 144.582 38.1705 145.221 38.1705C145.837 38.1705 146.141 38.4972 146.141 39.0568V39.0796C146.141 39.4034 145.812 39.375 145.016 39.4773C144.207 39.5824 143.323 39.7614 143.323 40.7614C143.323 41.6137 143.982 42.1023 144.812 42.1023ZM144.914 41.5C144.38 41.5 143.994 41.2614 143.994 40.7955C143.994 40.2841 144.46 40.125 144.982 40.0568C145.266 40.0227 146.028 39.9432 146.141 39.8068V40.4205C146.141 40.9659 145.71 41.5 144.914 41.5Z" fill="white"/>
<path d="M148.706 39.375C148.706 38.6137 149.178 38.1818 149.82 38.1818C150.442 38.1818 150.82 38.5881 150.82 39.2727V42H151.49V39.2273C151.49 38.1137 150.896 37.5796 150.013 37.5796C149.354 37.5796 148.945 37.875 148.74 38.3182H148.683V37.6364H148.036V42H148.706V39.375Z" fill="white"/>
<path d="M154.363 42.0909C155.204 42.0909 155.488 41.5682 155.636 41.3296H155.715V42H156.363V36.1818H155.692V38.3296H155.636C155.488 38.1023 155.227 37.5796 154.374 37.5796C153.272 37.5796 152.511 38.4546 152.511 39.8296C152.511 41.2159 153.272 42.0909 154.363 42.0909ZM154.454 41.4887C153.613 41.4887 153.181 40.75 153.181 39.8182C153.181 38.8977 153.602 38.1818 154.454 38.1818C155.272 38.1818 155.704 38.8409 155.704 39.8182C155.704 40.8068 155.261 41.4887 154.454 41.4887Z" fill="white"/>
<path d="M161.695 43.7273C162.741 43.7273 163.582 43.25 163.582 42.125V37.6364H162.934V38.3296H162.866C162.718 38.1023 162.445 37.5796 161.593 37.5796C160.491 37.5796 159.729 38.4546 159.729 39.7955C159.729 41.1591 160.525 41.9318 161.582 41.9318C162.434 41.9318 162.707 41.4318 162.854 41.1932H162.911V42.0796C162.911 42.8068 162.4 43.1364 161.695 43.1364C160.903 43.1364 160.624 42.7188 160.445 42.4773L159.911 42.8523C160.184 43.3097 160.721 43.7273 161.695 43.7273ZM161.673 41.3296C160.832 41.3296 160.4 40.6932 160.4 39.7841C160.4 38.8977 160.82 38.1818 161.673 38.1818C162.491 38.1818 162.923 38.8409 162.923 39.7841C162.923 40.75 162.479 41.3296 161.673 41.3296Z" fill="white"/>
<path d="M166.638 42.0909C167.525 42.0909 168.173 41.6477 168.377 40.9887L167.729 40.8068C167.559 41.2614 167.164 41.4887 166.638 41.4887C165.852 41.4887 165.309 40.9801 165.278 40.0455H168.445V39.7614C168.445 38.1364 167.479 37.5796 166.57 37.5796C165.388 37.5796 164.604 38.5114 164.604 39.8523C164.604 41.1932 165.377 42.0909 166.638 42.0909ZM165.278 39.4659C165.323 38.787 165.803 38.1818 166.57 38.1818C167.298 38.1818 167.763 38.7273 167.763 39.4659H165.278Z" fill="white"/>
<path d="M170.136 39.375C170.136 38.6137 170.607 38.1818 171.249 38.1818C171.871 38.1818 172.249 38.5881 172.249 39.2727V42H172.92V39.2273C172.92 38.1137 172.326 37.5796 171.442 37.5796C170.783 37.5796 170.374 37.875 170.17 38.3182H170.113V37.6364H169.465V42H170.136V39.375Z" fill="white"/>
<path d="M175.974 42.0909C176.861 42.0909 177.509 41.6477 177.713 40.9887L177.065 40.8068C176.895 41.2614 176.5 41.4887 175.974 41.4887C175.188 41.4887 174.645 40.9801 174.614 40.0455H177.781V39.7614C177.781 38.1364 176.815 37.5796 175.906 37.5796C174.724 37.5796 173.94 38.5114 173.94 39.8523C173.94 41.1932 174.713 42.0909 175.974 42.0909ZM174.614 39.4659C174.659 38.787 175.139 38.1818 175.906 38.1818C176.634 38.1818 177.099 38.7273 177.099 39.4659H174.614Z" fill="white"/>
<path d="M178.801 42H179.472V39.2387C179.472 38.6477 179.938 38.2159 180.574 38.2159C180.753 38.2159 180.938 38.25 180.983 38.2614V37.5796C180.906 37.5739 180.73 37.5682 180.631 37.5682C180.108 37.5682 179.653 37.8637 179.494 38.2955H179.449V37.6364H178.801V42Z" fill="white"/>
<path d="M183.062 42.1023C183.823 42.1023 184.221 41.6932 184.357 41.4091H184.391V42H185.062V39.125C185.062 37.7387 184.005 37.5796 183.448 37.5796C182.789 37.5796 182.039 37.8068 181.698 38.6023L182.335 38.8296C182.482 38.5114 182.832 38.1705 183.471 38.1705C184.087 38.1705 184.391 38.4972 184.391 39.0568V39.0796C184.391 39.4034 184.062 39.375 183.266 39.4773C182.457 39.5824 181.573 39.7614 181.573 40.7614C181.573 41.6137 182.232 42.1023 183.062 42.1023ZM183.164 41.5C182.63 41.5 182.244 41.2614 182.244 40.7955C182.244 40.2841 182.71 40.125 183.232 40.0568C183.516 40.0227 184.278 39.9432 184.391 39.8068V40.4205C184.391 40.9659 183.96 41.5 183.164 41.5Z" fill="white"/>
<path d="M186.956 36.1818H186.286V42H186.956V36.1818Z" fill="white"/>
<path d="M190.434 42H191.104V40.3665L191.573 39.9318L193.207 42H194.059L192.079 39.5L193.923 37.6364H193.093L191.184 39.5796H191.104V36.1818H190.434V42Z" fill="white"/>
<path d="M195.456 39.375C195.456 38.6137 195.928 38.1818 196.57 38.1818C197.192 38.1818 197.57 38.5881 197.57 39.2727V42H198.24V39.2273C198.24 38.1137 197.646 37.5796 196.763 37.5796C196.104 37.5796 195.695 37.875 195.49 38.3182H195.433V37.6364H194.786V42H195.456V39.375Z" fill="white"/>
<path d="M201.238 42.0909C202.42 42.0909 203.215 41.1932 203.215 39.8409C203.215 38.4773 202.42 37.5796 201.238 37.5796C200.056 37.5796 199.261 38.4773 199.261 39.8409C199.261 41.1932 200.056 42.0909 201.238 42.0909ZM201.238 41.4887C200.34 41.4887 199.931 40.7159 199.931 39.8409C199.931 38.9659 200.34 38.1818 201.238 38.1818C202.136 38.1818 202.545 38.9659 202.545 39.8409C202.545 40.7159 202.136 41.4887 201.238 41.4887Z" fill="white"/>
<path d="M205.079 42H205.738L206.692 38.6477H206.761L207.715 42H208.374L209.704 37.6364H208.999L208.056 40.9659H208.011L207.09 37.6364H206.374L205.442 40.9773H205.397L204.454 37.6364H203.749L205.079 42Z" fill="white"/>
<path d="M211.261 36.1818H210.59V42H211.261V36.1818Z" fill="white"/>
<path d="M214.318 42.0909C215.205 42.0909 215.852 41.6477 216.057 40.9887L215.409 40.8068C215.239 41.2614 214.844 41.4887 214.318 41.4887C213.531 41.4887 212.989 40.9801 212.957 40.0455H216.125V39.7614C216.125 38.1364 215.159 37.5796 214.25 37.5796C213.068 37.5796 212.284 38.5114 212.284 39.8523C212.284 41.1932 213.057 42.0909 214.318 42.0909ZM212.957 39.4659C213.003 38.787 213.483 38.1818 214.25 38.1818C214.977 38.1818 215.443 38.7273 215.443 39.4659H212.957Z" fill="white"/>
<path d="M218.793 42.0909C219.634 42.0909 219.918 41.5682 220.065 41.3296H220.145V42H220.793V36.1818H220.122V38.3296H220.065C219.918 38.1023 219.656 37.5796 218.804 37.5796C217.702 37.5796 216.94 38.4546 216.94 39.8296C216.94 41.2159 217.702 42.0909 218.793 42.0909ZM218.884 41.4887C218.043 41.4887 217.611 40.75 217.611 39.8182C217.611 38.8977 218.031 38.1818 218.884 38.1818C219.702 38.1818 220.134 38.8409 220.134 39.8182C220.134 40.8068 219.69 41.4887 218.884 41.4887Z" fill="white"/>
<path d="M223.875 43.7273C224.92 43.7273 225.761 43.25 225.761 42.125V37.6364H225.114V38.3296H225.045C224.898 38.1023 224.625 37.5796 223.773 37.5796C222.67 37.5796 221.909 38.4546 221.909 39.7955C221.909 41.1591 222.705 41.9318 223.761 41.9318C224.614 41.9318 224.886 41.4318 225.034 41.1932H225.091V42.0796C225.091 42.8068 224.58 43.1364 223.875 43.1364C223.082 43.1364 222.804 42.7188 222.625 42.4773L222.091 42.8523C222.364 43.3097 222.901 43.7273 223.875 43.7273ZM223.852 41.3296C223.011 41.3296 222.58 40.6932 222.58 39.7841C222.58 38.8977 223 38.1818 223.852 38.1818C224.67 38.1818 225.102 38.8409 225.102 39.7841C225.102 40.75 224.659 41.3296 223.852 41.3296Z" fill="white"/>
<path d="M228.818 42.0909C229.705 42.0909 230.352 41.6477 230.557 40.9887L229.909 40.8068C229.739 41.2614 229.344 41.4887 228.818 41.4887C228.031 41.4887 227.489 40.9801 227.457 40.0455H230.625V39.7614C230.625 38.1364 229.659 37.5796 228.75 37.5796C227.568 37.5796 226.784 38.5114 226.784 39.8523C226.784 41.1932 227.557 42.0909 228.818 42.0909ZM227.457 39.4659C227.503 38.787 227.983 38.1818 228.75 38.1818C229.477 38.1818 229.943 38.7273 229.943 39.4659H227.457Z" fill="white"/>
<path d="M68.7685 30L69.8658 26.9105H74.2763L75.3736 30H76.7585L72.7528 19.0909H71.3892L67.3835 30H68.7685ZM70.2812 25.7386L72.0284 20.8167H72.1136L73.8608 25.7386H70.2812Z" fill="white"/>
<path d="M84.0827 23.6505C83.6886 22.4893 82.8043 21.7116 81.185 21.7116C79.4592 21.7116 78.1808 22.6917 78.1808 24.0767C78.1808 25.2059 78.8519 25.9623 80.354 26.3139L81.7177 26.6335C82.5433 26.8253 82.9322 27.2194 82.9322 27.7841C82.9322 28.4872 82.1864 29.0625 81.0146 29.0625C79.9865 29.0625 79.342 28.6204 79.1183 27.7414L77.9251 28.0397C78.218 29.43 79.3633 30.1704 81.0359 30.1704C82.9375 30.1704 84.2319 29.1317 84.2319 27.7201C84.2319 26.5802 83.5181 25.8611 82.0586 25.5042L80.8441 25.2059C79.8746 24.9662 79.4379 24.6413 79.4379 24.0128C79.4379 23.3096 80.1836 22.7983 81.185 22.7983C82.2823 22.7983 82.7351 23.4055 82.9535 23.9701L84.0827 23.6505Z" fill="white"/>
<path d="M86.1242 30H87.3813V26.9371L88.2602 26.1221L91.3231 30H92.9211L89.2084 25.3125L92.6654 21.8182H91.11L87.5305 25.4616H87.3813V19.0909H86.1242V30Z" fill="white"/>
<path d="M100.91 30.1917C102.337 30.1917 103.083 29.4247 103.339 28.892H103.403V30H104.66V24.6093C104.66 22.0099 102.678 21.7116 101.634 21.7116C100.398 21.7116 98.9922 22.1378 98.353 23.6292L99.5462 24.0554C99.8232 23.4588 100.478 22.8196 101.677 22.8196C102.833 22.8196 103.403 23.4321 103.403 24.4815V24.5241C103.403 25.1314 102.785 25.0781 101.293 25.2699C99.7752 25.4669 98.1186 25.8025 98.1186 27.6775C98.1186 29.2755 99.3544 30.1917 100.91 30.1917ZM101.102 29.0625C100.1 29.0625 99.3757 28.615 99.3757 27.7414C99.3757 26.7826 100.249 26.4843 101.229 26.3565C101.762 26.2926 103.19 26.1434 103.403 25.8878V27.0383C103.403 28.0611 102.593 29.0625 101.102 29.0625Z" fill="white"/>
<path d="M114.263 30.1704C115.839 30.1704 116.372 29.1903 116.649 28.7429H116.798V30H118.013V19.0909H116.755V23.1179H116.649C116.372 22.6917 115.882 21.7116 114.284 21.7116C112.217 21.7116 110.79 23.3522 110.79 25.9304C110.79 28.5298 112.217 30.1704 114.263 30.1704ZM114.433 29.0412C112.856 29.0412 112.047 27.6562 112.047 25.9091C112.047 24.1832 112.835 22.8409 114.433 22.8409C115.967 22.8409 116.777 24.0767 116.777 25.9091C116.777 27.7628 115.946 29.0412 114.433 29.0412Z" fill="white"/>
<path d="M123.813 30.1704C126.029 30.1704 127.521 28.4872 127.521 25.9517C127.521 23.3949 126.029 21.7116 123.813 21.7116C121.597 21.7116 120.106 23.3949 120.106 25.9517C120.106 28.4872 121.597 30.1704 123.813 30.1704ZM123.813 29.0412C122.13 29.0412 121.363 27.5923 121.363 25.9517C121.363 24.3111 122.13 22.8409 123.813 22.8409C125.497 22.8409 126.264 24.3111 126.264 25.9517C126.264 27.5923 125.497 29.0412 123.813 29.0412Z" fill="white"/>
<path d="M134.596 26.6548C134.596 28.1889 133.424 28.892 132.487 28.892C131.442 28.892 130.697 28.125 130.697 26.9318V21.8182H129.44V27.017C129.44 29.1051 130.548 30.1065 132.082 30.1065C133.317 30.1065 134.127 29.446 134.511 28.615H134.596V30H135.853V21.8182H134.596V26.6548Z" fill="white"/>
<path d="M138.326 30H139.54V28.7429H139.69C139.967 29.1903 140.499 30.1704 142.076 30.1704C144.121 30.1704 145.549 28.5298 145.549 25.9304C145.549 23.3522 144.121 21.7116 142.055 21.7116C140.457 21.7116 139.967 22.6917 139.69 23.1179H139.583V19.0909H138.326V30ZM139.562 25.9091C139.562 24.0767 140.371 22.8409 141.905 22.8409C143.503 22.8409 144.292 24.1832 144.292 25.9091C144.292 27.6562 143.482 29.0412 141.905 29.0412C140.393 29.0412 139.562 27.7628 139.562 25.9091Z" fill="white"/>
<path d="M151.03 21.8182H149.283V19.8579H148.026V21.8182H146.79V22.8835H148.026V27.9971C148.026 29.4247 149.176 30.1065 150.242 30.1065C150.71 30.1065 151.009 30.0213 151.179 29.9574L150.924 28.8281C150.817 28.8494 150.647 28.892 150.37 28.892C149.816 28.892 149.283 28.7216 149.283 27.6562V22.8835H151.03V21.8182Z" fill="white"/>
<path d="M20.5689 16.7844H52.6878C54.659 16.7844 56.2567 18.3822 56.2567 20.3533V41.7661C56.2567 43.737 54.659 45.3347 52.6878 45.3347H20.5689C18.5978 45.3347 17 43.737 17 41.7661V20.3533C17 18.3822 18.5978 16.7844 20.5689 16.7844Z" fill="#0784FF"/>
<path d="M45.5503 22.1378H50.9036C51.8889 22.1378 52.6878 22.9366 52.6878 23.922C52.6878 24.9075 51.8889 25.7064 50.9036 25.7064H45.5503C44.5647 25.7064 43.7659 24.9075 43.7659 23.922C43.7659 22.9366 44.5647 22.1378 45.5503 22.1378Z" fill="#005EEE"/>
<path d="M45.5503 31.0597H50.9036C51.8889 31.0597 52.6878 31.8586 52.6878 32.8439C52.6878 33.8295 51.8889 34.6283 50.9036 34.6283H45.5503C44.5647 34.6283 43.7659 33.8295 43.7659 32.8439C43.7659 31.8586 44.5647 31.0597 45.5503 31.0597Z" fill="#005EEE"/>
<path d="M45.5503 39.9817H50.9036C51.8889 39.9817 52.6878 40.7806 52.6878 41.7659C52.6878 42.7515 51.8889 43.5503 50.9036 43.5503H45.5503C44.5647 43.5503 43.7659 42.7515 43.7659 41.7659C43.7659 40.7806 44.5647 39.9817 45.5503 39.9817Z" fill="#005EEE"/>
<path d="M52.6878 16.7844H20.5279L20.5229 16.7847H20.5051C20.5015 16.7849 20.4979 16.7849 20.4943 16.7849H20.4932L20.4891 16.7851H20.482L20.4774 16.7854H20.4698L20.4662 16.7856H20.4605L20.4591 16.7859H20.4536L20.4484 16.7861H20.447L20.4431 16.7863H20.4415L20.4377 16.7866H20.4362L20.431 16.7868L20.4255 16.787H20.4243L20.4203 16.7873L20.4186 16.7875L20.4146 16.7878H20.4134L20.4081 16.788H20.4079L20.4027 16.7882L20.4012 16.7885H20.3974L20.3958 16.7887L20.392 16.7889H20.3905L20.3855 16.7892H20.3853L20.38 16.7894H20.3786L20.3746 16.7897H20.3729L20.3691 16.7899L20.3677 16.7901L20.3572 16.7906L20.3562 16.7909L20.3517 16.7911H20.3505L20.3462 16.7913H20.345L20.3346 16.792H20.3334L20.3293 16.7923L20.3277 16.7925L20.3239 16.7928H20.3224C20.3189 16.793 20.3153 16.7932 20.3117 16.7935L20.3108 16.7937L20.3065 16.7939H20.305L20.301 16.7942L20.2998 16.7944C20.2962 16.7947 20.2927 16.7949 20.2891 16.7951L20.2881 16.7954L20.2836 16.7956H20.2827L20.2779 16.7961H20.2772L20.2665 16.797H20.2658L20.2612 16.7975H20.2598L20.2558 16.798H20.2546L20.2438 16.7989L20.2429 16.7992L20.2386 16.7994L20.2372 16.7997L20.2331 16.7999L20.2319 16.8001L20.2212 16.8011L20.2205 16.8013L20.216 16.8016L20.2148 16.8018L20.2107 16.8023H20.2093C20.2057 16.8028 20.2024 16.803 20.1988 16.8035H20.1977L20.1936 16.8039L20.1919 16.8042L20.1884 16.8044L20.1869 16.8047L20.1822 16.8051H20.1817L20.1765 16.8056L20.1753 16.8059L20.1712 16.8063H20.1698L20.1657 16.8068L20.1646 16.807C20.161 16.8075 20.1574 16.8078 20.1538 16.8082H20.1534L20.1486 16.8089H20.1476L20.1429 16.8094L20.1424 16.8097C20.1369 16.8101 20.1317 16.8109 20.1262 16.8116H20.1253L20.1205 16.8123H20.1198L20.1091 16.8137H20.1088L20.1036 16.8144H20.1031L20.0981 16.8151H20.0976C20.0922 16.8159 20.0869 16.8166 20.0815 16.8173L20.0807 16.8175L20.0757 16.818L20.0755 16.8182C20.07 16.819 20.0645 16.8197 20.0591 16.8204L20.0586 16.8206L20.0536 16.8213H20.0534L20.0369 16.8237H20.0364L20.0314 16.8244L20.031 16.8247C20.0255 16.8254 20.0203 16.8263 20.0145 16.827C20.0072 16.8282 20 16.8294 19.9926 16.8306H19.9924C19.985 16.8318 19.9779 16.833 19.9705 16.8342H19.9703C19.9629 16.8356 19.956 16.8368 19.9486 16.838H19.9483C19.9336 16.8406 19.9193 16.8432 19.9045 16.8461C19.89 16.8487 19.8755 16.8516 19.861 16.8547H19.8605C19.8531 16.8561 19.846 16.8575 19.8388 16.859H19.8386C18.5947 17.1202 17.5827 18.0221 17.181 19.228C17.0262 19.6959 17.2803 20.2007 17.7479 20.3552C18.2153 20.5097 18.7194 20.2566 18.8747 19.7897C19.1168 19.0596 19.7998 18.5674 20.5689 18.5686H52.6878C53.446 18.5689 54.1213 19.0475 54.3727 19.7625C54.5356 20.2278 55.0445 20.4728 55.5095 20.3102C55.9748 20.1476 56.2198 19.6385 56.0572 19.1734C56.0569 19.1732 56.0569 19.173 56.0569 19.1725L56.056 19.1696L56.0553 19.1682L56.0543 19.1653L56.0538 19.1634L56.0526 19.1606L56.0522 19.1592L56.0488 19.1494L56.0481 19.1475L56.0472 19.1449L56.0464 19.143L56.0455 19.1403L56.0445 19.138L56.0429 19.1332L56.0422 19.1318L56.0412 19.1287L56.0407 19.1275L56.0395 19.1244L56.0391 19.1227L56.0381 19.1199L56.0374 19.1187L56.0355 19.1132L56.0348 19.1113L56.0341 19.1089L56.0331 19.1068L56.0322 19.1044L56.0314 19.102L56.0305 19.0999L56.0295 19.0975L56.0281 19.0934L56.0262 19.0887L56.0255 19.0865L56.0245 19.0839L56.0236 19.0815L56.0229 19.0796L56.0212 19.0753L56.0205 19.0737L56.0193 19.0708L56.0186 19.0687L56.0176 19.066L56.0167 19.0639L56.0155 19.061L56.015 19.0594L56.0133 19.0551L56.0124 19.0532L56.0114 19.0506L56.0107 19.0484L56.0095 19.0458L56.0074 19.0401L56.0069 19.0389L56.0053 19.0349L56.0048 19.0332L56.0033 19.0303L56.0029 19.0287L56.0014 19.0256L56.001 19.0239L55.9991 19.0194L55.9986 19.0182L55.9974 19.0149L55.9967 19.0132L55.9953 19.0101L55.9948 19.0084L55.9933 19.0053L55.9929 19.0039L55.991 18.9994L55.9905 18.9984L55.9891 18.9946L55.9883 18.9932L55.9872 18.9899L55.9864 18.9887L55.9848 18.9849L55.9845 18.9839L55.9826 18.9791L55.9822 18.9784L55.9807 18.9748L55.98 18.9729L55.9788 18.9701L55.9781 18.9684L55.9767 18.9648L55.9762 18.9639L55.9743 18.9594L55.9738 18.9579L55.9724 18.9548L55.9717 18.9532L55.97 18.9496L55.9698 18.9489C55.9686 18.9458 55.9672 18.9425 55.9657 18.9394L55.9652 18.9384L55.9638 18.9346L55.9633 18.9337L55.9614 18.9291L55.9572 18.9194L55.9569 18.9191L55.955 18.9144L55.9548 18.9141C55.9526 18.9091 55.9505 18.9044 55.9483 18.8996L55.9481 18.8991L55.9462 18.8946L55.946 18.8944L55.9395 18.8798L55.9393 18.8796C55.9371 18.8746 55.9348 18.8698 55.9326 18.8648C55.9295 18.8582 55.9267 18.8517 55.9236 18.8453V18.8451C55.9174 18.832 55.9112 18.8191 55.905 18.806C55.5319 18.0331 54.894 17.42 54.1072 17.0778C54.1006 17.0749 54.0939 17.0721 54.0875 17.0692H54.087L54.0825 17.0671H54.082L54.0675 17.0609L54.067 17.0606C54.0487 17.053 54.0303 17.0454 54.0117 17.038C54.0051 17.0354 53.9984 17.0328 53.9917 17.0302L53.9915 17.0299C53.9848 17.0273 53.9782 17.0247 53.9713 17.0221C53.9663 17.0202 53.9613 17.0183 53.9563 17.0163L53.9558 17.0161C53.9491 17.0135 53.9425 17.0111 53.9356 17.0085C53.9289 17.0061 53.9222 17.0035 53.9155 17.0011L53.9148 17.0009C53.9082 16.9985 53.9015 16.9961 53.8948 16.9937H53.8946C53.8877 16.9911 53.881 16.9887 53.8744 16.9863H53.8741C53.862 16.9821 53.8501 16.978 53.8382 16.9737H53.8379L53.8329 16.9721H53.8327C53.8208 16.968 53.8086 16.964 53.7965 16.9599C53.7913 16.9582 53.7863 16.9566 53.7812 16.9549L53.7805 16.9547L53.7758 16.9532H53.7755C53.7703 16.9516 53.7655 16.9499 53.7603 16.9482L53.7553 16.9466H53.7546C53.7512 16.9454 53.7479 16.9444 53.7446 16.9432H53.7441L53.7393 16.9418L53.7389 16.9416C53.7336 16.9399 53.7286 16.9385 53.7234 16.9368H53.7232L53.7184 16.9354L53.7179 16.9352C53.7127 16.9335 53.7074 16.9321 53.7024 16.9306L53.702 16.9304L53.6974 16.929L53.6967 16.9287C53.6931 16.9278 53.6898 16.9268 53.6865 16.9259H53.6862L53.6815 16.9244L53.6805 16.9242L53.676 16.9228H53.6755L53.6653 16.9197H53.6648L53.6603 16.9182L53.6596 16.918L53.6548 16.9168L53.6546 16.9166L53.6443 16.9137L53.6436 16.9135L53.6391 16.9123L53.6384 16.9121L53.6334 16.9106L53.6231 16.908L53.6222 16.9078L53.6179 16.9066L53.6172 16.9063C53.6122 16.9049 53.6069 16.9035 53.6017 16.9023L53.6012 16.9021L53.5965 16.9009L53.596 16.9006C53.5924 16.8999 53.5891 16.899 53.5855 16.898L53.585 16.8978L53.581 16.8968L53.5793 16.8963L53.5746 16.8951L53.5643 16.8925L53.5636 16.8923L53.5593 16.8913L53.5584 16.8911C53.5531 16.8897 53.5479 16.8885 53.5429 16.8873L53.5424 16.8871L53.5377 16.8859H53.5372L53.5215 16.8821L53.5208 16.8818L53.5162 16.8809L53.5155 16.8806L53.5053 16.8782L53.5046 16.878L53.5 16.8771L53.4991 16.8768L53.4948 16.8759L53.4938 16.8756L53.4836 16.8732L53.4829 16.873L53.4784 16.8721L53.4777 16.8718L53.4729 16.8709L53.4724 16.8706C53.4688 16.8699 53.4655 16.8692 53.4619 16.8685L53.4612 16.8682L53.4569 16.8673L53.4557 16.867L53.4512 16.8661L53.4507 16.8659L53.4455 16.8649L53.445 16.8647L53.4405 16.8637L53.4393 16.8635L53.435 16.8628L53.4343 16.8625L53.4293 16.8613H53.4291L53.4238 16.8604L53.4191 16.8592L53.4174 16.859L53.4138 16.8582L53.4124 16.858L53.4022 16.8559L53.4012 16.8556L53.3972 16.8547L53.396 16.8544L53.3915 16.8537L53.391 16.8535L53.3805 16.8513H53.3796L53.3755 16.8504L53.3743 16.8501L53.3698 16.8494L53.3691 16.8492L53.3638 16.8482H53.3634L53.3588 16.8473L53.3574 16.847L53.3536 16.8463L53.3522 16.8461C53.3491 16.8454 53.3453 16.8449 53.3419 16.8442L53.3412 16.844L53.3367 16.8432L53.3357 16.843L53.3315 16.8423L53.3305 16.842C53.3272 16.8413 53.3236 16.8409 53.3203 16.8401L53.3188 16.8399L53.315 16.8394L53.3138 16.8392L53.3095 16.8382H53.3086C53.3053 16.8375 53.3017 16.837 53.2984 16.8363L53.2969 16.8361L53.2931 16.8354L53.2917 16.8351L53.2876 16.8344H53.2867L53.2814 16.8335H53.2812L53.2753 16.8323L53.271 16.8318L53.27 16.8316L53.265 16.8306H53.2648L53.2593 16.8299L53.2591 16.8297L53.2543 16.829L53.2531 16.8287L53.2491 16.828H53.2479L53.2374 16.8263L53.2364 16.8261L53.2326 16.8254L53.2269 16.8247L53.226 16.8244C53.2224 16.824 53.2191 16.8235 53.2155 16.823L53.2143 16.8228L53.2105 16.8223L53.2088 16.822L53.2048 16.8213H53.2038L53.1986 16.8204H53.1979L53.1933 16.8197H53.1922L53.1881 16.819H53.1869L53.1822 16.8182L53.1817 16.818L53.1764 16.8173H53.1757L53.1712 16.8166H53.17L53.1662 16.8159H53.1648L53.1543 16.8144H53.1536L53.1491 16.8137H53.1476L53.1441 16.813H53.1424C53.1388 16.8125 53.1357 16.812 53.1321 16.8116H53.131L53.1267 16.8111L53.1255 16.8109L53.1212 16.8104L53.1202 16.8101L53.115 16.8097H53.1148L53.11 16.8089H53.1083L53.1045 16.8085L53.1031 16.8082L53.099 16.8078L53.0979 16.8075L53.0929 16.807L53.0914 16.8068L53.0876 16.8066L53.0857 16.8063L53.0824 16.8059L53.0767 16.8051H53.0752L53.0705 16.8047L53.0688 16.8044L53.0652 16.8042L53.0633 16.8039L53.06 16.8035H53.0583L53.0536 16.8028H53.0526L53.0481 16.8023L53.0462 16.802L53.0429 16.8018L53.041 16.8016L53.0374 16.8011H53.0359L53.0307 16.8006H53.03L53.0257 16.8001L53.0238 16.7999L53.0205 16.7997L53.0186 16.7994L53.0145 16.7989H53.0133L53.0083 16.7985L53.0069 16.7982L53.0031 16.798L53.0014 16.7978L52.9978 16.7975L52.9962 16.7973L52.9919 16.797H52.9909L52.9859 16.7966L52.9845 16.7963L52.9807 16.7961H52.9793L52.975 16.7956H52.9738L52.9633 16.7947H52.9617L52.9581 16.7944L52.9564 16.7942L52.9528 16.7939H52.9512L52.9462 16.7935H52.9455L52.9409 16.7932H52.9393L52.9357 16.793L52.9338 16.7928L52.93 16.7925L52.9286 16.7923L52.9233 16.792H52.9224L52.9183 16.7918L52.9164 16.7916L52.9128 16.7913H52.9112L52.9067 16.7911H52.9062L52.9007 16.7909L52.8997 16.7906L52.8957 16.7904H52.8938L52.8902 16.7901H52.8886L52.8843 16.7899L52.8833 16.7897L52.8783 16.7894H52.8764L52.8731 16.7892H52.8709L52.8674 16.7889H52.8659L52.8607 16.7887H52.8597L52.8555 16.7885H52.8538L52.8502 16.7882H52.8483L52.8447 16.788H52.8433L52.8381 16.7878H52.8371L52.8326 16.7875L52.8312 16.7873H52.8255L52.8216 16.787H52.8202L52.8152 16.7868H52.8138L52.81 16.7866H52.8047L52.8028 16.7863H52.7976L52.7924 16.7861H52.7871L52.7852 16.7859H52.78L52.7752 16.7856H52.7626L52.7585 16.7854H52.7447L52.7412 16.7851H52.6954L52.6878 16.7844Z" fill="#005EEE"/>
<path d="M45.5503 38.1972H50.9036C51.8889 38.1972 52.6878 38.9961 52.6878 39.9816C52.6878 40.967 51.8889 41.7658 50.9036 41.7658H45.5503C44.5647 41.7658 43.7659 40.967 43.7659 39.9816C43.7659 38.9961 44.5647 38.1972 45.5503 38.1972Z" fill="#DFE5FF"/>
<path d="M29.4908 15C34.4182 15 38.4128 18.9946 38.4128 23.922V36.4128H20.5689V23.922C20.5689 18.9946 24.5633 15 29.4908 15Z" fill="#002755"/>
<path d="M36.6284 27.4909C36.6284 28.4764 35.8295 29.2753 34.8439 29.2753C33.8586 29.2753 33.0595 28.4764 33.0595 27.4909C33.0595 26.5053 33.8586 25.7064 34.8439 25.7064C35.8295 25.7064 36.6284 26.5053 36.6284 27.4909Z" fill="#FFA300"/>
<path d="M29.4908 32.8439L19.163 37.2703C17.8508 37.8327 17 39.1228 17 40.5505V41.7659C17 43.737 18.5978 45.3348 20.5689 45.3348H38.4128C40.3837 45.3348 41.9814 43.737 41.9814 41.7659V40.5503C41.9814 39.1228 41.1306 37.8325 39.8186 37.2703L29.4908 32.8439Z" fill="#DFE5FF"/>
<path d="M28.5986 43.5503H33.9517C34.4446 43.5503 34.8439 43.9499 34.8439 44.4425C34.8439 44.9354 34.4446 45.3347 33.9517 45.3347H28.5986C28.1057 45.3347 27.7064 44.9354 27.7064 44.4425C27.7064 43.9499 28.1057 43.5503 28.5986 43.5503Z" fill="#CCD4FF"/>
<path d="M33.0595 41.7661H34.8439C35.8295 41.7661 36.6283 42.565 36.6283 43.5503C36.6283 44.5359 35.8295 45.3348 34.8439 45.3348H33.0595C32.0741 45.3348 31.2753 44.5359 31.2753 43.5503C31.2753 42.565 32.0741 41.7661 33.0595 41.7661Z" fill="#CCD4FF"/>
<path d="M34.8439 35.1382L29.4908 32.8439L24.1375 35.1382V36.4128C24.1375 39.3693 26.5344 41.7659 29.4908 41.7659C32.4473 41.7659 34.8439 39.3693 34.8439 36.4128V35.1382Z" fill="#FFBE00"/>
<path d="M28.2119 33.3921C27.5259 34.0952 27.5397 35.2213 28.2429 35.9073C28.5765 36.2328 29.0246 36.4142 29.4908 36.4128C30.4762 36.4128 31.2753 37.2117 31.2753 38.1972C31.2753 39.1828 30.4764 39.9817 29.4908 39.9817C28.6146 39.9817 27.9198 40.6251 27.7686 41.4575C28.3217 41.6552 28.9037 41.7595 29.4908 41.7661C32.4473 41.7661 34.8439 39.3695 34.8439 36.4128V35.1382L29.4908 32.8439L28.2119 33.3921Z" fill="#FFA300"/>
<path d="M23.4748 33.8228L19.2433 35.5153C17.8884 36.0575 17 37.3698 17 38.829V41.7661C17 43.737 18.5978 45.3348 20.5689 45.3348H24.1375C25.1231 45.3348 25.922 44.5359 25.922 43.5506V35.4796C25.922 34.4941 25.1231 33.6952 24.1375 33.6952C23.9106 33.6952 23.6856 33.7385 23.4748 33.8228Z" fill="#C776F6"/>
<path d="M24.1375 38.1972C25.1231 38.1972 25.922 38.9961 25.922 39.9816V43.5503C25.922 44.5358 25.1231 45.3347 24.1378 45.3347C23.1522 45.3347 22.3533 44.5358 22.3533 43.5503V39.9816C22.3531 38.9961 23.1522 38.1972 24.1375 38.1972Z" fill="#B244F1"/>
<path d="M35.5066 33.8228L39.7381 35.5153C41.093 36.0575 41.9814 37.3698 41.9814 38.829V41.7659C41.9814 43.737 40.3837 45.3348 38.4128 45.3348H34.8439C33.8584 45.3348 33.0595 44.5359 33.0595 43.5503V35.4796C33.0595 34.4941 33.8584 33.6952 34.8439 33.6952C35.0708 33.6952 35.2959 33.7385 35.5066 33.8228Z" fill="#C776F6"/>
<path d="M37.5206 36.4128C38.9988 36.4128 40.1972 37.6112 40.1972 39.0894C40.1972 40.5677 38.9988 41.7661 37.5206 41.7661C36.0424 41.7661 34.8439 40.5677 34.8439 39.0894C34.8439 37.6112 36.0424 36.4128 37.5206 36.4128Z" fill="#B244F1"/>
<path d="M27.7064 31.0597H31.2753V38.1972H27.7064V31.0597Z" fill="#FFBE00"/>
<path d="M29.4908 36.4128C30.4764 36.4128 31.2753 37.2116 31.2753 38.1972V33.6087L29.4908 32.8441L28.2119 33.392C27.5259 34.0952 27.5397 35.2212 28.2429 35.9072C28.5765 36.2327 29.0246 36.4142 29.4908 36.4128Z" fill="#FFA300"/>
<path d="M25.922 27.4909C25.922 28.4764 25.1231 29.2753 24.1375 29.2753C23.1522 29.2753 22.3533 28.4764 22.3533 27.4909C22.3533 26.5053 23.1522 25.7064 24.1375 25.7064C25.1231 25.7064 25.922 26.5053 25.922 27.4909Z" fill="#FFBE00"/>
<path d="M29.4908 18.5688C32.4473 18.5688 34.8439 20.9655 34.8439 23.9219V29.2752C34.8439 32.2317 32.4473 34.6283 29.4908 34.6283C26.5344 34.6283 24.1378 32.2317 24.1378 29.2752V23.9219C24.1375 20.9655 26.5344 18.5688 29.4908 18.5688Z" fill="#FFBE00"/>
<path d="M24.1375 23.922V29.2753C24.1413 30.2556 24.4166 31.2157 24.9328 32.0489C27.4357 33.5954 30.7181 32.8199 32.2644 30.3173C32.789 29.4682 33.0645 28.4888 33.0595 27.4909V22.1378C33.0559 21.1575 32.7806 20.1974 32.2644 19.3642C29.7616 17.8177 26.4792 18.593 24.9328 21.0958C24.4083 21.9449 24.1328 22.924 24.1375 23.922Z" fill="#FFEA21"/>
<path d="M33.0595 26.5986C33.0595 27.0915 32.6601 27.4909 32.1672 27.4909C31.6746 27.4909 31.2753 27.0915 31.2753 26.5986C31.2753 26.106 31.6746 25.7064 32.1672 25.7064C32.6601 25.7064 33.0595 26.106 33.0595 26.5986Z" fill="#005EEE"/>
<path d="M27.7064 26.5986C27.7064 27.0915 27.3068 27.4909 26.8142 27.4909C26.3215 27.4909 25.922 27.0915 25.922 26.5986C25.922 26.106 26.3215 25.7064 26.8142 25.7064C27.3068 25.7064 27.7064 26.106 27.7064 26.5986Z" fill="#005EEE"/>
<path d="M28.5986 27.4908H30.383C30.8757 27.4908 31.2753 27.8904 31.2753 28.3831C31.2753 28.8757 30.8757 29.2753 30.383 29.2753H28.5986C28.1057 29.2753 27.7064 28.8757 27.7064 28.3831C27.7064 27.8904 28.1057 27.4908 28.5986 27.4908Z" fill="#FFBE00"/>
<path d="M28.5986 31.0597H30.383C30.8757 31.0597 31.2753 31.459 31.2753 31.9519C31.2753 32.4446 30.8757 32.8439 30.383 32.8439H28.5986C28.1057 32.8439 27.7064 32.4446 27.7064 31.9519C27.7064 31.459 28.1057 31.0597 28.5986 31.0597Z" fill="#FFFF9D"/>
<path d="M34.8439 32.8439H38.4128V37.305C38.4128 38.7833 37.2144 39.9817 35.7361 39.9817C34.2579 39.9817 33.0595 38.7833 33.0595 37.305V34.6284C33.0595 33.6428 33.8586 32.8439 34.8439 32.8439Z" fill="#002755"/>
<path d="M29.4908 16.7844C25.5488 16.7844 22.3533 19.9802 22.3533 23.9219C22.3533 24.9075 23.1522 25.7064 24.1375 25.7064H26.6034C27.2795 25.7064 27.8974 25.3244 28.1995 24.7201L29.4908 22.1377L30.7819 24.7201C31.0843 25.3244 31.702 25.7064 32.378 25.7064H34.8439C35.8295 25.7064 36.6284 24.9075 36.6284 23.9219C36.6284 19.9802 33.4328 16.7844 29.4908 16.7844Z" fill="#163969"/>
<path d="M27.5478 18.7272C27.1428 18.322 26.0863 18.7215 25.1881 19.6197C24.2901 20.5176 23.8906 21.5742 24.2959 21.9794C24.7009 22.3847 25.7574 21.9851 26.6556 21.087C27.5535 20.189 27.9531 19.1325 27.5478 18.7272Z" fill="#7D8FAC"/>
<path d="M50.9034 20.3533H45.5503C44.5648 20.3526 43.7654 21.151 43.7649 22.1366C43.7642 23.1221 44.5626 23.9215 45.5482 23.922C45.5489 23.922 45.5496 23.922 45.5503 23.922H47.3348L48.7496 25.3369C49.2423 25.8298 50.0412 25.8298 50.5341 25.3369C50.9048 24.9635 51.0027 24.3984 50.7796 23.922H50.9036C51.8892 23.9215 52.6876 23.1221 52.6869 22.1366C52.6862 21.152 51.8882 20.3538 50.9034 20.3533Z" fill="#DFE5FF"/>
<path d="M45.5503 29.2753H50.9036C51.889 29.2753 52.6878 30.0741 52.6878 31.0597C52.6878 32.045 51.889 32.8441 50.9036 32.8441H49.1192L47.7043 34.259C47.2116 34.7517 46.4128 34.7517 45.9199 34.259V34.2588C45.5491 33.8854 45.4513 33.3204 45.6746 32.8439H45.5503C44.565 32.8444 43.7656 32.0457 43.7654 31.0604C43.7649 30.0749 44.5636 29.2755 45.5489 29.2753C45.5494 29.2753 45.5498 29.2753 45.5503 29.2753Z" fill="#FFEA21"/>
<path d="M22.3533 38.1972C22.3533 39.1828 21.5542 39.9817 20.5689 39.9817C19.5833 39.9817 18.7844 39.1828 18.7844 38.1972C18.7844 37.2117 19.5833 36.4128 20.5689 36.4128C21.5542 36.4128 22.3533 37.2117 22.3533 38.1972Z" fill="#CF94FF"/>
<path d="M46.4425 20.3533H50.0114C50.5041 20.3533 50.9034 20.7527 50.9034 21.2456C50.9034 21.7382 50.5041 22.1378 50.0114 22.1378H46.4425C45.9499 22.1378 45.5503 21.7382 45.5503 21.2456C45.5503 20.7527 45.9499 20.3533 46.4425 20.3533Z" fill="#EFF2FF"/>
<path d="M46.4425 29.2753H50.0114C50.5041 29.2753 50.9034 29.6746 50.9034 30.1675C50.9034 30.6601 50.5041 31.0597 50.0114 31.0597H46.4425C45.9499 31.0597 45.5503 30.6601 45.5503 30.1675C45.5503 29.6746 45.9499 29.2753 46.4425 29.2753Z" fill="#FFFFC5"/>
<path d="M46.4425 38.1972H50.0114C50.5041 38.1972 50.9034 38.5968 50.9034 39.0894C50.9034 39.5821 50.5041 39.9816 50.0114 39.9816H46.4425C45.9499 39.9816 45.5503 39.5821 45.5503 39.0894C45.5503 38.5968 45.9499 38.1972 46.4425 38.1972Z" fill="#EFF2FF"/>
</svg>
