<svg width="152" height="48" viewBox="0 0 152 48" fill="none" xmlns="http://www.w3.org/2000/svg">
<rect x="0.25" y="0.25" width="151.5" height="47.5" rx="3.75" stroke="#E4E4E4" stroke-width="0.5"/>
<path d="M69.0039 27H67.6504V23.5249H64.1538V27H62.7949V19.1797H64.1538V22.4346H67.6504V19.1797H69.0039V27ZM71.8774 27H70.5723V21.1885H71.8774V27ZM70.4917 19.6792C70.4917 19.4787 70.5544 19.3122 70.6797 19.1797C70.8086 19.0472 70.9912 18.981 71.2275 18.981C71.4639 18.981 71.6465 19.0472 71.7754 19.1797C71.9043 19.3122 71.9688 19.4787 71.9688 19.6792C71.9688 19.8761 71.9043 20.0409 71.7754 20.1733C71.6465 20.3022 71.4639 20.3667 71.2275 20.3667C70.9912 20.3667 70.8086 20.3022 70.6797 20.1733C70.5544 20.0409 70.4917 19.8761 70.4917 19.6792ZM74.5146 21.1885L74.5522 21.8599C74.9819 21.3407 75.5459 21.0811 76.2441 21.0811C77.4544 21.0811 78.0703 21.7739 78.0918 23.1597V27H76.7866V23.2349C76.7866 22.866 76.7061 22.5939 76.5449 22.4185C76.3874 22.2394 76.1278 22.1499 75.7661 22.1499C75.2397 22.1499 74.8477 22.388 74.5898 22.8643V27H73.2847V21.1885H74.5146ZM79.1821 24.0513C79.1821 23.1561 79.3898 22.4382 79.8052 21.8975C80.2205 21.3532 80.7773 21.0811 81.4756 21.0811C82.0915 21.0811 82.5892 21.2959 82.9688 21.7256V18.75H84.2739V27H83.0923L83.0278 26.3984C82.6375 26.8711 82.1165 27.1074 81.4648 27.1074C80.7845 27.1074 80.2331 26.8335 79.8105 26.2856C79.3916 25.7378 79.1821 24.993 79.1821 24.0513ZM80.4873 24.1641C80.4873 24.7549 80.6001 25.2168 80.8257 25.5498C81.0549 25.8792 81.3789 26.0439 81.7979 26.0439C82.3314 26.0439 82.7217 25.8058 82.9688 25.3296V22.8481C82.7288 22.3826 82.3421 22.1499 81.8086 22.1499C81.3861 22.1499 81.0602 22.3182 80.8311 22.6548C80.6019 22.9878 80.4873 23.4909 80.4873 24.1641ZM87.0239 27H85.7188V21.1885H87.0239V27ZM85.6382 19.6792C85.6382 19.4787 85.7008 19.3122 85.8262 19.1797C85.9551 19.0472 86.1377 18.981 86.374 18.981C86.6104 18.981 86.793 19.0472 86.9219 19.1797C87.0508 19.3122 87.1152 19.4787 87.1152 19.6792C87.1152 19.8761 87.0508 20.0409 86.9219 20.1733C86.793 20.3022 86.6104 20.3667 86.374 20.3667C86.1377 20.3667 85.9551 20.3022 85.8262 20.1733C85.7008 20.0409 85.6382 19.8761 85.6382 19.6792Z" fill="black"/>
<path fill-rule="evenodd" clip-rule="evenodd" d="M29.2007 14.2543C26.7467 14.2543 24.737 16.2759 24.737 18.7443H22.3149C22.3149 14.9303 25.409 11.8179 29.2007 11.8179C32.9924 11.8179 36.0865 14.9303 36.0865 18.7443C36.0865 22.5583 32.9924 25.6707 29.2007 25.6707V23.2342C31.6547 23.2342 33.6644 21.2127 33.6644 18.7443C33.6644 16.2759 31.6547 14.2543 29.2007 14.2543Z" fill="#0029FF"/>
<path fill-rule="evenodd" clip-rule="evenodd" d="M29.2007 23.2342C32.9924 23.2342 36.0865 26.3466 36.0865 30.1606C36.0865 33.9746 32.9924 37.087 29.2007 37.087C25.409 37.087 22.3149 33.9746 22.3149 30.1606H24.737C24.737 32.629 26.7467 34.6505 29.2007 34.6505C31.6547 34.6505 33.6644 32.629 33.6644 30.1606C33.6644 27.6922 31.6547 25.6707 29.2007 25.6707V23.2342Z" fill="#0029FF"/>
<path fill-rule="evenodd" clip-rule="evenodd" d="M40.8097 36.7998V13.0274H43.2318V36.7998H40.8097Z" fill="#0029FF"/>
<path fill-rule="evenodd" clip-rule="evenodd" d="M42.0208 25.6707H29.2007V23.2342H42.0208V25.6707Z" fill="#0029FF"/>
<path fill-rule="evenodd" clip-rule="evenodd" d="M46 13.4364H21V11H46V13.4364Z" fill="#0029FF"/>
</svg>
