<svg width="30" height="22" viewBox="0 0 30 22" fill="none" xmlns="http://www.w3.org/2000/svg">
<path d="M0.000588417 18.7864C0.000588417 18.6276 0.0161462 18.4692 0.0472618 18.3135L2.65018 3.97448V2.6496C2.65018 1.18628 3.83647 0 5.29978 0H24.0863C25.4178 0 26.4973 1.07932 26.4973 2.41093V3.97448L29.1 18.3135C29.1311 18.4692 29.1469 18.6276 29.1469 18.7864C29.1469 20.1178 28.0675 21.1973 26.7359 21.1973H2.41151C1.07991 21.1973 0.000588417 20.118 0.000588417 18.7864Z" fill="#005EEE"/>
<path d="M2.41153 21.1973H17.1292C18.4065 21.1973 19.5021 20.2861 19.7346 19.0302L22.1151 3.97448H26.4973V2.6496C26.4973 1.18628 25.311 0 23.8475 0H5.2998C3.83648 0 2.6502 1.18628 2.6502 2.6496V3.97448L0.0472774 18.3135C-0.213846 19.6192 0.632992 20.8893 1.93861 21.1505C2.09436 21.1816 2.25277 21.1973 2.41153 21.1973Z" fill="#079CFF"/>
<path d="M8.612 14.5732H12.5865C13.684 14.5732 14.5736 15.4628 14.5736 16.5604C14.5736 17.6579 13.684 18.5477 12.5865 18.5477H8.612C7.51447 18.5477 6.62467 17.6579 6.62467 16.5604C6.62467 15.4628 7.51447 14.5732 8.612 14.5732Z" fill="#5CBEFF"/>
<path d="M4.63755 0H21.8604C22.2262 0 22.5228 0.296482 22.5228 0.662443C22.5228 1.02823 22.2262 1.32489 21.8604 1.32489H4.63755C4.27159 1.32489 3.9751 1.02823 3.9751 0.662443C3.9751 0.296482 4.27159 0 4.63755 0Z" fill="#5CBEFF"/>
<path d="M3.31265 2.64959H20.5355C20.9013 2.64959 21.1979 2.94625 21.1979 3.31204C21.1979 3.67782 20.9013 3.97448 20.5355 3.97448H3.31265C2.94686 3.97448 2.65021 3.67782 2.65021 3.31204C2.65021 2.94625 2.94669 2.64959 3.31265 2.64959Z" fill="#0784FF"/>
<path d="M21.1207 5.3549C20.795 5.35525 20.518 5.59233 20.4671 5.91392L20.0534 8.53098C20.0514 8.54318 20.0498 8.5552 20.0486 8.56723C20.0461 8.57907 20.0438 8.59092 20.042 8.60311L18.432 18.7889C18.3157 19.4168 17.7678 19.8724 17.1292 19.8724H12.6058C12.24 19.8724 11.9433 20.1691 11.9433 20.5349C11.9433 20.9007 12.24 21.1973 12.6058 21.1973H17.1292C18.4065 21.1973 19.5021 20.2861 19.7346 19.0302L21.3507 8.80996C21.3524 8.79794 21.354 8.78592 21.3553 8.77372C21.3577 8.76205 21.36 8.75003 21.362 8.73801C21.3648 8.7198 21.4529 8.1629 21.5496 7.55208V7.55137C21.5508 7.5443 21.5519 7.53723 21.5529 7.52998L21.5533 7.52768L21.5535 7.52662L21.555 7.5169L21.5554 7.51495L21.7762 6.11847C21.8317 5.75657 21.5833 5.41819 21.2214 5.3625C21.188 5.35737 21.1544 5.3549 21.1207 5.3549Z" fill="#5CBEFF"/>
<path d="M1.98775 19.8724H16.561C16.9268 19.8724 17.2234 20.1691 17.2234 20.5349C17.2234 20.9006 16.9268 21.1973 16.561 21.1973H1.98775C1.62197 21.1973 1.32531 20.9006 1.32531 20.5349C1.32531 20.1691 1.62197 19.8724 1.98775 19.8724Z" fill="#005EEE"/>
<path d="M5.29979 2.6496V3.97448L2.33727 19.6429C2.20521 20.3572 2.67707 21.0433 3.39131 21.1754C3.47034 21.1901 3.55043 21.1973 3.63051 21.1973C4.26555 21.1973 4.80972 20.7438 4.92428 20.1194L7.94957 3.97448V2.6496C7.94868 1.92103 8.2487 1.22447 8.77855 0.724498C9.0577 0.460546 8.89647 0 8.5123 0H7.94957C6.48625 0 5.29979 1.18628 5.29979 2.6496Z" fill="#FFD700"/>
<path d="M17.2234 2.6496V3.97448L14.3254 19.6429C14.1934 20.3572 14.6652 21.0433 15.3795 21.1754C15.4585 21.1901 15.5384 21.1973 15.6187 21.1973C16.2535 21.1973 16.7979 20.7438 16.9123 20.1194L19.873 3.97448V2.6496C19.8721 2.04991 20.0756 1.46774 20.4499 0.999057C20.7734 0.59314 20.5125 0 19.9934 0H19.873C18.4097 0 17.2234 1.18628 17.2234 2.6496Z" fill="#FFD700"/>
<path d="M22.5228 3.97447L19.873 18.5477H26.2346C26.9663 18.5477 27.5595 17.9546 27.5595 17.2228C27.5595 17.1432 27.5524 17.0639 27.5381 16.9857L25.1724 3.97447V2.64958C25.1724 1.91801 24.5793 1.32487 23.8475 1.32487C23.1159 1.32487 22.5228 1.91801 22.5228 2.64958V3.97447Z" fill="#DFE5FF"/>
<path d="M23.8475 0C22.3849 0.00159116 21.1995 1.18699 21.1979 2.6496V3.21799C21.1979 3.58395 21.4944 3.88043 21.8603 3.88043C22.2261 3.88043 22.5226 3.58395 22.5226 3.21799V2.6496C22.5226 1.91803 23.1158 1.32489 23.8475 1.32489C24.5792 1.32489 25.1724 1.91803 25.1724 2.6496V2.95616C25.1724 2.96835 25.1727 2.98055 25.1733 2.99257C25.1727 3.0046 25.1724 3.0168 25.1724 3.02899V3.97448L25.1971 4.11026V4.11061L25.2558 4.43397L25.256 4.4345L25.2654 4.48648L25.2656 4.48736L25.2663 4.49054L25.2664 4.49143L25.2666 4.49284C25.2668 4.49408 25.267 4.49514 25.2671 4.49655L25.2673 4.49673L25.2679 4.49938L25.268 4.50097L25.2686 4.50362L25.2696 4.50964L25.2698 4.51087L25.2725 4.52555L25.2726 4.52661L25.2783 4.55737L25.2786 4.55967L25.2845 4.59114V4.59167L25.2903 4.62384C25.2907 4.6249 25.2907 4.62561 25.291 4.62667L25.2938 4.64241V4.64258L25.2968 4.65956L25.297 4.66026L25.3034 4.69491L25.3036 4.69615L25.305 4.70446H25.3052L25.3067 4.7133V4.71348L25.3099 4.73098L25.3103 4.73257L25.3108 4.73558L25.311 4.73699L25.3117 4.74035L25.3119 4.74123L25.3133 4.74937L25.3136 4.75113L25.3165 4.76669L25.3174 4.77164L25.3202 4.78738V4.78755L25.3237 4.80647L25.3306 4.84413L25.331 4.8459L25.3361 4.87436L25.3377 4.88373L25.3379 4.88479L25.3414 4.90388L25.3416 4.90441L25.3448 4.92262C25.3453 4.9251 25.3456 4.9274 25.3462 4.93005L25.3469 4.93376L25.3471 4.935L25.3486 4.94402L25.3488 4.94472L25.3506 4.95445V4.95498L25.3524 4.96364L25.3527 4.96594L25.3563 4.98503L25.3564 4.98662L25.3578 4.9944C25.3589 5.00041 25.3601 5.00678 25.3612 5.01279L25.3619 5.0165L25.3621 5.01721L25.3635 5.02587L25.3642 5.02923L25.3647 5.03224L25.3649 5.03294L25.3656 5.03719C25.3658 5.03825 25.366 5.03948 25.3663 5.04054V5.04072C25.3676 5.04744 25.3688 5.05398 25.37 5.06088L25.3704 5.06317C25.9112 8.03736 27.3733 16.0788 27.3733 16.0788C27.4387 16.4387 27.7834 16.6774 28.1434 16.612C28.5033 16.5466 28.7422 16.2018 28.6768 15.8419C28.6768 15.8419 28.6768 15.8419 28.6768 15.8417L26.4973 3.85497V3.02899C26.4973 3.0168 26.4969 3.0046 26.4962 2.99257C26.4969 2.98055 26.4973 2.96835 26.4973 2.95616V2.64977C26.4955 1.18699 25.3103 0.00159116 23.8475 0Z" fill="#005EEE"/>
<path d="M23.6461 1.32487C22.9998 1.32487 22.4501 1.79638 22.352 2.43513L20.1051 17.0391C19.9952 17.7539 20.4854 18.4225 21.2002 18.5325C21.2661 18.5426 21.3326 18.5477 21.3995 18.5477C22.0456 18.5477 22.5953 18.0762 22.6936 17.4373L24.9403 2.83327C25.0502 2.1185 24.56 1.45004 23.8452 1.34008C23.7793 1.32982 23.7128 1.32487 23.6461 1.32487Z" fill="#A4B1FF"/>
<path d="M23.8475 1.32487C24.5793 1.32487 25.1724 1.91801 25.1724 2.64958V17.2228C25.1724 17.9546 24.5793 18.5477 23.8475 18.5477C23.1159 18.5477 22.5228 17.9546 22.5228 17.2228V2.64958C22.5228 1.91801 23.1159 1.32487 23.8475 1.32487Z" fill="#CCD4FF"/>
<path d="M23.8475 1.32487C23.1159 1.32487 22.5228 1.91801 22.5226 2.64958L25.1724 17.2228C25.1724 17.9546 25.7655 18.5477 26.4971 18.5477C27.2288 18.5477 27.822 17.9546 27.822 17.2228L25.1724 2.64958C25.1724 1.91801 24.5792 1.32487 23.8475 1.32487Z" fill="#EFF2FF"/>
<path d="M15.2361 19.8724H16.561C16.9268 19.8724 17.2234 20.1691 17.2234 20.5349C17.2234 20.9006 16.9268 21.1973 16.561 21.1973H15.2361C14.8703 21.1973 14.5736 20.9006 14.5736 20.5349C14.5736 20.1691 14.8703 19.8724 15.2361 19.8724Z" fill="#FFA300"/>
<path d="M3.31265 19.8724H4.63754C5.00332 19.8724 5.29998 20.1691 5.29998 20.5349C5.29998 20.9006 5.00332 21.1973 4.63754 21.1973H3.31265C2.94686 21.1973 2.65021 20.9006 2.65021 20.5349C2.65021 20.1691 2.94669 19.8724 3.31265 19.8724Z" fill="#FFA300"/>
<path d="M1.98918 18.5477C1.94516 18.5479 1.90149 18.5436 1.85853 18.5348C1.50017 18.4639 1.26698 18.116 1.33787 17.7576C1.33805 17.7567 1.33823 17.756 1.3384 17.7553L3.988 4.50698C4.06296 4.15056 4.40912 3.91967 4.76695 3.98738C5.12531 4.05828 5.35832 4.40621 5.28743 4.76457C5.28725 4.76545 5.28708 4.76616 5.2869 4.76686L2.6373 18.0152C2.5756 18.3244 2.3044 18.5472 1.98918 18.5477Z" fill="#94D4FF"/>
<path d="M5.96224 2.64959H7.28713C7.65309 2.64959 7.94957 2.94625 7.94957 3.31204C7.94957 3.67782 7.65309 3.97448 7.28713 3.97448H5.96224C5.59645 3.97448 5.29997 3.67782 5.29997 3.31204C5.2998 2.94625 5.59645 2.64959 5.96224 2.64959Z" fill="#FFA300"/>
<path d="M17.8859 2.64959H19.2106C19.5765 2.64959 19.873 2.94625 19.873 3.31204C19.873 3.67782 19.5765 3.97448 19.2106 3.97448H17.8859C17.5199 3.97448 17.2234 3.67782 17.2234 3.31204C17.2234 2.94625 17.5199 2.64959 17.8859 2.64959Z" fill="#FFA300"/>
<path d="M7.28711 0H8.612C8.97778 0 9.27444 0.296482 9.27444 0.662443C9.27444 1.02823 8.97778 1.32489 8.612 1.32489H7.28711C6.92133 1.32489 6.62467 1.02823 6.62467 0.662443C6.62467 0.296482 6.92133 0 7.28711 0Z" fill="#FFFC74"/>
<path d="M19.2106 0H20.5354C20.9014 0 21.1979 0.296482 21.1979 0.662443C21.1979 1.02823 20.9014 1.32489 20.5354 1.32489H19.2106C18.8448 1.32489 18.5483 1.02823 18.5483 0.662443C18.5481 0.296482 18.8448 0 19.2106 0Z" fill="#FFFC74"/>
</svg>
