<svg width="152" height="48" viewBox="0 0 152 48" fill="none" xmlns="http://www.w3.org/2000/svg">
<rect x="0.25" y="0.25" width="151.5" height="47.5" rx="3.75" stroke="#E4E4E4" stroke-width="0.5"/>
<path d="M69.0039 27H67.6504V23.5249H64.1538V27H62.7949V19.1797H64.1538V22.4346H67.6504V19.1797H69.0039V27ZM71.8774 27H70.5723V21.1885H71.8774V27ZM70.4917 19.6792C70.4917 19.4787 70.5544 19.3122 70.6797 19.1797C70.8086 19.0472 70.9912 18.981 71.2275 18.981C71.4639 18.981 71.6465 19.0472 71.7754 19.1797C71.9043 19.3122 71.9688 19.4787 71.9688 19.6792C71.9688 19.8761 71.9043 20.0409 71.7754 20.1733C71.6465 20.3022 71.4639 20.3667 71.2275 20.3667C70.9912 20.3667 70.8086 20.3022 70.6797 20.1733C70.5544 20.0409 70.4917 19.8761 70.4917 19.6792ZM76.561 25.4209C76.561 25.1882 76.4644 25.0109 76.271 24.8892C76.0812 24.7674 75.7643 24.66 75.3203 24.5669C74.8763 24.4738 74.5057 24.3556 74.2085 24.2124C73.5568 23.8973 73.231 23.4408 73.231 22.8428C73.231 22.3415 73.4422 21.9225 73.8647 21.5859C74.2873 21.2493 74.8244 21.0811 75.4761 21.0811C76.1707 21.0811 76.7311 21.2529 77.1572 21.5967C77.5869 21.9404 77.8018 22.3862 77.8018 22.9341H76.4966C76.4966 22.6834 76.4035 22.4757 76.2173 22.311C76.0311 22.1427 75.784 22.0586 75.4761 22.0586C75.1896 22.0586 74.9551 22.1248 74.7725 22.2573C74.5934 22.3898 74.5039 22.5671 74.5039 22.7891C74.5039 22.9896 74.5881 23.1453 74.7563 23.2563C74.9246 23.3674 75.2648 23.4801 75.7769 23.5947C76.2889 23.7057 76.6899 23.84 76.98 23.9976C77.2736 24.1515 77.4902 24.3377 77.6299 24.5562C77.7731 24.7746 77.8447 25.0396 77.8447 25.3511C77.8447 25.8739 77.6281 26.2982 77.1948 26.624C76.7616 26.9463 76.194 27.1074 75.4922 27.1074C75.016 27.1074 74.5916 27.0215 74.2192 26.8496C73.8468 26.6777 73.5568 26.4414 73.3491 26.1406C73.1414 25.8398 73.0376 25.5158 73.0376 25.1685H74.3052C74.3231 25.4764 74.4395 25.7145 74.6543 25.8828C74.8691 26.0475 75.1538 26.1299 75.5083 26.1299C75.8521 26.1299 76.1134 26.0654 76.2925 25.9365C76.4715 25.804 76.561 25.6322 76.561 25.4209ZM80.6216 19.7759V21.1885H81.6475V22.1553H80.6216V25.3994C80.6216 25.6214 80.6646 25.7826 80.7505 25.8828C80.84 25.9795 80.9976 26.0278 81.2231 26.0278C81.3735 26.0278 81.5257 26.0099 81.6797 25.9741V26.9839C81.3825 27.0662 81.096 27.1074 80.8203 27.1074C79.8177 27.1074 79.3164 26.5542 79.3164 25.4478V22.1553H78.3604V21.1885H79.3164V19.7759H80.6216ZM82.2437 24.0405C82.2437 23.4712 82.3564 22.9591 82.582 22.5044C82.8076 22.0461 83.1245 21.6951 83.5327 21.4517C83.9409 21.2046 84.41 21.0811 84.9399 21.0811C85.7241 21.0811 86.3597 21.3335 86.8467 21.8384C87.3372 22.3433 87.6022 23.0129 87.6416 23.8472L87.647 24.1533C87.647 24.7262 87.536 25.2383 87.314 25.6895C87.0955 26.1406 86.7804 26.4897 86.3687 26.7368C85.9604 26.9839 85.4878 27.1074 84.9507 27.1074C84.1307 27.1074 83.4736 26.8353 82.9795 26.291C82.4889 25.7432 82.2437 25.0145 82.2437 24.105V24.0405ZM83.5488 24.1533C83.5488 24.7513 83.6724 25.2204 83.9194 25.5605C84.1665 25.8971 84.5103 26.0654 84.9507 26.0654C85.3911 26.0654 85.7331 25.8936 85.9766 25.5498C86.2236 25.2061 86.3472 24.703 86.3472 24.0405C86.3472 23.4533 86.2201 22.9878 85.9658 22.644C85.7152 22.3003 85.3732 22.1284 84.9399 22.1284C84.5138 22.1284 84.1755 22.2985 83.9248 22.6387C83.6742 22.9753 83.5488 23.4801 83.5488 24.1533ZM91.7935 22.3809C91.6216 22.3522 91.4443 22.3379 91.2617 22.3379C90.6637 22.3379 90.2609 22.5671 90.0532 23.0254V27H88.748V21.1885H89.9941L90.0264 21.8384C90.3415 21.3335 90.7783 21.0811 91.3369 21.0811C91.5231 21.0811 91.6771 21.1061 91.7988 21.1562L91.7935 22.3809ZM94.7476 25.1309L95.9292 21.1885H97.3203L95.0107 27.8809C94.6562 28.8584 94.0547 29.3472 93.2061 29.3472C93.0163 29.3472 92.8068 29.3149 92.5776 29.2505V28.2407L92.8247 28.2568C93.1541 28.2568 93.4012 28.196 93.5659 28.0742C93.7342 27.9561 93.8667 27.7555 93.9634 27.4727L94.1514 26.9731L92.1104 21.1885H93.5176L94.7476 25.1309Z" fill="black"/>
<path d="M19.0006 33.7864C19.0006 33.6276 19.0161 33.4692 19.0473 33.3135L21.6502 18.9745V17.6496C21.6502 16.1863 22.8365 15 24.2998 15H43.0863C44.4178 15 45.4973 16.0793 45.4973 17.4109V18.9745L48.1 33.3135C48.1311 33.4692 48.1469 33.6276 48.1469 33.7864C48.1469 35.1178 47.0675 36.1973 45.7359 36.1973H21.4115C20.0799 36.1973 19.0006 35.118 19.0006 33.7864Z" fill="#005EEE"/>
<path d="M21.4115 36.1973H36.1292C37.4065 36.1973 38.5021 35.2861 38.7346 34.0302L41.1151 18.9745H45.4973V17.6496C45.4973 16.1863 44.311 15 42.8475 15H24.2998C22.8365 15 21.6502 16.1863 21.6502 17.6496V18.9745L19.0473 33.3135C18.7862 34.6192 19.633 35.8893 20.9386 36.1505C21.0944 36.1816 21.2528 36.1973 21.4115 36.1973Z" fill="#079CFF"/>
<path d="M27.612 29.5732H31.5865C32.684 29.5732 33.5736 30.4628 33.5736 31.5604C33.5736 32.6579 32.684 33.5477 31.5865 33.5477H27.612C26.5145 33.5477 25.6247 32.6579 25.6247 31.5604C25.6247 30.4628 26.5145 29.5732 27.612 29.5732Z" fill="#5CBEFF"/>
<path d="M23.6375 15H40.8604C41.2262 15 41.5228 15.2965 41.5228 15.6624C41.5228 16.0282 41.2262 16.3249 40.8604 16.3249H23.6375C23.2716 16.3249 22.9751 16.0282 22.9751 15.6624C22.9751 15.2965 23.2716 15 23.6375 15Z" fill="#5CBEFF"/>
<path d="M22.3126 17.6496H39.5355C39.9013 17.6496 40.1979 17.9463 40.1979 18.312C40.1979 18.6778 39.9013 18.9745 39.5355 18.9745H22.3126C21.9469 18.9745 21.6502 18.6778 21.6502 18.312C21.6502 17.9463 21.9467 17.6496 22.3126 17.6496Z" fill="#0784FF"/>
<path d="M40.1207 20.3549C39.795 20.3553 39.518 20.5923 39.4671 20.9139L39.0534 23.531C39.0514 23.5432 39.0498 23.5552 39.0486 23.5672C39.0461 23.5791 39.0438 23.5909 39.042 23.6031L37.432 33.7889C37.3157 34.4168 36.7678 34.8724 36.1292 34.8724H31.6058C31.24 34.8724 30.9433 35.1691 30.9433 35.5349C30.9433 35.9007 31.24 36.1973 31.6058 36.1973H36.1292C37.4065 36.1973 38.5021 35.2861 38.7346 34.0302L40.3507 23.81C40.3524 23.7979 40.354 23.7859 40.3553 23.7737C40.3577 23.7621 40.36 23.75 40.362 23.738C40.3648 23.7198 40.4529 23.1629 40.5496 22.5521V22.5514C40.5508 22.5443 40.5519 22.5372 40.5529 22.53L40.5533 22.5277L40.5535 22.5266L40.555 22.5169L40.5554 22.515L40.7762 21.1185C40.8317 20.7566 40.5833 20.4182 40.2214 20.3625C40.188 20.3574 40.1544 20.3549 40.1207 20.3549Z" fill="#5CBEFF"/>
<path d="M20.9878 34.8724H35.561C35.9268 34.8724 36.2234 35.1691 36.2234 35.5349C36.2234 35.9006 35.9268 36.1973 35.561 36.1973H20.9878C20.622 36.1973 20.3253 35.9006 20.3253 35.5349C20.3253 35.1691 20.622 34.8724 20.9878 34.8724Z" fill="#005EEE"/>
<path d="M24.2998 17.6496V18.9745L21.3373 34.6429C21.2052 35.3572 21.6771 36.0433 22.3913 36.1754C22.4703 36.1901 22.5504 36.1973 22.6305 36.1973C23.2656 36.1973 23.8097 35.7438 23.9243 35.1194L26.9496 18.9745V17.6496C26.9487 16.921 27.2487 16.2245 27.7785 15.7245C28.0577 15.4605 27.8965 15 27.5123 15H26.9496C25.4862 15 24.2998 16.1863 24.2998 17.6496Z" fill="#FFD700"/>
<path d="M36.2234 17.6496V18.9745L33.3254 34.6429C33.1934 35.3572 33.6652 36.0433 34.3795 36.1754C34.4585 36.1901 34.5384 36.1973 34.6187 36.1973C35.2535 36.1973 35.7979 35.7438 35.9123 35.1194L38.873 18.9745V17.6496C38.8721 17.0499 39.0756 16.4677 39.4499 15.9991C39.7734 15.5931 39.5125 15 38.9934 15H38.873C37.4097 15 36.2234 16.1863 36.2234 17.6496Z" fill="#FFD700"/>
<path d="M41.5228 18.9745L38.873 33.5477H45.2346C45.9663 33.5477 46.5595 32.9546 46.5595 32.2228C46.5595 32.1432 46.5524 32.0639 46.5381 31.9857L44.1724 18.9745V17.6496C44.1724 16.918 43.5793 16.3249 42.8475 16.3249C42.1159 16.3249 41.5228 16.918 41.5228 17.6496V18.9745Z" fill="#DFE5FF"/>
<path d="M42.8475 15C41.3849 15.0016 40.1995 16.187 40.1979 17.6496V18.218C40.1979 18.5839 40.4944 18.8804 40.8603 18.8804C41.2261 18.8804 41.5226 18.5839 41.5226 18.218V17.6496C41.5226 16.918 42.1158 16.3249 42.8475 16.3249C43.5792 16.3249 44.1724 16.918 44.1724 17.6496V17.9562C44.1724 17.9684 44.1727 17.9806 44.1733 17.9926C44.1727 18.0046 44.1724 18.0168 44.1724 18.029V18.9745L44.1971 19.1103V19.1106L44.2558 19.434L44.256 19.4345L44.2654 19.4865L44.2656 19.4874L44.2663 19.4905L44.2664 19.4914L44.2666 19.4928C44.2668 19.4941 44.267 19.4951 44.2671 19.4966L44.2673 19.4967L44.2679 19.4994L44.268 19.501L44.2686 19.5036L44.2696 19.5096L44.2698 19.5109L44.2725 19.5255L44.2726 19.5266L44.2783 19.5574L44.2786 19.5597L44.2845 19.5911V19.5917L44.2903 19.6238C44.2907 19.6249 44.2907 19.6256 44.291 19.6267L44.2938 19.6424V19.6426L44.2968 19.6596L44.297 19.6603L44.3034 19.6949L44.3036 19.6962L44.305 19.7045H44.3052L44.3067 19.7133V19.7135L44.3099 19.731L44.3103 19.7326L44.3108 19.7356L44.311 19.737L44.3117 19.7404L44.3119 19.7412L44.3133 19.7494L44.3136 19.7511L44.3165 19.7667L44.3174 19.7716L44.3202 19.7874V19.7876L44.3237 19.8065L44.3306 19.8441L44.331 19.8459L44.3361 19.8744L44.3377 19.8837L44.3379 19.8848L44.3414 19.9039L44.3416 19.9044L44.3448 19.9226C44.3453 19.9251 44.3456 19.9274 44.3462 19.93L44.3469 19.9338L44.3471 19.935L44.3486 19.944L44.3488 19.9447L44.3506 19.9544V19.955L44.3524 19.9636L44.3527 19.9659L44.3563 19.985L44.3564 19.9866L44.3578 19.9944C44.3589 20.0004 44.3601 20.0068 44.3612 20.0128L44.3619 20.0165L44.3621 20.0172L44.3635 20.0259L44.3642 20.0292L44.3647 20.0322L44.3649 20.0329L44.3656 20.0372C44.3658 20.0382 44.366 20.0395 44.3663 20.0405V20.0407C44.3676 20.0474 44.3688 20.054 44.37 20.0609L44.3704 20.0632C44.9112 23.0374 46.3733 31.0788 46.3733 31.0788C46.4387 31.4387 46.7834 31.6774 47.1434 31.612C47.5033 31.5466 47.7422 31.2018 47.6768 30.8419C47.6768 30.8419 47.6768 30.8419 47.6768 30.8417L45.4973 18.855V18.029C45.4973 18.0168 45.4969 18.0046 45.4962 17.9926C45.4969 17.9806 45.4973 17.9684 45.4973 17.9562V17.6498C45.4955 16.187 44.3103 15.0016 42.8475 15Z" fill="#005EEE"/>
<path d="M42.6461 16.3249C41.9998 16.3249 41.4501 16.7964 41.352 17.4351L39.1051 32.0391C38.9952 32.7539 39.4854 33.4225 40.2002 33.5325C40.2661 33.5426 40.3326 33.5477 40.3995 33.5477C41.0456 33.5477 41.5953 33.0762 41.6936 32.4373L43.9403 17.8333C44.0502 17.1185 43.56 16.45 42.8452 16.3401C42.7793 16.3298 42.7128 16.3249 42.6461 16.3249Z" fill="#A4B1FF"/>
<path d="M42.8475 16.3249C43.5793 16.3249 44.1724 16.918 44.1724 17.6496V32.2228C44.1724 32.9546 43.5793 33.5477 42.8475 33.5477C42.1159 33.5477 41.5228 32.9546 41.5228 32.2228V17.6496C41.5228 16.918 42.1159 16.3249 42.8475 16.3249Z" fill="#CCD4FF"/>
<path d="M42.8475 16.3249C42.1159 16.3249 41.5228 16.918 41.5226 17.6496L44.1724 32.2228C44.1724 32.9546 44.7655 33.5477 45.4971 33.5477C46.2288 33.5477 46.822 32.9546 46.822 32.2228L44.1724 17.6496C44.1724 16.918 43.5792 16.3249 42.8475 16.3249Z" fill="#EFF2FF"/>
<path d="M34.2361 34.8724H35.561C35.9268 34.8724 36.2234 35.1691 36.2234 35.5349C36.2234 35.9006 35.9268 36.1973 35.561 36.1973H34.2361C33.8703 36.1973 33.5736 35.9006 33.5736 35.5349C33.5736 35.1691 33.8703 34.8724 34.2361 34.8724Z" fill="#FFA300"/>
<path d="M22.3126 34.8724H23.6375C24.0033 34.8724 24.3 35.1691 24.3 35.5349C24.3 35.9006 24.0033 36.1973 23.6375 36.1973H22.3126C21.9469 36.1973 21.6502 35.9006 21.6502 35.5349C21.6502 35.1691 21.9467 34.8724 22.3126 34.8724Z" fill="#FFA300"/>
<path d="M20.9892 33.5477C20.9452 33.5479 20.9015 33.5436 20.8585 33.5348C20.5002 33.4639 20.267 33.116 20.3379 32.7576C20.3381 32.7567 20.3382 32.756 20.3384 32.7553L22.988 19.507C23.063 19.1506 23.4091 18.9197 23.767 18.9874C24.1253 19.0583 24.3583 19.4062 24.2874 19.7646C24.2873 19.7654 24.2871 19.7662 24.2869 19.7669L21.6373 33.0152C21.5756 33.3244 21.3044 33.5472 20.9892 33.5477Z" fill="#94D4FF"/>
<path d="M24.9622 17.6496H26.2871C26.6531 17.6496 26.9496 17.9463 26.9496 18.312C26.9496 18.6778 26.6531 18.9745 26.2871 18.9745H24.9622C24.5965 18.9745 24.3 18.6778 24.3 18.312C24.2998 17.9463 24.5965 17.6496 24.9622 17.6496Z" fill="#FFA300"/>
<path d="M36.8859 17.6496H38.2106C38.5765 17.6496 38.873 17.9463 38.873 18.312C38.873 18.6778 38.5765 18.9745 38.2106 18.9745H36.8859C36.5199 18.9745 36.2234 18.6778 36.2234 18.312C36.2234 17.9463 36.5199 17.6496 36.8859 17.6496Z" fill="#FFA300"/>
<path d="M26.2871 15H27.612C27.9778 15 28.2744 15.2965 28.2744 15.6624C28.2744 16.0282 27.9778 16.3249 27.612 16.3249H26.2871C25.9213 16.3249 25.6247 16.0282 25.6247 15.6624C25.6247 15.2965 25.9213 15 26.2871 15Z" fill="#FFFC74"/>
<path d="M38.2106 15H39.5354C39.9014 15 40.1979 15.2965 40.1979 15.6624C40.1979 16.0282 39.9014 16.3249 39.5354 16.3249H38.2106C37.8448 16.3249 37.5483 16.0282 37.5483 15.6624C37.5481 15.2965 37.8448 15 38.2106 15Z" fill="#FFFC74"/>
</svg>
