<svg width="118" height="29" viewBox="0 0 118 29" fill="none" xmlns="http://www.w3.org/2000/svg">
<path d="M1.649 6.721C1.26367 6.42633 1.071 5.96733 1.071 5.344C1.071 4.70933 1.275 4.22767 1.683 3.899C2.10233 3.57033 2.669 3.406 3.383 3.406C3.83633 3.406 4.60133 3.48533 5.678 3.644L6.834 3.814C7.21933 3.85933 7.61033 3.882 8.007 3.882C8.415 3.882 8.755 3.797 9.027 3.627C9.435 3.98967 9.639 4.43167 9.639 4.953C9.639 5.47433 9.40667 5.922 8.942 6.296C8.466 6.69267 7.922 6.891 7.31 6.891C7.01533 6.891 6.63 6.85133 6.154 6.772C5.59867 8.51733 5.321 9.99633 5.321 11.209C5.321 12.4217 5.627 13.3453 6.239 13.98C5.95567 14.49 5.60433 14.8413 5.185 15.034C4.76567 15.238 4.23867 15.34 3.604 15.34C2.98067 15.34 2.47067 15.17 2.074 14.83C1.68867 14.4787 1.496 13.946 1.496 13.232C1.496 12.4047 1.72267 11.311 2.176 9.951C2.62933 8.60233 3.196 7.41233 3.876 6.381C3.54733 6.347 3.213 6.33 2.873 6.33C2.17033 6.33 1.76233 6.46033 1.649 6.721ZM14.4452 14.286C13.9012 14.9887 12.9549 15.34 11.6062 15.34C10.9036 15.34 10.2972 15.1303 9.78722 14.711C9.27722 14.2803 9.02222 13.759 9.02222 13.147C9.02222 12.807 9.03922 12.552 9.07322 12.382L10.2122 6.33L13.6632 5.99L12.4222 12.552C12.3769 12.8013 12.3542 12.9997 12.3542 13.147C12.3542 13.8043 12.5526 14.133 12.9492 14.133C13.3912 14.133 13.7709 13.8327 14.0882 13.232C14.1902 13.0393 14.2639 12.8183 14.3092 12.569L15.5162 6.33L18.8652 5.99L17.6072 12.62C17.5732 12.79 17.5562 12.9657 17.5562 13.147C17.5562 13.3283 17.6072 13.521 17.7092 13.725C17.8112 13.9177 18.0266 14.0367 18.3552 14.082C18.2872 14.354 18.1342 14.5807 17.8962 14.762C17.3976 15.1473 16.8762 15.34 16.3322 15.34C15.7996 15.34 15.3746 15.2437 15.0572 15.051C14.7399 14.8583 14.5359 14.6033 14.4452 14.286ZM20.0512 13.3C20.0512 12.994 20.1306 12.4557 20.2892 11.685L21.1902 7.095H20.1872L20.2552 6.585C21.6152 6.177 22.9526 5.47433 24.2672 4.477H25.0832L24.6752 6.33H26.0012L25.8482 7.095H24.5392L23.6722 11.685C23.5249 12.3877 23.4512 12.858 23.4512 13.096C23.4512 13.64 23.6892 13.9687 24.1652 14.082C24.0519 14.4673 23.7912 14.7733 23.3832 15C22.9752 15.2267 22.4822 15.34 21.9042 15.34C21.3262 15.34 20.8729 15.1587 20.5442 14.796C20.2156 14.4333 20.0512 13.9347 20.0512 13.3ZM30.0018 14.065C29.6505 14.915 28.9138 15.34 27.7918 15.34C27.2138 15.34 26.7435 15.1417 26.3808 14.745C26.0748 14.3937 25.9218 14.0423 25.9218 13.691C25.9218 12.773 26.1315 11.4187 26.5508 9.628L27.1798 6.33L30.6308 5.99L29.5938 11.362C29.4011 12.2007 29.3048 12.7673 29.3048 13.062C29.3048 13.708 29.5371 14.0423 30.0018 14.065ZM27.4858 3.967C27.4858 3.525 27.6671 3.185 28.0298 2.947C28.4038 2.709 28.8571 2.59 29.3898 2.59C29.9225 2.59 30.3475 2.709 30.6648 2.947C30.9935 3.185 31.1578 3.525 31.1578 3.967C31.1578 4.409 30.9765 4.74333 30.6138 4.97C30.2625 5.19667 29.8205 5.31 29.2878 5.31C28.7551 5.31 28.3188 5.19667 27.9788 4.97C27.6501 4.74333 27.4858 4.409 27.4858 3.967ZM35.1561 15.34C32.6628 15.34 31.4161 14.167 31.4161 11.821C31.4161 10.155 31.8751 8.78367 32.7931 7.707C33.7678 6.56233 35.0995 5.99 36.7881 5.99C38.0121 5.99 38.9358 6.27333 39.5591 6.84C40.1825 7.40667 40.4941 8.285 40.4941 9.475C40.4941 11.2883 40.0068 12.722 39.0321 13.776C38.0801 14.8187 36.7881 15.34 35.1561 15.34ZM35.5981 7.945C35.4621 8.251 35.3375 8.63633 35.2241 9.101C35.1221 9.55433 35.0031 10.1437 34.8671 10.869C34.7311 11.5943 34.6631 12.4047 34.6631 13.3C34.6631 13.5947 34.7085 13.8383 34.7991 14.031C34.9011 14.2237 35.0825 14.32 35.3431 14.32C35.6038 14.32 35.8135 14.2577 35.9721 14.133C36.1421 14.0083 36.2895 13.7987 36.4141 13.504C36.6408 12.9827 36.8448 12.2403 37.0261 11.277C37.2075 10.3023 37.3038 9.60533 37.3151 9.186C37.3378 8.76667 37.3491 8.404 37.3491 8.098C37.3491 7.78067 37.3038 7.52 37.2131 7.316C37.1225 7.112 36.9468 7.01 36.6861 7.01C36.4368 7.01 36.2271 7.08933 36.0571 7.248C35.8871 7.40667 35.7341 7.639 35.5981 7.945ZM48.6851 15.34C47.3137 15.34 46.6281 14.8073 46.6281 13.742C46.6394 13.4473 46.6904 13.0507 46.7811 12.552L47.0871 10.988C47.3931 9.51467 47.5461 8.61367 47.5461 8.285C47.5461 7.62767 47.3534 7.299 46.9681 7.299C46.3221 7.299 45.8291 8.14333 45.4891 9.832L44.4861 15L41.0691 15.34L42.8371 6.313L45.6251 5.99L45.3531 7.656C45.8857 6.54533 46.9681 5.99 48.6001 5.99C49.3934 5.99 49.9544 6.16 50.2831 6.5C50.6231 6.82867 50.7931 7.367 50.7931 8.115C50.7931 8.81767 50.6117 9.99067 50.2491 11.634C50.0791 12.3707 49.9941 12.8807 49.9941 13.164C49.9941 13.436 50.0677 13.6513 50.2151 13.81C50.3737 13.9687 50.5664 14.0593 50.7931 14.082C50.6797 14.4673 50.4247 14.7733 50.0281 15C49.6427 15.2267 49.1951 15.34 48.6851 15.34Z" fill="#3300FF"/>
<path d="M59.6153 15.34C58.1646 15.34 57.3713 14.3087 57.2353 12.246H54.3113C54.0846 12.7673 53.8919 13.2547 53.7333 13.708L53.2913 15H50.9113L56.2663 3.78H59.9213L60.6353 12.042C60.7486 13.232 61.0319 14.0027 61.4853 14.354C61.1566 15.0113 60.5333 15.34 59.6153 15.34ZM54.8383 11.005H57.1843L56.9803 6.636V6.177L55.7733 8.846L54.8383 11.005ZM70.4005 13.844C69.9245 14.32 69.3578 14.6883 68.7005 14.949C68.0545 15.2097 67.4085 15.34 66.7625 15.34C66.1165 15.34 65.6801 15.2833 65.4535 15.17L64.9265 18.06L61.4755 18.4L63.8215 6.33L66.5925 6.041L66.3715 7.214C66.8475 6.40933 67.5785 6.007 68.5645 6.007C69.6751 6.007 70.5251 6.364 71.1145 7.078C71.6358 7.724 71.8965 8.54 71.8965 9.526C71.8965 10.512 71.7661 11.3563 71.5055 12.059C71.2448 12.7617 70.8765 13.3567 70.4005 13.844ZM65.6575 14.048C65.8955 14.252 66.1618 14.354 66.4565 14.354C66.7511 14.354 66.9835 14.2973 67.1535 14.184C67.3235 14.0707 67.4708 13.9007 67.5955 13.674C67.9355 13.062 68.2415 11.8267 68.5135 9.968C68.5928 9.424 68.6325 8.88567 68.6325 8.353C68.6325 7.82033 68.5701 7.469 68.4455 7.299C68.3321 7.129 68.1621 7.044 67.9355 7.044C67.2441 7.044 66.7851 7.71833 66.5585 9.067L65.6575 14.048ZM80.8428 13.844C80.3668 14.32 79.8002 14.6883 79.1428 14.949C78.4968 15.2097 77.8508 15.34 77.2048 15.34C76.5588 15.34 76.1225 15.2833 75.8958 15.17L75.3688 18.06L71.9178 18.4L74.2638 6.33L77.0348 6.041L76.8138 7.214C77.2898 6.40933 78.0208 6.007 79.0068 6.007C80.1175 6.007 80.9675 6.364 81.5568 7.078C82.0782 7.724 82.3388 8.54 82.3388 9.526C82.3388 10.512 82.2085 11.3563 81.9478 12.059C81.6872 12.7617 81.3188 13.3567 80.8428 13.844ZM76.0998 14.048C76.3378 14.252 76.6042 14.354 76.8988 14.354C77.1935 14.354 77.4258 14.2973 77.5958 14.184C77.7658 14.0707 77.9132 13.9007 78.0378 13.674C78.3778 13.062 78.6838 11.8267 78.9558 9.968C79.0352 9.424 79.0748 8.88567 79.0748 8.353C79.0748 7.82033 79.0125 7.469 78.8878 7.299C78.7745 7.129 78.6045 7.044 78.3778 7.044C77.6865 7.044 77.2275 7.71833 77.0008 9.067L76.0998 14.048Z" fill="#FFA300"/>
<path d="M5.38636 23C5.17045 21.8068 4.21591 21.1023 3.04545 21.1023C1.55682 21.1023 0.477273 22.25 0.477273 24.0909C0.477273 25.9318 1.55682 27.0795 3.04545 27.0795C4.21591 27.0795 5.17045 26.375 5.38636 25.1818H4.68182C4.51136 25.9886 3.81818 26.4205 3.04545 26.4205C1.98864 26.4205 1.15909 25.6023 1.15909 24.0909C1.15909 22.5795 1.98864 21.7614 3.04545 21.7614C3.81818 21.7614 4.51136 22.1932 4.68182 23H5.38636ZM7.1044 24.375C7.1044 23.6136 7.5902 23.1818 8.25213 23.1818C8.88281 23.1818 9.26349 23.5795 9.26349 24.2727V27H9.93395V24.2273C9.93395 23.1051 9.33736 22.5795 8.44531 22.5795C7.75781 22.5795 7.36577 22.8665 7.16122 23.3182H7.1044V21.1818H6.43395V27H7.1044V24.375ZM12.9332 27.0909C14.1151 27.0909 14.9105 26.1932 14.9105 24.8409C14.9105 23.4773 14.1151 22.5795 12.9332 22.5795C11.7514 22.5795 10.956 23.4773 10.956 24.8409C10.956 26.1932 11.7514 27.0909 12.9332 27.0909ZM12.9332 26.4886C12.0355 26.4886 11.6264 25.7159 11.6264 24.8409C11.6264 23.9659 12.0355 23.1818 12.9332 23.1818C13.831 23.1818 14.2401 23.9659 14.2401 24.8409C14.2401 25.7159 13.831 26.4886 12.9332 26.4886ZM17.7067 27.0909C18.8885 27.0909 19.6839 26.1932 19.6839 24.8409C19.6839 23.4773 18.8885 22.5795 17.7067 22.5795C16.5249 22.5795 15.7294 23.4773 15.7294 24.8409C15.7294 26.1932 16.5249 27.0909 17.7067 27.0909ZM17.7067 26.4886C16.8089 26.4886 16.3999 25.7159 16.3999 24.8409C16.3999 23.9659 16.8089 23.1818 17.7067 23.1818C18.6044 23.1818 19.0135 23.9659 19.0135 24.8409C19.0135 25.7159 18.6044 26.4886 17.7067 26.4886ZM23.7983 23.6136C23.5881 22.9943 23.1165 22.5795 22.2528 22.5795C21.3324 22.5795 20.6506 23.1023 20.6506 23.8409C20.6506 24.4432 21.0085 24.8466 21.8097 25.0341L22.5369 25.2045C22.9773 25.3068 23.1847 25.517 23.1847 25.8182C23.1847 26.1932 22.7869 26.5 22.1619 26.5C21.6136 26.5 21.2699 26.2642 21.1506 25.7955L20.5142 25.9545C20.6705 26.696 21.2812 27.0909 22.1733 27.0909C23.1875 27.0909 23.8778 26.5369 23.8778 25.7841C23.8778 25.1761 23.4972 24.7926 22.7188 24.6023L22.071 24.4432C21.554 24.3153 21.321 24.142 21.321 23.8068C21.321 23.4318 21.7188 23.1591 22.2528 23.1591C22.8381 23.1591 23.0795 23.483 23.196 23.7841L23.7983 23.6136ZM26.7166 27.0909C27.603 27.0909 28.2507 26.6477 28.4553 25.9886L27.8075 25.8068C27.6371 26.2614 27.2422 26.4886 26.7166 26.4886C25.9297 26.4886 25.3871 25.9801 25.3558 25.0455H28.5234V24.7614C28.5234 23.1364 27.5575 22.5795 26.6484 22.5795C25.4666 22.5795 24.6825 23.5114 24.6825 24.8523C24.6825 26.1932 25.4553 27.0909 26.7166 27.0909ZM25.3558 24.4659C25.4013 23.7869 25.8814 23.1818 26.6484 23.1818C27.3757 23.1818 27.8416 23.7273 27.8416 24.4659H25.3558ZM32.2251 28.625C32.8303 28.625 33.2592 28.304 33.5092 27.6364L35.3672 22.6477L34.6342 22.6364L33.4297 26.1136H33.3842L32.1797 22.6364H31.4524L33.0661 27.0227L32.9411 27.3636C32.7024 28.017 32.3956 28.0795 31.907 27.9545L31.7365 28.5455C31.8047 28.5795 31.9979 28.625 32.2251 28.625ZM37.8707 27.0909C39.0526 27.0909 39.848 26.1932 39.848 24.8409C39.848 23.4773 39.0526 22.5795 37.8707 22.5795C36.6889 22.5795 35.8935 23.4773 35.8935 24.8409C35.8935 26.1932 36.6889 27.0909 37.8707 27.0909ZM37.8707 26.4886C36.973 26.4886 36.5639 25.7159 36.5639 24.8409C36.5639 23.9659 36.973 23.1818 37.8707 23.1818C38.7685 23.1818 39.1776 23.9659 39.1776 24.8409C39.1776 25.7159 38.7685 26.4886 37.8707 26.4886ZM43.6214 25.2159C43.6214 26.0341 42.9964 26.4091 42.4964 26.4091C41.9396 26.4091 41.5419 26 41.5419 25.3636V22.6364H40.8714V25.4091C40.8714 26.5227 41.4624 27.0568 42.2805 27.0568C42.9396 27.0568 43.3714 26.7045 43.576 26.2614H43.6214V27H44.2919V22.6364H43.6214V25.2159ZM45.5199 27H46.1903V24.2386C46.1903 23.6477 46.6562 23.2159 47.2926 23.2159C47.4716 23.2159 47.6562 23.25 47.7017 23.2614V22.5795C47.625 22.5739 47.4489 22.5682 47.3494 22.5682C46.8267 22.5682 46.3722 22.8636 46.2131 23.2955H46.1676V22.6364H45.5199V27ZM52.5192 27.0909C53.4851 27.0909 54.1214 26.5 54.2351 25.7273H53.5646C53.4396 26.2045 53.0419 26.4886 52.5192 26.4886C51.7237 26.4886 51.2124 25.8295 51.2124 24.8182C51.2124 23.8295 51.7351 23.1818 52.5192 23.1818C53.1101 23.1818 53.4624 23.5455 53.5646 23.9432H54.2351C54.1214 23.125 53.4283 22.5795 52.5078 22.5795C51.326 22.5795 50.5419 23.5114 50.5419 24.8409C50.5419 26.1477 51.2919 27.0909 52.5192 27.0909ZM56.9879 27.0909C58.1697 27.0909 58.9652 26.1932 58.9652 24.8409C58.9652 23.4773 58.1697 22.5795 56.9879 22.5795C55.8061 22.5795 55.0107 23.4773 55.0107 24.8409C55.0107 26.1932 55.8061 27.0909 56.9879 27.0909ZM56.9879 26.4886C56.0902 26.4886 55.6811 25.7159 55.6811 24.8409C55.6811 23.9659 56.0902 23.1818 56.9879 23.1818C57.8857 23.1818 58.2947 23.9659 58.2947 24.8409C58.2947 25.7159 57.8857 26.4886 56.9879 26.4886ZM62.7386 25.2159C62.7386 26.0341 62.1136 26.4091 61.6136 26.4091C61.0568 26.4091 60.6591 26 60.6591 25.3636V22.6364H59.9886V25.4091C59.9886 26.5227 60.5795 27.0568 61.3977 27.0568C62.0568 27.0568 62.4886 26.7045 62.6932 26.2614H62.7386V27H63.4091V22.6364H62.7386V25.2159ZM64.6371 27H65.3075V24.2386C65.3075 23.6477 65.7734 23.2159 66.4098 23.2159C66.5888 23.2159 66.7734 23.25 66.8189 23.2614V22.5795C66.7422 22.5739 66.5661 22.5682 66.4666 22.5682C65.9439 22.5682 65.4893 22.8636 65.3303 23.2955H65.2848V22.6364H64.6371V27ZM70.7045 23.6136C70.4943 22.9943 70.0227 22.5795 69.1591 22.5795C68.2386 22.5795 67.5568 23.1023 67.5568 23.8409C67.5568 24.4432 67.9148 24.8466 68.7159 25.0341L69.4432 25.2045C69.8835 25.3068 70.0909 25.517 70.0909 25.8182C70.0909 26.1932 69.6932 26.5 69.0682 26.5C68.5199 26.5 68.1761 26.2642 68.0568 25.7955L67.4205 25.9545C67.5767 26.696 68.1875 27.0909 69.0795 27.0909C70.0938 27.0909 70.7841 26.5369 70.7841 25.7841C70.7841 25.1761 70.4034 24.7926 69.625 24.6023L68.9773 24.4432C68.4602 24.3153 68.2273 24.142 68.2273 23.8068C68.2273 23.4318 68.625 23.1591 69.1591 23.1591C69.7443 23.1591 69.9858 23.483 70.1023 23.7841L70.7045 23.6136ZM73.6229 27.0909C74.5092 27.0909 75.157 26.6477 75.3615 25.9886L74.7138 25.8068C74.5433 26.2614 74.1484 26.4886 73.6229 26.4886C72.8359 26.4886 72.2933 25.9801 72.2621 25.0455H75.4297V24.7614C75.4297 23.1364 74.4638 22.5795 73.5547 22.5795C72.3729 22.5795 71.5888 23.5114 71.5888 24.8523C71.5888 26.1932 72.3615 27.0909 73.6229 27.0909ZM72.2621 24.4659C72.3075 23.7869 72.7876 23.1818 73.5547 23.1818C74.282 23.1818 74.7479 23.7273 74.7479 24.4659H72.2621ZM78.6996 27H79.37V24.2386C79.37 23.6477 79.8359 23.2159 80.4723 23.2159C80.6513 23.2159 80.8359 23.25 80.8814 23.2614V22.5795C80.8047 22.5739 80.6286 22.5682 80.5291 22.5682C80.0064 22.5682 79.5518 22.8636 79.3928 23.2955H79.3473V22.6364H78.6996V27ZM81.6761 27H82.3466V22.6364H81.6761V27ZM82.017 21.9091C82.2784 21.9091 82.4943 21.7045 82.4943 21.4545C82.4943 21.2045 82.2784 21 82.017 21C81.7557 21 81.5398 21.2045 81.5398 21.4545C81.5398 21.7045 81.7557 21.9091 82.017 21.9091ZM85.3359 28.7273C86.3814 28.7273 87.2223 28.25 87.2223 27.125V22.6364H86.5746V23.3295H86.5064C86.3587 23.1023 86.0859 22.5795 85.2337 22.5795C84.1314 22.5795 83.37 23.4545 83.37 24.7955C83.37 26.1591 84.1655 26.9318 85.2223 26.9318C86.0746 26.9318 86.3473 26.4318 86.495 26.1932H86.5518V27.0795C86.5518 27.8068 86.0405 28.1364 85.3359 28.1364C84.5433 28.1364 84.2649 27.7188 84.0859 27.4773L83.5518 27.8523C83.8246 28.3097 84.3615 28.7273 85.3359 28.7273ZM85.3132 26.3295C84.4723 26.3295 84.0405 25.6932 84.0405 24.7841C84.0405 23.8977 84.4609 23.1818 85.3132 23.1818C86.1314 23.1818 86.5632 23.8409 86.5632 24.7841C86.5632 25.75 86.12 26.3295 85.3132 26.3295ZM89.12 24.375C89.12 23.6136 89.6058 23.1818 90.2678 23.1818C90.8984 23.1818 91.2791 23.5795 91.2791 24.2727V27H91.9496V24.2273C91.9496 23.1051 91.353 22.5795 90.4609 22.5795C89.7734 22.5795 89.3814 22.8665 89.1768 23.3182H89.12V21.1818H88.4496V27H89.12V24.375ZM95.0739 22.6364H94.142V21.5909H93.4716V22.6364H92.8125V23.2045H93.4716V25.9318C93.4716 26.6932 94.0852 27.0568 94.6534 27.0568C94.9034 27.0568 95.0625 27.0114 95.1534 26.9773L95.017 26.375C94.9602 26.3864 94.8693 26.4091 94.7216 26.4091C94.4261 26.4091 94.142 26.3182 94.142 25.75V23.2045H95.0739V22.6364ZM99.6165 27.1023C100.378 27.1023 100.776 26.6932 100.912 26.4091H100.946V27H101.616V24.125C101.616 22.7386 100.56 22.5795 100.003 22.5795C99.3438 22.5795 98.5938 22.8068 98.2528 23.6023L98.8892 23.8295C99.0369 23.5114 99.3864 23.1705 100.026 23.1705C100.642 23.1705 100.946 23.4972 100.946 24.0568V24.0795C100.946 24.4034 100.616 24.375 99.821 24.4773C99.0114 24.5824 98.1278 24.7614 98.1278 25.7614C98.1278 26.6136 98.7869 27.1023 99.6165 27.1023ZM99.7188 26.5C99.1847 26.5 98.7983 26.2614 98.7983 25.7955C98.7983 25.2841 99.2642 25.125 99.7869 25.0568C100.071 25.0227 100.832 24.9432 100.946 24.8068V25.4205C100.946 25.9659 100.514 26.5 99.7188 26.5ZM103.829 27H104.488L105.442 23.6477H105.511L106.465 27H107.124L108.454 22.6364H107.749L106.806 25.9659H106.761L105.84 22.6364H105.124L104.192 25.9773H104.147L103.204 22.6364H102.499L103.829 27ZM110.624 27.1023C111.386 27.1023 111.783 26.6932 111.92 26.4091H111.954V27H112.624V24.125C112.624 22.7386 111.567 22.5795 111.011 22.5795C110.352 22.5795 109.602 22.8068 109.261 23.6023L109.897 23.8295C110.045 23.5114 110.394 23.1705 111.033 23.1705C111.65 23.1705 111.954 23.4972 111.954 24.0568V24.0795C111.954 24.4034 111.624 24.375 110.829 24.4773C110.019 24.5824 109.136 24.7614 109.136 25.7614C109.136 26.6136 109.795 27.1023 110.624 27.1023ZM110.727 26.5C110.192 26.5 109.806 26.2614 109.806 25.7955C109.806 25.2841 110.272 25.125 110.795 25.0568C111.079 25.0227 111.84 24.9432 111.954 24.8068V25.4205C111.954 25.9659 111.522 26.5 110.727 26.5ZM114.124 28.625C114.729 28.625 115.158 28.304 115.408 27.6364L117.266 22.6477L116.533 22.6364L115.328 26.1136H115.283L114.078 22.6364H113.351L114.964 27.0227L114.839 27.3636C114.601 28.017 114.294 28.0795 113.805 27.9545L113.635 28.5455C113.703 28.5795 113.896 28.625 114.124 28.625Z" fill="#616161"/>
</svg>
