<svg width="30" height="23" viewBox="0 0 30 23" fill="none" xmlns="http://www.w3.org/2000/svg">
<path fill-rule="evenodd" clip-rule="evenodd" d="M7.68105 10.8637V7.00412C7.68105 3.15164 10.9694 0 14.989 0C19.0086 0 22.297 3.15164 22.297 7.00412V10.8532H24.9524C27.7321 10.8532 30 13.0268 30 15.6909V18.1518C30 20.8159 27.7321 22.9895 24.9524 22.9895V20.0448C26.0353 20.0448 26.9276 19.1896 26.9276 18.1518V15.6909C26.9276 14.6531 26.0353 13.7979 24.9524 13.7979H22.297V16.0064C22.297 19.8625 19.0048 23 14.989 23C12.9871 23 11.1666 22.2183 9.84333 20.9576C8.92707 22.192 7.42259 23 5.72787 23H5.04755C2.26789 23 0 20.8264 0 18.1623V15.7014C0 13.0373 2.26789 10.8637 5.04755 10.8637H7.68105ZM10.7535 7.00412C10.7535 4.77794 12.6663 2.94467 14.989 2.94467C17.3118 2.94467 19.2246 4.77794 19.2246 7.00412V10.8637H10.7535V7.00412ZM10.7754 13.8084V16.4074C10.9936 18.4436 12.8111 20.0553 14.989 20.0553C17.3156 20.0553 19.2246 18.2289 19.2246 16.0064V13.8084H10.7754ZM7.68105 13.8084H5.04755C3.96474 13.8084 3.07242 14.6636 3.07242 15.7014V18.1623C3.07242 19.2001 3.96474 20.0553 5.04755 20.0553H5.72787C6.81068 20.0553 7.703 19.2001 7.703 18.1623V16.5394C7.68846 16.36 7.68105 16.1787 7.68105 15.9959V13.8084Z" fill="#D10046"/>
</svg>
