<svg width="152" height="48" viewBox="0 0 152 48" fill="none" xmlns="http://www.w3.org/2000/svg">
<rect x="0.25" y="0.25" width="151.5" height="47.5" rx="3.75" stroke="#E4E4E4" stroke-width="0.5"/>
<path d="M64.5566 19.1797L66.8125 25.1738L69.063 19.1797H70.8193V27H69.4658V24.4219L69.6001 20.9736L67.2905 27H66.3184L64.0142 20.979L64.1484 24.4219V27H62.7949V19.1797H64.5566ZM75.7769 27C75.7196 26.889 75.6694 26.7082 75.6265 26.4575C75.2111 26.8908 74.7026 27.1074 74.1011 27.1074C73.5174 27.1074 73.0412 26.9409 72.6724 26.6079C72.3035 26.2749 72.1191 25.8631 72.1191 25.3726C72.1191 24.7531 72.3483 24.2786 72.8066 23.9492C73.2686 23.6162 73.9274 23.4497 74.7832 23.4497H75.5835V23.0684C75.5835 22.7676 75.4993 22.5277 75.3311 22.3486C75.1628 22.166 74.9067 22.0747 74.563 22.0747C74.2658 22.0747 74.0223 22.1499 73.8325 22.3003C73.6427 22.4471 73.5479 22.6351 73.5479 22.8643H72.2427C72.2427 22.5456 72.3483 22.2484 72.5596 21.9727C72.7708 21.6934 73.0573 21.4749 73.4189 21.3174C73.7842 21.1598 74.1906 21.0811 74.6382 21.0811C75.3185 21.0811 75.861 21.2529 76.2656 21.5967C76.6702 21.9368 76.8779 22.4167 76.8887 23.0361V25.6572C76.8887 26.18 76.9621 26.5972 77.1089 26.9087V27H75.7769ZM74.3428 26.0601C74.6006 26.0601 74.8423 25.9974 75.0679 25.8721C75.297 25.7467 75.4689 25.5785 75.5835 25.3672V24.2715H74.8799C74.3965 24.2715 74.033 24.3556 73.7896 24.5239C73.5461 24.6922 73.4243 24.9303 73.4243 25.2383C73.4243 25.4889 73.5067 25.6895 73.6714 25.8398C73.8397 25.9867 74.0635 26.0601 74.3428 26.0601ZM79.644 27H78.3389V18.75H79.644V27ZM84.5425 27C84.4852 26.889 84.4351 26.7082 84.3921 26.4575C83.9767 26.8908 83.4683 27.1074 82.8667 27.1074C82.283 27.1074 81.8068 26.9409 81.438 26.6079C81.0692 26.2749 80.8848 25.8631 80.8848 25.3726C80.8848 24.7531 81.1139 24.2786 81.5723 23.9492C82.0342 23.6162 82.693 23.4497 83.5488 23.4497H84.3491V23.0684C84.3491 22.7676 84.265 22.5277 84.0967 22.3486C83.9284 22.166 83.6724 22.0747 83.3286 22.0747C83.0314 22.0747 82.7879 22.1499 82.5981 22.3003C82.4084 22.4471 82.3135 22.6351 82.3135 22.8643H81.0083C81.0083 22.5456 81.1139 22.2484 81.3252 21.9727C81.5365 21.6934 81.8229 21.4749 82.1846 21.3174C82.5498 21.1598 82.9562 21.0811 83.4038 21.0811C84.0841 21.0811 84.6266 21.2529 85.0312 21.5967C85.4359 21.9368 85.6436 22.4167 85.6543 23.0361V25.6572C85.6543 26.18 85.7277 26.5972 85.8745 26.9087V27H84.5425ZM83.1084 26.0601C83.3662 26.0601 83.6079 25.9974 83.8335 25.8721C84.0627 25.7467 84.2345 25.5785 84.3491 25.3672V24.2715H83.6455C83.1621 24.2715 82.7987 24.3556 82.5552 24.5239C82.3117 24.6922 82.1899 24.9303 82.1899 25.2383C82.1899 25.4889 82.2723 25.6895 82.437 25.8398C82.6053 25.9867 82.8291 26.0601 83.1084 26.0601ZM88.9683 25.1309L90.1499 21.1885H91.541L89.2314 27.8809C88.877 28.8584 88.2754 29.3472 87.4268 29.3472C87.237 29.3472 87.0275 29.3149 86.7983 29.2505V28.2407L87.0454 28.2568C87.3748 28.2568 87.6219 28.196 87.7866 28.0742C87.9549 27.9561 88.0874 27.7555 88.1841 27.4727L88.3721 26.9731L86.3311 21.1885H87.7383L88.9683 25.1309ZM95.6821 27C95.6248 26.889 95.5747 26.7082 95.5317 26.4575C95.1164 26.8908 94.6079 27.1074 94.0063 27.1074C93.4227 27.1074 92.9465 26.9409 92.5776 26.6079C92.2088 26.2749 92.0244 25.8631 92.0244 25.3726C92.0244 24.7531 92.2536 24.2786 92.7119 23.9492C93.1738 23.6162 93.8327 23.4497 94.6885 23.4497H95.4888V23.0684C95.4888 22.7676 95.4046 22.5277 95.2363 22.3486C95.068 22.166 94.812 22.0747 94.4683 22.0747C94.1711 22.0747 93.9276 22.1499 93.7378 22.3003C93.548 22.4471 93.4531 22.6351 93.4531 22.8643H92.1479C92.1479 22.5456 92.2536 22.2484 92.4648 21.9727C92.6761 21.6934 92.9626 21.4749 93.3242 21.3174C93.6895 21.1598 94.0959 21.0811 94.5435 21.0811C95.2238 21.0811 95.7663 21.2529 96.1709 21.5967C96.5755 21.9368 96.7832 22.4167 96.7939 23.0361V25.6572C96.7939 26.18 96.8674 26.5972 97.0142 26.9087V27H95.6821ZM94.248 26.0601C94.5059 26.0601 94.7476 25.9974 94.9731 25.8721C95.2023 25.7467 95.3742 25.5785 95.4888 25.3672V24.2715H94.7852C94.3018 24.2715 93.9383 24.3556 93.6948 24.5239C93.4513 24.6922 93.3296 24.9303 93.3296 25.2383C93.3296 25.4889 93.4119 25.6895 93.5767 25.8398C93.745 25.9867 93.9688 26.0601 94.248 26.0601ZM99.5493 27H98.2441V18.75H99.5493V27ZM104.448 27C104.39 26.889 104.34 26.7082 104.297 26.4575C103.882 26.8908 103.374 27.1074 102.772 27.1074C102.188 27.1074 101.712 26.9409 101.343 26.6079C100.974 26.2749 100.79 25.8631 100.79 25.3726C100.79 24.7531 101.019 24.2786 101.478 23.9492C101.939 23.6162 102.598 23.4497 103.454 23.4497H104.254V23.0684C104.254 22.7676 104.17 22.5277 104.002 22.3486C103.834 22.166 103.578 22.0747 103.234 22.0747C102.937 22.0747 102.693 22.1499 102.503 22.3003C102.314 22.4471 102.219 22.6351 102.219 22.8643H100.914C100.914 22.5456 101.019 22.2484 101.23 21.9727C101.442 21.6934 101.728 21.4749 102.09 21.3174C102.455 21.1598 102.861 21.0811 103.309 21.0811C103.989 21.0811 104.532 21.2529 104.937 21.5967C105.341 21.9368 105.549 22.4167 105.56 23.0361V25.6572C105.56 26.18 105.633 26.5972 105.78 26.9087V27H104.448ZM103.014 26.0601C103.271 26.0601 103.513 25.9974 103.739 25.8721C103.968 25.7467 104.14 25.5785 104.254 25.3672V24.2715H103.551C103.067 24.2715 102.704 24.3556 102.46 24.5239C102.217 24.6922 102.095 24.9303 102.095 25.2383C102.095 25.4889 102.178 25.6895 102.342 25.8398C102.511 25.9867 102.734 26.0601 103.014 26.0601ZM108.154 21.1885L108.191 21.7954C108.6 21.3192 109.158 21.0811 109.867 21.0811C110.644 21.0811 111.176 21.3783 111.462 21.9727C111.885 21.3783 112.479 21.0811 113.246 21.0811C113.887 21.0811 114.363 21.2583 114.674 21.6128C114.989 21.9673 115.151 22.4901 115.158 23.1812V27H113.853V23.2188C113.853 22.8499 113.772 22.5796 113.611 22.4077C113.45 22.2358 113.183 22.1499 112.811 22.1499C112.513 22.1499 112.27 22.2305 112.08 22.3916C111.894 22.5492 111.763 22.7568 111.688 23.0146L111.693 27H110.388V23.1758C110.37 22.4919 110.021 22.1499 109.341 22.1499C108.818 22.1499 108.447 22.363 108.229 22.7891V27H106.924V21.1885H108.154Z" fill="black"/>
<path fill-rule="evenodd" clip-rule="evenodd" d="M26.6811 22.8637V19.0041C26.6811 15.1516 29.9694 12 33.989 12C38.0086 12 41.297 15.1516 41.297 19.0041V22.8532H43.9524C46.7321 22.8532 49 25.0268 49 27.6909V30.1518C49 32.8159 46.7321 34.9895 43.9524 34.9895V32.0448C45.0353 32.0448 45.9276 31.1896 45.9276 30.1518V27.6909C45.9276 26.6531 45.0353 25.7979 43.9524 25.7979H41.297V28.0064C41.297 31.8625 38.0048 35 33.989 35C31.9871 35 30.1666 34.2183 28.8433 32.9576C27.9271 34.192 26.4226 35 24.7279 35H24.0475C21.2679 35 19 32.8264 19 30.1623V27.7014C19 25.0373 21.2679 22.8637 24.0475 22.8637H26.6811ZM29.7535 19.0041C29.7535 16.7779 31.6663 14.9447 33.989 14.9447C36.3118 14.9447 38.2246 16.7779 38.2246 19.0041V22.8637H29.7535V19.0041ZM29.7754 25.8084V28.4074C29.9936 30.4436 31.8111 32.0553 33.989 32.0553C36.3156 32.0553 38.2246 30.2289 38.2246 28.0064V25.8084H29.7754ZM26.6811 25.8084H24.0475C22.9647 25.8084 22.0724 26.6636 22.0724 27.7014V30.1623C22.0724 31.2001 22.9647 32.0553 24.0475 32.0553H24.7279C25.8107 32.0553 26.703 31.2001 26.703 30.1623V28.5394C26.6885 28.36 26.6811 28.1787 26.6811 27.9959V25.8084Z" fill="#D10046"/>
</svg>
