<svg width="98" height="98" viewBox="0 0 98 98" fill="none" xmlns="http://www.w3.org/2000/svg">
<path d="M91.5976 0H6.10651C2.73398 0 0 2.73398 0 6.10651V91.5976C0 94.9702 2.73398 97.7041 6.10651 97.7041H91.5976C94.9702 97.7041 97.7041 94.9702 97.7041 91.5976V6.10651C97.7041 2.73398 94.9702 0 91.5976 0Z" fill="#FFD819"/>
<path d="M56.2936 48.6266H79.817C81.9825 48.6266 83.7381 50.3818 83.7381 52.5473V81.9524C83.7381 84.1179 81.9825 85.8728 79.817 85.8728H56.2936C54.1281 85.8728 52.3728 84.1179 52.3728 81.9524V52.5473C52.3728 50.3821 54.1281 48.6266 56.2936 48.6266Z" fill="#FFBE00"/>
<path d="M79.817 48.6266H56.2593L56.254 48.6268H56.2291L56.2268 48.6271H56.214L56.2117 48.6273H56.2036L56.1972 48.6277H56.1894L56.1873 48.6279H56.1797L56.1724 48.6281H56.1706L56.1651 48.6284H56.1625L56.1575 48.6286L56.1552 48.629L56.1478 48.6292H56.1473L56.1405 48.6295H56.1384L56.1332 48.6297H56.1308L56.1253 48.6299H56.1233L56.1159 48.6302H56.1143L56.1086 48.6305L56.1062 48.6308L56.1013 48.631H56.0986L56.0918 48.6313H56.0916L56.0845 48.6318L56.0819 48.6321L56.0772 48.6323H56.0743L56.0694 48.6326L56.067 48.6328L56.0602 48.6332L56.0581 48.6334L56.0529 48.6336H56.05L56.0453 48.6339L56.0429 48.6341L56.0374 48.6344L56.0356 48.6347L56.0285 48.6352H56.0262L56.0212 48.6354L56.0186 48.6357L56.0137 48.636L56.0113 48.6363L56.0042 48.6368H56.0027L55.9969 48.6373L55.9945 48.6376L55.9895 48.6378L55.9869 48.6381L55.982 48.6383L55.9799 48.6386L55.9728 48.6391L55.9705 48.6394L55.9655 48.6396L55.9629 48.6402L55.9579 48.6405L55.9556 48.6407L55.9411 48.642H55.9388L55.9338 48.6425L55.9314 48.6428L55.9262 48.6433L55.9242 48.6436L55.9171 48.6441L55.9153 48.6444L55.91 48.6449L55.9072 48.6451L55.9001 48.646L55.8936 48.6464L55.893 48.6467L55.8857 48.6473L55.8836 48.6475L55.8784 48.648L55.876 48.6483L55.8708 48.6488L55.8687 48.6491L55.8616 48.6499L55.8601 48.6501L55.8543 48.6506L55.8473 48.6514L55.8443 48.6517L55.8394 48.6525L55.8373 48.6528L55.8305 48.6535L55.8282 48.6538L55.8232 48.6543L55.8205 48.6546L55.8161 48.6551L55.8132 48.6554L55.8072 48.6561L55.8049 48.6564L55.7994 48.6572L55.7968 48.6574L55.7923 48.658L55.7895 48.6585L55.785 48.659L55.7821 48.6593L55.7756 48.6603L55.773 48.6606L55.7685 48.6611L55.7653 48.6616L55.7615 48.6622L55.7583 48.6624L55.7536 48.6632L55.7502 48.6638L55.7447 48.6645L55.7418 48.6648L55.7376 48.6656L55.7345 48.6658L55.7301 48.6666L55.7274 48.6669L55.7209 48.6679L55.7186 48.6682L55.7138 48.669L55.7109 48.6693L55.7065 48.67L55.7037 48.6702L55.6984 48.671L55.6968 48.6713L55.69 48.6724L55.6872 48.6728L55.683 48.6737L55.6799 48.6742L55.6757 48.6747L55.6731 48.6752L55.6667 48.6763L55.6641 48.6765L55.6594 48.6773L55.656 48.6779L55.6524 48.6786L55.6492 48.6792L55.6447 48.6799L55.6421 48.6802L55.6356 48.6815L55.633 48.6818L55.6286 48.6825L55.6257 48.6831L55.6215 48.6838L55.6186 48.6844L55.6131 48.6852L55.6108 48.6857L55.605 48.6867L55.6021 48.687L55.5979 48.6878L55.5948 48.6886L55.5906 48.6891L55.5815 48.6909L55.5786 48.6915L55.5744 48.6922L55.5712 48.6928L55.5676 48.6933L55.5642 48.6941L55.5598 48.6948L55.5571 48.6954L55.5509 48.6967L55.548 48.6972L55.5441 48.698L55.5406 48.6985L55.5373 48.6993L55.5338 48.6998L55.5281 48.7012L55.5247 48.7016L55.5208 48.7025L55.5173 48.7032L55.5137 48.704L55.5106 48.7045L55.5061 48.7056L55.5038 48.7058L55.4946 48.7076L55.4902 48.7087L55.4873 48.7093L55.4834 48.7103L55.4805 48.7108L55.4758 48.7118L55.4713 48.7126L55.4671 48.7137L55.464 48.7142L55.4601 48.7153L55.4572 48.7158L55.453 48.7168L55.4502 48.7173L55.4438 48.7186L55.4303 48.7218L55.4266 48.7226L55.4232 48.7234L55.4174 48.7247L55.4138 48.7257L55.407 48.7273L55.4033 48.7281L55.3965 48.7296L55.3921 48.7307L55.3874 48.7318L55.3837 48.7328L55.3735 48.7351L55.3701 48.7362L55.3648 48.7373L55.3604 48.7383L55.357 48.7393L55.3539 48.7401L55.3503 48.7409L55.3474 48.7417L55.3434 48.7428L55.3397 48.7435L55.3345 48.7448L55.3309 48.7459L55.3274 48.7467L55.3241 48.7477L55.3206 48.7485L55.3167 48.7496L55.3138 48.75L55.3078 48.7518L55.301 48.7534L55.2974 48.7545L55.2945 48.7553L55.2909 48.7563L55.288 48.7571L55.2812 48.7589L55.278 48.7597L55.2746 48.7605L55.2715 48.7615L55.268 48.7624L55.2647 48.7634L55.2613 48.7642L55.2553 48.7657L55.2484 48.7679L55.2453 48.7686L55.2414 48.7694L55.2383 48.7705L55.2348 48.7712L55.2297 48.7728L55.2255 48.7738L55.2226 48.7747L55.2187 48.776L55.2155 48.7767L55.2121 48.7778L55.209 48.7786L55.204 48.7802L55.1961 48.7822L55.1927 48.7833L55.1896 48.7841L55.1828 48.7861L55.1797 48.7872L55.1736 48.789L55.1703 48.7901L55.1671 48.7909L55.1635 48.7919L55.1606 48.793L55.1569 48.794L55.1535 48.795L55.1477 48.7966L55.1375 48.7998L55.1344 48.8008L55.1305 48.8018L55.1279 48.8029L55.1216 48.8047L55.1187 48.8057L55.1085 48.8089L55.1054 48.8099L55.1017 48.811L55.0965 48.8126L55.0928 48.8139L55.0894 48.8149L55.0863 48.816L55.0795 48.8181L55.0761 48.8194L55.0729 48.8204L55.0667 48.8222L55.064 48.8233L55.0601 48.8246L55.0575 48.8254L55.0512 48.8275L55.0447 48.8296L55.0416 48.8306L55.0381 48.8319L55.035 48.833L55.0316 48.8341L55.0284 48.835L55.0251 48.8363L55.022 48.8374L55.0159 48.8396L55.0128 48.8405L55.0091 48.8418L55.0065 48.8427L55.0028 48.844L55 48.845L54.9939 48.8473L54.9905 48.8484L54.9871 48.8497L54.984 48.8508L54.9804 48.8521L54.9777 48.8531L54.974 48.8544L54.9714 48.8552L54.9644 48.8578L54.962 48.8586L54.9584 48.8599L54.9555 48.861L54.9518 48.8623L54.9489 48.8633L54.9421 48.866L54.9362 48.868L54.9335 48.8691L54.9298 48.8704L54.927 48.8715L54.9236 48.8728L54.9204 48.8737L54.9147 48.8761L54.9115 48.8772L54.9078 48.8785L54.905 48.8796L54.9016 48.8808L54.8985 48.8821L54.895 48.8834L54.8927 48.8845L54.8859 48.8871L54.8833 48.8879L54.8796 48.8895L54.8768 48.8905L54.8733 48.8918L54.8704 48.8929L54.8658 48.895L54.8613 48.8966L54.8581 48.8979L54.8548 48.8992L54.8517 48.9005L54.8485 48.9015L54.8451 48.9028L54.8422 48.9041L54.8359 48.9067L54.833 48.9078L54.8297 48.9091L54.8231 48.9117L54.8207 48.9128L54.8168 48.9144L54.8152 48.9149L54.8077 48.918L54.8053 48.919L54.8017 48.9206L54.7991 48.9217L54.7954 48.9232L54.7925 48.9245L54.7873 48.9266L54.7836 48.9282L54.7802 48.9295L54.7708 48.9334L54.7677 48.935L54.7632 48.9368L54.759 48.9386L54.7556 48.94L54.7494 48.9426L54.7462 48.9441L54.743 48.9454L54.7381 48.9476L54.7342 48.9491L54.7311 48.9507L54.7282 48.952L54.7247 48.9533L54.7219 48.9546L54.7185 48.9562L54.7159 48.9573L54.7093 48.9601L54.7067 48.9611L54.7033 48.9627L54.7004 48.964L54.697 48.9656L54.6944 48.9669L54.6908 48.9685L54.6869 48.9701L54.6821 48.9724L54.679 48.9737L54.6756 48.9753L54.673 48.9763L54.6695 48.9779L54.6669 48.9792L54.6607 48.9821L54.6581 48.9834L54.6544 48.985L54.6517 48.986L54.6484 48.9879L54.6457 48.9889L54.6421 48.9907L54.6408 48.9912L54.6332 48.9947L54.6306 48.996L54.6269 48.9975L54.6246 48.9989L54.6209 49.0004L54.6185 49.0015L54.6097 49.0059L54.606 49.0075L54.6037 49.0088L54.6 49.0103L54.5973 49.0117L54.5905 49.0148L54.5853 49.0174L54.5824 49.0189L54.5791 49.0205L54.5764 49.0218L54.573 49.0234L54.5701 49.025L54.5663 49.0268L54.5615 49.0289L54.5584 49.0308L54.5555 49.0321L54.5521 49.0336L54.5495 49.035L54.5461 49.0368L54.5435 49.0381L54.5375 49.0409L54.5346 49.0425L54.5311 49.044L54.5286 49.0454L54.5252 49.0472L54.5225 49.0485L54.5108 49.0546L54.5045 49.0577L54.5019 49.0592L54.4985 49.0608L54.4961 49.0621L54.4873 49.0666L54.4838 49.0684L54.4812 49.0697L54.4778 49.0715L54.475 49.0731L54.4718 49.0747L54.4684 49.0765L54.4634 49.0792L54.4605 49.0807L54.4574 49.0823L54.4545 49.0838L54.4514 49.0854L54.4482 49.0872L54.4444 49.0893L54.4402 49.0914L54.437 49.0933L54.4341 49.0948L54.4279 49.0979L54.425 49.0995L54.4213 49.1016L54.4169 49.1043L54.4137 49.1058L54.4106 49.1076L54.4077 49.1089L54.4046 49.1108L54.4019 49.1124L54.3947 49.1163L54.3933 49.1168L54.3899 49.1189L54.3876 49.1202L54.3841 49.1221L54.3815 49.1236L54.3782 49.1254L54.3758 49.1267L54.3698 49.1301L54.3672 49.1314L54.3641 49.1333L54.3614 49.1349L54.358 49.1367L54.3554 49.1382L54.3522 49.1401L54.3494 49.1417L54.3439 49.1448L54.341 49.1466L54.3379 49.1482L54.3355 49.1498L54.3321 49.1516L54.3243 49.1563L54.3212 49.1582L54.3183 49.16L54.3154 49.1615L54.3122 49.1633L54.3096 49.1649L54.3065 49.1668L54.3028 49.1688L54.2983 49.1714L54.2955 49.1733L54.2924 49.1751L54.2895 49.1767L54.2809 49.1822L54.2756 49.1853L54.2728 49.1869L54.2696 49.1888L54.2667 49.1906L54.2636 49.1924L54.2612 49.194L54.257 49.1963L54.2497 49.2011L54.2471 49.2026L54.244 49.2044L54.2413 49.2062L54.238 49.2081L54.2353 49.2097L54.2301 49.213L54.2275 49.2146L54.2244 49.2165L54.2217 49.2183L54.2186 49.2204L54.216 49.222L54.2123 49.224L54.2094 49.2259L54.2047 49.2288L54.2021 49.2304L54.199 49.2324L54.1964 49.234L54.1929 49.2363L54.1906 49.2377L54.1851 49.2413L54.1832 49.2424L54.177 49.2465L54.1736 49.2486L54.1712 49.2502L54.1676 49.2526L54.1654 49.2539L54.1599 49.2575L54.1579 49.2588L54.1542 49.2612L54.1519 49.2628L54.1482 49.2651L54.1461 49.2664L54.1399 49.2706L54.1351 49.274L54.133 49.2753L54.1293 49.2777L54.1216 49.2829L54.1157 49.2865L54.1142 49.2876L54.11 49.2905L54.1082 49.2918L54.104 49.2947L54.097 49.2994L54.0967 49.2997L54.0912 49.3033L54.0891 49.3046L54.0854 49.3072L54.0833 49.3088L54.0794 49.3114L54.0776 49.3127L54.0721 49.3164L54.0708 49.3172L54.0664 49.3203L54.0645 49.3217L54.0606 49.3243L54.0585 49.3256L54.054 49.329L54.053 49.3294L54.0472 49.3336L54.0459 49.3347L54.0417 49.3376L54.0399 49.3389L54.0358 49.3417L54.0341 49.3428L54.0287 49.3468L54.0279 49.3472L54.0229 49.3509L54.0213 49.352L54.0171 49.3549L54.0153 49.3562L54.0106 49.3596L54.0098 49.3601L54.0043 49.3643L54.003 49.365L53.9986 49.3682L53.997 49.3695L53.9929 49.3723L53.9913 49.3737L53.9803 49.3815L53.9784 49.3831L53.9745 49.3857L53.9727 49.3873L53.9682 49.3904L53.9672 49.3912L53.9617 49.3954L53.9609 49.3959L53.9559 49.3996L53.9544 49.4007L53.9502 49.4038L53.9489 49.4048C53.9449 49.4077 53.9413 49.4103 53.9376 49.4134L53.9366 49.4139L53.9319 49.4174L53.9306 49.4187L53.9258 49.4221L53.9251 49.4229L53.9193 49.4273H53.919L53.9135 49.4315L53.9125 49.4323L53.9081 49.4357L53.9016 49.4409H53.9013L53.8955 49.4454L53.8947 49.4459L53.89 49.4498L53.8887 49.4506L53.8842 49.454L53.8829 49.455C53.8793 49.4579 53.8756 49.461 53.8719 49.4639L53.871 49.4645L53.8662 49.4681L53.8652 49.4689L53.8602 49.4731L53.8597 49.4733C53.856 49.4762 53.8521 49.4794 53.8484 49.4823L53.8474 49.483L53.8426 49.4869L53.8419 49.4874C53.838 49.4906 53.8343 49.4935 53.8306 49.4966L53.8298 49.4971L53.8248 49.5011L53.8239 49.5019L53.8186 49.5063C53.8147 49.5094 53.811 49.5123 53.8071 49.5155L53.8065 49.516L53.8013 49.5204L53.8008 49.5207C53.7971 49.5239 53.7933 49.527 53.7896 49.5301L53.7891 49.5304L53.7841 49.5345L53.7833 49.5351L53.7781 49.5395L53.7778 49.5398L53.7665 49.5492L53.766 49.5497L53.7608 49.5542L53.7605 49.5545C53.755 49.5591 53.7493 49.5639 53.7438 49.5686L53.743 49.5694L53.7378 49.5738C53.732 49.5785 53.7265 49.5835 53.7207 49.5884L53.7205 49.5887C53.715 49.5934 53.7093 49.5984 53.7038 49.6034L53.7035 49.6036L53.6983 49.6081L53.6978 49.6086C53.6923 49.6133 53.6868 49.6183 53.6813 49.6232L53.681 49.6235C53.6755 49.6285 53.6697 49.6335 53.6643 49.6384C53.6569 49.6452 53.6496 49.6518 53.642 49.6588C53.394 49.8864 53.1764 50.1451 52.9941 50.4282C52.7006 50.8833 52.8319 51.4899 53.2868 51.783C53.742 52.0765 54.3486 51.9452 54.6416 51.4902C54.6418 51.4897 54.6421 51.4895 54.6424 51.4889C55.0026 50.926 55.6249 50.5859 56.2933 50.5867H79.817C80.336 50.5854 80.8345 50.7913 81.2009 51.1588C81.5848 51.5405 82.2054 51.5386 82.587 51.1548C82.9687 50.7716 82.9679 50.1525 82.5848 49.7705C82.3794 49.5655 82.152 49.3839 81.9069 49.229L81.897 49.2227C81.8932 49.2207 81.8901 49.2185 81.8871 49.2167L81.8863 49.2165L81.8825 49.2136L81.8817 49.2133L81.8772 49.2104L81.8764 49.2102L81.8718 49.2073L81.8672 49.2044L81.8665 49.2042L81.8619 49.2013V49.2011L81.8573 49.1982L81.8566 49.1979L81.852 49.195V49.1947L81.8474 49.1924L81.8466 49.1916L81.8428 49.1893L81.8413 49.1888L81.8375 49.1861L81.8367 49.1856L81.8321 49.183L81.8314 49.1824L81.8275 49.1801L81.826 49.1793L81.8222 49.1769L81.8214 49.1765L81.8169 49.1741L81.8161 49.1733L81.8115 49.171L81.8108 49.1704L81.8016 49.1649L81.8008 49.1644L81.797 49.162L81.7955 49.1613L81.7917 49.1589L81.7909 49.1584L81.7871 49.1563L81.7848 49.1553L81.7817 49.1532L81.7802 49.1524L81.7764 49.1503L81.7749 49.1495L81.7711 49.1472L81.7703 49.1466L81.7665 49.1443L81.765 49.1435L81.7611 49.1414L81.7596 49.1406L81.7558 49.1385L81.7543 49.1375L81.7512 49.1356L81.7497 49.1346L81.7459 49.1327L81.7443 49.1317L81.7405 49.1299L81.739 49.1288L81.7352 49.127L81.7337 49.1259L81.7298 49.1239L81.7291 49.123L81.7253 49.121L81.7237 49.1202L81.7199 49.1181L81.7184 49.1173L81.7146 49.1153L81.7131 49.1144L81.7092 49.1124L81.7077 49.1116L81.7047 49.1095L81.7031 49.1087L81.6993 49.1066L81.6978 49.1058L81.694 49.1037L81.6924 49.103L81.6886 49.1008L81.6871 49.1001L81.6833 49.0982L81.6818 49.0972L81.6787 49.0953L81.6772 49.0946L81.6734 49.0924L81.6718 49.0917L81.668 49.0896L81.6665 49.0889L81.6627 49.0867L81.6573 49.0841L81.6566 49.0834L81.652 49.0812L81.6505 49.0805L81.6474 49.0783L81.6451 49.0776L81.6421 49.0757L81.6405 49.0747L81.6367 49.0731L81.6352 49.0721L81.6314 49.0702L81.6299 49.0692L81.626 49.0676L81.6245 49.0666L81.6215 49.065L81.6192 49.0637L81.6161 49.0621L81.6138 49.0611L81.6108 49.0592L81.6085 49.0585L81.6054 49.0566L81.6039 49.0556L81.6001 49.054L81.5978 49.053L81.5947 49.0511L81.5932 49.0501L81.5894 49.0485L81.5879 49.0475L81.584 49.0459L81.5772 49.0422L81.5741 49.0405L81.5718 49.0394L81.5688 49.0386L81.5665 49.0376L81.5505 49.0297L81.5474 49.0281L81.5451 49.0271L81.5413 49.0253L81.5398 49.0244L81.5367 49.0226L81.5344 49.0216L81.5314 49.0203L81.5291 49.0192L81.526 49.0176L81.5238 49.0166L81.5207 49.015L81.5184 49.014L81.5154 49.0124L81.5131 49.0114L81.51 49.0098L81.5077 49.0088L81.5024 49.0062L81.4993 49.0048L81.497 49.0038L81.494 49.0022L81.4917 49.0011L81.4879 48.9998L81.481 48.9962L81.4772 48.9947L81.4757 48.9936L81.4726 48.9921L81.4703 48.991L81.4665 48.9897L81.465 48.9886L81.4612 48.987L81.4558 48.9847L81.4543 48.9837L81.4505 48.9821L81.4482 48.9813L81.4451 48.9797L81.4436 48.9787L81.4321 48.974L81.4291 48.9724L81.4268 48.9714L81.4238 48.9701L81.4184 48.9674L81.4161 48.9664L81.4123 48.9651L81.4108 48.964L81.407 48.9627L81.4054 48.9617L81.4016 48.9604L81.3993 48.9593L81.3963 48.9578L81.394 48.9567L81.3909 48.9554L81.3886 48.9546L81.3856 48.9531L81.3833 48.952L81.3802 48.9507L81.378 48.9496L81.3741 48.9483L81.3726 48.9473L81.3688 48.946L81.3673 48.945L81.3635 48.9436L81.3612 48.9426L81.3581 48.9413L81.3558 48.9402L81.3528 48.9389L81.3505 48.9379L81.3467 48.9366L81.3451 48.9355L81.3421 48.9342L81.3398 48.9331L81.336 48.9318L81.3344 48.9311L81.3306 48.9295L81.3283 48.9287L81.3253 48.9274L81.323 48.9263L81.3199 48.925L81.3177 48.924L81.3146 48.9227L81.3123 48.9217L81.3093 48.9206L81.3062 48.9195L81.3032 48.9182L81.3009 48.9172L81.2978 48.9159L81.2955 48.9151L81.2925 48.9138L81.2902 48.9128L81.2864 48.9115L81.2841 48.9107L81.281 48.9094L81.2787 48.9083L81.2757 48.907L81.2734 48.9062L81.2696 48.9049L81.268 48.9041L81.2642 48.9025L81.2619 48.9018L81.2589 48.9005L81.2566 48.8997L81.2535 48.8984L81.2512 48.8973L81.2482 48.8963L81.2451 48.8952L81.2421 48.8939L81.2398 48.8931L81.2367 48.8918L81.2344 48.8908L81.2314 48.8898L81.2291 48.8887L81.2253 48.8876L81.223 48.8866L81.2199 48.8856L81.2177 48.8845L81.2146 48.8834L81.2123 48.8825L81.2085 48.8811L81.2062 48.8803L81.2032 48.879L81.2009 48.8783L81.1971 48.877L81.1948 48.8761L81.1917 48.8748L81.1894 48.8741L81.1864 48.8728L81.1841 48.8719L81.1803 48.8706L81.178 48.8699L81.1749 48.8686L81.1726 48.8678L81.1696 48.866L81.1642 48.8641L81.1612 48.8631L81.1581 48.862L81.1558 48.861L81.1528 48.8599L81.1497 48.8589L81.1444 48.857L81.1413 48.8557L81.139 48.855L81.136 48.8537L81.1329 48.8528L81.1299 48.8515L81.1276 48.8508L81.1238 48.8497L81.1222 48.8489L81.1184 48.8476L81.1131 48.8458L81.1108 48.845L81.1077 48.8437L81.1047 48.8429L81.1016 48.8418L81.0993 48.8411L81.0955 48.8398L81.094 48.839L81.0902 48.8379L81.0879 48.8372L81.0848 48.8359L81.0826 48.8354L81.0787 48.8341L81.0764 48.8332L81.0734 48.8319L81.065 48.8293L81.0619 48.8283L81.0597 48.8275L81.0558 48.8264L81.0535 48.8257L81.0505 48.8246L81.0482 48.8238L81.0444 48.8225L81.0429 48.822L81.039 48.8207L81.0368 48.8202L81.0329 48.8189L81.0314 48.8183L81.0276 48.817L81.0253 48.8165L81.0215 48.8152L81.02 48.8147L81.0161 48.8134L81.0139 48.8128L81.01 48.8115L81.0085 48.811L81.0047 48.8097L81.0024 48.8089L80.9971 48.8073L80.9932 48.806L80.991 48.8055L80.9879 48.8044L80.9856 48.8037L80.9818 48.8026L80.9795 48.8018L80.9757 48.8008L80.9734 48.8002L80.9703 48.7992L80.9681 48.7984L80.9642 48.7974L80.9627 48.7966L80.9589 48.7956L80.9566 48.7947L80.9528 48.7938L80.9505 48.7932L80.9474 48.7921L80.9452 48.7914L80.9413 48.7903L80.9391 48.7896L80.936 48.7885L80.9337 48.788L80.9299 48.787L80.9276 48.7861L80.9238 48.7851L80.9223 48.7846L80.9184 48.7835L80.9161 48.7828L80.9123 48.782L80.91 48.7812L80.907 48.7802L80.9047 48.7796L80.9009 48.7786L80.8986 48.7778L80.8948 48.7767L80.8925 48.7762L80.8894 48.7751L80.8871 48.7744L80.8833 48.7736L80.881 48.7728L80.878 48.7718L80.8749 48.7712L80.8719 48.7702L80.8696 48.7697L80.8658 48.7686L80.8635 48.7681L80.8597 48.767L80.8581 48.7663L80.8543 48.7655L80.852 48.7647L80.8482 48.7637L80.8459 48.7631L80.8429 48.7624L80.8406 48.7615L80.8368 48.7608L80.8345 48.76L80.8307 48.7592L80.8284 48.7584L80.8253 48.7576L80.8223 48.7569L80.8192 48.756L80.8169 48.7553L80.8131 48.7545L80.8108 48.754L80.807 48.7529L80.8047 48.7524L80.8017 48.7516L80.7994 48.7509L80.7955 48.75L80.7933 48.7496L80.7894 48.7485L80.7871 48.748L80.7841 48.7469L80.7818 48.7463L80.778 48.7456L80.7726 48.7441L80.7696 48.7432L80.7665 48.7428L80.7581 48.7404L80.7551 48.7396L80.752 48.7391L80.749 48.7383L80.7459 48.7375L80.7429 48.7367L80.7406 48.7362L80.7368 48.7354L80.7345 48.7349L80.7314 48.7341L80.7284 48.7333L80.7253 48.7325L80.7223 48.732L80.7192 48.7312L80.7169 48.7307L80.7131 48.7296L80.7108 48.7291L80.7078 48.7283L80.7047 48.7278L80.7017 48.727L80.6986 48.7265L80.6956 48.7257L80.6933 48.7252L80.6902 48.7244L80.6872 48.7239L80.6841 48.7231L80.681 48.7226L80.678 48.7218L80.6749 48.721L80.6719 48.7205L80.6688 48.7199L80.6658 48.7192L80.6635 48.7186L80.6597 48.7179L80.6574 48.7173L80.6543 48.7166L80.6513 48.716L80.6482 48.7153L80.6459 48.7147L80.6421 48.714L80.6398 48.7135L80.636 48.7126L80.6337 48.7118L80.6307 48.7111L80.6276 48.7106L80.6246 48.7098L80.6223 48.7095L80.6185 48.7087L80.6162 48.7082L80.6124 48.7074L80.6101 48.7069L80.604 48.7056L80.6009 48.7051L80.5978 48.7045L80.5948 48.7038L80.5917 48.7032L80.5887 48.7027L80.5864 48.7019L80.5826 48.7014L80.5803 48.7009L80.5765 48.7003L80.5742 48.6998L80.5711 48.699L80.5681 48.6985L80.5643 48.698L80.562 48.6975L80.5589 48.6967L80.5559 48.6961L80.5528 48.6957L80.5505 48.6951L80.5467 48.6946L80.5444 48.6941L80.5406 48.6933L80.5383 48.6928L80.5345 48.6922L80.5322 48.6917L80.5284 48.6912L80.5261 48.6904L80.523 48.6899L80.52 48.6893L80.5169 48.6889L80.5139 48.6883L80.5108 48.6878L80.5078 48.6873L80.5047 48.6867L80.5017 48.6862L80.4956 48.6852L80.4925 48.6847L80.4895 48.6841L80.4841 48.6831L80.4803 48.6825L80.478 48.682L80.4742 48.6815L80.4711 48.681L80.4681 48.6805L80.4658 48.6799L80.462 48.6794L80.4597 48.6789L80.4566 48.6783L80.4536 48.6779L80.4498 48.6773L80.4475 48.677L80.4437 48.6765L80.4414 48.676L80.4383 48.6755L80.4353 48.6752L80.4322 48.6747L80.4292 48.6742L80.4253 48.6737L80.423 48.6731L80.42 48.6726L80.4169 48.6724L80.4139 48.6719L80.4108 48.6713L80.407 48.6708L80.4047 48.6702L80.4017 48.6697L80.3986 48.6695L80.3956 48.669L80.3925 48.6687L80.3895 48.6679L80.3864 48.6677L80.3834 48.6671L80.3811 48.6669L80.3773 48.6664L80.3742 48.6661L80.3711 48.6656L80.3681 48.6651L80.365 48.6648L80.362 48.6642L80.3589 48.6638L80.3559 48.6635L80.3528 48.6629L80.3498 48.6627L80.3467 48.6622L80.3444 48.6619L80.3406 48.6614L80.3376 48.6611L80.3345 48.6606L80.3315 48.6603L80.3284 48.6598L80.3253 48.6596L80.3223 48.659L80.3192 48.6587L80.3162 48.6583L80.3131 48.658L80.3101 48.6574L80.307 48.6572L80.304 48.6567L80.3009 48.6564L80.2971 48.6559L80.2948 48.6556L80.2918 48.6554L80.2887 48.6548L80.2849 48.6546L80.2826 48.6543L80.2795 48.6538L80.2765 48.6535L80.2727 48.653L80.2704 48.6528L80.2666 48.6525L80.2643 48.6522L80.2605 48.6517L80.2521 48.6506L80.2482 48.6504L80.246 48.6501L80.2421 48.6496L80.236 48.6488H80.2337L80.2299 48.6483L80.2276 48.648L80.2238 48.6475L80.2215 48.6473L80.2177 48.647L80.2147 48.6467L80.2116 48.6464L80.2086 48.6462L80.2055 48.6457L80.2017 48.6454L80.1994 48.6451L80.1925 48.6446L80.1895 48.6444L80.1834 48.6438L80.1803 48.6436L80.178 48.6433L80.1742 48.6431L80.1719 48.6428L80.1681 48.6425L80.1651 48.6423L80.162 48.642L80.1597 48.6418L80.1559 48.6415L80.1498 48.6409L80.1467 48.6407L80.1406 48.6402L80.1368 48.6396L80.1246 48.6386H80.1215L80.1185 48.6383L80.1154 48.6381L80.1124 48.6378L80.1093 48.6376L80.1063 48.6373L80.1032 48.637L80.0994 48.6368L80.0971 48.6365L80.0933 48.6363H80.0902L80.0872 48.636L80.0849 48.6357L80.0811 48.6354H80.0788L80.075 48.6352L80.0719 48.635L80.0689 48.6347L80.062 48.6341L80.059 48.6339H80.0567L80.0521 48.6336L80.0498 48.6334H80.046L80.0437 48.6332L80.0399 48.6328H80.0376L80.0338 48.6326H80.0315L80.0277 48.6323L80.0246 48.6321H80.0223L80.0185 48.6318H80.0154L80.0124 48.6315L80.0093 48.6313H80.0063L80.0032 48.631H80.0002L79.9971 48.6308H79.9933L79.991 48.6305H79.9872L79.9849 48.6302H79.9811L79.9788 48.6299H79.975L79.9727 48.6297H79.9681L79.9658 48.6295H79.962L79.959 48.6292H79.9529L79.9498 48.629H79.9475L79.9429 48.6286H79.9406L79.9368 48.6284H79.9277L79.9246 48.6281H79.9154L79.9116 48.6279H79.9025L79.8994 48.6277H79.8803L79.8765 48.6273H79.8277C79.8246 48.6268 79.8208 48.6268 79.817 48.6266Z" fill="#FFD700"/>
<path d="M79.817 54.5076H60.214C59.1316 54.5076 58.2536 55.3853 58.2536 56.468V81.9517C58.2536 83.0348 59.1313 83.9126 60.214 83.9126H76.2332C77.2729 83.9126 78.2705 83.4997 79.0056 82.7646L80.6291 81.1403C81.3642 80.4052 81.7779 79.4075 81.7779 78.3679V56.468C81.7779 55.3853 80.9001 54.5076 79.817 54.5076Z" fill="#FFA300"/>
<path d="M79.243 76.6451L74.5106 81.3776C74.1428 81.7455 73.6442 81.9516 73.1244 81.9516H58.2537C57.1712 81.9516 56.2936 81.0746 56.2936 79.9914V54.5075C56.2936 53.4248 57.1712 52.5471 58.2537 52.5471H77.8568C78.94 52.5471 79.817 53.4248 79.817 54.5075V75.2591C79.817 75.7789 79.6109 76.2777 79.243 76.6451Z" fill="white"/>
<path d="M71.976 74.1107C73.0587 74.1107 73.9363 74.9884 73.9363 76.0711V79.9914C73.9363 81.0746 73.0587 81.9516 71.976 81.9516C70.8935 81.9516 70.0159 81.0746 70.0159 79.9914V76.0711C70.0156 74.9884 70.8932 74.1107 71.976 74.1107Z" fill="#D9DFFF"/>
<path d="M60.214 52.5471H75.8968C76.979 52.5471 77.8568 53.4248 77.8568 54.5075C77.8568 55.5902 76.979 56.4679 75.8968 56.4679H60.214C59.1313 56.4679 58.2536 55.5902 58.2536 54.5075C58.2536 53.4248 59.1313 52.5471 60.214 52.5471Z" fill="#A4B1FF"/>
<path d="M64.1348 62.349C64.1348 63.4317 63.2571 64.3093 62.1743 64.3093C61.0916 64.3093 60.214 63.4317 60.214 62.349C60.214 61.2665 61.0916 60.3886 62.1743 60.3886C63.2571 60.3886 64.1348 61.2665 64.1348 62.349Z" fill="#C175FF"/>
<path d="M68.0552 60.3886H73.9363C75.0191 60.3886 75.8966 61.2662 75.8966 62.349C75.8966 63.4317 75.0191 64.3093 73.9363 64.3093H68.0552C66.9727 64.3093 66.0951 63.4317 66.0951 62.349C66.0951 61.2665 66.9727 60.3886 68.0552 60.3886Z" fill="#33527D"/>
<path d="M68.0552 66.2697H73.9363C75.0191 66.2697 75.8966 67.1472 75.8966 68.23C75.8966 69.3124 75.0191 70.1901 73.9363 70.1901H68.0552C66.9727 70.1901 66.0951 69.3124 66.0951 68.23C66.0951 67.1472 66.9727 66.2697 68.0552 66.2697Z" fill="#33527D"/>
<path d="M68.0552 72.1503H73.9363C75.0191 72.1503 75.8966 73.0279 75.8966 74.1106C75.8966 75.1931 75.0191 76.071 73.9363 76.071H68.0552C66.9727 76.071 66.0951 75.1931 66.0951 74.1106C66.0951 73.0279 66.9727 72.1503 68.0552 72.1503Z" fill="#33527D"/>
<path d="M64.1348 68.23C64.1348 69.3124 63.2571 70.1901 62.1743 70.1901C61.0916 70.1901 60.214 69.3124 60.214 68.23C60.214 67.1472 61.0916 66.2697 62.1743 66.2697C63.2571 66.2697 64.1348 67.1472 64.1348 68.23Z" fill="#079CFF"/>
<path d="M64.1348 74.1106C64.1348 75.1934 63.2571 76.071 62.1743 76.071C61.0916 76.071 60.214 75.1934 60.214 74.1106C60.214 73.0279 61.0916 72.1503 62.1743 72.1503C63.2571 72.1503 64.1348 73.0279 64.1348 74.1106Z" fill="#FFBE00"/>
<path d="M74.9165 48.6264H73.9363C73.9363 45.3785 71.3034 42.7456 68.0552 42.7456C64.8073 42.7456 62.1744 45.3785 62.1744 48.6264H61.1942C59.5702 48.6264 58.2536 49.943 58.2536 51.567C58.2536 53.191 59.5702 54.5076 61.1942 54.5076H74.9165C76.5408 54.5076 77.8568 53.191 77.8568 51.567C77.8568 49.943 76.5408 48.6264 74.9165 48.6264ZM68.0552 50.5868C66.9728 50.5868 66.0949 49.7091 66.0949 48.6264C66.0949 47.544 66.9725 46.666 68.0552 46.666C69.138 46.666 70.0156 47.5437 70.0156 48.6264C70.0156 49.7091 69.138 50.5868 68.0552 50.5868Z" fill="#7D8FAC"/>
<path d="M70.892 43.649C70.3507 43.6485 69.9115 44.0869 69.9109 44.6284C69.9107 44.946 70.0645 45.244 70.3232 45.4281C71.3587 46.1647 71.9741 47.356 71.9759 48.6268C71.9759 49.7093 72.8536 50.5872 73.9364 50.5872H74.2084C74.7499 50.5872 75.1886 50.1482 75.1886 49.6071C75.1886 49.0658 74.7499 48.6268 74.2084 48.6268H73.9364V48.5787L73.9361 48.5709V48.5499L73.9358 48.5424V48.5311L73.9356 48.5228V48.5122L73.9353 48.5045V48.494L73.9351 48.4858V48.4838L73.9348 48.4759L73.9345 48.4741V48.4657L73.9342 48.4574V48.4555L73.934 48.4471V48.4461L73.9338 48.438V48.4372L73.9335 48.4286L73.9332 48.4273L73.9329 48.4187V48.4181L73.9327 48.41V48.4087L73.9324 48.4006V48.3987L73.9319 48.3903V48.3901L73.9316 48.3817V48.3802L73.9311 48.3721V48.3707L73.9309 48.3626V48.3619L73.9303 48.3535V48.3519L73.9301 48.3438L73.9298 48.3423L73.9296 48.3346V48.3336L73.929 48.3255V48.3234L73.9285 48.3155V48.3142L73.928 48.3064V48.3054L73.9274 48.297V48.2954L73.9269 48.2871V48.2865L73.9267 48.2781L73.9264 48.2768L73.9259 48.2684V48.2671L73.9248 48.2502L73.9246 48.2486L73.9241 48.2405V48.2389L73.9235 48.231L73.9232 48.2303L73.9228 48.2219V48.2204L73.9222 48.2123V48.2109L73.9217 48.2033L73.9214 48.202L73.9209 48.1942V48.1921L73.9201 48.1839V48.1826L73.9196 48.1756L73.9193 48.1738L73.9188 48.1659V48.1641L73.918 48.156V48.1552L73.9173 48.1476V48.1458L73.9164 48.1379V48.1361L73.9159 48.1285L73.9157 48.1278L73.9151 48.1196L73.9149 48.1178L73.9144 48.1097L73.9141 48.1084L73.9136 48.101L73.9133 48.0995L73.9125 48.0917V48.0898L73.9118 48.0817L73.9115 48.0807L73.9109 48.0728L73.9107 48.0717L73.9099 48.0636V48.0618L73.9089 48.0537V48.053L73.9081 48.0453V48.0438L73.9073 48.0359L73.907 48.0338L73.9063 48.0265L73.906 48.0249L73.9052 48.0176V48.0158L73.9045 48.0079L73.9041 48.0061L73.9034 47.9985L73.9032 47.9977L73.9023 47.9899L73.9021 47.9878L73.9013 47.9799V47.9786L73.9003 47.9713V47.9698L73.8995 47.9619L73.8992 47.9601L73.8984 47.9522L73.8981 47.9507L73.8974 47.9436L73.8971 47.942L73.8961 47.9342V47.9324L73.895 47.9242V47.9237L73.894 47.9161L73.8937 47.914L73.8929 47.9062L73.8926 47.9046L73.8916 47.8965V47.8962L73.8906 47.8884L73.8903 47.8862L73.8895 47.8787L73.8893 47.8766L73.8882 47.8698V47.8685L73.8872 47.8607L73.8869 47.8585L73.8858 47.851L73.8856 47.8492L73.8848 47.8426L73.8845 47.8405L73.8835 47.8329L73.8832 47.8308L73.8822 47.8233L73.8819 47.8217L73.8812 47.8149L73.8809 47.813L73.8799 47.8055L73.8796 47.8033L73.8785 47.7955L73.8783 47.7947L73.877 47.7856L73.8759 47.778L73.8757 47.7756L73.8746 47.7694L73.8744 47.767L73.8733 47.7602L73.873 47.7576L73.872 47.7505L73.8715 47.7479L73.8707 47.7419L73.8693 47.7327L73.8689 47.7302L73.8675 47.721L73.8665 47.7144L73.8662 47.7123L73.8649 47.705L73.8647 47.7027L73.8634 47.6953L73.8631 47.6935L73.8623 47.6875L73.8618 47.6849L73.8607 47.6778L73.8603 47.6754L73.8592 47.6686L73.8589 47.6666L73.8579 47.66L73.8574 47.6574L73.8561 47.6501L73.8558 47.6482L73.8548 47.6415L73.8545 47.6398L73.8532 47.6323L73.8529 47.6305L73.8516 47.6228L73.8513 47.6208L73.8503 47.6145L73.8497 47.6124L73.8484 47.6053L73.8482 47.6028L73.8469 47.5954L73.8464 47.5933L73.8453 47.5876L73.8451 47.5849L73.8438 47.5779L73.8432 47.5753L73.8422 47.5689L73.8416 47.5661L73.8406 47.5601L73.8401 47.5577L73.8387 47.5507L73.8383 47.548L73.8372 47.5415L73.837 47.5399L73.8354 47.5329L73.8351 47.5302L73.8338 47.5234L73.8333 47.5208L73.8322 47.5154L73.8315 47.5119L73.8304 47.506L73.8299 47.5031L73.8286 47.4963L73.827 47.4884L73.8264 47.4855L73.8251 47.479L73.8246 47.4758L73.8233 47.4701L73.8225 47.4664L73.8218 47.4615L73.8209 47.4583L73.8196 47.4518L73.8191 47.4489L73.8181 47.4437L73.8171 47.4393L73.8163 47.4345L73.8154 47.4314L73.8142 47.4248L73.8136 47.4219L73.8123 47.4164L73.8119 47.4133L73.8105 47.4073L73.81 47.4044L73.8084 47.3977L73.8079 47.3953L73.8066 47.3895L73.8055 47.3872L73.804 47.3801L73.8035 47.3775L73.8019 47.3704L73.8013 47.3683L73.8 47.3623L73.7998 47.3602L73.7982 47.3531L73.7974 47.3506L73.7958 47.3435L73.7956 47.3416L73.7943 47.3359L73.7938 47.333L73.7922 47.3262L73.7917 47.3236L73.7903 47.3181L73.7896 47.3144L73.7883 47.3092L73.7877 47.3061L73.7862 47.2996L73.7854 47.2967L73.7841 47.2914L73.7835 47.2888L73.782 47.2822L73.7815 47.2796L73.7794 47.2703L73.778 47.265L73.7773 47.2622L73.7758 47.2553L73.7749 47.2527L73.7734 47.2459L73.7729 47.2435L73.7716 47.238L73.771 47.2354L73.7692 47.2289L73.7684 47.2258L73.7671 47.2203L73.7663 47.2171L73.765 47.2114L73.7642 47.2087L73.7626 47.2019L73.7619 47.1996L73.7603 47.1936L73.7598 47.1912L73.7582 47.1847L73.7577 47.1823L73.7558 47.1755L73.7553 47.1726L73.754 47.1677L73.7529 47.1643L73.7516 47.1585L73.7509 47.1554L73.749 47.1489L73.7485 47.1462L73.7472 47.1413L73.7464 47.1387L73.7446 47.1321L73.7438 47.129L73.7422 47.1229L73.7415 47.1198L73.7401 47.1148L73.7393 47.1119L73.7378 47.1055L73.737 47.1026L73.7355 47.0973L73.7344 47.0936L73.7323 47.0853L73.7305 47.079L73.7297 47.0761L73.7284 47.0712L73.7274 47.0677L73.725 47.0591L73.7232 47.0526L73.7223 47.0497L73.721 47.045L73.7203 47.0421L73.7184 47.0358L73.7177 47.0327L73.7158 47.0261L73.715 47.0238L73.7137 47.0188L73.7129 47.0157L73.7111 47.0094L73.71 47.0063L73.7087 47.0013L73.7077 46.9974L73.7064 46.9927L73.7054 46.9896L73.7035 46.9832L73.7025 46.9801L73.7012 46.9749L73.7001 46.9715L73.6986 46.9662L73.6977 46.9631L73.6957 46.9568L73.6949 46.9539L73.6935 46.9495L73.6923 46.9453L73.691 46.9401L73.69 46.9372L73.6881 46.931L73.6871 46.9275L73.6858 46.9233L73.6831 46.9142L73.6818 46.9108L73.6805 46.9058L73.6779 46.8975L73.6768 46.8941L73.675 46.8881L73.6739 46.8846L73.6708 46.8752L73.6698 46.8713L73.6687 46.8679L73.6669 46.8619L73.6656 46.8585L73.6643 46.854L73.663 46.8504L73.6614 46.8454L73.6603 46.842L73.6585 46.836L73.6575 46.8329L73.6561 46.8284L73.6549 46.8242L73.6533 46.8195L73.6523 46.8159L73.6504 46.8109L73.6491 46.8065L73.6481 46.803L73.6449 46.7936L73.6439 46.79L73.6423 46.7858L73.6407 46.7808L73.6394 46.7768L73.6381 46.7735L73.6363 46.7675L73.6352 46.7643L73.6337 46.7601L73.6319 46.7549L73.6308 46.7512L73.6295 46.7475L73.6264 46.7381L73.6251 46.7348L73.6232 46.7295L73.6219 46.7253L73.6209 46.722L73.6187 46.7165L73.6174 46.7125L73.6164 46.7088L73.6148 46.7044L73.613 46.6997L73.6119 46.6963L73.6101 46.6911L73.6088 46.6874L73.6073 46.683L73.6062 46.6798L73.6044 46.674L73.6018 46.6668L73.5997 46.6613L73.5986 46.6578L73.5971 46.6542L73.5939 46.6448L73.5926 46.6414L73.5905 46.6356L73.5892 46.6322L73.5861 46.6228L73.5845 46.6188L73.5835 46.616L73.5811 46.6095L73.58 46.6069L73.5787 46.6027L73.5774 46.5992L73.5753 46.5935L73.574 46.5904L73.5722 46.5849L73.5707 46.5809L73.5691 46.5772L73.568 46.5744L73.5657 46.5679L73.5646 46.565L73.5633 46.5611L73.5597 46.5519L73.5586 46.5488L73.5562 46.5425L73.5549 46.5396L73.5536 46.5357L73.5516 46.5302L73.5502 46.5266L73.5487 46.5231L73.5465 46.5176L73.5452 46.5143L73.5439 46.5106L73.5424 46.5069L73.5403 46.5011L73.539 46.4982L73.5366 46.4917L73.5356 46.4892L73.5338 46.485L73.5329 46.4828L73.5304 46.4755L73.5293 46.4734L73.5259 46.4645L73.5256 46.4643L73.5238 46.4598L73.523 46.4575L73.5201 46.4504L73.5194 46.448L73.5162 46.4402L73.5155 46.4386L73.5136 46.4342L73.5131 46.4326L73.51 46.4247L73.5091 46.4232L73.5036 46.4091L73.5029 46.4075L73.4997 46.3996L73.499 46.3978L73.4971 46.3934L73.4966 46.3924L73.4932 46.384L73.4924 46.3821L73.4891 46.3737L73.4887 46.373L73.4867 46.3682L73.483 46.3591L73.4822 46.357C73.4801 46.3526 73.4781 46.3476 73.4762 46.3431L73.4759 46.3424L73.472 46.3332L73.4717 46.3327L73.4658 46.3183L73.4652 46.3167L73.4616 46.3086L73.461 46.3076L73.455 46.2934L73.4545 46.2921L73.4508 46.2835L73.4503 46.2824L73.4485 46.278L73.4479 46.2767L73.4443 46.2683L73.4438 46.2673L73.4375 46.2529L73.4372 46.2524L73.4333 46.2435L73.4328 46.2425L73.4265 46.2283L73.426 46.227L73.4223 46.2189L73.4218 46.2176L73.4155 46.2034L73.415 46.2021L73.4114 46.1943L73.4105 46.1928L73.4043 46.1789L73.4037 46.1776L73.3995 46.1689L73.3993 46.1684L73.3972 46.1637L73.3969 46.1629L73.3927 46.1543L73.3923 46.1532L73.3857 46.1391L73.3854 46.1386L73.3813 46.1294L73.381 46.1289L73.3742 46.1145L73.3739 46.1143L73.3694 46.1048V46.1043C73.3672 46.0996 73.3648 46.0949 73.3627 46.0902L73.3621 46.0894L73.3577 46.08C73.3553 46.0751 73.353 46.0703 73.3507 46.0654L73.3504 46.0651L73.3433 46.0507V46.0504L73.3391 46.0415L73.3384 46.0402C73.336 46.0355 73.3339 46.0311 73.3315 46.0264L73.3311 46.0256L73.3269 46.0172L73.3265 46.0161L73.3195 46.0023L73.319 46.001L73.3148 45.9926L73.3143 45.9921C73.3119 45.9874 73.3096 45.9827 73.3072 45.978L73.3069 45.9772L73.3023 45.968L73.2996 45.9628L73.2949 45.9539L73.2946 45.9531C73.2907 45.9453 73.2866 45.9374 73.2827 45.9296L73.2823 45.929L73.275 45.9149L73.2748 45.9147L73.2701 45.9058L73.2698 45.9047L73.2625 45.8909L73.2622 45.8903L73.2575 45.8812L73.2572 45.8809C73.2549 45.8762 73.2525 45.8718 73.2499 45.8671L73.2494 45.8663C73.2452 45.8584 73.2411 45.8506 73.2369 45.8427C73.2172 45.8064 73.1973 45.77 73.1769 45.7339L73.1767 45.7336C72.7503 44.9811 72.164 44.3315 71.4591 43.8303C71.2935 43.7123 71.0952 43.6488 70.892 43.649Z" fill="#5E7599"/>
<path d="M76.8729 50.6955C76.3531 50.696 75.9234 51.1031 75.8952 51.6228C75.8664 52.1419 75.4366 52.5481 74.9166 52.5474H61.1942C60.653 52.5478 60.2146 52.9873 60.2151 53.5285C60.2156 54.069 60.6538 54.5072 61.1942 54.5077H74.9749L74.9773 54.5075H74.9888L74.9914 54.5072H74.9982L75.0005 54.507H75.0076L75.0099 54.5066H75.0167L75.0191 54.5064H75.0259L75.0285 54.5061H75.0354L75.0379 54.5059H75.04L75.0431 54.5057H75.0473L75.0502 54.5053L75.0586 54.5051H75.0589L75.0633 54.5048H75.0636L75.0678 54.5046H75.0701L75.0724 54.5043H75.0746L75.0769 54.5041H75.0816L75.0834 54.5038H75.086L75.0884 54.5035H75.0911L75.0929 54.5033H75.0955L75.0976 54.503L75.0999 54.5028H75.1023L75.1047 54.5024H75.107L75.1091 54.5022H75.1115L75.1138 54.502H75.1162L75.1185 54.5017H75.1208L75.123 54.5015L75.1253 54.5012H75.1276L75.13 54.5009H75.1324L75.1344 54.5006L75.1371 54.5004H75.1389L75.1415 54.5002L75.1436 54.4999L75.1463 54.4996H75.1481L75.1509 54.4993H75.1528L75.1554 54.4991L75.1575 54.4988L75.1598 54.4986H75.1619L75.1648 54.4983L75.1666 54.498L75.1695 54.4978H75.1711L75.1745 54.4973H75.1758L75.1789 54.497L75.1802 54.4967C75.185 54.4965 75.1894 54.496 75.1941 54.4957H75.1944L75.1986 54.4951H75.1996L75.2033 54.4949L75.204 54.4947L75.2079 54.4944L75.209 54.4941L75.2124 54.4938L75.214 54.4936L75.2169 54.4933H75.2189L75.2216 54.4931L75.2234 54.4928L75.226 54.4925L75.2281 54.4923L75.2308 54.492L75.2326 54.4918L75.2352 54.4915L75.237 54.4912L75.2399 54.491H75.2412L75.2446 54.4907L75.2459 54.4905L75.249 54.4902L75.2506 54.4899L75.2535 54.4896L75.2553 54.4894L75.2582 54.4892L75.2598 54.4889L75.2627 54.4886L75.2642 54.4883L75.2673 54.4881L75.2686 54.4878L75.2718 54.4876L75.2734 54.4873L75.2765 54.487L75.2778 54.4868L75.2812 54.4865L75.2825 54.4863L75.2856 54.4857L75.2869 54.4855L75.2898 54.4852L75.2917 54.485L75.2948 54.4847L75.2961 54.4844L75.2992 54.4839H75.3006L75.304 54.4834H75.3053L75.3087 54.4828L75.3098 54.4826C75.3157 54.4818 75.3217 54.481 75.328 54.48C75.3312 54.4797 75.334 54.4792 75.3369 54.4789L75.3375 54.4787L75.3417 54.4782H75.3422L75.3461 54.4776L75.3469 54.4773L75.3508 54.4769H75.3511L75.355 54.4763L75.356 54.476L75.3597 54.4755H75.3608L75.3641 54.475L75.3655 54.4747L75.3686 54.4742L75.3699 54.474L75.373 54.4734H75.3743L75.3778 54.4729L75.3791 54.4727L75.3822 54.4721L75.3835 54.4718L75.3869 54.4714L75.3879 54.4711L75.3911 54.4705L75.3924 54.4703L75.3958 54.4698H75.3969L75.4 54.4692L75.4015 54.4687L75.4047 54.4682H75.406L75.4091 54.4677L75.4104 54.4674L75.4139 54.4669L75.4149 54.4666L75.4185 54.4661L75.4193 54.4659L75.4235 54.465H75.4238L75.4277 54.4645L75.4282 54.4643L75.4327 54.4635L75.4369 54.4627H75.4372L75.4416 54.4619C75.4536 54.4598 75.4659 54.4575 75.4777 54.4551L75.4821 54.4544H75.4823L75.4865 54.4536H75.4869L75.491 54.4525H75.4915L75.4955 54.4518L75.496 54.4515L75.4999 54.4509L75.5007 54.4507L75.5043 54.4499L75.5054 54.4496L75.5088 54.4489L75.5098 54.4486L75.5133 54.4481L75.5143 54.4478L75.5177 54.447H75.5188L75.5224 54.4463L75.5232 54.446L75.5266 54.4452L75.5276 54.4449L75.5313 54.4444L75.5321 54.4441L75.5358 54.4434L75.5365 54.4431L75.5402 54.4423L75.541 54.4421L75.5446 54.4412H75.5454L75.5491 54.4402H75.5496L75.5538 54.4394L75.554 54.4392C75.575 54.4347 75.5954 54.43 75.6163 54.4248H75.6165L75.6207 54.4237L75.6252 54.4227L75.6339 54.4206L75.6344 54.4203L75.6383 54.4195L75.6388 54.4193L75.6425 54.4185L75.6433 54.4183L75.6469 54.4172H75.6475L75.6513 54.4161L75.6519 54.4159L75.6559 54.4148H75.6563L75.6603 54.4138H75.6605L75.6647 54.4128L75.6649 54.4125L75.6691 54.4115C75.7102 54.4005 75.7508 54.3889 75.791 54.3764H75.7913C76.9645 54.0104 77.7866 52.9538 77.853 51.7267C77.8804 51.1873 77.4667 50.7269 76.9271 50.6979C76.9088 50.6969 76.8912 50.6966 76.8736 50.6966L76.8729 50.6955Z" fill="#5E7599"/>
<path d="M73.9363 74.1107H77.8567C78.9399 74.1107 79.8169 74.9884 79.8169 76.0711V77.2199C79.8169 77.7389 79.6108 78.2381 79.2429 78.606L76.4706 81.3784C76.1034 81.7455 75.6045 81.9524 75.0845 81.9524H73.9363C72.8536 81.9524 71.976 81.0746 71.976 79.9922V76.0711C71.976 74.9884 72.8536 74.1107 73.9363 74.1107Z" fill="#EFF2FD"/>
<path d="M61.1942 50.5867H63.1545C63.6958 50.5867 64.1348 51.0256 64.1348 51.5669C64.1348 52.1081 63.6958 52.547 63.1545 52.547H61.1942C60.6529 52.547 60.214 52.1081 60.214 51.5669C60.214 51.0256 60.6529 50.5867 61.1942 50.5867Z" fill="#CDD4DF"/>
<path d="M68.0552 44.7061H67.9935L67.9904 44.7063H67.9781L67.9749 44.7065H67.9686L67.9657 44.7068H67.9563L67.9532 44.707H67.9438L67.9409 44.7074H67.932L67.9286 44.7076H67.9226L67.9197 44.7079H67.9145L67.9103 44.7081H67.9077L67.9043 44.7083H67.9009L67.898 44.7086H67.8951L67.8917 44.7089H67.8891L67.8857 44.7092H67.8828L67.8797 44.7094H67.8765L67.8734 44.7097H67.8705L67.8671 44.7099H67.8645L67.8611 44.7102H67.8582L67.852 44.7107H67.8488L67.8459 44.711H67.8428L67.8399 44.7112L67.8365 44.7115H67.8336L67.8305 44.7118L67.8276 44.712H67.8242L67.8216 44.7123L67.8182 44.7125L67.8156 44.7128L67.8122 44.7131H67.8093L67.8064 44.7134L67.803 44.7136H67.8004L67.797 44.7138L67.7941 44.7141L67.7907 44.7144L67.7878 44.7147H67.7847L67.7813 44.7149L67.7774 44.7152L67.7727 44.7157H67.7703L67.7666 44.716L67.7638 44.7162L67.7607 44.7165L67.7572 44.7167L67.7546 44.717L67.7512 44.7173L67.7455 44.7178L67.7392 44.7183L67.7363 44.7186L67.7332 44.7189L67.7303 44.7191L67.724 44.7196L67.7211 44.7199L67.7149 44.7204L67.712 44.7207L67.7088 44.7209L67.7059 44.7212L67.7026 44.7215L67.7 44.7217L67.6905 44.7225L67.6848 44.723L67.6753 44.7238L67.6725 44.7241L67.6694 44.7246L67.6665 44.7248L67.6639 44.7251L67.6602 44.7254L67.6581 44.7257L67.6542 44.7259H67.6534L67.6482 44.7267H67.6469C67.6401 44.7275 67.6333 44.728 67.6262 44.7288L67.6207 44.7296L67.6183 44.7298L67.6147 44.7301L67.6124 44.7303L67.6087 44.7309L67.6063 44.7312L67.6029 44.7314L67.6 44.7319L67.5943 44.7325L67.5911 44.733L67.5882 44.7332L67.5851 44.7335L67.582 44.734L67.5791 44.7343L67.576 44.7345L67.5731 44.7351L67.5699 44.7353L67.5671 44.7358L67.5642 44.7361L67.5608 44.7364L67.5585 44.7369L67.555 44.7371L67.5521 44.7377L67.549 44.738L67.5461 44.7385L67.543 44.7387L67.5404 44.739L67.537 44.7395L67.5344 44.7398L67.531 44.7403L67.5283 44.7406L67.5252 44.7411L67.5224 44.7413L67.5192 44.7419L67.5169 44.7422L67.5132 44.7426L67.5119 44.7429C67.5069 44.7435 67.5019 44.7442 67.4969 44.745L67.4954 44.7453L67.4918 44.7458L67.4894 44.7461L67.486 44.7466L67.4834 44.7468L67.4799 44.7473L67.4776 44.7479L67.474 44.7484L67.4716 44.7486L67.4679 44.7492L67.4656 44.7494L67.4619 44.7499L67.4599 44.7505L67.4559 44.751L67.4538 44.7512L67.4502 44.7518L67.448 44.7521L67.4444 44.7526L67.4421 44.7531L67.4386 44.7536L67.436 44.7539L67.4326 44.7544L67.4302 44.7549L67.4266 44.7554L67.4242 44.7557L67.4205 44.7563L67.4185 44.7567L67.4146 44.7573L67.4125 44.7576L67.4086 44.7583L67.4031 44.7591L67.4007 44.7596L67.397 44.7602L67.395 44.7607L67.3913 44.7612L67.3889 44.7615L67.385 44.7622H67.3842L67.3792 44.7633H67.3787C67.3696 44.7649 67.3604 44.7664 67.3512 44.7683H67.3502L67.3463 44.7691L67.3442 44.7696L67.34 44.7701L67.3384 44.7704L67.3345 44.7712L67.3325 44.7717L67.3288 44.7725L67.3267 44.7727L67.323 44.7735L67.3209 44.7738L67.317 44.7745L67.3151 44.7748L67.3112 44.7756L67.3092 44.7761L67.3055 44.7767L67.3034 44.7772L67.2997 44.778L67.2973 44.7782L67.2937 44.779L67.2916 44.7793L67.288 44.78L67.2859 44.7806L67.2819 44.7814L67.2804 44.7816L67.2762 44.7824L67.2746 44.7827L67.2702 44.7837H67.2694L67.2644 44.7848H67.2639C67.2469 44.7884 67.2302 44.7919 67.2134 44.7955L67.2128 44.7957L67.2084 44.7965L67.2069 44.797L67.2027 44.7978L67.2011 44.7983L67.1969 44.7992L67.1954 44.7994L67.1912 44.8005L67.1896 44.8007L67.1854 44.8018L67.1838 44.802L67.1796 44.8031L67.1781 44.8033L67.1739 44.8044L67.1726 44.8047L67.1681 44.8057L67.1666 44.806L67.1624 44.807L67.1608 44.8073L67.1567 44.8083L67.1553 44.8086L67.1509 44.8096L67.1496 44.8099L67.1451 44.8109L67.1438 44.8115L67.1396 44.8125L67.138 44.8128L67.1328 44.8141L67.1281 44.8151L67.1274 44.8154C67.1087 44.8198 67.0905 44.8245 67.0719 44.8293H67.0713L67.0661 44.8308H67.0658L67.0606 44.8321L67.0601 44.8324L67.0551 44.8337H67.0546L67.0496 44.835L67.0486 44.8353L67.0439 44.8366L67.0431 44.8368L67.0381 44.8381L67.0376 44.8384L67.0326 44.8397L67.0319 44.8399L67.0271 44.8412L67.0264 44.8415L67.0214 44.8428L67.0209 44.8431L67.0156 44.8444H67.0154C66.9895 44.8517 66.9639 44.859 66.9382 44.8667H66.9377L66.9325 44.8682L66.9322 44.8685L66.9272 44.8698L66.9264 44.87L66.9215 44.8716H66.921L66.916 44.8731L66.9155 44.8734L66.9102 44.875L66.9047 44.8766L66.9045 44.8768C66.8642 44.8892 66.8242 44.9022 66.7844 44.9158H66.7841L66.7789 44.9176L66.7679 44.9213L66.7626 44.9231L66.7624 44.9234C66.0169 45.1845 65.3673 45.6645 64.8989 46.3005C64.8766 46.3305 64.8546 46.3611 64.8331 46.392C64.8128 46.4215 64.7929 46.4511 64.7733 46.4809V46.4812L64.7704 46.4853L64.7699 46.4859L64.7673 46.4901L64.767 46.4906L64.7641 46.4948L64.761 46.4995L64.7607 46.5003L64.7576 46.505L64.7547 46.5092V46.5097L64.7518 46.5139L64.7513 46.5144L64.7486 46.5188L64.7484 46.5194L64.7458 46.5236L64.7453 46.5243L64.7427 46.5285L64.7424 46.5288C64.7325 46.5443 64.7225 46.5602 64.7128 46.5759L64.7126 46.5767L64.7102 46.5803L64.7094 46.5817L64.7073 46.585L64.7063 46.5863L64.7042 46.59L64.7034 46.5913L64.7008 46.596L64.7 46.5976L64.6982 46.6004L64.6969 46.6026L64.6951 46.6054L64.6938 46.6075L64.6919 46.6104L64.6909 46.6123L64.689 46.6154L64.688 46.6175L64.6861 46.6204L64.6851 46.6224L64.6833 46.6253L64.6822 46.6272L64.6804 46.6303L64.6791 46.6321L64.6773 46.6353L64.6762 46.6374L64.6744 46.6402L64.6733 46.6424L64.6715 46.6452L64.6705 46.647L64.6686 46.6502L64.6676 46.652L64.6657 46.6552L64.6647 46.6567L64.6628 46.6601L64.6619 46.662C64.6587 46.6672 64.6555 46.6724 64.6524 46.6779L64.6514 46.68L64.6498 46.6823L64.6485 46.6849L64.6467 46.6881L64.6456 46.6899L64.6438 46.6933L64.6428 46.6949L64.6412 46.6978L64.6399 46.7001L64.6383 46.7027L64.637 46.7051L64.6354 46.7077L64.6341 46.7101L64.6328 46.7127L64.6315 46.715L64.6299 46.7179L64.6286 46.7203L64.627 46.7229L64.6257 46.7252L64.6241 46.7278L64.6215 46.7331L64.6199 46.7355L64.6173 46.7407L64.6158 46.743L64.6144 46.7456L64.6131 46.748L64.6116 46.7509L64.6103 46.7533L64.6087 46.7561L64.6074 46.7585L64.6061 46.7614L64.6048 46.7634L64.6032 46.7663L64.6019 46.7687L64.6003 46.7718L64.5993 46.7736L64.5972 46.7775L64.5964 46.7789L64.5909 46.7891L64.5904 46.7904L64.5883 46.7943L64.5875 46.7956L64.5857 46.7995L64.5847 46.8011L64.5828 46.8045L64.5818 46.8063L64.5802 46.8097L64.5792 46.8116L64.5774 46.815L64.5765 46.8165L64.5747 46.82L64.5721 46.8252L64.5711 46.827L64.5693 46.8304L64.5684 46.8323L64.5666 46.8359L64.5658 46.8372L64.564 46.8411L64.5629 46.8427L64.5611 46.8464L64.5603 46.8477L64.5585 46.8516L64.5551 46.8584L64.553 46.862L64.5525 46.8636L64.5504 46.8675L64.5499 46.8689L64.5478 46.873L64.5473 46.8739L64.5446 46.8791L64.5423 46.884L64.542 46.8843C64.535 46.8987 64.5281 46.9126 64.5213 46.9269L64.5211 46.9272L64.5161 46.9377L64.5158 46.9382L64.5135 46.9432L64.5106 46.9489L64.5085 46.9536L64.5057 46.9594L64.5033 46.9643L64.503 46.9649L64.5009 46.9696L64.5004 46.9703L64.4983 46.9753H64.498C64.4855 47.0026 64.4735 47.0295 64.4615 47.0567V47.057C64.4591 47.0625 64.4567 47.0677 64.4544 47.0732V47.0734L64.452 47.0787V47.0789C64.4489 47.0862 64.4458 47.0933 64.4426 47.1006V47.1009C64.2744 47.4988 64.1734 47.922 64.1439 48.3529C64.1085 48.8915 64.5151 49.3574 65.0534 49.3951C65.0767 49.3966 65.1 49.3974 65.123 49.3974C65.6373 49.3969 66.0637 48.9988 66.0998 48.4858C66.1757 47.4614 67.0279 46.6685 68.0552 46.6664C68.5964 46.6669 69.0356 46.2285 69.0364 45.6872C69.0369 45.146 68.5986 44.7068 68.0573 44.7061C68.0568 44.7061 68.056 44.7061 68.0552 44.7061Z" fill="#CDD4DF"/>
<path d="M74.3423 77.6252L75.4907 76.4771C76.0319 75.9359 76.9095 75.9359 77.4507 76.4771C77.9927 77.0183 77.9927 77.8961 77.4507 78.4373L76.3027 79.5854C75.7612 80.1273 74.8836 80.1273 74.3423 79.5854C73.8008 79.0442 73.8008 78.1671 74.3423 77.6252Z" fill="#EFF2FF"/>
<path d="M16.252 17V25H17.6426V19.4922H17.7168L19.9277 24.9766H20.9668L23.1777 19.5039H23.252V25H24.6426V17H22.8691L20.4941 22.7969H20.4004L18.0254 17H16.252Z" fill="white"/>
<path d="M28.7754 25.1172C30.5332 25.1172 31.6504 23.8789 31.6504 22.0234C31.6504 20.1641 30.5332 18.9219 28.7754 18.9219C27.0176 18.9219 25.9004 20.1641 25.9004 22.0234C25.9004 23.8789 27.0176 25.1172 28.7754 25.1172ZM28.7832 23.9844C27.8105 23.9844 27.334 23.1172 27.334 22.0195C27.334 20.9219 27.8105 20.043 28.7832 20.043C29.7402 20.043 30.2168 20.9219 30.2168 22.0195C30.2168 23.1172 29.7402 23.9844 28.7832 23.9844Z" fill="white"/>
<path d="M35.4678 25.1172C36.9756 25.1172 37.9365 24.2227 38.0381 22.9492H36.6865C36.5654 23.5938 36.1006 23.9648 35.4795 23.9648C34.5967 23.9648 34.0264 23.2266 34.0264 22C34.0264 20.7891 34.6084 20.0625 35.4795 20.0625C36.1592 20.0625 36.5771 20.5 36.6865 21.0781H38.0381C37.9404 19.7773 36.9248 18.9219 35.46 18.9219C33.7021 18.9219 32.5928 20.1914 32.5928 22.0234C32.5928 23.8398 33.6748 25.1172 35.4678 25.1172Z" fill="white"/>
<path d="M39.1992 25H40.6133V22.9844L41.1289 22.4336L42.9648 25H44.6562L42.1953 21.5898L44.5195 19H42.8672L40.7109 21.4102H40.6133V17H39.1992V25Z" fill="white"/>
<path d="M48.2529 25H53.4873V23.7852H49.7021V21.6016H53.1865V20.3867H49.7021V18.2148H53.4561V17H48.2529V25Z" fill="white"/>
<path d="M56.0283 19H54.5283L56.3096 22L54.4814 25H55.9814L57.2393 22.8398L58.5088 25H59.9971L58.1572 22L59.9658 19H58.4697L57.2393 21.2148L56.0283 19Z" fill="white"/>
<path d="M62.7646 25.1211C63.7061 25.1211 64.2686 24.6797 64.5264 24.1758H64.5732V25H65.9326V20.9844C65.9326 19.3984 64.6396 18.9219 63.4951 18.9219C62.2334 18.9219 61.2646 19.4844 60.9521 20.5781L62.2725 20.7656C62.4131 20.3555 62.8115 20.0039 63.5029 20.0039C64.1592 20.0039 64.5186 20.3398 64.5186 20.9297V20.9531C64.5186 21.3594 64.0928 21.3789 63.0342 21.4922C61.8701 21.6172 60.7568 21.9648 60.7568 23.3164C60.7568 24.4961 61.6201 25.1211 62.7646 25.1211ZM63.1318 24.082C62.542 24.082 62.1201 23.8125 62.1201 23.293C62.1201 22.75 62.5928 22.5234 63.2256 22.4336C63.5967 22.3828 64.3389 22.2891 64.5225 22.1406V22.8477C64.5225 23.5156 63.9834 24.082 63.1318 24.082Z" fill="white"/>
<path d="M67.3545 25H68.7686V21.3516C68.7686 20.6133 69.2607 20.1133 69.8701 20.1133C70.4678 20.1133 70.8779 20.5156 70.8779 21.1328V25H72.2646V21.2578C72.2646 20.582 72.667 20.1133 73.3506 20.1133C73.9209 20.1133 74.374 20.4492 74.374 21.1914V25H75.792V20.9727C75.792 19.6328 75.0186 18.9219 73.917 18.9219C73.0459 18.9219 72.3818 19.3516 72.1162 20.0195H72.0537C71.8232 19.3398 71.2412 18.9219 70.4326 18.9219C69.6279 18.9219 69.0264 19.3359 68.7764 20.0195H68.7061V19H67.3545V25Z" fill="white"/>
<path d="M81.9688 20.5859C81.7734 19.5703 80.9609 18.9219 79.5547 18.9219C78.1094 18.9219 77.125 19.6328 77.1289 20.7422C77.125 21.6172 77.6641 22.1953 78.8164 22.4336L79.8398 22.6484C80.3906 22.7695 80.6484 22.9922 80.6484 23.332C80.6484 23.7422 80.2031 24.0508 79.5312 24.0508C78.8828 24.0508 78.4609 23.7695 78.3398 23.2305L76.9609 23.3633C77.1367 24.4648 78.0625 25.1172 79.5352 25.1172C81.0352 25.1172 82.0938 24.3398 82.0977 23.2031C82.0938 22.3477 81.543 21.8242 80.4102 21.5781L79.3867 21.3594C78.7773 21.2227 78.5352 21.0117 78.5391 20.6641C78.5352 20.2578 78.9844 19.9766 79.5742 19.9766C80.2266 19.9766 80.5703 20.332 80.6797 20.7266L81.9688 20.5859Z" fill="white"/>
</svg>
