<svg width="34" height="34" viewBox="0 0 34 34" fill="none" xmlns="http://www.w3.org/2000/svg">
<rect width="34" height="34" rx="11" fill="#3300FF"/>
<path d="M24.7997 14.5753L23.0462 18.1616C22.6158 19.0418 22.3921 20.0087 22.3921 20.9886C22.3921 22.517 21.848 23.9955 20.8575 25.1595L19.7322 26.4818L6.73141 13.4811L8.05376 12.3558C9.21785 11.3652 10.6963 10.8212 12.2248 10.8212H12.8641C14.0503 10.8212 15.2135 10.4933 16.2253 9.87378L18.4133 8.5338C20.2115 7.50624 22.4749 7.80926 23.9394 9.27379C25.3373 10.6717 25.6838 12.8072 24.7997 14.5753Z" fill="#FFD700"/>
<path d="M20.9627 19.004C20.2027 19.0049 19.573 19.5935 19.5212 20.3517C19.5066 20.5633 19.4994 20.7755 19.4994 20.9885C19.4993 21.262 19.4676 21.5345 19.405 21.8008C19.2215 22.5782 19.703 23.3573 20.4804 23.5408C21.2578 23.7243 22.0369 23.2428 22.2204 22.4652C22.2211 22.462 22.222 22.4586 22.2227 22.4554L22.2229 22.4544L22.224 22.4498C22.2252 22.4444 22.2266 22.4388 22.2277 22.4333L22.2279 22.433C22.3105 22.0743 22.3622 21.709 22.3824 21.3414V21.3413C22.3824 21.3397 22.3825 21.3384 22.3825 21.337L22.3827 21.3366C22.3829 21.3308 22.3833 21.3251 22.3836 21.3193V21.3188C22.3838 21.3144 22.3841 21.31 22.3842 21.3056H22.3843L22.3845 21.302V21.3005L22.3847 21.297V21.2957C22.3849 21.2919 22.3851 21.2881 22.3852 21.2843L22.3854 21.2829L22.3855 21.2794L22.3856 21.2777C22.3858 21.274 22.3859 21.2704 22.386 21.2666L22.3861 21.265L22.3863 21.2618L22.3864 21.26L22.3865 21.2567V21.2553L22.3868 21.2491L22.3869 21.2472C22.3869 21.2463 22.387 21.2452 22.387 21.2443L22.3872 21.2419L22.3874 21.2365L22.3876 21.232L22.3877 21.2295V21.2266L22.3878 21.2244L22.3879 21.2215L22.3881 21.2192L22.3882 21.2143C22.3883 21.2135 22.3883 21.2126 22.3883 21.2118C22.3883 21.2109 22.3885 21.2099 22.3885 21.209L22.3886 21.2066V21.2038C22.3887 21.2029 22.3887 21.2022 22.3887 21.2014L22.3888 21.1965L22.389 21.1941L22.3891 21.1911C22.3891 21.1903 22.3891 21.1897 22.3891 21.1889L22.3892 21.1861L22.3894 21.1836C22.3894 21.1827 22.3894 21.1818 22.3894 21.1809L22.3895 21.1785C22.3895 21.1768 22.3896 21.1752 22.3896 21.1735C22.3896 21.1727 22.3896 21.1719 22.3897 21.1712V21.1685C22.3897 21.1676 22.3899 21.1668 22.3899 21.1659C22.3899 21.165 22.3899 21.1641 22.3899 21.1632L22.39 21.1604C22.39 21.1589 22.3901 21.1577 22.3901 21.1564L22.3903 21.1534V21.1508C22.3903 21.1499 22.3904 21.149 22.3904 21.1481C22.3904 21.1474 22.3904 21.1465 22.3904 21.1456C22.3905 21.1445 22.3905 21.1436 22.3905 21.1426L22.3906 21.1395V21.1355L22.3908 21.1335C22.3908 21.1324 22.3908 21.1313 22.3908 21.1302L22.3909 21.1281L22.391 21.1246V21.1228C22.391 21.1211 22.3912 21.1194 22.3912 21.1179V21.1158C22.3912 21.1147 22.3913 21.1137 22.3913 21.1125V21.1104L22.3914 21.107V21.105L22.3915 21.1V21.0985C22.3915 21.0972 22.3915 21.0959 22.3915 21.0946L22.3917 21.0928C22.3917 21.0915 22.3917 21.0904 22.3917 21.0892V21.0874L22.3918 21.0826V21.0808L22.3919 21.0771V21.0716L22.3921 21.0698C22.3921 21.0682 22.3921 21.0667 22.3921 21.0653V21.0644C22.3921 21.0627 22.3921 21.061 22.3922 21.0594V21.0523C22.3922 21.0507 22.3922 21.0493 22.3923 21.0478V21.0469C22.3923 21.0451 22.3923 21.0434 22.3923 21.0416V21.0401L22.3924 21.0364V21.0344C22.3924 21.0331 22.3924 21.0318 22.3924 21.0307V21.0291C22.3924 21.0273 22.3924 21.0256 22.3924 21.0238V21.0227C22.3924 21.0213 22.3924 21.02 22.3926 21.0186V21.0054C22.3926 21.0039 22.3926 21.0025 22.3926 21.0009V20.9801C22.3926 20.9787 22.3926 20.9771 22.3926 20.9757V20.9668C22.3926 20.9654 22.3927 20.9639 22.3927 20.9625V20.9605C22.3927 20.9585 22.3927 20.9563 22.3927 20.9542V20.9541C22.3927 20.9519 22.3927 20.9499 22.3927 20.9477V20.9457C22.3927 20.9443 22.3928 20.9428 22.3928 20.9414C22.3928 20.9406 22.3928 20.9398 22.3928 20.939C22.3928 20.9376 22.3928 20.9361 22.3928 20.9347V20.9326C22.3928 20.9311 22.3928 20.9295 22.393 20.928V20.926C22.393 20.9218 22.393 20.9176 22.3931 20.9132V20.9115C22.3931 20.91 22.3931 20.9084 22.3931 20.9067C22.3931 20.9061 22.3931 20.9053 22.3932 20.9047C22.3932 20.9033 22.3932 20.9019 22.3932 20.9004C22.3932 20.8995 22.3932 20.8988 22.3932 20.898C22.3932 20.8966 22.3933 20.895 22.3933 20.8938V20.8917C22.3935 20.8873 22.3935 20.8831 22.3936 20.8787V20.8773L22.3937 20.8724V20.8703L22.3939 20.8658V20.8638L22.394 20.8591V20.8573C22.3941 20.8553 22.3941 20.8532 22.3941 20.851V20.8509C22.3942 20.8488 22.3942 20.8467 22.3942 20.8445V20.8427C22.3944 20.8411 22.3944 20.8396 22.3944 20.838C22.3944 20.8374 22.3945 20.8366 22.3945 20.8359L22.3946 20.8316V20.8293C22.3946 20.8279 22.3948 20.8262 22.3948 20.8248V20.823L22.395 20.8171V20.8166L22.3951 20.8101L22.3953 20.8082C22.3953 20.8068 22.3953 20.8052 22.3954 20.8038V20.8014C22.3955 20.8001 22.3955 20.7985 22.3955 20.7971C22.3955 20.7965 22.3957 20.7957 22.3957 20.7949L22.3958 20.7906V20.7885L22.396 20.7827V20.7822C22.396 20.78 22.3962 20.7779 22.3962 20.7758L22.3963 20.7741C22.3963 20.7725 22.3964 20.7709 22.3964 20.7693V20.7673L22.3967 20.7629C22.3967 20.7621 22.3967 20.7614 22.3967 20.7606L22.3969 20.7562V20.7543C22.3971 20.7523 22.3971 20.7505 22.3972 20.7486V20.7478C22.3973 20.7457 22.3973 20.7436 22.3975 20.7414V20.7396L22.3977 20.7351V20.7327C22.3978 20.7314 22.398 20.73 22.398 20.7288C22.398 20.7279 22.398 20.727 22.3981 20.7261C22.3981 20.7248 22.3982 20.7235 22.3982 20.7222C22.3982 20.7213 22.3982 20.7206 22.3984 20.7198C22.3984 20.7181 22.3985 20.7166 22.3985 20.7149L22.3986 20.7134L22.3989 20.7072V20.7051L22.3991 20.7007L22.3993 20.6984C22.3993 20.697 22.3994 20.6957 22.3994 20.6943C22.3995 20.6935 22.3995 20.6926 22.3995 20.6917L22.3998 20.6879C22.3998 20.6871 22.3998 20.6862 22.3999 20.6854C22.3999 20.6839 22.4 20.6823 22.4 20.6808L22.4002 20.679C22.4003 20.6771 22.4003 20.6749 22.4004 20.6728L22.4005 20.6706L22.4008 20.6666L22.4009 20.6638C22.4011 20.6627 22.4011 20.6614 22.4011 20.6602C22.4012 20.6593 22.4012 20.6583 22.4012 20.6574L22.4015 20.6538L22.4016 20.651C22.4016 20.6498 22.4017 20.6485 22.4017 20.6473L22.4018 20.6439L22.4022 20.6387L22.4024 20.6358L22.4025 20.6324L22.4026 20.6292L22.4029 20.6262C22.4029 20.6251 22.403 20.6239 22.403 20.6228C22.403 20.6219 22.4031 20.621 22.4031 20.6201C22.4033 20.6189 22.4033 20.6178 22.4034 20.6165C22.4034 20.6156 22.4034 20.6147 22.4035 20.6138L22.4039 20.608C22.4039 20.6068 22.404 20.6057 22.404 20.6045L22.4042 20.6013L22.4044 20.5982C22.4044 20.5972 22.4045 20.596 22.4045 20.5949L22.4048 20.5919C22.4048 20.5907 22.4049 20.5897 22.4049 20.5885L22.4052 20.5857L22.4053 20.5822L22.4054 20.5794L22.406 20.5714L22.4061 20.5703C22.4062 20.569 22.4062 20.5678 22.4063 20.5665L22.4065 20.5641C22.4066 20.5628 22.4066 20.5617 22.4067 20.5604L22.4069 20.5578C22.407 20.5565 22.407 20.5553 22.4071 20.5542L22.4072 20.5515C22.4074 20.5507 22.4074 20.5499 22.4074 20.549C22.4619 19.7522 21.8601 19.0619 21.0633 19.0073C21.0633 19.0073 21.0633 19.0073 21.0631 19.0073C21.0296 19.005 20.9961 19.004 20.963 19.004H20.9627Z" fill="#FFBE00"/>
<path d="M23.7601 10.3722C22.9607 10.3724 22.3126 11.0207 22.3128 11.8202C22.3128 11.9284 22.3249 12.0361 22.349 12.1414C22.4371 12.5345 22.3847 12.9462 22.2011 13.3046L20.6257 16.5264C20.2745 17.2439 20.5714 18.1102 21.2888 18.4615C22.0063 18.8126 22.8725 18.5158 23.2238 17.7983C23.2239 17.7979 23.2242 17.7975 23.2243 17.7972C23.2243 17.7972 24.7532 14.6706 24.7987 14.5774V14.5773L24.7995 14.5759L24.7998 14.5752C24.8007 14.5734 24.8016 14.5716 24.8025 14.5698L24.8035 14.5679L24.8052 14.5644C24.8055 14.5637 24.8059 14.5629 24.8063 14.5621L24.8079 14.559L24.8091 14.5566L24.8106 14.5535L24.8146 14.5455L24.816 14.5426C24.8164 14.5417 24.8169 14.5408 24.8173 14.54L24.8187 14.5372L24.82 14.5345L24.8212 14.5316C24.8218 14.5309 24.8221 14.5298 24.8227 14.5289C24.823 14.528 24.8234 14.5273 24.8238 14.5264L24.8252 14.5235L24.826 14.5221L24.8292 14.5152L24.8319 14.5098C24.8323 14.509 24.8327 14.5082 24.8331 14.5074C24.8335 14.5063 24.834 14.5054 24.8345 14.5042L24.8372 14.4988L24.8382 14.4965C24.8387 14.4955 24.8393 14.4943 24.8398 14.4933L24.8408 14.4912C24.8413 14.4899 24.8418 14.4889 24.8423 14.4878L24.8432 14.4858L24.845 14.4823L24.8458 14.4805C24.8463 14.4794 24.847 14.478 24.8476 14.4768L24.8481 14.4755C24.8512 14.4691 24.8542 14.4628 24.8571 14.4564L24.8575 14.4556C24.8582 14.4542 24.8588 14.453 24.8593 14.4516L24.8601 14.4502C24.8607 14.4488 24.8613 14.4476 24.8619 14.4462L24.8625 14.4448L24.8643 14.4409L24.8651 14.4392C24.8656 14.438 24.8663 14.4367 24.8669 14.4354L24.8676 14.434L24.8694 14.43L24.87 14.4286C24.8707 14.4273 24.8712 14.4259 24.8718 14.4246L24.8723 14.4235C24.8761 14.4152 24.8799 14.4068 24.8836 14.3985L24.8838 14.3981L24.8858 14.3936L24.8862 14.3927C24.8869 14.3913 24.8875 14.3897 24.8882 14.3883L24.8887 14.3873L24.8906 14.3829L24.8911 14.3817L24.8929 14.3775L24.8933 14.3766L24.8954 14.3721L24.8956 14.3714C24.9009 14.3593 24.9062 14.3474 24.9113 14.3353L24.9114 14.3349C24.9122 14.3332 24.9129 14.3317 24.9136 14.3301L24.9138 14.3295C24.9145 14.3279 24.9152 14.3263 24.9158 14.3247L24.9161 14.3242L24.9181 14.3193L24.9183 14.3192C25.1506 13.7735 25.2749 13.1878 25.2842 12.5948V12.5892C25.2845 12.5745 25.2846 12.5598 25.2847 12.5452V12.5448C25.2847 12.543 25.2847 12.5415 25.2847 12.5397V12.5335C25.2847 12.5317 25.2847 12.5302 25.2847 12.5285V12.528C25.2847 12.5154 25.2847 12.5026 25.2846 12.49V12.4894C25.2846 12.4877 25.2846 12.4863 25.2846 12.4845V12.4837C25.2846 12.4822 25.2845 12.4806 25.2845 12.4789V12.478C25.2845 12.4764 25.2845 12.4748 25.2845 12.4733V12.4726C25.2845 12.4708 25.2843 12.4693 25.2843 12.4676V12.4671C25.2842 12.4563 25.2841 12.4454 25.2838 12.4346V12.4294L25.2837 12.4285V12.424L25.2836 12.4227C25.2836 12.4212 25.2836 12.4199 25.2834 12.4182V12.4172L25.2833 12.4126V12.4114C25.2833 12.41 25.2832 12.4084 25.2832 12.4069V12.4059C25.283 12.4042 25.283 12.4028 25.283 12.4012V12.4006C25.2828 12.3935 25.2825 12.3867 25.2824 12.3795V12.379C25.2823 12.3774 25.2823 12.3759 25.2823 12.3743L25.2821 12.3732C25.2821 12.3718 25.2821 12.3702 25.282 12.3689V12.3675C25.282 12.366 25.2819 12.3647 25.2819 12.3633L25.2818 12.3617L25.2816 12.3576V12.3559C25.2815 12.3547 25.2815 12.3532 25.2815 12.3519L25.2814 12.3503L25.2812 12.3462V12.3449L25.281 12.3404V12.3401C25.2809 12.3347 25.2806 12.3293 25.2803 12.3239V12.3238L25.2801 12.3194V12.318L25.28 12.3141L25.2798 12.3121L25.2797 12.3085L25.2796 12.3064C25.2794 12.3051 25.2794 12.304 25.2794 12.3027L25.2793 12.3006L25.2791 12.297L25.2789 12.2949L25.2788 12.2912L25.2787 12.2892C25.2787 12.2879 25.2785 12.2867 25.2785 12.2854L25.2784 12.2839C25.2783 12.2825 25.2783 12.2811 25.2782 12.2796V12.2795C25.2779 12.2742 25.2776 12.2695 25.2774 12.2642L25.2773 12.2629C25.2771 12.2616 25.2771 12.2603 25.277 12.259V12.2571L25.2767 12.2534L25.2766 12.2513L25.2764 12.2477L25.2762 12.2455L25.276 12.2421L25.2758 12.2396L25.2757 12.2364C25.2756 12.2355 25.2756 12.2346 25.2756 12.2338C25.2755 12.2328 25.2755 12.2316 25.2753 12.2305L25.2752 12.228L25.2749 12.2248L25.2748 12.2222L25.2746 12.219V12.2183L25.274 12.2107C25.274 12.2098 25.2739 12.2086 25.2739 12.2077L25.2737 12.2049C25.2737 12.204 25.2735 12.2028 25.2735 12.2019C25.2734 12.201 25.2734 12.2 25.2733 12.1991C25.2731 12.1981 25.2731 12.1972 25.2731 12.1961C25.273 12.1951 25.273 12.1943 25.2729 12.1933L25.2726 12.1902L25.2725 12.1875C25.2724 12.1865 25.2724 12.1853 25.2722 12.1844C25.2722 12.1834 25.2721 12.1826 25.2721 12.1817L25.2718 12.1784L25.2716 12.1759L25.2715 12.1727L25.2712 12.17L25.2709 12.1665L25.2708 12.1643C25.2707 12.1627 25.2706 12.161 25.2704 12.1593L25.2703 12.1586C25.2702 12.1566 25.27 12.1546 25.2698 12.1526V12.1516C25.2697 12.1501 25.2695 12.1484 25.2694 12.1468L25.2691 12.145L25.2689 12.1409L25.2688 12.1391L25.2684 12.135L25.2682 12.1332C25.2681 12.1318 25.268 12.1305 25.2679 12.1292L25.2677 12.1273L25.2673 12.1233L25.2672 12.1212C25.2671 12.12 25.267 12.1185 25.2668 12.1173L25.2667 12.1156L25.2663 12.1111L25.2662 12.1097C25.2661 12.1079 25.2658 12.1059 25.2657 12.1041V12.1039C25.2653 12.0999 25.2649 12.0958 25.2645 12.0918C25.2644 12.0898 25.2641 12.0879 25.264 12.086L25.2639 12.0848L25.2635 12.0801L25.2634 12.0787L25.2628 12.0743L25.2627 12.0726L25.2623 12.0682L25.2622 12.0668L25.2618 12.0623L25.2617 12.0609L25.2612 12.0561L25.261 12.0551C25.2609 12.0532 25.2607 12.0512 25.2604 12.0494V12.0493C25.2596 12.0412 25.2587 12.0332 25.2578 12.0253V12.0245C25.2576 12.0228 25.2574 12.021 25.2572 12.0193V12.0184C25.2569 12.0166 25.2567 12.0151 25.2565 12.0134L25.2564 12.0124C25.2563 12.0107 25.256 12.009 25.2559 12.0072L25.2558 12.0065L25.2551 12.0012V12.0006C25.2549 11.9986 25.2546 11.9967 25.2544 11.9948C25.2529 11.9827 25.2515 11.9706 25.2501 11.9585V11.9583C25.2498 11.9564 25.2496 11.9545 25.2493 11.9526V11.9523C25.2491 11.9502 25.2488 11.9483 25.2486 11.9464C25.2295 11.7952 25.2029 11.6452 25.1689 11.4964C25.0184 10.8392 24.4342 10.373 23.7601 10.3722Z" fill="#FFBE00"/>
<path d="M27.2132 7.92852C27.2132 8.99365 26.3498 9.85703 25.2847 9.85703C24.2197 9.85703 23.3563 8.99365 23.3563 7.92852C23.3563 6.86351 24.2197 6 25.2847 6C26.3498 6 27.2132 6.86351 27.2132 7.92852Z" fill="#FFD700"/>
<path d="M25.2847 9.37492C25.2847 9.64114 25.0689 9.85705 24.8026 9.85705C24.5364 9.85705 24.3206 9.64114 24.3206 9.37492C24.3206 9.1087 24.5364 8.89279 24.8026 8.89279C25.0689 8.89279 25.2847 9.1087 25.2847 9.37492Z" fill="#FFBE00"/>
<path d="M26.249 7.92852C26.249 8.46109 25.8173 8.89278 25.2847 8.89278C24.7522 8.89278 24.3205 8.46109 24.3205 7.92852C24.3205 7.39595 24.7522 6.96426 25.2847 6.96426C25.8173 6.96426 26.249 7.39595 26.249 7.92852Z" fill="white"/>
<path d="M23.556 8.69309L24.1208 8.12822C24.3871 7.862 24.8188 7.862 25.085 8.12822C25.3514 8.39457 25.3514 8.82626 25.085 9.09248L24.5203 9.65735C24.2539 9.92356 23.8222 9.92356 23.556 9.65735C23.2897 9.391 23.2897 8.95931 23.556 8.69309Z" fill="#FFEA21"/>
<path d="M12.4483 11.7866C11.9157 11.7863 11.4836 12.2179 11.4834 12.7505C11.4832 13.1209 11.6953 13.4588 12.0289 13.6196C13.4358 14.2977 14.8789 15.3365 16.2022 16.6237C16.584 16.9949 17.1945 16.9864 17.5658 16.6047C17.9363 16.2234 17.9285 15.6142 17.5483 15.2427C16.267 13.9961 14.9023 12.9771 13.5458 12.2327L13.5452 12.2323C13.5421 12.2306 13.5394 12.2292 13.5364 12.2275L13.5362 12.2274C13.5336 12.226 13.5308 12.2245 13.5282 12.223L13.5268 12.2223L13.5189 12.218L13.5178 12.2174C13.5153 12.216 13.5129 12.2147 13.5104 12.2133L13.5083 12.2121L13.5013 12.2084L13.4991 12.2072L13.4926 12.2036L13.4895 12.2019C13.4877 12.2009 13.4852 12.1996 13.4833 12.1986L13.4806 12.1972L13.474 12.1936L13.4715 12.1922L13.4645 12.1884L13.4627 12.1875C13.4603 12.1861 13.4579 12.185 13.4555 12.1835L13.4532 12.1824L13.4465 12.1788L13.4437 12.1771C13.4417 12.1762 13.4395 12.1749 13.4377 12.174C13.4365 12.1732 13.4352 12.1726 13.4339 12.172L13.4286 12.169L13.4244 12.1668L13.4196 12.1642C13.4177 12.1632 13.4161 12.1623 13.4143 12.1614L13.4103 12.1592C13.4085 12.1583 13.4067 12.1573 13.4049 12.1564L13.4012 12.1543C13.3993 12.1533 13.3975 12.1524 13.3957 12.1514L13.3919 12.1494L13.3865 12.1466L13.3828 12.1446C13.3809 12.1435 13.3791 12.1426 13.3771 12.1416L13.3737 12.1397C13.3717 12.1386 13.3698 12.1376 13.3679 12.1366L13.3647 12.1349L13.3585 12.1317L13.3555 12.1301C13.3535 12.129 13.3513 12.1278 13.3492 12.1267L13.3465 12.1253C13.3443 12.1242 13.342 12.1229 13.34 12.1218L13.3373 12.1205C13.3352 12.1193 13.333 12.1182 13.3308 12.117L13.3281 12.1156C13.3257 12.1143 13.3236 12.1133 13.3213 12.112L13.319 12.1108L13.3123 12.1072L13.3093 12.1057C13.3071 12.1045 13.305 12.1034 13.3028 12.1022L13.3001 12.1008L13.2931 12.0972L13.2911 12.096C13.2885 12.0948 13.2862 12.0936 13.2837 12.0922L13.2817 12.0913C13.2791 12.0899 13.2765 12.0886 13.2739 12.0872L13.2725 12.0864C13.2698 12.085 13.2671 12.0837 13.2646 12.0823L13.2633 12.0816C13.2607 12.0802 13.2579 12.0788 13.2553 12.0775L13.2539 12.0767L13.2462 12.0726L13.2446 12.072C13.242 12.0706 13.2395 12.0693 13.2369 12.0679L13.2355 12.0671L13.2275 12.063L13.2263 12.0625L13.2182 12.0582L13.2172 12.0577L13.2088 12.0535L13.2082 12.0531C13.2052 12.0515 13.2025 12.0501 13.1997 12.0487L13.1989 12.0483C13.196 12.0468 13.1934 12.0455 13.1904 12.0439L13.1897 12.0435C13.187 12.0421 13.184 12.0406 13.1813 12.0392L13.1804 12.0388C13.1774 12.0372 13.1747 12.0358 13.1719 12.0344L13.1713 12.0342C13.1683 12.0326 13.1655 12.0312 13.1626 12.0296L13.162 12.0294C13.159 12.0278 13.1561 12.0263 13.1531 12.0249L13.1529 12.0248L13.1439 12.0201H13.1437C13.0512 11.9729 12.9587 11.9271 12.8663 11.8826C12.736 11.8194 12.593 11.7867 12.4483 11.7866Z" fill="#FFEA21"/>
<path d="M16.397 16.8159C12.8071 13.226 8.47954 11.7329 6.73142 13.481C4.98317 15.2293 6.47627 19.5569 10.0662 23.1468C13.6562 26.7368 17.9838 28.2299 19.7319 26.4817C21.4802 24.7335 19.9871 20.406 16.397 16.8159Z" fill="#FFBE00"/>
<path d="M17.6961 26.249C15.7743 26.249 13.0472 24.7635 10.7478 22.4651C7.31933 19.036 6.23927 15.3374 7.41351 14.1626C7.711 13.8646 8.16675 13.7139 8.76752 13.7139C10.6893 13.7139 13.4164 15.1993 15.7159 17.4979C19.1443 20.9268 20.2244 24.6256 19.0501 25.8004C18.7526 26.0984 18.2969 26.249 17.6961 26.249Z" fill="#FFA300"/>
<path d="M19.4993 22.8741C19.4993 24.2055 18.4201 25.2848 17.0888 25.2848C15.7574 25.2848 14.6781 24.2055 14.6781 22.8741C14.6781 21.5429 15.7574 20.4636 17.0888 20.4636C18.4201 20.4636 19.4993 21.5429 19.4993 22.8741Z" fill="#F98B00"/>
<path d="M13.6484 19.5723C15.4764 21.3996 17.5685 22.6984 19.3175 23.16C18.8841 21.5392 17.6927 19.475 15.7159 17.4979C13.8878 15.6706 11.7958 14.372 10.0468 13.9102C10.4801 15.531 11.6715 17.5952 13.6484 19.5723Z" fill="#F98B00"/>
<path d="M20.4636 21.9099C20.4636 23.2412 19.3843 24.3205 18.053 24.3205C16.7217 24.3205 15.6424 23.2412 15.6424 21.9099C15.6424 20.5786 16.7217 19.4994 18.053 19.4994C19.3843 19.4994 20.4636 20.5786 20.4636 21.9099Z" fill="#FFEA21"/>
<path d="M18.5352 20.9457C18.5352 21.7445 17.8876 22.3921 17.0888 22.3921C16.29 22.3921 15.6424 21.7445 15.6424 20.9457C15.6424 20.147 16.29 19.4994 17.0888 19.4994C17.8876 19.4994 18.5352 20.147 18.5352 20.9457Z" fill="#FFFF9D"/>
<path d="M18.3087 10.4557L20.2561 9.09376C20.811 8.76089 21.5214 8.84825 21.9789 9.30594C22.5297 9.85665 22.5297 10.7496 21.9789 11.3003C21.9318 11.3476 21.8812 11.3913 21.828 11.4314L20.0024 12.9746C19.4869 13.3611 18.7838 13.3807 18.2477 13.0232C17.5493 12.5577 17.3607 11.6142 17.8262 10.9159C17.9509 10.7286 18.1157 10.5715 18.3087 10.4557Z" fill="#FFFF9D"/>
<path d="M25.2847 8.41066C25.2847 8.67688 25.0689 8.89279 24.8026 8.89279C24.5364 8.89279 24.3206 8.67688 24.3206 8.41066C24.3206 8.14444 24.5364 7.92853 24.8026 7.92853C25.0689 7.92853 25.2847 8.14444 25.2847 8.41066Z" fill="#FFFC74"/>
</svg>
