<svg width="42" height="42" viewBox="0 0 42 42" fill="none" xmlns="http://www.w3.org/2000/svg">
<path d="M42 35.4247C42 39.0561 39.0561 42 35.4247 42H6.57534C2.94386 42 0 39.0561 0 35.4247V8.54795L8.54795 0H35.4247C39.0561 0 42 2.94386 42 6.57534V35.4247Z" fill="#3300FF"/>
<path d="M0 8.54795H5.69868C7.26575 8.54795 8.54795 7.28762 8.54795 5.72055V0L0 8.54795Z" fill="#F98B00"/>
<path opacity="0.2" d="M0 13.1287V8.54794H4.55893L0 13.1287Z" fill="#F15D5D"/>
<path d="M7.06848 29.7708V16.0184H13.8754C14.5215 16.0184 15.0955 16.1241 15.5969 16.335C16.0982 16.5461 16.5137 16.8396 16.8436 17.2156C17.1732 17.5915 17.424 18.0401 17.5955 18.5611C17.7668 19.0824 17.8527 19.6593 17.8527 20.2925C17.8527 20.9257 17.7702 21.5194 17.6053 22.0734C17.4403 22.6274 17.1962 23.1058 16.8733 23.508C16.5498 23.9105 16.1378 24.2272 15.6366 24.4578C15.135 24.6889 14.5482 24.8041 13.8754 24.8041H9.30443V29.7709H7.06848V29.7708ZM9.30451 18.0763V22.7066H13.1038C13.9744 22.7066 14.6107 22.5121 15.0133 22.1228C15.4155 21.7339 15.6168 21.1235 15.6168 20.2924C15.6168 19.5009 15.4023 18.9339 14.9737 18.5906C14.5449 18.2478 13.9215 18.0762 13.1038 18.0762H9.30451V18.0763Z" fill="#5930FB"/>
<path d="M25.9064 16.3745L28.0633 15.7808V27.4951C28.0633 27.7459 28.0761 27.97 28.1027 28.1679C28.129 28.3658 28.1621 28.5507 28.2016 28.722C28.2543 28.8803 28.3136 29.0486 28.3798 29.2266C28.4456 29.4047 28.5312 29.5862 28.6369 29.7708H26.3614C26.2822 29.639 26.2031 29.4609 26.1239 29.2365C26.0709 28.999 26.0315 28.7882 26.0052 28.6033C25.6095 28.999 25.1574 29.3324 24.6497 29.6026C24.1417 29.8728 23.5975 30.0082 23.0173 30.0082C22.3311 30.0082 21.7277 29.896 21.2066 29.6718C20.6854 29.4477 20.247 29.1376 19.8908 28.7419C19.5347 28.3461 19.2676 27.8746 19.0894 27.327C18.9114 26.7798 18.8223 26.1892 18.8223 25.556V24.6062C18.8223 22.931 19.264 21.6711 20.1481 20.8267C21.0317 19.9826 22.318 19.5603 24.0066 19.5603C24.6529 19.5603 25.286 19.6858 25.9063 19.9363L25.9064 16.3745ZM25.9064 21.9349C25.616 21.7636 25.283 21.6449 24.9071 21.5786C24.5311 21.5128 24.178 21.4798 23.8484 21.4798C23.3207 21.4798 22.8754 21.5524 22.5128 21.6973C22.1498 21.8427 21.853 22.047 21.6223 22.3108C21.3913 22.5748 21.2266 22.8914 21.1275 23.2606C21.0286 23.6301 20.9791 24.0324 20.9791 24.4677V25.1998C20.9791 25.5693 21.0054 25.9289 21.0583 26.2783C21.1108 26.6279 21.2132 26.9347 21.365 27.1983C21.5164 27.4624 21.7243 27.6766 21.9882 27.8414C22.252 28.0065 22.5949 28.0888 23.0173 28.0888C23.2943 28.0888 23.5679 28.0427 23.8385 27.9502C24.1087 27.8581 24.3694 27.736 24.6202 27.5842C24.8706 27.4327 25.1049 27.2645 25.3225 27.0796C25.5401 26.895 25.7348 26.7036 25.9064 26.5058V21.9349Z" fill="#5930FB"/>
<path d="M30.8135 18.6896C30.8135 18.3205 30.863 17.9609 30.962 17.6112C31.0609 17.2618 31.2158 16.9517 31.4269 16.6812C31.6378 16.411 31.9149 16.1933 32.2579 16.0282C32.6008 15.8634 33.0098 15.7808 33.4849 15.7808C33.709 15.7808 33.9628 15.804 34.2466 15.8501C34.5303 15.8965 34.7775 15.9524 34.9888 16.0184V17.7201H34.1972C33.7881 17.7201 33.4815 17.8322 33.2772 18.0565C33.0725 18.2809 32.9705 18.5907 32.9705 18.9865V19.7978H34.89L34.3161 21.5786H32.9705V29.7708H30.8137V21.5786H29.5671V19.7978H30.8137V18.6896H30.8135Z" fill="#5930FB"/>
<path d="M7.06848 29.2776V15.5252H13.8754C14.5215 15.5252 15.0955 15.6309 15.5969 15.8418C16.0982 16.053 16.5137 16.3465 16.8436 16.7224C17.1732 17.0984 17.424 17.547 17.5955 18.068C17.7668 18.5892 17.8527 19.1661 17.8527 19.7993C17.8527 20.4325 17.7702 21.0262 17.6053 21.5802C17.4403 22.1342 17.1962 22.6126 16.8733 23.0149C16.5498 23.4173 16.1378 23.734 15.6366 23.9647C15.135 24.1957 14.5482 24.3109 13.8754 24.3109H9.30443V29.2777H7.06848V29.2776ZM9.30451 17.5831V22.2134H13.1038C13.9744 22.2134 14.6107 22.0189 15.0133 21.6297C15.4155 21.2407 15.6168 20.6304 15.6168 19.7993C15.6168 19.0078 15.4023 18.4407 14.9737 18.0975C14.5449 17.7547 13.9215 17.583 13.1038 17.583H9.30451V17.5831Z" fill="white"/>
<path d="M25.9064 15.8813L28.0633 15.2877V27.002C28.0633 27.2527 28.0761 27.4769 28.1027 27.6748C28.129 27.8726 28.1621 28.0576 28.2016 28.2288C28.2543 28.3871 28.3136 28.5554 28.3798 28.7334C28.4456 28.9115 28.5312 29.093 28.6369 29.2776H26.3614C26.2822 29.1459 26.2031 28.9677 26.1239 28.7434C26.0709 28.5058 26.0315 28.295 26.0052 28.1102C25.6095 28.5058 25.1574 28.8392 24.6497 29.1094C24.1417 29.3796 23.5975 29.5151 23.0173 29.5151C22.3311 29.5151 21.7277 29.4029 21.2066 29.1786C20.6854 28.9545 20.247 28.6444 19.8908 28.2487C19.5347 27.853 19.2676 27.3814 19.0894 26.8339C18.9114 26.2866 18.8223 25.696 18.8223 25.0628V24.113C18.8223 22.4379 19.264 21.1779 20.1481 20.3336C21.0317 19.4895 22.318 19.0672 24.0066 19.0672C24.6529 19.0672 25.286 19.1927 25.9063 19.4431L25.9064 15.8813ZM25.9064 21.4417C25.616 21.2704 25.283 21.1517 24.9071 21.0855C24.5311 21.0196 24.178 20.9866 23.8484 20.9866C23.3207 20.9866 22.8754 21.0592 22.5128 21.2042C22.1498 21.3496 21.853 21.5539 21.6223 21.8176C21.3913 22.0816 21.2266 22.3982 21.1275 22.7674C21.0286 23.1369 20.9791 23.5392 20.9791 23.9745V24.7067C20.9791 25.0761 21.0054 25.4357 21.0583 25.7851C21.1108 26.1348 21.2132 26.4415 21.365 26.7052C21.5164 26.9692 21.7243 27.1834 21.9882 27.3482C22.252 27.5134 22.5949 27.5956 23.0173 27.5956C23.2943 27.5956 23.5679 27.5495 23.8385 27.4571C24.1087 27.3649 24.3694 27.2429 24.6202 27.0911C24.8706 26.9395 25.1049 26.7713 25.3225 26.5864C25.5401 26.4018 25.7348 26.2105 25.9064 26.0126V21.4417Z" fill="white"/>
<path d="M30.8135 18.1964C30.8135 17.8273 30.863 17.4677 30.962 17.118C31.0609 16.7687 31.2158 16.4586 31.4269 16.188C31.6378 15.9178 31.9149 15.7001 32.2579 15.5351C32.6008 15.3703 33.0098 15.2877 33.4849 15.2877C33.709 15.2877 33.9628 15.3108 34.2466 15.3569C34.5303 15.4033 34.7775 15.4593 34.9888 15.5252V17.2269H34.1972C33.7881 17.2269 33.4815 17.3391 33.2772 17.5633C33.0725 17.7878 32.9705 18.0975 32.9705 18.4933V19.3046H34.89L34.3161 21.0855H32.9705V29.2776H30.8137V21.0855H29.5671V19.3046H30.8137V18.1964H30.8135Z" fill="white"/>
</svg>
