<svg width="30" height="30" viewBox="0 0 30 30" fill="none" xmlns="http://www.w3.org/2000/svg">
<path d="M15.4251 29.15C21.0507 29.15 25.6273 22.6117 25.6273 14.575C25.6273 6.53835 21.0507 0 15.4251 0C14.6201 0.000530439 13.9679 0.59409 13.9685 1.32592C13.9691 2.05704 14.6208 2.64953 15.4251 2.65006C19.3071 2.65006 22.7124 8.22231 22.7124 14.575C22.7124 20.9275 19.3071 26.4999 15.4251 26.4999C14.6201 26.4999 13.9675 27.0931 13.9675 27.825C13.9675 28.5568 14.6201 29.15 15.4251 29.15Z" fill="#163969"/>
<path d="M19.7982 27.3119C20.1819 27.3124 20.5505 27.1747 20.823 26.9289C23.7862 24.2647 25.6273 19.5309 25.6273 14.575C25.6273 9.6193 23.7862 4.88533 20.823 2.22112C20.251 1.70624 19.3281 1.71049 18.7619 2.23049C18.1958 2.7505 18.2004 3.58947 18.7724 4.10417C18.7726 4.10435 18.773 4.1047 18.7734 4.10506C21.203 6.28993 22.7124 10.3018 22.7124 14.575C22.7124 18.8482 21.203 22.8601 18.7734 25.0449C18.2012 25.5595 18.1962 26.3984 18.7621 26.9188C19.036 27.1702 19.409 27.3119 19.7982 27.3119Z" fill="#002755"/>
<path d="M20.8756 25.186C24.5599 25.186 27.6278 24.0138 29.1045 21.7073C29.5095 21.0748 29.2735 20.2638 28.5778 19.8956C27.8822 19.5277 26.99 19.742 26.5853 20.3744C24.6808 23.3474 17.7941 23.2406 11.8474 20.1448C7.86227 18.0699 4.85331 14.9696 3.99288 12.0524C3.73032 11.1616 3.56442 9.8695 4.26478 8.77556C4.66971 8.1431 4.43379 7.33206 3.7381 6.96394C3.04241 6.59599 2.15028 6.81029 1.74555 7.44275C0.79196 8.93204 0.595329 10.7636 1.17764 12.7383C2.2308 16.3127 5.76411 20.0316 10.3984 22.444C13.9255 24.2809 17.6383 25.186 20.8756 25.186Z" fill="#5E7599"/>
<path d="M9.5936 21.7499C10.3986 21.7506 11.0517 21.1581 11.0527 20.4263C11.0531 19.9878 10.8148 19.5774 10.4163 19.3302C6.9746 17.1952 4.47403 14.256 3.89173 11.6604C3.73108 10.9433 2.96128 10.4804 2.17243 10.6266C1.38358 10.7726 0.8744 11.4725 1.03524 12.1896C1.7747 15.4847 4.66755 18.9718 8.77383 21.5197C9.01519 21.6698 9.30109 21.7502 9.5936 21.7499Z" fill="#002755"/>
<path d="M18.342 24.9841C19.147 24.9832 19.7988 24.3892 19.7976 23.6573C19.7966 23.0063 19.2756 22.4524 18.5684 22.3503C16.7828 22.0929 14.9083 21.5462 13.1462 20.7684C12.4216 20.4494 11.5498 20.7251 11.199 21.3839C10.8485 22.0418 11.1506 22.8336 11.8739 23.1532C13.8437 24.0336 15.9455 24.645 18.1116 24.968C18.1878 24.9788 18.2648 24.9841 18.342 24.9841Z" fill="#163969"/>
<path d="M9.97445 25.186C13.2117 25.186 16.9244 24.2809 20.4515 22.4442C25.0858 20.0316 28.6191 16.3129 29.6724 12.7383C30.2546 10.7636 30.0581 8.93221 29.1045 7.44275C28.6996 6.81029 27.8075 6.59599 27.1118 6.96411C26.4161 7.33206 26.1804 8.1431 26.5851 8.77556C27.2855 9.86967 27.1196 11.1616 26.857 12.0524C25.9966 14.9696 22.9878 18.0701 19.0025 20.1448C13.0579 23.2413 6.16904 23.3493 4.26479 20.3745C3.85986 19.7422 2.96773 19.5277 2.27204 19.8958C1.57635 20.2638 1.34062 21.0748 1.74536 21.7073C3.22212 24.0131 6.2908 25.186 9.97445 25.186Z" fill="#33527D"/>
<path d="M26.3902 17.2251C26.8669 17.2254 27.3136 17.0141 27.5865 16.6589C28.7181 15.1877 29.4888 13.6421 29.8148 12.1903C29.9758 11.4732 29.467 10.773 28.6782 10.6266C27.8893 10.48 27.1193 10.9427 26.9581 11.6597C26.7113 12.7597 26.1027 13.9636 25.1968 15.1412C24.7357 15.7409 24.8969 16.567 25.5566 16.9862C25.8011 17.1414 26.092 17.2247 26.3902 17.2251Z" fill="#002755"/>
<path d="M9.94181 25.1756C10.3388 25.1756 10.7443 25.162 11.158 25.1349C11.9606 25.0815 12.5643 24.4473 12.5066 23.7174C12.4488 22.9868 11.7387 22.4557 10.9473 22.4914C9.5289 22.5832 8.19392 22.4778 7.09369 22.1822C6.32195 21.9741 5.51073 22.374 5.28181 23.0756C5.0527 23.7772 5.49284 24.5147 6.26457 24.7228C6.26516 24.723 6.26594 24.7231 6.26671 24.7235C7.38406 25.0243 8.61655 25.1756 9.94181 25.1756Z" fill="#002755"/>
<path d="M15.4251 29.15C16.2301 29.1493 16.8818 28.5554 16.881 27.8236C16.8802 27.093 16.2287 26.5008 15.4251 26.4999C11.543 26.4999 8.1377 20.9277 8.1377 14.575C8.1377 8.22248 11.5428 2.65006 15.4251 2.65006C16.2301 2.65006 16.8826 2.05686 16.8826 1.32503C16.8826 0.593206 16.2301 0 15.4251 0C9.79943 0 5.22268 6.53835 5.22268 14.575C5.22268 22.6117 9.79943 29.15 15.4251 29.15Z" fill="#163969"/>
<path d="M6.68014 15.9C7.48514 15.9 8.13765 15.3068 8.13765 14.575C8.13765 10.3018 9.64709 6.28993 12.0767 4.10506C12.6493 3.59071 12.6547 2.75191 12.0889 2.23137C11.5233 1.71084 10.6007 1.70589 10.0281 2.22023C10.0277 2.22041 10.0273 2.22077 10.0271 2.22112C7.06368 4.88533 5.22263 9.61913 5.22263 14.575C5.22263 15.3068 5.87514 15.9 6.68014 15.9Z" fill="#002755"/>
<path d="M27.8435 22.3659C28.3629 22.3666 28.8435 22.1155 29.1045 21.7073C30.0581 20.218 30.2546 18.3864 29.6724 16.4117C28.6191 12.8373 25.0858 9.11839 20.4515 6.70596C12.9107 2.77808 4.52035 3.10942 1.74555 7.44274C1.34062 8.0752 1.57654 8.88624 2.27223 9.25436C2.96792 9.62249 3.86005 9.40801 4.26479 8.77555C6.16924 5.80139 13.056 5.90889 19.0025 9.00523C22.9878 11.0801 25.9968 14.1804 26.8572 17.0976C27.1198 17.9885 27.2855 19.2805 26.5853 20.3744C26.1804 21.0071 26.4163 21.8181 27.1122 22.1861C27.3343 22.3036 27.5865 22.3655 27.8435 22.3659Z" fill="#5E7599"/>
<path d="M19.7256 9.18063C20.5304 9.18116 21.1837 8.58867 21.1844 7.85684C21.1848 7.38139 20.9052 6.94219 20.4514 6.70579C17.9991 5.42867 15.3318 4.55593 12.7385 4.18197C11.9432 4.06722 11.1964 4.56035 11.0704 5.28316C10.9441 6.00597 11.4864 6.68493 12.2815 6.79968C14.5296 7.12377 16.8539 7.88654 19.0025 9.00523C19.2224 9.12016 19.4718 9.18063 19.7256 9.18063Z" fill="#163969"/>
<path d="M11.0526 14.575C11.0526 16.7703 13.0102 18.5499 15.425 18.5499C17.8398 18.5499 19.7973 16.7703 19.7973 14.575C19.7973 12.3797 17.8398 10.6001 15.425 10.6001C13.0102 10.6001 11.0526 12.3797 11.0526 14.575Z" fill="#C776F6"/>
<path d="M15.425 10.6001H15.4505C15.46 10.6001 15.4696 10.6001 15.4793 10.6003H15.483C15.5042 10.6004 15.5252 10.601 15.5462 10.6015C16.3333 10.6268 16.9522 11.2216 16.9364 11.9373C16.9207 12.6656 16.2674 13.2489 15.4663 13.2501C15.4618 13.2501 15.4571 13.2501 15.4529 13.2501L15.425 13.25C15.3595 13.2494 15.2941 13.245 15.2294 13.2365C15.1679 13.2602 15.1049 13.28 15.0405 13.2958C14.2637 13.4892 13.8067 14.2184 14.0195 14.9246C14.2322 15.6306 15.0343 16.0463 15.8109 15.8528C16.219 15.7512 16.5583 15.4935 16.741 15.1466C17.0895 14.4871 17.9604 14.2094 18.6859 14.5264C19.4113 14.8434 19.7169 15.635 19.3681 16.2945C19.3269 16.3728 19.283 16.4494 19.2363 16.5247H19.2361C19.233 16.5298 19.2301 16.5346 19.2267 16.5397V16.5399C19.2213 16.5486 19.2157 16.5572 19.2102 16.5659C19.2022 16.5785 19.1943 16.5907 19.1863 16.603L19.1861 16.6032C19.1773 16.6168 19.1684 16.6303 19.1593 16.6437V16.6439C19.156 16.6487 19.1526 16.6534 19.1495 16.6582L19.1491 16.6589C19.1468 16.6623 19.1443 16.6658 19.1419 16.6693L19.1418 16.6695C19.1384 16.6745 19.1351 16.6791 19.1318 16.684V16.6842C19.1293 16.6877 19.1268 16.6913 19.1242 16.6948L19.1241 16.695C19.1207 16.6999 19.1174 16.7045 19.1141 16.7093L19.1139 16.7097C19.1081 16.718 19.1021 16.7265 19.0962 16.7348L19.096 16.7349C19.0935 16.7385 19.0912 16.742 19.0885 16.7456L19.0883 16.7457L19.0857 16.7493V16.7494C19.0832 16.753 19.0807 16.7563 19.0782 16.7597L19.0778 16.7604L19.0677 16.7742L19.0671 16.7751L19.0597 16.785L19.0593 16.7855L19.057 16.7889L19.049 16.7995L19.0488 16.7997C19.0463 16.8032 19.0437 16.8066 19.0412 16.8099L19.0408 16.8104L19.0383 16.8138C19.0356 16.8173 19.0332 16.8207 19.0305 16.8242L19.0301 16.8248C19.0276 16.8281 19.0251 16.8315 19.0225 16.8348L19.0221 16.8352L19.0196 16.8384L19.0192 16.8391L19.0116 16.8488L19.0111 16.8495L19.0087 16.8527V16.8529L19.0037 16.8592L19.0031 16.8601L19.0007 16.863L19 16.864C18.9976 16.8672 18.9951 16.8702 18.9928 16.8734L18.992 16.8743C18.9895 16.8775 18.9869 16.8806 18.9846 16.8838L18.9817 16.8874L18.9807 16.8886L18.9735 16.8978L18.9727 16.8988L18.9704 16.9017L18.9696 16.9027L18.9652 16.9084L18.9646 16.9089L18.9622 16.9119L18.9615 16.9128C18.9591 16.916 18.9566 16.919 18.9541 16.922L18.9533 16.9231L18.951 16.9259L18.9504 16.9268L18.9428 16.936L18.942 16.937L18.9344 16.9464L18.9338 16.9471L18.9313 16.9501L18.9307 16.9508L18.923 16.9602L18.9222 16.9611L18.9198 16.9641L18.9195 16.9646L18.9148 16.9701L18.9138 16.9712L18.9115 16.974L18.9107 16.9751L18.9033 16.9839L18.9021 16.9851L18.9 16.9878L18.899 16.9888L18.8948 16.994L18.8938 16.995L18.8918 16.9977L18.8903 16.9993L18.8883 17.0018L18.8881 17.0019L18.8833 17.0076L18.8821 17.009L18.8798 17.0117L18.8786 17.0131L18.8747 17.0177L18.8736 17.0189L18.8714 17.0216L18.8702 17.0228L18.8681 17.0254L18.8669 17.0265L18.8629 17.0315L18.8617 17.0327L18.8595 17.0352L18.8584 17.0366L18.8543 17.0412L18.8531 17.0424L18.851 17.0449L18.8498 17.0463L18.8475 17.0488L18.8463 17.0504L18.8426 17.0544L18.8413 17.056L18.8391 17.0585L18.8378 17.0599C18.8352 17.0628 18.8329 17.0656 18.8304 17.0684L18.8294 17.0695L18.8269 17.0723L18.8261 17.0732L18.8218 17.078L18.8205 17.0794L18.8183 17.0818L18.8171 17.0831C18.8146 17.0861 18.8123 17.0887 18.8096 17.0916L18.8084 17.093L18.8061 17.0955L18.8051 17.0965L18.8004 17.1017L18.7996 17.1025L18.7975 17.105L18.7961 17.1066L18.7938 17.1089L18.7932 17.1098L18.7886 17.1147L18.7874 17.1162L18.7853 17.1184L18.7839 17.12L18.78 17.1243L18.7786 17.1257L18.7765 17.128L18.7749 17.1298L18.773 17.1319L18.7711 17.1338L18.7677 17.1375L18.7662 17.1391L18.7641 17.1414L18.7625 17.143L18.7594 17.1464L18.7574 17.1487L18.7553 17.1508L18.7537 17.1526L18.7518 17.1547L18.7497 17.1568L18.7448 17.1621L18.7429 17.1641L18.7411 17.166L18.7392 17.1681L18.736 17.1715L18.7339 17.1736L18.7324 17.1752L18.7302 17.1775L18.7283 17.1795L18.7257 17.1823L18.7232 17.1848L18.7215 17.1865L18.7193 17.1888L18.7178 17.1906L18.7143 17.1941L18.7127 17.1957L18.7104 17.1982L18.7088 17.1998L18.7065 17.2023L18.7047 17.204L18.7014 17.2074L18.6999 17.209L18.6975 17.2113L18.6958 17.213L18.6929 17.2162L18.6909 17.2182L18.6888 17.2205L18.6868 17.2222L18.6845 17.2247L18.6831 17.2261L18.6779 17.2314L18.6758 17.2336L18.674 17.2353L18.6717 17.2378L18.6688 17.2408L18.6668 17.2426L18.6649 17.2447L18.6631 17.2465L18.661 17.2486L18.6577 17.2518L18.6518 17.2576L18.6495 17.2599L18.647 17.2624L18.6446 17.2647L18.6388 17.2705L18.6355 17.2739L18.6336 17.2756L18.6297 17.2795L18.6275 17.2815L18.6248 17.2843L18.6223 17.2868L18.6205 17.2885L18.6164 17.2923L18.6131 17.2954L18.6112 17.2972L18.609 17.2995L18.6071 17.3013L18.6048 17.3036L18.6032 17.305L18.5997 17.3085L18.598 17.3101L18.5956 17.3124L18.5939 17.314L18.5915 17.3163L18.5884 17.3193L18.5865 17.3211L18.5845 17.323L18.5822 17.325L18.5805 17.3267L18.577 17.3301L18.575 17.3317L18.5729 17.3338L18.5711 17.3356L18.5684 17.3381L18.5661 17.3403L18.5635 17.3426L18.5616 17.3446L18.5594 17.3465L18.5577 17.3483L18.5542 17.3515L18.5521 17.3533L18.5499 17.3554L18.5482 17.357L18.5454 17.3596L18.5363 17.3679L18.5346 17.3697L18.5293 17.3745L18.5268 17.3766L18.5225 17.3805L18.5206 17.3824L18.4939 17.4067L18.4925 17.4077L18.4834 17.416L18.4801 17.4189L18.4743 17.4242L18.4704 17.4275L18.4688 17.4288L18.4614 17.4355L18.4597 17.4367L18.4564 17.4397L18.455 17.4411L18.4521 17.4436L18.4507 17.4447L18.4466 17.4482L18.4453 17.4494L18.4424 17.4519L18.4408 17.4533L18.4373 17.4562L18.4367 17.4569L18.4326 17.4604L18.4313 17.4616L18.4282 17.4643L18.4268 17.4654L18.4227 17.4689L18.4216 17.4698L18.4184 17.4724L18.4169 17.4738L18.4138 17.4765L18.4126 17.4774L18.4085 17.4809L18.4074 17.482L18.4042 17.4845L18.4027 17.4859L18.3986 17.4892L18.3978 17.4899L18.3943 17.4929L18.393 17.494L18.3897 17.4968L18.3887 17.4977L18.3844 17.5012L18.3832 17.5021L18.3799 17.505L18.3788 17.506L18.3747 17.5094L18.3741 17.5099L18.3702 17.5131L18.3687 17.5143L18.3657 17.5168L18.3642 17.518L18.3601 17.5214L18.3589 17.5225L18.3558 17.5249L18.3545 17.5262L18.3504 17.5295L18.3502 17.5297L18.3457 17.5333L18.3445 17.5343L18.341 17.5371L18.3401 17.5378L18.3356 17.5414L18.3348 17.5421L18.3313 17.5451L18.33 17.5462L18.3263 17.5492L18.3257 17.5497L18.3212 17.5532L18.3165 17.5568L18.3156 17.5578L18.3111 17.5614H18.3109L18.3066 17.5647L18.3053 17.5658L18.3016 17.5688L18.301 17.5693L18.2963 17.5729L18.2955 17.5736L18.2918 17.5766L18.2909 17.5773L18.2864 17.5808L18.286 17.5812L18.2817 17.5845L18.2807 17.5852L18.2769 17.5884L18.2761 17.5889L18.2714 17.5925L18.271 17.5928L18.2667 17.5962L18.266 17.5969C18.2629 17.5992 18.2599 17.6015 18.2568 17.604L18.2558 17.6047L18.252 17.6077L18.251 17.6084L18.2465 17.6119L18.2459 17.6125L18.2418 17.6155L18.2409 17.6162L18.2364 17.6197H18.2362L18.2315 17.6232L18.2308 17.624L18.2269 17.6268L18.2259 17.6277L18.2212 17.631L18.2208 17.6314L18.2168 17.6346L18.2156 17.6354L18.2115 17.6385L18.2109 17.6388L18.2064 17.6423L18.2006 17.6468L18.1959 17.6501V17.6503L18.1915 17.6535L18.1903 17.6544L18.1864 17.6572L18.1856 17.6579L18.181 17.6614L18.1804 17.6618L18.1763 17.6648L18.1751 17.6657C18.172 17.668 18.1691 17.6701 18.1658 17.6724L18.1648 17.6733L18.1607 17.6761L18.1602 17.6766L18.1553 17.6802L18.1551 17.6804L18.1504 17.6837L18.1499 17.6842C18.1465 17.6865 18.1432 17.6888 18.1399 17.6911L18.1395 17.6917L18.1351 17.6947L18.1345 17.6952L18.1296 17.6987H18.1294L18.125 17.7021L18.1238 17.7028L18.1193 17.7062H18.1191L18.1143 17.7097L18.1135 17.7102L18.1092 17.7132L18.1086 17.7138L18.1036 17.7173L18.0987 17.7207L18.0981 17.7212L18.0933 17.7246L18.0882 17.7281L18.0878 17.7285L18.0833 17.7315L18.0826 17.7322C18.0793 17.7343 18.0761 17.7366 18.0728 17.7389L18.0719 17.7394L18.0676 17.7426L18.0672 17.7428L18.0619 17.7463L18.0617 17.7465L18.0571 17.7497L18.0565 17.7502L18.0464 17.7569L18.0458 17.7575L18.0413 17.7605L18.0407 17.761C18.0374 17.7631 18.0339 17.7654 18.0306 17.7677L18.03 17.7681L18.0199 17.7748L18.0193 17.7753L18.0149 17.7783L18.0143 17.7787L18.0042 17.7854L18.0036 17.7857L17.9985 17.7891L17.9933 17.7925L17.9929 17.7928L17.9882 17.7958L17.9876 17.7962L17.9775 17.8029L17.977 17.8032C17.9734 17.8055 17.9701 17.8077 17.9666 17.81L17.9664 17.8101L17.9616 17.8133L17.961 17.8137L17.9509 17.8202L17.9501 17.8207L17.9454 17.8238L17.9451 17.8239C17.9416 17.8262 17.9382 17.8284 17.9347 17.8305L17.934 17.831L17.9237 17.8375L17.9233 17.8377L17.9182 17.8411L17.9075 17.8478L17.9073 17.848L17.8966 17.8545L17.8964 17.8547L17.8914 17.8579L17.891 17.8582C17.8875 17.8604 17.884 17.8625 17.8805 17.8646L17.8801 17.865L17.8748 17.8681L17.8696 17.8715L17.869 17.8718L17.8641 17.8747L17.8638 17.875L17.8533 17.8814L17.8529 17.8816C17.8476 17.8848 17.842 17.8881 17.8367 17.8913L17.8363 17.8915L17.8258 17.8978L17.8254 17.8982L17.8202 17.9012L17.82 17.9014L17.8093 17.9077L17.8089 17.9079C17.8035 17.9111 17.798 17.9145 17.7926 17.9176H17.7924L17.7815 17.924L17.7813 17.9242C17.7757 17.9274 17.7704 17.9305 17.7648 17.9337C17.7611 17.9359 17.7574 17.938 17.7537 17.9401V17.9403C17.748 17.9433 17.7426 17.9466 17.7371 17.9496L17.7368 17.9498C17.7331 17.9519 17.7294 17.9539 17.7257 17.956V17.9562C17.72 17.9592 17.7146 17.9624 17.7089 17.9656H17.7087C17.7051 17.9677 17.7014 17.9696 17.6977 17.9717L17.6975 17.9719L17.6922 17.9748L17.6916 17.9751L17.6809 17.9809L17.6804 17.9813C17.6749 17.9843 17.6693 17.9873 17.6636 17.9903L17.6523 17.9965C17.6467 17.9995 17.6411 18.0025 17.6356 18.0055L17.6352 18.0057C17.6315 18.0078 17.6278 18.0096 17.6241 18.0117L17.6238 18.0119C17.6181 18.0149 17.6127 18.0177 17.607 18.0207L17.6068 18.0209L17.5956 18.0267H17.5954C17.5897 18.0297 17.5841 18.0326 17.5784 18.0356L17.5779 18.0358L17.5668 18.0416H17.5666L17.5609 18.0444C17.557 18.0464 17.5533 18.0483 17.5495 18.0503L17.5493 18.0504C17.5434 18.0534 17.538 18.0561 17.5323 18.0591H17.532C17.5281 18.061 17.5244 18.063 17.5205 18.0649C17.5146 18.0678 17.509 18.0706 17.5032 18.0734L17.503 18.0736C17.4991 18.0755 17.4954 18.0773 17.4915 18.0792L17.4857 18.0821C17.4818 18.084 17.4781 18.0858 17.4742 18.0877H17.474C17.4701 18.0897 17.4662 18.0914 17.4623 18.0934H17.4621C17.4563 18.0962 17.4507 18.0989 17.4448 18.1017L17.4446 18.1019C17.4388 18.1045 17.4332 18.1074 17.4271 18.11L17.4269 18.1102C17.4232 18.112 17.4193 18.1137 17.4155 18.1155L17.4151 18.1157C17.4092 18.1185 17.4034 18.1212 17.3978 18.1238H17.3976C17.3878 18.1284 17.3779 18.1328 17.3682 18.1372L17.3678 18.1374C17.3637 18.1392 17.36 18.141 17.3561 18.1427H17.3559C17.3501 18.1454 17.3443 18.148 17.3382 18.1505L17.338 18.1507C17.3342 18.1524 17.3303 18.154 17.3264 18.1558L17.3262 18.156L17.3205 18.1585L17.3202 18.1586C17.3163 18.1604 17.3126 18.162 17.3085 18.1636L17.3081 18.1638L17.2964 18.1689H17.2962L17.2906 18.1714L17.2902 18.1715L17.2783 18.1767H17.2781C17.2622 18.1836 17.2462 18.1901 17.2301 18.1968C17.22 18.2011 17.2101 18.2051 17.2 18.2092H17.1998C17.1897 18.2133 17.1795 18.2173 17.1694 18.2214H17.1692C17.1632 18.2239 17.1574 18.2262 17.1513 18.2285L17.1508 18.2287C17.1471 18.2302 17.143 18.2318 17.1391 18.2333L17.1385 18.2334L17.1329 18.2357H17.1327C17.1286 18.2373 17.1247 18.2389 17.1206 18.2403L17.1204 18.2405C17.1163 18.2421 17.1122 18.2435 17.1082 18.2451L17.1023 18.2474H17.1019L17.0901 18.252L17.0895 18.2522C17.0856 18.2536 17.0815 18.2552 17.0776 18.2566L17.0772 18.2568L17.0714 18.2589H17.0712C17.0671 18.2605 17.0632 18.2619 17.0591 18.2635H17.0588C17.0527 18.2658 17.0467 18.2679 17.0405 18.2702H17.0403C17.0364 18.2718 17.0323 18.2732 17.0282 18.2746L17.0276 18.2748C17.0216 18.2771 17.0156 18.2792 17.0096 18.2813H17.0092C16.9991 18.2851 16.9887 18.2886 16.9784 18.2921L16.978 18.2923C16.9677 18.2958 16.9572 18.2994 16.9469 18.3029H16.9467C16.9407 18.305 16.9347 18.3072 16.9285 18.3091L16.9279 18.3093L16.9158 18.3133L16.9152 18.3135C16.909 18.3156 16.903 18.3176 16.8967 18.3195L16.8966 18.3197C16.8925 18.321 16.8884 18.3224 16.8841 18.3236L16.8839 18.3238L16.8779 18.3257L16.8654 18.3296L16.8649 18.3298L16.8528 18.3337L16.8464 18.3356L16.8462 18.3358C16.8421 18.337 16.8378 18.3383 16.8337 18.3395L16.8332 18.3397L16.8209 18.3436H16.8207L16.8014 18.3494C16.7954 18.3514 16.789 18.3531 16.7828 18.3551H16.7824C16.7783 18.3563 16.7742 18.3576 16.7699 18.3588H16.7697C16.7635 18.3607 16.7571 18.3625 16.7511 18.3643L16.7505 18.3644L16.738 18.368L16.7316 18.3699H16.7314L16.7188 18.3735L16.7184 18.3736L16.7058 18.3772L16.6995 18.3788L16.6991 18.3789C16.6949 18.38 16.691 18.3812 16.6867 18.3823L16.6861 18.3825C16.6756 18.3853 16.6647 18.3883 16.6542 18.3911H16.654C16.6476 18.3927 16.6414 18.3945 16.635 18.3961L16.6346 18.3963C16.6305 18.3973 16.6262 18.3984 16.6219 18.3995L16.6215 18.3996C16.6151 18.4012 16.6089 18.4028 16.6025 18.4046H16.6023C16.5978 18.4056 16.5937 18.4067 16.5895 18.4078L16.5893 18.4079L16.583 18.4094L16.5826 18.4095C16.5786 18.4104 16.5743 18.4115 16.57 18.4125L16.5694 18.4127L16.5568 18.4159H16.5566L16.5506 18.4173L16.55 18.4175C16.5459 18.4186 16.5416 18.4194 16.5375 18.4205L16.5367 18.4207L16.5307 18.4221L16.5181 18.4251L16.5173 18.4253L16.5049 18.4283L16.5041 18.4285L16.4982 18.4297L16.4978 18.4299L16.4914 18.4313H16.4912L16.4852 18.4327L16.4846 18.4329C16.4803 18.4338 16.4761 18.4346 16.472 18.4357L16.4712 18.4359L16.4656 18.4369L16.4516 18.4401L16.4391 18.4428L16.4381 18.443L16.4325 18.4442L16.4319 18.4444L16.4195 18.447L16.4185 18.4472L16.4127 18.4484H16.4123L16.4053 18.45L16.3998 18.4511L16.3989 18.4514C16.3946 18.4521 16.3905 18.453 16.3864 18.4539L16.3854 18.4541L16.3796 18.4553H16.3792C16.3749 18.4562 16.3708 18.4571 16.3664 18.4578L16.3656 18.458L16.3531 18.4606L16.3522 18.4608L16.3467 18.4619L16.3458 18.462L16.3395 18.4633H16.3393L16.3335 18.4643L16.3323 18.4647L16.3263 18.4658H16.3261L16.3199 18.467L16.3189 18.4672L16.3137 18.4682L16.3125 18.4684L16.3063 18.4695L16.3059 18.4697L16.3002 18.4707L16.2989 18.4709L16.2934 18.4719L16.2929 18.4721L16.2866 18.4732L16.2855 18.4734L16.2804 18.4742L16.279 18.4746L16.2668 18.4767L16.2654 18.4769L16.26 18.478L16.2594 18.4781L16.2532 18.4792L16.2522 18.4794L16.2468 18.4803L16.2456 18.4804L16.2331 18.4826L16.2322 18.4827L16.2265 18.4838H16.2258L16.2131 18.4859L16.2119 18.4861C16.2077 18.4868 16.2038 18.4875 16.1995 18.4882L16.1983 18.4884L16.1931 18.4893L16.1919 18.4895L16.1857 18.4903L16.1853 18.4905L16.1795 18.4914L16.1781 18.4916L16.1727 18.4925L16.1719 18.4926L16.1657 18.4935L16.1647 18.4937L16.1594 18.4944L16.1581 18.4946C16.154 18.4953 16.1499 18.496 16.1458 18.4965L16.1445 18.4967L16.1386 18.4976H16.1382L16.1318 18.4986H16.131L16.1254 18.4995L16.1242 18.4997L16.1116 18.5015L16.1106 18.5017L16.105 18.5024L16.1042 18.5025L16.0978 18.5034L16.097 18.5036L16.0918 18.5043L16.09 18.5045L16.0777 18.5061L16.0766 18.5063L16.0711 18.5071H16.0702L16.0637 18.508H16.0636L16.0575 18.5089L16.0564 18.5091L16.0503 18.5098H16.0499L16.0437 18.5107L16.0425 18.5108L16.0373 18.5114L16.0359 18.5116L16.0297 18.5124L16.0235 18.5131L16.0221 18.5133L16.0163 18.514L16.0159 18.5142L16.0095 18.5149L16.0085 18.5151L16.0033 18.5156L16.0019 18.5158L15.9893 18.5174H15.9881L15.9826 18.5181L15.9817 18.5183L15.9754 18.519H15.9745L15.9677 18.5199L15.9552 18.5213L15.9535 18.5215L15.9484 18.522L15.9472 18.5222L15.941 18.5227L15.9402 18.5229L15.9348 18.5234L15.9332 18.5236L15.9276 18.5243H15.9268L15.9206 18.5248L15.9192 18.525L15.9142 18.5255L15.9128 18.5257L15.9004 18.5269L15.8934 18.5276H15.8924L15.8862 18.5284H15.8848L15.8798 18.5289L15.8782 18.5291L15.872 18.5296L15.8714 18.5298L15.8658 18.5303H15.8642L15.8589 18.5308H15.8578L15.8516 18.5315H15.8504L15.8453 18.5321H15.8436L15.8311 18.5331L15.8296 18.5333L15.8243 18.5338H15.8232L15.8169 18.5344H15.8158L15.8107 18.5349H15.8092L15.8033 18.5354H15.8027L15.7965 18.536L15.795 18.5361L15.7899 18.5365H15.7885L15.7823 18.537H15.7813L15.7761 18.5375H15.7743L15.7689 18.5381H15.7681L15.7619 18.5384L15.7601 18.5386L15.7553 18.539L15.7537 18.5391L15.7473 18.5395L15.7411 18.5398L15.7395 18.54L15.7343 18.5404H15.7331L15.7269 18.5409H15.7257L15.7203 18.5413H15.7189L15.7063 18.542L15.7047 18.5421L15.6995 18.5423L15.6983 18.5425L15.6921 18.5429H15.6907L15.6855 18.5432H15.6839L15.6781 18.5436H15.6777L15.6713 18.5439L15.6697 18.5441L15.6647 18.5443L15.6633 18.5444L15.6571 18.5448H15.6557L15.6508 18.545L15.6487 18.5451L15.6436 18.5453H15.6425L15.6365 18.5457H15.6347L15.6298 18.5459L15.6283 18.546L15.6221 18.5462H15.6209L15.6156 18.5466H15.6139L15.6086 18.5467H15.6077L15.6012 18.5471H15.5999L15.595 18.5473H15.5931C15.589 18.5474 15.5847 18.5476 15.5806 18.5476L15.5789 18.5478L15.5736 18.548H15.5725L15.5662 18.5482H15.5647L15.5596 18.5483H15.5581L15.5452 18.5487L15.5435 18.5489H15.5369L15.5308 18.549H15.5295L15.5244 18.5492H15.5225L15.517 18.5494H15.5083L15.5032 18.5496H15.5019L15.4954 18.5497H15.4875L15.4822 18.5499H15.4665L15.46 18.5501H15.4248C13.0099 18.5501 11.0523 16.7705 11.0523 14.5752V14.5428L11.0525 14.537V14.5227L11.0527 14.5188V14.5108L11.0529 14.505V14.503L11.0531 14.499V14.493L11.0533 14.4908V14.4847L11.0535 14.4799V14.4788L11.0537 14.473V14.467L11.0539 14.4647V14.461L11.0541 14.4587V14.4528L11.0543 14.4479L11.0544 14.4468L11.0546 14.441V14.4394L11.0548 14.435V14.4328L11.055 14.429V14.4268L11.0552 14.4229L11.0554 14.4208L11.0556 14.416V14.415L11.0558 14.409V14.4076L11.056 14.403L11.0562 14.4012L11.0564 14.3973L11.0566 14.395L11.0568 14.3911V14.389L11.057 14.3846L11.0572 14.3832L11.0574 14.3773L11.0576 14.3757L11.0578 14.3715V14.3692L11.0579 14.3655L11.0581 14.3632L11.0583 14.3593L11.0585 14.3573L11.0587 14.3529L11.0589 14.3513L11.0591 14.3455L11.0593 14.3441L11.0595 14.3397L11.0597 14.3375L11.0599 14.3337L11.0601 14.3315L11.0603 14.3276L11.0605 14.3257L11.0609 14.3211V14.3197L11.0613 14.3139L11.0615 14.3126L11.0616 14.3078L11.0622 14.302V14.2999L11.0626 14.296L11.0628 14.2939L11.0632 14.2898V14.288L11.0638 14.2822V14.2808L11.0642 14.2764L11.0644 14.2742L11.0646 14.2707L11.0648 14.2681L11.0651 14.2647L11.0653 14.2622L11.0659 14.2564L11.0663 14.2507L11.0665 14.2491L11.0669 14.2449L11.0671 14.2426L11.0675 14.2389L11.0677 14.2368L11.0681 14.2329L11.0683 14.2307L11.0686 14.2267L11.0688 14.2249L11.0694 14.2191V14.2182L11.07 14.2132L11.0702 14.2115L11.0706 14.2074L11.0708 14.2053L11.0712 14.2016L11.0714 14.1993L11.0725 14.1876V14.1873L11.0731 14.1819L11.0735 14.1798L11.0739 14.1761L11.0741 14.1738L11.0745 14.1703L11.0749 14.1678L11.0753 14.1641L11.0755 14.162L11.076 14.1567V14.1561L11.0768 14.1505L11.077 14.1487L11.0774 14.1446L11.0776 14.1425L11.0782 14.1386L11.0788 14.1328L11.079 14.1307L11.0797 14.1257V14.125L11.0805 14.1194L11.0807 14.1171L11.0811 14.1135L11.0815 14.111L11.0819 14.1077L11.0823 14.1052L11.0826 14.1017L11.083 14.0994L11.0834 14.0951L11.0836 14.0935L11.0844 14.0879L11.0848 14.0861L11.0852 14.0822L11.0856 14.0799L11.0862 14.0764L11.0863 14.0741L11.0869 14.0704L11.0871 14.0683L11.0879 14.0637V14.0626L11.0889 14.0568L11.0891 14.055L11.0897 14.0511L11.0898 14.0488L11.0904 14.0453L11.0908 14.043L11.0914 14.0393L11.0916 14.0373L11.0924 14.0329L11.0933 14.0258L11.0935 14.0241L11.0941 14.0202L11.0945 14.0179L11.0951 14.0143L11.0955 14.012L11.0961 14.0083L11.0963 14.0062L11.097 14.002L11.0972 14.0005L11.0982 13.9949L11.0984 13.9931L11.0992 13.989L11.0994 13.9871L11.1002 13.9832L11.1003 13.9811L11.1011 13.9776L11.1015 13.9753L11.1021 13.9717L11.1023 13.9694L11.1033 13.9639L11.1037 13.9625L11.1042 13.9583L11.1046 13.9562L11.1052 13.9524L11.1056 13.9503L11.1062 13.9466L11.1066 13.9447L11.1073 13.9401L11.1075 13.9388L11.1087 13.9332V13.9321L11.1097 13.9273L11.1101 13.9256L11.1107 13.9217L11.111 13.9196L11.1118 13.9158L11.112 13.9139L11.1128 13.9095L11.1132 13.9081L11.1142 13.9022L11.1153 13.8966L11.1157 13.8948L11.1163 13.8909L11.1167 13.8888L11.1175 13.8851L11.1179 13.8831L11.1186 13.8791L11.119 13.8773L11.12 13.8718L11.1204 13.8704L11.1212 13.866L11.1215 13.864L11.1223 13.8603L11.1227 13.858L11.1235 13.8545L11.1239 13.8524L11.1247 13.8487L11.125 13.8467L11.1262 13.8411L11.1264 13.8403L11.1274 13.8354L11.1278 13.8333L11.1285 13.8297L11.1291 13.8274L11.1297 13.8241L11.1303 13.8218L11.1311 13.8181L11.1315 13.8161L11.1324 13.8114L11.133 13.8091L11.1338 13.805L11.1342 13.8027L11.135 13.7993L11.1356 13.7969L11.1363 13.7937L11.1369 13.7912L11.1375 13.7878L11.1381 13.7855L11.1391 13.7809L11.1396 13.779L11.1404 13.7746L11.141 13.7721L11.1418 13.7689L11.1424 13.7664L11.1431 13.7633L11.1435 13.7608L11.1443 13.7574L11.1449 13.7553L11.1462 13.7491L11.1474 13.7442L11.148 13.7422L11.1488 13.7385L11.1494 13.7362L11.1501 13.7328L11.1507 13.7305L11.1515 13.7272L11.1521 13.7249L11.1531 13.7205L11.1532 13.7194L11.1546 13.7139L11.1552 13.712L11.156 13.7084L11.1566 13.7061L11.1573 13.7028L11.1579 13.7005L11.1589 13.697L11.1593 13.6948L11.1604 13.6906L11.1606 13.6894L11.162 13.6839L11.1626 13.6819L11.1634 13.6784L11.1641 13.6759L11.1649 13.6727L11.1655 13.6704L11.1663 13.6669L11.1669 13.6648L11.1682 13.66V13.6595L11.1698 13.6538L11.1702 13.652L11.1711 13.6482L11.1717 13.646L11.1727 13.6427L11.1733 13.6404L11.1743 13.637L11.1748 13.6347L11.1758 13.6312L11.1762 13.6292L11.1778 13.6239L11.1781 13.6222L11.1793 13.6183L11.1797 13.6163L11.1807 13.6126L11.1813 13.6105L11.1822 13.6071L11.1828 13.6048L11.184 13.6008L11.1844 13.5995L11.1859 13.594L11.1863 13.5923L11.1875 13.5884L11.1881 13.5863L11.1888 13.5829L11.1896 13.5808L11.1906 13.5771L11.1912 13.5751L11.1923 13.5711L11.1927 13.5696L11.1943 13.5642L11.1947 13.5628L11.196 13.5587L11.1982 13.5509L11.1991 13.5475L11.1999 13.5454L11.2011 13.5414L11.2015 13.5399L11.203 13.5345L11.2034 13.533L11.2048 13.529L11.2054 13.527L11.2063 13.5233L11.2071 13.5212L11.2081 13.5177L11.2087 13.5157L11.2098 13.512L11.2104 13.5102L11.212 13.5048L11.2124 13.5037L11.2137 13.4993L11.2143 13.4973L11.2155 13.4938L11.2161 13.4917L11.217 13.4885L11.2178 13.486L11.219 13.4827L11.2196 13.4807L11.2213 13.4754L11.2217 13.474L11.2231 13.4699L11.2237 13.4678L11.2246 13.4644L11.2254 13.4623L11.2266 13.4588L11.2272 13.4568L11.2283 13.4531L11.2291 13.4514L11.2307 13.4459L11.2309 13.4453L11.2324 13.4406L11.2332 13.4386L11.2344 13.4351L11.2349 13.433L11.2361 13.4296L11.2367 13.4275L11.238 13.4238L11.2384 13.4222L11.2404 13.4167L11.2406 13.416L11.2421 13.4112L11.2427 13.4095L11.2441 13.4057L11.2447 13.4036L11.2458 13.4003L11.2466 13.3981L11.2476 13.3951L11.2493 13.3923L11.2507 13.3884L11.2515 13.3861L11.253 13.3819L11.2538 13.3796L11.2548 13.3764L11.2556 13.3741L11.2567 13.3711L11.2575 13.3686L11.2594 13.3633L11.2608 13.3594L11.2616 13.3569L11.2631 13.3527L11.2637 13.3506L11.2649 13.3474L11.2657 13.3451L11.267 13.3417L11.2678 13.3396L11.269 13.3363L11.2697 13.3343L11.2711 13.3302L11.2717 13.3288L11.2734 13.3237L11.2742 13.3216L11.2754 13.3182L11.2764 13.3159L11.2775 13.3129L11.2783 13.3104L11.2795 13.3074L11.2816 13.3016L11.2824 13.2997L11.2841 13.2947L11.2849 13.2928L11.2863 13.2894L11.2871 13.2871L11.289 13.2818L11.2904 13.2786L11.2911 13.2763L11.295 13.2657L11.2956 13.2643L11.2972 13.2606L11.2991 13.2553L11.3001 13.253L11.302 13.2477L11.3036 13.2438L11.3042 13.2424L11.3063 13.2371L11.3069 13.2355L11.3083 13.2319L11.3092 13.2296L11.3104 13.2265L11.3114 13.2242L11.3125 13.2213L11.3135 13.2189L11.3155 13.2135L11.3176 13.2086L11.3184 13.2063L11.3197 13.2033L11.3205 13.201L11.3219 13.198L11.3228 13.1957L11.324 13.1927L11.3248 13.1904L11.3263 13.187L11.3271 13.1851L11.3291 13.1801L11.3298 13.178L11.3312 13.1748L11.3322 13.1725L11.3333 13.1695L11.3345 13.167L11.3357 13.1644L11.3367 13.1619L11.338 13.1587L11.3388 13.1566L11.3409 13.1517L11.3415 13.1501L11.3431 13.1464L11.344 13.1442L11.3454 13.1412L11.3464 13.1388L11.3475 13.1359L11.3485 13.1336L11.3499 13.1306L11.3509 13.1283L11.353 13.1234L11.3538 13.1214L11.3553 13.1181L11.3563 13.1158L11.3575 13.1128L11.3584 13.1105L11.3598 13.1076L11.3608 13.1053L11.3621 13.1022L11.3631 13.1L11.365 13.0954L11.366 13.0933L11.3676 13.09L11.3687 13.0875L11.3699 13.0848L11.3711 13.0824L11.3722 13.0795L11.3732 13.0772L11.3746 13.0744L11.3756 13.0719L11.3771 13.0684L11.3787 13.0652L11.38 13.062L11.3812 13.0595L11.3824 13.0567L11.3847 13.0518L11.3861 13.0489L11.3872 13.0465L11.3884 13.0438L11.3899 13.0406L11.3915 13.0371L11.3929 13.0339L11.3942 13.0313L11.3952 13.029L11.3966 13.0259L11.3977 13.0238L11.3989 13.021L11.4001 13.0185L11.4012 13.0159L11.4026 13.013L11.4045 13.0092L11.4059 13.0061L11.4073 13.0035L11.4084 13.0008L11.4108 12.9959L11.4121 12.9932L11.4133 12.9906L11.4146 12.9881L11.4158 12.9853L11.4178 12.9816L11.4193 12.9782L11.4205 12.9759L11.4218 12.9731L11.423 12.9708L11.4244 12.968L11.4255 12.9657L11.4269 12.9628L11.4281 12.9605L11.4294 12.9577L11.4312 12.9542L11.4327 12.9508L11.4341 12.9482L11.4353 12.9457L11.4366 12.9428L11.4376 12.9407L11.4392 12.9377L11.4403 12.9356L11.4417 12.9328L11.4428 12.9301L11.4444 12.9273L11.4465 12.923L11.4489 12.9181L11.4502 12.9154L11.4514 12.9131L11.4528 12.9105L11.4541 12.908L11.4555 12.9054L11.4567 12.9031L11.4596 12.8972L11.4604 12.8958L11.4617 12.8932L11.4629 12.8907L11.4642 12.888L11.4654 12.8857L11.467 12.8829L11.4681 12.8806L11.4695 12.878L11.4707 12.8758L11.4759 12.8656L11.4786 12.8606L11.4798 12.8583L11.4812 12.8557L11.4823 12.8534L11.4839 12.8507L11.4851 12.8484L11.4864 12.8458L11.4889 12.8412L11.4901 12.8389L11.4917 12.8361L11.493 12.8338L11.4944 12.8313L11.4957 12.8286L11.5 12.8208L11.501 12.8189L11.5037 12.8141L11.5049 12.8118L11.5063 12.8092L11.5078 12.8067L11.5092 12.8042L11.5103 12.8018L11.5119 12.7991L11.5131 12.7968L11.5158 12.7919L11.5183 12.7874L11.5197 12.7851L11.5212 12.7821L11.5224 12.7798L11.5239 12.7772L11.5253 12.7749L11.5267 12.7722L11.5282 12.7697L11.5294 12.7675L11.531 12.7648L11.5325 12.762L11.5348 12.7579L11.5362 12.7554L11.5378 12.7528L11.5391 12.7503L11.5405 12.748L11.5418 12.7453L11.5432 12.7431L11.5448 12.7404L11.5461 12.7381L11.5479 12.7351L11.55 12.7312L11.5516 12.7286L11.5529 12.7261L11.5543 12.7238L11.5558 12.7211L11.5572 12.7188L11.5588 12.7164L11.5615 12.7114L11.5634 12.7082L11.5654 12.7047L11.5671 12.702L11.5685 12.6994L11.57 12.6971L11.5714 12.6946L11.5728 12.6923L11.5743 12.6897L11.5757 12.6874L11.5772 12.6849L11.5786 12.6826L11.5811 12.6783L11.5829 12.6755L11.584 12.6734L11.5858 12.6707L11.5872 12.6683L11.5887 12.6658L11.5901 12.6633L11.5916 12.661L11.5932 12.6585L11.5945 12.6561L11.5973 12.6518L11.5988 12.6492L11.6002 12.6469L11.6017 12.6444L11.6031 12.6419L11.6047 12.6396L11.6078 12.6347L11.6091 12.6322L11.6107 12.6297L11.6132 12.6258L11.615 12.623L11.6165 12.6205L11.6179 12.6182L11.6226 12.6108L11.6239 12.6085L11.6255 12.6062L11.627 12.6035L11.6303 12.5984L11.6313 12.597L11.6331 12.5942L11.6342 12.5922L11.6358 12.5896L11.6373 12.5873L11.6389 12.5848L11.6403 12.5825L11.642 12.58L11.6434 12.5779L11.6463 12.5733L11.6478 12.5708L11.6496 12.5684L11.651 12.5662L11.6525 12.5636L11.6541 12.5615L11.6556 12.5588L11.657 12.5567L11.6587 12.5542L11.6603 12.5519L11.6624 12.5486L11.6648 12.545L11.6661 12.5429L11.6679 12.5402L11.6692 12.5381L11.671 12.5355L11.6725 12.5332L11.6739 12.5309L11.6757 12.5284L11.677 12.5263L11.6811 12.5203L11.6817 12.5194L11.6834 12.5166L11.6846 12.5148L11.6865 12.512L11.6879 12.51L11.6897 12.5074L11.691 12.5054L11.6928 12.5028L11.6943 12.5006L11.7005 12.4911L11.7019 12.4891L11.7037 12.4867L11.7052 12.4844L11.707 12.4819L11.7083 12.4798L11.7101 12.4771L11.7114 12.4752L11.7134 12.4725L11.7144 12.4708L11.7179 12.4658L11.7194 12.4635L11.7212 12.461L11.7227 12.4589L11.7245 12.4564L11.7258 12.4543L11.7276 12.4517L11.7291 12.4495L11.7309 12.4471L11.7324 12.4449L11.7356 12.4403L11.7371 12.4382L11.7389 12.4358L11.7402 12.4336L11.7422 12.431L11.7435 12.429L11.7453 12.4264L11.7468 12.4244L11.7486 12.4218L11.7499 12.4198L11.7534 12.4151L11.7548 12.4131L11.7568 12.4105L11.7581 12.4083L11.7601 12.4059L11.7616 12.4037L11.7632 12.4014L11.7649 12.399L11.7667 12.3967L11.768 12.3947L11.7717 12.3898L11.7729 12.388L11.7748 12.3854L11.7764 12.3834L11.7781 12.3808L11.7797 12.3788L11.7815 12.3762L11.783 12.3744L11.7859 12.3702L11.7902 12.3645L11.7912 12.3631L11.7933 12.3603L11.7945 12.3587L11.7966 12.3557L11.7978 12.3542L11.7999 12.3512L11.8011 12.3498L11.8034 12.3468L11.804 12.3459L11.8089 12.3394L11.8116 12.3357L11.813 12.3337L11.8151 12.3311L11.8165 12.3293L11.8184 12.3267L11.8198 12.3249L11.8219 12.3221L11.8227 12.321L11.8279 12.3139L11.8281 12.3137L11.8305 12.3107L11.8316 12.309L11.8338 12.3065L11.8351 12.3046L11.8371 12.3021L11.8386 12.3001L11.8406 12.2975L11.8416 12.2962L11.8466 12.2897L11.847 12.289L11.8491 12.2863L11.8505 12.2846L11.8526 12.2819L11.854 12.2802L11.8561 12.2775L11.8573 12.2757L11.8594 12.2729L11.861 12.2711L11.8645 12.2667L11.8661 12.2646L11.868 12.2621L11.8696 12.2602L11.8717 12.2575L11.8731 12.2558L11.8752 12.2531L11.8766 12.2513L11.8787 12.2487L11.8801 12.2469L11.8843 12.2416L11.8873 12.2379L11.8888 12.236L11.891 12.2333L11.8923 12.2315L11.8945 12.2289L11.896 12.2271L11.898 12.2245L11.8995 12.2227C11.9018 12.2197 11.9044 12.2165 11.9069 12.2135L11.9083 12.2117L11.9104 12.2093L11.912 12.2073L11.9139 12.205L11.9155 12.2029L11.9176 12.2004L11.9188 12.1988L11.9263 12.1898L11.9279 12.1879L11.93 12.1854L11.9316 12.1834L11.9335 12.181L11.9351 12.179L11.9372 12.1765L11.939 12.1746L11.9407 12.1723L11.9433 12.1693L11.946 12.1661L11.9479 12.164L11.9497 12.1617L11.9514 12.1596L11.9553 12.1553L11.9571 12.153L11.9588 12.1509L11.9608 12.1486L11.9641 12.1449L11.9658 12.1428L11.968 12.1403L11.9697 12.1382L11.9717 12.1359L11.9734 12.1338L11.9754 12.1316L11.9773 12.1293L11.9791 12.1274L11.981 12.1251L11.9826 12.1233L11.9864 12.1187L11.988 12.1168L11.9919 12.1125L11.9936 12.1102L11.9958 12.1081L11.9993 12.1039L12.0012 12.1016L12.003 12.0998L12.0067 12.0954L12.0084 12.0934L12.0106 12.091L12.0121 12.0892L12.0143 12.0867L12.0158 12.085L12.0181 12.0825L12.0195 12.0807L12.0218 12.0782L12.0232 12.0768L12.0279 12.0715L12.029 12.0701L12.0314 12.0674L12.0327 12.066L12.0351 12.0634L12.0364 12.0618L12.0388 12.0591L12.0401 12.0577L12.0427 12.0549L12.0432 12.0542L12.0491 12.0478L12.0499 12.0471L12.0524 12.0441L12.0535 12.043L12.0561 12.0402L12.0574 12.0388L12.0598 12.0362L12.0611 12.0346L12.0635 12.0319L12.0646 12.0307L12.0699 12.025L12.0709 12.0241L12.0732 12.0215L12.0747 12.0199L12.0769 12.0176L12.0786 12.0156L12.0808 12.0132L12.0823 12.0118L12.0847 12.0091L12.0856 12.008L12.0911 12.002L12.0921 12.0011L12.0944 11.9987L12.0959 11.9971L12.0981 11.9946L12.0996 11.993L12.1022 11.9905L12.1037 11.9888L12.1059 11.9865L12.1074 11.9849L12.1129 11.9792L12.1134 11.9785L12.116 11.9759L12.1171 11.9744L12.1197 11.972L12.1212 11.9704L12.1236 11.9679L12.1249 11.9663L12.1275 11.9638L12.1288 11.9624L12.1333 11.9578L12.135 11.9561L12.1372 11.9539L12.1389 11.952L12.1411 11.9497L12.1428 11.9477L12.1452 11.9454L12.1469 11.9437L12.149 11.9414L12.1506 11.9398L12.1592 11.9313L12.1607 11.9295L12.1628 11.9274L12.1648 11.9255L12.1669 11.9233L12.1687 11.9216L12.171 11.9191L12.1726 11.9175L12.1811 11.909L12.1825 11.9074L12.185 11.905L12.1866 11.9034L12.1891 11.9011L12.1907 11.8993L12.193 11.8972L12.1947 11.8954L12.2035 11.8867L12.2047 11.8855L12.2072 11.8829L12.2087 11.8814L12.2113 11.879L12.2128 11.8776L12.2154 11.8751L12.2167 11.8737C12.2196 11.8707 12.2228 11.8677 12.2259 11.8648L12.227 11.8636L12.2296 11.8611L12.2311 11.8595L12.2336 11.857L12.2352 11.8556L12.2377 11.8532L12.2391 11.8519C12.2422 11.8489 12.2451 11.8459 12.2482 11.8429L12.2496 11.8418L12.2521 11.8394L12.2537 11.8378L12.2562 11.8353L12.2576 11.8341L12.2603 11.8314L12.2617 11.8302L12.2644 11.8275L12.271 11.8213L12.2722 11.8203L12.2749 11.8176L12.2762 11.8164L12.279 11.8137L12.2803 11.8123L12.283 11.81L12.2846 11.8084L12.2875 11.8058L12.2945 11.799L12.2992 11.7948L12.3017 11.7923L12.3111 11.7838L12.3171 11.7782L12.3181 11.7775L12.3208 11.7748L12.3262 11.7699L12.3289 11.7672L12.3303 11.766C12.335 11.7619 12.3394 11.7579 12.3439 11.7538L12.3536 11.7449L12.3566 11.7425L12.3575 11.7416C12.3608 11.7386 12.3641 11.7356 12.3675 11.7326L12.3686 11.7315L12.3715 11.729L12.3756 11.7253L12.3774 11.7239L12.3813 11.7204C12.3844 11.7175 12.3877 11.7147 12.3908 11.7121L12.3964 11.7069L12.3992 11.7046L12.4009 11.7032L12.4036 11.7009L12.4048 11.6997L12.4114 11.694L12.4116 11.6938L12.4143 11.6915L12.4161 11.6901L12.4186 11.6878L12.4204 11.6864L12.4229 11.6841L12.4248 11.6825L12.4274 11.6804L12.4291 11.6788L12.4338 11.6747L12.4355 11.6733L12.4379 11.6714L12.44 11.6694L12.4423 11.6675L12.4443 11.6659L12.4468 11.6636L12.4486 11.6622L12.4513 11.6601L12.4528 11.6587L12.4626 11.6505L12.4639 11.6493L12.4666 11.647L12.4684 11.6458L12.4709 11.6435L12.4729 11.642L12.4756 11.6397L12.477 11.6387C12.4801 11.6359 12.4834 11.6332 12.4867 11.6304L12.4882 11.6291L12.491 11.627L12.4927 11.6256L12.4952 11.6233L12.4972 11.6219L12.4997 11.6198L12.5015 11.6182L12.5042 11.616L12.5061 11.6145L12.5108 11.6107L12.5127 11.6092L12.5153 11.607L12.517 11.6056L12.5197 11.6035L12.5215 11.6021L12.5242 11.5998L12.5258 11.5985L12.5287 11.5962L12.5291 11.5959L12.5353 11.5909L12.5372 11.5893L12.5398 11.5874L12.5417 11.5858L12.5444 11.5837L12.5464 11.5821L12.5489 11.5802L12.5509 11.5786L12.5534 11.5764L12.5547 11.5754L12.5604 11.571L12.5619 11.5697L12.5647 11.5676L12.5664 11.5662L12.5689 11.5642L12.5711 11.5625L12.5736 11.5605L12.5756 11.5591L12.5781 11.557L12.5798 11.5558L12.5851 11.5517L12.5868 11.5503L12.5896 11.5482L12.5913 11.5469L12.594 11.5446L12.5958 11.5434L12.5987 11.5411L12.6003 11.5398L12.6032 11.5377L12.6045 11.5367L12.6104 11.5322L12.6119 11.531L12.6147 11.5289L12.6164 11.5275L12.6191 11.5255L12.6211 11.5239L12.6238 11.522L12.6255 11.5206L12.6285 11.5184L12.6298 11.5174L12.6357 11.513L12.6372 11.5119L12.6401 11.5096L12.6417 11.5085L12.6446 11.5062L12.6464 11.505L12.6493 11.5029L12.6508 11.5017L12.6537 11.4995L12.6549 11.4985L12.6619 11.4935L12.6625 11.493L12.6654 11.4907L12.6672 11.4895L12.6699 11.4875L12.6718 11.4861L12.6746 11.484L12.6763 11.4827L12.6792 11.4806L12.6808 11.4795L12.6862 11.4755L12.6882 11.4741L12.6905 11.4723L12.6926 11.4707L12.6952 11.4689L12.6998 11.4654L12.7024 11.4636L12.7045 11.462L12.7078 11.4597L12.7094 11.4587L12.7138 11.4553L12.716 11.4537L12.721 11.4502L12.7232 11.4486L12.7259 11.4467L12.7278 11.4452L12.7304 11.4435L12.7327 11.4417L12.7397 11.4368L12.7418 11.4352L12.7444 11.4336L12.7469 11.4318L12.7492 11.4302L12.7516 11.4284L12.7539 11.4269L12.7564 11.4251L12.7588 11.4235L12.7644 11.4196L12.7656 11.4187L12.7683 11.417L12.7704 11.4154L12.7728 11.4136L12.7753 11.412L12.7778 11.4102L12.78 11.4086L12.7825 11.4069L12.7846 11.4055L12.7903 11.4016L12.7918 11.4005L12.7946 11.3987L12.7965 11.3973L12.7994 11.3954L12.8014 11.394L12.8041 11.392L12.806 11.3908L12.8089 11.3888L12.8111 11.3874L12.8208 11.3807L12.823 11.3793L12.8255 11.3775L12.828 11.3759L12.8305 11.3742L12.8329 11.3728L12.8354 11.371L12.8377 11.3694L12.8403 11.3678L12.8449 11.3648L12.8471 11.3632L12.8496 11.3616L12.8523 11.3598L12.8545 11.3583L12.857 11.3567L12.8595 11.3549L12.8618 11.3535L12.8644 11.3517L12.8669 11.3501L12.8692 11.3485L12.8741 11.3453L12.8762 11.3441L12.8788 11.3423L12.8838 11.3392L12.886 11.3376L12.8887 11.336L12.8908 11.3346L12.8937 11.3326L12.8961 11.3312L12.9002 11.3284L12.9031 11.3266L12.9054 11.325L12.9081 11.3234L12.9105 11.3218L12.913 11.3202L12.9153 11.3186L12.9183 11.3169L12.9204 11.3155L12.9237 11.3133L12.9274 11.3112L12.9301 11.3095L12.9324 11.3079L12.935 11.3063L12.9377 11.3047L12.94 11.3033L12.9426 11.3017L12.9449 11.3001L12.9476 11.2985L12.9507 11.2965L12.9542 11.2942L12.9571 11.2925L12.9673 11.2861L12.9698 11.2847L12.9774 11.2799L12.982 11.2771L12.9846 11.2755L12.9867 11.2743L12.992 11.2711L12.9947 11.2693L12.997 11.2679L12.9997 11.2663L13.0021 11.2647L13.0054 11.2628L13.0081 11.2612L13.0118 11.2589L13.0143 11.2575L13.0169 11.2559L13.0196 11.2543L13.0221 11.2529L13.0244 11.2513L13.0272 11.2497L13.0297 11.2483L13.0328 11.2463L13.0355 11.2447L13.0394 11.2424L13.0419 11.241L13.0445 11.2394L13.0472 11.2378L13.0495 11.2364L13.0521 11.235L13.0548 11.2334L13.0573 11.232L13.0604 11.2301L13.0624 11.229L13.067 11.2262L13.0696 11.2246L13.0723 11.2232L13.0748 11.2218L13.0773 11.2202L13.0799 11.2188L13.0826 11.2172L13.0849 11.2157L13.088 11.214L13.09 11.2129L13.0948 11.2101L13.097 11.2088L13.1001 11.2071L13.1024 11.2057L13.1052 11.2043L13.1077 11.2027L13.1104 11.2012L13.1129 11.1997L13.1159 11.1981L13.118 11.1968L13.1229 11.1942L13.125 11.1929L13.1281 11.1912L13.1302 11.1899L13.1334 11.1883L13.1357 11.1871L13.1386 11.1853L13.1407 11.1841L13.1441 11.1823L13.146 11.1813L13.1511 11.1784L13.1532 11.1772L13.1561 11.1756L13.1588 11.1742L13.1664 11.17L13.1691 11.1684L13.1721 11.1669L13.1744 11.1657L13.1793 11.1631L13.1814 11.1618L13.1845 11.16L13.1868 11.1588L13.1898 11.1572L13.1921 11.156L13.195 11.1544L13.1975 11.1532L13.2003 11.1517L13.2028 11.1503L13.2077 11.1477L13.2094 11.1468L13.2129 11.1448L13.2152 11.1436L13.2182 11.142L13.2207 11.1408L13.2234 11.1394L13.2259 11.1379L13.2289 11.1364L13.2359 11.1326L13.238 11.1316L13.2415 11.1298L13.2438 11.1284L13.2466 11.127L13.2493 11.1257L13.252 11.1242L13.2545 11.1229L13.2574 11.1213L13.2598 11.1201L13.2642 11.1178L13.2666 11.1167L13.2701 11.1148L13.2724 11.1135L13.2753 11.112L13.2777 11.1109L13.2808 11.1093L13.2831 11.1081L13.2884 11.1054L13.2932 11.1029L13.295 11.1021L13.2989 11.1001L13.301 11.099L13.3043 11.0975L13.3065 11.0962L13.3098 11.0946L13.3121 11.0936L13.3152 11.0918L13.3216 11.0886L13.324 11.0876L13.3278 11.0856L13.3302 11.0844L13.3333 11.0828L13.3358 11.0815L13.3385 11.0803L13.344 11.0775L13.3465 11.0762L13.3502 11.0745L13.3529 11.0731L13.357 11.0711L13.3592 11.0701L13.3623 11.0685L13.3646 11.0674L13.3679 11.0658L13.3701 11.0647L13.3736 11.0632L13.3757 11.0621L13.3796 11.0601L13.3817 11.0591L13.3862 11.057L13.3885 11.0559L13.3916 11.0543L13.394 11.0533L13.3971 11.0517L13.4049 11.0481L13.4088 11.0462L13.4103 11.0455L13.4156 11.043L13.4175 11.0421L13.421 11.0403L13.4231 11.0393L13.4265 11.0379L13.4288 11.0368L13.4319 11.0352L13.4342 11.0342L13.4383 11.0324L13.4397 11.0317L13.4467 11.0285L13.4504 11.0267L13.4525 11.0257L13.456 11.0241L13.4582 11.023L13.4617 11.0214L13.4638 11.0205L13.4766 11.0147L13.4799 11.0131L13.4825 11.0121L13.4858 11.0105L13.4879 11.0096L13.4912 11.008L13.4936 11.0069L13.4971 11.0055L13.4992 11.0046L13.5044 11.0022L13.5064 11.0014L13.5101 10.9997L13.5122 10.9988L13.5155 10.9972L13.5179 10.9963L13.5212 10.9949L13.5233 10.9938L13.5268 10.9923L13.529 10.9914L13.5342 10.9891L13.5361 10.9882L13.5398 10.9866L13.5453 10.9841L13.5478 10.9831L13.5507 10.9818L13.5535 10.9808L13.5568 10.9792L13.5589 10.9783L13.5643 10.976L13.5655 10.9755L13.5719 10.9728L13.5754 10.9712L13.5778 10.9703L13.5813 10.9689L13.5832 10.968L13.5873 10.9663L13.5889 10.9656L13.5945 10.9633L13.5951 10.9629L13.6001 10.961L13.6019 10.9603L13.6058 10.9585L13.6077 10.9578L13.6114 10.9562L13.6136 10.9553L13.6173 10.9537L13.6192 10.953L13.6246 10.9507L13.6264 10.95L13.6303 10.9484L13.6324 10.9475L13.6359 10.9461L13.6383 10.9452L13.6416 10.9438L13.6439 10.9429L13.6476 10.9413L13.6495 10.9406L13.655 10.9383L13.6561 10.938L13.6606 10.936L13.6628 10.9353L13.6663 10.9337L13.6686 10.9328L13.6719 10.9316L13.6742 10.9307L13.6779 10.9293L13.6799 10.9284L13.6855 10.9261L13.6859 10.9259L13.6912 10.924L13.6933 10.9231L13.6966 10.9219L13.6991 10.9208L13.7024 10.9196L13.7048 10.9187L13.7081 10.9173L13.7106 10.9164L13.7145 10.9148L13.7176 10.9136L13.7215 10.9122L13.724 10.9111L13.7273 10.9099L13.7297 10.909L13.733 10.9077L13.7355 10.9069L13.739 10.9054L13.7411 10.9046L13.7456 10.903L13.7474 10.9023L13.7524 10.9003L13.7544 10.8996L13.7581 10.8982L13.7604 10.8973L13.7639 10.8959L13.766 10.8952L13.7697 10.8938L13.7719 10.8929L13.7765 10.8913L13.7777 10.8909L13.7833 10.8888L13.7851 10.8881L13.789 10.8867L13.7911 10.8858L13.7948 10.8846L13.7972 10.8837L13.8008 10.8825L13.8028 10.8817L13.8079 10.8798L13.8086 10.8796L13.8143 10.8775L13.8162 10.8768L13.8199 10.8756L13.8224 10.8745L13.8257 10.8734L13.8281 10.8726L13.8318 10.8711L13.8339 10.8704L13.8388 10.8688L13.8396 10.8685L13.8454 10.8665L13.8469 10.866L13.8514 10.8644L13.853 10.8639L13.8571 10.8623L13.8592 10.8616L13.8633 10.8604L13.865 10.8596L13.8695 10.8581L13.8709 10.8577L13.8765 10.8556L13.8781 10.8552L13.8823 10.8536L13.8845 10.8529L13.8884 10.8517L13.8942 10.8496L13.8963 10.8489L13.9008 10.8474L13.902 10.8469L13.9078 10.845L13.9094 10.8446L13.9138 10.843L13.9158 10.8423L13.9195 10.8411L13.9218 10.8404L13.9255 10.8391L13.9277 10.8384L13.9325 10.8368L13.9333 10.8365L13.9393 10.8345L13.9403 10.8342L13.9454 10.8326L13.9471 10.8319L13.9512 10.8306L13.9531 10.8299L13.9572 10.8287L13.9592 10.828L13.965 10.8262L13.971 10.8243L13.9718 10.8239L13.9769 10.8223L13.9786 10.8218L13.9827 10.8204L13.9848 10.8199L13.9887 10.8186L13.9951 10.8165L13.9967 10.8161L14.0027 10.8142L14.0103 10.8119L14.0146 10.8105L14.0165 10.81L14.0204 10.8087L14.0226 10.808L14.0268 10.8068L14.0284 10.8062L14.0344 10.8045L14.035 10.8043L14.0405 10.8027L14.042 10.8022L14.0463 10.8009L14.0484 10.8002L14.0523 10.799L14.0543 10.7985L14.0601 10.7967L14.0663 10.7949L14.0739 10.7926L14.0782 10.7914L14.0801 10.7907L14.0842 10.7896L14.0864 10.7891L14.0906 10.7877L14.0922 10.7873C14.0961 10.7861 14.1002 10.7849 14.1043 10.7838L14.1056 10.7834L14.1101 10.782L14.1122 10.7815L14.1163 10.7804L14.1183 10.7799L14.1223 10.7787L14.1243 10.7781C14.1284 10.7769 14.1323 10.7758 14.1363 10.7748L14.1377 10.7742L14.1424 10.773L14.1441 10.7725L14.1484 10.7712L14.1503 10.7709L14.155 10.7695L14.1564 10.7691L14.1686 10.7658L14.1696 10.7656L14.1747 10.7642L14.1764 10.7636L14.1809 10.7626L14.1824 10.762L14.1875 10.7608L14.1885 10.7605L14.2009 10.7571L14.2019 10.7569L14.2069 10.7555L14.2087 10.7551L14.2132 10.7539L14.2149 10.7536L14.2196 10.7523L14.2209 10.752L14.2268 10.7504H14.2272L14.2334 10.7488L14.234 10.7486L14.2394 10.7472L14.241 10.7468L14.2456 10.7456L14.2474 10.7452L14.2521 10.744L14.2534 10.7437C14.2577 10.7426 14.2618 10.7417 14.2659 10.7406L14.2665 10.7405L14.2721 10.7391L14.2733 10.7387L14.2775 10.7376C14.4631 10.6918 14.6568 10.68 14.8474 10.7026C15.0174 10.6376 15.1996 10.6026 15.384 10.5999C15.3982 10.6001 15.4116 10.6001 15.425 10.6001Z" fill="#B244F1"/>
<path d="M3.00671 22.3659C3.8117 22.365 4.46344 21.7711 4.46247 21.0393C4.46227 20.8057 4.39401 20.5764 4.26487 20.3744C3.5645 19.2803 3.73041 17.9884 3.99297 17.0976C4.85339 14.1804 7.86236 11.0799 11.8475 9.00523C17.7921 5.90942 24.6809 5.80069 26.5854 8.77555C26.9901 9.40784 27.8822 9.62231 28.5779 9.25418C29.2736 8.88624 29.5093 8.0752 29.1046 7.44274C26.3298 3.10995 17.9393 2.77949 10.3987 6.70596C5.76439 9.11839 2.23088 12.8373 1.17772 16.4117C0.595608 18.3864 0.792042 20.218 1.74563 21.7073C2.00664 22.1155 2.48703 22.3666 3.00671 22.3659Z" fill="#33527D"/>
<path d="M15.4251 13.25C15.4251 13.9818 16.0776 14.575 16.8826 14.575C17.6874 14.575 18.3399 13.9818 18.3399 13.25C18.3399 12.5183 17.6874 11.9249 16.8826 11.9249C16.0776 11.9249 15.4251 12.5183 15.4251 13.25Z" fill="#D7A5FF"/>
</svg>
