<svg width="152" height="48" viewBox="0 0 152 48" fill="none" xmlns="http://www.w3.org/2000/svg">
<rect x="0.25" y="0.25" width="151.5" height="47.5" rx="3.75" stroke="#E4E4E4" stroke-width="0.5"/>
<path d="M64.1538 24.0942V27H62.7949V19.1797H65.7866C66.6603 19.1797 67.3532 19.4071 67.8652 19.8618C68.3809 20.3166 68.6387 20.9181 68.6387 21.6665C68.6387 22.4328 68.3862 23.029 67.8813 23.4551C67.38 23.8812 66.6764 24.0942 65.7705 24.0942H64.1538ZM64.1538 23.0039H65.7866C66.27 23.0039 66.6388 22.8911 66.8931 22.6655C67.1473 22.4364 67.2744 22.1069 67.2744 21.6772C67.2744 21.2547 67.1455 20.9181 66.8877 20.6675C66.6299 20.4132 66.2754 20.2826 65.8242 20.2754H64.1538V23.0039ZM70.9912 21.8223C71.4173 21.3281 71.9562 21.0811 72.6079 21.0811C73.8468 21.0811 74.4753 21.7882 74.4932 23.2026V27H73.188V23.251C73.188 22.8499 73.1003 22.5671 72.9248 22.4023C72.7529 22.234 72.4987 22.1499 72.1621 22.1499C71.6393 22.1499 71.249 22.3826 70.9912 22.8481V27H69.686V18.75H70.9912V21.8223ZM77.8501 25.1309L79.0317 21.1885H80.4229L78.1133 27.8809C77.7588 28.8584 77.1572 29.3472 76.3086 29.3472C76.1188 29.3472 75.9093 29.3149 75.6802 29.2505V28.2407L75.9272 28.2568C76.2567 28.2568 76.5037 28.196 76.6685 28.0742C76.8368 27.9561 76.9692 27.7555 77.0659 27.4727L77.2539 26.9731L75.2129 21.1885H76.6201L77.8501 25.1309ZM84.4351 25.4209C84.4351 25.1882 84.3384 25.0109 84.145 24.8892C83.9552 24.7674 83.6383 24.66 83.1943 24.5669C82.7503 24.4738 82.3797 24.3556 82.0825 24.2124C81.4308 23.8973 81.105 23.4408 81.105 22.8428C81.105 22.3415 81.3162 21.9225 81.7388 21.5859C82.1613 21.2493 82.6984 21.0811 83.3501 21.0811C84.0448 21.0811 84.6051 21.2529 85.0312 21.5967C85.4609 21.9404 85.6758 22.3862 85.6758 22.9341H84.3706C84.3706 22.6834 84.2775 22.4757 84.0913 22.311C83.9051 22.1427 83.658 22.0586 83.3501 22.0586C83.0636 22.0586 82.8291 22.1248 82.6465 22.2573C82.4674 22.3898 82.3779 22.5671 82.3779 22.7891C82.3779 22.9896 82.4621 23.1453 82.6304 23.2563C82.7987 23.3674 83.1388 23.4801 83.6509 23.5947C84.1629 23.7057 84.564 23.84 84.854 23.9976C85.1476 24.1515 85.3643 24.3377 85.5039 24.5562C85.6471 24.7746 85.7188 25.0396 85.7188 25.3511C85.7188 25.8739 85.5021 26.2982 85.0688 26.624C84.6356 26.9463 84.068 27.1074 83.3662 27.1074C82.89 27.1074 82.4657 27.0215 82.0933 26.8496C81.7209 26.6777 81.4308 26.4414 81.2231 26.1406C81.0155 25.8398 80.9116 25.5158 80.9116 25.1685H82.1792C82.1971 25.4764 82.3135 25.7145 82.5283 25.8828C82.7432 26.0475 83.0278 26.1299 83.3823 26.1299C83.7261 26.1299 83.9875 26.0654 84.1665 25.9365C84.3455 25.804 84.4351 25.6322 84.4351 25.4209ZM88.2485 27H86.9434V21.1885H88.2485V27ZM86.8628 19.6792C86.8628 19.4787 86.9255 19.3122 87.0508 19.1797C87.1797 19.0472 87.3623 18.981 87.5986 18.981C87.835 18.981 88.0176 19.0472 88.1465 19.1797C88.2754 19.3122 88.3398 19.4787 88.3398 19.6792C88.3398 19.8761 88.2754 20.0409 88.1465 20.1733C88.0176 20.3022 87.835 20.3667 87.5986 20.3667C87.3623 20.3667 87.1797 20.3022 87.0508 20.1733C86.9255 20.0409 86.8628 19.8761 86.8628 19.6792ZM92.062 26.0654C92.3879 26.0654 92.6582 25.9705 92.873 25.7808C93.0879 25.591 93.2025 25.3564 93.2168 25.0771H94.4468C94.4325 25.4388 94.3197 25.7772 94.1084 26.0923C93.8971 26.4038 93.6107 26.6509 93.249 26.8335C92.8874 27.0161 92.4971 27.1074 92.0781 27.1074C91.2653 27.1074 90.6208 26.8442 90.1445 26.3179C89.6683 25.7915 89.4302 25.0646 89.4302 24.1372V24.0029C89.4302 23.1185 89.6665 22.4113 90.1392 21.8813C90.6118 21.3478 91.2563 21.0811 92.0728 21.0811C92.7638 21.0811 93.326 21.2834 93.7593 21.688C94.1961 22.089 94.4253 22.6172 94.4468 23.2725H93.2168C93.2025 22.9395 93.0879 22.6655 92.873 22.4507C92.6618 22.2358 92.3914 22.1284 92.062 22.1284C91.6395 22.1284 91.3136 22.2824 91.0845 22.5903C90.8553 22.8947 90.7389 23.3584 90.7354 23.9814V24.1909C90.7354 24.8211 90.8481 25.292 91.0737 25.6035C91.3029 25.9115 91.6323 26.0654 92.062 26.0654ZM98.6899 25.4209C98.6899 25.1882 98.5933 25.0109 98.3999 24.8892C98.2101 24.7674 97.8932 24.66 97.4492 24.5669C97.0052 24.4738 96.6346 24.3556 96.3374 24.2124C95.6857 23.8973 95.3599 23.4408 95.3599 22.8428C95.3599 22.3415 95.5711 21.9225 95.9937 21.5859C96.4162 21.2493 96.9533 21.0811 97.605 21.0811C98.2996 21.0811 98.86 21.2529 99.2861 21.5967C99.7158 21.9404 99.9307 22.3862 99.9307 22.9341H98.6255C98.6255 22.6834 98.5324 22.4757 98.3462 22.311C98.16 22.1427 97.9129 22.0586 97.605 22.0586C97.3185 22.0586 97.084 22.1248 96.9014 22.2573C96.7223 22.3898 96.6328 22.5671 96.6328 22.7891C96.6328 22.9896 96.717 23.1453 96.8853 23.2563C97.0535 23.3674 97.3937 23.4801 97.9058 23.5947C98.4178 23.7057 98.8188 23.84 99.1089 23.9976C99.4025 24.1515 99.6191 24.3377 99.7588 24.5562C99.902 24.7746 99.9736 25.0396 99.9736 25.3511C99.9736 25.8739 99.757 26.2982 99.3237 26.624C98.8905 26.9463 98.3229 27.1074 97.6211 27.1074C97.1449 27.1074 96.7205 27.0215 96.3481 26.8496C95.9757 26.6777 95.6857 26.4414 95.478 26.1406C95.2703 25.8398 95.1665 25.5158 95.1665 25.1685H96.4341C96.452 25.4764 96.5684 25.7145 96.7832 25.8828C96.998 26.0475 97.2827 26.1299 97.6372 26.1299C97.981 26.1299 98.2424 26.0654 98.4214 25.9365C98.6004 25.804 98.6899 25.6322 98.6899 25.4209Z" fill="black"/>
<path d="M33.4251 38.15C39.0507 38.15 43.6273 31.6117 43.6273 23.575C43.6273 15.5383 39.0507 9 33.4251 9C32.6201 9.00053 31.9679 9.59409 31.9685 10.3259C31.9691 11.057 32.6208 11.6495 33.4251 11.6501C37.3071 11.6501 40.7124 17.2223 40.7124 23.575C40.7124 29.9275 37.3071 35.4999 33.4251 35.4999C32.6201 35.4999 31.9675 36.0931 31.9675 36.825C31.9675 37.5568 32.6201 38.15 33.4251 38.15Z" fill="#163969"/>
<path d="M37.7982 36.3119C38.1819 36.3124 38.5505 36.1747 38.823 35.9289C41.7862 33.2647 43.6273 28.5309 43.6273 23.575C43.6273 18.6193 41.7862 13.8853 38.823 11.2211C38.251 10.7062 37.3281 10.7105 36.7619 11.2305C36.1958 11.7505 36.2004 12.5895 36.7724 13.1042C36.7726 13.1043 36.773 13.1047 36.7734 13.1051C39.203 15.2899 40.7124 19.3018 40.7124 23.575C40.7124 27.8482 39.203 31.8601 36.7734 34.0449C36.2012 34.5595 36.1962 35.3984 36.7621 35.9188C37.036 36.1702 37.409 36.3119 37.7982 36.3119Z" fill="#002755"/>
<path d="M38.8756 34.186C42.5599 34.186 45.6278 33.0138 47.1045 30.7073C47.5095 30.0748 47.2735 29.2638 46.5778 28.8956C45.8822 28.5277 44.99 28.742 44.5853 29.3744C42.6808 32.3474 35.7941 32.2406 29.8474 29.1448C25.8623 27.0699 22.8533 23.9696 21.9929 21.0524C21.7303 20.1616 21.5644 18.8695 22.2648 17.7756C22.6697 17.1431 22.4338 16.3321 21.7381 15.9639C21.0424 15.596 20.1503 15.8103 19.7455 16.4427C18.792 17.932 18.5953 19.7636 19.1776 21.7383C20.2308 25.3127 23.7641 29.0316 28.3984 31.444C31.9255 33.2809 35.6383 34.186 38.8756 34.186Z" fill="#5E7599"/>
<path d="M27.5936 30.7499C28.3986 30.7506 29.0517 30.1581 29.0527 29.4263C29.0531 28.9878 28.8148 28.5774 28.4163 28.3302C24.9746 26.1952 22.474 23.256 21.8917 20.6604C21.7311 19.9433 20.9613 19.4804 20.1724 19.6266C19.3836 19.7726 18.8744 20.4725 19.0352 21.1896C19.7747 24.4847 22.6675 27.9718 26.7738 30.5197C27.0152 30.6698 27.3011 30.7502 27.5936 30.7499Z" fill="#002755"/>
<path d="M36.342 33.9841C37.147 33.9832 37.7988 33.3892 37.7976 32.6573C37.7966 32.0063 37.2756 31.4524 36.5684 31.3503C34.7828 31.0929 32.9083 30.5462 31.1462 29.7684C30.4216 29.4494 29.5498 29.7251 29.199 30.3839C28.8485 31.0418 29.1506 31.8336 29.8739 32.1532C31.8437 33.0336 33.9455 33.645 36.1116 33.968C36.1878 33.9788 36.2648 33.9841 36.342 33.9841Z" fill="#163969"/>
<path d="M27.9744 34.186C31.2117 34.186 34.9244 33.2809 38.4515 31.4442C43.0858 29.0316 46.6191 25.3129 47.6724 21.7383C48.2546 19.7636 48.0581 17.9322 47.1045 16.4427C46.6996 15.8103 45.8075 15.596 45.1118 15.9641C44.4161 16.3321 44.1804 17.1431 44.5851 17.7756C45.2855 18.8697 45.1196 20.1616 44.857 21.0524C43.9966 23.9696 40.9878 27.0701 37.0025 29.1448C31.0579 32.2413 24.169 32.3493 22.2648 29.3745C21.8599 28.7422 20.9677 28.5277 20.272 28.8958C19.5763 29.2638 19.3406 30.0748 19.7454 30.7073C21.2221 33.0131 24.2908 34.186 27.9744 34.186Z" fill="#33527D"/>
<path d="M44.3902 26.2251C44.8669 26.2254 45.3136 26.0141 45.5865 25.6589C46.7181 24.1877 47.4888 22.6421 47.8148 21.1903C47.9758 20.4732 47.467 19.773 46.6782 19.6266C45.8893 19.48 45.1193 19.9427 44.9581 20.6597C44.7113 21.7597 44.1027 22.9636 43.1968 24.1412C42.7357 24.7409 42.8969 25.567 43.5566 25.9862C43.8011 26.1414 44.092 26.2247 44.3902 26.2251Z" fill="#002755"/>
<path d="M27.9418 34.1756C28.3388 34.1756 28.7443 34.162 29.158 34.1349C29.9606 34.0815 30.5643 33.4473 30.5066 32.7174C30.4488 31.9868 29.7387 31.4557 28.9473 31.4914C27.5289 31.5832 26.1939 31.4778 25.0937 31.1822C24.3219 30.9741 23.5107 31.374 23.2818 32.0756C23.0527 32.7772 23.4928 33.5147 24.2646 33.7228C24.2652 33.723 24.2659 33.7231 24.2667 33.7235C25.3841 34.0243 26.6165 34.1756 27.9418 34.1756Z" fill="#002755"/>
<path d="M33.4251 38.15C34.2301 38.1493 34.8818 37.5554 34.881 36.8236C34.8802 36.093 34.2287 35.5008 33.4251 35.4999C29.543 35.4999 26.1377 29.9277 26.1377 23.575C26.1377 17.2225 29.5428 11.6501 33.4251 11.6501C34.2301 11.6501 34.8826 11.0569 34.8826 10.325C34.8826 9.59321 34.2301 9 33.4251 9C27.7994 9 23.2227 15.5383 23.2227 23.575C23.2227 31.6117 27.7994 38.15 33.4251 38.15Z" fill="#163969"/>
<path d="M24.6801 24.9C25.4851 24.9 26.1377 24.3068 26.1377 23.575C26.1377 19.3018 27.6471 15.2899 30.0767 13.1051C30.6493 12.5907 30.6547 11.7519 30.0889 11.2314C29.5233 10.7108 28.6007 10.7059 28.0281 11.2202C28.0277 11.2204 28.0273 11.2208 28.0271 11.2211C25.0637 13.8853 23.2226 18.6191 23.2226 23.575C23.2226 24.3068 23.8751 24.9 24.6801 24.9Z" fill="#002755"/>
<path d="M45.8435 31.3659C46.3629 31.3666 46.8435 31.1155 47.1045 30.7073C48.0581 29.218 48.2546 27.3864 47.6724 25.4117C46.6191 21.8373 43.0858 18.1184 38.4515 15.706C30.9107 11.7781 22.5203 12.1094 19.7456 16.4427C19.3406 17.0752 19.5765 17.8862 20.2722 18.2544C20.9679 18.6225 21.8601 18.408 22.2648 17.7756C24.1692 14.8014 31.056 14.9089 37.0025 18.0052C40.9878 20.0801 43.9968 23.1804 44.8572 26.0976C45.1198 26.9885 45.2855 28.2805 44.5853 29.3744C44.1804 30.0071 44.4163 30.8181 45.1122 31.1861C45.3343 31.3036 45.5865 31.3655 45.8435 31.3659Z" fill="#5E7599"/>
<path d="M37.7256 18.1806C38.5304 18.1812 39.1837 17.5887 39.1844 16.8568C39.1848 16.3814 38.9052 15.9422 38.4514 15.7058C35.9991 14.4287 33.3318 13.5559 30.7385 13.182C29.9432 13.0672 29.1964 13.5603 29.0704 14.2832C28.9441 15.006 29.4864 15.6849 30.2815 15.7997C32.5296 16.1238 34.8539 16.8865 37.0025 18.0052C37.2224 18.1202 37.4718 18.1806 37.7256 18.1806Z" fill="#163969"/>
<path d="M29.0526 23.575C29.0526 25.7703 31.0102 27.5499 33.425 27.5499C35.8398 27.5499 37.7973 25.7703 37.7973 23.575C37.7973 21.3797 35.8398 19.6001 33.425 19.6001C31.0102 19.6001 29.0526 21.3797 29.0526 23.575Z" fill="#C776F6"/>
<path d="M33.425 19.6001H33.4505C33.46 19.6001 33.4696 19.6001 33.4793 19.6003H33.483C33.5042 19.6004 33.5252 19.601 33.5462 19.6015C34.3333 19.6268 34.9522 20.2216 34.9364 20.9373C34.9207 21.6656 34.2674 22.2489 33.4663 22.2501C33.4618 22.2501 33.4571 22.2501 33.4529 22.2501L33.425 22.25C33.3595 22.2494 33.2941 22.245 33.2294 22.2365C33.1679 22.2602 33.1049 22.28 33.0405 22.2958C32.2637 22.4892 31.8067 23.2184 32.0195 23.9246C32.2322 24.6306 33.0343 25.0463 33.8109 24.8528C34.219 24.7512 34.5583 24.4935 34.741 24.1466C35.0895 23.4871 35.9604 23.2094 36.6859 23.5264C37.4113 23.8434 37.7169 24.635 37.3681 25.2945C37.3269 25.3728 37.283 25.4494 37.2363 25.5247H37.2361C37.233 25.5298 37.2301 25.5346 37.2267 25.5397V25.5399C37.2213 25.5486 37.2157 25.5572 37.2102 25.5659C37.2022 25.5785 37.1943 25.5907 37.1863 25.603L37.1861 25.6032C37.1773 25.6168 37.1684 25.6303 37.1593 25.6437V25.6439C37.156 25.6487 37.1526 25.6534 37.1495 25.6582L37.1491 25.6589C37.1468 25.6623 37.1443 25.6658 37.1419 25.6693L37.1418 25.6695C37.1384 25.6745 37.1351 25.6791 37.1318 25.684V25.6842C37.1293 25.6877 37.1268 25.6913 37.1242 25.6948L37.1241 25.695C37.1207 25.6999 37.1174 25.7045 37.1141 25.7093L37.1139 25.7097C37.1081 25.718 37.1021 25.7265 37.0962 25.7348L37.096 25.7349C37.0935 25.7385 37.0912 25.742 37.0885 25.7456L37.0883 25.7457L37.0857 25.7493V25.7494C37.0832 25.753 37.0807 25.7563 37.0782 25.7597L37.0778 25.7604L37.0677 25.7742L37.0671 25.7751L37.0597 25.785L37.0593 25.7855L37.057 25.7889L37.049 25.7995L37.0488 25.7997C37.0463 25.8032 37.0437 25.8066 37.0412 25.8099L37.0408 25.8104L37.0383 25.8138C37.0356 25.8173 37.0332 25.8207 37.0305 25.8242L37.0301 25.8248C37.0276 25.8281 37.0251 25.8315 37.0225 25.8348L37.0221 25.8352L37.0196 25.8384L37.0192 25.8391L37.0116 25.8488L37.0111 25.8495L37.0087 25.8527V25.8529L37.0037 25.8592L37.0031 25.8601L37.0007 25.863L37 25.864C36.9976 25.8672 36.9951 25.8702 36.9928 25.8734L36.992 25.8743C36.9895 25.8775 36.9869 25.8806 36.9846 25.8838L36.9817 25.8874L36.9807 25.8886L36.9735 25.8978L36.9727 25.8988L36.9704 25.9017L36.9696 25.9027L36.9652 25.9084L36.9646 25.9089L36.9622 25.9119L36.9615 25.9128C36.9591 25.916 36.9566 25.919 36.9541 25.922L36.9533 25.9231L36.951 25.9259L36.9504 25.9268L36.9428 25.936L36.942 25.937L36.9344 25.9464L36.9338 25.9471L36.9313 25.9501L36.9307 25.9508L36.923 25.9602L36.9222 25.9611L36.9198 25.9641L36.9195 25.9646L36.9148 25.9701L36.9138 25.9712L36.9115 25.974L36.9107 25.9751L36.9033 25.9839L36.9021 25.9851L36.9 25.9878L36.899 25.9888L36.8948 25.994L36.8938 25.995L36.8918 25.9977L36.8903 25.9993L36.8883 26.0018L36.8881 26.0019L36.8833 26.0076L36.8821 26.009L36.8798 26.0117L36.8786 26.0131L36.8747 26.0177L36.8736 26.0189L36.8714 26.0216L36.8702 26.0228L36.8681 26.0254L36.8669 26.0265L36.8629 26.0315L36.8617 26.0327L36.8595 26.0352L36.8584 26.0366L36.8543 26.0412L36.8531 26.0424L36.851 26.0449L36.8498 26.0463L36.8475 26.0488L36.8463 26.0504L36.8426 26.0544L36.8413 26.056L36.8391 26.0585L36.8378 26.0599C36.8352 26.0628 36.8329 26.0656 36.8304 26.0684L36.8294 26.0695L36.8269 26.0723L36.8261 26.0732L36.8218 26.078L36.8205 26.0794L36.8183 26.0818L36.8171 26.0831C36.8146 26.0861 36.8123 26.0887 36.8096 26.0916L36.8084 26.093L36.8061 26.0955L36.8051 26.0965L36.8004 26.1017L36.7996 26.1025L36.7975 26.105L36.7961 26.1066L36.7938 26.1089L36.7932 26.1098L36.7886 26.1147L36.7874 26.1162L36.7853 26.1184L36.7839 26.12L36.78 26.1243L36.7786 26.1257L36.7765 26.128L36.7749 26.1298L36.773 26.1319L36.7711 26.1338L36.7677 26.1375L36.7662 26.1391L36.7641 26.1414L36.7625 26.143L36.7594 26.1464L36.7574 26.1487L36.7553 26.1508L36.7537 26.1526L36.7518 26.1547L36.7497 26.1568L36.7448 26.1621L36.7429 26.1641L36.7411 26.166L36.7392 26.1681L36.736 26.1715L36.7339 26.1736L36.7324 26.1752L36.7302 26.1775L36.7283 26.1795L36.7257 26.1823L36.7232 26.1848L36.7215 26.1865L36.7193 26.1888L36.7178 26.1906L36.7143 26.1941L36.7127 26.1957L36.7104 26.1982L36.7088 26.1998L36.7065 26.2023L36.7047 26.204L36.7014 26.2074L36.6999 26.209L36.6975 26.2113L36.6958 26.213L36.6929 26.2162L36.6909 26.2182L36.6888 26.2205L36.6868 26.2222L36.6845 26.2247L36.6831 26.2261L36.6779 26.2314L36.6758 26.2336L36.674 26.2353L36.6717 26.2378L36.6688 26.2408L36.6668 26.2426L36.6649 26.2447L36.6631 26.2465L36.661 26.2486L36.6577 26.2518L36.6518 26.2576L36.6495 26.2599L36.647 26.2624L36.6446 26.2647L36.6388 26.2705L36.6355 26.2739L36.6336 26.2756L36.6297 26.2795L36.6275 26.2815L36.6248 26.2843L36.6223 26.2868L36.6205 26.2885L36.6164 26.2923L36.6131 26.2954L36.6112 26.2972L36.609 26.2995L36.6071 26.3013L36.6048 26.3036L36.6032 26.305L36.5997 26.3085L36.598 26.3101L36.5956 26.3124L36.5939 26.314L36.5915 26.3163L36.5884 26.3193L36.5865 26.3211L36.5845 26.323L36.5822 26.325L36.5805 26.3267L36.577 26.3301L36.575 26.3317L36.5729 26.3338L36.5711 26.3356L36.5684 26.3381L36.5661 26.3403L36.5635 26.3426L36.5616 26.3446L36.5594 26.3465L36.5577 26.3483L36.5542 26.3515L36.5521 26.3533L36.5499 26.3554L36.5482 26.357L36.5454 26.3596L36.5363 26.3679L36.5346 26.3697L36.5293 26.3745L36.5268 26.3766L36.5225 26.3805L36.5206 26.3824L36.4939 26.4067L36.4925 26.4077L36.4834 26.416L36.4801 26.4189L36.4743 26.4242L36.4704 26.4275L36.4688 26.4288L36.4614 26.4355L36.4597 26.4367L36.4564 26.4397L36.455 26.4411L36.4521 26.4436L36.4507 26.4447L36.4466 26.4482L36.4453 26.4494L36.4424 26.4519L36.4408 26.4533L36.4373 26.4562L36.4367 26.4569L36.4326 26.4604L36.4313 26.4616L36.4282 26.4643L36.4268 26.4654L36.4227 26.4689L36.4216 26.4698L36.4184 26.4724L36.4169 26.4738L36.4138 26.4765L36.4126 26.4774L36.4085 26.4809L36.4074 26.482L36.4042 26.4845L36.4027 26.4859L36.3986 26.4892L36.3978 26.4899L36.3943 26.4929L36.393 26.494L36.3897 26.4968L36.3887 26.4977L36.3844 26.5012L36.3832 26.5021L36.3799 26.505L36.3788 26.506L36.3747 26.5094L36.3741 26.5099L36.3702 26.5131L36.3687 26.5143L36.3657 26.5168L36.3642 26.518L36.3601 26.5214L36.3589 26.5225L36.3558 26.5249L36.3545 26.5262L36.3504 26.5295L36.3502 26.5297L36.3457 26.5333L36.3445 26.5343L36.341 26.5371L36.3401 26.5378L36.3356 26.5414L36.3348 26.5421L36.3313 26.5451L36.33 26.5462L36.3263 26.5492L36.3257 26.5497L36.3212 26.5532L36.3165 26.5568L36.3156 26.5578L36.3111 26.5614H36.3109L36.3066 26.5647L36.3053 26.5658L36.3016 26.5688L36.301 26.5693L36.2963 26.5729L36.2955 26.5736L36.2918 26.5766L36.2909 26.5773L36.2864 26.5808L36.286 26.5812L36.2817 26.5845L36.2807 26.5852L36.2769 26.5884L36.2761 26.5889L36.2714 26.5925L36.271 26.5928L36.2667 26.5962L36.266 26.5969C36.2629 26.5992 36.2599 26.6015 36.2568 26.604L36.2558 26.6047L36.252 26.6077L36.251 26.6084L36.2465 26.6119L36.2459 26.6125L36.2418 26.6155L36.2409 26.6162L36.2364 26.6197H36.2362L36.2315 26.6232L36.2308 26.624L36.2269 26.6268L36.2259 26.6277L36.2212 26.631L36.2208 26.6314L36.2168 26.6346L36.2156 26.6354L36.2115 26.6385L36.2109 26.6388L36.2064 26.6423L36.2006 26.6468L36.1959 26.6501V26.6503L36.1915 26.6535L36.1903 26.6544L36.1864 26.6572L36.1856 26.6579L36.181 26.6614L36.1804 26.6618L36.1763 26.6648L36.1751 26.6657C36.172 26.668 36.1691 26.6701 36.1658 26.6724L36.1648 26.6733L36.1607 26.6761L36.1602 26.6766L36.1553 26.6802L36.1551 26.6804L36.1504 26.6837L36.1499 26.6842C36.1465 26.6865 36.1432 26.6888 36.1399 26.6911L36.1395 26.6917L36.1351 26.6947L36.1345 26.6952L36.1296 26.6987H36.1294L36.125 26.7021L36.1238 26.7028L36.1193 26.7062H36.1191L36.1143 26.7097L36.1135 26.7102L36.1092 26.7132L36.1086 26.7138L36.1036 26.7173L36.0987 26.7207L36.0981 26.7212L36.0933 26.7246L36.0882 26.7281L36.0878 26.7285L36.0833 26.7315L36.0826 26.7322C36.0793 26.7343 36.0761 26.7366 36.0728 26.7389L36.0719 26.7394L36.0676 26.7426L36.0672 26.7428L36.0619 26.7463L36.0617 26.7465L36.0571 26.7497L36.0565 26.7502L36.0464 26.7569L36.0458 26.7575L36.0413 26.7605L36.0407 26.761C36.0374 26.7631 36.0339 26.7654 36.0306 26.7677L36.03 26.7681L36.0199 26.7748L36.0193 26.7753L36.0149 26.7783L36.0143 26.7787L36.0042 26.7854L36.0036 26.7857L35.9985 26.7891L35.9933 26.7925L35.9929 26.7928L35.9882 26.7958L35.9876 26.7962L35.9775 26.8029L35.977 26.8032C35.9734 26.8055 35.9701 26.8077 35.9666 26.81L35.9664 26.8101L35.9616 26.8133L35.961 26.8137L35.9509 26.8202L35.9501 26.8207L35.9454 26.8238L35.9451 26.8239C35.9416 26.8262 35.9382 26.8284 35.9347 26.8305L35.934 26.831L35.9237 26.8375L35.9233 26.8377L35.9182 26.8411L35.9075 26.8478L35.9073 26.848L35.8966 26.8545L35.8964 26.8547L35.8914 26.8579L35.891 26.8582C35.8875 26.8604 35.884 26.8625 35.8805 26.8646L35.8801 26.865L35.8748 26.8681L35.8696 26.8715L35.869 26.8718L35.8641 26.8747L35.8638 26.875L35.8533 26.8814L35.8529 26.8816C35.8476 26.8848 35.842 26.8881 35.8367 26.8913L35.8363 26.8915L35.8258 26.8978L35.8254 26.8982L35.8202 26.9012L35.82 26.9014L35.8093 26.9077L35.8089 26.9079C35.8035 26.9111 35.798 26.9145 35.7926 26.9176H35.7924L35.7815 26.924L35.7813 26.9242C35.7757 26.9274 35.7704 26.9305 35.7648 26.9337C35.7611 26.9359 35.7574 26.938 35.7537 26.9401V26.9403C35.748 26.9433 35.7426 26.9466 35.7371 26.9496L35.7368 26.9498C35.7331 26.9519 35.7294 26.9539 35.7257 26.956V26.9562C35.72 26.9592 35.7146 26.9624 35.7089 26.9656H35.7087C35.7051 26.9677 35.7014 26.9696 35.6977 26.9717L35.6975 26.9719L35.6922 26.9748L35.6916 26.9751L35.6809 26.9809L35.6804 26.9813C35.6749 26.9843 35.6693 26.9873 35.6636 26.9903L35.6523 26.9965C35.6467 26.9995 35.6411 27.0025 35.6356 27.0055L35.6352 27.0057C35.6315 27.0078 35.6278 27.0096 35.6241 27.0117L35.6238 27.0119C35.6181 27.0149 35.6127 27.0177 35.607 27.0207L35.6068 27.0209L35.5956 27.0267H35.5954C35.5897 27.0297 35.5841 27.0326 35.5784 27.0356L35.5779 27.0358L35.5668 27.0416H35.5666L35.5609 27.0444C35.557 27.0464 35.5533 27.0483 35.5495 27.0503L35.5493 27.0504C35.5434 27.0534 35.538 27.0561 35.5323 27.0591H35.532C35.5281 27.061 35.5244 27.063 35.5205 27.0649C35.5146 27.0678 35.509 27.0706 35.5032 27.0734L35.503 27.0736C35.4991 27.0755 35.4954 27.0773 35.4915 27.0792L35.4857 27.0821C35.4818 27.084 35.4781 27.0858 35.4742 27.0877H35.474C35.4701 27.0897 35.4662 27.0914 35.4623 27.0934H35.4621C35.4563 27.0962 35.4507 27.0989 35.4448 27.1017L35.4446 27.1019C35.4388 27.1045 35.4332 27.1074 35.4271 27.11L35.4269 27.1102C35.4232 27.112 35.4193 27.1137 35.4155 27.1155L35.4151 27.1157C35.4092 27.1185 35.4034 27.1212 35.3978 27.1238H35.3976C35.3878 27.1284 35.3779 27.1328 35.3682 27.1372L35.3678 27.1374C35.3637 27.1392 35.36 27.141 35.3561 27.1427H35.3559C35.3501 27.1454 35.3443 27.148 35.3382 27.1505L35.338 27.1507C35.3342 27.1524 35.3303 27.154 35.3264 27.1558L35.3262 27.156L35.3205 27.1585L35.3202 27.1586C35.3163 27.1604 35.3126 27.162 35.3085 27.1636L35.3081 27.1638L35.2964 27.1689H35.2962L35.2906 27.1714L35.2902 27.1715L35.2783 27.1767H35.2781C35.2622 27.1836 35.2462 27.1901 35.2301 27.1968C35.22 27.2011 35.2101 27.2051 35.2 27.2092H35.1998C35.1897 27.2133 35.1795 27.2173 35.1694 27.2214H35.1692C35.1632 27.2239 35.1574 27.2262 35.1513 27.2285L35.1508 27.2287C35.1471 27.2302 35.143 27.2318 35.1391 27.2333L35.1385 27.2334L35.1329 27.2357H35.1327C35.1286 27.2373 35.1247 27.2389 35.1206 27.2403L35.1204 27.2405C35.1163 27.2421 35.1122 27.2435 35.1082 27.2451L35.1023 27.2474H35.1019L35.0901 27.252L35.0895 27.2522C35.0856 27.2536 35.0815 27.2552 35.0776 27.2566L35.0772 27.2568L35.0714 27.2589H35.0712C35.0671 27.2605 35.0632 27.2619 35.0591 27.2635H35.0588C35.0527 27.2658 35.0467 27.2679 35.0405 27.2702H35.0403C35.0364 27.2718 35.0323 27.2732 35.0282 27.2746L35.0276 27.2748C35.0216 27.2771 35.0156 27.2792 35.0096 27.2813H35.0092C34.9991 27.2851 34.9887 27.2886 34.9784 27.2921L34.978 27.2923C34.9677 27.2958 34.9572 27.2994 34.9469 27.3029H34.9467C34.9407 27.305 34.9347 27.3072 34.9285 27.3091L34.9279 27.3093L34.9158 27.3133L34.9152 27.3135C34.909 27.3156 34.903 27.3176 34.8967 27.3195L34.8966 27.3197C34.8925 27.321 34.8884 27.3224 34.8841 27.3236L34.8839 27.3238L34.8779 27.3257L34.8654 27.3296L34.8649 27.3298L34.8528 27.3337L34.8464 27.3356L34.8462 27.3358C34.8421 27.337 34.8378 27.3383 34.8337 27.3395L34.8332 27.3397L34.8209 27.3436H34.8207L34.8014 27.3494C34.7954 27.3514 34.789 27.3531 34.7828 27.3551H34.7824C34.7783 27.3563 34.7742 27.3576 34.7699 27.3588H34.7697C34.7635 27.3607 34.7571 27.3625 34.7511 27.3643L34.7505 27.3644L34.738 27.368L34.7316 27.3699H34.7314L34.7188 27.3735L34.7184 27.3736L34.7058 27.3772L34.6995 27.3788L34.6991 27.3789C34.6949 27.38 34.691 27.3812 34.6867 27.3823L34.6861 27.3825C34.6756 27.3853 34.6647 27.3883 34.6542 27.3911H34.654C34.6476 27.3927 34.6414 27.3945 34.635 27.3961L34.6346 27.3963C34.6305 27.3973 34.6262 27.3984 34.6219 27.3995L34.6215 27.3996C34.6151 27.4012 34.6089 27.4028 34.6025 27.4046H34.6023C34.5978 27.4056 34.5937 27.4067 34.5895 27.4078L34.5893 27.4079L34.583 27.4094L34.5826 27.4095C34.5786 27.4104 34.5743 27.4115 34.57 27.4125L34.5694 27.4127L34.5568 27.4159H34.5566L34.5506 27.4173L34.55 27.4175C34.5459 27.4186 34.5416 27.4194 34.5375 27.4205L34.5367 27.4207L34.5307 27.4221L34.5181 27.4251L34.5173 27.4253L34.5049 27.4283L34.5041 27.4285L34.4982 27.4297L34.4978 27.4299L34.4914 27.4313H34.4912L34.4852 27.4327L34.4846 27.4329C34.4803 27.4338 34.4761 27.4346 34.472 27.4357L34.4712 27.4359L34.4656 27.4369L34.4516 27.4401L34.4391 27.4428L34.4381 27.443L34.4325 27.4442L34.4319 27.4444L34.4195 27.447L34.4185 27.4472L34.4127 27.4484H34.4123L34.4053 27.45L34.3998 27.4511L34.3989 27.4514C34.3946 27.4521 34.3905 27.453 34.3864 27.4539L34.3854 27.4541L34.3796 27.4553H34.3792C34.3749 27.4562 34.3708 27.4571 34.3664 27.4578L34.3656 27.458L34.3531 27.4606L34.3522 27.4608L34.3467 27.4619L34.3458 27.462L34.3395 27.4633H34.3393L34.3335 27.4643L34.3323 27.4647L34.3263 27.4658H34.3261L34.3199 27.467L34.3189 27.4672L34.3137 27.4682L34.3125 27.4684L34.3063 27.4695L34.3059 27.4697L34.3002 27.4707L34.2989 27.4709L34.2934 27.4719L34.2929 27.4721L34.2866 27.4732L34.2855 27.4734L34.2804 27.4742L34.279 27.4746L34.2668 27.4767L34.2654 27.4769L34.26 27.478L34.2594 27.4781L34.2532 27.4792L34.2522 27.4794L34.2468 27.4803L34.2456 27.4804L34.2331 27.4826L34.2322 27.4827L34.2265 27.4838H34.2258L34.2131 27.4859L34.2119 27.4861C34.2077 27.4868 34.2038 27.4875 34.1995 27.4882L34.1983 27.4884L34.1931 27.4893L34.1919 27.4895L34.1857 27.4903L34.1853 27.4905L34.1795 27.4914L34.1781 27.4916L34.1727 27.4925L34.1719 27.4926L34.1657 27.4935L34.1647 27.4937L34.1594 27.4944L34.1581 27.4946C34.154 27.4953 34.1499 27.496 34.1458 27.4965L34.1445 27.4967L34.1386 27.4976H34.1382L34.1318 27.4986H34.131L34.1254 27.4995L34.1242 27.4997L34.1116 27.5015L34.1106 27.5017L34.105 27.5024L34.1042 27.5025L34.0978 27.5034L34.097 27.5036L34.0918 27.5043L34.09 27.5045L34.0777 27.5061L34.0766 27.5063L34.0711 27.5071H34.0702L34.0637 27.508H34.0636L34.0575 27.5089L34.0564 27.5091L34.0503 27.5098H34.0499L34.0437 27.5107L34.0425 27.5108L34.0373 27.5114L34.0359 27.5116L34.0297 27.5124L34.0235 27.5131L34.0221 27.5133L34.0163 27.514L34.0159 27.5142L34.0095 27.5149L34.0085 27.5151L34.0033 27.5156L34.0019 27.5158L33.9893 27.5174H33.9881L33.9826 27.5181L33.9817 27.5183L33.9754 27.519H33.9745L33.9677 27.5199L33.9552 27.5213L33.9535 27.5215L33.9484 27.522L33.9472 27.5222L33.941 27.5227L33.9402 27.5229L33.9348 27.5234L33.9332 27.5236L33.9276 27.5243H33.9268L33.9206 27.5248L33.9192 27.525L33.9142 27.5255L33.9128 27.5257L33.9004 27.5269L33.8934 27.5276H33.8924L33.8862 27.5284H33.8848L33.8798 27.5289L33.8782 27.5291L33.872 27.5296L33.8714 27.5298L33.8658 27.5303H33.8642L33.8589 27.5308H33.8578L33.8516 27.5315H33.8504L33.8453 27.5321H33.8436L33.8311 27.5331L33.8296 27.5333L33.8243 27.5338H33.8232L33.8169 27.5344H33.8158L33.8107 27.5349H33.8092L33.8033 27.5354H33.8027L33.7965 27.536L33.795 27.5361L33.7899 27.5365H33.7885L33.7823 27.537H33.7813L33.7761 27.5375H33.7743L33.7689 27.5381H33.7681L33.7619 27.5384L33.7601 27.5386L33.7553 27.539L33.7537 27.5391L33.7473 27.5395L33.7411 27.5398L33.7395 27.54L33.7343 27.5404H33.7331L33.7269 27.5409H33.7257L33.7203 27.5413H33.7189L33.7063 27.542L33.7047 27.5421L33.6995 27.5423L33.6983 27.5425L33.6921 27.5429H33.6907L33.6855 27.5432H33.6839L33.6781 27.5436H33.6777L33.6713 27.5439L33.6697 27.5441L33.6647 27.5443L33.6633 27.5444L33.6571 27.5448H33.6557L33.6508 27.545L33.6487 27.5451L33.6436 27.5453H33.6425L33.6365 27.5457H33.6347L33.6298 27.5459L33.6283 27.546L33.6221 27.5462H33.6209L33.6156 27.5466H33.6139L33.6086 27.5467H33.6077L33.6012 27.5471H33.5999L33.595 27.5473H33.5931C33.589 27.5474 33.5847 27.5476 33.5806 27.5476L33.5789 27.5478L33.5736 27.548H33.5725L33.5662 27.5482H33.5647L33.5596 27.5483H33.5581L33.5452 27.5487L33.5435 27.5489H33.5369L33.5308 27.549H33.5295L33.5244 27.5492H33.5225L33.517 27.5494H33.5083L33.5032 27.5496H33.5019L33.4954 27.5497H33.4875L33.4822 27.5499H33.4665L33.46 27.5501H33.4248C31.0099 27.5501 29.0523 25.7705 29.0523 23.5752V23.5428L29.0525 23.537V23.5227L29.0527 23.5188V23.5108L29.0529 23.505V23.503L29.0531 23.499V23.493L29.0533 23.4908V23.4847L29.0535 23.4799V23.4788L29.0537 23.473V23.467L29.0539 23.4647V23.461L29.0541 23.4587V23.4528L29.0543 23.4479L29.0544 23.4468L29.0546 23.441V23.4394L29.0548 23.435V23.4328L29.055 23.429V23.4268L29.0552 23.4229L29.0554 23.4208L29.0556 23.416V23.415L29.0558 23.409V23.4076L29.056 23.403L29.0562 23.4012L29.0564 23.3973L29.0566 23.395L29.0568 23.3911V23.389L29.057 23.3846L29.0572 23.3832L29.0574 23.3773L29.0576 23.3757L29.0578 23.3715V23.3692L29.0579 23.3655L29.0581 23.3632L29.0583 23.3593L29.0585 23.3573L29.0587 23.3529L29.0589 23.3513L29.0591 23.3455L29.0593 23.3441L29.0595 23.3397L29.0597 23.3375L29.0599 23.3337L29.0601 23.3315L29.0603 23.3276L29.0605 23.3257L29.0609 23.3211V23.3197L29.0613 23.3139L29.0615 23.3126L29.0616 23.3078L29.0622 23.302V23.2999L29.0626 23.296L29.0628 23.2939L29.0632 23.2898V23.288L29.0638 23.2822V23.2808L29.0642 23.2764L29.0644 23.2742L29.0646 23.2707L29.0648 23.2681L29.0651 23.2647L29.0653 23.2622L29.0659 23.2564L29.0663 23.2507L29.0665 23.2491L29.0669 23.2449L29.0671 23.2426L29.0675 23.2389L29.0677 23.2368L29.0681 23.2329L29.0683 23.2307L29.0686 23.2267L29.0688 23.2249L29.0694 23.2191V23.2182L29.07 23.2132L29.0702 23.2115L29.0706 23.2074L29.0708 23.2053L29.0712 23.2016L29.0714 23.1993L29.0725 23.1876V23.1873L29.0731 23.1819L29.0735 23.1798L29.0739 23.1761L29.0741 23.1738L29.0745 23.1703L29.0749 23.1678L29.0753 23.1641L29.0755 23.162L29.076 23.1567V23.1561L29.0768 23.1505L29.077 23.1487L29.0774 23.1446L29.0776 23.1425L29.0782 23.1386L29.0788 23.1328L29.079 23.1307L29.0797 23.1257V23.125L29.0805 23.1194L29.0807 23.1171L29.0811 23.1135L29.0815 23.111L29.0819 23.1077L29.0823 23.1052L29.0826 23.1017L29.083 23.0994L29.0834 23.0951L29.0836 23.0935L29.0844 23.0879L29.0848 23.0861L29.0852 23.0822L29.0856 23.0799L29.0862 23.0764L29.0863 23.0741L29.0869 23.0704L29.0871 23.0683L29.0879 23.0637V23.0626L29.0889 23.0568L29.0891 23.055L29.0897 23.0511L29.0898 23.0488L29.0904 23.0453L29.0908 23.043L29.0914 23.0393L29.0916 23.0373L29.0924 23.0329L29.0933 23.0258L29.0935 23.0241L29.0941 23.0202L29.0945 23.0179L29.0951 23.0143L29.0955 23.012L29.0961 23.0083L29.0963 23.0062L29.097 23.002L29.0972 23.0005L29.0982 22.9949L29.0984 22.9931L29.0992 22.989L29.0994 22.9871L29.1002 22.9832L29.1003 22.9811L29.1011 22.9776L29.1015 22.9753L29.1021 22.9717L29.1023 22.9694L29.1033 22.9639L29.1037 22.9625L29.1042 22.9583L29.1046 22.9562L29.1052 22.9524L29.1056 22.9503L29.1062 22.9466L29.1066 22.9447L29.1073 22.9401L29.1075 22.9388L29.1087 22.9332V22.9321L29.1097 22.9273L29.1101 22.9256L29.1107 22.9217L29.111 22.9196L29.1118 22.9158L29.112 22.9139L29.1128 22.9095L29.1132 22.9081L29.1142 22.9022L29.1153 22.8966L29.1157 22.8948L29.1163 22.8909L29.1167 22.8888L29.1175 22.8851L29.1179 22.8831L29.1186 22.8791L29.119 22.8773L29.12 22.8718L29.1204 22.8704L29.1212 22.866L29.1215 22.864L29.1223 22.8603L29.1227 22.858L29.1235 22.8545L29.1239 22.8524L29.1247 22.8487L29.125 22.8467L29.1262 22.8411L29.1264 22.8403L29.1274 22.8354L29.1278 22.8333L29.1285 22.8297L29.1291 22.8274L29.1297 22.8241L29.1303 22.8218L29.1311 22.8181L29.1315 22.8161L29.1324 22.8114L29.133 22.8091L29.1338 22.805L29.1342 22.8027L29.135 22.7993L29.1356 22.7969L29.1363 22.7937L29.1369 22.7912L29.1375 22.7878L29.1381 22.7855L29.1391 22.7809L29.1396 22.779L29.1404 22.7746L29.141 22.7721L29.1418 22.7689L29.1424 22.7664L29.1431 22.7633L29.1435 22.7608L29.1443 22.7574L29.1449 22.7553L29.1462 22.7491L29.1474 22.7442L29.148 22.7422L29.1488 22.7385L29.1494 22.7362L29.1501 22.7328L29.1507 22.7305L29.1515 22.7272L29.1521 22.7249L29.1531 22.7205L29.1532 22.7194L29.1546 22.7139L29.1552 22.712L29.156 22.7084L29.1566 22.7061L29.1573 22.7028L29.1579 22.7005L29.1589 22.697L29.1593 22.6948L29.1604 22.6906L29.1606 22.6894L29.162 22.6839L29.1626 22.6819L29.1634 22.6784L29.1641 22.6759L29.1649 22.6727L29.1655 22.6704L29.1663 22.6669L29.1669 22.6648L29.1682 22.66V22.6595L29.1698 22.6538L29.1702 22.652L29.1711 22.6482L29.1717 22.646L29.1727 22.6427L29.1733 22.6404L29.1743 22.637L29.1748 22.6347L29.1758 22.6312L29.1762 22.6292L29.1778 22.6239L29.1781 22.6222L29.1793 22.6183L29.1797 22.6163L29.1807 22.6126L29.1813 22.6105L29.1822 22.6071L29.1828 22.6048L29.184 22.6008L29.1844 22.5995L29.1859 22.594L29.1863 22.5923L29.1875 22.5884L29.1881 22.5863L29.1888 22.5829L29.1896 22.5808L29.1906 22.5771L29.1912 22.5751L29.1923 22.5711L29.1927 22.5696L29.1943 22.5642L29.1947 22.5628L29.196 22.5587L29.1982 22.5509L29.1991 22.5475L29.1999 22.5454L29.2011 22.5414L29.2015 22.5399L29.203 22.5345L29.2034 22.533L29.2048 22.529L29.2054 22.527L29.2063 22.5233L29.2071 22.5212L29.2081 22.5177L29.2087 22.5157L29.2098 22.512L29.2104 22.5102L29.212 22.5048L29.2124 22.5037L29.2137 22.4993L29.2143 22.4973L29.2155 22.4938L29.2161 22.4917L29.217 22.4885L29.2178 22.486L29.219 22.4827L29.2196 22.4807L29.2213 22.4754L29.2217 22.474L29.2231 22.4699L29.2237 22.4678L29.2246 22.4644L29.2254 22.4623L29.2266 22.4588L29.2272 22.4568L29.2283 22.4531L29.2291 22.4514L29.2307 22.4459L29.2309 22.4453L29.2324 22.4406L29.2332 22.4386L29.2344 22.4351L29.2349 22.433L29.2361 22.4296L29.2367 22.4275L29.238 22.4238L29.2384 22.4222L29.2404 22.4167L29.2406 22.416L29.2421 22.4112L29.2427 22.4095L29.2441 22.4057L29.2447 22.4036L29.2458 22.4003L29.2466 22.3981L29.2476 22.3951L29.2493 22.3923L29.2507 22.3884L29.2515 22.3861L29.253 22.3819L29.2538 22.3796L29.2548 22.3764L29.2556 22.3741L29.2567 22.3711L29.2575 22.3686L29.2594 22.3633L29.2608 22.3594L29.2616 22.3569L29.2631 22.3527L29.2637 22.3506L29.2649 22.3474L29.2657 22.3451L29.267 22.3417L29.2678 22.3396L29.269 22.3363L29.2697 22.3343L29.2711 22.3302L29.2717 22.3288L29.2734 22.3237L29.2742 22.3216L29.2754 22.3182L29.2764 22.3159L29.2775 22.3129L29.2783 22.3104L29.2795 22.3074L29.2816 22.3016L29.2824 22.2997L29.2841 22.2947L29.2849 22.2928L29.2863 22.2894L29.2871 22.2871L29.289 22.2818L29.2904 22.2786L29.2911 22.2763L29.295 22.2657L29.2956 22.2643L29.2972 22.2606L29.2991 22.2553L29.3001 22.253L29.302 22.2477L29.3036 22.2438L29.3042 22.2424L29.3063 22.2371L29.3069 22.2355L29.3083 22.2319L29.3092 22.2296L29.3104 22.2265L29.3114 22.2242L29.3125 22.2213L29.3135 22.2189L29.3155 22.2135L29.3176 22.2086L29.3184 22.2063L29.3197 22.2033L29.3205 22.201L29.3219 22.198L29.3228 22.1957L29.324 22.1927L29.3248 22.1904L29.3263 22.187L29.3271 22.1851L29.3291 22.1801L29.3298 22.178L29.3312 22.1748L29.3322 22.1725L29.3333 22.1695L29.3345 22.167L29.3357 22.1644L29.3367 22.1619L29.338 22.1587L29.3388 22.1566L29.3409 22.1517L29.3415 22.1501L29.3431 22.1464L29.344 22.1442L29.3454 22.1412L29.3464 22.1388L29.3475 22.1359L29.3485 22.1336L29.3499 22.1306L29.3509 22.1283L29.353 22.1234L29.3538 22.1214L29.3553 22.1181L29.3563 22.1158L29.3575 22.1128L29.3584 22.1105L29.3598 22.1076L29.3608 22.1053L29.3621 22.1022L29.3631 22.1L29.365 22.0954L29.366 22.0933L29.3676 22.09L29.3687 22.0875L29.3699 22.0848L29.3711 22.0824L29.3722 22.0795L29.3732 22.0772L29.3746 22.0744L29.3756 22.0719L29.3771 22.0684L29.3787 22.0652L29.38 22.062L29.3812 22.0595L29.3824 22.0567L29.3847 22.0518L29.3861 22.0489L29.3872 22.0465L29.3884 22.0438L29.3899 22.0406L29.3915 22.0371L29.3929 22.0339L29.3942 22.0313L29.3952 22.029L29.3966 22.0259L29.3977 22.0238L29.3989 22.021L29.4001 22.0185L29.4012 22.0159L29.4026 22.013L29.4045 22.0092L29.4059 22.0061L29.4073 22.0035L29.4084 22.0008L29.4108 21.9959L29.4121 21.9932L29.4133 21.9906L29.4146 21.9881L29.4158 21.9853L29.4178 21.9816L29.4193 21.9782L29.4205 21.9759L29.4218 21.9731L29.423 21.9708L29.4244 21.968L29.4255 21.9657L29.4269 21.9628L29.4281 21.9605L29.4294 21.9577L29.4312 21.9542L29.4327 21.9508L29.4341 21.9482L29.4353 21.9457L29.4366 21.9428L29.4376 21.9407L29.4392 21.9377L29.4403 21.9356L29.4417 21.9328L29.4428 21.9301L29.4444 21.9273L29.4465 21.923L29.4489 21.9181L29.4502 21.9154L29.4514 21.9131L29.4528 21.9105L29.4541 21.908L29.4555 21.9054L29.4567 21.9031L29.4596 21.8972L29.4604 21.8958L29.4617 21.8932L29.4629 21.8907L29.4642 21.888L29.4654 21.8857L29.467 21.8829L29.4681 21.8806L29.4695 21.878L29.4707 21.8758L29.4759 21.8656L29.4786 21.8606L29.4798 21.8583L29.4812 21.8557L29.4823 21.8534L29.4839 21.8507L29.4851 21.8484L29.4864 21.8458L29.4889 21.8412L29.4901 21.8389L29.4917 21.8361L29.493 21.8338L29.4944 21.8313L29.4957 21.8286L29.5 21.8208L29.501 21.8189L29.5037 21.8141L29.5049 21.8118L29.5063 21.8092L29.5078 21.8067L29.5092 21.8042L29.5103 21.8018L29.5119 21.7991L29.5131 21.7968L29.5158 21.7919L29.5183 21.7874L29.5197 21.7851L29.5212 21.7821L29.5224 21.7798L29.5239 21.7772L29.5253 21.7749L29.5267 21.7722L29.5282 21.7697L29.5294 21.7675L29.531 21.7648L29.5325 21.762L29.5348 21.7579L29.5362 21.7554L29.5378 21.7528L29.5391 21.7503L29.5405 21.748L29.5418 21.7453L29.5432 21.7431L29.5448 21.7404L29.5461 21.7381L29.5479 21.7351L29.55 21.7312L29.5516 21.7286L29.5529 21.7261L29.5543 21.7238L29.5558 21.7211L29.5572 21.7188L29.5588 21.7164L29.5615 21.7114L29.5634 21.7082L29.5654 21.7047L29.5671 21.702L29.5685 21.6994L29.57 21.6971L29.5714 21.6946L29.5728 21.6923L29.5743 21.6897L29.5757 21.6874L29.5772 21.6849L29.5786 21.6826L29.5811 21.6783L29.5829 21.6755L29.584 21.6734L29.5858 21.6707L29.5872 21.6683L29.5887 21.6658L29.5901 21.6633L29.5916 21.661L29.5932 21.6585L29.5945 21.6561L29.5973 21.6518L29.5988 21.6492L29.6002 21.6469L29.6017 21.6444L29.6031 21.6419L29.6047 21.6396L29.6078 21.6347L29.6091 21.6322L29.6107 21.6297L29.6132 21.6258L29.615 21.623L29.6165 21.6205L29.6179 21.6182L29.6226 21.6108L29.6239 21.6085L29.6255 21.6062L29.627 21.6035L29.6303 21.5984L29.6313 21.597L29.6331 21.5942L29.6342 21.5922L29.6358 21.5896L29.6373 21.5873L29.6389 21.5848L29.6403 21.5825L29.642 21.58L29.6434 21.5779L29.6463 21.5733L29.6478 21.5708L29.6496 21.5684L29.651 21.5662L29.6525 21.5636L29.6541 21.5615L29.6556 21.5588L29.657 21.5567L29.6587 21.5542L29.6603 21.5519L29.6624 21.5486L29.6648 21.545L29.6661 21.5429L29.6679 21.5402L29.6692 21.5381L29.671 21.5355L29.6725 21.5332L29.6739 21.5309L29.6757 21.5284L29.677 21.5263L29.6811 21.5203L29.6817 21.5194L29.6834 21.5166L29.6846 21.5148L29.6865 21.512L29.6879 21.51L29.6897 21.5074L29.691 21.5054L29.6928 21.5028L29.6943 21.5006L29.7005 21.4911L29.7019 21.4891L29.7037 21.4867L29.7052 21.4844L29.707 21.4819L29.7083 21.4798L29.7101 21.4771L29.7114 21.4752L29.7134 21.4725L29.7144 21.4708L29.7179 21.4658L29.7194 21.4635L29.7212 21.461L29.7227 21.4589L29.7245 21.4564L29.7258 21.4543L29.7276 21.4517L29.7291 21.4495L29.7309 21.4471L29.7324 21.4449L29.7356 21.4403L29.7371 21.4382L29.7389 21.4358L29.7402 21.4336L29.7422 21.431L29.7435 21.429L29.7453 21.4264L29.7468 21.4244L29.7486 21.4218L29.7499 21.4198L29.7534 21.4151L29.7548 21.4131L29.7568 21.4105L29.7581 21.4083L29.7601 21.4059L29.7616 21.4037L29.7632 21.4014L29.7649 21.399L29.7667 21.3967L29.768 21.3947L29.7717 21.3898L29.7729 21.388L29.7748 21.3854L29.7764 21.3834L29.7781 21.3808L29.7797 21.3788L29.7815 21.3762L29.783 21.3744L29.7859 21.3702L29.7902 21.3645L29.7912 21.3631L29.7933 21.3603L29.7945 21.3587L29.7966 21.3557L29.7978 21.3542L29.7999 21.3512L29.8011 21.3498L29.8034 21.3468L29.804 21.3459L29.8089 21.3394L29.8116 21.3357L29.813 21.3337L29.8151 21.3311L29.8165 21.3293L29.8184 21.3267L29.8198 21.3249L29.8219 21.3221L29.8227 21.321L29.8279 21.3139L29.8281 21.3137L29.8305 21.3107L29.8316 21.309L29.8338 21.3065L29.8351 21.3046L29.8371 21.3021L29.8386 21.3001L29.8406 21.2975L29.8416 21.2962L29.8466 21.2897L29.847 21.289L29.8491 21.2863L29.8505 21.2846L29.8526 21.2819L29.854 21.2802L29.8561 21.2775L29.8573 21.2757L29.8594 21.2729L29.861 21.2711L29.8645 21.2667L29.8661 21.2646L29.868 21.2621L29.8696 21.2602L29.8717 21.2575L29.8731 21.2558L29.8752 21.2531L29.8766 21.2513L29.8787 21.2487L29.8801 21.2469L29.8843 21.2416L29.8873 21.2379L29.8888 21.236L29.891 21.2333L29.8923 21.2315L29.8945 21.2289L29.896 21.2271L29.898 21.2245L29.8995 21.2227C29.9018 21.2197 29.9044 21.2165 29.9069 21.2135L29.9083 21.2117L29.9104 21.2093L29.912 21.2073L29.9139 21.205L29.9155 21.2029L29.9176 21.2004L29.9188 21.1988L29.9263 21.1898L29.9279 21.1879L29.93 21.1854L29.9316 21.1834L29.9335 21.181L29.9351 21.179L29.9372 21.1765L29.939 21.1746L29.9407 21.1723L29.9433 21.1693L29.946 21.1661L29.9479 21.164L29.9497 21.1617L29.9514 21.1596L29.9553 21.1553L29.9571 21.153L29.9588 21.1509L29.9608 21.1486L29.9641 21.1449L29.9658 21.1428L29.968 21.1403L29.9697 21.1382L29.9717 21.1359L29.9734 21.1338L29.9754 21.1316L29.9773 21.1293L29.9791 21.1274L29.981 21.1251L29.9826 21.1233L29.9864 21.1187L29.988 21.1168L29.9919 21.1125L29.9936 21.1102L29.9958 21.1081L29.9993 21.1039L30.0012 21.1016L30.003 21.0998L30.0067 21.0954L30.0084 21.0934L30.0106 21.091L30.0121 21.0892L30.0143 21.0867L30.0158 21.085L30.0181 21.0825L30.0195 21.0807L30.0218 21.0782L30.0232 21.0768L30.0279 21.0715L30.029 21.0701L30.0314 21.0674L30.0327 21.066L30.0351 21.0634L30.0364 21.0618L30.0388 21.0591L30.0401 21.0577L30.0427 21.0549L30.0432 21.0542L30.0491 21.0478L30.0499 21.0471L30.0524 21.0441L30.0535 21.043L30.0561 21.0402L30.0574 21.0388L30.0598 21.0362L30.0611 21.0346L30.0635 21.0319L30.0646 21.0307L30.0699 21.025L30.0709 21.0241L30.0732 21.0215L30.0747 21.0199L30.0769 21.0176L30.0786 21.0156L30.0808 21.0132L30.0823 21.0118L30.0847 21.0091L30.0856 21.008L30.0911 21.002L30.0921 21.0011L30.0944 20.9987L30.0959 20.9971L30.0981 20.9946L30.0996 20.993L30.1022 20.9905L30.1037 20.9888L30.1059 20.9865L30.1074 20.9849L30.1129 20.9792L30.1134 20.9785L30.116 20.9759L30.1171 20.9744L30.1197 20.972L30.1212 20.9704L30.1236 20.9679L30.1249 20.9663L30.1275 20.9638L30.1288 20.9624L30.1333 20.9578L30.135 20.9561L30.1372 20.9539L30.1389 20.952L30.1411 20.9497L30.1428 20.9477L30.1452 20.9454L30.1469 20.9437L30.149 20.9414L30.1506 20.9398L30.1592 20.9313L30.1607 20.9295L30.1628 20.9274L30.1648 20.9255L30.1669 20.9233L30.1687 20.9216L30.171 20.9191L30.1726 20.9175L30.1811 20.909L30.1825 20.9074L30.185 20.905L30.1866 20.9034L30.1891 20.9011L30.1907 20.8993L30.193 20.8972L30.1947 20.8954L30.2035 20.8867L30.2047 20.8855L30.2072 20.8829L30.2087 20.8814L30.2113 20.879L30.2128 20.8776L30.2154 20.8751L30.2167 20.8737C30.2196 20.8707 30.2228 20.8677 30.2259 20.8648L30.227 20.8636L30.2296 20.8611L30.2311 20.8595L30.2336 20.857L30.2352 20.8556L30.2377 20.8532L30.2391 20.8519C30.2422 20.8489 30.2451 20.8459 30.2482 20.8429L30.2496 20.8418L30.2521 20.8394L30.2537 20.8378L30.2562 20.8353L30.2576 20.8341L30.2603 20.8314L30.2617 20.8302L30.2644 20.8275L30.271 20.8213L30.2722 20.8203L30.2749 20.8176L30.2762 20.8164L30.279 20.8137L30.2803 20.8123L30.283 20.81L30.2846 20.8084L30.2875 20.8058L30.2945 20.799L30.2992 20.7948L30.3017 20.7923L30.3111 20.7838L30.3171 20.7782L30.3181 20.7775L30.3208 20.7748L30.3262 20.7699L30.3289 20.7672L30.3303 20.766C30.335 20.7619 30.3394 20.7579 30.3439 20.7538L30.3536 20.7449L30.3566 20.7425L30.3575 20.7416C30.3608 20.7386 30.3641 20.7356 30.3675 20.7326L30.3686 20.7315L30.3715 20.729L30.3756 20.7253L30.3774 20.7239L30.3813 20.7204C30.3844 20.7175 30.3877 20.7147 30.3908 20.7121L30.3964 20.7069L30.3992 20.7046L30.4009 20.7032L30.4036 20.7009L30.4048 20.6997L30.4114 20.694L30.4116 20.6938L30.4143 20.6915L30.4161 20.6901L30.4186 20.6878L30.4204 20.6864L30.4229 20.6841L30.4248 20.6825L30.4274 20.6804L30.4291 20.6788L30.4338 20.6747L30.4355 20.6733L30.4379 20.6714L30.44 20.6694L30.4423 20.6675L30.4443 20.6659L30.4468 20.6636L30.4486 20.6622L30.4513 20.6601L30.4528 20.6587L30.4626 20.6505L30.4639 20.6493L30.4666 20.647L30.4684 20.6458L30.4709 20.6435L30.4729 20.642L30.4756 20.6397L30.477 20.6387C30.4801 20.6359 30.4834 20.6332 30.4867 20.6304L30.4882 20.6291L30.491 20.627L30.4927 20.6256L30.4952 20.6233L30.4972 20.6219L30.4997 20.6198L30.5015 20.6182L30.5042 20.616L30.5061 20.6145L30.5108 20.6107L30.5127 20.6092L30.5153 20.607L30.517 20.6056L30.5197 20.6035L30.5215 20.6021L30.5242 20.5998L30.5258 20.5985L30.5287 20.5962L30.5291 20.5959L30.5353 20.5909L30.5372 20.5893L30.5398 20.5874L30.5417 20.5858L30.5444 20.5837L30.5464 20.5821L30.5489 20.5802L30.5509 20.5786L30.5534 20.5764L30.5547 20.5754L30.5604 20.571L30.5619 20.5697L30.5647 20.5676L30.5664 20.5662L30.5689 20.5642L30.5711 20.5625L30.5736 20.5605L30.5756 20.5591L30.5781 20.557L30.5798 20.5558L30.5851 20.5517L30.5868 20.5503L30.5896 20.5482L30.5913 20.5469L30.594 20.5446L30.5958 20.5434L30.5987 20.5411L30.6003 20.5398L30.6032 20.5377L30.6045 20.5367L30.6104 20.5322L30.6119 20.531L30.6147 20.5289L30.6164 20.5275L30.6191 20.5255L30.6211 20.5239L30.6238 20.522L30.6255 20.5206L30.6285 20.5184L30.6298 20.5174L30.6357 20.513L30.6372 20.5119L30.6401 20.5096L30.6417 20.5085L30.6446 20.5062L30.6464 20.505L30.6493 20.5029L30.6508 20.5017L30.6537 20.4995L30.6549 20.4985L30.6619 20.4935L30.6625 20.493L30.6654 20.4907L30.6672 20.4895L30.6699 20.4875L30.6718 20.4861L30.6746 20.484L30.6763 20.4827L30.6792 20.4806L30.6808 20.4795L30.6862 20.4755L30.6882 20.4741L30.6905 20.4723L30.6926 20.4707L30.6952 20.4689L30.6998 20.4654L30.7024 20.4636L30.7045 20.462L30.7078 20.4597L30.7094 20.4587L30.7138 20.4553L30.716 20.4537L30.721 20.4502L30.7232 20.4486L30.7259 20.4467L30.7278 20.4452L30.7304 20.4435L30.7327 20.4417L30.7397 20.4368L30.7418 20.4352L30.7444 20.4336L30.7469 20.4318L30.7492 20.4302L30.7516 20.4284L30.7539 20.4269L30.7564 20.4251L30.7588 20.4235L30.7644 20.4196L30.7656 20.4187L30.7683 20.417L30.7704 20.4154L30.7728 20.4136L30.7753 20.412L30.7778 20.4102L30.78 20.4086L30.7825 20.4069L30.7846 20.4055L30.7903 20.4016L30.7918 20.4005L30.7946 20.3987L30.7965 20.3973L30.7994 20.3954L30.8014 20.394L30.8041 20.392L30.806 20.3908L30.8089 20.3888L30.8111 20.3874L30.8208 20.3807L30.823 20.3793L30.8255 20.3775L30.828 20.3759L30.8305 20.3742L30.8329 20.3728L30.8354 20.371L30.8377 20.3694L30.8403 20.3678L30.8449 20.3648L30.8471 20.3632L30.8496 20.3616L30.8523 20.3598L30.8545 20.3583L30.857 20.3567L30.8595 20.3549L30.8618 20.3535L30.8644 20.3517L30.8669 20.3501L30.8692 20.3485L30.8741 20.3453L30.8762 20.3441L30.8788 20.3423L30.8838 20.3392L30.886 20.3376L30.8887 20.336L30.8908 20.3346L30.8937 20.3326L30.8961 20.3312L30.9002 20.3284L30.9031 20.3266L30.9054 20.325L30.9081 20.3234L30.9105 20.3218L30.913 20.3202L30.9153 20.3186L30.9183 20.3169L30.9204 20.3155L30.9237 20.3133L30.9274 20.3112L30.9301 20.3095L30.9324 20.3079L30.935 20.3063L30.9377 20.3047L30.94 20.3033L30.9426 20.3017L30.9449 20.3001L30.9476 20.2985L30.9507 20.2965L30.9542 20.2942L30.9571 20.2925L30.9673 20.2861L30.9698 20.2847L30.9774 20.2799L30.982 20.2771L30.9846 20.2755L30.9867 20.2743L30.992 20.2711L30.9947 20.2693L30.997 20.2679L30.9997 20.2663L31.0021 20.2647L31.0054 20.2628L31.0081 20.2612L31.0118 20.2589L31.0143 20.2575L31.0169 20.2559L31.0196 20.2543L31.0221 20.2529L31.0244 20.2513L31.0272 20.2497L31.0297 20.2483L31.0328 20.2463L31.0355 20.2447L31.0394 20.2424L31.0419 20.241L31.0445 20.2394L31.0472 20.2378L31.0495 20.2364L31.0521 20.235L31.0548 20.2334L31.0573 20.232L31.0604 20.2301L31.0624 20.229L31.067 20.2262L31.0696 20.2246L31.0723 20.2232L31.0748 20.2218L31.0773 20.2202L31.0799 20.2188L31.0826 20.2172L31.0849 20.2157L31.088 20.214L31.09 20.2129L31.0948 20.2101L31.097 20.2088L31.1001 20.2071L31.1024 20.2057L31.1052 20.2043L31.1077 20.2027L31.1104 20.2012L31.1129 20.1997L31.1159 20.1981L31.118 20.1968L31.1229 20.1942L31.125 20.1929L31.1281 20.1912L31.1302 20.1899L31.1334 20.1883L31.1357 20.1871L31.1386 20.1853L31.1407 20.1841L31.1441 20.1823L31.146 20.1813L31.1511 20.1784L31.1532 20.1772L31.1561 20.1756L31.1588 20.1742L31.1664 20.17L31.1691 20.1684L31.1721 20.1669L31.1744 20.1657L31.1793 20.1631L31.1814 20.1618L31.1845 20.16L31.1868 20.1588L31.1898 20.1572L31.1921 20.156L31.195 20.1544L31.1975 20.1532L31.2003 20.1517L31.2028 20.1503L31.2077 20.1477L31.2094 20.1468L31.2129 20.1448L31.2152 20.1436L31.2182 20.142L31.2207 20.1408L31.2234 20.1394L31.2259 20.1379L31.2289 20.1364L31.2359 20.1326L31.238 20.1316L31.2415 20.1298L31.2438 20.1284L31.2466 20.127L31.2493 20.1257L31.252 20.1242L31.2545 20.1229L31.2574 20.1213L31.2598 20.1201L31.2642 20.1178L31.2666 20.1167L31.2701 20.1148L31.2724 20.1135L31.2753 20.112L31.2777 20.1109L31.2808 20.1093L31.2831 20.1081L31.2884 20.1054L31.2932 20.1029L31.295 20.1021L31.2989 20.1001L31.301 20.099L31.3043 20.0975L31.3065 20.0962L31.3098 20.0946L31.3121 20.0936L31.3152 20.0918L31.3216 20.0886L31.324 20.0876L31.3278 20.0856L31.3302 20.0844L31.3333 20.0828L31.3358 20.0815L31.3385 20.0803L31.344 20.0775L31.3465 20.0762L31.3502 20.0745L31.3529 20.0731L31.357 20.0711L31.3592 20.0701L31.3623 20.0685L31.3646 20.0674L31.3679 20.0658L31.3701 20.0647L31.3736 20.0632L31.3757 20.0621L31.3796 20.0601L31.3817 20.0591L31.3862 20.057L31.3885 20.0559L31.3916 20.0543L31.394 20.0533L31.3971 20.0517L31.4049 20.0481L31.4088 20.0462L31.4103 20.0455L31.4156 20.043L31.4175 20.0421L31.421 20.0403L31.4231 20.0393L31.4265 20.0379L31.4288 20.0368L31.4319 20.0352L31.4342 20.0342L31.4383 20.0324L31.4397 20.0317L31.4467 20.0285L31.4504 20.0267L31.4525 20.0257L31.456 20.0241L31.4582 20.023L31.4617 20.0214L31.4638 20.0205L31.4766 20.0147L31.4799 20.0131L31.4825 20.0121L31.4858 20.0105L31.4879 20.0096L31.4912 20.008L31.4936 20.0069L31.4971 20.0055L31.4992 20.0046L31.5044 20.0022L31.5064 20.0014L31.5101 19.9997L31.5122 19.9988L31.5155 19.9972L31.5179 19.9963L31.5212 19.9949L31.5233 19.9938L31.5268 19.9923L31.529 19.9914L31.5342 19.9891L31.5361 19.9882L31.5398 19.9866L31.5453 19.9841L31.5478 19.9831L31.5507 19.9818L31.5535 19.9808L31.5568 19.9792L31.5589 19.9783L31.5643 19.976L31.5655 19.9755L31.5719 19.9728L31.5754 19.9712L31.5778 19.9703L31.5813 19.9689L31.5832 19.968L31.5873 19.9663L31.5889 19.9656L31.5945 19.9633L31.5951 19.9629L31.6001 19.961L31.6019 19.9603L31.6058 19.9585L31.6077 19.9578L31.6114 19.9562L31.6136 19.9553L31.6173 19.9537L31.6192 19.953L31.6246 19.9507L31.6264 19.95L31.6303 19.9484L31.6324 19.9475L31.6359 19.9461L31.6383 19.9452L31.6416 19.9438L31.6439 19.9429L31.6476 19.9413L31.6495 19.9406L31.655 19.9383L31.6561 19.938L31.6606 19.936L31.6628 19.9353L31.6663 19.9337L31.6686 19.9328L31.6719 19.9316L31.6742 19.9307L31.6779 19.9293L31.6799 19.9284L31.6855 19.9261L31.6859 19.9259L31.6912 19.924L31.6933 19.9231L31.6966 19.9219L31.6991 19.9208L31.7024 19.9196L31.7048 19.9187L31.7081 19.9173L31.7106 19.9164L31.7145 19.9148L31.7176 19.9136L31.7215 19.9122L31.724 19.9111L31.7273 19.9099L31.7297 19.909L31.733 19.9077L31.7355 19.9069L31.739 19.9054L31.7411 19.9046L31.7456 19.903L31.7474 19.9023L31.7524 19.9003L31.7544 19.8996L31.7581 19.8982L31.7604 19.8973L31.7639 19.8959L31.766 19.8952L31.7697 19.8938L31.7719 19.8929L31.7765 19.8913L31.7777 19.8909L31.7833 19.8888L31.7851 19.8881L31.789 19.8867L31.7911 19.8858L31.7948 19.8846L31.7972 19.8837L31.8008 19.8825L31.8028 19.8817L31.8079 19.8798L31.8086 19.8796L31.8143 19.8775L31.8162 19.8768L31.8199 19.8756L31.8224 19.8745L31.8257 19.8734L31.8281 19.8726L31.8318 19.8711L31.8339 19.8704L31.8388 19.8688L31.8396 19.8685L31.8454 19.8665L31.8469 19.866L31.8514 19.8644L31.853 19.8639L31.8571 19.8623L31.8592 19.8616L31.8633 19.8604L31.865 19.8596L31.8695 19.8581L31.8709 19.8577L31.8765 19.8556L31.8781 19.8552L31.8823 19.8536L31.8845 19.8529L31.8884 19.8517L31.8942 19.8496L31.8963 19.8489L31.9008 19.8474L31.902 19.8469L31.9078 19.845L31.9094 19.8446L31.9138 19.843L31.9158 19.8423L31.9195 19.8411L31.9218 19.8404L31.9255 19.8391L31.9277 19.8384L31.9325 19.8368L31.9333 19.8365L31.9393 19.8345L31.9403 19.8342L31.9454 19.8326L31.9471 19.8319L31.9512 19.8306L31.9531 19.8299L31.9572 19.8287L31.9592 19.828L31.965 19.8262L31.971 19.8243L31.9718 19.8239L31.9769 19.8223L31.9786 19.8218L31.9827 19.8204L31.9848 19.8199L31.9887 19.8186L31.9951 19.8165L31.9967 19.8161L32.0027 19.8142L32.0103 19.8119L32.0146 19.8105L32.0165 19.81L32.0204 19.8087L32.0226 19.808L32.0268 19.8068L32.0284 19.8062L32.0344 19.8045L32.035 19.8043L32.0405 19.8027L32.042 19.8022L32.0463 19.8009L32.0484 19.8002L32.0523 19.799L32.0543 19.7985L32.0601 19.7967L32.0663 19.7949L32.0739 19.7926L32.0782 19.7914L32.0801 19.7907L32.0842 19.7896L32.0864 19.7891L32.0906 19.7877L32.0922 19.7873C32.0961 19.7861 32.1002 19.7849 32.1043 19.7838L32.1056 19.7834L32.1101 19.782L32.1122 19.7815L32.1163 19.7804L32.1183 19.7799L32.1223 19.7787L32.1243 19.7781C32.1284 19.7769 32.1323 19.7758 32.1363 19.7748L32.1377 19.7742L32.1424 19.773L32.1441 19.7725L32.1484 19.7712L32.1503 19.7709L32.155 19.7695L32.1564 19.7691L32.1686 19.7658L32.1696 19.7656L32.1747 19.7642L32.1764 19.7636L32.1809 19.7626L32.1824 19.762L32.1875 19.7608L32.1885 19.7605L32.2009 19.7571L32.2019 19.7569L32.2069 19.7555L32.2087 19.7551L32.2132 19.7539L32.2149 19.7536L32.2196 19.7523L32.2209 19.752L32.2268 19.7504H32.2272L32.2334 19.7488L32.234 19.7486L32.2394 19.7472L32.241 19.7468L32.2456 19.7456L32.2474 19.7452L32.2521 19.744L32.2534 19.7437C32.2577 19.7426 32.2618 19.7417 32.2659 19.7406L32.2665 19.7405L32.2721 19.7391L32.2733 19.7387L32.2775 19.7376C32.4631 19.6918 32.6568 19.68 32.8474 19.7026C33.0174 19.6376 33.1996 19.6026 33.384 19.5999C33.3982 19.6001 33.4116 19.6001 33.425 19.6001Z" fill="#B244F1"/>
<path d="M21.0067 31.3659C21.8117 31.365 22.4634 30.7711 22.4625 30.0393C22.4623 29.8057 22.394 29.5764 22.2649 29.3744C21.5645 28.2803 21.7304 26.9884 21.993 26.0976C22.8534 23.1804 25.8624 20.0799 29.8475 18.0052C35.7921 14.9094 42.6809 14.8007 44.5854 17.7756C44.9901 18.4078 45.8822 18.6223 46.5779 18.2542C47.2736 17.8862 47.5093 17.0752 47.1046 16.4427C44.3298 12.11 35.9393 11.7795 28.3987 15.706C23.7644 18.1184 20.2309 21.8373 19.1777 25.4117C18.5956 27.3864 18.792 29.218 19.7456 30.7073C20.0066 31.1155 20.487 31.3666 21.0067 31.3659Z" fill="#33527D"/>
<path d="M33.4251 22.25C33.4251 22.9818 34.0776 23.575 34.8826 23.575C35.6874 23.575 36.3399 22.9818 36.3399 22.25C36.3399 21.5183 35.6874 20.9249 34.8826 20.9249C34.0776 20.9249 33.4251 21.5183 33.4251 22.25Z" fill="#D7A5FF"/>
</svg>
