<svg width="318" height="60" viewBox="0 0 318 60" fill="none" xmlns="http://www.w3.org/2000/svg">
<path d="M71.6818 38H72.4091C72.1932 36.875 71.25 36.1023 70.0227 36.1023C68.5313 36.1023 67.4773 37.25 67.4773 39.0909C67.4773 40.9318 68.5227 42.0795 70.0682 42.0795C71.4546 42.0795 72.4432 41.1562 72.4432 39.7159V39.0909H70.2273V39.7159H71.7614C71.7415 40.7614 71.054 41.4204 70.0682 41.4204C68.9887 41.4204 68.1591 40.6023 68.1591 39.0909C68.1591 37.5795 68.9887 36.7614 70.0227 36.7614C70.8637 36.7614 71.4347 37.2358 71.6818 38Z" fill="#616161"/>
<path d="M75.3885 42.0909C76.2749 42.0909 76.9226 41.6477 77.1272 40.9886L76.4794 40.8068C76.309 41.2614 75.9141 41.4886 75.3885 41.4886C74.6016 41.4886 74.059 40.9801 74.0277 40.0454H77.1953V39.7614C77.1953 38.1364 76.2294 37.5795 75.3203 37.5795C74.1385 37.5795 73.3544 38.5114 73.3544 39.8523C73.3544 41.1932 74.1272 42.0909 75.3885 42.0909ZM74.0277 39.4659C74.0732 38.7869 74.5533 38.1818 75.3203 38.1818C76.0476 38.1818 76.5135 38.7273 76.5135 39.4659H74.0277Z" fill="#616161"/>
<path d="M80.1129 37.6364H79.1811V36.5909H78.5107V37.6364H77.8516V38.2045H78.5107V40.9318C78.5107 41.6932 79.1243 42.0568 79.6925 42.0568C79.9425 42.0568 80.1016 42.0114 80.1925 41.9773L80.0561 41.375C79.9993 41.3864 79.9084 41.4091 79.7607 41.4091C79.4652 41.4091 79.1811 41.3182 79.1811 40.75V38.2045H80.1129V37.6364Z" fill="#616161"/>
<path d="M85.2692 37.6364H84.3374V36.5909H83.6669V37.6364H83.0078V38.2045H83.6669V40.9318C83.6669 41.6932 84.2806 42.0568 84.8487 42.0568C85.0987 42.0568 85.2578 42.0114 85.3487 41.9773L85.2124 41.375C85.1556 41.3864 85.0647 41.4091 84.9169 41.4091C84.6215 41.4091 84.3374 41.3182 84.3374 40.75V38.2045H85.2692V37.6364Z" fill="#616161"/>
<path d="M87.0419 39.375C87.0419 38.6136 87.5277 38.1818 88.1897 38.1818C88.8203 38.1818 89.201 38.5795 89.201 39.2727V42H89.8715V39.2273C89.8715 38.1051 89.2749 37.5795 88.3828 37.5795C87.6953 37.5795 87.3033 37.8665 87.0987 38.3182H87.0419V36.1818H86.3715V42H87.0419V39.375Z" fill="#616161"/>
<path d="M92.9276 42.0909C93.8139 42.0909 94.4617 41.6477 94.6662 40.9886L94.0185 40.8068C93.848 41.2614 93.4531 41.4886 92.9276 41.4886C92.1406 41.4886 91.598 40.9801 91.5668 40.0454H94.7344V39.7614C94.7344 38.1364 93.7685 37.5795 92.8594 37.5795C91.6776 37.5795 90.8935 38.5114 90.8935 39.8523C90.8935 41.1932 91.6662 42.0909 92.9276 42.0909ZM91.5668 39.4659C91.6122 38.7869 92.0924 38.1818 92.8594 38.1818C93.5867 38.1818 94.0526 38.7273 94.0526 39.4659H91.5668Z" fill="#616161"/>
<path d="M98.6747 36.1818H98.0043V42H98.6747V36.1818Z" fill="#616161"/>
<path d="M101.187 42.1023C101.948 42.1023 102.346 41.6932 102.482 41.4091H102.516V42H103.187V39.125C103.187 37.7386 102.13 37.5795 101.573 37.5795C100.914 37.5795 100.164 37.8068 99.8232 38.6023L100.46 38.8295C100.607 38.5114 100.957 38.1704 101.596 38.1704C102.212 38.1704 102.516 38.4972 102.516 39.0568V39.0795C102.516 39.4034 102.187 39.375 101.391 39.4773C100.582 39.5824 99.6982 39.7614 99.6982 40.7614C99.6982 41.6136 100.357 42.1023 101.187 42.1023ZM101.289 41.5C100.755 41.5 100.369 41.2614 100.369 40.7954C100.369 40.2841 100.835 40.125 101.357 40.0568C101.641 40.0227 102.403 39.9432 102.516 39.8068V40.4204C102.516 40.9659 102.085 41.5 101.289 41.5Z" fill="#616161"/>
<path d="M106.308 37.6364H105.376V36.5909H104.706V37.6364H104.047V38.2045H104.706V40.9318C104.706 41.6932 105.32 42.0568 105.888 42.0568C106.138 42.0568 106.297 42.0114 106.388 41.9773L106.251 41.375C106.195 41.3864 106.104 41.4091 105.956 41.4091C105.661 41.4091 105.376 41.3182 105.376 40.75V38.2045H106.308V37.6364Z" fill="#616161"/>
<path d="M109.099 42.0909C109.986 42.0909 110.634 41.6477 110.838 40.9886L110.19 40.8068C110.02 41.2614 109.625 41.4886 109.099 41.4886C108.313 41.4886 107.77 40.9801 107.739 40.0454H110.906V39.7614C110.906 38.1364 109.94 37.5795 109.031 37.5795C107.849 37.5795 107.065 38.5114 107.065 39.8523C107.065 41.1932 107.838 42.0909 109.099 42.0909ZM107.739 39.4659C107.784 38.7869 108.264 38.1818 109.031 38.1818C109.759 38.1818 110.224 38.7273 110.224 39.4659H107.739Z" fill="#616161"/>
<path d="M115.017 38.6136C114.807 37.9943 114.335 37.5795 113.472 37.5795C112.551 37.5795 111.869 38.1023 111.869 38.8409C111.869 39.4432 112.227 39.8466 113.028 40.0341L113.756 40.2045C114.196 40.3068 114.403 40.517 114.403 40.8182C114.403 41.1932 114.006 41.5 113.381 41.5C112.832 41.5 112.489 41.2642 112.369 40.7954L111.733 40.9545C111.889 41.696 112.5 42.0909 113.392 42.0909C114.406 42.0909 115.097 41.5369 115.097 40.7841C115.097 40.1761 114.716 39.7926 113.938 39.6023L113.29 39.4432C112.773 39.3153 112.54 39.142 112.54 38.8068C112.54 38.4318 112.938 38.1591 113.472 38.1591C114.057 38.1591 114.298 38.4829 114.415 38.7841L115.017 38.6136Z" fill="#616161"/>
<path d="M118.004 37.6364H117.072V36.5909H116.401V37.6364H115.742V38.2045H116.401V40.9318C116.401 41.6932 117.015 42.0568 117.583 42.0568C117.833 42.0568 117.992 42.0114 118.083 41.9773L117.947 41.375C117.89 41.3864 117.799 41.4091 117.651 41.4091C117.356 41.4091 117.072 41.3182 117.072 40.75V38.2045H118.004V37.6364Z" fill="#616161"/>
<path d="M121.933 39.375C121.933 38.6136 122.404 38.1818 123.046 38.1818C123.668 38.1818 124.046 38.5881 124.046 39.2727V42H124.717V39.2273C124.717 38.1136 124.123 37.5795 123.239 37.5795C122.58 37.5795 122.171 37.875 121.967 38.3182H121.91V37.6364H121.262V42H121.933V39.375Z" fill="#616161"/>
<path d="M127.771 42.0909C128.658 42.0909 129.305 41.6477 129.51 40.9886L128.862 40.8068C128.692 41.2614 128.297 41.4886 127.771 41.4886C126.984 41.4886 126.442 40.9801 126.411 40.0454H129.578V39.7614C129.578 38.1364 128.612 37.5795 127.703 37.5795C126.521 37.5795 125.737 38.5114 125.737 39.8523C125.737 41.1932 126.51 42.0909 127.771 42.0909ZM126.411 39.4659C126.456 38.7869 126.936 38.1818 127.703 38.1818C128.43 38.1818 128.896 38.7273 128.896 39.4659H126.411Z" fill="#616161"/>
<path d="M131.587 42H132.246L133.2 38.6477H133.268L134.223 42H134.882L136.212 37.6364H135.507L134.564 40.9659H134.518L133.598 37.6364H132.882L131.95 40.9773H131.905L130.962 37.6364H130.257L131.587 42Z" fill="#616161"/>
<path d="M140.189 38.6136C139.979 37.9943 139.507 37.5795 138.643 37.5795C137.723 37.5795 137.041 38.1023 137.041 38.8409C137.041 39.4432 137.399 39.8466 138.2 40.0341L138.928 40.2045C139.368 40.3068 139.575 40.517 139.575 40.8182C139.575 41.1932 139.178 41.5 138.553 41.5C138.004 41.5 137.661 41.2642 137.541 40.7954L136.905 40.9545C137.061 41.696 137.672 42.0909 138.564 42.0909C139.578 42.0909 140.268 41.5369 140.268 40.7841C140.268 40.1761 139.888 39.7926 139.109 39.6023L138.462 39.4432C137.945 39.3153 137.712 39.142 137.712 38.8068C137.712 38.4318 138.109 38.1591 138.643 38.1591C139.229 38.1591 139.47 38.4829 139.587 38.7841L140.189 38.6136Z" fill="#616161"/>
<path d="M144.812 42.1023C145.573 42.1023 145.971 41.6932 146.107 41.4091H146.141V42H146.812V39.125C146.812 37.7386 145.755 37.5795 145.198 37.5795C144.539 37.5795 143.789 37.8068 143.448 38.6023L144.085 38.8295C144.232 38.5114 144.582 38.1704 145.221 38.1704C145.837 38.1704 146.141 38.4972 146.141 39.0568V39.0795C146.141 39.4034 145.812 39.375 145.016 39.4773C144.207 39.5824 143.323 39.7614 143.323 40.7614C143.323 41.6136 143.982 42.1023 144.812 42.1023ZM144.914 41.5C144.38 41.5 143.994 41.2614 143.994 40.7954C143.994 40.2841 144.46 40.125 144.982 40.0568C145.266 40.0227 146.028 39.9432 146.141 39.8068V40.4204C146.141 40.9659 145.71 41.5 144.914 41.5Z" fill="#616161"/>
<path d="M148.706 39.375C148.706 38.6136 149.178 38.1818 149.82 38.1818C150.442 38.1818 150.82 38.5881 150.82 39.2727V42H151.49V39.2273C151.49 38.1136 150.896 37.5795 150.013 37.5795C149.354 37.5795 148.945 37.875 148.74 38.3182H148.683V37.6364H148.036V42H148.706V39.375Z" fill="#616161"/>
<path d="M154.363 42.0909C155.204 42.0909 155.488 41.5682 155.636 41.3295H155.715V42H156.363V36.1818H155.692V38.3295H155.636C155.488 38.1023 155.227 37.5795 154.374 37.5795C153.272 37.5795 152.511 38.4545 152.511 39.8295C152.511 41.2159 153.272 42.0909 154.363 42.0909ZM154.454 41.4886C153.613 41.4886 153.181 40.75 153.181 39.8182C153.181 38.8977 153.602 38.1818 154.454 38.1818C155.272 38.1818 155.704 38.8409 155.704 39.8182C155.704 40.8068 155.261 41.4886 154.454 41.4886Z" fill="#616161"/>
<path d="M161.695 43.7273C162.741 43.7273 163.582 43.25 163.582 42.125V37.6364H162.934V38.3295H162.866C162.718 38.1023 162.445 37.5795 161.593 37.5795C160.491 37.5795 159.729 38.4545 159.729 39.7954C159.729 41.1591 160.525 41.9318 161.582 41.9318C162.434 41.9318 162.707 41.4318 162.854 41.1932H162.911V42.0795C162.911 42.8068 162.4 43.1364 161.695 43.1364C160.903 43.1364 160.624 42.7187 160.445 42.4773L159.911 42.8523C160.184 43.3097 160.721 43.7273 161.695 43.7273ZM161.673 41.3295C160.832 41.3295 160.4 40.6932 160.4 39.7841C160.4 38.8977 160.82 38.1818 161.673 38.1818C162.491 38.1818 162.923 38.8409 162.923 39.7841C162.923 40.75 162.479 41.3295 161.673 41.3295Z" fill="#616161"/>
<path d="M166.639 42.0909C167.525 42.0909 168.173 41.6477 168.377 40.9886L167.729 40.8068C167.559 41.2614 167.164 41.4886 166.639 41.4886C165.852 41.4886 165.309 40.9801 165.278 40.0454H168.445V39.7614C168.445 38.1364 167.479 37.5795 166.57 37.5795C165.389 37.5795 164.604 38.5114 164.604 39.8523C164.604 41.1932 165.377 42.0909 166.639 42.0909ZM165.278 39.4659C165.323 38.7869 165.803 38.1818 166.57 38.1818C167.298 38.1818 167.764 38.7273 167.764 39.4659H165.278Z" fill="#616161"/>
<path d="M170.136 39.375C170.136 38.6136 170.607 38.1818 171.249 38.1818C171.871 38.1818 172.249 38.5881 172.249 39.2727V42H172.92V39.2273C172.92 38.1136 172.326 37.5795 171.442 37.5795C170.783 37.5795 170.374 37.875 170.17 38.3182H170.113V37.6364H169.465V42H170.136V39.375Z" fill="#616161"/>
<path d="M175.974 42.0909C176.861 42.0909 177.509 41.6477 177.713 40.9886L177.065 40.8068C176.895 41.2614 176.5 41.4886 175.974 41.4886C175.188 41.4886 174.645 40.9801 174.614 40.0454H177.781V39.7614C177.781 38.1364 176.815 37.5795 175.906 37.5795C174.724 37.5795 173.94 38.5114 173.94 39.8523C173.94 41.1932 174.713 42.0909 175.974 42.0909ZM174.614 39.4659C174.659 38.7869 175.139 38.1818 175.906 38.1818C176.634 38.1818 177.099 38.7273 177.099 39.4659H174.614Z" fill="#616161"/>
<path d="M178.801 42H179.472V39.2386C179.472 38.6477 179.938 38.2159 180.574 38.2159C180.753 38.2159 180.938 38.25 180.983 38.2614V37.5795C180.906 37.5739 180.73 37.5682 180.631 37.5682C180.108 37.5682 179.653 37.8636 179.494 38.2954H179.449V37.6364H178.801V42Z" fill="#616161"/>
<path d="M183.062 42.1023C183.823 42.1023 184.221 41.6932 184.357 41.4091H184.391V42H185.062V39.125C185.062 37.7386 184.005 37.5795 183.448 37.5795C182.789 37.5795 182.039 37.8068 181.698 38.6023L182.335 38.8295C182.482 38.5114 182.832 38.1704 183.471 38.1704C184.087 38.1704 184.391 38.4972 184.391 39.0568V39.0795C184.391 39.4034 184.062 39.375 183.266 39.4773C182.457 39.5824 181.573 39.7614 181.573 40.7614C181.573 41.6136 182.232 42.1023 183.062 42.1023ZM183.164 41.5C182.63 41.5 182.244 41.2614 182.244 40.7954C182.244 40.2841 182.71 40.125 183.232 40.0568C183.516 40.0227 184.278 39.9432 184.391 39.8068V40.4204C184.391 40.9659 183.96 41.5 183.164 41.5Z" fill="#616161"/>
<path d="M186.956 36.1818H186.286V42H186.956V36.1818Z" fill="#616161"/>
<path d="M190.434 42H191.104V40.3665L191.573 39.9318L193.207 42H194.059L192.079 39.5L193.923 37.6364H193.093L191.184 39.5795H191.104V36.1818H190.434V42Z" fill="#616161"/>
<path d="M195.456 39.375C195.456 38.6136 195.928 38.1818 196.57 38.1818C197.192 38.1818 197.57 38.5881 197.57 39.2727V42H198.24V39.2273C198.24 38.1136 197.646 37.5795 196.763 37.5795C196.104 37.5795 195.695 37.875 195.49 38.3182H195.433V37.6364H194.786V42H195.456V39.375Z" fill="#616161"/>
<path d="M201.238 42.0909C202.42 42.0909 203.215 41.1932 203.215 39.8409C203.215 38.4773 202.42 37.5795 201.238 37.5795C200.056 37.5795 199.261 38.4773 199.261 39.8409C199.261 41.1932 200.056 42.0909 201.238 42.0909ZM201.238 41.4886C200.34 41.4886 199.931 40.7159 199.931 39.8409C199.931 38.9659 200.34 38.1818 201.238 38.1818C202.136 38.1818 202.545 38.9659 202.545 39.8409C202.545 40.7159 202.136 41.4886 201.238 41.4886Z" fill="#616161"/>
<path d="M205.079 42H205.738L206.692 38.6477H206.761L207.715 42H208.374L209.704 37.6364H208.999L208.056 40.9659H208.011L207.09 37.6364H206.374L205.442 40.9773H205.397L204.454 37.6364H203.749L205.079 42Z" fill="#616161"/>
<path d="M211.261 36.1818H210.59V42H211.261V36.1818Z" fill="#616161"/>
<path d="M214.318 42.0909C215.205 42.0909 215.852 41.6477 216.057 40.9886L215.409 40.8068C215.239 41.2614 214.844 41.4886 214.318 41.4886C213.531 41.4886 212.989 40.9801 212.957 40.0454H216.125V39.7614C216.125 38.1364 215.159 37.5795 214.25 37.5795C213.068 37.5795 212.284 38.5114 212.284 39.8523C212.284 41.1932 213.057 42.0909 214.318 42.0909ZM212.957 39.4659C213.003 38.7869 213.483 38.1818 214.25 38.1818C214.977 38.1818 215.443 38.7273 215.443 39.4659H212.957Z" fill="#616161"/>
<path d="M218.793 42.0909C219.634 42.0909 219.918 41.5682 220.065 41.3295H220.145V42H220.793V36.1818H220.122V38.3295H220.065C219.918 38.1023 219.656 37.5795 218.804 37.5795C217.702 37.5795 216.94 38.4545 216.94 39.8295C216.94 41.2159 217.702 42.0909 218.793 42.0909ZM218.884 41.4886C218.043 41.4886 217.611 40.75 217.611 39.8182C217.611 38.8977 218.031 38.1818 218.884 38.1818C219.702 38.1818 220.134 38.8409 220.134 39.8182C220.134 40.8068 219.69 41.4886 218.884 41.4886Z" fill="#616161"/>
<path d="M223.875 43.7273C224.92 43.7273 225.761 43.25 225.761 42.125V37.6364H225.114V38.3295H225.045C224.898 38.1023 224.625 37.5795 223.773 37.5795C222.67 37.5795 221.909 38.4545 221.909 39.7954C221.909 41.1591 222.705 41.9318 223.761 41.9318C224.614 41.9318 224.886 41.4318 225.034 41.1932H225.091V42.0795C225.091 42.8068 224.58 43.1364 223.875 43.1364C223.082 43.1364 222.804 42.7187 222.625 42.4773L222.091 42.8523C222.364 43.3097 222.901 43.7273 223.875 43.7273ZM223.852 41.3295C223.011 41.3295 222.58 40.6932 222.58 39.7841C222.58 38.8977 223 38.1818 223.852 38.1818C224.67 38.1818 225.102 38.8409 225.102 39.7841C225.102 40.75 224.659 41.3295 223.852 41.3295Z" fill="#616161"/>
<path d="M228.818 42.0909C229.705 42.0909 230.352 41.6477 230.557 40.9886L229.909 40.8068C229.739 41.2614 229.344 41.4886 228.818 41.4886C228.031 41.4886 227.489 40.9801 227.457 40.0454H230.625V39.7614C230.625 38.1364 229.659 37.5795 228.75 37.5795C227.568 37.5795 226.784 38.5114 226.784 39.8523C226.784 41.1932 227.557 42.0909 228.818 42.0909ZM227.457 39.4659C227.503 38.7869 227.983 38.1818 228.75 38.1818C229.477 38.1818 229.943 38.7273 229.943 39.4659H227.457Z" fill="#616161"/>
<path d="M68.321 30H69.6421V26.0156H72.0284C74.5693 26.0156 75.7145 24.4709 75.7145 22.5426C75.7145 20.6143 74.5693 19.0909 72.0071 19.0909H68.321V30ZM69.6421 24.8438V20.2628H71.9645C73.7383 20.2628 74.4148 21.2322 74.4148 22.5426C74.4148 23.853 73.7383 24.8438 71.9858 24.8438H69.6421Z" fill="black"/>
<path d="M77.6721 30H78.9292V24.8224C78.9292 23.7145 79.8028 22.9048 80.9959 22.9048C81.3315 22.9048 81.6778 22.9688 81.763 22.9901V21.7116C81.6192 21.701 81.2889 21.6903 81.1025 21.6903C80.1224 21.6903 79.2701 22.2443 78.9718 23.054H78.8866V21.8182H77.6721V30Z" fill="black"/>
<path d="M86.4345 30.1705C88.0964 30.1705 89.3109 29.3395 89.6944 28.1037L88.48 27.7628C88.1604 28.6151 87.4199 29.0412 86.4345 29.0412C84.959 29.0412 83.9416 28.0877 83.883 26.3352H89.8223V25.8026C89.8223 22.7557 88.0112 21.7116 86.3067 21.7116C84.0908 21.7116 82.6206 23.4588 82.6206 25.973C82.6206 28.4872 84.0694 30.1705 86.4345 30.1705ZM83.883 25.2486C83.9682 23.9755 84.8685 22.8409 86.3067 22.8409C87.6703 22.8409 88.5439 23.8636 88.5439 25.2486H83.883Z" fill="black"/>
<path d="M98.4249 21.8182H97.0613L94.8028 28.3381H94.7175L92.459 21.8182H91.0954L94.1209 30H95.3993L98.4249 21.8182Z" fill="black"/>
<path d="M100.084 30H101.341V21.8182H100.084V30ZM100.723 20.4545C101.213 20.4545 101.618 20.071 101.618 19.6023C101.618 19.1335 101.213 18.75 100.723 18.75C100.233 18.75 99.8285 19.1335 99.8285 19.6023C99.8285 20.071 100.233 20.4545 100.723 20.4545Z" fill="black"/>
<path d="M106.968 30.1705C109.184 30.1705 110.675 28.4872 110.675 25.9517C110.675 23.3949 109.184 21.7116 106.968 21.7116C104.752 21.7116 103.26 23.3949 103.26 25.9517C103.26 28.4872 104.752 30.1705 106.968 30.1705ZM106.968 29.0412C105.284 29.0412 104.517 27.5923 104.517 25.9517C104.517 24.3111 105.284 22.8409 106.968 22.8409C108.651 22.8409 109.418 24.3111 109.418 25.9517C109.418 27.5923 108.651 29.0412 106.968 29.0412Z" fill="black"/>
<path d="M117.75 26.6548C117.75 28.1889 116.578 28.892 115.641 28.892C114.597 28.892 113.851 28.125 113.851 26.9318V21.8182H112.594V27.017C112.594 29.1051 113.702 30.1065 115.236 30.1065C116.472 30.1065 117.281 29.446 117.665 28.6151H117.75V30H119.007V21.8182H117.75V26.6548Z" fill="black"/>
<path d="M127.105 23.6506C126.711 22.4893 125.827 21.7116 124.207 21.7116C122.482 21.7116 121.203 22.6918 121.203 24.0767C121.203 25.206 121.874 25.9624 123.377 26.3139L124.74 26.6335C125.566 26.8253 125.955 27.2195 125.955 27.7841C125.955 28.4872 125.209 29.0625 124.037 29.0625C123.009 29.0625 122.364 28.6204 122.141 27.7415L120.948 28.0398C121.241 29.43 122.386 30.1705 124.058 30.1705C125.96 30.1705 127.254 29.1317 127.254 27.7202C127.254 26.5803 126.541 25.8611 125.081 25.5043L123.867 25.206C122.897 24.9663 122.46 24.6413 122.46 24.0128C122.46 23.3097 123.206 22.7983 124.207 22.7983C125.305 22.7983 125.758 23.4055 125.976 23.9702L127.105 23.6506Z" fill="black"/>
<path d="M134.175 33.0469C135.31 33.0469 136.114 32.445 136.583 31.1932L140.066 21.8395L138.692 21.8182L136.434 28.3381H136.348L134.09 21.8182H132.726L135.752 30.0426L135.517 30.6818C135.07 31.907 134.495 32.0241 133.579 31.7898L133.259 32.8977C133.387 32.9616 133.749 33.0469 134.175 33.0469Z" fill="black"/>
<path d="M144.867 30.1705C146.529 30.1705 147.744 29.3395 148.127 28.1037L146.913 27.7628C146.593 28.6151 145.853 29.0412 144.867 29.0412C143.392 29.0412 142.374 28.0877 142.316 26.3352H148.255V25.8026C148.255 22.7557 146.444 21.7116 144.739 21.7116C142.523 21.7116 141.053 23.4588 141.053 25.973C141.053 28.4872 142.502 30.1705 144.867 30.1705ZM142.316 25.2486C142.401 23.9755 143.301 22.8409 144.739 22.8409C146.103 22.8409 146.976 23.8636 146.976 25.2486H142.316Z" fill="black"/>
<path d="M152.575 30.1918C154.002 30.1918 154.748 29.4247 155.004 28.892H155.068V30H156.325V24.6094C156.325 22.0099 154.343 21.7116 153.299 21.7116C152.063 21.7116 150.657 22.1378 150.018 23.6293L151.211 24.0554C151.488 23.4588 152.143 22.8196 153.342 22.8196C154.498 22.8196 155.068 23.4322 155.068 24.4815V24.5241C155.068 25.1314 154.45 25.0781 152.958 25.2699C151.44 25.467 149.784 25.8026 149.784 27.6776C149.784 29.2756 151.019 30.1918 152.575 30.1918ZM152.767 29.0625C151.765 29.0625 151.041 28.6151 151.041 27.7415C151.041 26.7827 151.914 26.4844 152.894 26.3565C153.427 26.2926 154.855 26.1435 155.068 25.8878V27.0384C155.068 28.0611 154.258 29.0625 152.767 29.0625Z" fill="black"/>
<path d="M158.619 30H159.876V24.8224C159.876 23.7145 160.75 22.9048 161.943 22.9048C162.279 22.9048 162.625 22.9688 162.71 22.9901V21.7116C162.566 21.701 162.236 21.6903 162.05 21.6903C161.07 21.6903 160.217 22.2443 159.919 23.054H159.834V21.8182H158.619V30Z" fill="black"/>
<path d="M175.259 33.0682V21.8182H174.044V23.1179H173.895C173.618 22.6918 173.128 21.7116 171.53 21.7116C169.463 21.7116 168.036 23.3523 168.036 25.9304C168.036 28.5298 169.463 30.1705 171.509 30.1705C173.085 30.1705 173.618 29.1903 173.895 28.7429H174.002V33.0682H175.259ZM174.023 25.9091C174.023 27.7628 173.192 29.0412 171.679 29.0412C170.102 29.0412 169.293 27.6562 169.293 25.9091C169.293 24.1832 170.081 22.8409 171.679 22.8409C173.213 22.8409 174.023 24.0767 174.023 25.9091Z" fill="black"/>
<path d="M182.716 26.6548C182.716 28.1889 181.544 28.892 180.607 28.892C179.563 28.892 178.817 28.125 178.817 26.9318V21.8182H177.56V27.017C177.56 29.1051 178.668 30.1065 180.202 30.1065C181.438 30.1065 182.247 29.446 182.631 28.6151H182.716V30H183.973V21.8182H182.716V26.6548Z" fill="black"/>
<path d="M189.706 30.1705C191.368 30.1705 192.582 29.3395 192.966 28.1037L191.751 27.7628C191.432 28.6151 190.691 29.0412 189.706 29.0412C188.23 29.0412 187.213 28.0877 187.154 26.3352H193.094V25.8026C193.094 22.7557 191.283 21.7116 189.578 21.7116C187.362 21.7116 185.892 23.4588 185.892 25.973C185.892 28.4872 187.341 30.1705 189.706 30.1705ZM187.154 25.2486C187.24 23.9755 188.14 22.8409 189.578 22.8409C190.942 22.8409 191.815 23.8636 191.815 25.2486H187.154Z" fill="black"/>
<path d="M200.802 23.6506C200.407 22.4893 199.523 21.7116 197.904 21.7116C196.178 21.7116 194.9 22.6918 194.9 24.0767C194.9 25.206 195.571 25.9624 197.073 26.3139L198.436 26.6335C199.262 26.8253 199.651 27.2195 199.651 27.7841C199.651 28.4872 198.905 29.0625 197.733 29.0625C196.705 29.0625 196.061 28.6204 195.837 27.7415L194.644 28.0398C194.937 29.43 196.082 30.1705 197.755 30.1705C199.656 30.1705 200.951 29.1317 200.951 27.7202C200.951 26.5803 200.237 25.8611 198.777 25.5043L197.563 25.206C196.593 24.9663 196.157 24.6413 196.157 24.0128C196.157 23.3097 196.902 22.7983 197.904 22.7983C199.001 22.7983 199.454 23.4055 199.672 23.9702L200.802 23.6506Z" fill="black"/>
<path d="M206.401 21.8182H204.654V19.858H203.397V21.8182H202.161V22.8835H203.397V27.9972C203.397 29.4247 204.548 30.1065 205.613 30.1065C206.082 30.1065 206.38 30.0213 206.55 29.9574L206.295 28.8281C206.188 28.8494 206.018 28.892 205.741 28.892C205.187 28.892 204.654 28.7216 204.654 27.6562V22.8835H206.401V21.8182Z" fill="black"/>
<path d="M208.292 30H209.549V21.8182H208.292V30ZM208.931 20.4545C209.421 20.4545 209.826 20.071 209.826 19.6023C209.826 19.1335 209.421 18.75 208.931 18.75C208.441 18.75 208.036 19.1335 208.036 19.6023C208.036 20.071 208.441 20.4545 208.931 20.4545Z" fill="black"/>
<path d="M215.176 30.1705C217.392 30.1705 218.883 28.4872 218.883 25.9517C218.883 23.3949 217.392 21.7116 215.176 21.7116C212.96 21.7116 211.468 23.3949 211.468 25.9517C211.468 28.4872 212.96 30.1705 215.176 30.1705ZM215.176 29.0412C213.492 29.0412 212.725 27.5923 212.725 25.9517C212.725 24.3111 213.492 22.8409 215.176 22.8409C216.859 22.8409 217.626 24.3111 217.626 25.9517C217.626 27.5923 216.859 29.0412 215.176 29.0412Z" fill="black"/>
<path d="M222.059 25.0781C222.059 23.6506 222.943 22.8409 224.147 22.8409C225.314 22.8409 226.022 23.6026 226.022 24.8864V30H227.279V24.8011C227.279 22.7131 226.166 21.7116 224.509 21.7116C223.274 21.7116 222.507 22.2656 222.123 23.0966H222.016V21.8182H220.802V30H222.059V25.0781Z" fill="black"/>
<path d="M233.795 33.0682H235.052V28.7429H235.159C235.436 29.1903 235.968 30.1705 237.545 30.1705C239.591 30.1705 241.018 28.5298 241.018 25.9304C241.018 23.3523 239.591 21.7116 237.524 21.7116C235.926 21.7116 235.436 22.6918 235.159 23.1179H235.01V21.8182H233.795V33.0682ZM235.031 25.9091C235.031 24.0767 235.841 22.8409 237.375 22.8409C238.973 22.8409 239.761 24.1832 239.761 25.9091C239.761 27.6562 238.951 29.0412 237.375 29.0412C235.862 29.0412 235.031 27.7628 235.031 25.9091Z" fill="black"/>
<path d="M245.343 30.1918C246.771 30.1918 247.517 29.4247 247.772 28.892H247.836V30H249.093V24.6094C249.093 22.0099 247.112 21.7116 246.068 21.7116C244.832 21.7116 243.426 22.1378 242.787 23.6293L243.98 24.0554C244.257 23.4588 244.912 22.8196 246.11 22.8196C247.266 22.8196 247.836 23.4322 247.836 24.4815V24.5241C247.836 25.1314 247.218 25.0781 245.727 25.2699C244.209 25.467 242.552 25.8026 242.552 27.6776C242.552 29.2756 243.788 30.1918 245.343 30.1918ZM245.535 29.0625C244.534 29.0625 243.809 28.6151 243.809 27.7415C243.809 26.7827 244.683 26.4844 245.663 26.3565C246.196 26.2926 247.623 26.1435 247.836 25.8878V27.0384C247.836 28.0611 247.027 29.0625 245.535 29.0625Z" fill="black"/>
<path d="M251.388 33.0682H252.645V28.7429H252.752C253.029 29.1903 253.561 30.1705 255.138 30.1705C257.183 30.1705 258.611 28.5298 258.611 25.9304C258.611 23.3523 257.183 21.7116 255.117 21.7116C253.519 21.7116 253.029 22.6918 252.752 23.1179H252.602V21.8182H251.388V33.0682ZM252.624 25.9091C252.624 24.0767 253.433 22.8409 254.967 22.8409C256.565 22.8409 257.354 24.1832 257.354 25.9091C257.354 27.6562 256.544 29.0412 254.967 29.0412C253.455 29.0412 252.624 27.7628 252.624 25.9091Z" fill="black"/>
<path d="M263.959 30.1705C265.621 30.1705 266.835 29.3395 267.219 28.1037L266.004 27.7628C265.685 28.6151 264.944 29.0412 263.959 29.0412C262.483 29.0412 261.466 28.0877 261.407 26.3352H267.347V25.8026C267.347 22.7557 265.536 21.7116 263.831 21.7116C261.615 21.7116 260.145 23.4588 260.145 25.973C260.145 28.4872 261.594 30.1705 263.959 30.1705ZM261.407 25.2486C261.493 23.9755 262.393 22.8409 263.831 22.8409C265.195 22.8409 266.068 23.8636 266.068 25.2486H261.407Z" fill="black"/>
<path d="M269.259 30H270.516V24.8224C270.516 23.7145 271.39 22.9048 272.583 22.9048C272.918 22.9048 273.265 22.9688 273.35 22.9901V21.7116C273.206 21.701 272.876 21.6903 272.689 21.6903C271.709 21.6903 270.857 22.2443 270.559 23.054H270.473V21.8182H269.259V30Z" fill="black"/>
<path d="M280.635 23.6506C280.241 22.4893 279.357 21.7116 277.738 21.7116C276.012 21.7116 274.734 22.6918 274.734 24.0767C274.734 25.206 275.405 25.9624 276.907 26.3139L278.27 26.6335C279.096 26.8253 279.485 27.2195 279.485 27.7841C279.485 28.4872 278.739 29.0625 277.567 29.0625C276.539 29.0625 275.895 28.6204 275.671 27.7415L274.478 28.0398C274.771 29.43 275.916 30.1705 277.589 30.1705C279.49 30.1705 280.785 29.1317 280.785 27.7202C280.785 26.5803 280.071 25.8611 278.611 25.5043L277.397 25.206C276.427 24.9663 275.991 24.6413 275.991 24.0128C275.991 23.3097 276.736 22.7983 277.738 22.7983C278.835 22.7983 279.288 23.4055 279.506 23.9702L280.635 23.6506Z" fill="black"/>
<rect x="0.5" y="0.5" width="317" height="59" rx="6.5" stroke="#3300FF"/>
<path d="M24.5454 34.9083H52.3635C53.2673 34.9083 53.9999 35.6409 53.9999 36.5447C53.9999 37.4485 53.2673 38.1811 52.3635 38.1811H44.1817V44.7265H52.3635C53.2673 44.7265 53.9999 45.4591 53.9999 46.3629C53.9999 47.2665 53.2673 47.999 52.3635 47.999H24.5454C20.9304 47.9993 18 45.0689 18 41.4539C18 37.8389 20.9304 34.9083 24.5454 34.9083Z" fill="#0784FF"/>
<path d="M18.9079 44.7269C20.0417 46.6752 22.1288 47.9998 24.5454 47.9998H37.6364V44.7269H18.9079Z" fill="#005EEE"/>
<path d="M49.0909 38.1815C47.2835 38.1815 45.8182 39.6467 45.8182 41.4543C45.8182 43.2617 47.2835 44.7269 49.0909 44.7269H36.0001C34.1925 44.7269 32.7273 43.2617 32.7273 41.4543C32.7273 39.6467 34.1925 38.1815 36.0001 38.1815H49.0909Z" fill="#DFE5FF"/>
<path d="M31.0911 31.6364H39.2729C40.1765 31.6364 40.909 32.369 40.909 33.2728C40.909 34.1764 40.1765 34.909 39.2729 34.909H31.0911C30.1873 34.909 29.4547 34.1764 29.4547 33.2728C29.4547 32.369 30.1873 31.6364 31.0911 31.6364Z" fill="#002755"/>
<path d="M29.4545 16.9095H40.9088C42.7164 16.9095 44.1816 18.3747 44.1816 20.1823V28.3641C44.1816 31.0753 41.9838 33.2733 39.2726 33.2733H31.0909C28.3795 33.2733 26.1817 31.0753 26.1817 28.3641V20.1823C26.1817 18.3749 27.6468 16.9095 29.4545 16.9095Z" fill="#33527D"/>
<path d="M31.0912 33.2731C33.8024 33.2731 36.0002 31.075 36.0002 28.3639V20.1821C36.0002 18.3747 34.535 16.9095 32.7274 16.9095H40.9092C42.7168 16.9095 44.182 18.3747 44.182 20.1821V28.3639C44.182 31.0753 41.9841 33.2731 39.273 33.2731H31.0912Z" fill="#163969"/>
<path d="M42.5451 21.8178C43.4489 21.8178 44.1815 22.5503 44.1815 23.4542C44.1815 24.3577 43.4489 25.0904 42.5451 25.0904C41.6415 25.0904 40.9089 24.3577 40.9089 23.4542C40.9087 22.5503 41.6413 21.8178 42.5451 21.8178Z" fill="#002755"/>
<path d="M42.5451 28.3637C43.4489 28.3637 44.1815 29.0963 44.1815 30.0001C44.1815 30.9039 43.4489 31.6365 42.5451 31.6365C41.6415 31.6365 40.9089 30.9039 40.9089 30.0001C40.9087 29.0963 41.6413 28.3637 42.5451 28.3637Z" fill="#002755"/>
<path d="M44.1817 29.9996H42.5453C41.6417 29.999 40.9095 29.2659 40.91 28.3623C40.9107 27.4594 41.6423 26.7275 42.5453 26.7268H44.1817C45.0855 26.7272 45.8186 25.9948 45.8188 25.0911C45.8192 24.1875 45.0868 23.4545 44.183 23.4542C44.1826 23.4542 44.1822 23.4542 44.1817 23.4542H42.5453C41.6417 23.4542 40.9089 22.7216 40.9089 21.8178C40.9089 20.914 41.6415 20.1814 42.5453 20.1814H44.1817C46.8931 20.1814 49.0909 22.3792 49.0909 25.0904C49.0909 27.8016 46.8929 29.9996 44.1817 29.9996Z" fill="#33527D"/>
<path d="M40.9089 12H35.9999C35.0961 12 34.3635 12.7326 34.3635 13.6362C34.3635 13.6364 34.3635 13.6364 34.3635 13.6364C33.4599 13.636 32.7268 14.3683 32.7264 15.2721C32.7262 16.1757 33.4586 16.9088 34.3622 16.9092C34.3626 16.9092 34.3631 16.9092 34.3635 16.9092H35.9999C36.9037 16.9092 37.6363 16.1766 37.6363 15.2728H40.9089C41.8126 15.2728 42.5453 14.5402 42.5453 13.6364C42.5453 12.7326 41.8126 12 40.9089 12Z" fill="#CCD4FF"/>
<path d="M44.9998 15.2732H46.6362C47.0879 15.2732 47.4544 15.6394 47.4544 16.0911C47.4544 16.5432 47.0879 16.9093 46.6362 16.9093H44.9998C44.548 16.9093 44.1816 16.5432 44.1816 16.0911C44.1816 15.6394 44.548 15.2732 44.9998 15.2732Z" fill="#CCD4FF"/>
<path d="M50.7273 16.0911C50.7273 16.5432 50.3611 16.9093 49.9093 16.9093C49.4573 16.9093 49.0911 16.5432 49.0911 16.0911C49.0911 15.6394 49.4573 15.2732 49.9093 15.2732C50.3611 15.2732 50.7273 15.6394 50.7273 16.0911Z" fill="#CCD4FF"/>
<path d="M36.818 38.1815H44.9999C45.4518 38.1815 45.8181 38.5479 45.8181 38.9997C45.8181 39.4515 45.4518 39.8179 44.9999 39.8179H36.818C36.3663 39.8179 35.9998 39.4515 35.9998 38.9997C35.9998 38.5479 36.3663 38.1815 36.818 38.1815Z" fill="#A4B1FF"/>
<path d="M22.9088 36.5455H26.1816C27.0854 36.5455 27.818 37.2782 27.818 38.1819C27.818 39.0855 27.0854 39.8183 26.1816 39.8183H22.9088C22.0052 39.8183 21.2726 39.0855 21.2726 38.1819C21.2726 37.2782 22.0052 36.5455 22.9088 36.5455Z" fill="#5CBEFF"/>
<path d="M33.5455 41.4547H45C45.4521 41.4547 45.8182 41.8208 45.8182 42.2729C45.8182 42.7247 45.4521 43.0908 45 43.0908H33.5455C33.0937 43.0908 32.7273 42.7247 32.7273 42.2729C32.7273 41.8208 33.0937 41.4547 33.5455 41.4547Z" fill="#CCD4FF"/>
<path d="M52.3637 34.9083H36.0001C32.3851 34.9083 29.4547 37.8389 29.4547 41.4539C29.4547 45.0689 32.3851 47.9993 36.0001 47.9993H52.3637C53.2675 47.9993 54 47.2667 54 46.3629C54 45.4591 53.2675 44.7265 52.3637 44.7265H36.0001C34.1925 44.7271 32.7269 43.2626 32.726 41.455C32.7253 39.6476 34.1901 38.1818 35.9975 38.1811C35.9984 38.1811 35.9992 38.1811 36.0001 38.1811H52.3637C53.2672 38.1811 54 37.4485 54 36.5447C54 35.6409 53.2675 34.9083 52.3637 34.9083Z" fill="#079CFF"/>
<path d="M22.909 41.4543C22.909 39.6467 22.1765 38.1815 21.2729 38.1815C20.3691 38.1815 19.6365 39.6467 19.6365 41.4543C19.6365 43.2617 20.3691 44.7269 21.2729 44.7269C22.1765 44.7269 22.909 43.2617 22.909 41.4543Z" fill="#FFEA21"/>
<path d="M43.3636 20.1814H45C45.452 20.1814 45.8182 20.5478 45.8182 20.9996C45.8182 21.4514 45.452 21.8178 45 21.8178H43.3636C42.9118 21.8178 42.5454 21.4514 42.5454 20.9996C42.5454 20.5478 42.9118 20.1814 43.3636 20.1814Z" fill="#ADB9CA"/>
<path d="M41.7271 26.7269H43.3635C43.8155 26.7269 44.1817 27.0933 44.1817 27.5451C44.1817 27.9969 43.8155 28.3633 43.3635 28.3633H41.7271C41.2753 28.3633 40.9089 27.9969 40.9089 27.5451C40.9089 27.0933 41.2753 26.7269 41.7271 26.7269Z" fill="#002755"/>
<path d="M28.6363 18.545H33.5454C33.9974 18.545 34.3636 18.9115 34.3636 19.3632C34.3636 19.815 33.9974 20.1814 33.5454 20.1814H28.6363C28.1844 20.1814 27.8181 19.815 27.8181 19.3632C27.8181 18.9115 28.1844 18.545 28.6363 18.545Z" fill="#5E7599"/>
<path d="M38.4545 18.545H41.7272C42.1791 18.545 42.5454 18.9115 42.5454 19.3632C42.5454 19.815 42.1791 20.1814 41.7272 20.1814H38.4545C38.0025 20.1814 37.6363 19.815 37.6363 19.3632C37.6363 18.9115 38.0025 18.545 38.4545 18.545Z" fill="#33527D"/>
<path d="M29.4545 21.8178C30.3582 21.8178 31.091 22.5503 31.091 23.4542V28.3632C31.091 29.2669 30.3583 29.9996 29.4545 29.9996C28.5508 29.9996 27.8181 29.2669 27.8181 28.3632V23.4542C27.8181 22.5503 28.5508 21.8178 29.4545 21.8178Z" fill="#5E7599"/>
<path d="M29.4545 21.8178C30.3582 21.8178 31.091 22.5503 31.091 23.4542V25.0906C31.091 25.9941 30.3583 26.7268 29.4545 26.7268C28.5508 26.7268 27.8181 25.9941 27.8181 25.0906V23.4542C27.8181 22.5503 28.5508 21.8178 29.4545 21.8178Z" fill="#ADB9CA"/>
<path d="M36.818 13.6364H40.0908C40.5426 13.6364 40.9089 14.0026 40.9089 14.4546C40.9089 14.9064 40.5426 15.2728 40.0908 15.2728H36.818C36.3663 15.2728 35.9998 14.9064 35.9998 14.4546C35.9998 14.0026 36.3663 13.6364 36.818 13.6364Z" fill="#A4B1FF"/>
<path d="M37.6362 16.0911C37.6362 16.5432 37.2698 16.9093 36.818 16.9093C36.3663 16.9093 35.9998 16.5432 35.9998 16.0911C35.9998 15.6394 36.3663 15.2732 36.818 15.2732C37.2698 15.2732 37.6362 15.6394 37.6362 16.0911Z" fill="#A4B1FF"/>
<path d="M35.9997 12.8182C35.9997 13.27 35.6333 13.6364 35.1815 13.6364C34.7297 13.6364 34.3633 13.27 34.3633 12.8182C34.3633 12.3664 34.7297 12 35.1815 12C35.6333 12 35.9997 12.3664 35.9997 12.8182Z" fill="#EFF2FF"/>
<path d="M34.3637 14.4546C34.3637 14.9064 33.9974 15.2728 33.5455 15.2728C33.0937 15.2728 32.7273 14.9064 32.7273 14.4546C32.7273 14.0026 33.0937 13.6364 33.5455 13.6364C33.9974 13.6364 34.3637 14.0026 34.3637 14.4546Z" fill="#EFF2FF"/>
</svg>
