<svg width="25" height="27" viewBox="0 0 25 27" fill="none" xmlns="http://www.w3.org/2000/svg">
<path fill-rule="evenodd" clip-rule="evenodd" d="M8.20069 3.25434C5.74671 3.25434 3.73703 5.27586 3.73703 7.74429H1.31488C1.31488 3.93027 4.409 0.817937 8.20069 0.817937C11.9924 0.817937 15.0865 3.93027 15.0865 7.74429C15.0865 11.5583 11.9924 14.6707 8.20069 14.6707V12.2342C10.6547 12.2342 12.6644 10.2127 12.6644 7.74429C12.6644 5.27586 10.6547 3.25434 8.20069 3.25434Z" fill="#B244F1"/>
<path fill-rule="evenodd" clip-rule="evenodd" d="M8.20069 12.2342C11.9924 12.2342 15.0865 15.3466 15.0865 19.1606C15.0865 22.9746 11.9924 26.087 8.20069 26.087C4.409 26.087 1.31488 22.9746 1.31488 19.1606H3.73703C3.73703 21.629 5.74671 23.6505 8.20069 23.6505C10.6547 23.6505 12.6644 21.629 12.6644 19.1606C12.6644 16.6922 10.6547 14.6707 8.20069 14.6707V12.2342Z" fill="#B244F1"/>
<path fill-rule="evenodd" clip-rule="evenodd" d="M19.8097 25.7998V2.02744H22.2318V25.7998H19.8097Z" fill="#B244F1"/>
<path fill-rule="evenodd" clip-rule="evenodd" d="M21.0208 14.6707H8.20069V12.2342H21.0208V14.6707Z" fill="#B244F1"/>
<path fill-rule="evenodd" clip-rule="evenodd" d="M25 2.43641H0V0H25V2.43641Z" fill="#B244F1"/>
</svg>
