<svg width="152" height="48" viewBox="0 0 152 48" fill="none" xmlns="http://www.w3.org/2000/svg">
<rect x="0.25" y="0.25" width="151.5" height="47.5" rx="3.75" stroke="#E4E4E4" stroke-width="0.5"/>
<path d="M66.8823 24.9858C66.8823 24.6421 66.7606 24.3771 66.5171 24.1909C66.2772 24.0047 65.8421 23.8167 65.2119 23.627C64.5817 23.4372 64.0804 23.2259 63.708 22.9932C62.9954 22.5456 62.6392 21.9619 62.6392 21.2422C62.6392 20.612 62.8952 20.0928 63.4072 19.6846C63.9229 19.2764 64.5907 19.0723 65.4106 19.0723C65.9549 19.0723 66.4401 19.1725 66.8662 19.373C67.2923 19.5736 67.6271 19.86 67.8706 20.2324C68.1141 20.6012 68.2358 21.0112 68.2358 21.4624H66.8823C66.8823 21.0542 66.7534 20.7355 66.4956 20.5063C66.2414 20.2736 65.8761 20.1572 65.3999 20.1572C64.9559 20.1572 64.6104 20.2521 64.3633 20.4419C64.1198 20.6317 63.998 20.8966 63.998 21.2368C63.998 21.5233 64.1305 21.7632 64.3955 21.9565C64.6605 22.1463 65.0973 22.3325 65.7061 22.5151C66.3148 22.6942 66.8035 22.9001 67.1724 23.1328C67.5412 23.362 67.8115 23.627 67.9834 23.9277C68.1553 24.2249 68.2412 24.5741 68.2412 24.9751C68.2412 25.6268 67.9906 26.146 67.4893 26.5327C66.9915 26.9159 66.3148 27.1074 65.459 27.1074C64.8932 27.1074 64.3722 27.0036 63.896 26.7959C63.4233 26.5846 63.0545 26.2946 62.7896 25.9258C62.5282 25.557 62.3975 25.1273 62.3975 24.6367H63.7563C63.7563 25.0807 63.9032 25.4245 64.1968 25.668C64.4904 25.9115 64.9111 26.0332 65.459 26.0332C65.9316 26.0332 66.2861 25.9383 66.5225 25.7485C66.7624 25.5552 66.8823 25.3009 66.8823 24.9858ZM72.7798 27C72.7225 26.889 72.6724 26.7082 72.6294 26.4575C72.214 26.8908 71.7056 27.1074 71.104 27.1074C70.5203 27.1074 70.0441 26.9409 69.6753 26.6079C69.3065 26.2749 69.1221 25.8631 69.1221 25.3726C69.1221 24.7531 69.3512 24.2786 69.8096 23.9492C70.2715 23.6162 70.9303 23.4497 71.7861 23.4497H72.5864V23.0684C72.5864 22.7676 72.5023 22.5277 72.334 22.3486C72.1657 22.166 71.9097 22.0747 71.5659 22.0747C71.2687 22.0747 71.0252 22.1499 70.8354 22.3003C70.6457 22.4471 70.5508 22.6351 70.5508 22.8643H69.2456C69.2456 22.5456 69.3512 22.2484 69.5625 21.9727C69.7738 21.6934 70.0602 21.4749 70.4219 21.3174C70.7871 21.1598 71.1935 21.0811 71.6411 21.0811C72.3215 21.0811 72.8639 21.2529 73.2686 21.5967C73.6732 21.9368 73.8809 22.4167 73.8916 23.0361V25.6572C73.8916 26.18 73.965 26.5972 74.1118 26.9087V27H72.7798ZM71.3457 26.0601C71.6035 26.0601 71.8452 25.9974 72.0708 25.8721C72.3 25.7467 72.4718 25.5785 72.5864 25.3672V24.2715H71.8828C71.3994 24.2715 71.036 24.3556 70.7925 24.5239C70.549 24.6922 70.4272 24.9303 70.4272 25.2383C70.4272 25.4889 70.5096 25.6895 70.6743 25.8398C70.8426 25.9867 71.0664 26.0601 71.3457 26.0601ZM76.4697 21.1885L76.5073 21.8599C76.937 21.3407 77.501 21.0811 78.1992 21.0811C79.4095 21.0811 80.0254 21.7739 80.0469 23.1597V27H78.7417V23.2349C78.7417 22.866 78.6611 22.5939 78.5 22.4185C78.3424 22.2394 78.0828 22.1499 77.7212 22.1499C77.1948 22.1499 76.8027 22.388 76.5449 22.8643V27H75.2397V21.1885H76.4697ZM84.6392 25.4209C84.6392 25.1882 84.5425 25.0109 84.3491 24.8892C84.1593 24.7674 83.8424 24.66 83.3984 24.5669C82.9544 24.4738 82.5838 24.3556 82.2866 24.2124C81.6349 23.8973 81.3091 23.4408 81.3091 22.8428C81.3091 22.3415 81.5203 21.9225 81.9429 21.5859C82.3654 21.2493 82.9025 21.0811 83.5542 21.0811C84.2489 21.0811 84.8092 21.2529 85.2354 21.5967C85.665 21.9404 85.8799 22.3862 85.8799 22.9341H84.5747C84.5747 22.6834 84.4816 22.4757 84.2954 22.311C84.1092 22.1427 83.8621 22.0586 83.5542 22.0586C83.2677 22.0586 83.0332 22.1248 82.8506 22.2573C82.6715 22.3898 82.582 22.5671 82.582 22.7891C82.582 22.9896 82.6662 23.1453 82.8345 23.2563C83.0028 23.3674 83.3429 23.4801 83.855 23.5947C84.367 23.7057 84.7681 23.84 85.0581 23.9976C85.3517 24.1515 85.5684 24.3377 85.708 24.5562C85.8512 24.7746 85.9229 25.0396 85.9229 25.3511C85.9229 25.8739 85.7062 26.2982 85.2729 26.624C84.8397 26.9463 84.2721 27.1074 83.5703 27.1074C83.0941 27.1074 82.6698 27.0215 82.2974 26.8496C81.925 26.6777 81.6349 26.4414 81.4272 26.1406C81.2196 25.8398 81.1157 25.5158 81.1157 25.1685H82.3833C82.4012 25.4764 82.5176 25.7145 82.7324 25.8828C82.9473 26.0475 83.2319 26.1299 83.5864 26.1299C83.9302 26.1299 84.1916 26.0654 84.3706 25.9365C84.5496 25.804 84.6392 25.6322 84.6392 25.4209ZM88.9521 24.5078L88.3721 25.104V27H87.0669V18.75H88.3721V23.5088L88.7803 22.9985L90.3862 21.1885H91.9546L89.7954 23.6108L92.1855 27H90.6763L88.9521 24.5078ZM95.854 22.3809C95.6821 22.3522 95.5049 22.3379 95.3223 22.3379C94.7243 22.3379 94.3215 22.5671 94.1138 23.0254V27H92.8086V21.1885H94.0547L94.0869 21.8384C94.402 21.3335 94.8389 21.0811 95.3975 21.0811C95.5837 21.0811 95.7376 21.1061 95.8594 21.1562L95.854 22.3809ZM98.0669 27H96.7617V21.1885H98.0669V27ZM96.6812 19.6792C96.6812 19.4787 96.7438 19.3122 96.8691 19.1797C96.998 19.0472 97.1807 18.981 97.417 18.981C97.6533 18.981 97.8359 19.0472 97.9648 19.1797C98.0938 19.3122 98.1582 19.4787 98.1582 19.6792C98.1582 19.8761 98.0938 20.0409 97.9648 20.1733C97.8359 20.3022 97.6533 20.3667 97.417 20.3667C97.1807 20.3667 96.998 20.3022 96.8691 20.1733C96.7438 20.0409 96.6812 19.8761 96.6812 19.6792ZM101.128 19.7759V21.1885H102.154V22.1553H101.128V25.3994C101.128 25.6214 101.171 25.7826 101.257 25.8828C101.347 25.9795 101.504 26.0278 101.73 26.0278C101.88 26.0278 102.033 26.0099 102.187 25.9741V26.9839C101.889 27.0662 101.603 27.1074 101.327 27.1074C100.325 27.1074 99.8232 26.5542 99.8232 25.4478V22.1553H98.8672V21.1885H99.8232V19.7759H101.128Z" fill="black"/>
<path fill-rule="evenodd" clip-rule="evenodd" d="M29.2007 14.2543C26.7467 14.2543 24.737 16.2759 24.737 18.7443H22.3149C22.3149 14.9303 25.409 11.8179 29.2007 11.8179C32.9924 11.8179 36.0865 14.9303 36.0865 18.7443C36.0865 22.5583 32.9924 25.6707 29.2007 25.6707V23.2342C31.6547 23.2342 33.6644 21.2127 33.6644 18.7443C33.6644 16.2759 31.6547 14.2543 29.2007 14.2543Z" fill="#B244F1"/>
<path fill-rule="evenodd" clip-rule="evenodd" d="M29.2007 23.2342C32.9924 23.2342 36.0865 26.3466 36.0865 30.1606C36.0865 33.9746 32.9924 37.087 29.2007 37.087C25.409 37.087 22.3149 33.9746 22.3149 30.1606H24.737C24.737 32.629 26.7467 34.6505 29.2007 34.6505C31.6547 34.6505 33.6644 32.629 33.6644 30.1606C33.6644 27.6922 31.6547 25.6707 29.2007 25.6707V23.2342Z" fill="#B244F1"/>
<path fill-rule="evenodd" clip-rule="evenodd" d="M40.8097 36.7998V13.0274H43.2318V36.7998H40.8097Z" fill="#B244F1"/>
<path fill-rule="evenodd" clip-rule="evenodd" d="M42.0208 25.6707H29.2007V23.2342H42.0208V25.6707Z" fill="#B244F1"/>
<path fill-rule="evenodd" clip-rule="evenodd" d="M46 13.4364H21V11H46V13.4364Z" fill="#B244F1"/>
</svg>
