<svg width="22" height="21" viewBox="0 0 22 21" fill="none" xmlns="http://www.w3.org/2000/svg">
<path d="M16.6517 20.9999C16.2729 20.9999 15.8941 20.8805 15.5636 20.6415L11.3308 17.5814C11.1329 17.4384 10.8671 17.4384 10.6692 17.5814L6.43643 20.6415C5.77528 21.1195 4.92112 21.1195 4.25997 20.6415C3.59899 20.1635 3.33497 19.3551 3.58741 18.5816L5.2041 13.6303C5.2798 13.3988 5.19756 13.1473 4.99967 13.0042L0.76709 9.9442C0.105944 9.46619 -0.158078 8.65764 0.0943627 7.88434C0.346971 7.11104 1.03816 6.61132 1.85524 6.61132H7.08717C7.33172 6.61132 7.5469 6.45582 7.62243 6.22433L9.23913 1.27303C9.49174 0.499724 10.1829 0 11 0C11.8171 0 12.5083 0.499724 12.7609 1.27303L14.3776 6.22433C14.4531 6.45582 14.6683 6.61132 14.9128 6.61132H20.1448C20.9618 6.61132 21.653 7.11104 21.9056 7.88434C22.1581 8.65764 21.8941 9.46619 21.2329 9.9442L17.0003 13.0042C16.8024 13.1473 16.7202 13.3988 16.7959 13.6303L18.4126 18.5816C18.665 19.3551 18.401 20.1635 17.74 20.6415C17.4095 20.8805 17.0305 20.9999 16.6517 20.9999V20.9999ZM11 16.1911C11.3813 16.1911 11.7629 16.3088 12.0883 16.5442L16.3209 19.6041C16.6281 19.8261 16.905 19.6602 16.9825 19.6041C17.0603 19.548 17.3043 19.3371 17.187 18.978L15.5703 14.0267C15.3217 13.2652 15.5919 12.4375 16.2428 11.967L20.4756 8.90684C20.7826 8.68487 20.7096 8.37137 20.68 8.28068C20.6503 8.18982 20.5241 7.8937 20.1448 7.8937H14.9128C14.1083 7.8937 13.4007 7.38211 13.1521 6.62067L11.5353 1.6692C11.4181 1.31027 11.096 1.28221 11 1.28221C10.904 1.28221 10.5819 1.31027 10.4647 1.6692L8.84788 6.62067C8.5993 7.38211 7.89166 7.8937 7.08717 7.8937H1.85524C1.4759 7.8937 1.34968 8.18982 1.31998 8.28068C1.29027 8.37137 1.21742 8.68487 1.52441 8.90684L5.75716 11.9668C6.40807 12.4375 6.6783 13.2652 6.42972 14.0267L4.81285 18.978C4.6957 19.3371 4.93975 19.548 5.01746 19.6041C5.095 19.6602 5.37212 19.8261 5.67911 19.6041L9.91169 16.5442C10.2371 16.3088 10.6185 16.1911 11 16.1911Z" fill="#4D7DFD"/>
</svg>
