<svg width="98" height="98" viewBox="0 0 98 98" fill="none" xmlns="http://www.w3.org/2000/svg">
<path d="M91.5976 0H6.10651C2.73398 0 0 2.73398 0 6.10651V91.5976C0 94.9702 2.73398 97.7041 6.10651 97.7041H91.5976C94.9702 97.7041 97.7041 94.9702 97.7041 91.5976V6.10651C97.7041 2.73398 94.9702 0 91.5976 0Z" fill="#0678FD"/>
<path d="M51.9456 45.7586H80.8715C83.0012 45.7586 84.7278 47.4852 84.7278 49.6154V82.3974C84.7278 84.5278 83.0012 86.2544 80.8715 86.2544H51.9456C49.8154 86.2544 48.0887 84.5278 48.0887 82.3974V49.6154C48.0887 47.4852 49.8154 45.7586 51.9456 45.7586Z" fill="#079CFF"/>
<path d="M51.9456 43.8298H78.9426C81.0731 43.8298 82.7997 45.5565 82.7997 47.6866V76.6123C82.7997 78.7419 81.0731 80.4685 78.9426 80.4685H48.0887V47.6866C48.0887 45.5565 49.8154 43.8298 51.9456 43.8298Z" fill="#079CFF"/>
<path d="M56.7662 76.6122H77.9785C78.5106 76.6122 78.9426 77.0435 78.9426 77.5763C78.9426 78.1083 78.5106 78.5404 77.9785 78.5404H56.7662C56.2338 78.5404 55.802 78.1083 55.802 77.5763C55.802 77.0435 56.2338 76.6122 56.7662 76.6122Z" fill="#5CBEFF"/>
<path d="M50.0172 47.6862C51.082 47.6862 51.9456 48.5496 51.9456 49.6144V82.3966C51.9456 83.4622 51.082 84.3255 50.0172 84.3255C48.9521 84.3255 48.0887 83.4622 48.0887 82.3966V49.6144C48.0887 48.5496 48.9521 47.6862 50.0172 47.6862Z" fill="#0784FF"/>
<path d="M50.0172 72.7552C51.082 72.7552 51.9456 73.6185 51.9456 74.6836V78.5404C51.9456 79.6052 51.082 80.4685 50.0172 80.4685C48.9521 80.4685 48.0887 79.6052 48.0887 78.5404V74.6836C48.0887 73.6185 48.9521 72.7552 50.0172 72.7552Z" fill="#005EEE"/>
<path d="M78.9427 80.4685H51.9456C50.8805 80.4685 50.0166 81.3311 50.0164 82.3959C50.0158 83.4615 50.8789 84.3255 51.944 84.3255C51.9445 84.3255 51.9448 84.3255 51.9456 84.3255H78.9427C81.0731 84.3255 82.7997 82.5989 82.7997 80.4685V76.6122C82.7997 78.7419 81.0723 80.4685 78.9427 80.4685Z" fill="#EFF2FF"/>
<path d="M54.8379 45.7586C55.3704 45.7586 55.8022 46.1901 55.8022 46.7228V79.5052C55.8022 80.038 55.3704 80.4693 54.8379 80.4693C54.3055 80.4693 53.8737 80.038 53.8737 79.5052V46.7228C53.8737 46.1901 54.3055 45.7586 54.8379 45.7586Z" fill="#005EEE"/>
<path d="M56.7662 45.7586C57.2986 45.7586 57.7304 46.1901 57.7304 46.7228V77.5771C57.7304 78.1091 57.2986 78.5411 56.7662 78.5411C56.2338 78.5411 55.802 78.1091 55.802 77.5771V46.7228C55.802 46.1901 56.2338 45.7586 56.7662 45.7586Z" fill="#5CBEFF"/>
<path d="M83.9187 82.5233C83.4218 82.3333 82.8653 82.5829 82.676 83.0798C82.6752 83.0806 82.6752 83.0813 82.6752 83.0821C82.3882 83.8294 81.6715 84.3232 80.8715 84.3255H51.9456C50.8805 84.3263 50.0166 83.463 50.0164 82.3982C50.0159 81.3333 50.879 80.4693 51.9441 80.4693C51.9445 80.4693 51.9449 80.4693 51.9456 80.4693H77.9786C78.5106 80.4693 78.9426 80.0372 78.9426 79.5052C78.9426 78.9724 78.5106 78.5411 77.9786 78.5411H51.9456C49.8154 78.5411 48.0887 80.2678 48.0887 82.3974C48.0887 84.5278 49.8154 86.2544 51.9456 86.2544H80.8845C80.886 86.2544 80.8868 86.2544 80.8883 86.2544H80.9036L80.9074 86.2537H80.915C80.9173 86.2537 80.9189 86.2537 80.9204 86.2537H80.9265H80.928H80.9334C80.9357 86.2537 80.9372 86.2537 80.9395 86.2537H80.941C80.9425 86.2537 80.944 86.2537 80.9448 86.2537H80.9471C80.9486 86.2537 80.9494 86.2537 80.9509 86.2537H80.9524C80.9547 86.2529 80.9563 86.2529 80.9586 86.2529H80.9639C80.9647 86.2529 80.9654 86.2529 80.9662 86.2529C80.9669 86.2529 80.9685 86.2529 80.9692 86.2529H80.9715C80.9731 86.2529 80.9746 86.2529 80.9761 86.2529H80.9769C80.9792 86.2529 80.9815 86.2529 80.983 86.2521H80.9883H80.9906C80.9914 86.2521 80.9929 86.2521 80.9944 86.2521H80.996C80.9975 86.2521 80.9998 86.2521 81.0013 86.2521H81.0028C81.0044 86.2521 81.0059 86.2514 81.0074 86.2514H81.0089H81.0128H81.015C81.0166 86.2514 81.0181 86.2514 81.0204 86.2514H81.0211C81.0227 86.2506 81.0242 86.2506 81.0257 86.2506H81.028H81.0318H81.0334C81.0349 86.2506 81.0364 86.2506 81.0379 86.2506L81.0395 86.2498C81.041 86.2498 81.0425 86.2498 81.0448 86.2498H81.0463C81.0479 86.2498 81.0494 86.2498 81.0502 86.2498C81.0509 86.2498 81.0517 86.2498 81.0524 86.2498L81.0563 86.2491H81.0578C81.0601 86.2491 81.0616 86.2491 81.0631 86.2491H81.0647C81.0654 86.2491 81.0677 86.2491 81.0685 86.2491C81.0692 86.2483 81.07 86.2483 81.0715 86.2483H81.0746H81.0769C81.0784 86.2483 81.0799 86.2483 81.0814 86.2483H81.0822L81.0876 86.2476H81.0891C81.0906 86.2476 81.0921 86.2476 81.0937 86.2476L81.0952 86.2468C81.0967 86.2468 81.0982 86.2468 81.0998 86.2468H81.1005H81.1066H81.1074C81.1089 86.2468 81.1105 86.246 81.112 86.246H81.1135H81.1181L81.1196 86.2453H81.125H81.1257H81.1311L81.1326 86.2445C81.1341 86.2445 81.1349 86.2445 81.1364 86.2445H81.1379H81.1425L81.144 86.2437H81.1494H81.1509C81.1524 86.2437 81.1532 86.243 81.1547 86.243H81.157H81.1608H81.1624C81.1646 86.2422 81.1662 86.2422 81.1677 86.2422H81.1692H81.1738L81.1753 86.2414H81.1791H81.1807C81.183 86.2414 81.1845 86.2407 81.186 86.2407H81.1868C81.1883 86.2407 81.1906 86.2407 81.1921 86.2407L81.1937 86.2399H81.1982H81.1998L81.2036 86.2392H81.2051C81.2074 86.2392 81.2089 86.2392 81.2104 86.2392L81.212 86.2384H81.2166H81.2181L81.2219 86.2376H81.2234C81.2249 86.2376 81.2265 86.2369 81.228 86.2369H81.2295C81.2311 86.2369 81.2333 86.2369 81.2349 86.2361H81.2364H81.2402L81.2425 86.2353H81.2463H81.2479C81.2494 86.2353 81.2517 86.2346 81.2532 86.2346H81.2547L81.2585 86.2338C81.2593 86.2338 81.2601 86.2338 81.2608 86.2338H81.2639L81.2662 86.2331C81.2677 86.2331 81.27 86.2331 81.2715 86.2331L81.2723 86.2323H81.2769C81.2776 86.2323 81.2784 86.2323 81.2791 86.2323L81.2822 86.2315C81.283 86.2315 81.2845 86.2315 81.2853 86.2315L81.2883 86.2308H81.2898C81.2921 86.2308 81.2936 86.2308 81.2952 86.23H81.2975H81.3013C81.302 86.2292 81.302 86.2292 81.3028 86.2292C81.3043 86.2292 81.3059 86.2292 81.3066 86.2292L81.3082 86.2285H81.3135L81.315 86.2277H81.3196L81.3211 86.2269H81.3249H81.3272C81.3288 86.2262 81.3303 86.2262 81.3318 86.2262H81.3326L81.3379 86.2254H81.3394C81.341 86.2247 81.3417 86.2247 81.3433 86.2247H81.3448C81.3463 86.2239 81.3478 86.2239 81.3494 86.2239H81.3509L81.3562 86.2231H81.3578C81.3585 86.2224 81.3601 86.2224 81.3616 86.2224H81.3631C81.3646 86.2216 81.3662 86.2216 81.3669 86.2216H81.3692C81.3707 86.2216 81.3723 86.2208 81.3738 86.2208H81.3746L81.3799 86.2201C81.3807 86.2201 81.3807 86.2201 81.3814 86.2193C81.383 86.2193 81.3837 86.2193 81.3853 86.2193H81.3875C81.3891 86.2186 81.3906 86.2186 81.3914 86.2186H81.3929C81.3944 86.2178 81.3967 86.2178 81.3982 86.217H81.3997H81.4036L81.4051 86.2163L81.4089 86.2155L81.4165 86.2147H81.4173L81.4219 86.214C81.4226 86.214 81.4234 86.214 81.4242 86.2132C81.4249 86.2132 81.4265 86.2132 81.4272 86.2132L81.4295 86.2124C81.4303 86.2124 81.4318 86.2124 81.4333 86.2124L81.4349 86.2117L81.4402 86.2109H81.4417C81.4433 86.2109 81.444 86.2109 81.4455 86.2102H81.4478L81.4654 86.2071C81.4669 86.2071 81.4685 86.2071 81.4692 86.2071L81.4715 86.2063C81.4746 86.2056 81.4784 86.2056 81.4822 86.2048H81.4837C81.4852 86.204 81.486 86.204 81.4875 86.204L81.4898 86.2033L81.4952 86.2025C81.4967 86.2025 81.4982 86.2025 81.4997 86.2018H81.502C81.5028 86.201 81.5043 86.201 81.5051 86.201H81.5081L81.5112 86.2002L81.5127 86.1995L81.5173 86.1987H81.5196L81.5242 86.1979H81.5257L81.5287 86.1972C81.5295 86.1972 81.5303 86.1972 81.531 86.1964C81.5326 86.1964 81.5341 86.1964 81.5349 86.1964L81.5364 86.1956C81.5387 86.1956 81.5402 86.1949 81.5417 86.1949H81.544C81.5448 86.1941 81.5463 86.1941 81.5471 86.1941L81.5494 86.1934C81.5509 86.1934 81.5517 86.1934 81.5532 86.1934L81.5547 86.1926C81.5562 86.1918 81.5585 86.1918 81.56 86.1918L81.5616 86.1911C81.5631 86.1911 81.5639 86.1911 81.5654 86.1903H81.5677C81.5684 86.1903 81.57 86.1895 81.5707 86.1895H81.573L81.5768 86.1888L81.5784 86.188C81.5799 86.188 81.5814 86.188 81.5829 86.1873H81.5852L81.5883 86.1865L81.5906 86.1857L81.5944 86.185H81.5959L81.6013 86.1842L81.6036 86.1834L81.6066 86.1827H81.6089L81.6119 86.1819H81.6142C81.6158 86.1811 81.6165 86.1811 81.6181 86.1811C81.6188 86.1804 81.6196 86.1804 81.6203 86.1804L81.6249 86.1796L81.6265 86.1789C81.628 86.1789 81.6287 86.1789 81.6295 86.1789L81.6318 86.1781L81.6348 86.1773C81.6356 86.1773 81.6364 86.1773 81.6379 86.1773C81.6394 86.1766 81.641 86.1766 81.6425 86.1758H81.6448C81.6455 86.175 81.6463 86.175 81.6471 86.175L81.6501 86.1743C81.6509 86.1743 81.6516 86.1743 81.6524 86.1743C81.6532 86.1735 81.6547 86.1735 81.6555 86.1735L81.6585 86.1727C81.66 86.1727 81.6616 86.172 81.6631 86.172C81.6639 86.172 81.6646 86.1712 81.6654 86.1712L81.6684 86.1705C81.6692 86.1705 81.67 86.1705 81.6707 86.1705L81.673 86.1697L81.6768 86.1689C81.6768 86.1689 81.6776 86.1682 81.6784 86.1682C81.6799 86.1682 81.6814 86.1674 81.6837 86.1674L81.686 86.1666L81.689 86.1659H81.6913C81.6921 86.1659 81.6936 86.1651 81.6944 86.1651L81.6967 86.1644C81.6982 86.1644 81.6997 86.1636 81.7013 86.1636L81.7028 86.1628L81.7066 86.1621H81.7089C81.7104 86.1613 81.7112 86.1613 81.7119 86.1613L81.7142 86.1605C81.7158 86.1605 81.7165 86.1605 81.7173 86.1598L81.7203 86.159C81.7219 86.159 81.7234 86.1582 81.7242 86.1582H81.7264L81.7295 86.1575L81.7326 86.1567L81.7356 86.156L81.7371 86.1552L81.7425 86.1544L81.7448 86.1537L81.7471 86.1529H81.7493L81.7532 86.1521L81.7555 86.1514L81.7593 86.1506L81.7616 86.1498C81.7623 86.1498 81.7639 86.1491 81.7654 86.1491L81.7669 86.1483L81.7707 86.1476C81.7715 86.1476 81.7722 86.1468 81.7722 86.1468C81.7738 86.1468 81.7753 86.1468 81.7761 86.146H81.7784C81.7799 86.1453 81.7814 86.1453 81.7829 86.1445H81.7852L81.7883 86.143C81.789 86.143 81.7898 86.143 81.7906 86.143L81.7936 86.1422C81.7944 86.1415 81.7951 86.1415 81.7959 86.1415C81.7974 86.1415 81.799 86.1407 81.8005 86.1399H81.8028L81.8058 86.1392L81.8081 86.1384L81.8112 86.1376L81.8135 86.1369L81.8165 86.1361C81.8173 86.1361 81.8188 86.1361 81.8196 86.1353C81.8211 86.1353 81.8226 86.1346 81.8234 86.1346L81.8257 86.1338L81.8287 86.1331L81.831 86.1323L81.8364 86.1315C81.8379 86.1308 81.8394 86.1308 81.8409 86.13C81.8417 86.13 81.8425 86.13 81.8432 86.1292C81.844 86.1292 81.8448 86.1292 81.8463 86.1285L81.8486 86.1277C81.8493 86.1277 81.8501 86.1277 81.8516 86.1277L81.8562 86.1262C81.8577 86.1254 81.8593 86.1254 81.8608 86.1247L81.8638 86.1239L81.8661 86.1231C81.8669 86.1231 81.8677 86.1224 81.8692 86.1224C81.8699 86.1224 81.8707 86.1224 81.8715 86.1216C81.8722 86.1216 81.873 86.1216 81.8745 86.1208L81.8768 86.1201C81.8783 86.1201 81.8791 86.1193 81.8814 86.1193L81.8837 86.1186L81.8867 86.1178C81.8875 86.1178 81.8883 86.117 81.889 86.117L81.8913 86.1163C81.8921 86.1163 81.8936 86.1163 81.8944 86.1155L81.8974 86.1147C81.8982 86.114 81.8997 86.114 81.9012 86.114L81.9066 86.1125C81.9074 86.1117 81.9081 86.1117 81.9096 86.1117L81.9119 86.1109L81.915 86.1102C81.9158 86.1094 81.9165 86.1094 81.918 86.1086L81.9211 86.1079C81.9226 86.1079 81.9234 86.1079 81.9241 86.1071C81.9249 86.1071 81.9257 86.1071 81.9264 86.1063C81.9272 86.1063 81.928 86.1063 81.9295 86.1056L81.9318 86.1048L81.9341 86.1041L81.9364 86.1033C81.9379 86.1033 81.9402 86.1025 81.9417 86.1025L81.944 86.101L81.9463 86.1002L81.9486 86.0995C81.9501 86.0995 81.9509 86.0995 81.9516 86.0987H81.9539C81.9554 86.0979 81.957 86.0972 81.9585 86.0972L81.9661 86.0949C81.9669 86.0941 81.9684 86.0941 81.9692 86.0941L81.9715 86.0934L81.9738 86.0926L81.9783 86.0911L81.9806 86.0903L81.9837 86.0895L81.986 86.0888L81.989 86.088L81.9913 86.0873L81.9944 86.0865L81.9982 86.085C81.9997 86.085 82.0005 86.0842 82.0012 86.0842L82.0035 86.0834C82.0043 86.0834 82.0051 86.0827 82.0058 86.0827L82.0089 86.0819L82.0112 86.0812C82.0127 86.0804 82.015 86.0796 82.0173 86.0789H82.018L82.0211 86.0781L82.0264 86.0766L82.028 86.0758L82.031 86.075L82.0318 86.0743C82.0341 86.0735 82.0364 86.0728 82.0386 86.0728L82.0402 86.072C82.0409 86.072 82.0425 86.0712 82.0432 86.0712L82.0486 86.0697L82.0509 86.0682L82.0539 86.0674L82.0577 86.0666C82.0585 86.0659 82.0592 86.0659 82.06 86.0651L82.0623 86.0644L82.0654 86.0636L82.0676 86.0628L82.0707 86.0621L82.0738 86.0613C82.0753 86.0605 82.076 86.0605 82.0776 86.0598L82.0799 86.059L82.0821 86.0582C82.0837 86.0575 82.086 86.0575 82.0875 86.0567L82.0905 86.0552L82.0944 86.0544C82.0951 86.0537 82.0959 86.0537 82.0967 86.0529C82.0974 86.0529 82.0989 86.0529 82.0997 86.0521L82.102 86.0514L82.1043 86.0506L82.1066 86.0499C82.1089 86.0491 82.1104 86.0483 82.1134 86.0476H82.1142C82.115 86.0476 82.1157 86.0468 82.1165 86.0468L82.1211 86.0453C82.1226 86.0445 82.1234 86.0445 82.1241 86.0437L82.1264 86.043C82.1272 86.043 82.128 86.0422 82.1287 86.0422L82.1363 86.0399L82.1386 86.0392L82.1409 86.0384L82.1432 86.0376L82.1455 86.0369C82.1478 86.0361 82.1493 86.0354 82.1509 86.0346L82.1524 86.0338L82.1554 86.0331C82.1562 86.0323 82.157 86.0323 82.1577 86.0323C82.1592 86.0315 82.16 86.0315 82.1608 86.0308L82.1623 86.03L82.1654 86.0292H82.1669C82.1692 86.0285 82.1707 86.0277 82.1722 86.027C82.173 86.027 82.1737 86.0262 82.1745 86.0262L82.1776 86.0254L82.1791 86.0247L82.1821 86.0231C82.1829 86.0231 82.1837 86.0231 82.1844 86.0224L82.1898 86.0209L82.1913 86.0201L82.1959 86.0186C82.1974 86.0178 82.1982 86.0178 82.1997 86.017L82.2005 86.0163C82.2043 86.0155 82.2081 86.014 82.2119 86.0125H82.2134C82.2142 86.0117 82.215 86.0109 82.2165 86.0109L82.218 86.0102L82.2211 86.0086L82.2226 86.0079C82.2241 86.0079 82.2264 86.0071 82.2287 86.0063L82.2302 86.0056L82.2333 86.0048L82.2348 86.0041C82.2363 86.0033 82.2371 86.0033 82.2379 86.0025H82.2394C82.2417 86.001 82.2447 86.0002 82.247 85.9995C82.2478 85.9987 82.2493 85.9987 82.2501 85.998C82.2508 85.998 82.2516 85.998 82.2524 85.9972L82.2547 85.9964L82.257 85.9957C82.2577 85.9949 82.2585 85.9949 82.2592 85.9941L82.2615 85.9934C82.2631 85.9934 82.2654 85.9926 82.2669 85.9918L82.2684 85.9911C82.2692 85.9903 82.2707 85.9903 82.2722 85.9896L82.273 85.9888L82.2768 85.988L82.2776 85.9873C82.2799 85.9865 82.2821 85.9857 82.2844 85.9842H82.2852C82.286 85.9842 82.2875 85.9834 82.2882 85.9827H82.2898C82.2913 85.9819 82.2921 85.9819 82.2928 85.9812L82.2951 85.9804L82.305 85.9766L82.3066 85.9758C82.3073 85.9751 82.3089 85.9751 82.3096 85.9743H82.3111C82.3127 85.9735 82.3134 85.9728 82.3142 85.9728L82.3157 85.972C82.318 85.9712 82.3203 85.9705 82.3226 85.9697L82.3234 85.9689C82.3241 85.9689 82.3256 85.9682 82.3264 85.9682L82.3279 85.9674L82.331 85.9659L82.3325 85.9651C82.3356 85.9636 82.3394 85.9621 82.3432 85.9605L82.3447 85.9598L82.3478 85.959L82.3486 85.9583C82.3524 85.9567 82.3569 85.9552 82.3608 85.9537C82.3623 85.9529 82.3638 85.9521 82.3646 85.9521L82.3653 85.9514C82.3707 85.9491 82.376 85.9468 82.3814 85.9445H82.3821C82.3829 85.9438 82.3844 85.943 82.386 85.943L82.3867 85.9422C82.3905 85.9407 82.3943 85.9392 82.3982 85.9376V85.9369C82.3997 85.9369 82.4012 85.9361 82.402 85.9354H82.4027C82.4043 85.9346 82.4058 85.9346 82.4066 85.9338H82.4073L82.4188 85.9285H82.4195C82.4211 85.9277 82.4218 85.927 82.4234 85.927L82.4241 85.9262C82.4272 85.9247 82.4318 85.9231 82.4356 85.9216L82.4363 85.9209C82.4371 85.9201 82.4386 85.9201 82.4394 85.9193L82.4409 85.9186L82.444 85.917H82.4447C82.447 85.9163 82.4493 85.9148 82.4516 85.914L82.4524 85.9132L82.4562 85.9125L82.4569 85.9117L82.4608 85.9102L82.4615 85.9094C82.4653 85.9079 82.4684 85.9064 82.4722 85.9048L82.4737 85.9041C82.4745 85.9041 82.476 85.9033 82.4768 85.9025H82.4783C82.4814 85.9002 82.4852 85.8987 82.489 85.8972L82.4898 85.8964L82.4928 85.8957C82.4936 85.8949 82.4936 85.8949 82.4943 85.8941C82.4959 85.8941 82.4966 85.8934 82.4982 85.8934V85.8926L82.5096 85.8873H82.5104C82.5119 85.8865 82.5127 85.8857 82.5142 85.8857L82.5149 85.885C82.518 85.8835 82.5218 85.8819 82.5256 85.8804L82.5272 85.8796C82.5279 85.8789 82.5287 85.8789 82.5302 85.8781L82.531 85.8773L82.5348 85.8758C82.5371 85.8743 82.5401 85.8728 82.5432 85.872C82.544 85.8712 82.5455 85.8705 82.5462 85.8697H82.547C82.5485 85.869 82.5493 85.8682 82.5508 85.8682L82.5516 85.8674C82.5554 85.8659 82.5585 85.8636 82.5623 85.8621H82.563C82.5646 85.8613 82.5653 85.8606 82.5669 85.8606L82.5684 85.8598C82.5714 85.8575 82.5753 85.856 82.5783 85.8544L82.5798 85.8537C82.5806 85.8537 82.5814 85.8529 82.5829 85.8522L82.5844 85.8514C82.5852 85.8506 82.5859 85.8506 82.5867 85.8499L82.5882 85.8491L82.5951 85.846H82.5959L82.5989 85.8445L82.5997 85.8438C82.6012 85.843 82.602 85.8422 82.6035 85.8422L82.6043 85.8415L82.6149 85.8361L82.6157 85.8354L82.6195 85.8338L82.6203 85.8331C82.6218 85.8331 82.6226 85.8323 82.6233 85.8315H82.6241C82.6279 85.8293 82.6317 85.8277 82.6356 85.8254L82.6409 85.8232C82.644 85.8209 82.6478 85.8193 82.6516 85.817H82.6523C82.6531 85.8163 82.6539 85.8155 82.6554 85.8155L82.6569 85.8148C82.6615 85.8117 82.6669 85.8094 82.6714 85.8064H82.6722C82.6775 85.8033 82.6829 85.801 82.6875 85.798H82.6882L82.692 85.7957C82.6974 85.7934 82.7027 85.7903 82.7081 85.7873C82.7134 85.7842 82.718 85.7819 82.7233 85.7789H82.7241C82.7249 85.7781 82.7264 85.7774 82.7271 85.7766H82.7279C82.7317 85.7743 82.7355 85.772 82.7394 85.7705V85.7697C82.7409 85.7697 82.7417 85.769 82.7432 85.7682V85.7674C82.7485 85.7651 82.7539 85.7621 82.7584 85.759H82.7592C82.7607 85.7583 82.7615 85.7575 82.763 85.7567C82.7668 85.7545 82.7707 85.7522 82.7745 85.7506L82.7752 85.7499C82.776 85.7491 82.7775 85.7491 82.7783 85.7483L82.7791 85.7476C82.7844 85.7453 82.789 85.7422 82.7943 85.7392V85.7384C82.7959 85.7384 82.7974 85.7377 82.7981 85.7369C82.802 85.7346 82.8058 85.7323 82.8096 85.73C82.8111 85.7293 82.8126 85.7285 82.8134 85.7277H82.8142L82.8287 85.7186H82.8294C82.834 85.7155 82.8394 85.7125 82.8439 85.7102L82.8455 85.7094C82.8462 85.7087 82.8478 85.7079 82.8485 85.7071H82.8493L82.86 85.7003H82.8607L82.8638 85.698H82.8645C82.8691 85.6949 82.8745 85.6919 82.8791 85.6888L82.8798 85.688L82.8951 85.6789C82.8958 85.6781 82.8974 85.6774 82.8981 85.6766H82.8989C82.9203 85.6629 82.9416 85.6499 82.963 85.6361L82.9668 85.6338V85.6331C82.9775 85.627 82.9867 85.6201 82.9974 85.614C83.0248 85.5957 83.0516 85.5766 83.079 85.5583C83.0836 85.5545 83.089 85.5514 83.0935 85.5476C83.7225 85.1041 84.2049 84.4835 84.479 83.7637C84.6667 83.2691 84.4164 82.7126 83.9187 82.5233Z" fill="#0784FF"/>
<path d="M52.9094 80.4693H79.9067C80.4395 80.4693 80.8707 80.9013 80.8707 81.4333C80.8707 81.9661 80.4395 82.3974 79.9067 82.3974H52.9094C52.377 82.3974 51.9454 81.9661 51.9454 81.4333C51.9454 80.9013 52.377 80.4693 52.9094 80.4693Z" fill="#CCD4FF"/>
<path d="M63.5156 49.615H71.2293C72.2942 49.615 73.1575 50.4784 73.1575 51.5435C73.1575 52.6085 72.2942 53.4719 71.2293 53.4719H63.5156C62.4508 53.4719 61.5875 52.6085 61.5875 51.5435C61.5872 50.4786 62.4508 49.615 63.5156 49.615Z" fill="#FFD700"/>
<path d="M65.4441 49.615C66.5093 49.615 67.3726 50.4784 67.3726 51.5435C67.3726 52.6085 66.5093 53.4719 65.4441 53.4719C64.3793 53.4719 63.516 52.6085 63.516 51.5435C63.5157 50.4786 64.3791 49.615 65.4441 49.615Z" fill="#FFA300"/>
<path d="M63.5156 57.3287H77.0145C78.0793 57.3287 78.9426 58.192 78.9426 59.2571C78.9426 60.3219 78.0793 61.1852 77.0145 61.1852H63.5156C62.4508 61.1852 61.5875 60.3219 61.5875 59.2571C61.5872 58.192 62.4508 57.3287 63.5156 57.3287Z" fill="#FFD700"/>
<path d="M67.3724 57.3287H71.2293C72.2941 57.3287 73.1575 58.192 73.1575 59.2571C73.1575 60.3219 72.2941 61.1852 71.2293 61.1852H67.3724C66.3074 61.1852 65.4441 60.3219 65.4441 59.2571C65.4441 58.192 66.3074 57.3287 67.3724 57.3287Z" fill="#FFA300"/>
<path d="M74.1215 70.8268H77.9786C78.5106 70.8268 78.9427 71.2586 78.9427 71.791C78.9427 72.3237 78.5106 72.7553 77.9786 72.7553H74.1215C73.5891 72.7553 73.1573 72.3237 73.1573 71.791C73.1573 71.2586 73.5891 70.8268 74.1215 70.8268Z" fill="#FFD700"/>
<path d="M55.8022 79.5052C55.8022 80.0372 55.3707 80.4693 54.8379 80.4693C54.3055 80.4693 53.8737 80.0372 53.8737 79.5052C53.8737 78.9724 54.3055 78.5411 54.8379 78.5411C55.3707 78.5411 55.8022 78.9724 55.8022 79.5052Z" fill="#163969"/>
<path d="M57.7304 79.5052C57.7304 80.0372 57.2986 80.4693 56.7662 80.4693C56.2338 80.4693 55.802 80.0372 55.802 79.5052C55.802 78.9724 56.2338 78.5411 56.7662 78.5411C57.2986 78.5411 57.7304 78.9724 57.7304 79.5052Z" fill="#005EEE"/>
<path d="M21.3677 19.1992H22.7622C22.7349 17.8477 21.5825 16.8906 19.8794 16.8906C18.1997 16.8906 16.938 17.8359 16.9419 19.25C16.9419 20.3984 17.7583 21.0586 19.0747 21.3984L19.9849 21.6328C20.8481 21.8516 21.4185 22.1211 21.4224 22.7422C21.4185 23.4258 20.77 23.8828 19.8247 23.8828C18.9185 23.8828 18.2153 23.4766 18.1567 22.6367H16.731C16.7896 24.2266 17.9731 25.1211 19.8364 25.1211C21.7544 25.1211 22.8677 24.1641 22.8716 22.7539C22.8677 21.3672 21.7231 20.7344 20.52 20.4492L19.77 20.2617C19.1138 20.1055 18.4028 19.8281 18.4106 19.1602C18.4146 18.5586 18.9536 18.1172 19.8599 18.1172C20.7231 18.1172 21.2935 18.5195 21.3677 19.1992Z" fill="white"/>
<path d="M27.0972 19H25.9136V17.5625H24.4995V19H23.6479V20.0938H24.4995V23.4297C24.4917 24.5586 25.312 25.1133 26.3745 25.082C26.7769 25.0703 27.0542 24.9922 27.2065 24.9414L26.9683 23.8359C26.8901 23.8555 26.73 23.8906 26.5542 23.8906C26.1987 23.8906 25.9136 23.7656 25.9136 23.1953V20.0938H27.0972V19Z" fill="white"/>
<path d="M32.104 22.4766C32.104 23.3906 31.4517 23.8438 30.8267 23.8438C30.147 23.8438 29.6938 23.3633 29.6938 22.6016V19H28.2798V22.8203C28.2798 24.2617 29.1001 25.0781 30.2798 25.0781C31.1782 25.0781 31.811 24.6055 32.0845 23.9336H32.147V25H33.5181V19H32.104V22.4766Z" fill="white"/>
<path d="M37.1987 25.1055C38.23 25.1055 38.6948 24.4922 38.9175 24.0547H39.0034V25H40.394V17H38.9761V19.9922H38.9175C38.7026 19.5586 38.2612 18.9219 37.2026 18.9219C35.8159 18.9219 34.7261 20.0078 34.7261 22.0078C34.7261 23.9844 35.7847 25.1055 37.1987 25.1055ZM37.5933 23.9453C36.6597 23.9453 36.1675 23.125 36.1675 22C36.1675 20.8828 36.6519 20.082 37.5933 20.082C38.5034 20.082 39.0034 20.8359 39.0034 22C39.0034 23.1641 38.4956 23.9453 37.5933 23.9453Z" fill="white"/>
<path d="M42.7798 27.2383C43.8813 27.2383 44.5181 26.668 44.8579 25.7266L47.2681 19.0078L45.7563 19L44.3696 23.5312H44.3071L42.9243 19H41.4243L43.6001 25.125L43.479 25.4492C43.2095 26.1133 42.8032 26.1641 42.186 25.9883L41.8579 27.0859C42.0493 27.168 42.3931 27.2383 42.7798 27.2383Z" fill="white"/>
<path d="M57.6147 17H56.1733V22.4531H56.103L52.3374 17H51.0405V25H52.4897V19.5508H52.5562L56.3257 25H57.6147V17Z" fill="white"/>
<path d="M61.7485 25.1172C63.5063 25.1172 64.6235 23.8789 64.6235 22.0234C64.6235 20.1641 63.5063 18.9219 61.7485 18.9219C59.9907 18.9219 58.8735 20.1641 58.8735 22.0234C58.8735 23.8789 59.9907 25.1172 61.7485 25.1172ZM61.7563 23.9844C60.7837 23.9844 60.3071 23.1172 60.3071 22.0195C60.3071 20.9219 60.7837 20.043 61.7563 20.043C62.7134 20.043 63.1899 20.9219 63.1899 22.0195C63.1899 23.1172 62.7134 23.9844 61.7563 23.9844Z" fill="white"/>
<path d="M68.8198 19H67.6362V17.5625H66.2222V19H65.3706V20.0938H66.2222V23.4297C66.2144 24.5586 67.0347 25.1133 68.0972 25.082C68.4995 25.0703 68.7769 24.9922 68.9292 24.9414L68.6909 23.8359C68.6128 23.8555 68.4526 23.8906 68.2769 23.8906C67.9214 23.8906 67.6362 23.7656 67.6362 23.1953V20.0938H68.8198V19Z" fill="white"/>
<path d="M72.5942 25.1172C73.9927 25.1172 74.9536 24.4336 75.2036 23.3906L73.8833 23.2422C73.6919 23.75 73.2231 24.0156 72.6138 24.0156C71.6997 24.0156 71.0942 23.4141 71.0825 22.3867H75.2622V21.9531C75.2622 19.8477 73.9966 18.9219 72.52 18.9219C70.8013 18.9219 69.6802 20.1836 69.6802 22.0352C69.6802 23.918 70.7856 25.1172 72.5942 25.1172ZM71.0864 21.4336C71.1294 20.668 71.6958 20.0234 72.5396 20.0234C73.3521 20.0234 73.8989 20.6172 73.9067 21.4336H71.0864Z" fill="white"/>
<path d="M81.2007 20.5859C81.0054 19.5703 80.1929 18.9219 78.7866 18.9219C77.3413 18.9219 76.3569 19.6328 76.3608 20.7422C76.3569 21.6172 76.896 22.1953 78.0483 22.4336L79.0718 22.6484C79.6226 22.7695 79.8804 22.9922 79.8804 23.332C79.8804 23.7422 79.4351 24.0508 78.7632 24.0508C78.1147 24.0508 77.6929 23.7695 77.5718 23.2305L76.1929 23.3633C76.3687 24.4648 77.2944 25.1172 78.7671 25.1172C80.2671 25.1172 81.3257 24.3398 81.3296 23.2031C81.3257 22.3477 80.7749 21.8242 79.6421 21.5781L78.6187 21.3594C78.0093 21.2227 77.7671 21.0117 77.771 20.6641C77.7671 20.2578 78.2163 19.9766 78.8062 19.9766C79.4585 19.9766 79.8022 20.332 79.9116 20.7266L81.2007 20.5859Z" fill="white"/>
</svg>
