<svg width="98" height="98" viewBox="0 0 98 98" fill="none" xmlns="http://www.w3.org/2000/svg">
<path d="M91.5976 0H6.10651C2.73398 0 0 2.73398 0 6.10651V91.5976C0 94.9702 2.73398 97.7041 6.10651 97.7041H91.5976C94.9702 97.7041 97.7041 94.9702 97.7041 91.5976V6.10651C97.7041 2.73398 94.9702 0 91.5976 0Z" fill="#15E759"/>
<path d="M66.5056 72.7508C67.2012 72.7508 67.8372 73.144 68.1485 73.7664L71.9295 84.4681C72.3831 85.3754 72.0153 86.4787 71.1079 86.9323C70.8531 87.06 70.5716 87.1263 70.2866 87.1263C69.5908 87.1263 68.9548 86.7333 68.6437 86.111L64.8627 75.4093C64.4089 74.5019 64.7767 73.3986 65.6841 72.9448C65.9392 72.8174 66.2204 72.7508 66.5056 72.7508Z" fill="#FFA300"/>
<path d="M67.6168 78.9118H69.6705C70.2375 78.9118 70.6973 79.3714 70.6973 79.9387C70.6973 80.5057 70.2375 80.9653 69.6705 80.9653H67.6168C67.0498 80.9653 66.59 80.5057 66.59 79.9387C66.59 79.3717 67.0498 78.9118 67.6168 78.9118Z" fill="#F98B00"/>
<path d="M66.8043 72.7508C66.1088 72.7508 65.4728 73.144 65.1614 73.7664L56.5181 86.5218C56.0645 87.4291 56.4323 88.5324 57.3397 88.986C57.5948 89.1137 57.876 89.18 58.161 89.18C58.8568 89.18 59.4928 88.787 59.8039 88.1647L68.4475 75.4093C68.901 74.5019 68.5333 73.3986 67.6259 72.9448C67.3708 72.8174 67.0896 72.7508 66.8043 72.7508Z" fill="#FFBE00"/>
<path d="M66.5056 72.7508C67.2012 72.7508 67.8372 73.144 68.1485 73.7664L76.7919 86.5218C77.2457 87.4291 76.8777 88.5324 75.9703 88.986C75.7154 89.1137 75.434 89.18 75.149 89.18C74.4532 89.18 73.8171 88.787 73.5061 88.1647L64.8627 75.4093C64.4089 74.5019 64.7767 73.3986 65.6841 72.9448C65.9392 72.8174 66.2204 72.7508 66.5056 72.7508Z" fill="#FFBE00"/>
<path d="M48.1074 46.0537H85.0726C87.3412 46.0537 89.18 47.8925 89.18 50.1611V74.8045C89.18 77.073 87.3412 78.9118 85.0726 78.9118H48.1074C45.8388 78.9118 44 77.073 44 74.8045V50.1611C44 47.8925 45.8388 46.0537 48.1074 46.0537Z" fill="#163969"/>
<path d="M80.9656 52.2145H56.3219C55.1876 52.2145 54.2682 53.1339 54.2682 54.2682V74.8045C54.2682 75.9387 55.1876 76.8582 56.3219 76.8582H75.1569C76.2462 76.8582 77.2909 76.4254 78.0612 75.6551L81.8162 71.9002C82.5865 71.1301 83.0192 70.0854 83.0192 68.9961V54.2682C83.019 53.1339 82.0996 52.2145 80.9656 52.2145Z" fill="#002755"/>
<path d="M85.0726 46.0537H50.1608C49.5938 46.0542 49.1345 46.5144 49.135 47.0816C49.1356 47.6478 49.5946 48.1068 50.1608 48.1074H85.0726C86.2063 48.1085 87.1249 49.0273 87.1263 50.1611V74.8045C87.1252 75.9382 86.2063 76.8568 85.0726 76.8582H84.4897C83.9227 76.8582 83.4629 77.318 83.4629 77.885C83.4629 78.4523 83.9227 78.9118 84.4897 78.9118H85.0726C87.3411 78.9118 89.18 77.073 89.18 74.8047C89.18 74.8047 89.18 74.8047 89.18 74.8045V50.1608C89.18 47.8925 87.3411 46.0537 85.0726 46.0537Z" fill="#002755"/>
<path d="M75.1569 74.8045H52.2145C51.0805 74.8045 50.1608 73.8851 50.1608 72.7508V50.1611C50.1608 49.0268 51.0802 48.1074 52.2145 48.1074H80.9655C82.0995 48.1074 83.0189 49.0268 83.0189 50.1611V66.9424C83.0189 68.0317 82.5862 69.0764 81.8161 69.8467L78.0612 73.6017C77.2909 74.3718 76.2462 74.8045 75.1569 74.8045Z" fill="#CCD4FF"/>
<path d="M72.7508 64.5363C73.8851 64.5363 74.8045 65.4557 74.8045 66.59V70.6974C74.8045 71.8314 73.8851 72.7508 72.7511 72.7508C71.6168 72.7508 70.6974 71.8314 70.6974 70.6974V66.59C70.6974 65.4557 71.6168 64.5363 72.7508 64.5363Z" fill="#A4B1FF"/>
<path d="M52.2145 50.1611H80.9655C82.0995 50.1611 83.019 51.0805 83.019 52.2145C83.019 53.3487 82.0995 54.2682 80.9655 54.2682H52.2145C51.0805 54.2682 50.1611 53.3487 50.1611 52.2145C50.1608 51.0805 51.0805 50.1611 52.2145 50.1611Z" fill="#B8C2FF"/>
<path d="M52.2145 44H80.9655C83.2338 44 85.0726 45.8388 85.0726 48.1074C85.0726 50.3756 83.2338 52.2145 80.9655 52.2145H52.2145C49.9462 52.2145 48.1074 50.3756 48.1074 48.1074C48.1074 45.8388 49.9462 44 52.2145 44Z" fill="#EFF2FF"/>
<path d="M74.8045 64.5363H80.1146C81.7189 64.5363 83.0189 65.8367 83.0189 67.4406C83.0189 68.211 82.7131 68.9495 82.1683 69.4943L77.7088 73.9538C77.1643 74.4986 76.4254 74.8045 75.6551 74.8045C74.0511 74.8045 72.7508 73.5041 72.7508 71.9002V66.59C72.7508 65.4557 73.6702 64.5363 74.8045 64.5363Z" fill="#EFF2FF"/>
<path d="M60.4292 59.6446V65.3209C60.4292 67.1559 61.9167 68.6437 63.752 68.6437C64.2677 68.6437 64.7766 68.5234 65.2379 68.2929L70.9141 65.4549C72.0399 64.892 72.7508 63.7413 72.7508 62.4826C72.7508 61.2242 72.0399 60.0735 70.9141 59.5106L65.2379 56.6726C64.7766 56.4421 64.2677 56.3218 63.752 56.3218C61.9167 56.3218 60.4292 57.8096 60.4292 59.6446Z" fill="#4CC66E"/>
<path d="M70.7837 59.6022C70.2167 59.6016 69.7566 60.0612 69.756 60.6282C69.756 60.9562 69.9125 61.2645 70.1772 61.458C70.7431 61.8718 70.8664 62.666 70.4526 63.2319C70.3332 63.3952 70.1764 63.5276 69.9958 63.618L64.3195 66.456C63.6928 66.7695 62.9304 66.5155 62.6169 65.8884C62.5287 65.7122 62.4829 65.5179 62.4829 65.3209V64.6928C62.4834 64.1258 62.0241 63.6654 61.4571 63.6649C60.8899 63.6643 60.4297 64.1236 60.4292 64.6906C60.4292 64.6911 60.4292 64.692 60.4292 64.6928V65.3209C60.4292 67.1559 61.917 68.6437 63.752 68.6437C64.2677 68.6437 64.7766 68.5237 65.2381 68.2929L70.9141 65.4549C72.0399 64.892 72.7508 63.7413 72.7508 62.4829V62.4456L72.7505 62.4388V62.4295L72.7502 62.4251V62.4155L72.7499 62.4111V62.4034L72.7497 62.4015C72.7497 62.3993 72.7497 62.3971 72.7497 62.3949L72.7494 62.3925V62.3853L72.7491 62.381V62.3782L72.7489 62.3741V62.3714L72.7486 62.3673V62.3642L72.7483 62.3588V62.3577L72.748 62.3508V62.3483L72.7478 62.344L72.7475 62.3412V62.3371L72.7472 62.3344L72.7469 62.33V62.3275L72.7467 62.3231V62.3207L72.7464 62.3138L72.7461 62.3127L72.7458 62.3072V62.3045L72.7456 62.3001L72.7453 62.2976L72.745 62.2933V62.2908L72.7447 62.2861L72.7445 62.2839C72.7445 62.2823 72.7442 62.2804 72.7442 62.279V62.2771C72.7439 62.2746 72.7439 62.2727 72.7436 62.2702V62.2683L72.7434 62.2637L72.7431 62.2609L72.7428 62.2568L72.7425 62.2538L72.7423 62.25L72.742 62.2469L72.7417 62.2431L72.7415 62.2401L72.7412 62.2352L72.7409 62.2335L72.7406 62.2269L72.7404 62.2242L72.7401 62.2201L72.7398 62.2171L72.7395 62.2132L72.7393 62.2102L72.739 62.2064L72.7387 62.2034L72.7384 62.1995L72.7382 62.1965L72.7376 62.1921L72.7371 62.1834L72.7368 62.1804L72.7362 62.1768L72.736 62.1735L72.7357 62.1699L72.7349 62.1601L72.7346 62.1562L72.7343 62.1532L72.7338 62.1486L72.7332 62.1436L72.7324 62.1338L72.7319 62.1299L72.7316 62.1269L72.7313 62.1234L72.731 62.1203L72.7305 62.1168L72.7299 62.1102C72.7297 62.108 72.7294 62.1058 72.7291 62.1039L72.7288 62.1003C72.7288 62.0992 72.7286 62.0981 72.7286 62.097L72.728 62.0938L72.7277 62.0905L72.7272 62.0872L72.7269 62.0839L72.7267 62.0803L72.7264 62.0773L72.7258 62.0735L72.7256 62.0713C72.7253 62.0685 72.7247 62.0658 72.7245 62.0631L72.7242 62.0609L72.7236 62.057L72.7234 62.0543L72.7228 62.0502L72.7225 62.0477L72.722 62.0436L72.7217 62.0411L72.7212 62.037L72.7209 62.0348L72.7179 62.0132L72.7176 62.0115L72.7171 62.0069L72.7168 62.005L72.716 62.0006L72.7151 61.994L72.7149 61.9924L72.7124 61.9762L72.7121 61.9751L72.7113 61.9704L72.711 61.9688L72.7105 61.9641L72.7102 61.9622L72.7094 61.9576L72.7091 61.9562L72.7083 61.951C72.7075 61.9452 72.7064 61.9392 72.7053 61.9334V61.9326L72.7045 61.9274L72.7042 61.9263L72.7031 61.9211V61.92C72.7028 61.9184 72.7023 61.9165 72.702 61.9148V61.914C72.7006 61.9063 72.6992 61.8986 72.6979 61.8912L72.6976 61.8901L72.6968 61.8849L72.6965 61.8838L72.6957 61.8786L72.6954 61.8778C72.6935 61.8679 72.6916 61.8581 72.6899 61.8482L72.6897 61.8479L72.6886 61.8425V61.8416L72.6875 61.8362V61.8359C72.6853 61.826 72.6834 61.8162 72.6812 61.806V61.8057L72.6801 61.8V61.7997C72.5113 60.9965 72.0511 60.284 71.3885 59.7995C71.2131 59.6709 71.001 59.6016 70.7837 59.6019V59.6022Z" fill="#14A142"/>
<path d="M52.2145 48.1074H80.9655C82.0995 48.1074 83.019 49.0268 83.019 50.1608C83.019 51.2951 82.0995 52.2145 80.9655 52.2145H52.2145C51.0805 52.2145 50.1611 51.2951 50.1611 50.1608C50.1608 49.0268 51.0805 48.1074 52.2145 48.1074Z" fill="#DFE5FF"/>
<path d="M66.59 60.4292C66.59 61.5632 65.6706 62.4826 64.5363 62.4826C63.4023 62.4826 62.4826 61.5632 62.4826 60.4292C62.4826 59.2949 63.4023 58.3755 64.5363 58.3755C65.6706 58.3755 66.59 59.2949 66.59 60.4292Z" fill="#B7E8C4"/>
<path d="M61.4558 78.9118H63.5095C64.0767 78.9118 64.5363 79.3714 64.5363 79.9387C64.5363 80.5057 64.0767 80.9653 63.5095 80.9653H61.4558C60.8888 80.9653 60.4292 80.5057 60.4292 79.9387C60.4292 79.3717 60.8888 78.9118 61.4558 78.9118Z" fill="#FFA300"/>
<path d="M69.6705 78.9118H71.7242C72.2912 78.9118 72.7508 79.3714 72.7508 79.9387C72.7508 80.5057 72.2912 80.9653 71.7242 80.9653H69.6705C69.1032 80.9653 68.6437 80.5057 68.6437 79.9387C68.6437 79.3717 69.1032 78.9118 69.6705 78.9118Z" fill="#FFA300"/>
<path d="M71.7242 52.2145H77.885C78.4523 52.2145 78.9119 52.6743 78.9119 53.2413C78.9119 53.8083 78.4523 54.2682 77.885 54.2682H71.7242C71.157 54.2682 70.6974 53.8083 70.6974 53.2413C70.6974 52.6743 71.157 52.2145 71.7242 52.2145Z" fill="#A4B1FF"/>
<path d="M63.5094 52.2145H65.5631C66.1304 52.2145 66.59 52.6743 66.59 53.2413C66.59 53.8083 66.1304 54.2682 65.5631 54.2682H63.5094C62.9425 54.2682 62.4826 53.8083 62.4826 53.2413C62.4826 52.6743 62.9425 52.2145 63.5094 52.2145Z" fill="#A4B1FF"/>
<path d="M32.356 17H30.7661L33.5825 25H35.3716L38.1919 17H36.5981L34.52 23.2969H34.438L32.356 17Z" fill="white"/>
<path d="M39.1831 25H40.5972V19H39.1831V25ZM39.894 18.1484C40.3433 18.1484 40.7104 17.8047 40.7104 17.3828C40.7104 16.957 40.3433 16.6133 39.894 16.6133C39.4409 16.6133 39.0737 16.957 39.0737 17.3828C39.0737 17.8047 39.4409 18.1484 39.894 18.1484Z" fill="white"/>
<path d="M44.2778 25.1055C45.3091 25.1055 45.7739 24.4922 45.9966 24.0547H46.0825V25H47.4731V17H46.0552V19.9922H45.9966C45.7817 19.5586 45.3403 18.9219 44.2817 18.9219C42.895 18.9219 41.8052 20.0078 41.8052 22.0078C41.8052 23.9844 42.8638 25.1055 44.2778 25.1055ZM44.6724 23.9453C43.7388 23.9453 43.2466 23.125 43.2466 22C43.2466 20.8828 43.731 20.082 44.6724 20.082C45.5825 20.082 46.0825 20.8359 46.0825 22C46.0825 23.1641 45.5747 23.9453 44.6724 23.9453Z" fill="white"/>
<path d="M51.6362 25.1172C53.0347 25.1172 53.9956 24.4336 54.2456 23.3906L52.9253 23.2422C52.7339 23.75 52.2651 24.0156 51.6558 24.0156C50.7417 24.0156 50.1362 23.4141 50.1245 22.3867H54.3042V21.9531C54.3042 19.8477 53.0386 18.9219 51.562 18.9219C49.8433 18.9219 48.7222 20.1836 48.7222 22.0352C48.7222 23.918 49.8276 25.1172 51.6362 25.1172ZM50.1284 21.4336C50.1714 20.668 50.7378 20.0234 51.5815 20.0234C52.394 20.0234 52.9409 20.6172 52.9487 21.4336H50.1284Z" fill="white"/>
<path d="M58.1177 25.1172C59.8755 25.1172 60.9927 23.8789 60.9927 22.0234C60.9927 20.1641 59.8755 18.9219 58.1177 18.9219C56.3599 18.9219 55.2427 20.1641 55.2427 22.0234C55.2427 23.8789 56.3599 25.1172 58.1177 25.1172ZM58.1255 23.9844C57.1528 23.9844 56.6763 23.1172 56.6763 22.0195C56.6763 20.9219 57.1528 20.043 58.1255 20.043C59.0825 20.043 59.5591 20.9219 59.5591 22.0195C59.5591 23.1172 59.0825 23.9844 58.1255 23.9844Z" fill="white"/>
<path d="M66.9351 20.5859C66.7397 19.5703 65.9272 18.9219 64.521 18.9219C63.0757 18.9219 62.0913 19.6328 62.0952 20.7422C62.0913 21.6172 62.6304 22.1953 63.7827 22.4336L64.8062 22.6484C65.3569 22.7695 65.6147 22.9922 65.6147 23.332C65.6147 23.7422 65.1694 24.0508 64.4976 24.0508C63.8491 24.0508 63.4272 23.7695 63.3062 23.2305L61.9272 23.3633C62.103 24.4648 63.0288 25.1172 64.5015 25.1172C66.0015 25.1172 67.0601 24.3398 67.064 23.2031C67.0601 22.3477 66.5093 21.8242 65.3765 21.5781L64.353 21.3594C63.7437 21.2227 63.5015 21.0117 63.5054 20.6641C63.5015 20.2578 63.9507 19.9766 64.5405 19.9766C65.1929 19.9766 65.5366 20.332 65.646 20.7266L66.9351 20.5859Z" fill="white"/>
</svg>
